<svg xmlns="http://www.w3.org/2000/svg"
	xmlns:xlink="http://www.w3.org/1999/xlink"
	viewBox="17.4 5.7 577 792"
	width="594.445" height="823.168">
<g id="scene">
    <set attributeName="opacity" to="1" 
		    fill="freeze" begin="btn1.click"/>
    <set attributeName="opacity" to="0" 
		    fill="freeze" begin="btn2.click"/>
    <set attributeName="opacity" to="0" 
		    fill="freeze" begin="scene.load"/>
<g>
<path fill="#80D0E3" stroke="none" d="M 594.44 797.719L 594.44 5.71881L 17.4405 5.71881L 17.4405 797.719L 594.44 797.719z"/>
</g>
<g>
<path fill="#BFAC6F" stroke-width="3" stroke="#9F853A" d="M 190.445 137.723L 190.445 59.7225L 178.445 53.7225L 260.445 15.7225L 280.445 37.7225L 270.445 51.7225L 278.445 65.7225L 292.445 59.7225L 314.445 67.7225L 310.445 75.7225L 294.445 77.7225L 304.445 121.723L 190.445 137.723z"/>
<path fill="#9F853A" stroke="none" d="M 30.4451 127.723L 26.4451 101.723L 302.445 99.7225L 498.445 117.723L 592.445 123.723L 590.445 265.723L 28.4451 247.723L 30.4451 127.723z"/>
<path fill="#BFAC6F" stroke="none" d="M 22.4451 117.723C 22.4451 117.723 150.445 153.723 206.445 151.723C 262.445 149.723 292.445 143.723 340.445 147.723C 388.445 151.723 440.445 163.723 466.445 165.723C 492.445 167.723 590.445 197.723 590.445 197.723L 594.445 797.723L 18.4451 795.723L 22.4451 117.723z"/>
<path fill="#FEE0B3" stroke="none" d="M 124.445 196.723C 124.445 196.723 130.945 190.223 135.945 191.223C 140.945 192.223 156.945 196.223 159.445 199.723C 161.945 203.223 160.945 228.223 156.445 232.223C 151.945 236.223 139.445 240.223 131.445 236.723C 123.445 233.223 114.945 219.723 116.445 212.723C 117.945 205.723 124.445 196.723 124.445 196.723z"/>
<path fill="#FEE0B3" stroke="none" d="M 263.445 319.223C 269.945 319.223 284.945 321.223 285.945 330.223C 286.945 339.223 282.445 352.223 271.945 351.723C 261.445 351.223 248.445 343.223 250.945 335.223C 253.445 327.223 263.445 319.223 263.445 319.223z"/>
<path fill="#FEE0B3" stroke="none" d="M 458.945 186.223C 469.445 178.723 479.445 173.723 488.445 176.723C 497.445 179.723 506.445 187.223 505.945 197.223C 505.445 207.223 500.945 218.223 489.945 221.223C 478.945 224.223 461.945 220.723 457.445 212.723C 451.622 202.371 458.945 186.223 458.945 186.223z"/>
<path fill="#FEE0B3" stroke="none" d="M 534.945 332.723L 558.945 334.223C 558.945 334.223 575.945 343.723 572.945 357.223C 569.945 370.723 567.445 375.723 554.945 375.223C 542.445 374.723 531.445 379.723 527.945 369.223C 524.445 358.723 523.445 347.223 527.945 341.223C 532.445 335.223 534.945 332.723 534.945 332.723z"/>
<path fill="#FEE0B3" stroke="none" d="M 50.4451 453.723L 34.4451 501.723C 34.4451 501.723 29.4451 519.723 37.4451 526.723C 45.4451 533.723 84.4451 546.723 101.445 543.723C 118.445 540.723 118.445 545.723 124.445 533.723C 130.445 521.723 140.445 507.723 139.445 488.723C 138.445 469.723 139.445 465.723 130.445 459.723C 121.445 453.723 101.445 436.723 85.4451 439.723C 69.4451 442.723 50.4451 453.723 50.4451 453.723z"/>
<path fill="#FFFFFF" stroke="none" d="M 34.4451 501.723L 130.445 459.723C 130.445 459.723 123.445 451.723 104.445 445.723C 85.4451 439.723 64.4451 435.723 57.4451 444.723C 50.4451 453.723 42.4451 466.723 40.4451 476.723C 38.4451 486.723 34.4451 501.723 34.4451 501.723z"/>
<path fill="#BE735F" stroke="none" d="M 159.445 512.723L 160.445 531.723L 177.445 532.723L 175.445 513.723L 159.445 512.723z"/>
<path fill="#DDB7BF" stroke="none" d="M 59.4451 464.723C 55.4451 469.723 68.4451 461.723 73.4451 466.723C 78.4451 471.723 75.4451 473.723 72.4451 477.723C 69.4451 481.723 55.4451 485.723 52.4451 481.723C 49.4451 477.723 63.4451 459.723 59.4451 464.723z"/>
<path fill="#FFFFFF" stroke="none" d="M 73.4451 659.723C 83.4451 652.723 110.445 637.723 110.445 637.723C 110.445 637.723 129.445 625.723 143.445 623.723C 157.445 621.723 169.445 620.723 172.445 632.723C 175.445 644.723 177.445 647.723 171.445 654.723C 165.445 661.723 148.445 667.723 138.445 675.723C 128.445 683.723 109.445 690.723 99.4451 697.723C 89.4451 704.723 80.4451 709.723 74.4451 699.723C 68.4451 689.723 66.4451 672.723 68.4451 668.723C 70.4451 664.723 73.4451 659.723 73.4451 659.723z"/>
<path fill="#DFD5B0" stroke="none" d="M 76.4451 675.723C 76.4451 675.723 90.4451 674.723 92.4451 679.723C 94.4451 684.723 105.445 679.723 105.445 679.723C 105.445 679.723 119.445 673.723 129.445 668.723C 139.445 663.723 143.445 660.723 152.445 655.723C 161.445 650.723 167.445 653.723 167.445 653.723C 167.445 653.723 160.445 665.723 149.445 670.723C 138.445 675.723 117.445 683.723 108.445 690.723C 99.4451 697.723 94.4451 707.723 84.4451 703.723C 74.4451 699.723 72.4451 692.723 70.4451 687.723C 68.4451 682.723 76.4451 675.723 76.4451 675.723z"/>
<path fill="#FFFFFF" stroke="none" d="M 159.445 667.723L 142.445 678.723L 115.445 630.723L 83.4451 574.723L 119.445 561.723L 100.445 575.723L 137.445 587.723L 104.445 584.723L 130.445 627.723"/>
<path fill="#9F853A" stroke="none" d="M 157.57 462.473C 190.445 464.848 221.32 471.598 254.945 478.223C 289.82 485.098 322.445 485.223 356.57 493.973C 372.82 498.098 384.82 509.973 401.57 513.348C 448.695 523.098 494.07 518.348 540.32 521.723L 540.57 513.723C 494.07 509.723 446.32 514.723 400.57 505.348C 359.695 480.223 312.57 479.473 265.32 471.723C 228.695 465.848 194.57 457.223 158.445 454.598L 157.57 462.473z"/>
<path fill="#9F853A" stroke="none" d="M 308.07 642.848C 344.195 654.848 382.195 653.098 419.82 654.598C 460.695 656.098 501.07 662.598 542.07 662.223L 547.82 663.598C 548.195 663.473 548.695 663.348 549.07 663.098L 550.445 662.348C 558.32 660.848 566.32 662.098 574.195 661.723C 573.82 661.723 573.57 661.723 573.195 661.723L 573.195 653.723C 566.07 653.723 559.07 653.598 551.945 653.848L 545.07 656.223L 547.32 655.598L 546.57 655.223C 504.07 653.473 462.07 649.223 419.57 646.473C 393.57 644.723 368.195 646.723 341.945 643.098C 330.445 641.473 320.32 635.973 308.82 634.973L 308.07 642.848z"/>
<path fill="#9F853A" stroke="none" d="M 47.1951 213.598C 58.5701 210.973 70.8201 211.348 81.8201 215.598L 86.9451 209.473C 85.9451 208.223 85.0701 206.223 84.0701 206.098C 71.1951 205.223 58.4451 201.473 45.6951 205.848L 47.1951 213.598z"/>
<path fill="#C0C0C0" stroke="none" d="M 174.008 498.91C 172.32 494.66 173.383 490.035 175.695 486.473L 176.133 485.41L 173.883 487.91L 174.383 487.66L 174.383 487.66L 176.758 487.41L 171.32 484.723L 173.445 487.66C 174.383 488.16 175.383 488.66 176.32 489.16L 176.633 489.285L 174.32 486.285L 174.383 486.723L 174.383 486.723L 174.445 487.16C 174.758 488.785 175.945 490.035 177.508 490.41L 177.945 490.473L 177.945 490.473L 178.57 490.598C 178.82 490.66 179.133 490.723 179.383 490.723C 181.633 490.723 183.445 488.973 183.445 486.723L 183.445 486.348L 183.445 486.348L 183.445 486.098L 183.445 486.098L 183.445 485.098L 182.695 487.473L 183.07 486.91C 188.82 469.973 195.758 453.098 199.445 435.598L 199.445 434.785L 198.32 437.535L 197.32 438.098C 204.57 438.348 212.508 440.41 218.883 435.723L 219.383 435.285C 220.133 434.723 220.633 433.91 220.82 433.035L 221.008 432.035C 222.07 426.723 218.508 422.035 216.883 417.348C 215.195 412.348 222.008 410.535 225.508 408.16C 225.195 408.41 224.945 408.66 224.633 408.91L 220.945 401.848C 215.258 404.285 209.383 408.285 208.508 415.035C 207.82 420.41 211.82 424.16 213.383 428.848L 213.008 431.285L 214.383 429.035L 213.008 429.973C 206.32 432.848 199.57 427.535 192.883 432.348L 192.57 431.973C 191.82 432.723 191.445 433.723 191.445 434.785L 191.57 436.785C 186.383 452.16 181.445 467.66 176.258 483.035L 176.195 482.723C 175.695 483.41 175.445 484.285 175.445 485.098L 175.445 486.098L 175.445 486.035L 175.445 486.285L 175.445 486.285L 175.445 486.723L 180.32 482.848L 179.695 482.66L 179.695 482.66L 179.258 482.598L 182.32 485.848L 182.258 485.41L 182.258 485.41L 182.195 484.973C 182.008 483.66 181.133 482.535 179.883 481.973L 178.133 481.098C 178.07 481.035 177.945 481.035 177.883 480.973L 179.07 482.723C 178.57 480.91 177.008 479.723 175.133 479.723L 174.133 479.723C 172.883 479.91 171.695 480.41 170.57 480.91L 170.695 480.598C 169.633 481.035 168.82 481.91 168.445 483.035L 167.32 485.098C 167.383 484.91 167.383 484.723 167.445 484.535C 164.945 490.035 164.383 496.785 166.883 502.535L 174.008 498.91z"/>
<path fill="#FFFFFF" stroke="none" d="M 356.82 43.7225C 360.445 46.7225 364.32 49.2225 368.695 50.5975C 390.945 57.8475 412.82 62.0975 436.32 59.5975C 456.07 57.4725 475.07 51.9725 494.82 54.4725C 516.32 57.2225 537.32 57.3475 558.32 61.4725L 560.32 53.7225C 538.695 49.2225 516.82 48.8475 494.82 46.8475C 463.695 43.9725 433.195 54.3475 401.82 51.4725C 389.07 44.7225 372.445 47.7225 361.695 37.3475L 356.82 43.7225z"/>
<path fill="#FFFFFF" stroke="none" d="M 54.0701 48.8475C 67.5701 46.3475 79.6951 52.7225 92.8201 54.7225C 106.195 56.7225 118.945 59.2225 132.195 57.2225C 143.82 55.5975 154.82 52.8475 166.445 53.7225L 166.445 45.7225C 154.945 45.0975 143.695 47.7225 132.195 49.0975C 108.07 51.8475 85.9451 44.3475 61.8201 39.9725C 58.5701 39.3475 55.5701 40.0975 52.4451 40.9725L 54.0701 48.8475z"/>
<path fill="#FFFFFF" stroke="none" d="M 121.195 33.7225C 139.195 34.0975 157.07 36.9725 175.195 35.7225C 184.07 35.0975 192.945 27.8475 201.82 33.4725L 207.07 27.3475C 196.695 19.3475 184.445 26.5975 173.07 27.5975C 155.57 29.0975 138.445 26.0975 121.195 25.7225L 121.195 33.7225z"/>
</g>
<g>
<path fill="none" stroke-width="4" stroke="#808080" stroke-linejoin="round" d="M 142.945 192.723C 118.078 186.506 112.945 215.223 120.445 228.723C 128.012 241.964 147.67 238.567 153.945 234.223C 160.445 229.723 163.445 208.223 160.445 201.723C 157.853 196.107 148.945 194.223 142.945 192.723z"/>
<path fill="none" stroke-width="4" stroke="#808080" stroke-linejoin="round" d="M 126.445 240.723C 118.945 258.723 120.445 278.223 120.445 297.723C 133.945 293.223 148.945 290.223 163.945 294.723C 165.445 308.223 160.945 323.223 165.445 336.723"/>
<path fill="none" stroke-width="4" stroke="#808080" stroke-linejoin="round" d="M 120.445 297.723C 120.445 309.723 115.945 318.723 106.945 323.223C 93.4451 330.723 79.9451 314.223 67.9451 320.223C 66.4451 321.723 67.9451 329.223 67.9451 335.223"/>
<path fill="none" stroke-width="4" stroke="#808080" stroke-linejoin="round" d="M 120.445 255.723C 106.945 249.723 91.9451 245.223 76.9451 246.723"/>
<path fill="none" stroke-width="4" stroke="#808080" stroke-linejoin="round" d="M 126.445 260.389C 130.945 257.389 136.445 255.223 142.445 253.723C 151.275 252.251 150.445 250.389 164.445 251.056"/>
<path fill="none" stroke-width="4" stroke="#808080" stroke-linejoin="round" d="M 268.778 352.026C 278.411 352.026 286.22 344.428 286.22 335.056C 286.22 325.683 278.411 318.085 268.778 318.085C 259.146 318.085 251.336 325.683 251.336 335.056C 251.336 344.428 259.146 352.026 268.778 352.026z"/>
<path fill="none" stroke-width="3" stroke="#808080" stroke-linejoin="round" d="M 259.778 323.056L 263.112 330.389L 258.445 335.056L 253.112 335.056"/>
<path fill="none" stroke-width="3" stroke="#808080" stroke-linejoin="round" d="M 271.112 333.723L 278.445 331.723L 280.445 339.056L 273.778 343.723L 269.112 339.056L 271.112 333.723z"/>
<path fill="none" stroke-width="4" stroke="#808080" stroke-linejoin="round" d="M 479.945 175.223C 470.89 175.223 458.945 183.723 455.945 190.723C 451.945 198.723 454.445 201.723 456.445 209.723C 460.445 224.723 484.445 224.723 490.445 221.723C 496.445 218.723 500.945 214.723 502.945 208.723C 506.015 199.513 507.445 199.223 503.945 188.223C 500.913 178.693 488.945 175.223 479.945 175.223z"/>
<path fill="none" stroke-width="4" stroke="#808080" stroke-linejoin="round" d="M 482.445 226.723C 482.445 232.723 481.445 239.723 483.445 245.723C 486.445 256.723 495.445 277.723 495.445 277.723L 463.445 282.223C 463.445 282.223 485.945 300.723 492.945 309.723C 492.945 311.723 489.945 316.223 487.945 318.223"/>
<path fill="none" stroke-width="4" stroke="#808080" stroke-linejoin="round" d="M 495.445 277.723C 503.445 281.723 514.445 283.723 521.445 291.723C 522.445 292.723 525.445 293.723 526.445 292.723C 531.445 284.723 536.445 277.723 540.445 269.723C 541.445 269.723 542.445 271.723 542.445 272.723"/>
<path fill="none" stroke-width="4" stroke="#808080" stroke-linejoin="round" d="M 481.445 241.723C 467.445 238.723 453.445 233.723 439.445 234.723"/>
<path fill="none" stroke-width="4" stroke="#808080" stroke-linejoin="round" d="M 483.445 250.723C 493.445 248.723 502.445 248.723 512.445 247.723"/>
<path fill="none" stroke-width="3" stroke="#808080" stroke-linejoin="round" d="M 286.445 316.723C 287.445 301.723 303.445 295.723 316.445 292.723C 323.445 291.723 331.445 291.723 338.445 292.723C 344.445 294.723 348.445 298.723 353.445 301.723C 359.445 305.723 359.445 314.723 356.445 319.723C 355.445 322.723 341.882 323.512 340.445 318.723C 338.945 313.723 340.945 306.223 342.445 301.723"/>
<path fill="none" stroke-width="3" stroke="#808080" stroke-linejoin="round" d="M 346.445 296.723C 361.445 280.723 386.445 283.723 406.445 285.723C 412.445 286.723 417.445 289.723 420.445 295.723"/>
<path fill="none" stroke-width="3" stroke="#808080" stroke-linejoin="round" d="M 470.445 213.223C 470.445 213.223 481.445 215.223 484.945 213.723C 488.445 212.223 492.945 207.223 492.945 207.223"/>
<path fill="none" stroke-width="3" stroke="#808080" stroke-linejoin="round" d="M 465.945 194.723L 465.445 202.223"/>
<path fill="none" stroke-width="3" stroke="#808080" stroke-linejoin="round" d="M 477.445 198.223L 476.445 203.723"/>
<path fill="none" stroke-width="3" stroke="#808080" stroke-linejoin="round" d="M 127.445 225.723C 126.945 226.223 130.945 228.723 134.445 229.223C 137.945 229.723 144.445 228.723 146.445 228.223C 148.445 227.723 148.445 226.723 149.445 225.723"/>
<path fill="none" stroke-width="3" stroke="#808080" stroke-linejoin="round" d="M 138.445 210.223C 138.445 212.223 138.445 213.723 138.445 215.723"/>
<path fill="none" stroke-width="3" stroke="#808080" stroke-linejoin="round" d="M 149.945 210.223C 149.945 211.723 149.445 215.223 149.445 216.723"/>
<path fill="none" stroke-width="4" stroke="#808080" stroke-linejoin="round" d="M 534.445 332.389C 525.778 336.389 520.445 359.723 528.445 369.723C 536.445 377.723 556.445 377.723 566.445 371.723C 572.445 367.723 575.778 357.723 571.112 346.389C 568.958 341.158 564.445 337.723 558.445 334.389C 555.839 332.941 534.445 332.389 534.445 332.389z"/>
<path fill="none" stroke-width="4" stroke="#808080" stroke-linejoin="round" d="M 550.445 377.723C 548.445 397.723 560.445 417.723 560.445 437.723C 558.445 449.723 540.445 453.723 532.445 463.723C 526.445 471.723 528.445 481.723 524.445 491.723C 522.445 493.723 518.445 493.723 514.445 493.723"/>
<path fill="none" stroke-width="4" stroke="#808080" stroke-linejoin="round" d="M 560.445 437.723C 556.445 457.723 566.445 467.723 570.445 481.723C 570.445 481.723 572.445 481.723 574.445 481.723"/>
<path fill="none" stroke-width="4" stroke="#808080" stroke-linejoin="round" d="M 552.445 397.723C 560.445 397.723 574.445 397.723 576.445 407.723"/>
<path fill="none" stroke-width="4" stroke="#808080" stroke-linejoin="round" d="M 532.445 413.723C 540.445 415.723 546.445 419.723 554.445 417.723"/>
<path fill="none" stroke-width="3" stroke="#808080" stroke-linejoin="round" d="M 533.112 348.389L 532.445 355.723"/>
<path fill="none" stroke-width="3" stroke="#808080" stroke-linejoin="round" d="M 544.445 353.056L 543.112 360.389"/>
<path fill="none" stroke-width="3" stroke="#808080" stroke-linejoin="round" d="M 535.112 367.723C 538.112 369.723 542.445 369.389 545.778 369.056"/>
<path fill="none" stroke-width="6" stroke="#808080" stroke-linejoin="round" d="M 103.82 443.223C 103.82 443.223 78.8201 436.223 59.8201 445.223C 40.8201 454.223 25.8201 515.223 35.8201 527.223C 45.8201 539.223 99.8201 548.223 115.82 541.223C 131.82 534.223 144.82 485.223 137.82 469.223C 130.82 453.223 119.82 455.223 107.82 449.223"/>
<path fill="none" stroke-width="6" stroke="#808080" stroke-linejoin="round" d="M 81.8201 549.223C 80.4149 573.11 86.1672 604.155 94.2217 634.382"/>
<path fill="none" stroke-width="6" stroke="#808080" stroke-linejoin="round" d="M 112.265 692.242C 122.718 721.985 131.82 743.223 131.82 743.223C 131.82 743.223 181.82 707.223 211.82 695.223C 229.82 721.223 237.82 753.223 253.82 781.223C 253.82 783.223 261.82 781.223 267.82 781.223"/>
<path fill="none" stroke-width="6" stroke="#808080" stroke-linejoin="round" d="M 167.82 625.223C 165.32 619.223 141.82 619.223 131.82 627.223"/>
<path fill="none" stroke-width="6" stroke="#808080" stroke-linejoin="round" d="M 117.82 633.223C 98.0793 639.803 85.0306 649.489 71.8201 659.223C 65.304 667.913 65.8948 674.569 67.8896 684.609"/>
<path fill="none" stroke-width="6" stroke="#808080" stroke-linejoin="round" d="M 69.8201 694.223C 76.3523 703.287 85.8201 708.223 104.798 696.162C 124.537 683.617 152.65 673.509 163.82 661.223C 171.82 655.223 175.82 643.223 169.82 631.223"/>
<path fill="none" stroke-width="6" stroke="#808080" stroke-linejoin="round" d="M 83.8201 688.223L 53.8201 705.223C 53.8201 705.223 56.8201 675.223 60.8201 650.223C 64.6251 626.442 64.8201 605.223 79.8201 577.223"/>
<path fill="none" stroke-width="6" stroke="#808080" stroke-linejoin="round" d="M 131.82 743.223C 135.82 735.223 145.445 723.723 149.445 717.723C 159.445 701.723 165.82 699.223 177.82 687.223C 181.82 683.223 187.82 683.223 189.82 679.223C 189.82 683.626 193.445 687.135 193.445 693.723"/>
<path fill="none" stroke-width="6" stroke="#808080" stroke-linejoin="round" d="M 196.445 703.723C 196.445 725.723 198.445 745.723 197.82 773.223C 197.82 773.223 203.82 773.223 207.82 773.223"/>
<path fill="none" stroke-width="6" stroke="#808080" stroke-linejoin="round" d="M 143.82 683.223"/>
<path fill="none" stroke-width="4" stroke="#808080" stroke-linejoin="round" d="M 141.258 678.223L 84.8201 573.723C 84.8201 573.723 120.711 558.281 121.82 560.223C 123.82 563.723 106.82 568.723 98.8201 575.223C 107.32 573.723 137.82 586.223 137.82 588.223C 137.82 590.223 103.82 581.723 103.82 581.723L 131.82 627.223C 143.82 645.223 147.82 650.223 161.82 666.223"/>
<path fill="none" stroke-width="6" stroke="#808080" stroke-linejoin="round" d="M 171.82 633.223L 189.32 624.723"/>
<path fill="none" stroke-width="6" stroke="#808080" stroke-linejoin="round" d="M 79.8201 527.223C 93.1534 532.556 89.8201 532.556 102.487 530.556"/>
<path fill="none" stroke-width="6" stroke="#808080" stroke-linejoin="round" d="M 87.8201 484.556C 88.4867 489.223 91.1534 493.223 92.4868 497.889"/>
<path fill="none" stroke-width="6" stroke="#808080" stroke-linejoin="round" d="M 111.82 484.556C 111.82 488.556 111.82 491.889 112.487 495.889"/>
<path fill="none" stroke-width="4" stroke="#808080" stroke-linejoin="round" d="M 33.8201 502.556L 131.82 460.556L 123.82 453.223L 40.4868 474.556L 46.4868 460.556L 75.8201 463.889"/>
<path fill="none" stroke-width="4" stroke="#808080" stroke-linejoin="round" d="M 59.1534 447.223L 110.487 451.223"/>
<path fill="none" stroke-width="6" stroke="#808080" stroke-linejoin="round" d="M 87.8201 595.889L 95.8201 595.223"/>
<path fill="none" stroke-width="6" stroke="#808080" stroke-linejoin="round" d="M 112.487 595.223L 175.82 597.223L 158.487 539.889L 175.82 542.556L 182.487 529.889"/>
<path fill="none" stroke-width="6" stroke="#808080" stroke-linejoin="round" d="M 113.153 530.556C 131.153 529.889 157.153 533.223 175.153 533.889C 179.82 527.223 177.82 521.889 178.487 514.556C 173.153 513.223 166.487 512.556 161.153 513.223C 159.82 521.223 162.487 523.889 162.487 531.889"/>
<path fill="none" stroke-width="4" stroke="#808080" stroke-linejoin="round" d="M 207.445 211.723C 207.445 211.723 213.445 204.723 213.445 197.723C 213.445 190.723 221.445 187.723 227.445 187.723C 233.445 187.723 237.445 191.723 237.445 198.723C 237.445 205.723 243.445 213.723 243.445 213.723L 207.445 211.723z"/>
<path fill="none" stroke-width="4" stroke="#808080" stroke-linejoin="round" d="M 225.695 187.723L 225.945 179.973"/>
<path fill="none" stroke-width="4" stroke="#808080" stroke-linejoin="round" d="M 185.195 214.473C 185.195 214.473 188.195 216.223 194.445 214.723C 200.695 213.223 209.445 207.473 209.445 207.473C 209.445 207.473 197.945 194.223 190.445 195.473C 182.945 196.723 176.445 206.473 176.195 209.973C 175.945 213.473 185.195 214.473 185.195 214.473z"/>
<path fill="none" stroke-width="4" stroke="#808080" stroke-linejoin="round" d="M 209.445 207.473"/>
<path fill="none" stroke-width="6" stroke="#808080" d="M 31.4451 590.723L 51.4451 654.723"/>
<path fill="none" stroke-width="6" stroke="#808080" d="M 70.4451 699.723L 95.4451 748.723L 184.445 734.723"/>
<path fill="none" stroke-width="6" stroke="#808080" d="M 171.445 734.723L 196.445 791.723"/>
<path fill="none" stroke-width="6" stroke="#808080" d="M 104.445 746.723L 95.4451 791.723"/>
</g>
</g>
<g>
<g>
<g>
<g>
<path fill="#9F352A" stroke-width="6" stroke="#404040" d="M 463.586 330.595L 504.659 367.883L 489.238 384.869L 448.166 347.581"/>
<path fill="#FFFFFF" stroke-width="6" stroke="#404040" d="M 433.422 334.196L 201.731 123.854L 180.698 89.8857L 217.151 106.868L 448.579 316.971"/>
<path fill="#FC815F" stroke-width="6" stroke="#404040" d="M 415.534 354.201L 467.155 297.341L 481.598 310.453L 429.977 367.313L 415.534 354.201z"/>
</g>
<g>
<path fill="#9F352A" stroke-width="6" stroke="#404040" d="M 148.294 330.595L 107.222 367.883L 122.643 384.869L 163.715 347.581"/>
<path fill="#FFFFFF" stroke-width="6" stroke="#404040" d="M 178.459 334.196L 410.15 123.854L 431.183 89.8857L 394.729 106.868L 163.302 316.971"/>
<path fill="#FC815F" stroke-width="6" stroke="#404040" d="M 196.347 354.201L 144.726 297.341L 130.283 310.453L 181.904 367.313L 196.347 354.201z"/>
</g>
</g>
<g>
<g>
<path fill="#9F352A" stroke-width="6" stroke="#404040" d="M 463.586 662.001L 504.659 699.289L 489.238 716.275L 448.166 678.987"/>
<path fill="#FFFFFF" stroke-width="6" stroke="#404040" d="M 433.422 665.602L 201.731 455.26L 180.698 421.292L 217.151 438.274L 448.579 648.377"/>
<path fill="#FC815F" stroke-width="6" stroke="#404040" d="M 415.534 685.608L 467.155 628.748L 481.598 641.86L 429.977 698.72L 415.534 685.608z"/>
</g>
<g>
<path fill="#9F352A" stroke-width="6" stroke="#404040" d="M 148.294 662.001L 107.222 699.289L 122.643 716.275L 163.715 678.987"/>
<path fill="#FFFFFF" stroke-width="6" stroke="#404040" d="M 178.459 665.602L 410.15 455.26L 431.183 421.292L 394.729 438.274L 163.302 648.377"/>
<path fill="#FC815F" stroke-width="6" stroke="#404040" d="M 196.347 685.608L 144.726 628.748L 130.283 641.86L 181.904 698.72L 196.347 685.608z"/>
</g>
</g>
</g>
</g>
</svg>