<svg xmlns="http://www.w3.org/2000/svg"
	xmlns:xlink="http://www.w3.org/1999/xlink"
	viewBox="31.4 5.3 577 792"
	width="640.101" height="797.317">
<g>
<path fill="#13017C" stroke="none" d="M 608.445 797.317L 608.445 5.31714L 31.4451 5.31714L 31.4451 797.317L 608.445 797.317z"/>
</g>
<g>
<path fill="#819CC9" stroke-width="6" stroke="#BFCBE3" d="M 608.528 237.401C 593.166 221.996 571.919 212.464 548.445 212.464C 501.583 212.464 463.592 250.455 463.592 297.317C 463.592 344.179 501.583 382.17 548.445 382.17C 571.876 382.17 593.089 372.672 608.445 357.317"/>
<path fill="#FEC06F" stroke-width="6" stroke="#FF8000" d="M 32.4451 281.317L 548.445 297.317L 34.4451 39.3171"/>
<path fill="#FEE0B3" stroke-width="6" stroke="#FFFFC0" d="M 31.4451 221.317L 545.445 297.317L 33.4451 551.317"/>
<path fill="#FEC06F" stroke-width="6" stroke="#FF8000" d="M 608.445 261.317L 548.445 297.317L 607.945 355.817"/>
<path fill="#FEE0B3" stroke-width="6" stroke="#FFFFC0" d="M 608.445 282.817L 548.445 297.317L 607.945 328.817"/>
<path fill="#FEA033" stroke="none" d="M 172.445 235.817L 161.945 201.317L 146.445 201.817L 140.945 168.317L 124.945 169.817L 123.945 161.817L 110.945 160.317L 107.945 226.317L 172.445 235.817z"/>
<path fill="#FEC06F" stroke="none" d="M 108.445 239.817L 176.445 248.817L 185.945 255.317L 186.945 251.317L 195.445 253.317L 210.445 358.817L 255.945 371.317L 272.445 369.317L 301.445 388.817L 331.945 391.817L 338.945 390.817L 32.4451 539.817L 31.9451 360.317L 42.9451 360.317L 43.9451 340.817L 45.9451 327.317L 58.9451 322.317L 64.4451 314.817L 79.9451 327.817L 102.945 329.817L 104.945 340.317L 109.945 328.317L 108.445 239.817z"/>
<path fill="#FEA033" stroke-width="6" stroke="#FF8000" d="M 32.4451 515.317C 30.4451 515.317 554.445 295.317 554.445 295.317L 32.4451 751.317"/>
<path fill="#FEC06F" stroke="none" d="M 368.695 393.567L 386.445 403.817L 424.445 405.317"/>
<path fill="#FEE0B3" stroke-width="6" stroke="#FFFFC0" d="M 548.445 249.234C 521.89 249.234 500.362 270.762 500.362 297.317C 500.362 323.872 521.89 345.4 548.445 345.4C 575 345.4 596.528 323.872 596.528 297.317C 596.528 270.762 575 249.234 548.445 249.234z"/>
<path fill="#FEC06F" stroke="none" d="M 503.778 318.65L 344.445 385.984L 371.112 393.317L 386.445 403.817L 419.112 405.317L 510.445 328.65L 503.778 318.65z"/>
<path fill="#416A40" stroke="none" d="M 607.112 555.984L 607.778 436.65C 607.778 436.65 593.112 440.65 572.445 438.65C 552.613 436.731 522.112 409.317 506.112 409.317C 490.112 409.317 432.445 407.984 432.445 407.984L 353.695 475.067C 353.695 475.067 391.778 510.65 404.445 519.317C 417.112 527.984 460.99 548.453 488.445 555.317C 515.112 561.984 549.112 563.317 573.112 561.317C 591.487 559.786 607.112 555.984 607.112 555.984z"/>
<path fill="#054A5E" stroke="none" d="M 607.778 796.65L 607.778 557.984C 607.778 557.984 551.03 566.123 519.778 562.65C 470.761 557.204 439.295 543.652 402.445 519.317C 378.484 503.494 349.112 479.984 349.112 479.984L 186.945 622.817L 32.4451 756.65L 32.4451 796.65L 607.778 796.65z"/>
<path fill="none" stroke-width="6" stroke="#8169B0" d="M 608.302 38.2105C 589.064 33.7839 569.027 31.4451 548.445 31.4451C 446.164 31.4451 357.371 89.2032 312.903 173.882"/>
<path fill="none" stroke-width="6" stroke="#FEC06F" d="M 312.903 173.882C 293.533 210.769 282.573 252.763 282.573 297.317C 282.573 366.146 308.729 428.867 351.642 476.083"/>
<path fill="none" stroke-width="6" stroke="#8169B0" d="M 351.642 476.083C 400.278 529.594 470.439 563.189 548.445 563.189C 569.154 563.189 589.309 560.822 608.656 556.342"/>
<path fill="#FEE0B3" stroke-width="4" stroke="#FF8000" d="M 124.445 279.984C 124.445 277.984 124.445 263.317 124.445 263.317L 134.445 263.317L 134.445 279.317L 128.445 279.317"/>
<path fill="#FEE0B3" stroke-width="4" stroke="#FF8000" d="M 125.778 295.317L 135.778 295.317L 135.778 313.317L 125.778 312.65L 125.778 300.65"/>
<path fill="#FEC06F" stroke-width="4" stroke="#FF8000" d="M 122.445 218.65L 121.778 201.317L 131.112 201.317L 132.445 218.65L 122.445 218.65z"/>
<path fill="#80CDB1" stroke-width="4" stroke="#C0E7D5" d="M 532.091 120.868L 547.164 112.637L 539.306 127.055L 549.826 136.553L 533.062 137.998L 524.061 150.297L 521.271 135.606L 508.64 131.178L 521.368 125.845L 521.23 111.578L 532.091 120.868z"/>
<path fill="#80CDB1" stroke-width="4" stroke="#C0E7D5" d="M 387.122 67.1237L 400.373 56.1984L 395.374 71.8391L 407.497 79.1837L 391.306 83.7634L 384.785 97.5385L 379.276 83.6375L 366.036 81.6702L 377.53 74.0331L 374.705 60.0477L 387.122 67.1237z"/>
<path fill="#FFFFC0" stroke-width="4" stroke="#FFFFFF" d="M 56.0834 147.58L 50.4674 131.35L 63.3813 141.491L 74.4937 132.692L 73.1373 149.464L 83.7717 160.381L 68.8224 160.694L 62.3598 172.416L 59.2124 158.98L 45.12 156.749L 56.0834 147.58z"/>
<path fill="#80CDB1" stroke-width="4" stroke="#C0E7D5" d="M 564.445 389.317L 568.101 372.537L 573.846 387.919L 587.915 386.193L 578.024 399.805L 581.419 414.663L 568.493 407.147L 556.872 413.789L 561.181 400.679L 550.311 391.437L 564.445 389.317z"/>
<path fill="#80CDB1" stroke-width="4" stroke="#C0E7D5" d="M 462.445 175.317L 466.101 158.537L 471.846 173.919L 485.915 172.193L 476.024 185.805L 479.419 200.663L 466.493 193.147L 454.872 199.789L 459.181 186.679L 448.311 177.437L 462.445 175.317z"/>
</g>
<g>
<path fill="none" stroke-width="6" stroke="#FF8000" d="M 36.4451 359.317C 38.4451 359.317 42.4451 359.317 42.4451 359.317C 44.4451 345.317 38.4451 319.317 58.4451 323.317C 58.4451 319.317 64.4451 317.317 62.4451 313.317C 70.4451 313.317 72.4451 323.317 76.4451 325.317C 82.4451 329.317 94.4451 325.317 100.445 329.317C 104.445 331.317 102.445 339.317 102.445 345.317C 104.445 345.317 108.445 345.317 108.445 345.317C 110.445 283.317 104.445 223.317 110.445 161.317C 110.445 161.317 120.445 159.317 124.445 161.317C 124.445 163.317 124.445 167.317 124.445 169.317C 130.445 171.317 140.445 165.317 142.445 171.317C 146.445 181.317 142.445 193.317 146.445 201.317C 146.445 203.317 156.445 199.317 160.445 201.317C 172.445 213.317 168.445 233.317 176.445 249.317C 178.445 251.317 182.445 257.317 186.445 255.317C 188.445 253.317 184.445 245.317 188.445 243.317C 190.445 243.317 194.445 243.317 194.445 243.317C 198.445 283.317 202.445 321.317 210.445 359.317C 214.445 359.317 216.445 359.317 218.445 361.317"/>
<path fill="none" stroke-width="6" stroke="#FF8000" d="M 252.445 369.317C 260.445 373.317 272.445 367.317 276.445 373.317C 302.445 399.317 340.445 385.317 370.445 393.317C 378.445 397.317 386.445 405.317 396.445 405.317C 408.24 406.792 420.307 407.179 432.445 407.281"/>
<path fill="none" stroke-width="6" stroke="#008837" d="M 432.445 407.281C 453.238 407.455 474.24 406.792 494.445 409.317C 518.445 411.317 538.445 427.317 560.445 435.317C 572.445 441.317 586.445 441.317 598.445 441.317"/>
<path fill="none" stroke-width="6" stroke="#008837" d="M 34.4451 547.317"/>
</g>
<g>
<path fill="#FEC06F" stroke="none" d="M 507.945 246.817L 599.445 246.317L 597.445 264.817L 506.445 264.317L 507.945 246.817z"/>
<path fill="#FEC06F" stroke="none" d="M 506.945 349.317L 507.445 366.317L 599.945 367.817L 599.445 352.817L 506.945 349.317z"/>
<path fill="#FFFFFF" stroke="none" d="M 545.945 305.317L 560.445 303.317L 561.945 350.317L 539.945 349.317L 545.945 305.317z"/>
<path fill="#FE802F" stroke-width="4" stroke="#FFCD39" d="M 544.945 299.317C 542.445 298.317 539.445 295.317 540.445 294.317C 546.445 286.817 554.445 282.817 561.945 276.817C 562.445 276.317 563.945 276.817 563.945 276.817C 565.945 282.317 566.445 288.317 564.945 293.817C 564.445 295.817 561.445 296.817 559.445 298.317"/>
<path fill="none" stroke-width="4" stroke="#FFFFFF" d="M 509.945 260.817L 595.945 261.317"/>
<path fill="none" stroke-width="4" stroke="#FFFFFF" d="M 509.945 354.817L 597.445 353.817"/>
<path fill="#B67458" stroke="none" d="M 420.195 408.317L 433.945 404.067L 453.195 407.567L 448.945 451.317C 448.945 451.317 423.695 450.567 421.695 449.567C 419.695 448.567 416.445 432.067 415.445 428.817C 414.445 425.567 420.195 408.317 420.195 408.317z"/>
<path fill="#B67458" stroke="none" d="M 235.445 294.317C 235.445 294.317 251.945 287.317 252.445 281.317C 252.945 275.317 256.445 259.317 259.445 253.817C 262.445 248.317 277.945 239.817 286.445 237.817C 294.945 235.817 330.445 233.317 330.445 233.317L 349.945 250.317C 349.945 250.317 353.445 282.317 352.445 291.817C 351.445 301.317 340.445 327.317 336.945 329.817C 333.445 332.317 317.445 341.317 308.445 342.817C 299.445 344.317 272.445 340.817 263.945 335.817C 255.445 330.817 240.445 321.817 236.445 313.317C 232.445 304.817 235.445 294.317 235.445 294.317z"/>
<path fill="#008837" stroke="none" d="M 283.445 272.817C 283.445 272.817 288.445 268.817 289.445 273.317C 290.445 277.817 293.945 282.817 290.945 284.817C 287.945 286.817 283.945 287.317 282.445 283.817C 280.945 280.317 283.445 272.817 283.445 272.817z"/>
<path fill="#008837" stroke="none" d="M 315.945 277.317C 315.945 277.317 320.445 273.817 322.445 274.317C 324.445 274.817 327.445 278.817 326.945 282.317C 326.445 285.817 323.945 289.317 319.945 288.317C 315.945 287.317 314.445 281.317 314.945 280.317C 315.445 279.317 315.945 277.317 315.945 277.317z"/>
<path fill="#FFFFFF" stroke="none" d="M 285.445 331.317L 282.445 340.317L 288.445 345.317L 287.445 354.817L 295.945 362.817L 293.445 369.317L 298.945 376.317L 287.945 374.817L 286.945 364.817L 279.445 356.317L 280.945 347.817C 280.945 347.817 274.945 343.317 274.945 341.317C 274.945 339.317 276.445 332.817 276.445 330.817C 276.445 328.817 285.445 331.317 285.445 331.317z"/>
<path fill="#FFFFFF" stroke="none" d="M 309.945 328.317L 306.445 333.817L 312.945 339.817L 313.445 348.317L 319.445 353.317L 319.945 363.317L 327.445 371.317L 326.945 379.817L 332.445 384.817L 327.445 388.817C 327.445 388.817 320.445 386.817 318.945 382.817C 317.445 378.817 321.445 377.817 319.945 374.817C 318.445 371.817 312.445 371.317 311.945 366.817C 311.445 362.317 313.445 357.817 313.445 357.817C 313.445 357.817 308.445 355.817 306.945 351.817C 305.445 347.817 306.445 343.317 306.445 343.317C 306.445 343.317 300.445 336.317 299.445 333.317C 298.445 330.317 303.445 325.317 303.445 325.317L 309.945 328.317z"/>
<path fill="#FFFFFF" stroke="none" d="M 332.945 321.317L 329.445 328.317L 336.445 333.817L 333.945 345.317L 338.945 350.317L 338.945 358.317L 331.945 361.317L 331.445 354.317C 331.445 354.317 327.945 352.317 326.945 347.317C 325.945 342.317 329.445 338.317 329.445 338.317C 329.445 338.317 328.945 340.317 326.945 336.317C 324.945 332.317 322.945 324.817 322.945 324.817L 326.445 318.317L 332.945 321.317z"/>
<path fill="#FFFFFF" stroke="none" d="M 284.945 272.317L 285.445 277.817L 281.445 279.317L 280.445 273.817L 284.945 272.317z"/>
<path fill="#FFFFFF" stroke="none" d="M 320.445 273.817L 320.945 279.817L 315.945 281.817L 315.945 275.817L 320.445 273.817z"/>
<path fill="#FF0000" stroke="none" d="M 232.945 298.317C 232.945 298.317 250.945 290.817 251.945 283.317C 252.945 275.817 253.945 258.817 259.445 252.317C 264.945 245.817 291.945 236.317 298.945 234.817C 305.945 233.317 330.445 233.317 330.445 233.317L 349.945 250.317C 349.945 250.317 356.945 237.317 356.445 231.317C 355.945 225.317 346.945 209.317 336.445 202.817C 325.945 196.317 322.445 189.817 320.445 184.317C 318.445 178.817 317.945 161.317 313.445 155.317C 308.945 149.317 300.945 132.317 292.445 134.817C 283.945 137.317 276.445 141.317 273.445 149.317C 270.445 157.317 264.445 182.317 261.445 191.317C 258.445 200.317 254.945 211.817 249.445 217.317C 243.945 222.817 234.945 229.817 231.945 237.317C 228.945 244.817 222.945 265.817 222.945 273.817C 222.945 281.817 222.445 293.317 224.945 295.317C 227.445 297.317 232.945 298.317 232.945 298.317z"/>
<path fill="#008837" stroke="none" d="M 296.445 182.817C 296.445 182.817 300.945 183.317 301.945 189.817C 302.945 196.317 307.945 203.817 311.945 207.817C 315.945 211.817 321.445 217.817 318.445 220.817C 315.445 223.817 303.945 224.817 298.445 227.317C 292.945 229.817 279.945 229.817 276.945 226.817C 273.945 223.817 278.945 215.817 279.445 208.317C 279.945 200.817 282.945 189.817 285.445 186.817C 287.945 183.817 296.445 182.817 296.445 182.817z"/>
<path fill="#800000" stroke="none" d="M 273.445 152.817L 318.445 176.817C 318.445 176.817 314.945 159.817 311.945 153.817C 308.945 147.817 301.945 134.317 296.445 134.817C 290.945 135.317 281.445 135.817 278.945 139.317C 276.445 142.817 273.445 152.817 273.445 152.817z"/>
</g>
<g>
<path fill="none" stroke-width="4" stroke="#FF8000" d="M 540.945 348.817C 542.445 334.317 545.445 320.317 544.945 305.817C 549.945 304.817 555.445 302.817 559.945 304.817C 560.945 305.317 560.445 308.817 560.445 310.817L 559.445 310.817C 559.445 315.817 559.945 321.317 558.945 326.317C 558.945 326.317 557.445 326.817 556.945 326.317C 555.445 323.817 557.445 320.817 555.945 319.317C 555.445 318.317 552.945 319.317 551.945 317.817C 551.445 316.317 552.445 314.317 551.945 312.317C 551.945 312.317 550.945 312.317 550.445 312.317"/>
<path fill="none" stroke-width="6" stroke="#000000" d="M 251.258 335.317C 251.258 335.317 239.258 351.317 235.258 359.317C 221.258 383.317 215.258 407.317 209.258 433.317C 203.258 467.317 192.445 531.317 192.445 531.317C 192.445 531.317 253.258 563.317 277.258 569.317C 307.258 595.317 341.258 611.317 341.258 627.317C 341.258 643.317 313.258 665.317 305.258 675.317C 293.258 697.317 287.258 719.317 283.258 743.317C 301.258 743.317 319.258 743.317 337.258 743.317"/>
<path fill="none" stroke-width="6" stroke="#000000" d="M 192.445 531.317C 184.445 569.317 207.258 617.317 187.258 651.317C 169.258 683.317 149.258 711.317 143.258 747.317C 163.258 747.317 185.258 747.317 205.258 747.317"/>
<path fill="none" stroke-width="6" stroke="#000000" d="M 371.258 747.317C 392.548 651.971 409.594 551.465 425.758 453.817"/>
<path fill="none" stroke-width="6" stroke="#000000" d="M 432.994 407.856C 449.199 310.858 466.269 214.031 489.258 119.317C 493.148 103.29 507.258 91.3171 523.258 83.3171C 539.258 75.3171 557.258 77.3171 571.258 81.3171C 587.258 87.3171 593.258 113.317 585.258 127.317C 573.258 151.317 555.258 169.317 539.258 191.317C 533.258 197.317 535.258 209.317 539.258 217.317C 545.258 227.317 559.258 229.317 571.258 225.317C 577.258 221.317 577.258 213.317 577.258 205.317"/>
<path fill="none" stroke-width="6" stroke="#000000" d="M 227.258 383.317C 255.258 391.317 273.258 415.317 303.258 421.317C 347.258 429.317 375.258 428.817 417.258 428.817"/>
<path fill="none" stroke-width="6" stroke="#000000" d="M 439.258 406.317L 453.758 407.817C 453.258 423.817 452.258 438.817 448.258 451.817C 440.258 451.817 422.258 450.817 420.258 446.817C 414.258 436.817 413.578 418.094 421.258 409.317C 421.364 409.196 429.985 406.772 437.258 421.317L 435.258 432.317"/>
<path fill="none" stroke-width="6" stroke="#000000" d="M 301.987 376.921C 298.415 374.54 294.987 374.921 294.487 370.421C 294.138 367.278 295.987 364.921 294.987 361.421C 293.987 357.921 289.487 358.421 288.487 354.921C 287.487 351.421 288.987 346.421 288.32 343.755C 287.653 341.088 284.653 343.755 283.32 340.421C 281.987 337.088 286.32 332.421 285.32 329.421"/>
<path fill="none" stroke-width="6" stroke="#000000" d="M 335.133 385.546C 333.133 383.046 329.133 383.546 328.133 381.046C 326.633 378.046 328.633 374.546 327.133 371.046C 325.633 368.546 322.133 367.046 321.133 365.046C 319.633 362.546 321.133 358.046 320.133 354.546C 319.633 352.546 316.133 352.046 314.633 350.046C 312.133 347.546 314.569 343.238 313.133 340.046C 311.633 336.713 306.966 337.38 305.966 334.38C 304.966 331.38 311.966 329.38 310.966 326.713"/>
<path fill="none" stroke-width="6" stroke="#000000" d="M 338.695 361.942C 338.695 361.942 337.695 358.942 338.695 357.442C 339.695 355.442 339.195 353.442 338.695 350.442C 338.195 347.442 335.195 349.442 334.695 346.442C 334.195 343.442 337.195 336.942 335.195 333.442C 333.195 329.942 330.695 331.609 329.362 326.942C 328.517 323.987 334.028 322.942 333.028 319.942"/>
<path fill="none" stroke-width="6" stroke="#000000" d="M 287.945 273.317C 284.945 272.817 282.445 273.317 281.445 276.317C 280.945 278.817 281.945 283.567 283.445 285.567C 284.445 287.067 287.945 287.567 289.445 285.567C 291.445 283.567 290.445 277.817 289.945 274.817C 289.945 274.817 289.445 274.817 288.945 274.817"/>
<path fill="none" stroke-width="6" stroke="#000000" d="M 316.945 276.817C 314.945 279.817 314.945 283.817 315.945 286.817C 316.945 289.317 322.945 288.317 324.945 287.317C 326.945 286.317 327.445 282.317 326.445 279.817C 325.945 278.317 324.945 275.817 323.445 274.817C 321.945 274.317 320.445 274.817 318.945 274.817C 318.445 274.817 319.445 275.817 318.445 275.817"/>
<path fill="none" stroke-width="6" stroke="#000000" d="M 274.445 310.317C 286.445 313.817 294.945 316.317 308.445 314.317C 313.945 313.317 325.945 310.317 329.945 306.817"/>
<path fill="none" stroke-width="6" stroke="#000000" d="M 233.389 300.482C 233.862 303.466 234.485 306.42 235.258 309.317C 239.258 321.317 253.258 329.317 263.258 335.317C 267.342 337.586 271.735 339.443 276.273 340.865"/>
<path fill="none" stroke-width="6" stroke="#000000" d="M 349.603 253.504C 355.888 281.657 354.224 316.277 331.778 332.984"/>
<path fill="none" stroke-width="6" stroke="#000000" d="M 327.081 336.268C 325.261 337.394 323.322 338.414 321.258 339.317C 318.178 340.857 314.803 342.026 311.231 342.839"/>
<path fill="none" stroke-width="6" stroke="#000000" d="M 304.804 343.901C 297.764 344.654 290.24 344.192 282.884 342.608"/>
<path fill="none" stroke-width="6" stroke="#000000" d="M 292.445 133.317C 292.445 133.317 278.445 135.317 274.445 145.317C 270.445 155.317 264.445 185.317 256.445 205.317C 248.445 225.317 236.445 223.317 230.445 241.317C 224.445 259.317 216.445 299.317 230.445 297.317C 244.445 295.317 252.445 289.317 254.445 269.317C 256.445 249.317 266.445 245.317 280.445 239.317C 294.445 233.317 330.445 233.317 330.445 233.317L 348.813 250.167C 348.813 250.167 366.445 235.317 348.445 215.317C 330.445 195.317 320.445 197.317 318.445 175.317C 316.445 153.317 304.445 135.317 292.445 133.317z"/>
<path fill="none" stroke-width="6" stroke="#000000" d="M 308.445 202.317C 301.234 191.5 302.445 178.317 293.445 182.317C 284.445 186.317 280.445 191.317 279.445 204.317C 278.445 217.317 270.445 228.317 278.445 228.317C 286.445 228.317 290.445 231.317 300.445 227.317C 310.445 223.317 318.445 225.317 318.445 220.317C 318.445 215.317 310.445 205.317 308.445 202.317z"/>
<path fill="none" stroke-width="6" stroke="#000000" d="M 598.582 265.361L 598.582 247.359L 506.445 247.305L 506.445 265.307L 598.582 265.361z"/>
<path fill="none" stroke-width="6" stroke="#000000" d="M 599.778 367.371L 599.778 351.083L 506.445 351.03L 506.445 367.317L 599.778 367.371z"/>
<path fill="none" stroke-width="6" stroke="#000000" d="M 520.804 269.593L 555.505 349.315L 587.813 351.03L 549.522 267.879L 583.026 267.021L 555.505 349.315L 522.001 349.315L 549.522 267.879L 518.411 266.164L 517.445 350.317L 587.813 351.03L 587.813 267.879"/>
<path fill="none" stroke-width="6" stroke="#000000" d="M 560.445 333.317C 560.445 337.817 559.945 342.817 560.945 347.317"/>
<path fill="none" stroke-width="6" stroke="#F8023F" d="M 552.945 301.817C 553.445 299.317 552.445 297.317 552.445 294.817"/>
<path fill="none" stroke-width="2" stroke="#000000" d="M 532.065 235.898C 530.327 235.008 530.217 231.75 531.819 228.622C 533.421 225.494 536.129 223.679 537.867 224.57C 539.605 225.46 539.715 228.717 538.113 231.846C 536.51 234.974 533.803 236.788 532.065 235.898z"/>
<path fill="none" stroke-width="2" stroke="#000000" d="M 521.82 250.63C 520.082 249.74 519.972 246.482 521.574 243.354C 523.177 240.226 525.884 238.411 527.622 239.301C 529.36 240.191 529.47 243.449 527.868 246.577C 526.266 249.705 523.558 251.52 521.82 250.63z"/>
<path fill="none" stroke-width="2" stroke="#000000" d="M 523.112 247.984L 519.445 254.984C 519.445 254.984 516.445 254.317 515.778 255.65C 515.112 256.984 514.778 257.984 516.112 258.65C 517.445 259.317 519.112 259.65 519.778 258.317C 520.445 256.984 519.445 254.984 519.445 254.984"/>
<path fill="none" stroke-width="2" stroke="#000000" d="M 526.778 241.317L 533.112 232.984"/>
<path fill="none" stroke-width="2" stroke="#000000" d="M 537.112 225.984L 544.445 217.317"/>
<path fill="none" stroke-width="2" stroke="#000000" d="M 576.242 240.901C 577.826 240 577.858 237.068 576.313 234.352C 574.769 231.637 572.232 230.166 570.648 231.067C 569.064 231.968 569.032 234.9 570.577 237.615C 572.121 240.331 574.658 241.802 576.242 240.901z"/>
<path fill="none" stroke-width="2" stroke="#000000" d="M 584.435 248.321C 584.275 247.915 584.08 247.506 583.85 247.102C 582.305 244.386 579.769 242.915 578.185 243.816C 577.005 244.488 576.686 246.286 577.239 248.283"/>
<path fill="none" stroke-width="2" stroke="#000000" d="M 565.445 222.65L 571.112 231.984"/>
<path fill="none" stroke-width="2" stroke="#000000" d="M 575.445 238.65L 579.445 244.65"/>
<path fill="none" stroke-width="6" stroke="#000000" d="M 228.445 367.317C 184.445 383.317 150.445 405.317 106.445 425.317C 102.445 427.317 92.4451 431.317 94.4451 435.317C 102.445 451.317 118.445 459.317 132.445 467.317C 136.445 469.317 140.445 471.317 144.445 473.317C 154.445 479.317 162.445 477.317 172.445 485.317C 176.445 487.317 190.445 499.317 186.445 501.317C 178.445 509.317 182.445 519.317 182.445 531.317"/>
</g>
<g>
<path fill="none" stroke-width="8" stroke="#FFFFFF" stroke-linejoin="bevel" d="M 168.37 43.2899L 128.35 116.247L 86.9247 43.2899"/>
<path fill="none" stroke-width="8" stroke="#FFFFFF" stroke-linejoin="bevel" d="M 187.448 41.3185L 187.448 117.316"/>
<path fill="none" stroke-width="8" stroke="#FFFFFF" stroke-linejoin="bevel" d="M 227.446 41.3185L 227.446 117.316"/>
<path fill="none" stroke-width="8" stroke="#FFFFFF" stroke-linejoin="bevel" d="M 267.445 41.3185L 267.445 117.316"/>
<path fill="none" stroke-width="8" stroke="#FFFFFF" stroke-linejoin="bevel" d="M 307.445 41.3185L 307.445 117.316"/>
</g>
</svg>