<svg xmlns="http://www.w3.org/2000/svg"
	xmlns:xlink="http://www.w3.org/1999/xlink"
	viewBox="31.6 0 577 792"
	width="636.057" height="792">
<g>
<path fill="#bfffff" stroke="none" d="M 608.612 792L 608.612 0L 31.6118 0L 31.6118 792L 608.612 792z"/>
</g>
<g>
<path fill="#ffffbf" stroke-width="4" stroke="#ffffff" d="M 157.112 189.246C 198.116 189.246 231.358 156.005 231.358 115C 231.358 73.9955 198.116 40.7538 157.112 40.7538C 116.107 40.7538 82.8656 73.9955 82.8656 115C 82.8656 156.005 116.107 189.246 157.112 189.246z"/>
</g>
<g>
<path fill="#bfbf7f" stroke="none" d="M 30.6118 501L 30.6118 792L 608.612 792L 608.612 521L 582.612 510L 536.612 488L 513.612 498L 478.612 499L 448.612 526L 400.612 541L 348.612 559L 311.612 571L 246.612 554L 179.612 508L 128.612 477L 84.6118 449L 76.6118 452L 58.6118 478L 43.6118 496L 30.6118 501z"/>
<path fill="#dfdfbf" stroke="none" d="M 318.612 569L 360.612 555L 400.612 541L 448.612 526L 474.612 500L 465.612 535L 426.612 556L 400.612 573L 375.612 578L 377.612 568L 352.612 573L 356.612 585L 336.612 579L 318.612 569z"/>
<path fill="#dfdfbf" stroke="none" d="M 513.612 498L 517.612 518L 543.612 504L 529.612 493L 513.612 498z"/>
<path fill="#dfffbf" stroke="none" d="M 318.612 569L 360.612 555L 393.612 543L 382.612 556L 398.612 560L 386.612 576L 375.612 578L 374.612 569L 355.612 573L 356.612 585L 333.612 576L 318.612 569z"/>
<path fill="#bfff7f" stroke="none" d="M 449.612 559L 424.612 571L 400.612 573L 375.612 578L 374.612 569L 355.612 573L 356.612 585L 402.612 605L 443.612 610L 475.612 560L 447.612 578L 449.612 559z"/>
<path fill="#7fbf7f" stroke="none" d="M 450.612 576L 453.612 560L 489.612 541L 504.612 542L 511.612 529L 507.612 563L 489.612 564L 481.612 597L 474.612 585L 468.612 610L 443.612 610L 471.612 567L 450.612 576z"/>
<path fill="#7fbf7f" stroke="none" d="M 271.612 579L 327.612 589L 328.612 575L 373.612 594L 421.612 606L 482.612 611L 530.612 614L 584.612 606L 609.112 620L 608.612 792L 203.862 792L 30.6118 792L 31.3618 520.5L 75.6118 570L 92.6118 512L 145.612 559L 198.612 567L 180.612 539L 226.612 558L 287.612 570L 271.612 579z"/>
<path fill="#7f7f00" stroke="none" d="M 145.987 574.25C 163.487 592.125 189.612 600.25 214.612 595.875C 216.737 595.875 218.487 594.125 218.487 592C 218.487 589.875 216.737 588.125 214.612 588.125C 191.737 583.5 166.987 585.75 147.237 572.125C 146.612 571.75 145.862 571.875 145.487 572.5C 145.112 573.125 145.362 574 145.987 574.25L 145.987 574.25z"/>
<path fill="#7f7f00" stroke="none" d="M 76.4868 547.375C 77.7368 557.5 78.6118 567.875 75.8618 578.25C 74.8618 581.75 75.3618 586.625 78.3618 590.125C 79.6118 592.375 82.3618 593.25 84.6118 592C 86.8618 590.75 87.7368 588 86.4868 585.75L 86.3618 585.875C 80.1118 573.875 83.7368 559.625 78.3618 547C 78.2368 546.5 77.7368 546.25 77.2368 546.25C 76.7368 546.375 76.3618 546.875 76.4868 547.375L 76.4868 547.375z"/>
<path fill="#7f7f00" stroke="none" d="M 555.612 576.875C 559.612 581.5 561.112 588.25 567.112 591.25C 569.112 592.5 571.862 592 573.112 590C 574.487 588 573.862 585.375 571.862 584C 565.987 582.625 563.612 575 556.737 575.125C 556.237 574.875 555.612 575 555.362 575.5C 555.112 575.875 555.237 576.5 555.612 576.875L 555.612 576.875z"/>
<path fill="#bfbfbf" stroke="none" d="M 31.1118 679.5L 212.612 658L 368.612 684L 548.612 684L 608.612 665L 608.612 792L 30.6118 792L 31.1118 679.5z"/>
<path fill="#00ff00" stroke="none" d="M 49.7368 640.625C 51.4868 652.5 49.7368 665.5 56.6118 676.125C 57.2368 677.875 59.2368 678.625 60.8618 677.875C 62.4868 677.125 63.2368 675.25 62.4868 673.5C 58.2368 662.625 53.7368 651.75 51.4868 640.25C 51.4868 639.75 50.9868 639.375 50.4868 639.5C 49.9868 639.625 49.6118 640.125 49.7368 640.625L 49.7368 640.625z"/>
<path fill="#3fff3f" stroke="none" d="M 75.1118 659.625C 77.7368 665.125 75.3618 672.5 85.1118 675.5L 80.3618 676C 81.1118 677.25 82.4868 678 83.8618 677.875L 85.1118 678.125C 86.7368 678 88.2368 676.875 88.7368 675.25L 89.3618 672.875C 92.9868 668.25 94.7368 662.875 96.2368 657.25L 96.9868 654.875L 94.1118 658.375L 95.3618 657.875L 89.8618 657.5L 90.4868 658.125L 87.9868 654.625L 88.9868 657.875C 90.4868 661.875 91.3618 666 92.9868 669.875L 94.9868 672.375C 95.2368 672.75 95.4868 673.125 95.8618 673.375C 98.4868 675.875 102.612 675.625 104.987 673L 107.112 670C 109.737 661.625 113.612 653.875 118.362 646.5C 120.237 643.25 119.237 639.125 115.987 637.125C 112.737 635.25 108.612 636.25 106.612 639.5L 108.612 640.125C 101.112 644.75 98.9868 654 95.9868 661.75C 98.1118 661 100.362 660.375 102.487 659.625L 95.4868 664.25C 95.1118 664.625 94.9868 664.875 94.7368 665.25L 102.487 659.625C 102.487 660.125 102.612 660.5 102.612 661C 101.862 659 101.237 657 100.487 655L 99.1118 652.125C 98.8618 650.625 97.9868 649.375 96.7368 648.5L 95.8618 648.125C 94.2368 647.125 92.1118 647 90.3618 647.875L 89.2368 648.5C 87.8618 649.25 86.8618 650.5 86.3618 652.125L 84.8618 657.875C 84.7368 661.875 82.3618 665.125 81.4868 668.875L 80.8618 673L 84.4868 670.125L 83.3618 670.5L 86.7368 672.375L 84.9868 669.125C 79.4868 667.75 80.4868 661.75 77.2368 658.75C 77.1118 658.125 76.3618 657.875 75.7368 658.125C 75.1118 658.375 74.8618 659 75.1118 659.625L 75.1118 659.625z"/>
<path fill="#00ff00" stroke="none" d="M 355.987 661.625C 359.737 674.75 365.987 687.125 369.112 700.5C 369.987 703.5 373.112 705.25 376.112 704.375C 379.112 703.5 380.737 700.375 379.862 697.375L 379.362 696.5C 374.237 683.375 363.862 673.5 358.112 660.75C 357.862 660.125 357.112 659.875 356.487 660.125C 355.987 660.375 355.737 661.125 355.987 661.625L 355.987 661.625z"/>
<path fill="#3fff3f" stroke="none" d="M 379.487 670C 374.112 677.25 374.737 686.875 376.862 694.875C 377.362 698 380.362 700.125 383.612 699.625C 386.737 699 388.862 696 388.362 692.875C 386.487 685.25 385.237 677.5 382.987 670C 382.987 668.75 381.862 667.625 380.612 667.625C 379.362 667.625 378.237 668.75 378.237 670L 379.487 670z"/>
<path fill="#00ff00" stroke="none" d="M 393.362 678C 393.362 678.625 393.987 679.25 394.612 679.25C 395.237 679.25 395.862 678.625 395.862 678C 395.862 677.375 395.237 676.75 394.612 676.75C 393.987 676.75 393.362 677.375 393.362 678L 393.362 678z"/>
<path fill="#3fff3f" stroke="none" d="M 533.612 680.25C 533.987 678.75 534.987 677 534.362 676.125C 533.112 674.125 530.487 673.375 528.362 672.125C 530.237 671.125 532.112 670.125 533.987 669.125L 534.612 668.375L 526.737 669.875L 527.487 673.5C 529.487 682.625 535.362 688.75 542.237 694.375C 544.737 696.5 548.612 696.125 550.612 693.5C 552.737 691 552.362 687.125 549.737 685.125C 545.237 681.375 539.237 679.375 536.362 673.75L 534.612 668.125L 534.737 669.125L 526.987 671.5C 529.237 670.875 531.487 670.25 533.737 669.625C 525.112 671.25 530.737 675.875 531.612 680.5C 531.737 681.125 532.237 681.5 532.737 681.375C 533.237 681.25 533.612 680.75 533.612 680.25L 533.612 680.25z"/>
<path fill="#00ff00" stroke="none" d="M 549.737 669.375C 551.612 674.625 551.237 680.375 555.737 685C 555.237 684.5 554.737 684.125 554.237 683.625C 555.112 685.125 557.112 685.625 558.737 684.75C 560.237 683.75 560.737 681.75 559.737 680.25C 553.112 679.75 557.237 671.25 552.237 668.25C 551.987 667.5 551.237 667.25 550.487 667.5C 549.737 667.875 549.487 668.625 549.737 669.375L 549.737 669.375z"/>
<path fill="#00ff00" stroke="none" d="M 570.862 668.75C 570.862 669.375 571.237 669.75 571.862 669.75C 572.362 669.75 572.862 669.375 572.862 668.75C 572.862 668.25 572.362 667.75 571.862 667.75C 571.237 667.75 570.862 668.25 570.862 668.75L 570.862 668.75z"/>
<path fill="#00ff00" stroke="none" d="M 594.237 661.875C 592.737 668.25 591.112 674.75 589.237 681C 589.112 683.875 591.487 686.5 594.487 686.625C 597.362 686.75 599.987 684.375 600.112 681.375L 597.862 682.375C 600.112 675.625 597.487 668.875 597.362 662.125C 597.487 661.25 596.862 660.5 595.987 660.375C 595.112 660.375 594.237 661 594.237 661.875L 594.237 661.875z"/>
<path fill="#00ff00" stroke="none" d="M 582.487 658.125C 582.112 662.5 579.862 666.875 581.612 671.375C 581.612 673 582.987 674.375 584.612 674.375C 586.237 674.375 587.612 673 587.612 671.375C 588.612 666.75 587.737 661.875 585.112 657.875C 584.987 657.125 584.362 656.625 583.612 656.75C 582.987 656.875 582.487 657.5 582.487 658.125L 582.487 658.125z"/>
<path fill="#00ff00" stroke="none" d="M 207.862 646.625C 211.737 656 213.862 666.25 220.237 674.625C 221.987 676.875 225.112 677.25 227.362 675.5C 229.487 673.875 229.987 670.75 228.237 668.5C 220.237 662.125 219.237 650.125 209.362 645.375C 209.112 645 208.487 644.875 207.987 645.25C 207.612 645.5 207.487 646.125 207.862 646.625L 207.862 646.625z"/>
<path fill="#00ff00" stroke="none" d="M 232.487 650.5C 234.612 660.75 236.862 670.75 243.737 679.125C 245.737 681.5 249.237 681.875 251.737 679.875C 254.112 678 254.487 674.5 252.612 672C 245.737 665.125 242.237 655.5 234.237 649.5C 233.987 649 233.487 648.875 232.987 649.125C 232.487 649.375 232.237 650 232.487 650.5L 232.487 650.5z"/>
<path fill="#3fff3f" stroke="none" d="M 31.8618 739.75L 208.612 734L 292.612 760L 464.612 744L 566.612 746L 608.612 740L 608.612 792L 30.6118 792L 31.8618 739.75z"/>
<path fill="#3fff3f" stroke="none" d="M 84.3618 714.75C 87.4868 735.375 97.8618 753.25 109.362 771.375C 109.862 772 111.487 771.875 112.612 772.125C 114.112 773.75 116.612 773.875 118.237 772.375C 119.737 770.875 119.862 768.5 118.362 766.875C 109.862 748 95.9868 732.375 86.4868 714.125C 86.2368 713.5 85.6118 713.125 85.1118 713.375C 84.4868 713.5 84.2368 714.125 84.3618 714.75L 84.3618 714.75z"/>
<path fill="#3fff3f" stroke="none" d="M 111.487 700.375C 107.987 716.625 118.237 733.75 122.737 749.5C 124.237 752.5 127.862 753.75 130.862 752.25C 133.737 750.75 134.987 747.125 133.487 744.125L 132.112 744.125C 129.112 728.5 120.737 714.75 115.862 699.75C 115.237 697.875 113.362 697 111.487 697.625C 109.737 698.125 108.737 700.125 109.362 701.875L 111.487 700.375z"/>
<path fill="#3fff3f" stroke="none" d="M 140.737 727.25C 140.737 727.5 141.112 727.875 141.362 727.875C 141.737 727.875 142.112 727.5 142.112 727.25C 142.112 726.875 141.737 726.5 141.362 726.5C 141.112 726.5 140.737 726.875 140.737 727.25L 140.737 727.25z"/>
<path fill="#3fff3f" stroke="none" d="M 216.987 744.125C 211.487 733 207.362 721.125 201.112 710.25C 200.987 708.5 199.362 707.25 197.612 707.375C 195.862 707.625 194.612 709.25 194.862 711C 194.237 712.375 192.862 714.125 193.237 714.875C 199.112 726.125 206.737 735.75 214.612 745.5C 214.987 746.125 215.862 746.375 216.487 746C 217.237 745.625 217.362 744.75 216.987 744.125L 216.987 744.125z"/>
<path fill="#3fff3f" stroke="none" d="M 212.237 711.875C 210.862 720.75 213.362 729.5 213.737 738.375C 213.987 744.125 212.112 751.125 217.987 755.75C 219.112 758.125 221.987 759.125 224.487 758C 226.862 756.75 227.862 753.875 226.612 751.5C 223.362 737.875 221.737 723.75 214.612 711.375C 214.487 710.625 213.862 710.25 213.112 710.375C 212.487 710.5 212.112 711.25 212.237 711.875L 212.237 711.875z"/>
<path fill="#3fff3f" stroke="none" d="M 231.487 714C 226.112 728.375 216.737 744.625 222.612 760.375C 222.737 760.125 222.987 760 223.112 759.75C 223.862 762.5 226.737 764.125 229.612 763.375C 232.362 762.625 233.987 759.75 233.237 757C 231.737 743 229.987 728.625 233.737 714.75C 233.987 714.125 233.612 713.375 232.987 713.25C 232.362 713 231.612 713.375 231.487 714L 231.487 714z"/>
<path fill="#3fff3f" stroke="none" d="M 241.237 731.625C 238.112 738.75 233.987 745.875 234.737 754C 234.737 757.25 237.362 759.875 240.612 759.875C 243.737 759.875 246.362 757.375 246.487 754.125L 245.112 755.375C 247.362 747.375 245.737 739.5 243.987 731.625C 243.987 730.875 243.362 730.25 242.612 730.25C 241.862 730.25 241.237 730.875 241.237 731.625L 241.237 731.625z"/>
<path fill="#3fff3f" stroke="none" d="M 355.612 745.375C 356.862 751.875 358.237 758.25 362.987 763.25C 363.987 765.125 366.362 765.75 368.112 764.75C 369.987 763.625 370.612 761.375 369.612 759.5C 368.737 752 361.987 749.125 357.612 744.25C 357.362 743.625 356.612 743.375 355.987 743.75C 355.487 744.125 355.237 744.875 355.612 745.375L 355.612 745.375z"/>
<path fill="#3fff3f" stroke="none" d="M 369.487 731.25C 365.862 743.375 363.112 762.375 372.737 771.75C 373.862 773.5 376.112 773.875 377.737 772.75C 379.362 771.625 379.737 769.375 378.737 767.75C 376.862 755.625 375.362 743.375 372.987 731.25C 372.987 729.875 371.862 728.875 370.612 728.875C 369.362 728.875 368.237 729.875 368.237 731.25L 369.487 731.25z"/>
<path fill="#3fff3f" stroke="none" d="M 391.487 716.25C 387.112 734 376.237 751.25 377.612 769.875C 377.362 772.75 379.362 775.25 382.237 775.625C 384.987 776 387.612 774 387.862 771.125C 394.362 753.625 393.987 734.75 393.737 716.5C 393.862 716 393.362 715.375 392.737 715.25C 392.112 715.25 391.612 715.625 391.487 716.25L 391.487 716.25z"/>
<path fill="#3fff3f" stroke="none" d="M 396.612 747.375C 395.737 749.5 394.612 751.625 393.987 753.875C 393.862 755.375 394.987 756.75 396.487 756.875C 397.987 757 399.362 755.875 399.487 754.375C 399.362 752.125 399.237 750 398.987 747.75C 399.112 747.125 398.612 746.5 397.987 746.5C 397.362 746.375 396.737 746.75 396.612 747.375L 396.612 747.375z"/>
<path fill="#3fff3f" stroke="none" d="M 563.112 737.25C 565.362 740.5 565.612 745 569.487 747.125C 570.487 748.25 572.362 748.375 573.487 747.25C 574.612 746.25 574.612 744.375 573.612 743.25C 570.987 740.5 568.237 738 565.237 735.625C 564.862 735 563.987 734.875 563.362 735.375C 562.862 735.75 562.737 736.625 563.112 737.25L 563.112 737.25z"/>
<path fill="#3fff3f" stroke="none" d="M 567.112 711.375C 574.112 726.5 573.112 744.125 584.237 758C 585.487 760 588.112 760.625 590.112 759.375C 592.112 758.125 592.737 755.375 591.487 753.375C 586.737 737.625 577.862 724 569.237 710.25C 568.987 709.625 568.237 709.375 567.737 709.75C 567.112 710 566.862 710.75 567.112 711.375L 567.112 711.375z"/>
<path fill="#3fff3f" stroke="none" d="M 587.487 707.25C 583.737 723.75 585.737 742 591.487 757.625C 592.112 760.375 594.862 762 597.487 761.375C 600.237 760.75 601.862 758 601.237 755.375C 601.487 738.375 592.737 723.5 589.737 707.25C 589.737 706.5 589.237 706 588.612 706C 587.987 706 587.487 706.5 587.487 707.25L 587.487 707.25z"/>
<path fill="#3fff3f" stroke="none" d="M 601.487 724.75C 599.112 730.625 598.362 736.875 599.612 743.125C 599.612 744.875 600.987 746.25 602.612 746.25C 604.237 746.25 605.612 744.875 605.612 743.125C 606.862 737 605.987 730.625 603.737 724.75C 603.737 724.125 603.237 723.625 602.612 723.625C 601.987 723.625 601.487 724.125 601.487 724.75L 601.487 724.75z"/>
<path fill="#9fff3f" stroke="none" d="M 510.737 616.75C 511.487 618.25 512.237 619.75 512.987 621.25L 513.487 622C 513.737 622.125 513.862 622.125 514.112 622.25L 515.612 622.625C 535.237 632.625 556.362 622.5 576.487 619L 580.862 618.375C 582.487 618 583.862 617 584.737 615.625L 585.612 614.25C 588.362 613.375 589.987 611.25 591.612 609C 593.862 605.875 593.112 601.625 589.987 599.5C 586.987 597.25 582.737 598 580.487 601.125C 579.362 602.25 578.362 603.25 577.237 604.375L 573.737 608.5L 578.737 605.625L 572.237 606.75C 572.737 606.625 573.112 606.625 573.612 606.5C 556.737 609.75 540.112 617 522.737 615.25L 515.612 616L 516.362 616.25L 511.362 616C 511.612 615.75 511.862 615.5 512.112 615.25C 511.612 614.875 510.987 615 510.737 615.375C 510.362 615.75 510.362 616.375 510.737 616.75L 510.737 616.75z"/>
<path fill="#7fff00" stroke="none" d="M 462.737 615.5C 464.987 621.5 472.112 625.625 478.612 623.625C 480.612 623.625 482.237 622 482.237 620C 482.237 618 480.612 616.375 478.612 616.375C 473.862 614.75 468.487 618 464.112 614.125C 463.737 613.75 463.112 613.75 462.737 614.125C 462.362 614.5 462.362 615.125 462.737 615.5L 462.737 615.5z"/>
</g>
<g>
<path fill="none" stroke-width="6" stroke="#7f7f00" d="M 31.4451 500C 46.5779 500 54.6118 482 64.6118 472C 66.6118 468 72.6118 464 74.6118 458C 74.6118 456 78.6118 448 84.6118 452C 90.6118 458 96.6118 462 104.612 466C 116.612 472 128.612 476 140.612 482C 174.612 496 198.612 522 226.612 546C 236.612 552 246.612 556 256.612 558C 278.612 562 296.612 566 316.612 572C 352.612 584 386.612 602 422.612 608C 466.612 614 508.612 614 552.612 612"/>
<path fill="none" stroke-width="6" stroke="#7f7f00" d="M 308.612 570C 340.612 568 370.612 548 404.612 542C 420.612 540 436.612 534 450.612 526C 458.612 520 462.612 510 470.612 504C 492.612 490 516.612 506 534.612 488C 558.612 498 580.612 510 604.612 518"/>
<path fill="none" stroke-width="6" stroke="#7f7f00" d="M 98.6118 482C 122.612 500 140.612 528 170.612 536"/>
</g>
<g>
<path fill="#ff9f3f" stroke="none" d="M 280.612 315.333L 263.278 294L 274.612 295.333L 275.278 248.667L 286.612 260L 299.945 226L 307.278 241.333L 349.945 222.667L 349.945 236.667L 393.945 230.667L 383.278 245.333L 422.612 249.333L 409.945 260.667L 437.945 296.667L 415.945 289.333L 422.612 326.667L 406.612 314L 280.612 315.333z"/>
<path fill="#ffdfbf" stroke="none" d="M 280.612 315.333C 280.612 315.333 281.278 309.333 287.945 298.667C 294.612 288 329.278 270.667 329.278 270.667L 373.945 281.333C 373.945 281.333 397.945 289.333 401.945 298.667C 405.945 308 405.278 319.333 405.278 319.333C 405.278 319.333 398.612 355.333 388.612 367.333C 378.612 379.333 366.612 386.667 352.612 386.667C 338.612 386.667 309.945 378.667 301.945 372C 293.945 365.333 279.278 344 278.612 332.667C 277.945 321.333 280.612 315.333 280.612 315.333z"/>
<path fill="#ffff3f" stroke="none" d="M 299.278 230.667L 292.612 280L 286.612 260L 299.945 226L 299.278 230.667z"/>
<path fill="#ffff3f" stroke="none" d="M 277.278 253.333L 281.278 298.667L 274.612 295.333L 274.612 250.667L 277.278 253.333z"/>
<path fill="#ffff3f" stroke="none" d="M 346.612 223.333L 321.278 244.667L 307.278 241.333L 346.612 223.333z"/>
<path fill="#ffff3f" stroke="none" d="M 388.612 232.667L 358.612 237.333L 331.278 252L 363.945 243.333L 388.612 232.667z"/>
<path fill="#ffff3f" stroke="none" d="M 369.278 260.667C 369.278 260.667 404.612 258 407.278 259.333C 409.945 260.667 423.945 274.667 423.945 274.667L 401.945 266.667L 369.278 260.667z"/>
<path fill="#9f9f3f" stroke="none" d="M 406.612 314L 393.945 291.333L 407.278 300.667L 422.612 326.667L 406.612 314z"/>
<path fill="#9f9f3f" stroke="none" d="M 430.612 292.667L 405.278 279.333L 415.945 289.333L 430.612 292.667z"/>
<path fill="#9f9f3f" stroke="none" d="M 416.612 252.667L 385.945 256.667L 407.278 259.333L 416.612 252.667z"/>
<path fill="#9f9f3f" stroke="none" d="M 314.612 277.333L 343.945 262L 335.945 270.667L 314.612 277.333z"/>
<path fill="#9f9f3f" stroke="none" d="M 275.945 308L 286.612 301.333L 281.278 334L 277.945 312.667L 275.945 308z"/>
<path fill="#7fbfff" stroke="none" d="M 327.945 304L 337.278 301.333L 339.945 311.333L 336.612 320L 328.612 319.333L 327.945 304z"/>
<path fill="#7fbfff" stroke="none" d="M 373.278 307.333L 379.945 308L 378.612 326.667L 370.612 325.333L 373.278 307.333z"/>
<path fill="#ffffff" stroke="none" d="M 333.278 302L 333.278 312L 327.945 310.667L 329.945 303.333L 333.278 302z"/>
<path fill="#ffffff" stroke="none" d="M 375.945 307.333L 374.612 316.667L 368.612 315.333L 375.945 307.333z"/>
<path fill="#ffffff" stroke="none" d="M 310.612 345.333L 365.945 349.333C 365.945 349.333 361.945 365.333 354.612 368C 347.278 370.667 327.945 374.667 321.945 369.333C 315.945 364 307.278 345.333 307.278 345.333L 310.612 345.333z"/>
<path fill="#ff7f00" stroke="none" d="M 453.278 386C 453.278 386 458.612 382.667 461.278 383.333C 463.945 384 467.278 390 467.278 390L 433.945 540.667C 433.945 540.667 429.945 546.667 425.945 545.333C 421.945 544 420.612 536.667 420.612 536.667L 453.278 386z"/>
<path fill="#995900" stroke="none" d="M 430.82 535.375C 431.737 535.417 432.612 535.583 433.237 536.792C 435.528 536.417 437.07 534.25 436.695 532C 436.278 529.708 434.153 528.167 431.862 528.542L 431.987 528.958C 429.612 528.542 429.112 531.167 428.528 532.833C 427.862 533.125 427.57 533.875 427.862 534.542C 428.153 535.167 428.903 535.458 429.57 535.167L 430.82 535.375z"/>
<path fill="#995900" stroke="none" d="M 432.987 520.042C 434.987 519.833 437.07 520.708 438.862 518.542C 440.237 517.667 440.653 515.833 439.82 514.417C 438.945 513.042 437.112 512.625 435.695 513.458C 433.653 513.917 432.153 515.792 431.362 517.708C 430.82 517.875 430.57 518.458 430.737 519C 430.945 519.542 431.528 519.833 432.028 519.625L 432.987 520.042z"/>
<path fill="#995900" stroke="none" d="M 435.778 503.75C 438.112 503.333 440.445 503.042 442.778 502.708C 444.237 501.875 444.695 500 443.862 498.542C 442.987 497.083 441.112 496.583 439.653 497.458L 439.903 497.833C 437.862 498.875 436.695 500.917 435.028 502.375C 434.653 502.583 434.528 503.083 434.737 503.458C 434.945 503.833 435.403 503.958 435.778 503.75L 435.778 503.75z"/>
<path fill="#995900" stroke="none" d="M 439.112 487.417C 441.445 487.917 443.82 487.667 446.153 487.417C 447.903 486.542 448.612 484.417 447.737 482.667C 446.862 480.917 444.737 480.208 442.987 481.083L 443.82 481.542C 441.278 481.583 440.778 484.792 438.653 485.917C 438.237 486.083 438.028 486.5 438.153 486.917C 438.278 487.292 438.695 487.542 439.112 487.417L 439.112 487.417z"/>
<path fill="#995900" stroke="none" d="M 442.028 472.583C 444.737 473 447.403 472.458 450.07 472.042C 451.903 470.792 452.403 468.25 451.112 466.417C 449.862 464.542 447.32 464.083 445.487 465.333L 445.903 465.542C 444.195 467.167 442.862 469.083 441.362 470.875C 440.862 471.083 440.653 471.583 440.82 472.083C 441.028 472.542 441.528 472.75 442.028 472.583L 442.028 472.583z"/>
<path fill="#995900" stroke="none" d="M 444.445 456.792C 447.32 457.25 450.153 457 453.028 456.833C 455.487 455.5 456.362 452.375 455.028 449.958C 453.653 447.5 450.57 446.625 448.112 447.958L 447.987 447.708C 446.487 449.75 445.57 452.208 443.695 454C 442.82 454.5 442.57 455.625 443.07 456.5C 443.57 457.375 444.695 457.667 445.57 457.125L 444.445 456.792z"/>
<path fill="#995900" stroke="none" d="M 449.153 438.167C 451.403 439.708 454.487 440.083 456.82 438.625C 458.862 437.042 459.237 434.042 457.612 432C 455.987 429.917 453.028 429.583 450.945 431.167L 452.32 430.542C 449.945 431.125 450.195 434.167 448.945 435.875C 448.112 436.208 447.737 437.167 448.07 437.958C 448.445 438.792 449.403 439.167 450.195 438.792L 449.153 438.167z"/>
<path fill="#995900" stroke="none" d="M 454.153 423.292C 456.195 423 458.278 423.875 460.195 422.125C 461.695 420.875 461.903 418.625 460.653 417.125C 459.403 415.625 457.195 415.417 455.653 416.667L 455.695 416.708C 455.903 418.708 453.528 418.667 452.778 420.167C 451.945 420.542 451.528 421.542 451.903 422.417C 452.278 423.25 453.278 423.667 454.153 423.292L 454.153 423.292z"/>
<path fill="#995900" stroke="none" d="M 457.57 410.375C 459.153 410 460.778 409.958 462.362 409.625C 464.028 408.667 464.528 406.542 463.57 404.875C 462.57 403.25 460.445 402.708 458.82 403.708C 457.903 405.083 456.32 405.833 455.487 407.25C 454.612 407.833 454.362 409 454.945 409.875C 455.528 410.708 456.695 410.958 457.57 410.375L 457.57 410.375z"/>
<path fill="#995900" stroke="none" d="M 458.987 396.583C 460.695 396.875 462.653 397.75 464.278 396.542C 465.695 396.292 466.653 395 466.445 393.625C 466.195 392.208 464.903 391.25 463.528 391.5C 461.195 390.208 459.278 393.5 458.237 395.417C 457.903 395.625 457.82 396.042 458.028 396.375C 458.237 396.708 458.653 396.792 458.987 396.583L 458.987 396.583z"/>
<path fill="#dfffbf" stroke="none" d="M 454.445 390.083C 456.278 390.75 458.403 389.875 460.07 391.25C 461.862 391.167 463.237 389.667 463.195 387.875C 463.112 386.083 461.612 384.708 459.82 384.75C 457.362 385.083 455.612 386.875 453.945 388.583C 453.57 388.75 453.32 389.167 453.487 389.583C 453.612 390 454.07 390.208 454.445 390.083L 454.445 390.083z"/>
<path fill="#dfffbf" stroke="none" d="M 452.028 401.958C 453.195 402.833 455.028 403.167 456.195 401.958C 457.153 401.333 457.403 400.042 456.778 399.083C 456.153 398.125 454.862 397.875 453.903 398.5C 453.195 399.208 452.528 399.958 451.862 400.708C 451.487 400.75 451.237 401.083 451.32 401.417C 451.362 401.792 451.695 402.042 452.028 401.958L 452.028 401.958z"/>
<path fill="#dfffbf" stroke="none" d="M 448.237 417.208C 449.695 417.375 450.528 416.042 451.82 415.833C 452.403 415.375 452.528 414.542 452.07 413.958C 451.612 413.375 450.737 413.25 450.153 413.708C 449.32 414.5 448.612 415.458 447.653 416.125C 447.362 416.292 447.237 416.667 447.403 416.958C 447.57 417.25 447.945 417.375 448.237 417.208L 448.237 417.208z"/>
<path fill="#dfffbf" stroke="none" d="M 450.112 427C 448.695 427.5 448.278 429.083 447.153 429.875C 446.82 430.25 446.903 430.833 447.278 431.125C 447.653 431.417 448.195 431.375 448.528 431C 449.32 429.958 450.07 428.917 450.903 427.875C 451.153 427.667 451.153 427.292 450.945 427.042C 450.737 426.833 450.362 426.792 450.112 427L 450.112 427z"/>
<path fill="#dfffbf" stroke="none" d="M 445.528 443.333C 443.028 444.333 440.362 445.333 438.57 447.5C 437.612 448.792 437.82 450.625 439.112 451.625C 440.362 452.625 442.195 452.375 443.195 451.125C 444.237 448.833 445.778 446.833 446.612 444.417C 446.903 444.125 446.903 443.625 446.612 443.333C 446.32 443.042 445.82 443.042 445.528 443.333L 445.528 443.333z"/>
<path fill="#dfffbf" stroke="none" d="M 442.195 460.708C 439.862 462.042 437.612 463.5 435.528 465.167C 434.487 466.25 434.528 468.042 435.653 469.083C 436.778 470.125 438.528 470.083 439.57 468.958C 441.112 466.708 442.32 464.25 443.278 461.708C 443.57 461.417 443.528 460.958 443.237 460.667C 442.945 460.375 442.487 460.417 442.195 460.708L 442.195 460.708z"/>
<path fill="#dfffbf" stroke="none" d="M 437.987 477.708C 436.028 478.542 433.987 479.125 432.737 481.375C 432.195 482.333 432.528 483.542 433.487 484.083C 434.445 484.625 435.653 484.25 436.195 483.292C 437.028 481.792 437.945 480.333 438.695 478.792C 438.987 478.625 439.07 478.208 438.903 477.917C 438.695 477.625 438.278 477.542 437.987 477.708L 437.987 477.708z"/>
<path fill="#dfffbf" stroke="none" d="M 434.237 494.417C 432.237 494.458 430.07 495.458 430.07 497.708C 429.487 498.542 429.695 499.708 430.57 500.292C 431.403 500.875 432.57 500.667 433.153 499.833C 435.278 499.292 435.07 497.125 435.278 495.458C 435.57 495.167 435.57 494.708 435.278 494.417C 434.987 494.125 434.528 494.125 434.237 494.417L 434.237 494.417z"/>
<path fill="#dfffbf" stroke="none" d="M 430.862 510.542C 429.403 511.542 427.653 512.208 426.778 513.917C 426.403 514.375 426.487 515.042 426.945 515.417C 427.403 515.792 428.07 515.75 428.445 515.292C 429.653 514.167 430.487 512.708 431.695 511.583C 431.987 511.333 432.028 510.917 431.778 510.625C 431.57 510.333 431.153 510.292 430.862 510.542L 430.862 510.542z"/>
<path fill="#dfffbf" stroke="none" d="M 428.112 526C 428.112 526.292 428.32 526.5 428.612 526.5C 428.903 526.5 429.112 526.292 429.112 526C 429.112 525.708 428.903 525.5 428.612 525.5C 428.32 525.5 428.112 525.708 428.112 526L 428.112 526z"/>
</g>
<g>
<path fill="none" stroke-width="6" stroke="#000000" d="M 279.241 312.597C 277.066 334.449 279.912 354.2 300.612 368C 308.054 372.961 320.612 384 332.612 386C 346.612 388 362.612 390 374.612 382C 400.148 366.395 406.564 339.719 405.281 311.968"/>
<path fill="none" stroke-width="6" stroke="#000000" d="M 320.612 386C 320.612 386 288.612 430 268.612 464C 262.612 474 240.612 512 240.612 512L 294.612 596C 294.612 596 284.612 622 280.612 632C 270.612 656 266.612 674 258.612 700"/>
<path fill="none" stroke-width="6" stroke="#000000" d="M 240.612 512C 220.612 534 174.612 614 174.612 614C 174.612 614 94.6118 690 96.6118 698"/>
<path fill="none" stroke-width="6" stroke="#000000" d="M 302.612 414C 274.612 402 184.612 392 184.612 392L 116.612 448"/>
<path fill="none" stroke-width="6" stroke="#000000" d="M 289.112 432.5C 315.112 468.5 384.612 502 426.612 498"/>
<path fill="none" stroke-width="6" stroke="#000000" d="M 364.612 350C 362.612 374 336.612 374.667 320.612 368.667C 316.612 366.667 309.278 357.333 307.945 350.667C 306.612 344 306.612 344 306.612 344C 306.612 344 356.612 350 380.612 348"/>
<path fill="none" stroke-width="6" stroke="#000000" d="M 338.612 304C 335.945 298.667 328.612 304 328.612 304C 328.612 310 326.612 316 328.612 320C 332.334 323.722 336.778 321.833 338.612 320C 340.612 316 341.295 309.367 338.612 304z"/>
<path fill="none" stroke-width="6" stroke="#000000" d="M 370.612 308.667C 368.612 314.667 367.945 318 369.945 325.333C 370.73 328.21 376.612 330 378.612 327.333C 382.612 322 381.945 314.667 378.612 308C 378.612 308 371.278 306.667 370.612 308.667z"/>
<path fill="none" stroke-width="6" stroke="#000000" d="M 277.945 312.667C 271.278 307.333 266.612 299.333 259.945 293.333C 264.612 295.333 269.278 296 273.945 296C 273.945 280.667 273.945 266 273.945 250.667C 279.945 251.333 281.945 258.667 285.945 262.667C 291.278 250.667 293.945 238 298.612 225.333C 301.945 230 302.612 236 305.945 240.667C 319.278 235.333 348.612 222.667 348.612 222.667C 349.945 228 349.278 234 347.945 239.333C 360.612 236 372.612 234 385.945 232.667C 388.612 232 391.278 230 394.612 230C 390.612 235.333 383.945 238.667 381.278 245.333C 395.945 248 410.612 249.333 425.278 250C 425.278 251.333 416.612 256 411.945 257.333C 410.612 258 407.945 259.333 409.278 260C 421.278 271.333 433.945 282 437.945 298C 429.945 298 423.945 291.333 415.945 290.667C 416.612 303.333 424.612 314.667 423.278 327.333C 416.612 324.667 412.612 318.667 407.278 314.667"/>
<path fill="none" stroke-width="6" stroke="#000000" d="M 426.346 544.487C 429.889 545.243 433.148 544.041 433.626 541.801L 466.178 389.185C 466.656 386.946 464.171 384.519 460.628 383.763L 460.628 383.763C 457.085 383.007 453.825 384.21 453.348 386.449L 420.795 539.065C 420.318 541.304 422.803 543.731 426.346 544.487L 426.346 544.487z"/>
</g>
</svg>