<?xml version='1.0' encoding='UTF-8'?>
<svg height="105.720000mm" viewBox="-147.860000 -52.860000 295.720000 105.720000" width="295.720000mm" xmlns="http://www.w3.org/2000/svg"><g fill="none" stroke="rgba(0, 0, 0, 0.8)" stroke-linejoin="round" stroke-width="0.36" transform="scale(1, -1)"><rect height="105.36" rx="3.18" ry="3.18" width="295.36" x="-147.68" y="-52.68" /><path d="M-139.820000,31.180000L-126.180000,31.180000 -126.180000,44.820000 -139.820000,44.820000Z" stroke="rgba(0, 0, 0, 0.8)" /><path d="M-120.820000,31.180000L-107.180000,31.180000 -107.180000,44.820000 -120.820000,44.820000Z" stroke="rgba(0, 0, 0, 0.8)" /><path d="M-101.820000,31.180000L-88.180000,31.180000 -88.180000,44.820000 -101.820000,44.820000Z" stroke="rgba(0, 0, 0, 0.8)" /><path d="M-82.820000,31.180000L-69.180000,31.180000 -69.180000,44.820000 -82.820000,44.820000Z" stroke="rgba(0, 0, 0, 0.8)" /><path d="M-63.820000,31.180000L-50.180000,31.180000 -50.180000,44.820000 -63.820000,44.820000Z" stroke="rgba(0, 0, 0, 0.8)" /><path d="M-44.820000,31.180000L-31.180000,31.180000 -31.180000,44.820000 -44.820000,44.820000Z" stroke="rgba(0, 0, 0, 0.8)" /><path d="M-25.820000,31.180000L-12.180000,31.180000 -12.180000,44.820000 -25.820000,44.820000Z" stroke="rgba(0, 0, 0, 0.8)" /><path d="M-6.820000,31.180000L6.820000,31.180000 6.820000,44.820000 -6.820000,44.820000Z" stroke="rgba(0, 0, 0, 0.8)" /><path d="M12.180000,31.180000L25.820000,31.180000 25.820000,44.820000 12.180000,44.820000Z" stroke="rgba(0, 0, 0, 0.8)" /><path d="M31.180000,31.180000L44.820000,31.180000 44.820000,44.820000 31.180000,44.820000Z" stroke="rgba(0, 0, 0, 0.8)" /><path d="M50.180000,31.180000L63.820000,31.180000 63.820000,44.820000 50.180000,44.820000Z" stroke="rgba(0, 0, 0, 0.8)" /><path d="M69.180000,31.180000L82.820000,31.180000 82.820000,44.820000 69.180000,44.820000Z" stroke="rgba(0, 0, 0, 0.8)" /><path d="M88.180000,31.180000L101.820000,31.180000 101.820000,44.820000 88.180000,44.820000Z" stroke="rgba(0, 0, 0, 0.8)" /><path d="M116.680000,31.180000L130.320000,31.180000 130.320000,44.820000 116.680000,44.820000Z" stroke="rgba(0, 0, 0, 0.8)" /><path d="M133.980000,30.430000L136.920000,30.430000 136.920000,44.070000 133.980000,44.070000Z" stroke="rgba(0, 0, 0, 0.8)" /><path d="M110.080000,30.430000L113.020000,30.430000 113.020000,44.070000 110.080000,44.070000Z" stroke="rgba(0, 0, 0, 0.8)" /><path d="M-135.070000,12.180000L-121.430000,12.180000 -121.430000,25.820000 -135.070000,25.820000Z" stroke="rgba(0, 0, 0, 0.8)" /><path d="M-111.320000,12.180000L-97.680000,12.180000 -97.680000,25.820000 -111.320000,25.820000Z" stroke="rgba(0, 0, 0, 0.8)" /><path d="M-92.320000,12.180000L-78.680000,12.180000 -78.680000,25.820000 -92.320000,25.820000Z" stroke="rgba(0, 0, 0, 0.8)" /><path d="M-73.320000,12.180000L-59.680000,12.180000 -59.680000,25.820000 -73.320000,25.820000Z" stroke="rgba(0, 0, 0, 0.8)" /><path d="M-54.320000,12.180000L-40.680000,12.180000 -40.680000,25.820000 -54.320000,25.820000Z" stroke="rgba(0, 0, 0, 0.8)" /><path d="M-35.320000,12.180000L-21.680000,12.180000 -21.680000,25.820000 -35.320000,25.820000Z" stroke="rgba(0, 0, 0, 0.8)" /><path d="M-16.320000,12.180000L-2.680000,12.180000 -2.680000,25.820000 -16.320000,25.820000Z" stroke="rgba(0, 0, 0, 0.8)" /><path d="M2.680000,12.180000L16.320000,12.180000 16.320000,25.820000 2.680000,25.820000Z" stroke="rgba(0, 0, 0, 0.8)" /><path d="M21.680000,12.180000L35.320000,12.180000 35.320000,25.820000 21.680000,25.820000Z" stroke="rgba(0, 0, 0, 0.8)" /><path d="M40.680000,12.180000L54.320000,12.180000 54.320000,25.820000 40.680000,25.820000Z" stroke="rgba(0, 0, 0, 0.8)" /><path d="M59.680000,12.180000L73.320000,12.180000 73.320000,25.820000 59.680000,25.820000Z" stroke="rgba(0, 0, 0, 0.8)" /><path d="M78.680000,12.180000L92.320000,12.180000 92.320000,25.820000 78.680000,25.820000Z" stroke="rgba(0, 0, 0, 0.8)" /><path d="M97.680000,12.180000L111.320000,12.180000 111.320000,25.820000 97.680000,25.820000Z" stroke="rgba(0, 0, 0, 0.8)" /><path d="M123.805000,16.320000L123.805000,2.680000 137.445000,2.680000 137.445000,16.320000Z" stroke="rgba(0, 0, 0, 0.8)" /><path d="M123.055000,-0.980000L123.055000,-3.920000 136.695000,-3.920000 136.695000,-0.980000Z" stroke="rgba(0, 0, 0, 0.8)" /><path d="M123.055000,22.920000L123.055000,19.980000 136.695000,19.980000 136.695000,22.920000Z" stroke="rgba(0, 0, 0, 0.8)" /><path d="M-132.695000,-6.820000L-119.055000,-6.820000 -119.055000,6.820000 -132.695000,6.820000Z" stroke="rgba(0, 0, 0, 0.8)" /><path d="M-106.570000,-6.820000L-92.930000,-6.820000 -92.930000,6.820000 -106.570000,6.820000Z" stroke="rgba(0, 0, 0, 0.8)" /><path d="M-87.570000,-6.820000L-73.930000,-6.820000 -73.930000,6.820000 -87.570000,6.820000Z" stroke="rgba(0, 0, 0, 0.8)" /><path d="M-68.570000,-6.820000L-54.930000,-6.820000 -54.930000,6.820000 -68.570000,6.820000Z" stroke="rgba(0, 0, 0, 0.8)" /><path d="M-49.570000,-6.820000L-35.930000,-6.820000 -35.930000,6.820000 -49.570000,6.820000Z" stroke="rgba(0, 0, 0, 0.8)" /><path d="M-30.570000,-6.820000L-16.930000,-6.820000 -16.930000,6.820000 -30.570000,6.820000Z" stroke="rgba(0, 0, 0, 0.8)" /><path d="M-11.570000,-6.820000L2.070000,-6.820000 2.070000,6.820000 -11.570000,6.820000Z" stroke="rgba(0, 0, 0, 0.8)" /><path d="M7.430000,-6.820000L21.070000,-6.820000 21.070000,6.820000 7.430000,6.820000Z" stroke="rgba(0, 0, 0, 0.8)" /><path d="M26.430000,-6.820000L40.070000,-6.820000 40.070000,6.820000 26.430000,6.820000Z" stroke="rgba(0, 0, 0, 0.8)" /><path d="M45.430000,-6.820000L59.070000,-6.820000 59.070000,6.820000 45.430000,6.820000Z" stroke="rgba(0, 0, 0, 0.8)" /><path d="M64.430000,-6.820000L78.070000,-6.820000 78.070000,6.820000 64.430000,6.820000Z" stroke="rgba(0, 0, 0, 0.8)" /><path d="M83.430000,-6.820000L97.070000,-6.820000 97.070000,6.820000 83.430000,6.820000Z" stroke="rgba(0, 0, 0, 0.8)" /><path d="M102.430000,-6.820000L116.070000,-6.820000 116.070000,6.820000 102.430000,6.820000Z" stroke="rgba(0, 0, 0, 0.8)" /><path d="M-137.445000,-25.820000L-123.805000,-25.820000 -123.805000,-12.180000 -137.445000,-12.180000Z" stroke="rgba(0, 0, 0, 0.8)" /><path d="M-116.070000,-25.820000L-102.430000,-25.820000 -102.430000,-12.180000 -116.070000,-12.180000Z" stroke="rgba(0, 0, 0, 0.8)" /><path d="M-97.070000,-25.820000L-83.430000,-25.820000 -83.430000,-12.180000 -97.070000,-12.180000Z" stroke="rgba(0, 0, 0, 0.8)" /><path d="M-78.070000,-25.820000L-64.430000,-25.820000 -64.430000,-12.180000 -78.070000,-12.180000Z" stroke="rgba(0, 0, 0, 0.8)" /><path d="M-59.070000,-25.820000L-45.430000,-25.820000 -45.430000,-12.180000 -59.070000,-12.180000Z" stroke="rgba(0, 0, 0, 0.8)" /><path d="M-40.070000,-25.820000L-26.430000,-25.820000 -26.430000,-12.180000 -40.070000,-12.180000Z" stroke="rgba(0, 0, 0, 0.8)" /><path d="M-21.070000,-25.820000L-7.430000,-25.820000 -7.430000,-12.180000 -21.070000,-12.180000Z" stroke="rgba(0, 0, 0, 0.8)" /><path d="M-2.070000,-25.820000L11.570000,-25.820000 11.570000,-12.180000 -2.070000,-12.180000Z" stroke="rgba(0, 0, 0, 0.8)" /><path d="M16.930000,-25.820000L30.570000,-25.820000 30.570000,-12.180000 16.930000,-12.180000Z" stroke="rgba(0, 0, 0, 0.8)" /><path d="M35.930000,-25.820000L49.570000,-25.820000 49.570000,-12.180000 35.930000,-12.180000Z" stroke="rgba(0, 0, 0, 0.8)" /><path d="M54.930000,-25.820000L68.570000,-25.820000 68.570000,-12.180000 54.930000,-12.180000Z" stroke="rgba(0, 0, 0, 0.8)" /><path d="M73.930000,-25.820000L87.570000,-25.820000 87.570000,-12.180000 73.930000,-12.180000Z" stroke="rgba(0, 0, 0, 0.8)" /><path d="M100.055000,-25.820000L113.695000,-25.820000 113.695000,-12.180000 100.055000,-12.180000Z" stroke="rgba(0, 0, 0, 0.8)" /><path d="M126.180000,-25.820000L139.820000,-25.820000 139.820000,-12.180000 126.180000,-12.180000Z" stroke="rgba(0, 0, 0, 0.8)" /><path d="M-104.195000,-44.820000L-90.555000,-44.820000 -90.555000,-31.180000 -104.195000,-31.180000Z" stroke="rgba(0, 0, 0, 0.8)" /><path d="M-80.445000,-44.820000L-66.805000,-44.820000 -66.805000,-31.180000 -80.445000,-31.180000Z" stroke="rgba(0, 0, 0, 0.8)" /><path d="M-47.195000,-44.820000L-33.555000,-44.820000 -33.555000,-31.180000 -47.195000,-31.180000Z" stroke="rgba(0, 0, 0, 0.8)" /><path d="M-29.895000,-45.570000L-26.955000,-45.570000 -26.955000,-31.930000 -29.895000,-31.930000Z" stroke="rgba(0, 0, 0, 0.8)" /><path d="M-53.795000,-45.570000L-50.855000,-45.570000 -50.855000,-31.930000 -53.795000,-31.930000Z" stroke="rgba(0, 0, 0, 0.8)" /><path d="M0.305000,-44.820000L13.945000,-44.820000 13.945000,-31.180000 0.305000,-31.180000Z" stroke="rgba(0, 0, 0, 0.8)" /><path d="M17.605000,-45.570000L20.545000,-45.570000 20.545000,-31.930000 17.605000,-31.930000Z" stroke="rgba(0, 0, 0, 0.8)" /><path d="M-6.295000,-45.570000L-3.355000,-45.570000 -3.355000,-31.930000 -6.295000,-31.930000Z" stroke="rgba(0, 0, 0, 0.8)" /><path d="M38.305000,-44.820000L51.945000,-44.820000 51.945000,-31.180000 38.305000,-31.180000Z" stroke="rgba(0, 0, 0, 0.8)" /><path d="M59.680000,-44.820000L73.320000,-44.820000 73.320000,-31.180000 59.680000,-31.180000Z" stroke="rgba(0, 0, 0, 0.8)" /><path d="M83.430000,-44.820000L97.070000,-44.820000 97.070000,-31.180000 83.430000,-31.180000Z" stroke="rgba(0, 0, 0, 0.8)" /><path d="M102.430000,-44.820000L116.070000,-44.820000 116.070000,-31.180000 102.430000,-31.180000Z" stroke="rgba(0, 0, 0, 0.8)" /><path d="M126.180000,-44.820000L139.820000,-44.820000 139.820000,-31.180000 126.180000,-31.180000Z" stroke="rgba(0, 0, 0, 0.8)" /><path d="M-139.820000,31.180000L-139.820000,44.820000 -135.320000,44.820000 -135.320000,45.570000 -130.680000,45.570000 -130.680000,44.820000 -126.180000,44.820000 -126.180000,31.180000 -130.680000,31.180000 -130.680000,30.430000 -135.320000,30.430000 -135.320000,31.180000Z" stroke="rgba(0, 0, 0, 0.8)" /><path d="M-120.820000,31.180000L-120.820000,44.820000 -116.320000,44.820000 -116.320000,45.570000 -111.680000,45.570000 -111.680000,44.820000 -107.180000,44.820000 -107.180000,31.180000 -111.680000,31.180000 -111.680000,30.430000 -116.320000,30.430000 -116.320000,31.180000Z" stroke="rgba(0, 0, 0, 0.8)" /><path d="M-101.820000,31.180000L-101.820000,44.820000 -97.320000,44.820000 -97.320000,45.570000 -92.680000,45.570000 -92.680000,44.820000 -88.180000,44.820000 -88.180000,31.180000 -92.680000,31.180000 -92.680000,30.430000 -97.320000,30.430000 -97.320000,31.180000Z" stroke="rgba(0, 0, 0, 0.8)" /><path d="M-82.820000,31.180000L-82.820000,44.820000 -78.320000,44.820000 -78.320000,45.570000 -73.680000,45.570000 -73.680000,44.820000 -69.180000,44.820000 -69.180000,31.180000 -73.680000,31.180000 -73.680000,30.430000 -78.320000,30.430000 -78.320000,31.180000Z" stroke="rgba(0, 0, 0, 0.8)" /><path d="M-63.820000,31.180000L-63.820000,44.820000 -59.320000,44.820000 -59.320000,45.570000 -54.680000,45.570000 -54.680000,44.820000 -50.180000,44.820000 -50.180000,31.180000 -54.680000,31.180000 -54.680000,30.430000 -59.320000,30.430000 -59.320000,31.180000Z" stroke="rgba(0, 0, 0, 0.8)" /><path d="M-44.820000,31.180000L-44.820000,44.820000 -40.320000,44.820000 -40.320000,45.570000 -35.680000,45.570000 -35.680000,44.820000 -31.180000,44.820000 -31.180000,31.180000 -35.680000,31.180000 -35.680000,30.430000 -40.320000,30.430000 -40.320000,31.180000Z" stroke="rgba(0, 0, 0, 0.8)" /><path d="M-25.820000,31.180000L-25.820000,44.820000 -21.320000,44.820000 -21.320000,45.570000 -16.680000,45.570000 -16.680000,44.820000 -12.180000,44.820000 -12.180000,31.180000 -16.680000,31.180000 -16.680000,30.430000 -21.320000,30.430000 -21.320000,31.180000Z" stroke="rgba(0, 0, 0, 0.8)" /><path d="M-6.820000,31.180000L-6.820000,44.820000 -2.320000,44.820000 -2.320000,45.570000 2.320000,45.570000 2.320000,44.820000 6.820000,44.820000 6.820000,31.180000 2.320000,31.180000 2.320000,30.430000 -2.320000,30.430000 -2.320000,31.180000Z" stroke="rgba(0, 0, 0, 0.8)" /><path d="M12.180000,31.180000L12.180000,44.820000 16.680000,44.820000 16.680000,45.570000 21.320000,45.570000 21.320000,44.820000 25.820000,44.820000 25.820000,31.180000 21.320000,31.180000 21.320000,30.430000 16.680000,30.430000 16.680000,31.180000Z" stroke="rgba(0, 0, 0, 0.8)" /><path d="M31.180000,31.180000L31.180000,44.820000 35.680000,44.820000 35.680000,45.570000 40.320000,45.570000 40.320000,44.820000 44.820000,44.820000 44.820000,31.180000 40.320000,31.180000 40.320000,30.430000 35.680000,30.430000 35.680000,31.180000Z" stroke="rgba(0, 0, 0, 0.8)" /><path d="M50.180000,31.180000L50.180000,44.820000 54.680000,44.820000 54.680000,45.570000 59.320000,45.570000 59.320000,44.820000 63.820000,44.820000 63.820000,31.180000 59.320000,31.180000 59.320000,30.430000 54.680000,30.430000 54.680000,31.180000Z" stroke="rgba(0, 0, 0, 0.8)" /><path d="M69.180000,31.180000L69.180000,44.820000 73.680000,44.820000 73.680000,45.570000 78.320000,45.570000 78.320000,44.820000 82.820000,44.820000 82.820000,31.180000 78.320000,31.180000 78.320000,30.430000 73.680000,30.430000 73.680000,31.180000Z" stroke="rgba(0, 0, 0, 0.8)" /><path d="M88.180000,31.180000L88.180000,44.820000 92.680000,44.820000 92.680000,45.570000 97.320000,45.570000 97.320000,44.820000 101.820000,44.820000 101.820000,31.180000 97.320000,31.180000 97.320000,30.430000 92.680000,30.430000 92.680000,31.180000Z" stroke="rgba(0, 0, 0, 0.8)" /><path d="M116.680000,31.180000L116.680000,44.820000 121.180000,44.820000 121.180000,45.570000 125.820000,45.570000 125.820000,44.820000 130.320000,44.820000 130.320000,31.180000 125.820000,31.180000 125.820000,30.430000 121.180000,30.430000 121.180000,31.180000Z" stroke="rgba(0, 0, 0, 0.8)" /><path d="M133.980000,29.680000L136.920000,29.680000 136.920000,44.820000 133.980000,44.820000Z" stroke="rgba(0, 0, 0, 0.8)" /><path d="M110.080000,29.680000L113.020000,29.680000 113.020000,44.820000 110.080000,44.820000Z" stroke="rgba(0, 0, 0, 0.8)" /><path d="M-135.070000,12.180000L-135.070000,25.820000 -130.570000,25.820000 -130.570000,26.570000 -125.930000,26.570000 -125.930000,25.820000 -121.430000,25.820000 -121.430000,12.180000 -125.930000,12.180000 -125.930000,11.430000 -130.570000,11.430000 -130.570000,12.180000Z" stroke="rgba(0, 0, 0, 0.8)" /><path d="M-111.320000,12.180000L-111.320000,25.820000 -106.820000,25.820000 -106.820000,26.570000 -102.180000,26.570000 -102.180000,25.820000 -97.680000,25.820000 -97.680000,12.180000 -102.180000,12.180000 -102.180000,11.430000 -106.820000,11.430000 -106.820000,12.180000Z" stroke="rgba(0, 0, 0, 0.8)" /><path d="M-92.320000,12.180000L-92.320000,25.820000 -87.820000,25.820000 -87.820000,26.570000 -83.180000,26.570000 -83.180000,25.820000 -78.680000,25.820000 -78.680000,12.180000 -83.180000,12.180000 -83.180000,11.430000 -87.820000,11.430000 -87.820000,12.180000Z" stroke="rgba(0, 0, 0, 0.8)" /><path d="M-73.320000,12.180000L-73.320000,25.820000 -68.820000,25.820000 -68.820000,26.570000 -64.180000,26.570000 -64.180000,25.820000 -59.680000,25.820000 -59.680000,12.180000 -64.180000,12.180000 -64.180000,11.430000 -68.820000,11.430000 -68.820000,12.180000Z" stroke="rgba(0, 0, 0, 0.8)" /><path d="M-54.320000,12.180000L-54.320000,25.820000 -49.820000,25.820000 -49.820000,26.570000 -45.180000,26.570000 -45.180000,25.820000 -40.680000,25.820000 -40.680000,12.180000 -45.180000,12.180000 -45.180000,11.430000 -49.820000,11.430000 -49.820000,12.180000Z" stroke="rgba(0, 0, 0, 0.8)" /><path d="M-35.320000,12.180000L-35.320000,25.820000 -30.820000,25.820000 -30.820000,26.570000 -26.180000,26.570000 -26.180000,25.820000 -21.680000,25.820000 -21.680000,12.180000 -26.180000,12.180000 -26.180000,11.430000 -30.820000,11.430000 -30.820000,12.180000Z" stroke="rgba(0, 0, 0, 0.8)" /><path d="M-16.320000,12.180000L-16.320000,25.820000 -11.820000,25.820000 -11.820000,26.570000 -7.180000,26.570000 -7.180000,25.820000 -2.680000,25.820000 -2.680000,12.180000 -7.180000,12.180000 -7.180000,11.430000 -11.820000,11.430000 -11.820000,12.180000Z" stroke="rgba(0, 0, 0, 0.8)" /><path d="M2.680000,12.180000L2.680000,25.820000 7.180000,25.820000 7.180000,26.570000 11.820000,26.570000 11.820000,25.820000 16.320000,25.820000 16.320000,12.180000 11.820000,12.180000 11.820000,11.430000 7.180000,11.430000 7.180000,12.180000Z" stroke="rgba(0, 0, 0, 0.8)" /><path d="M21.680000,12.180000L21.680000,25.820000 26.180000,25.820000 26.180000,26.570000 30.820000,26.570000 30.820000,25.820000 35.320000,25.820000 35.320000,12.180000 30.820000,12.180000 30.820000,11.430000 26.180000,11.430000 26.180000,12.180000Z" stroke="rgba(0, 0, 0, 0.8)" /><path d="M40.680000,12.180000L40.680000,25.820000 45.180000,25.820000 45.180000,26.570000 49.820000,26.570000 49.820000,25.820000 54.320000,25.820000 54.320000,12.180000 49.820000,12.180000 49.820000,11.430000 45.180000,11.430000 45.180000,12.180000Z" stroke="rgba(0, 0, 0, 0.8)" /><path d="M59.680000,12.180000L59.680000,25.820000 64.180000,25.820000 64.180000,26.570000 68.820000,26.570000 68.820000,25.820000 73.320000,25.820000 73.320000,12.180000 68.820000,12.180000 68.820000,11.430000 64.180000,11.430000 64.180000,12.180000Z" stroke="rgba(0, 0, 0, 0.8)" /><path d="M78.680000,12.180000L78.680000,25.820000 83.180000,25.820000 83.180000,26.570000 87.820000,26.570000 87.820000,25.820000 92.320000,25.820000 92.320000,12.180000 87.820000,12.180000 87.820000,11.430000 83.180000,11.430000 83.180000,12.180000Z" stroke="rgba(0, 0, 0, 0.8)" /><path d="M97.680000,12.180000L97.680000,25.820000 102.180000,25.820000 102.180000,26.570000 106.820000,26.570000 106.820000,25.820000 111.320000,25.820000 111.320000,12.180000 106.820000,12.180000 106.820000,11.430000 102.180000,11.430000 102.180000,12.180000Z" stroke="rgba(0, 0, 0, 0.8)" /><path d="M123.805000,16.320000L137.445000,16.320000 137.445000,11.820000 138.195000,11.820000 138.195000,7.180000 137.445000,7.180000 137.445000,2.680000 123.805000,2.680000 123.805000,7.180000 123.055000,7.180000 123.055000,11.820000 123.805000,11.820000Z" stroke="rgba(0, 0, 0, 0.8)" /><path d="M122.305000,-0.980000L122.305000,-3.920000 137.445000,-3.920000 137.445000,-0.980000Z" stroke="rgba(0, 0, 0, 0.8)" /><path d="M122.305000,22.920000L122.305000,19.980000 137.445000,19.980000 137.445000,22.920000Z" stroke="rgba(0, 0, 0, 0.8)" /><path d="M-132.695000,-6.820000L-132.695000,6.820000 -128.195000,6.820000 -128.195000,7.570000 -123.555000,7.570000 -123.555000,6.820000 -119.055000,6.820000 -119.055000,-6.820000 -123.555000,-6.820000 -123.555000,-7.570000 -128.195000,-7.570000 -128.195000,-6.820000Z" stroke="rgba(0, 0, 0, 0.8)" /><path d="M-106.570000,-6.820000L-106.570000,6.820000 -102.070000,6.820000 -102.070000,7.570000 -97.430000,7.570000 -97.430000,6.820000 -92.930000,6.820000 -92.930000,-6.820000 -97.430000,-6.820000 -97.430000,-7.570000 -102.070000,-7.570000 -102.070000,-6.820000Z" stroke="rgba(0, 0, 0, 0.8)" /><path d="M-87.570000,-6.820000L-87.570000,6.820000 -83.070000,6.820000 -83.070000,7.570000 -78.430000,7.570000 -78.430000,6.820000 -73.930000,6.820000 -73.930000,-6.820000 -78.430000,-6.820000 -78.430000,-7.570000 -83.070000,-7.570000 -83.070000,-6.820000Z" stroke="rgba(0, 0, 0, 0.8)" /><path d="M-68.570000,-6.820000L-68.570000,6.820000 -64.070000,6.820000 -64.070000,7.570000 -59.430000,7.570000 -59.430000,6.820000 -54.930000,6.820000 -54.930000,-6.820000 -59.430000,-6.820000 -59.430000,-7.570000 -64.070000,-7.570000 -64.070000,-6.820000Z" stroke="rgba(0, 0, 0, 0.8)" /><path d="M-49.570000,-6.820000L-49.570000,6.820000 -45.070000,6.820000 -45.070000,7.570000 -40.430000,7.570000 -40.430000,6.820000 -35.930000,6.820000 -35.930000,-6.820000 -40.430000,-6.820000 -40.430000,-7.570000 -45.070000,-7.570000 -45.070000,-6.820000Z" stroke="rgba(0, 0, 0, 0.8)" /><path d="M-30.570000,-6.820000L-30.570000,6.820000 -26.070000,6.820000 -26.070000,7.570000 -21.430000,7.570000 -21.430000,6.820000 -16.930000,6.820000 -16.930000,-6.820000 -21.430000,-6.820000 -21.430000,-7.570000 -26.070000,-7.570000 -26.070000,-6.820000Z" stroke="rgba(0, 0, 0, 0.8)" /><path d="M-11.570000,-6.820000L-11.570000,6.820000 -7.070000,6.820000 -7.070000,7.570000 -2.430000,7.570000 -2.430000,6.820000 2.070000,6.820000 2.070000,-6.820000 -2.430000,-6.820000 -2.430000,-7.570000 -7.070000,-7.570000 -7.070000,-6.820000Z" stroke="rgba(0, 0, 0, 0.8)" /><path d="M7.430000,-6.820000L7.430000,6.820000 11.930000,6.820000 11.930000,7.570000 16.570000,7.570000 16.570000,6.820000 21.070000,6.820000 21.070000,-6.820000 16.570000,-6.820000 16.570000,-7.570000 11.930000,-7.570000 11.930000,-6.820000Z" stroke="rgba(0, 0, 0, 0.8)" /><path d="M26.430000,-6.820000L26.430000,6.820000 30.930000,6.820000 30.930000,7.570000 35.570000,7.570000 35.570000,6.820000 40.070000,6.820000 40.070000,-6.820000 35.570000,-6.820000 35.570000,-7.570000 30.930000,-7.570000 30.930000,-6.820000Z" stroke="rgba(0, 0, 0, 0.8)" /><path d="M45.430000,-6.820000L45.430000,6.820000 49.930000,6.820000 49.930000,7.570000 54.570000,7.570000 54.570000,6.820000 59.070000,6.820000 59.070000,-6.820000 54.570000,-6.820000 54.570000,-7.570000 49.930000,-7.570000 49.930000,-6.820000Z" stroke="rgba(0, 0, 0, 0.8)" /><path d="M64.430000,-6.820000L64.430000,6.820000 68.930000,6.820000 68.930000,7.570000 73.570000,7.570000 73.570000,6.820000 78.070000,6.820000 78.070000,-6.820000 73.570000,-6.820000 73.570000,-7.570000 68.930000,-7.570000 68.930000,-6.820000Z" stroke="rgba(0, 0, 0, 0.8)" /><path d="M83.430000,-6.820000L83.430000,6.820000 87.930000,6.820000 87.930000,7.570000 92.570000,7.570000 92.570000,6.820000 97.070000,6.820000 97.070000,-6.820000 92.570000,-6.820000 92.570000,-7.570000 87.930000,-7.570000 87.930000,-6.820000Z" stroke="rgba(0, 0, 0, 0.8)" /><path d="M102.430000,-6.820000L102.430000,6.820000 106.930000,6.820000 106.930000,7.570000 111.570000,7.570000 111.570000,6.820000 116.070000,6.820000 116.070000,-6.820000 111.570000,-6.820000 111.570000,-7.570000 106.930000,-7.570000 106.930000,-6.820000Z" stroke="rgba(0, 0, 0, 0.8)" /><path d="M-137.445000,-25.820000L-137.445000,-12.180000 -132.945000,-12.180000 -132.945000,-11.430000 -128.305000,-11.430000 -128.305000,-12.180000 -123.805000,-12.180000 -123.805000,-25.820000 -128.305000,-25.820000 -128.305000,-26.570000 -132.945000,-26.570000 -132.945000,-25.820000Z" stroke="rgba(0, 0, 0, 0.8)" /><path d="M-116.070000,-25.820000L-116.070000,-12.180000 -111.570000,-12.180000 -111.570000,-11.430000 -106.930000,-11.430000 -106.930000,-12.180000 -102.430000,-12.180000 -102.430000,-25.820000 -106.930000,-25.820000 -106.930000,-26.570000 -111.570000,-26.570000 -111.570000,-25.820000Z" stroke="rgba(0, 0, 0, 0.8)" /><path d="M-97.070000,-25.820000L-97.070000,-12.180000 -92.570000,-12.180000 -92.570000,-11.430000 -87.930000,-11.430000 -87.930000,-12.180000 -83.430000,-12.180000 -83.430000,-25.820000 -87.930000,-25.820000 -87.930000,-26.570000 -92.570000,-26.570000 -92.570000,-25.820000Z" stroke="rgba(0, 0, 0, 0.8)" /><path d="M-78.070000,-25.820000L-78.070000,-12.180000 -73.570000,-12.180000 -73.570000,-11.430000 -68.930000,-11.430000 -68.930000,-12.180000 -64.430000,-12.180000 -64.430000,-25.820000 -68.930000,-25.820000 -68.930000,-26.570000 -73.570000,-26.570000 -73.570000,-25.820000Z" stroke="rgba(0, 0, 0, 0.8)" /><path d="M-59.070000,-25.820000L-59.070000,-12.180000 -54.570000,-12.180000 -54.570000,-11.430000 -49.930000,-11.430000 -49.930000,-12.180000 -45.430000,-12.180000 -45.430000,-25.820000 -49.930000,-25.820000 -49.930000,-26.570000 -54.570000,-26.570000 -54.570000,-25.820000Z" stroke="rgba(0, 0, 0, 0.8)" /><path d="M-40.070000,-25.820000L-40.070000,-12.180000 -35.570000,-12.180000 -35.570000,-11.430000 -30.930000,-11.430000 -30.930000,-12.180000 -26.430000,-12.180000 -26.430000,-25.820000 -30.930000,-25.820000 -30.930000,-26.570000 -35.570000,-26.570000 -35.570000,-25.820000Z" stroke="rgba(0, 0, 0, 0.8)" /><path d="M-21.070000,-25.820000L-21.070000,-12.180000 -16.570000,-12.180000 -16.570000,-11.430000 -11.930000,-11.430000 -11.930000,-12.180000 -7.430000,-12.180000 -7.430000,-25.820000 -11.930000,-25.820000 -11.930000,-26.570000 -16.570000,-26.570000 -16.570000,-25.820000Z" stroke="rgba(0, 0, 0, 0.8)" /><path d="M-2.070000,-25.820000L-2.070000,-12.180000 2.430000,-12.180000 2.430000,-11.430000 7.070000,-11.430000 7.070000,-12.180000 11.570000,-12.180000 11.570000,-25.820000 7.070000,-25.820000 7.070000,-26.570000 2.430000,-26.570000 2.430000,-25.820000Z" stroke="rgba(0, 0, 0, 0.8)" /><path d="M16.930000,-25.820000L16.930000,-12.180000 21.430000,-12.180000 21.430000,-11.430000 26.070000,-11.430000 26.070000,-12.180000 30.570000,-12.180000 30.570000,-25.820000 26.070000,-25.820000 26.070000,-26.570000 21.430000,-26.570000 21.430000,-25.820000Z" stroke="rgba(0, 0, 0, 0.8)" /><path d="M35.930000,-25.820000L35.930000,-12.180000 40.430000,-12.180000 40.430000,-11.430000 45.070000,-11.430000 45.070000,-12.180000 49.570000,-12.180000 49.570000,-25.820000 45.070000,-25.820000 45.070000,-26.570000 40.430000,-26.570000 40.430000,-25.820000Z" stroke="rgba(0, 0, 0, 0.8)" /><path d="M54.930000,-25.820000L54.930000,-12.180000 59.430000,-12.180000 59.430000,-11.430000 64.070000,-11.430000 64.070000,-12.180000 68.570000,-12.180000 68.570000,-25.820000 64.070000,-25.820000 64.070000,-26.570000 59.430000,-26.570000 59.430000,-25.820000Z" stroke="rgba(0, 0, 0, 0.8)" /><path d="M73.930000,-25.820000L73.930000,-12.180000 78.430000,-12.180000 78.430000,-11.430000 83.070000,-11.430000 83.070000,-12.180000 87.570000,-12.180000 87.570000,-25.820000 83.070000,-25.820000 83.070000,-26.570000 78.430000,-26.570000 78.430000,-25.820000Z" stroke="rgba(0, 0, 0, 0.8)" /><path d="M100.055000,-25.820000L100.055000,-12.180000 104.555000,-12.180000 104.555000,-11.430000 109.195000,-11.430000 109.195000,-12.180000 113.695000,-12.180000 113.695000,-25.820000 109.195000,-25.820000 109.195000,-26.570000 104.555000,-26.570000 104.555000,-25.820000Z" stroke="rgba(0, 0, 0, 0.8)" /><path d="M126.180000,-25.820000L126.180000,-12.180000 130.680000,-12.180000 130.680000,-11.430000 135.320000,-11.430000 135.320000,-12.180000 139.820000,-12.180000 139.820000,-25.820000 135.320000,-25.820000 135.320000,-26.570000 130.680000,-26.570000 130.680000,-25.820000Z" stroke="rgba(0, 0, 0, 0.8)" /><path d="M-104.195000,-44.820000L-104.195000,-31.180000 -99.695000,-31.180000 -99.695000,-30.430000 -95.055000,-30.430000 -95.055000,-31.180000 -90.555000,-31.180000 -90.555000,-44.820000 -95.055000,-44.820000 -95.055000,-45.570000 -99.695000,-45.570000 -99.695000,-44.820000Z" stroke="rgba(0, 0, 0, 0.8)" /><path d="M-80.445000,-44.820000L-80.445000,-31.180000 -75.945000,-31.180000 -75.945000,-30.430000 -71.305000,-30.430000 -71.305000,-31.180000 -66.805000,-31.180000 -66.805000,-44.820000 -71.305000,-44.820000 -71.305000,-45.570000 -75.945000,-45.570000 -75.945000,-44.820000Z" stroke="rgba(0, 0, 0, 0.8)" /><path d="M-47.195000,-44.820000L-47.195000,-31.180000 -42.695000,-31.180000 -42.695000,-30.430000 -38.055000,-30.430000 -38.055000,-31.180000 -33.555000,-31.180000 -33.555000,-44.820000 -38.055000,-44.820000 -38.055000,-45.570000 -42.695000,-45.570000 -42.695000,-44.820000Z" stroke="rgba(0, 0, 0, 0.8)" /><path d="M-29.895000,-46.320000L-26.955000,-46.320000 -26.955000,-31.180000 -29.895000,-31.180000Z" stroke="rgba(0, 0, 0, 0.8)" /><path d="M-53.795000,-46.320000L-50.855000,-46.320000 -50.855000,-31.180000 -53.795000,-31.180000Z" stroke="rgba(0, 0, 0, 0.8)" /><path d="M0.305000,-44.820000L0.305000,-31.180000 4.805000,-31.180000 4.805000,-30.430000 9.445000,-30.430000 9.445000,-31.180000 13.945000,-31.180000 13.945000,-44.820000 9.445000,-44.820000 9.445000,-45.570000 4.805000,-45.570000 4.805000,-44.820000Z" stroke="rgba(0, 0, 0, 0.8)" /><path d="M17.605000,-46.320000L20.545000,-46.320000 20.545000,-31.180000 17.605000,-31.180000Z" stroke="rgba(0, 0, 0, 0.8)" /><path d="M-6.295000,-46.320000L-3.355000,-46.320000 -3.355000,-31.180000 -6.295000,-31.180000Z" stroke="rgba(0, 0, 0, 0.8)" /><path d="M38.305000,-44.820000L38.305000,-31.180000 42.805000,-31.180000 42.805000,-30.430000 47.445000,-30.430000 47.445000,-31.180000 51.945000,-31.180000 51.945000,-44.820000 47.445000,-44.820000 47.445000,-45.570000 42.805000,-45.570000 42.805000,-44.820000Z" stroke="rgba(0, 0, 0, 0.8)" /><path d="M59.680000,-44.820000L59.680000,-31.180000 64.180000,-31.180000 64.180000,-30.430000 68.820000,-30.430000 68.820000,-31.180000 73.320000,-31.180000 73.320000,-44.820000 68.820000,-44.820000 68.820000,-45.570000 64.180000,-45.570000 64.180000,-44.820000Z" stroke="rgba(0, 0, 0, 0.8)" /><path d="M83.430000,-44.820000L83.430000,-31.180000 87.930000,-31.180000 87.930000,-30.430000 92.570000,-30.430000 92.570000,-31.180000 97.070000,-31.180000 97.070000,-44.820000 92.570000,-44.820000 92.570000,-45.570000 87.930000,-45.570000 87.930000,-44.820000Z" stroke="rgba(0, 0, 0, 0.8)" /><path d="M102.430000,-44.820000L102.430000,-31.180000 106.930000,-31.180000 106.930000,-30.430000 111.570000,-30.430000 111.570000,-31.180000 116.070000,-31.180000 116.070000,-44.820000 111.570000,-44.820000 111.570000,-45.570000 106.930000,-45.570000 106.930000,-44.820000Z" stroke="rgba(0, 0, 0, 0.8)" /><path d="M126.180000,-44.820000L126.180000,-31.180000 130.680000,-31.180000 130.680000,-30.430000 135.320000,-30.430000 135.320000,-31.180000 139.820000,-31.180000 139.820000,-44.820000 135.320000,-44.820000 135.320000,-45.570000 130.680000,-45.570000 130.680000,-44.820000Z" stroke="rgba(0, 0, 0, 0.8)" /><circle cx="-145.0" cy="-50.0" r="2.18" stroke="rgba(187, 0, 170, 0.8)" /><circle cx="-145.0" cy="50.0" r="2.18" stroke="rgba(187, 0, 170, 0.8)" /><circle cx="-48.3333333333" cy="-50.0" r="2.18" stroke="rgba(187, 0, 170, 0.8)" /><circle cx="-48.3333333333" cy="50.0" r="2.18" stroke="rgba(187, 0, 170, 0.8)" /><circle cx="48.3333333333" cy="-50.0" r="2.18" stroke="rgba(187, 0, 170, 0.8)" /><circle cx="48.3333333333" cy="50.0" r="2.18" stroke="rgba(187, 0, 170, 0.8)" /><circle cx="145.0" cy="-50.0" r="2.18" stroke="rgba(187, 0, 170, 0.8)" /><circle cx="145.0" cy="50.0" r="2.18" stroke="rgba(187, 0, 170, 0.8)" /><path d="M-142.500000,28.500000L-123.500000,28.500000 -123.500000,47.500000 -142.500000,47.500000Z" stroke="rgba(187, 0, 170, 0.8)" /><path d="M-123.500000,28.500000L-104.500000,28.500000 -104.500000,47.500000 -123.500000,47.500000Z" stroke="rgba(187, 0, 170, 0.8)" /><path d="M-104.500000,28.500000L-85.500000,28.500000 -85.500000,47.500000 -104.500000,47.500000Z" stroke="rgba(187, 0, 170, 0.8)" /><path d="M-85.500000,28.500000L-66.500000,28.500000 -66.500000,47.500000 -85.500000,47.500000Z" stroke="rgba(187, 0, 170, 0.8)" /><path d="M-66.500000,28.500000L-47.500000,28.500000 -47.500000,47.500000 -66.500000,47.500000Z" stroke="rgba(187, 0, 170, 0.8)" /><path d="M-47.500000,28.500000L-28.500000,28.500000 -28.500000,47.500000 -47.500000,47.500000Z" stroke="rgba(187, 0, 170, 0.8)" /><path d="M-28.500000,28.500000L-9.500000,28.500000 -9.500000,47.500000 -28.500000,47.500000Z" stroke="rgba(187, 0, 170, 0.8)" /><path d="M-9.500000,28.500000L9.500000,28.500000 9.500000,47.500000 -9.500000,47.500000Z" stroke="rgba(187, 0, 170, 0.8)" /><path d="M9.500000,28.500000L28.500000,28.500000 28.500000,47.500000 9.500000,47.500000Z" stroke="rgba(187, 0, 170, 0.8)" /><path d="M28.500000,28.500000L47.500000,28.500000 47.500000,47.500000 28.500000,47.500000Z" stroke="rgba(187, 0, 170, 0.8)" /><path d="M47.500000,28.500000L66.500000,28.500000 66.500000,47.500000 47.500000,47.500000Z" stroke="rgba(187, 0, 170, 0.8)" /><path d="M66.500000,28.500000L85.500000,28.500000 85.500000,47.500000 66.500000,47.500000Z" stroke="rgba(187, 0, 170, 0.8)" /><path d="M85.500000,28.500000L104.500000,28.500000 104.500000,47.500000 85.500000,47.500000Z" stroke="rgba(187, 0, 170, 0.8)" /><path d="M104.500000,28.500000L142.500000,28.500000 142.500000,47.500000 104.500000,47.500000Z" stroke="rgba(187, 0, 170, 0.8)" /><path d="M-142.500000,9.500000L-114.000000,9.500000 -114.000000,28.500000 -142.500000,28.500000Z" stroke="rgba(187, 0, 170, 0.8)" /><path d="M-114.000000,9.500000L-95.000000,9.500000 -95.000000,28.500000 -114.000000,28.500000Z" stroke="rgba(187, 0, 170, 0.8)" /><path d="M-95.000000,9.500000L-76.000000,9.500000 -76.000000,28.500000 -95.000000,28.500000Z" stroke="rgba(187, 0, 170, 0.8)" /><path d="M-76.000000,9.500000L-57.000000,9.500000 -57.000000,28.500000 -76.000000,28.500000Z" stroke="rgba(187, 0, 170, 0.8)" /><path d="M-57.000000,9.500000L-38.000000,9.500000 -38.000000,28.500000 -57.000000,28.500000Z" stroke="rgba(187, 0, 170, 0.8)" /><path d="M-38.000000,9.500000L-19.000000,9.500000 -19.000000,28.500000 -38.000000,28.500000Z" stroke="rgba(187, 0, 170, 0.8)" /><path d="M-19.000000,9.500000L0.000000,9.500000 0.000000,28.500000 -19.000000,28.500000Z" stroke="rgba(187, 0, 170, 0.8)" /><path d="M0.000000,9.500000L19.000000,9.500000 19.000000,28.500000 0.000000,28.500000Z" stroke="rgba(187, 0, 170, 0.8)" /><path d="M19.000000,9.500000L38.000000,9.500000 38.000000,28.500000 19.000000,28.500000Z" stroke="rgba(187, 0, 170, 0.8)" /><path d="M38.000000,9.500000L57.000000,9.500000 57.000000,28.500000 38.000000,28.500000Z" stroke="rgba(187, 0, 170, 0.8)" /><path d="M57.000000,9.500000L76.000000,9.500000 76.000000,28.500000 57.000000,28.500000Z" stroke="rgba(187, 0, 170, 0.8)" /><path d="M76.000000,9.500000L95.000000,9.500000 95.000000,28.500000 76.000000,28.500000Z" stroke="rgba(187, 0, 170, 0.8)" /><path d="M95.000000,9.500000L114.000000,9.500000 114.000000,28.500000 95.000000,28.500000Z" stroke="rgba(187, 0, 170, 0.8)" /><path d="M114.000000,9.500000L114.000000,28.500000 142.500000,28.500000 142.500000,-9.500000 118.750000,-9.500000 118.750000,9.500000Z" stroke="rgba(187, 0, 170, 0.8)" /><path d="M-142.500000,-9.500000L-109.250000,-9.500000 -109.250000,9.500000 -142.500000,9.500000Z" stroke="rgba(187, 0, 170, 0.8)" /><path d="M-109.250000,-9.500000L-90.250000,-9.500000 -90.250000,9.500000 -109.250000,9.500000Z" stroke="rgba(187, 0, 170, 0.8)" /><path d="M-90.250000,-9.500000L-71.250000,-9.500000 -71.250000,9.500000 -90.250000,9.500000Z" stroke="rgba(187, 0, 170, 0.8)" /><path d="M-71.250000,-9.500000L-52.250000,-9.500000 -52.250000,9.500000 -71.250000,9.500000Z" stroke="rgba(187, 0, 170, 0.8)" /><path d="M-52.250000,-9.500000L-33.250000,-9.500000 -33.250000,9.500000 -52.250000,9.500000Z" stroke="rgba(187, 0, 170, 0.8)" /><path d="M-33.250000,-9.500000L-14.250000,-9.500000 -14.250000,9.500000 -33.250000,9.500000Z" stroke="rgba(187, 0, 170, 0.8)" /><path d="M-14.250000,-9.500000L4.750000,-9.500000 4.750000,9.500000 -14.250000,9.500000Z" stroke="rgba(187, 0, 170, 0.8)" /><path d="M4.750000,-9.500000L23.750000,-9.500000 23.750000,9.500000 4.750000,9.500000Z" stroke="rgba(187, 0, 170, 0.8)" /><path d="M23.750000,-9.500000L42.750000,-9.500000 42.750000,9.500000 23.750000,9.500000Z" stroke="rgba(187, 0, 170, 0.8)" /><path d="M42.750000,-9.500000L61.750000,-9.500000 61.750000,9.500000 42.750000,9.500000Z" stroke="rgba(187, 0, 170, 0.8)" /><path d="M61.750000,-9.500000L80.750000,-9.500000 80.750000,9.500000 61.750000,9.500000Z" stroke="rgba(187, 0, 170, 0.8)" /><path d="M80.750000,-9.500000L99.750000,-9.500000 99.750000,9.500000 80.750000,9.500000Z" stroke="rgba(187, 0, 170, 0.8)" /><path d="M99.750000,-9.500000L118.750000,-9.500000 118.750000,9.500000 99.750000,9.500000Z" stroke="rgba(187, 0, 170, 0.8)" /><path d="M-142.500000,-28.500000L-118.750000,-28.500000 -118.750000,-9.500000 -142.500000,-9.500000Z" stroke="rgba(187, 0, 170, 0.8)" /><path d="M-118.750000,-28.500000L-99.750000,-28.500000 -99.750000,-9.500000 -118.750000,-9.500000Z" stroke="rgba(187, 0, 170, 0.8)" /><path d="M-99.750000,-28.500000L-80.750000,-28.500000 -80.750000,-9.500000 -99.750000,-9.500000Z" stroke="rgba(187, 0, 170, 0.8)" /><path d="M-80.750000,-28.500000L-61.750000,-28.500000 -61.750000,-9.500000 -80.750000,-9.500000Z" stroke="rgba(187, 0, 170, 0.8)" /><path d="M-61.750000,-28.500000L-42.750000,-28.500000 -42.750000,-9.500000 -61.750000,-9.500000Z" stroke="rgba(187, 0, 170, 0.8)" /><path d="M-42.750000,-28.500000L-23.750000,-28.500000 -23.750000,-9.500000 -42.750000,-9.500000Z" stroke="rgba(187, 0, 170, 0.8)" /><path d="M-23.750000,-28.500000L-4.750000,-28.500000 -4.750000,-9.500000 -23.750000,-9.500000Z" stroke="rgba(187, 0, 170, 0.8)" /><path d="M-4.750000,-28.500000L14.250000,-28.500000 14.250000,-9.500000 -4.750000,-9.500000Z" stroke="rgba(187, 0, 170, 0.8)" /><path d="M14.250000,-28.500000L33.250000,-28.500000 33.250000,-9.500000 14.250000,-9.500000Z" stroke="rgba(187, 0, 170, 0.8)" /><path d="M33.250000,-28.500000L52.250000,-28.500000 52.250000,-9.500000 33.250000,-9.500000Z" stroke="rgba(187, 0, 170, 0.8)" /><path d="M52.250000,-28.500000L71.250000,-28.500000 71.250000,-9.500000 52.250000,-9.500000Z" stroke="rgba(187, 0, 170, 0.8)" /><path d="M71.250000,-28.500000L90.250000,-28.500000 90.250000,-9.500000 71.250000,-9.500000Z" stroke="rgba(187, 0, 170, 0.8)" /><path d="M90.250000,-28.500000L123.500000,-28.500000 123.500000,-9.500000 90.250000,-9.500000Z" stroke="rgba(187, 0, 170, 0.8)" /><path d="M123.500000,-28.500000L142.500000,-28.500000 142.500000,-9.500000 123.500000,-9.500000Z" stroke="rgba(187, 0, 170, 0.8)" /><path d="M-109.250000,-47.500000L-85.500000,-47.500000 -85.500000,-28.500000 -109.250000,-28.500000Z" stroke="rgba(187, 0, 170, 0.8)" /><path d="M-85.500000,-47.500000L-61.750000,-47.500000 -61.750000,-28.500000 -85.500000,-28.500000Z" stroke="rgba(187, 0, 170, 0.8)" /><path d="M-61.750000,-47.500000L-19.000000,-47.500000 -19.000000,-28.500000 -61.750000,-28.500000Z" stroke="rgba(187, 0, 170, 0.8)" /><path d="M-19.000000,-47.500000L33.250000,-47.500000 33.250000,-28.500000 -19.000000,-28.500000Z" stroke="rgba(187, 0, 170, 0.8)" /><path d="M33.250000,-47.500000L57.000000,-47.500000 57.000000,-28.500000 33.250000,-28.500000Z" stroke="rgba(187, 0, 170, 0.8)" /><path d="M57.000000,-47.500000L76.000000,-47.500000 76.000000,-28.500000 57.000000,-28.500000Z" stroke="rgba(187, 0, 170, 0.8)" /><path d="M80.750000,-47.500000L99.750000,-47.500000 99.750000,-28.500000 80.750000,-28.500000Z" stroke="rgba(187, 0, 170, 0.8)" /><path d="M99.750000,-47.500000L118.750000,-47.500000 118.750000,-28.500000 99.750000,-28.500000Z" stroke="rgba(187, 0, 170, 0.8)" /><path d="M123.500000,-47.500000L142.500000,-47.500000 142.500000,-28.500000 123.500000,-28.500000Z" stroke="rgba(187, 0, 170, 0.8)" /><circle cx="-145.0" cy="-50.0" r="0.82" /><circle cx="-145.0" cy="50.0" r="0.82" /><circle cx="-48.3333333333" cy="-50.0" r="0.82" /><circle cx="-48.3333333333" cy="50.0" r="0.82" /><circle cx="48.3333333333" cy="-50.0" r="0.82" /><circle cx="48.3333333333" cy="50.0" r="0.82" /><circle cx="145.0" cy="-50.0" r="0.82" /><circle cx="145.0" cy="50.0" r="0.82" /></g></svg>