<?xml version='1.0' encoding='UTF-8'?>
<svg height="102.720000mm" viewBox="-146.360000 -51.360000 292.720000 102.720000" width="292.720000mm" xmlns="http://www.w3.org/2000/svg"><g fill="none" stroke="rgba(0, 0, 0, 0.8)" stroke-linejoin="round" stroke-width="0.36" transform="scale(1, -1)"><rect height="102.36" rx="3.18" ry="3.18" width="292.36" x="-146.18" y="-51.18" /><path d="M-139.820000,31.180000L-139.820000,44.820000 -135.320000,44.820000 -135.320000,45.570000 -130.680000,45.570000 -130.680000,44.820000 -126.180000,44.820000 -126.180000,31.180000 -130.680000,31.180000 -130.680000,30.430000 -135.320000,30.430000 -135.320000,31.180000Z" /><path d="M-120.820000,31.180000L-120.820000,44.820000 -116.320000,44.820000 -116.320000,45.570000 -111.680000,45.570000 -111.680000,44.820000 -107.180000,44.820000 -107.180000,31.180000 -111.680000,31.180000 -111.680000,30.430000 -116.320000,30.430000 -116.320000,31.180000Z" /><path d="M-101.820000,31.180000L-101.820000,44.820000 -97.320000,44.820000 -97.320000,45.570000 -92.680000,45.570000 -92.680000,44.820000 -88.180000,44.820000 -88.180000,31.180000 -92.680000,31.180000 -92.680000,30.430000 -97.320000,30.430000 -97.320000,31.180000Z" /><path d="M-82.820000,31.180000L-82.820000,44.820000 -78.320000,44.820000 -78.320000,45.570000 -73.680000,45.570000 -73.680000,44.820000 -69.180000,44.820000 -69.180000,31.180000 -73.680000,31.180000 -73.680000,30.430000 -78.320000,30.430000 -78.320000,31.180000Z" /><path d="M-63.820000,31.180000L-63.820000,44.820000 -59.320000,44.820000 -59.320000,45.570000 -54.680000,45.570000 -54.680000,44.820000 -50.180000,44.820000 -50.180000,31.180000 -54.680000,31.180000 -54.680000,30.430000 -59.320000,30.430000 -59.320000,31.180000Z" /><path d="M-44.820000,31.180000L-44.820000,44.820000 -40.320000,44.820000 -40.320000,45.570000 -35.680000,45.570000 -35.680000,44.820000 -31.180000,44.820000 -31.180000,31.180000 -35.680000,31.180000 -35.680000,30.430000 -40.320000,30.430000 -40.320000,31.180000Z" /><path d="M-25.820000,31.180000L-25.820000,44.820000 -21.320000,44.820000 -21.320000,45.570000 -16.680000,45.570000 -16.680000,44.820000 -12.180000,44.820000 -12.180000,31.180000 -16.680000,31.180000 -16.680000,30.430000 -21.320000,30.430000 -21.320000,31.180000Z" /><path d="M-6.820000,31.180000L-6.820000,44.820000 -2.320000,44.820000 -2.320000,45.570000 2.320000,45.570000 2.320000,44.820000 6.820000,44.820000 6.820000,31.180000 2.320000,31.180000 2.320000,30.430000 -2.320000,30.430000 -2.320000,31.180000Z" /><path d="M12.180000,31.180000L12.180000,44.820000 16.680000,44.820000 16.680000,45.570000 21.320000,45.570000 21.320000,44.820000 25.820000,44.820000 25.820000,31.180000 21.320000,31.180000 21.320000,30.430000 16.680000,30.430000 16.680000,31.180000Z" /><path d="M31.180000,31.180000L31.180000,44.820000 35.680000,44.820000 35.680000,45.570000 40.320000,45.570000 40.320000,44.820000 44.820000,44.820000 44.820000,31.180000 40.320000,31.180000 40.320000,30.430000 35.680000,30.430000 35.680000,31.180000Z" /><path d="M50.180000,31.180000L50.180000,44.820000 54.680000,44.820000 54.680000,45.570000 59.320000,45.570000 59.320000,44.820000 63.820000,44.820000 63.820000,31.180000 59.320000,31.180000 59.320000,30.430000 54.680000,30.430000 54.680000,31.180000Z" /><path d="M69.180000,31.180000L69.180000,44.820000 73.680000,44.820000 73.680000,45.570000 78.320000,45.570000 78.320000,44.820000 82.820000,44.820000 82.820000,31.180000 78.320000,31.180000 78.320000,30.430000 73.680000,30.430000 73.680000,31.180000Z" /><path d="M88.180000,31.180000L88.180000,44.820000 92.680000,44.820000 92.680000,45.570000 97.320000,45.570000 97.320000,44.820000 101.820000,44.820000 101.820000,31.180000 97.320000,31.180000 97.320000,30.430000 92.680000,30.430000 92.680000,31.180000Z" /><path d="M116.680000,31.180000L116.680000,44.820000 121.180000,44.820000 121.180000,45.570000 125.820000,45.570000 125.820000,44.820000 130.320000,44.820000 130.320000,31.180000 125.820000,31.180000 125.820000,30.430000 121.180000,30.430000 121.180000,31.180000Z" /><path d="M133.980000,29.680000L136.920000,29.680000 136.920000,44.820000 133.980000,44.820000Z" /><path d="M110.080000,29.680000L113.020000,29.680000 113.020000,44.820000 110.080000,44.820000Z" /><path d="M-135.070000,12.180000L-135.070000,25.820000 -130.570000,25.820000 -130.570000,26.570000 -125.930000,26.570000 -125.930000,25.820000 -121.430000,25.820000 -121.430000,12.180000 -125.930000,12.180000 -125.930000,11.430000 -130.570000,11.430000 -130.570000,12.180000Z" /><path d="M-111.320000,12.180000L-111.320000,25.820000 -106.820000,25.820000 -106.820000,26.570000 -102.180000,26.570000 -102.180000,25.820000 -97.680000,25.820000 -97.680000,12.180000 -102.180000,12.180000 -102.180000,11.430000 -106.820000,11.430000 -106.820000,12.180000Z" /><path d="M-92.320000,12.180000L-92.320000,25.820000 -87.820000,25.820000 -87.820000,26.570000 -83.180000,26.570000 -83.180000,25.820000 -78.680000,25.820000 -78.680000,12.180000 -83.180000,12.180000 -83.180000,11.430000 -87.820000,11.430000 -87.820000,12.180000Z" /><path d="M-73.320000,12.180000L-73.320000,25.820000 -68.820000,25.820000 -68.820000,26.570000 -64.180000,26.570000 -64.180000,25.820000 -59.680000,25.820000 -59.680000,12.180000 -64.180000,12.180000 -64.180000,11.430000 -68.820000,11.430000 -68.820000,12.180000Z" /><path d="M-54.320000,12.180000L-54.320000,25.820000 -49.820000,25.820000 -49.820000,26.570000 -45.180000,26.570000 -45.180000,25.820000 -40.680000,25.820000 -40.680000,12.180000 -45.180000,12.180000 -45.180000,11.430000 -49.820000,11.430000 -49.820000,12.180000Z" /><path d="M-35.320000,12.180000L-35.320000,25.820000 -30.820000,25.820000 -30.820000,26.570000 -26.180000,26.570000 -26.180000,25.820000 -21.680000,25.820000 -21.680000,12.180000 -26.180000,12.180000 -26.180000,11.430000 -30.820000,11.430000 -30.820000,12.180000Z" /><path d="M-16.320000,12.180000L-16.320000,25.820000 -11.820000,25.820000 -11.820000,26.570000 -7.180000,26.570000 -7.180000,25.820000 -2.680000,25.820000 -2.680000,12.180000 -7.180000,12.180000 -7.180000,11.430000 -11.820000,11.430000 -11.820000,12.180000Z" /><path d="M2.680000,12.180000L2.680000,25.820000 7.180000,25.820000 7.180000,26.570000 11.820000,26.570000 11.820000,25.820000 16.320000,25.820000 16.320000,12.180000 11.820000,12.180000 11.820000,11.430000 7.180000,11.430000 7.180000,12.180000Z" /><path d="M21.680000,12.180000L21.680000,25.820000 26.180000,25.820000 26.180000,26.570000 30.820000,26.570000 30.820000,25.820000 35.320000,25.820000 35.320000,12.180000 30.820000,12.180000 30.820000,11.430000 26.180000,11.430000 26.180000,12.180000Z" /><path d="M40.680000,12.180000L40.680000,25.820000 45.180000,25.820000 45.180000,26.570000 49.820000,26.570000 49.820000,25.820000 54.320000,25.820000 54.320000,12.180000 49.820000,12.180000 49.820000,11.430000 45.180000,11.430000 45.180000,12.180000Z" /><path d="M59.680000,12.180000L59.680000,25.820000 64.180000,25.820000 64.180000,26.570000 68.820000,26.570000 68.820000,25.820000 73.320000,25.820000 73.320000,12.180000 68.820000,12.180000 68.820000,11.430000 64.180000,11.430000 64.180000,12.180000Z" /><path d="M78.680000,12.180000L78.680000,25.820000 83.180000,25.820000 83.180000,26.570000 87.820000,26.570000 87.820000,25.820000 92.320000,25.820000 92.320000,12.180000 87.820000,12.180000 87.820000,11.430000 83.180000,11.430000 83.180000,12.180000Z" /><path d="M97.680000,12.180000L97.680000,25.820000 102.180000,25.820000 102.180000,26.570000 106.820000,26.570000 106.820000,25.820000 111.320000,25.820000 111.320000,12.180000 106.820000,12.180000 106.820000,11.430000 102.180000,11.430000 102.180000,12.180000Z" /><path d="M123.805000,16.320000L137.445000,16.320000 137.445000,11.820000 138.195000,11.820000 138.195000,7.180000 137.445000,7.180000 137.445000,2.680000 123.805000,2.680000 123.805000,7.180000 123.055000,7.180000 123.055000,11.820000 123.805000,11.820000Z" /><path d="M122.305000,-0.980000L122.305000,-3.920000 137.445000,-3.920000 137.445000,-0.980000Z" /><path d="M122.305000,22.920000L122.305000,19.980000 137.445000,19.980000 137.445000,22.920000Z" /><path d="M-132.695000,-6.820000L-132.695000,6.820000 -128.195000,6.820000 -128.195000,7.570000 -123.555000,7.570000 -123.555000,6.820000 -119.055000,6.820000 -119.055000,-6.820000 -123.555000,-6.820000 -123.555000,-7.570000 -128.195000,-7.570000 -128.195000,-6.820000Z" /><path d="M-106.570000,-6.820000L-106.570000,6.820000 -102.070000,6.820000 -102.070000,7.570000 -97.430000,7.570000 -97.430000,6.820000 -92.930000,6.820000 -92.930000,-6.820000 -97.430000,-6.820000 -97.430000,-7.570000 -102.070000,-7.570000 -102.070000,-6.820000Z" /><path d="M-87.570000,-6.820000L-87.570000,6.820000 -83.070000,6.820000 -83.070000,7.570000 -78.430000,7.570000 -78.430000,6.820000 -73.930000,6.820000 -73.930000,-6.820000 -78.430000,-6.820000 -78.430000,-7.570000 -83.070000,-7.570000 -83.070000,-6.820000Z" /><path d="M-68.570000,-6.820000L-68.570000,6.820000 -64.070000,6.820000 -64.070000,7.570000 -59.430000,7.570000 -59.430000,6.820000 -54.930000,6.820000 -54.930000,-6.820000 -59.430000,-6.820000 -59.430000,-7.570000 -64.070000,-7.570000 -64.070000,-6.820000Z" /><path d="M-49.570000,-6.820000L-49.570000,6.820000 -45.070000,6.820000 -45.070000,7.570000 -40.430000,7.570000 -40.430000,6.820000 -35.930000,6.820000 -35.930000,-6.820000 -40.430000,-6.820000 -40.430000,-7.570000 -45.070000,-7.570000 -45.070000,-6.820000Z" /><path d="M-30.570000,-6.820000L-30.570000,6.820000 -26.070000,6.820000 -26.070000,7.570000 -21.430000,7.570000 -21.430000,6.820000 -16.930000,6.820000 -16.930000,-6.820000 -21.430000,-6.820000 -21.430000,-7.570000 -26.070000,-7.570000 -26.070000,-6.820000Z" /><path d="M-11.570000,-6.820000L-11.570000,6.820000 -7.070000,6.820000 -7.070000,7.570000 -2.430000,7.570000 -2.430000,6.820000 2.070000,6.820000 2.070000,-6.820000 -2.430000,-6.820000 -2.430000,-7.570000 -7.070000,-7.570000 -7.070000,-6.820000Z" /><path d="M7.430000,-6.820000L7.430000,6.820000 11.930000,6.820000 11.930000,7.570000 16.570000,7.570000 16.570000,6.820000 21.070000,6.820000 21.070000,-6.820000 16.570000,-6.820000 16.570000,-7.570000 11.930000,-7.570000 11.930000,-6.820000Z" /><path d="M26.430000,-6.820000L26.430000,6.820000 30.930000,6.820000 30.930000,7.570000 35.570000,7.570000 35.570000,6.820000 40.070000,6.820000 40.070000,-6.820000 35.570000,-6.820000 35.570000,-7.570000 30.930000,-7.570000 30.930000,-6.820000Z" /><path d="M45.430000,-6.820000L45.430000,6.820000 49.930000,6.820000 49.930000,7.570000 54.570000,7.570000 54.570000,6.820000 59.070000,6.820000 59.070000,-6.820000 54.570000,-6.820000 54.570000,-7.570000 49.930000,-7.570000 49.930000,-6.820000Z" /><path d="M64.430000,-6.820000L64.430000,6.820000 68.930000,6.820000 68.930000,7.570000 73.570000,7.570000 73.570000,6.820000 78.070000,6.820000 78.070000,-6.820000 73.570000,-6.820000 73.570000,-7.570000 68.930000,-7.570000 68.930000,-6.820000Z" /><path d="M83.430000,-6.820000L83.430000,6.820000 87.930000,6.820000 87.930000,7.570000 92.570000,7.570000 92.570000,6.820000 97.070000,6.820000 97.070000,-6.820000 92.570000,-6.820000 92.570000,-7.570000 87.930000,-7.570000 87.930000,-6.820000Z" /><path d="M102.430000,-6.820000L102.430000,6.820000 106.930000,6.820000 106.930000,7.570000 111.570000,7.570000 111.570000,6.820000 116.070000,6.820000 116.070000,-6.820000 111.570000,-6.820000 111.570000,-7.570000 106.930000,-7.570000 106.930000,-6.820000Z" /><path d="M-137.445000,-25.820000L-137.445000,-12.180000 -132.945000,-12.180000 -132.945000,-11.430000 -128.305000,-11.430000 -128.305000,-12.180000 -123.805000,-12.180000 -123.805000,-25.820000 -128.305000,-25.820000 -128.305000,-26.570000 -132.945000,-26.570000 -132.945000,-25.820000Z" /><path d="M-116.070000,-25.820000L-116.070000,-12.180000 -111.570000,-12.180000 -111.570000,-11.430000 -106.930000,-11.430000 -106.930000,-12.180000 -102.430000,-12.180000 -102.430000,-25.820000 -106.930000,-25.820000 -106.930000,-26.570000 -111.570000,-26.570000 -111.570000,-25.820000Z" /><path d="M-97.070000,-25.820000L-97.070000,-12.180000 -92.570000,-12.180000 -92.570000,-11.430000 -87.930000,-11.430000 -87.930000,-12.180000 -83.430000,-12.180000 -83.430000,-25.820000 -87.930000,-25.820000 -87.930000,-26.570000 -92.570000,-26.570000 -92.570000,-25.820000Z" /><path d="M-78.070000,-25.820000L-78.070000,-12.180000 -73.570000,-12.180000 -73.570000,-11.430000 -68.930000,-11.430000 -68.930000,-12.180000 -64.430000,-12.180000 -64.430000,-25.820000 -68.930000,-25.820000 -68.930000,-26.570000 -73.570000,-26.570000 -73.570000,-25.820000Z" /><path d="M-59.070000,-25.820000L-59.070000,-12.180000 -54.570000,-12.180000 -54.570000,-11.430000 -49.930000,-11.430000 -49.930000,-12.180000 -45.430000,-12.180000 -45.430000,-25.820000 -49.930000,-25.820000 -49.930000,-26.570000 -54.570000,-26.570000 -54.570000,-25.820000Z" /><path d="M-40.070000,-25.820000L-40.070000,-12.180000 -35.570000,-12.180000 -35.570000,-11.430000 -30.930000,-11.430000 -30.930000,-12.180000 -26.430000,-12.180000 -26.430000,-25.820000 -30.930000,-25.820000 -30.930000,-26.570000 -35.570000,-26.570000 -35.570000,-25.820000Z" /><path d="M-21.070000,-25.820000L-21.070000,-12.180000 -16.570000,-12.180000 -16.570000,-11.430000 -11.930000,-11.430000 -11.930000,-12.180000 -7.430000,-12.180000 -7.430000,-25.820000 -11.930000,-25.820000 -11.930000,-26.570000 -16.570000,-26.570000 -16.570000,-25.820000Z" /><path d="M-2.070000,-25.820000L-2.070000,-12.180000 2.430000,-12.180000 2.430000,-11.430000 7.070000,-11.430000 7.070000,-12.180000 11.570000,-12.180000 11.570000,-25.820000 7.070000,-25.820000 7.070000,-26.570000 2.430000,-26.570000 2.430000,-25.820000Z" /><path d="M16.930000,-25.820000L16.930000,-12.180000 21.430000,-12.180000 21.430000,-11.430000 26.070000,-11.430000 26.070000,-12.180000 30.570000,-12.180000 30.570000,-25.820000 26.070000,-25.820000 26.070000,-26.570000 21.430000,-26.570000 21.430000,-25.820000Z" /><path d="M35.930000,-25.820000L35.930000,-12.180000 40.430000,-12.180000 40.430000,-11.430000 45.070000,-11.430000 45.070000,-12.180000 49.570000,-12.180000 49.570000,-25.820000 45.070000,-25.820000 45.070000,-26.570000 40.430000,-26.570000 40.430000,-25.820000Z" /><path d="M54.930000,-25.820000L54.930000,-12.180000 59.430000,-12.180000 59.430000,-11.430000 64.070000,-11.430000 64.070000,-12.180000 68.570000,-12.180000 68.570000,-25.820000 64.070000,-25.820000 64.070000,-26.570000 59.430000,-26.570000 59.430000,-25.820000Z" /><path d="M73.930000,-25.820000L73.930000,-12.180000 78.430000,-12.180000 78.430000,-11.430000 83.070000,-11.430000 83.070000,-12.180000 87.570000,-12.180000 87.570000,-25.820000 83.070000,-25.820000 83.070000,-26.570000 78.430000,-26.570000 78.430000,-25.820000Z" /><path d="M100.055000,-25.820000L100.055000,-12.180000 104.555000,-12.180000 104.555000,-11.430000 109.195000,-11.430000 109.195000,-12.180000 113.695000,-12.180000 113.695000,-25.820000 109.195000,-25.820000 109.195000,-26.570000 104.555000,-26.570000 104.555000,-25.820000Z" /><path d="M126.180000,-25.820000L126.180000,-12.180000 130.680000,-12.180000 130.680000,-11.430000 135.320000,-11.430000 135.320000,-12.180000 139.820000,-12.180000 139.820000,-25.820000 135.320000,-25.820000 135.320000,-26.570000 130.680000,-26.570000 130.680000,-25.820000Z" /><path d="M-104.195000,-44.820000L-104.195000,-31.180000 -99.695000,-31.180000 -99.695000,-30.430000 -95.055000,-30.430000 -95.055000,-31.180000 -90.555000,-31.180000 -90.555000,-44.820000 -95.055000,-44.820000 -95.055000,-45.570000 -99.695000,-45.570000 -99.695000,-44.820000Z" /><path d="M-80.445000,-44.820000L-80.445000,-31.180000 -75.945000,-31.180000 -75.945000,-30.430000 -71.305000,-30.430000 -71.305000,-31.180000 -66.805000,-31.180000 -66.805000,-44.820000 -71.305000,-44.820000 -71.305000,-45.570000 -75.945000,-45.570000 -75.945000,-44.820000Z" /><path d="M-47.195000,-44.820000L-47.195000,-31.180000 -42.695000,-31.180000 -42.695000,-30.430000 -38.055000,-30.430000 -38.055000,-31.180000 -33.555000,-31.180000 -33.555000,-44.820000 -38.055000,-44.820000 -38.055000,-45.570000 -42.695000,-45.570000 -42.695000,-44.820000Z" /><path d="M-29.895000,-46.320000L-26.955000,-46.320000 -26.955000,-31.180000 -29.895000,-31.180000Z" /><path d="M-53.795000,-46.320000L-50.855000,-46.320000 -50.855000,-31.180000 -53.795000,-31.180000Z" /><path d="M0.305000,-44.820000L0.305000,-31.180000 4.805000,-31.180000 4.805000,-30.430000 9.445000,-30.430000 9.445000,-31.180000 13.945000,-31.180000 13.945000,-44.820000 9.445000,-44.820000 9.445000,-45.570000 4.805000,-45.570000 4.805000,-44.820000Z" /><path d="M17.605000,-46.320000L20.545000,-46.320000 20.545000,-31.180000 17.605000,-31.180000Z" /><path d="M-6.295000,-46.320000L-3.355000,-46.320000 -3.355000,-31.180000 -6.295000,-31.180000Z" /><path d="M38.305000,-44.820000L38.305000,-31.180000 42.805000,-31.180000 42.805000,-30.430000 47.445000,-30.430000 47.445000,-31.180000 51.945000,-31.180000 51.945000,-44.820000 47.445000,-44.820000 47.445000,-45.570000 42.805000,-45.570000 42.805000,-44.820000Z" /><path d="M59.680000,-44.820000L59.680000,-31.180000 64.180000,-31.180000 64.180000,-30.430000 68.820000,-30.430000 68.820000,-31.180000 73.320000,-31.180000 73.320000,-44.820000 68.820000,-44.820000 68.820000,-45.570000 64.180000,-45.570000 64.180000,-44.820000Z" /><path d="M83.430000,-44.820000L83.430000,-31.180000 87.930000,-31.180000 87.930000,-30.430000 92.570000,-30.430000 92.570000,-31.180000 97.070000,-31.180000 97.070000,-44.820000 92.570000,-44.820000 92.570000,-45.570000 87.930000,-45.570000 87.930000,-44.820000Z" /><path d="M102.430000,-44.820000L102.430000,-31.180000 106.930000,-31.180000 106.930000,-30.430000 111.570000,-30.430000 111.570000,-31.180000 116.070000,-31.180000 116.070000,-44.820000 111.570000,-44.820000 111.570000,-45.570000 106.930000,-45.570000 106.930000,-44.820000Z" /><path d="M126.180000,-44.820000L126.180000,-31.180000 130.680000,-31.180000 130.680000,-30.430000 135.320000,-30.430000 135.320000,-31.180000 139.820000,-31.180000 139.820000,-44.820000 135.320000,-44.820000 135.320000,-45.570000 130.680000,-45.570000 130.680000,-44.820000Z" /><circle cx="-143.0" cy="-48.0" r="0.82" /><circle cx="-143.0" cy="48.0" r="0.82" /><circle cx="-47.6666666667" cy="-48.0" r="0.82" /><circle cx="-47.6666666667" cy="48.0" r="0.82" /><circle cx="47.6666666667" cy="-48.0" r="0.82" /><circle cx="47.6666666667" cy="48.0" r="0.82" /><circle cx="143.0" cy="-48.0" r="0.82" /><circle cx="143.0" cy="48.0" r="0.82" /></g></svg>