<?xml version='1.0' encoding='UTF-8'?>
<svg height="102.720000mm" viewBox="-146.360000 -51.360000 292.720000 102.720000" width="292.720000mm" xmlns="http://www.w3.org/2000/svg"><g fill="none" stroke="rgba(0, 0, 0, 0.8)" stroke-linejoin="round" stroke-width="0.36" transform="scale(1, -1)"><rect height="102.36" rx="3.18" ry="3.18" width="292.36" x="-146.18" y="-51.18" /><path d="M-139.820000,31.180000L-126.180000,31.180000 -126.180000,44.820000 -139.820000,44.820000Z" /><path d="M-120.820000,31.180000L-107.180000,31.180000 -107.180000,44.820000 -120.820000,44.820000Z" /><path d="M-101.820000,31.180000L-88.180000,31.180000 -88.180000,44.820000 -101.820000,44.820000Z" /><path d="M-82.820000,31.180000L-69.180000,31.180000 -69.180000,44.820000 -82.820000,44.820000Z" /><path d="M-63.820000,31.180000L-50.180000,31.180000 -50.180000,44.820000 -63.820000,44.820000Z" /><path d="M-44.820000,31.180000L-31.180000,31.180000 -31.180000,44.820000 -44.820000,44.820000Z" /><path d="M-25.820000,31.180000L-12.180000,31.180000 -12.180000,44.820000 -25.820000,44.820000Z" /><path d="M-6.820000,31.180000L6.820000,31.180000 6.820000,44.820000 -6.820000,44.820000Z" /><path d="M12.180000,31.180000L25.820000,31.180000 25.820000,44.820000 12.180000,44.820000Z" /><path d="M31.180000,31.180000L44.820000,31.180000 44.820000,44.820000 31.180000,44.820000Z" /><path d="M50.180000,31.180000L63.820000,31.180000 63.820000,44.820000 50.180000,44.820000Z" /><path d="M69.180000,31.180000L82.820000,31.180000 82.820000,44.820000 69.180000,44.820000Z" /><path d="M88.180000,31.180000L101.820000,31.180000 101.820000,44.820000 88.180000,44.820000Z" /><path d="M116.680000,31.180000L130.320000,31.180000 130.320000,44.820000 116.680000,44.820000Z" /><path d="M133.980000,30.430000L136.920000,30.430000 136.920000,44.070000 133.980000,44.070000Z" /><path d="M110.080000,30.430000L113.020000,30.430000 113.020000,44.070000 110.080000,44.070000Z" /><path d="M-135.070000,12.180000L-121.430000,12.180000 -121.430000,25.820000 -135.070000,25.820000Z" /><path d="M-111.320000,12.180000L-97.680000,12.180000 -97.680000,25.820000 -111.320000,25.820000Z" /><path d="M-92.320000,12.180000L-78.680000,12.180000 -78.680000,25.820000 -92.320000,25.820000Z" /><path d="M-73.320000,12.180000L-59.680000,12.180000 -59.680000,25.820000 -73.320000,25.820000Z" /><path d="M-54.320000,12.180000L-40.680000,12.180000 -40.680000,25.820000 -54.320000,25.820000Z" /><path d="M-35.320000,12.180000L-21.680000,12.180000 -21.680000,25.820000 -35.320000,25.820000Z" /><path d="M-16.320000,12.180000L-2.680000,12.180000 -2.680000,25.820000 -16.320000,25.820000Z" /><path d="M2.680000,12.180000L16.320000,12.180000 16.320000,25.820000 2.680000,25.820000Z" /><path d="M21.680000,12.180000L35.320000,12.180000 35.320000,25.820000 21.680000,25.820000Z" /><path d="M40.680000,12.180000L54.320000,12.180000 54.320000,25.820000 40.680000,25.820000Z" /><path d="M59.680000,12.180000L73.320000,12.180000 73.320000,25.820000 59.680000,25.820000Z" /><path d="M78.680000,12.180000L92.320000,12.180000 92.320000,25.820000 78.680000,25.820000Z" /><path d="M97.680000,12.180000L111.320000,12.180000 111.320000,25.820000 97.680000,25.820000Z" /><path d="M123.805000,16.320000L123.805000,2.680000 137.445000,2.680000 137.445000,16.320000Z" /><path d="M123.055000,-0.980000L123.055000,-3.920000 136.695000,-3.920000 136.695000,-0.980000Z" /><path d="M123.055000,22.920000L123.055000,19.980000 136.695000,19.980000 136.695000,22.920000Z" /><path d="M-132.695000,-6.820000L-119.055000,-6.820000 -119.055000,6.820000 -132.695000,6.820000Z" /><path d="M-106.570000,-6.820000L-92.930000,-6.820000 -92.930000,6.820000 -106.570000,6.820000Z" /><path d="M-87.570000,-6.820000L-73.930000,-6.820000 -73.930000,6.820000 -87.570000,6.820000Z" /><path d="M-68.570000,-6.820000L-54.930000,-6.820000 -54.930000,6.820000 -68.570000,6.820000Z" /><path d="M-49.570000,-6.820000L-35.930000,-6.820000 -35.930000,6.820000 -49.570000,6.820000Z" /><path d="M-30.570000,-6.820000L-16.930000,-6.820000 -16.930000,6.820000 -30.570000,6.820000Z" /><path d="M-11.570000,-6.820000L2.070000,-6.820000 2.070000,6.820000 -11.570000,6.820000Z" /><path d="M7.430000,-6.820000L21.070000,-6.820000 21.070000,6.820000 7.430000,6.820000Z" /><path d="M26.430000,-6.820000L40.070000,-6.820000 40.070000,6.820000 26.430000,6.820000Z" /><path d="M45.430000,-6.820000L59.070000,-6.820000 59.070000,6.820000 45.430000,6.820000Z" /><path d="M64.430000,-6.820000L78.070000,-6.820000 78.070000,6.820000 64.430000,6.820000Z" /><path d="M83.430000,-6.820000L97.070000,-6.820000 97.070000,6.820000 83.430000,6.820000Z" /><path d="M102.430000,-6.820000L116.070000,-6.820000 116.070000,6.820000 102.430000,6.820000Z" /><path d="M-137.445000,-25.820000L-123.805000,-25.820000 -123.805000,-12.180000 -137.445000,-12.180000Z" /><path d="M-116.070000,-25.820000L-102.430000,-25.820000 -102.430000,-12.180000 -116.070000,-12.180000Z" /><path d="M-97.070000,-25.820000L-83.430000,-25.820000 -83.430000,-12.180000 -97.070000,-12.180000Z" /><path d="M-78.070000,-25.820000L-64.430000,-25.820000 -64.430000,-12.180000 -78.070000,-12.180000Z" /><path d="M-59.070000,-25.820000L-45.430000,-25.820000 -45.430000,-12.180000 -59.070000,-12.180000Z" /><path d="M-40.070000,-25.820000L-26.430000,-25.820000 -26.430000,-12.180000 -40.070000,-12.180000Z" /><path d="M-21.070000,-25.820000L-7.430000,-25.820000 -7.430000,-12.180000 -21.070000,-12.180000Z" /><path d="M-2.070000,-25.820000L11.570000,-25.820000 11.570000,-12.180000 -2.070000,-12.180000Z" /><path d="M16.930000,-25.820000L30.570000,-25.820000 30.570000,-12.180000 16.930000,-12.180000Z" /><path d="M35.930000,-25.820000L49.570000,-25.820000 49.570000,-12.180000 35.930000,-12.180000Z" /><path d="M54.930000,-25.820000L68.570000,-25.820000 68.570000,-12.180000 54.930000,-12.180000Z" /><path d="M73.930000,-25.820000L87.570000,-25.820000 87.570000,-12.180000 73.930000,-12.180000Z" /><path d="M100.055000,-25.820000L113.695000,-25.820000 113.695000,-12.180000 100.055000,-12.180000Z" /><path d="M126.180000,-25.820000L139.820000,-25.820000 139.820000,-12.180000 126.180000,-12.180000Z" /><path d="M-104.195000,-44.820000L-90.555000,-44.820000 -90.555000,-31.180000 -104.195000,-31.180000Z" /><path d="M-80.445000,-44.820000L-66.805000,-44.820000 -66.805000,-31.180000 -80.445000,-31.180000Z" /><path d="M-47.195000,-44.820000L-33.555000,-44.820000 -33.555000,-31.180000 -47.195000,-31.180000Z" /><path d="M-29.895000,-45.570000L-26.955000,-45.570000 -26.955000,-31.930000 -29.895000,-31.930000Z" /><path d="M-53.795000,-45.570000L-50.855000,-45.570000 -50.855000,-31.930000 -53.795000,-31.930000Z" /><path d="M0.305000,-44.820000L13.945000,-44.820000 13.945000,-31.180000 0.305000,-31.180000Z" /><path d="M17.605000,-45.570000L20.545000,-45.570000 20.545000,-31.930000 17.605000,-31.930000Z" /><path d="M-6.295000,-45.570000L-3.355000,-45.570000 -3.355000,-31.930000 -6.295000,-31.930000Z" /><path d="M38.305000,-44.820000L51.945000,-44.820000 51.945000,-31.180000 38.305000,-31.180000Z" /><path d="M59.680000,-44.820000L73.320000,-44.820000 73.320000,-31.180000 59.680000,-31.180000Z" /><path d="M83.430000,-44.820000L97.070000,-44.820000 97.070000,-31.180000 83.430000,-31.180000Z" /><path d="M102.430000,-44.820000L116.070000,-44.820000 116.070000,-31.180000 102.430000,-31.180000Z" /><path d="M126.180000,-44.820000L139.820000,-44.820000 139.820000,-31.180000 126.180000,-31.180000Z" /><circle cx="-143.0" cy="-48.0" r="0.82" /><circle cx="-143.0" cy="48.0" r="0.82" /><circle cx="-47.6666666667" cy="-48.0" r="0.82" /><circle cx="-47.6666666667" cy="48.0" r="0.82" /><circle cx="47.6666666667" cy="-48.0" r="0.82" /><circle cx="47.6666666667" cy="48.0" r="0.82" /><circle cx="143.0" cy="-48.0" r="0.82" /><circle cx="143.0" cy="48.0" r="0.82" /></g></svg>