<?xml version="1.0" encoding="UTF-8"?>
<svg xmlns="http://www.w3.org/2000/svg" xmlns:xlink="http://www.w3.org/1999/xlink" clip-rule="evenodd" stroke-miterlimit="10" viewBox="0 0 750.00 200.00">
    <desc>SVG generated by Lineform</desc>
    <defs/>
    <g/>
    <g/>
    <g/>
    <g/>
    <g>
        <path d="M 2.01 10.10 C 1.90 11.05 3.17 130.86 5.62 133.26 C 8.08 135.66 31.78 138.94 34.49 136.50 L 37.58 121.04 L 22.68 118.51 C 22.68 118.51 20.26 10.64 19.58 7.28 C 18.90 3.93 7.58 3.84 3.09 7.89 Z M 3.09 7.89 " fill="#008000" stroke="#000000" stroke-width="1.00"/>
        <path d="M 56.41 5.60 C 52.93 5.66 50.35 5.02 46.68 7.02 C 45.03 7.92 44.38 11.82 44.02 12.55 C 44.00 12.65 44.54 22.23 46.59 23.50 C 48.14 24.46 62.29 24.88 63.72 23.60 C 65.33 22.16 63.88 8.75 63.22 8.07 C 61.86 6.66 59.88 5.53 56.41 5.60 Z M 45.94 30.88 C 45.17 32.95 47.23 132.06 49.28 134.07 C 51.74 136.46 75.44 139.72 78.16 137.28 C 79.18 132.14 80.20 126.99 81.22 121.85 C 76.26 121.00 71.30 120.16 66.34 119.32 C 66.34 119.32 65.19 32.07 63.94 30.88 C 62.36 29.38 51.94 30.88 45.94 30.88 Z M 45.94 30.88 " fill="#008000" stroke="#000000" stroke-width="1.00"/>
        <path d="M 106.31 4.00 C 102.83 4.07 98.90 5.07 96.65 7.10 L 95.56 9.28 C 95.54 9.45 95.78 24.25 95.84 30.19 C 87.90 30.32 81.26 30.55 80.59 31.10 L 80.65 31.78 C 79.82 33.79 77.47 42.98 79.03 44.13 C 79.57 44.53 87.15 44.88 96.06 45.16 C 96.54 80.75 95.81 127.04 98.22 129.32 C 103.13 133.96 126.50 139.10 136.07 134.70 C 140.85 132.50 140.59 115.16 135.97 117.67 C 129.03 121.45 118.79 119.09 115.94 117.81 C 115.94 117.81 115.28 78.37 114.37 45.47 C 125.82 45.52 136.19 45.32 136.62 44.50 C 137.64 42.56 139.42 31.89 137.43 30.97 C 136.57 30.57 125.64 30.25 113.87 30.13 C 113.62 22.30 113.26 7.17 113.12 6.47 C 112.78 4.79 109.78 3.94 106.31 4.00 Z M 106.31 4.00 " fill="#008000" stroke="#000000" stroke-width="1.00"/>
        <path d="M 175.97 30.40 C 175.60 30.82 160.01 29.38 150.83 41.81 C 142.39 53.23 143.14 69.24 143.38 85.24 C 143.62 100.71 144.28 119.99 152.57 129.12 C 159.35 136.60 176.08 136.64 184.59 136.24 C 189.18 136.03 211.98 130.34 214.12 128.69 C 216.27 127.04 212.75 116.67 212.51 115.07 C 212.27 113.46 183.59 131.32 167.05 121.09 C 161.02 117.36 161.38 97.76 161.86 95.83 C 162.35 93.90 211.85 95.24 215.00 91.40 C 218.16 87.57 218.85 48.20 210.49 39.91 C 200.89 30.41 198.51 31.18 184.58 30.60 Z M 197.21 49.33 C 201.51 55.77 201.04 78.10 198.58 80.23 C 196.13 82.36 164.17 83.84 162.50 81.61 C 161.19 79.86 160.36 57.07 165.59 51.23 C 171.09 45.08 187.90 43.16 195.68 47.90 Z M 188.89 44.67 " fill="#008000" stroke="#000000" stroke-width="1.00"/>
        <path d="M 327.60 30.98 C 325.66 35.16 326.57 47.43 328.03 48.82 C 329.08 49.82 373.99 48.05 375.33 50.02 C 376.77 52.12 377.59 74.19 375.66 76.49 C 374.06 78.41 338.22 73.53 328.58 81.77 C 318.49 90.39 318.94 123.24 325.18 130.02 C 333.05 138.56 361.55 137.16 370.80 135.26 C 378.49 133.69 380.56 130.25 386.59 130.10 C 391.24 129.98 397.85 136.38 401.65 136.58 C 404.86 136.76 415.13 128.51 414.68 124.75 C 414.06 119.49 397.94 118.79 395.38 113.72 C 392.82 108.66 395.51 35.16 393.28 32.25 C 391.39 29.78 331.50 30.10 330.26 30.88 Z M 376.71 93.61 L 376.71 117.60 C 376.71 117.60 375.34 120.85 371.56 122.49 C 366.55 124.66 345.74 126.45 340.55 118.14 C 336.28 111.30 337.68 96.68 345.16 92.81 C 354.73 87.87 365.46 90.45 376.23 90.17 Z M 380.23 97.89 " fill="#008000" stroke="#000000" stroke-width="1.00"/>
    </g>
    <g>
        <path d="M 244.45 30.21 C 241.02 30.41 235.51 29.95 235.02 31.07 C 233.94 33.50 232.53 132.90 234.50 135.52 C 236.21 137.80 248.15 136.63 250.65 136.02 C 253.15 135.40 251.50 108.53 252.13 107.03 C 252.76 105.54 262.07 106.28 264.19 106.72 C 266.51 107.20 276.44 117.88 278.58 120.96 C 281.17 124.69 296.87 139.87 298.65 139.96 C 301.98 140.14 311.50 134.46 310.68 127.66 C 310.42 125.54 294.92 116.43 292.19 113.20 C 288.06 108.32 279.82 103.15 282.42 102.16 C 300.00 95.43 308.96 79.46 309.11 66.76 C 309.38 43.56 286.25 31.44 276.40 30.96 C 267.59 30.53 253.98 33.24 252.21 31.24 C 251.33 30.24 247.89 30.01 244.45 30.21 Z M 280.02 47.27 C 284.99 49.72 291.21 54.34 291.15 67.93 C 291.10 79.95 280.34 87.63 272.07 89.77 C 263.55 91.97 254.73 90.63 252.92 89.67 C 250.46 88.37 252.31 51.11 252.93 46.81 C 253.09 45.73 262.22 44.80 271.03 44.99 Z M 271.03 44.99 " fill="#008000" stroke="#000000" stroke-width="1.00"/>
        <path d="M 434.91 4.64 C 431.44 4.71 427.50 5.71 425.25 7.74 L 424.16 9.92 C 424.14 10.09 424.38 24.89 424.44 30.83 C 416.50 30.96 409.86 31.19 409.19 31.74 L 409.25 32.42 C 408.43 34.42 406.08 43.62 407.63 44.77 C 408.17 45.17 415.75 45.52 424.66 45.80 C 425.14 81.39 424.41 127.68 426.82 129.96 C 431.73 134.60 455.11 139.73 464.68 135.34 C 469.45 133.14 469.20 115.80 464.57 118.31 C 457.63 122.09 447.39 119.73 444.54 118.45 C 444.54 118.45 443.88 79.01 442.97 46.11 C 454.42 46.16 464.80 45.96 465.22 45.14 C 466.24 43.20 468.02 32.53 466.04 31.61 C 465.17 31.21 454.24 30.89 442.47 30.77 C 442.22 22.94 441.86 7.81 441.72 7.11 C 441.38 5.43 438.39 4.58 434.91 4.64 Z M 434.91 4.64 " fill="#008000" stroke="#000000" stroke-width="1.00"/>
    </g>
    <g>
        <path d="M 480.19 31.11 C 480.19 31.11 495.69 29.04 497.26 30.73 C 498.83 32.42 494.35 106.76 501.75 117.32 C 509.19 127.93 537.82 124.09 542.20 113.55 C 543.05 111.51 540.31 34.08 542.58 31.91 C 545.00 29.60 559.60 29.79 561.07 31.07 C 562.54 32.35 559.66 110.40 560.81 115.05 C 561.93 119.57 573.02 120.85 573.33 124.18 C 573.56 126.55 569.35 136.44 565.58 136.63 C 562.09 136.81 554.67 130.01 549.16 130.03 C 544.35 130.05 544.68 133.29 538.37 135.05 C 529.69 137.48 493.27 140.92 484.84 125.23 C 476.32 109.36 478.59 36.55 479.71 32.51 Z M 479.81 32.00 " fill="#008000" stroke="#000000" stroke-width="1.00"/>
        <path d="M 593.89 29.64 C 590.45 29.84 584.95 29.38 584.45 30.50 C 583.37 32.93 581.97 132.33 583.93 134.95 C 585.64 137.24 597.58 136.06 600.08 135.45 C 602.59 134.83 600.94 107.96 601.57 106.46 C 602.20 104.97 611.50 105.71 613.63 106.15 C 615.95 106.63 625.88 117.31 628.02 120.39 C 630.61 124.12 646.31 139.30 648.09 139.40 C 651.41 139.57 660.94 133.89 660.11 127.09 C 659.86 124.97 644.36 115.86 641.63 112.64 C 637.49 107.75 629.26 102.59 631.86 101.59 C 649.44 94.86 658.39 78.89 658.54 66.20 C 658.82 42.99 635.68 30.87 625.83 30.39 C 617.03 29.97 603.41 32.68 601.65 30.67 C 600.76 29.67 597.32 29.44 593.89 29.64 Z M 629.46 46.70 C 634.43 49.15 640.64 53.77 640.59 67.36 C 640.54 79.38 629.78 87.06 621.50 89.20 C 612.98 91.41 604.16 90.06 602.36 89.10 C 599.90 87.80 601.75 50.54 602.37 46.24 C 602.52 45.16 611.65 44.23 620.47 44.42 Z M 620.47 44.42 " fill="#008000" stroke="#000000" stroke-width="1.00"/>
        <path d="M 738.22 36.98 C 729.10 27.85 693.25 28.24 682.26 41.44 C 674.74 50.48 673.23 69.33 673.47 85.32 C 673.70 100.79 672.12 122.29 683.86 130.89 C 694.36 138.57 725.49 137.58 734.75 132.74 C 738.75 130.64 742.77 129.55 743.18 127.77 C 743.59 126.02 740.73 118.26 738.93 117.69 C 737.27 117.16 732.56 118.04 730.14 120.61 C 725.22 125.83 698.74 124.71 694.32 119.61 C 691.01 115.80 691.54 103.44 692.02 101.51 C 692.50 99.58 743.41 95.36 746.57 91.52 C 749.72 87.69 749.19 47.93 739.42 37.72 Z M 727.97 51.28 C 730.77 54.77 731.04 78.49 728.58 80.62 C 726.12 82.75 694.75 87.99 692.29 86.67 C 690.49 85.38 690.44 55.26 695.69 49.30 C 700.50 43.84 723.05 43.25 727.33 50.50 Z M 718.97 44.76 " fill="#008000" stroke="#000000" stroke-width="1.00"/>
    </g>
</svg>