<svg xmlns="http://www.w3.org/2000/svg"
	xmlns:xlink="http://www.w3.org/1999/xlink"
	viewBox="32.4 17.4 577 792"
	width="640.89" height="841.827">
<g id="scene">
    <set attributeName="opacity" to="1" 
		    fill="freeze" begin="btn1.click"/>
    <set attributeName="opacity" to="0" 
		    fill="freeze" begin="btn2.click"/>
    <set attributeName="opacity" to="0" 
		    fill="freeze" begin="scene.load"/>
<g>
<path fill="#9fff3f" stroke="none" d="M 609.445 809.382L 609.445 17.3818L 32.4451 17.3818L 32.4451 809.382L 609.445 809.382z"/>
</g>
<g>
<path fill="none" stroke-width="6" stroke="#00ff7f" d="M 67.3572 58.6241L 67.4451 51.3818L 343.445 47.3818L 341.445 61.3818C 341.445 61.3818 322.25 75.3788 322.778 103.382C 323.445 138.715 335.445 137.382 329.445 171.382C 323.445 205.382 299.445 223.382 299.445 223.382L 79.4451 221.382C 79.4451 221.382 43.4451 163.382 61.4451 137.382C 79.4451 111.382 88.1118 115.382 87.4451 97.3818C 86.2339 64.6764 67.3572 58.6241 67.3572 58.6241z"/>
<path fill="none" stroke-width="6" stroke="#00ff7f" d="M 123.024 221.433C 120.339 221.433 121.234 228.044 118.549 228.044C 118.549 241.267 117.207 254.491 123.919 267.714C 130.63 279.284 127.946 295.813 125.261 310.689C 122.576 325.565 106.021 353.664 106.021 353.664L 91.7031 353.664C 91.7031 353.664 83.6492 350.358 79.6223 347.053C 78.28 345.4 82.3069 340.441 82.3069 335.482C 93.0455 337.135 101.099 323.912 103.784 315.648C 106.469 304.077 109.153 290.854 101.099 277.631C 98.4147 271.019 93.0455 266.061 91.7031 259.449C 90.3608 246.226 91.7031 234.656 91.7031 221.433L 123.024 221.433z"/>
<path fill="none" stroke-width="6" stroke="#00ff7f" d="M 261.168 223.016C 263.853 223.016 262.958 229.628 265.643 229.628C 265.643 242.851 266.985 256.074 260.273 269.297C 253.562 280.867 256.246 297.396 258.931 312.272C 261.616 327.148 278.171 355.247 278.171 355.247L 292.489 355.247C 292.489 355.247 300.543 351.942 304.57 348.636C 305.912 346.983 301.885 342.024 301.885 337.066C 291.147 338.719 283.093 325.495 280.408 317.231C 277.724 305.661 275.039 292.438 283.093 279.214C 285.777 272.603 291.147 267.644 292.489 261.033C 293.831 247.809 292.489 236.239 292.489 223.016L 261.168 223.016z"/>
<path fill="none" stroke-width="4" stroke="#00ff7f" d="M 325.987 59.2985C 325.987 59.2985 312.278 70.3818 310.778 85.3818C 309.278 100.382 308.82 104.173 308.82 104.173L 212.82 105.507L 213.487 60.7985L 325.987 59.2985z"/>
<path fill="none" stroke-width="4" stroke="#00ff7f" d="M 86.4504 59.236C 86.4504 59.236 100.159 70.3193 101.659 85.3193C 103.159 100.319 103.034 104.028 103.034 104.028L 199.034 105.361L 198.95 60.736L 86.4504 59.236z"/>
<path fill="none" stroke-width="4" stroke="#00ff7f" d="M 94.1118 116.048L 310.112 117.382C 310.112 117.382 316.778 128.715 318.112 141.382C 319.445 154.048 316.778 162.715 316.778 162.715L 63.4451 152.715C 63.4451 152.715 69.4451 140.048 76.1118 133.382C 82.7784 126.715 94.1118 116.048 94.1118 116.048z"/>
<path fill="none" stroke-width="4" stroke="#00ff7f" d="M 67.4451 164.715C 67.4451 164.715 69.4451 179.382 75.4451 190.715C 81.4451 202.048 84.1118 212.048 84.1118 212.048L 296.112 214.048C 296.112 214.048 304.778 200.048 309.445 190.048C 314.112 180.048 314.112 174.048 314.112 174.048L 67.4451 164.715z"/>
<path fill="none" stroke-width="4" stroke="#00ff7f" d="M 147.112 89.729C 151.538 89.729 155.126 86.141 155.126 81.7151C 155.126 77.2892 151.538 73.7013 147.112 73.7013C 142.686 73.7013 139.098 77.2892 139.098 81.7151C 139.098 86.141 142.686 89.729 147.112 89.729z"/>
<path fill="none" stroke-width="4" stroke="#00ff7f" d="M 140.487 143.042C 144.913 143.042 148.501 139.453 148.501 135.028C 148.501 130.602 144.913 127.014 140.487 127.014C 136.061 127.014 132.473 130.602 132.473 135.028C 132.473 139.453 136.061 143.042 140.487 143.042z"/>
<path fill="none" stroke-width="4" stroke="#00ff7f" d="M 132.466 196.354C 136.892 196.354 140.48 192.766 140.48 188.34C 140.48 183.914 136.892 180.326 132.466 180.326C 128.04 180.326 124.452 183.914 124.452 188.34C 124.452 192.766 128.04 196.354 132.466 196.354z"/>
<path fill="none" stroke-width="4" stroke="#00ff7f" d="M 264.174 89.4582C 268.6 89.4582 272.188 85.8702 272.188 81.4443C 272.188 77.0184 268.6 73.4304 264.174 73.4304C 259.748 73.4304 256.16 77.0184 256.16 81.4443C 256.16 85.8702 259.748 89.4582 264.174 89.4582z"/>
<path fill="none" stroke-width="4" stroke="#00ff7f" d="M 258.112 147.382C 262.538 147.382 266.126 143.794 266.126 139.368C 266.126 134.942 262.538 131.354 258.112 131.354C 253.686 131.354 250.098 134.942 250.098 139.368C 250.098 143.794 253.686 147.382 258.112 147.382z"/>
<path fill="none" stroke-width="4" stroke="#00ff7f" d="M 256.237 198.84C 260.663 198.84 264.251 195.252 264.251 190.826C 264.251 186.4 260.663 182.812 256.237 182.812C 251.811 182.812 248.223 186.4 248.223 190.826C 248.223 195.252 251.811 198.84 256.237 198.84z"/>
<path fill="none" stroke-width="4" stroke="#00ff7f" d="M 88.1118 340.715C 87.4451 344.048 85.4451 346.715 84.7784 350.048"/>
<path fill="none" stroke-width="4" stroke="#00ff7f" d="M 93.4451 342.715C 92.7784 345.382 92.1118 348.048 90.7784 350.048"/>
<path fill="none" stroke-width="4" stroke="#00ff7f" d="M 107.445 224.715C 108.112 232.715 106.778 240.715 106.778 248.715"/>
<path fill="none" stroke-width="4" stroke="#00ff7f" d="M 93.4451 249.382C 100.778 250.048 107.445 248.715 114.778 248.715"/>
<path fill="none" stroke-width="4" stroke="#00ff7f" d="M 280.778 224.048C 281.445 232.048 278.778 239.382 279.445 247.382"/>
<path fill="none" stroke-width="4" stroke="#00ff7f" d="M 266.112 248.048C 274.778 247.382 282.778 248.048 291.445 248.715"/>
<path fill="none" stroke-width="4" stroke="#00ff7f" d="M 117.445 278.048C 117.445 285.382 117.445 292.048 117.445 299.382"/>
<path fill="none" stroke-width="4" stroke="#00ff7f" d="M 271.445 268.715C 267.445 274.048 262.778 278.715 264.112 286.048"/>
<path fill="none" stroke-width="6" stroke="#00ff7f" d="M 385.445 179.382L 555.383 181.632L 553.383 195.632L 383.445 195.382L 385.445 179.382z"/>
<path fill="none" stroke-width="6" stroke="#00ff7f" d="M 440.445 177.382C 440.445 177.382 450.445 155.382 442.445 125.882C 436.189 102.814 429.945 61.3818 441.945 47.3818C 453.945 33.3818 464.945 29.3817 482.445 32.3818C 499.945 35.3818 510.945 45.3818 510.945 45.3818C 510.945 45.3818 531.902 31.2648 543.445 32.3818C 558.945 33.8818 571.945 41.3818 573.945 55.3818C 575.945 69.3818 565.445 88.3818 558.445 113.382C 551.445 138.382 550.445 178.382 550.445 178.382"/>
<path fill="none" stroke-width="4" stroke="#00ff7f" d="M 455.445 178.382C 455.445 178.382 455.445 161.382 456.445 142.382C 457.445 123.382 445.945 102.382 445.445 87.8818C 444.994 74.8033 442.895 65.1149 450.945 54.3818C 456.945 46.3818 464.472 42.8838 478.445 43.8818C 492.445 44.8818 508.945 58.3818 508.945 58.3818C 508.945 58.3818 519.363 52.1992 526.945 48.8818C 534.945 45.3818 541.422 43.4762 551.445 45.8818C 563.945 48.8818 562.531 65.916 556.945 79.8818C 551.945 92.3818 545.445 111.882 543.445 127.882C 541.445 143.882 539.445 178.382 539.445 178.382"/>
<path fill="none" stroke-width="4" stroke="#00ff7f" d="M 490.445 180.382L 503.945 55.8818"/>
<path fill="none" stroke-width="4" stroke="#00ff7f" d="M 517.445 55.3818L 500.945 179.382"/>
<path fill="none" stroke-width="4" stroke="#00ff7f" d="M 498.945 91.8818C 498.945 91.8818 486.08 106.747 475.945 107.882C 468.71 108.692 448.945 100.882 448.945 100.882"/>
<path fill="none" stroke-width="4" stroke="#00ff7f" d="M 513.117 90.5434C 513.117 90.5434 520.81 105.247 530.945 106.382C 538.18 107.192 551.445 99.3818 551.445 99.3818"/>
<path fill="none" stroke-width="6" stroke="#00ff7f" d="M 412.445 196.382C 411.445 199.382 384.445 305.382 384.445 305.382L 393.445 304.382L 431.445 196.382"/>
<path fill="none" stroke-width="6" stroke="#00ff7f" d="M 540.445 196.382C 541.445 199.382 555.987 310.048 555.987 310.048L 544.987 310.048L 518.445 197.382"/>
<path fill="none" stroke-width="6" stroke="#00ff7f" d="M 330.445 306.382L 597.445 310.882L 597.445 322.882C 597.445 322.882 586.945 321.382 579.445 322.882C 571.945 324.382 565.945 333.382 565.945 333.382C 565.945 333.382 556.945 322.882 541.945 322.882C 526.945 322.882 516.445 327.382 516.445 327.382C 516.445 327.382 502.945 319.882 486.445 319.882C 469.945 319.882 465.445 331.882 465.445 331.882C 465.445 331.882 442.945 318.382 426.445 318.382C 409.945 318.382 403.945 328.882 403.945 328.882C 403.945 328.882 379.945 313.882 369.445 315.382C 358.945 316.882 343.945 325.882 343.945 325.882C 343.945 325.882 342.445 313.882 334.945 315.382C 327.445 316.882 330.445 306.382 330.445 306.382z"/>
<path fill="none" stroke-width="6" stroke="#00ff7f" d="M 433.945 322.882C 433.945 322.882 439.945 460.882 435.445 489.382C 430.945 517.882 417.683 515.569 399.683 518.569C 381.683 521.569 368.183 508.069 359.183 514.069C 350.183 520.069 350.183 541.069 350.183 541.069L 399.683 539.569C 399.683 539.569 441.683 530.569 446.183 520.069L 448.945 517.882C 453.445 528.382 495.445 537.382 495.445 537.382L 544.945 538.882C 544.945 538.882 544.945 517.882 535.945 511.882C 526.945 505.882 513.445 519.382 495.445 516.382C 477.445 513.382 463.945 522.382 459.445 493.882C 454.945 465.382 469.945 327.382 469.945 327.382"/>
<path fill="none" stroke-width="4" stroke="#00ff7f" d="M 441.445 322.882L 442.945 465.382"/>
<path fill="none" stroke-width="4" stroke="#00ff7f" d="M 453.445 327.382L 448.945 463.882"/>
<path fill="none" stroke-width="4" stroke="#00ff7f" d="M 436.945 465.382L 456.445 465.382"/>
<path fill="none" stroke-width="4" stroke="#00ff7f" d="M 358.945 538.882C 358.945 538.882 357.445 529.882 363.445 525.382C 369.445 520.882 378.445 516.382 378.445 516.382"/>
<path fill="none" stroke-width="4" stroke="#00ff7f" d="M 372.445 528.382C 372.445 528.382 364.945 529.882 364.945 537.382"/>
<path fill="none" stroke-width="4" stroke="#00ff7f" d="M 517.945 514.882C 517.945 514.882 523.945 508.882 529.945 517.882C 535.945 526.882 535.945 538.882 535.945 538.882"/>
<path fill="none" stroke-width="6" stroke="#00ff7f" d="M 31.4451 363.382L 315.445 359.382L 315.445 689.382L 285.445 691.382C 285.445 691.382 291.445 683.382 289.445 663.382C 287.445 643.382 285.445 641.382 265.445 643.382C 245.445 645.382 241.445 657.382 241.445 657.382L 229.445 659.382C 229.445 659.382 245.445 639.382 183.445 639.382C 121.445 639.382 63.4451 641.382 61.4451 655.382C 59.4451 669.382 49.4451 655.382 49.4451 655.382C 49.4451 655.382 47.4451 635.382 39.4451 637.382"/>
<path fill="none" stroke-width="4" stroke="#00ff7f" d="M 31.4451 373.382L 76.9451 373.319L 73.9451 420.319L 30.4451 422.382"/>
<path fill="none" stroke-width="4" stroke="#00ff7f" d="M 86.5076 373.132L 84.5076 420.132L 184.57 420.132L 186.57 372.132L 86.5076 373.132z"/>
<path fill="none" stroke-width="4" stroke="#00ff7f" d="M 193.445 372.382L 193.445 417.382L 304.445 420.382L 305.445 370.382L 193.445 372.382z"/>
<path fill="none" stroke-width="4" stroke="#00ff7f" d="M 32.4451 430.382L 129.445 428.382L 127.445 470.382L 31.4451 471.382"/>
<path fill="none" stroke-width="4" stroke="#00ff7f" d="M 135.445 429.382L 133.445 470.382L 302.445 476.382L 300.445 430.382L 135.445 429.382z"/>
<path fill="none" stroke-width="4" stroke="#00ff7f" d="M 33.4451 481.382L 299.445 483.382L 299.445 540.382L 30.4451 536.382"/>
<path fill="none" stroke-width="4" stroke="#00ff7f" d="M 32.4451 544.382L 298.445 548.382L 300.445 621.382L 32.4451 618.382"/>
<path fill="none" stroke-width="4" stroke="#00ff7f" d="M 134.445 405.66C 139.131 405.66 142.93 402.177 142.93 397.882C 142.93 393.586 139.131 390.104 134.445 390.104C 129.759 390.104 125.96 393.586 125.96 397.882C 125.96 402.177 129.759 405.66 134.445 405.66z"/>
<path fill="none" stroke-width="4" stroke="#00ff7f" d="M 217.445 457.382C 222.131 457.382 225.93 453.899 225.93 449.604C 225.93 445.308 222.131 441.825 217.445 441.825C 212.759 441.825 208.96 445.308 208.96 449.604C 208.96 453.899 212.759 457.382 217.445 457.382z"/>
<path fill="none" stroke-width="4" stroke="#00ff7f" d="M 214.82 519.694C 219.506 519.694 223.305 516.212 223.305 511.916C 223.305 507.62 219.506 504.138 214.82 504.138C 210.134 504.138 206.335 507.62 206.335 511.916C 206.335 516.212 210.134 519.694 214.82 519.694z"/>
<path fill="none" stroke-width="4" stroke="#00ff7f" d="M 214.695 592.569C 219.381 592.569 223.18 589.087 223.18 584.791C 223.18 580.495 219.381 577.013 214.695 577.013C 210.009 577.013 206.21 580.495 206.21 584.791C 206.21 589.087 210.009 592.569 214.695 592.569z"/>
<path fill="none" stroke-width="4" stroke="#00ff7f" d="M 45.4451 459.382C 50.1313 459.382 53.9304 455.899 53.9304 451.604C 53.9304 447.308 50.1313 443.825 45.4451 443.825C 40.7589 443.825 36.9598 447.308 36.9598 451.604C 36.9598 455.899 40.7589 459.382 45.4451 459.382z"/>
<path fill="none" stroke-width="4" stroke="#00ff7f" d="M 46.4451 518.382C 51.1313 518.382 54.9304 514.899 54.9304 510.604C 54.9304 506.308 51.1313 502.825 46.4451 502.825C 41.7589 502.825 37.9598 506.308 37.9598 510.604C 37.9598 514.899 41.7589 518.382 46.4451 518.382z"/>
<path fill="none" stroke-width="4" stroke="#00ff7f" d="M 45.4451 586.382C 50.1313 586.382 53.9304 582.899 53.9304 578.604C 53.9304 574.308 50.1313 570.825 45.4451 570.825C 40.7589 570.825 36.9598 574.308 36.9598 578.604C 36.9598 582.899 40.7589 586.382 45.4451 586.382z"/>
<path fill="none" stroke-width="4" stroke="#00ff7f" d="M 248.695 404.597C 253.381 404.597 257.18 401.115 257.18 396.819C 257.18 392.524 253.381 389.041 248.695 389.041C 244.009 389.041 240.21 392.524 240.21 396.819C 240.21 401.115 244.009 404.597 248.695 404.597z"/>
<path fill="none" stroke-width="6" stroke="#00ff7f" d="M 609.445 543.382L 325.445 543.382L 329.445 810.382"/>
<path fill="none" stroke-width="4" stroke="#00ff7f" d="M 332.445 554.382L 334.445 588.382L 399.633 590.382L 399.445 554.382L 332.445 554.382z"/>
<path fill="none" stroke-width="4" stroke="#00ff7f" d="M 407.445 554.382L 407.445 589.382L 464.445 590.382L 464.445 554.382L 407.445 554.382z"/>
<path fill="none" stroke-width="4" stroke="#00ff7f" d="M 473.445 554.382L 473.445 589.382L 531.883 589.382L 530.883 555.382L 473.445 554.382z"/>
<path fill="none" stroke-width="4" stroke="#00ff7f" d="M 537.445 555.382L 595.57 555.382L 593.57 590.382L 537.445 590.382L 537.445 555.382z"/>
<path fill="none" stroke-width="4" stroke="#00ff7f" d="M 608.445 555.382L 601.445 555.382L 601.445 589.382L 608.445 592.382"/>
<path fill="none" stroke-width="4" stroke="#00ff7f" d="M 336.445 595.382L 504.445 595.382L 502.445 647.382L 334.445 647.382L 336.445 595.382z"/>
<path fill="none" stroke-width="4" stroke="#00ff7f" d="M 609.445 650.382L 512.445 649.382L 512.445 597.382L 609.445 599.382"/>
<path fill="none" stroke-width="4" stroke="#00ff7f" d="M 609.445 657.382L 336.445 655.382L 335.445 723.382L 608.445 725.382"/>
<path fill="none" stroke-width="4" stroke="#00ff7f" d="M 608.445 733.382L 335.445 733.382L 338.445 795.382L 611.445 795.382"/>
<path fill="none" stroke-width="4" stroke="#00ff7f" d="M 364.445 580.453C 368.35 580.453 371.516 577.287 371.516 573.382C 371.516 569.477 368.35 566.311 364.445 566.311C 360.54 566.311 357.374 569.477 357.374 573.382C 357.374 577.287 360.54 580.453 364.445 580.453z"/>
<path fill="none" stroke-width="4" stroke="#00ff7f" d="M 366.374 632.453C 370.279 632.453 373.445 629.287 373.445 625.382C 373.445 621.477 370.279 618.311 366.374 618.311C 362.469 618.311 359.303 621.477 359.303 625.382C 359.303 629.287 362.469 632.453 366.374 632.453z"/>
<path fill="none" stroke-width="4" stroke="#00ff7f" d="M 363.999 704.078C 367.904 704.078 371.07 700.912 371.07 697.007C 371.07 693.102 367.904 689.936 363.999 689.936C 360.094 689.936 356.928 693.102 356.928 697.007C 356.928 700.912 360.094 704.078 363.999 704.078z"/>
<path fill="none" stroke-width="4" stroke="#00ff7f" d="M 365.561 768.578C 369.467 768.578 372.633 765.412 372.633 761.507C 372.633 757.602 369.467 754.436 365.561 754.436C 361.656 754.436 358.49 757.602 358.49 761.507C 358.49 765.412 361.656 768.578 365.561 768.578z"/>
<path fill="none" stroke-width="4" stroke="#00ff7f" d="M 470.374 627.453C 474.279 627.453 477.445 624.287 477.445 620.382C 477.445 616.477 474.279 613.311 470.374 613.311C 466.469 613.311 463.303 616.477 463.303 620.382C 463.303 624.287 466.469 627.453 470.374 627.453z"/>
<path fill="none" stroke-width="4" stroke="#00ff7f" d="M 540.445 630.382C 544.35 630.382 547.516 627.216 547.516 623.311C 547.516 619.406 544.35 616.24 540.445 616.24C 536.54 616.24 533.374 619.406 533.374 623.311C 533.374 627.216 536.54 630.382 540.445 630.382z"/>
<path fill="none" stroke-width="4" stroke="#00ff7f" d="M 436.374 579.453C 440.279 579.453 443.445 576.287 443.445 572.382C 443.445 568.477 440.279 565.311 436.374 565.311C 432.469 565.311 429.303 568.477 429.303 572.382C 429.303 576.287 432.469 579.453 436.374 579.453z"/>
<path fill="none" stroke-width="4" stroke="#00ff7f" d="M 503.499 579.515C 507.404 579.515 510.57 576.349 510.57 572.444C 510.57 568.539 507.404 565.373 503.499 565.373C 499.594 565.373 496.428 568.539 496.428 572.444C 496.428 576.349 499.594 579.515 503.499 579.515z"/>
<path fill="none" stroke-width="4" stroke="#00ff7f" d="M 568.061 581.015C 571.967 581.015 575.133 577.849 575.133 573.944C 575.133 570.039 571.967 566.873 568.061 566.873C 564.156 566.873 560.99 570.039 560.99 573.944C 560.99 577.849 564.156 581.015 568.061 581.015z"/>
<path fill="none" stroke-width="6" stroke="#00ff7f" d="M 32.4451 695.382L 317.445 695.382L 315.445 711.382L 31.4451 712.382"/>
<path fill="none" stroke-width="6" stroke="#00ff7f" d="M 273.445 713.382L 284.445 809.382"/>
<path fill="none" stroke-width="6" stroke="#00ff7f" d="M 273.445 809.382L 248.445 713.382"/>
<path fill="none" stroke-width="6" stroke="#00ff7f" d="M 45.4451 713.382L 31.4451 767.382"/>
</g>
<g>
<path fill="#ffdfbf" stroke="none" d="M 286.778 330.048C 286.778 330.048 331.445 308.715 354.112 315.382C 376.778 322.048 408.112 337.382 410.112 360.715C 412.112 384.048 416.112 406.048 404.778 430.048C 393.445 454.048 378.112 474.715 346.778 478.048C 315.445 481.382 281.445 483.382 273.445 469.382C 265.445 455.382 265.445 450.715 265.445 450.715L 250.778 426.048C 250.778 426.048 251.445 396.048 260.112 373.382C 268.778 350.715 286.778 330.048 286.778 330.048z"/>
<path fill="#ff007f" stroke="none" d="M 241.778 413.382L 296.445 392.048L 302.778 400.048L 240.778 424.048L 241.778 413.382z"/>
<path fill="#ffffff" stroke="none" d="M 299.445 388.048L 315.445 390.048L 306.112 398.048L 299.445 388.048z"/>
<path fill="#ff0000" stroke="none" d="M 297.445 445.382C 297.445 445.382 290.778 457.382 295.445 461.382C 300.112 465.382 309.445 466.048 314.112 462.715C 318.778 459.382 320.112 448.048 320.112 448.048L 297.445 445.382z"/>
<path fill="#00ff00" stroke="none" d="M 289.445 330.715C 289.445 330.715 300.112 338.715 303.445 340.715C 306.778 342.715 310.778 351.382 316.112 353.382C 321.445 355.382 329.445 361.382 327.445 366.715C 325.445 372.048 315.445 380.715 308.778 380.715C 302.112 380.715 280.778 383.382 272.778 382.715C 264.778 382.048 257.445 382.715 257.445 382.715C 257.445 382.715 262.778 358.715 270.112 349.382C 277.445 340.048 289.445 330.715 289.445 330.715z"/>
<path fill="#ff007f" stroke="none" d="M 355.112 628.048L 323.445 662.048L 440.445 668.882L 434.945 648.382L 441.445 639.882L 435.445 630.882C 435.445 630.882 425.945 631.882 426.445 634.382C 426.945 636.882 431.945 644.382 431.945 644.382L 425.445 658.882C 425.445 658.882 406.945 660.382 402.445 658.382C 397.945 656.382 355.112 628.048 355.112 628.048z"/>
<path fill="#ff007f" stroke="none" d="M 366.945 612.382C 366.945 612.382 373.945 615.882 371.945 620.382C 369.945 624.882 360.945 628.382 359.945 624.882C 358.945 621.382 358.945 616.382 360.445 614.882C 361.945 613.382 366.945 612.382 366.945 612.382z"/>
</g>
<g>
<path fill="none" stroke-width="6" stroke="#007fff" d="M 250.843 421.014C 251.587 432.73 263.991 443.564 267.445 457.382C 269.445 467.382 285.445 475.382 293.445 477.382C 311.445 481.382 331.445 481.382 349.445 477.382C 371.445 473.382 391.445 461.382 399.445 441.382C 415.445 405.382 423.445 361.382 393.445 333.382C 389.445 327.382 383.445 327.382 377.445 323.382C 349.009 304.424 293.445 317.382 275.445 343.382C 261.607 363.37 257.973 385.7 252.766 409.494"/>
<path fill="none" stroke-width="6" stroke="#007fff" d="M 273.445 473.382C 257.445 525.382 245.445 577.382 229.445 629.382C 227.445 635.382 219.445 661.382 215.445 667.382"/>
<path fill="none" stroke-width="6" stroke="#007fff" d="M 77.4451 665.382C 115.445 673.382 153.445 665.382 191.445 669.382C 263.445 677.382 323.445 667.382 407.445 673.382C 491.445 679.382 513.445 687.382 567.445 691.382"/>
<path fill="none" stroke-width="6" stroke="#007fff" d="M 251.445 537.382C 261.445 551.382 265.445 567.382 275.445 581.382C 293.445 605.382 351.445 585.382 363.445 611.382"/>
<path fill="none" stroke-width="6" stroke="#007fff" d="M 261.445 505.382C 299.445 545.382 393.445 586.882 429.445 628.882"/>
<path fill="none" stroke-width="6" stroke="#007fff" d="M 322.945 661.882C 334.945 649.882 355.445 627.382 355.445 627.382C 355.445 627.382 380.445 645.382 400.445 657.382C 404.445 659.382 419.945 660.382 425.945 660.382"/>
<path fill="none" stroke-width="6" stroke="#007fff" d="M 319.945 661.882L 439.445 668.382L 437.049 645.786L 431.174 645.661L 423.945 665.882"/>
<path fill="none" stroke-width="6" stroke="#007fff" d="M 433.883 631.561C 437.788 631.561 440.954 634.727 440.954 638.632C 440.954 642.537 437.788 645.703 433.883 645.703C 429.977 645.703 426.811 642.537 426.811 638.632C 426.811 634.727 429.977 631.561 433.883 631.561z"/>
<path fill="none" stroke-width="6" stroke="#007fff" d="M 365.945 612.102C 369.85 612.102 373.016 615.268 373.016 619.173C 373.016 623.079 369.85 626.245 365.945 626.245C 362.04 626.245 358.874 623.079 358.874 619.173C 358.874 615.268 362.04 612.102 365.945 612.102z"/>
<path fill="none" stroke-width="6" stroke="#007fff" d="M 283.445 437.382C 300.778 450.048 333.445 449.382 351.445 443.382"/>
<path fill="none" stroke-width="6" stroke="#007fff" d="M 297.445 447.382C 299.445 453.382 293.445 459.382 299.445 463.382C 311.445 467.382 323.445 463.382 319.445 447.382"/>
<path fill="none" stroke-width="6" stroke="#007fff" d="M 347.445 395.382C 351.445 401.382 349.445 409.382 351.445 417.382"/>
<path fill="none" stroke-width="6" stroke="#007fff" d="M 385.445 395.382C 385.445 403.382 385.445 411.382 389.445 419.382"/>
<path fill="none" stroke-width="6" stroke="#007fff" d="M 248.778 380.715C 252.112 380.715 255.445 381.382 258.112 380.048C 266.112 375.382 274.778 372.715 280.112 364.048C 283.445 358.048 288.112 352.715 289.445 345.382C 290.112 341.382 289.445 336.715 290.778 332.715"/>
<path fill="none" stroke-width="6" stroke="#007fff" d="M 276.112 382.048C 282.778 375.382 290.112 368.715 296.778 361.382C 301.445 354.715 303.445 346.715 303.445 338.715"/>
<path fill="none" stroke-width="6" stroke="#007fff" d="M 308.112 367.382C 311.445 362.715 315.445 358.048 316.778 352.048"/>
<path fill="none" stroke-width="6" stroke="#007fff" d="M 244.112 411.382C 264.692 411.382 300.112 387.382 300.112 387.382L 317.445 389.382L 306.112 399.382C 306.112 399.382 289.445 407.382 280.112 410.715C 268.112 415.382 256.112 420.715 242.778 422.715C 242.112 419.382 239.445 416.048 240.778 412.715C 241.445 412.048 243.445 411.382 244.112 411.382z"/>
<path fill="none" stroke-width="6" stroke="#007fff" d="M 296.778 388.715L 302.778 399.382"/>
<path fill="none" stroke-width="4" stroke="#007fff" d="M 450.04 583.271C 436.933 585.013 431.333 600.51 435.876 611.228C 437.429 617.369 449.125 618.731 453.431 614.041C 456.302 610.915 456.183 603.211 453.194 598.634C 453.171 597.093 447.335 597.182 444.44 598.768C 444.44 598.768 444.488 601.849 444.511 603.39"/>
<path fill="none" stroke-width="4" stroke="#007fff" d="M 481.691 598.384C 497.742 596.843 505.038 576.811 497.742 567.565C 494.824 562.942 486.069 566.024 478.773 566.024C 478.773 570.647 474.395 576.811 478.773 581.434C 481.691 582.975 486.069 582.975 488.987 581.434C 488.987 581.434 488.987 578.352 488.987 576.811"/>
<path fill="none" stroke-width="4" stroke="#007fff" d="M 513.935 615.478C 510.15 612.825 504.679 607.207 501.742 608.711C 493.344 609.952 488.742 619.2 487.077 626.943C 485.412 634.686 495.92 638.489 502.228 642.912C 505.579 638.133 510.191 634.239 510.181 628.885C 509.757 626.806 505.548 622.073 502.187 621.498C 500.087 621.808 498.836 626.277 497.16 628.667"/>
<path fill="none" stroke-width="4" stroke="#007fff" d="M 403.02 653.106C 411.755 639.251 416.228 633.285 412.112 624.048C 405.937 612.373 395.416 634.588 397.649 639.598C 399.881 644.608 404.216 633.969 405.368 634.372"/>
</g>
</g>
<g>
    <animateTransform attributeName="transform" type="scale"
            additive="replace" fill="freeze" 
            values="1.0; 0.2" begin="btn1.click" dur="1"/>
    <animateTransform attributeName="transform" type="scale"
            additive="replace" fill="freeze" 
            values="0.2; 1.0" begin="btn2.click" dur="1"/>
<g>
<g>
<path fill="#ff9f3f" stroke-width="6" stroke="#000000" d="M 500.195 212.259C 539.247 212.259 570.906 180.6 570.906 141.548C 570.906 102.497 539.247 70.8378 500.195 70.8378C 461.143 70.8378 429.484 102.497 429.484 141.548C 429.484 180.6 461.143 212.259 500.195 212.259z"/>
<path fill="#ff9f3f" stroke-width="6" stroke="#000000" d="M 500.195 761.259C 539.247 761.259 570.906 729.6 570.906 690.548C 570.906 651.497 539.247 619.838 500.195 619.838C 461.143 619.838 429.484 651.497 429.484 690.548C 429.484 729.6 461.143 761.259 500.195 761.259z"/>
<path fill="#ff9f3f" stroke-width="6" stroke="#000000" d="M 500.195 486.759C 539.247 486.759 570.906 455.1 570.906 416.048C 570.906 376.997 539.247 345.338 500.195 345.338C 461.143 345.338 429.484 376.997 429.484 416.048C 429.484 455.1 461.143 486.759 500.195 486.759z"/>
</g>
<g>
<path fill="#ff9f3f" stroke-width="6" stroke="#000000" d="M 141.695 761.259C 180.747 761.259 212.406 729.6 212.406 690.548C 212.406 651.497 180.747 619.838 141.695 619.838C 102.643 619.838 70.9844 651.497 70.9844 690.548C 70.9844 729.6 102.643 761.259 141.695 761.259z"/>
<path fill="#ff9f3f" stroke-width="6" stroke="#000000" d="M 141.695 212.259C 180.747 212.259 212.406 180.6 212.406 141.548C 212.406 102.497 180.747 70.8378 141.695 70.8378C 102.643 70.8378 70.9844 102.497 70.9844 141.548C 70.9844 180.6 102.643 212.259 141.695 212.259z"/>
<path fill="#ff9f3f" stroke-width="6" stroke="#000000" d="M 141.695 486.759C 180.747 486.759 212.406 455.1 212.406 416.048C 212.406 376.997 180.747 345.338 141.695 345.338C 102.643 345.338 70.9844 376.997 70.9844 416.048C 70.9844 455.1 102.643 486.759 141.695 486.759z"/>
</g>
<g>
<path fill="#ff9f3f" stroke-width="6" stroke="#000000" d="M 320.945 349.509C 359.997 349.509 391.656 317.85 391.656 278.798C 391.656 239.747 359.997 208.088 320.945 208.088C 281.893 208.088 250.234 239.747 250.234 278.798C 250.234 317.85 281.893 349.509 320.945 349.509z"/>
<path fill="#ff9f3f" stroke-width="6" stroke="#000000" d="M 320.945 624.009C 359.997 624.009 391.656 592.35 391.656 553.298C 391.656 514.247 359.997 482.588 320.945 482.588C 281.893 482.588 250.234 514.247 250.234 553.298C 250.234 592.35 281.893 624.009 320.945 624.009z"/>
</g>
</g>
</g>
</svg>