<svg xmlns="http://www.w3.org/2000/svg"
	xmlns:xlink="http://www.w3.org/1999/xlink"
	viewBox="28.9 16.2 577 792"
	width="632.131" height="850.131">
<g id="scene">
    <set attributeName="opacity" to="1" 
		    fill="freeze" begin="btn1.click"/>
    <set attributeName="opacity" to="0" 
		    fill="freeze" begin="btn2.click"/>
    <set attributeName="opacity" to="0" 
		    fill="freeze" begin="scene.load"/>
<g>
<path fill="#7fbfff" stroke="none" d="M 605.927 808.204L 605.927 16.2042L 28.9266 16.2042L 28.9266 808.204L 605.927 808.204z"/>
</g>
<g>
<path fill="none" stroke-width="5" stroke="#ff0000" d="M 29.9267 44.2042L 605.927 212.204"/>
<path fill="none" stroke-width="5" stroke="#ff0000" d="M 27.9267 26.2042L 605.927 362.204"/>
<path fill="none" stroke-width="4" stroke="#7f7fff" d="M 355.927 112.848C 382.873 112.848 404.717 92.9028 404.717 68.3001C 404.717 43.6974 382.873 23.7524 355.927 23.7524C 328.981 23.7524 307.136 43.6974 307.136 68.3001C 307.136 92.9028 328.981 112.848 355.927 112.848z"/>
<path fill="none" stroke-width="3" stroke="#7f7fff" d="M 355.927 112.848C 377.483 112.848 394.959 92.9028 394.959 68.3001C 394.959 43.6974 377.483 23.7524 355.927 23.7524C 334.37 23.7524 316.894 43.6974 316.894 68.3001C 316.894 92.9028 334.37 112.848 355.927 112.848z"/>
<path fill="none" stroke-width="3" stroke="#7f7fff" d="M 355.927 112.848C 372.094 112.848 385.201 92.9028 385.201 68.3001C 385.201 43.6974 372.094 23.7524 355.927 23.7524C 339.759 23.7524 326.652 43.6974 326.652 68.3001C 326.652 92.9028 339.759 112.848 355.927 112.848z"/>
<path fill="none" stroke-width="3" stroke="#7f7fff" d="M 355.927 112.848C 365.627 112.848 373.492 92.9028 373.492 68.3001C 373.492 43.6974 365.627 23.7524 355.927 23.7524C 346.226 23.7524 338.362 43.6974 338.362 68.3001C 338.362 92.9028 346.226 112.848 355.927 112.848z"/>
<path fill="none" stroke-width="3" stroke="#7f7fff" d="M 355.927 112.848C 360.292 112.848 363.831 92.9028 363.831 68.3001C 363.831 43.6974 360.292 23.7524 355.927 23.7524C 351.562 23.7524 348.023 43.6974 348.023 68.3001C 348.023 92.9028 351.562 112.848 355.927 112.848z"/>
<path fill="none" stroke-width="3" stroke="#7f7fff" d="M 400.474 68.3001C 400.474 46.7434 380.529 29.2677 355.927 29.2677C 331.324 29.2677 311.379 46.7434 311.379 68.3001C 311.379 89.8568 331.324 107.333 355.927 107.333C 380.529 107.333 400.474 89.8568 400.474 68.3001z"/>
<path fill="none" stroke-width="3" stroke="#7f7fff" d="M 400.474 68.3001C 400.474 52.1326 380.529 39.0258 355.927 39.0258C 331.324 39.0258 311.379 52.1326 311.379 68.3001C 311.379 84.4677 331.324 97.5744 355.927 97.5744C 380.529 97.5744 400.474 84.4677 400.474 68.3001z"/>
<path fill="none" stroke-width="3" stroke="#7f7fff" d="M 400.474 68.3001C 400.474 58.5995 380.529 50.7354 355.927 50.7354C 331.324 50.7354 311.379 58.5995 311.379 68.3001C 311.379 78.0007 331.324 85.8649 355.927 85.8649C 380.529 85.8649 400.474 78.0007 400.474 68.3001z"/>
<path fill="none" stroke-width="3" stroke="#7f7fff" d="M 400.474 68.3001C 400.474 63.9349 380.529 60.396 355.927 60.396C 331.324 60.396 311.379 63.9349 311.379 68.3001C 311.379 72.6654 331.324 76.2042 355.927 76.2042C 380.529 76.2042 400.474 72.6654 400.474 68.3001z"/>
<path fill="#bfffff" stroke="none" d="M 27.9267 408.204L 339.927 76.2042L 348.26 75.8709L 348.593 84.8709L 27.9267 584.204L 27.9267 408.204z"/>
<path fill="#bfffff" stroke="none" d="M 429.927 808.204L 382.927 82.8709L 373.26 84.5375L 387.927 810.204"/>
<path fill="#ffbfff" stroke="none" d="M 29.9267 96.2042L 326.26 62.5375L 327.26 72.5375L 27.9267 148.204L 29.9267 96.2042z"/>
<path fill="#ffbfff" stroke="none" d="M 357.927 438.204L 372.593 75.5375L 364.26 75.8709L 337.927 436.204L 357.927 438.204z"/>
<path fill="#bfdfff" stroke="none" d="M 27.9267 476.204L 147.927 324.204L 169.927 300.204L 199.927 300.204L 205.927 302.204L 27.9267 584.204L 27.9267 476.204z"/>
<path fill="#ffffff" stroke="none" d="M 348.593 50.8709L 363.26 50.2042L 363.26 59.8709L 348.26 60.2042L 348.593 50.8709z"/>
<path fill="#ffffff" stroke="none" d="M 339.593 75.2042L 348.26 75.8709L 348.593 84.8709L 339.927 84.5375L 339.593 75.2042z"/>
<path fill="#ffffff" stroke="none" d="M 374.26 84.2042L 382.927 82.8709L 381.927 90.5375L 372.593 94.5375L 374.26 84.2042z"/>
<path fill="#ffffff" stroke="none" d="M 318.927 62.8709L 326.26 62.5375L 326.26 73.2042L 318.26 71.2042L 318.927 62.8709z"/>
<path fill="#ffffff" stroke="none" d="M 381.593 44.8709L 383.927 54.2042L 392.927 57.2042L 390.26 48.8709L 381.593 44.8709z"/>
<path fill="#ffffbf" stroke="none" d="M 381.593 44.8709L 518.593 14.5375L 544.593 16.5375L 392.927 57.2042L 381.593 44.8709z"/>
<path fill="#ffffbf" stroke="none" d="M 331.927 44.5375L 341.26 40.8709L 338.927 50.8709L 329.26 53.2042L 331.927 44.5375z"/>
<path fill="#ffffbf" stroke="none" d="M 386.26 74.5375L 394.26 72.2042L 392.593 77.8709L 384.927 80.5375L 386.26 74.5375z"/>
<path fill="#ffffbf" stroke="none" d="M 313.927 75.5375L 318.26 77.5375L 320.26 85.2042L 315.26 81.5375L 313.927 75.5375z"/>
<path fill="#ffffbf" stroke="none" d="M 339.593 61.2042L 347.26 60.5375L 347.927 73.8709L 339.927 73.8709L 339.593 61.2042z"/>
<path fill="#ffbfff" stroke="none" d="M 360.26 30.2042L 364.927 30.8709L 368.26 38.2042L 362.26 37.2042L 360.26 30.2042z"/>
<path fill="#ffbfff" stroke="none" d="M 331.927 33.2042L 337.927 32.2042L 340.593 25.5375L 331.927 33.2042z"/>
<path fill="#ffbfff" stroke="none" d="M 316.927 43.2042L 320.927 41.2042L 317.593 47.5375L 311.593 48.5375L 316.927 43.2042z"/>
<path fill="#bfffff" stroke="none" d="M 349.927 85.8709L 361.593 85.2042L 359.927 96.2042L 350.26 95.8709L 349.927 85.8709z"/>
<path fill="#bfffff" stroke="none" d="M 323.927 89.8709L 328.927 92.2042L 331.26 99.5375L 325.26 95.8709L 323.927 89.8709z"/>
<path fill="#bfffff" stroke="none" d="M 377.927 35.8709L 385.593 38.8709L 388.26 45.2042L 380.927 43.2042L 377.927 35.8709z"/>
<path fill="#ccbfff" stroke="none" d="M 29.9267 96.2042L 198.927 74.2042L 199.927 83.2042L 28.9267 114.204L 29.9267 96.2042z"/>
<path fill="#ccbfff" stroke="none" d="M 28.9267 131.204L 250.927 83.2042L 246.927 93.2042L 27.9267 148.204L 28.9267 131.204z"/>
<path fill="#ccdfbf" stroke="none" d="M 93.9267 131.204C 93.9267 131.204 90.9267 144.204 98.9267 148.204C 106.927 152.204 108.927 157.204 117.927 156.204C 126.927 155.204 131.927 158.204 135.927 154.204C 139.927 150.204 144.927 146.204 145.927 141.204C 146.927 136.204 151.927 117.204 151.927 117.204L 93.9267 131.204z"/>
<path fill="#99dfb2" stroke="none" d="M 93.9267 131.204L 128.927 123.204C 128.927 123.204 134.927 123.204 135.927 135.204C 136.927 147.204 129.927 154.204 129.927 154.204C 129.927 154.204 114.927 156.204 106.927 152.204C 98.9267 148.204 94.9267 140.204 94.9267 140.204L 93.9267 131.204z"/>
<path fill="#99dfb2" stroke="none" d="M 178.927 111.204L 229.927 98.2042C 229.927 98.2042 235.927 118.204 230.927 129.204C 225.927 140.204 226.927 143.204 214.927 148.204C 202.927 153.204 196.927 155.204 189.927 149.204C 182.927 143.204 177.927 142.204 177.927 132.204C 177.927 122.204 178.927 111.204 178.927 111.204z"/>
<path fill="#ffffff" stroke="none" d="M 105.927 139.204L 133.927 139.204C 133.927 139.204 132.927 147.204 123.927 149.204C 114.927 151.204 109.927 149.204 107.927 146.204C 105.927 143.204 105.927 139.204 105.927 139.204z"/>
<path fill="#ff7fff" stroke="none" d="M 203.927 212.204L 193.927 237.204L 176.927 273.204L 208.927 280.204L 223.927 278.204L 242.927 249.204L 223.927 223.204L 203.927 212.204z"/>
<path fill="#b27fff" stroke="none" d="M 242.927 249.204L 249.927 265.204L 251.927 279.204L 223.927 278.204L 242.927 249.204z"/>
<path fill="#ffffff" stroke="none" d="M 146.927 91.2042L 149.927 104.204L 143.927 104.204L 141.927 94.2042L 146.927 91.2042z"/>
<path fill="#ffffff" stroke="none" d="M 213.927 72.2042L 231.927 73.2042L 234.927 81.2042L 248.927 80.2042L 249.927 89.2042L 260.927 89.2042L 246.927 93.2042L 241.927 88.2042L 230.927 85.2042L 227.927 77.2042L 219.927 77.2042L 209.927 74.2042L 213.927 72.2042z"/>
<path fill="#5b7b5b" stroke="none" d="M 200.593 79.8709C 200.593 79.8709 202.927 82.8709 206.927 89.8709C 210.927 96.8709 214.927 102.204 214.927 102.204L 222.26 103.871L 221.26 110.538L 231.593 114.538L 231.593 126.204L 227.927 136.204L 218.26 147.538L 207.593 152.204L 191.593 148.538L 181.927 137.871L 178.593 125.204L 178.927 111.204L 166.26 114.871L 163.26 147.204L 165.26 164.204L 166.927 167.204L 171.593 165.871L 186.593 164.204L 200.927 156.538L 204.927 163.538L 222.26 157.204L 238.927 158.538L 247.593 141.204L 257.26 147.538L 261.593 143.538L 260.927 134.871L 256.927 123.538L 258.26 107.204L 254.927 102.538L 242.26 102.538L 241.593 95.2042L 226.26 95.8709L 226.927 87.2042L 221.927 78.8709L 204.927 75.8709L 198.927 77.5375L 200.593 79.8709z"/>
<path fill="#7f9f59" stroke="none" d="M 200.593 79.8709L 200.26 87.2042L 196.927 89.2042L 192.927 89.5375L 192.26 95.5375L 178.927 104.871L 181.593 89.8709L 187.593 82.2042L 198.927 77.5375L 200.593 79.8709z"/>
<path fill="#7f9f59" stroke="none" d="M 209.927 76.5375L 223.927 81.5375L 226.927 87.2042L 226.927 97.2042L 240.593 95.2042L 252.26 91.5375L 249.26 81.2042L 234.26 82.5375L 232.927 72.8709L 219.927 71.8709L 210.26 73.2042L 209.927 76.5375z"/>
<path fill="#dfffbf" stroke="none" d="M 219.927 72.8709L 234.26 74.5375L 234.26 82.5375L 249.26 81.2042L 250.26 91.5375L 245.927 92.8709L 243.927 85.8709L 231.927 85.8709L 228.927 76.2042L 219.927 72.8709z"/>
<path fill="#7f9f59" stroke="none" d="M 240.593 95.2042L 257.26 89.5375L 267.593 100.538L 274.593 110.871L 273.593 121.871L 268.26 127.538L 268.927 137.871L 261.927 136.538L 256.927 121.871L 258.593 104.871L 247.593 102.538L 242.26 102.538L 240.593 95.2042z"/>
<path fill="none" stroke-width="5" stroke="#ff7f7f" d="M 297.26 170.538L 305.26 161.204L 304.593 147.871"/>
</g>
<g>
<path fill="#66a5e5" stroke="none" d="M 553.927 598.204C 553.927 598.204 532.927 597.204 523.927 589.204C 514.927 581.204 504.927 580.204 502.927 569.204C 500.927 558.204 502.927 550.204 502.927 550.204L 515.927 534.204L 515.927 549.204C 515.927 549.204 535.927 540.204 537.927 537.204C 539.927 534.204 548.927 519.204 548.927 519.204L 556.927 524.204L 553.927 598.204z"/>
<path fill="#ffdfbf" stroke="none" d="M 556.927 524.204L 555.927 571.204C 555.927 571.204 554.927 585.204 552.927 588.204C 550.927 591.204 541.927 595.204 541.927 595.204C 541.927 595.204 542.927 601.204 553.927 598.204C 564.927 595.204 572.927 593.204 577.927 587.204C 582.927 581.204 585.927 574.204 588.927 564.204C 591.927 554.204 591.927 544.204 591.927 544.204L 582.927 529.204L 580.927 545.204L 569.927 542.204L 556.927 524.204z"/>
<path fill="#ff7f00" stroke="none" d="M 401.927 293.204L 410.927 282.204L 424.927 292.204L 446.927 289.204L 443.927 300.204L 464.927 295.204L 475.927 298.204L 481.927 315.204L 491.927 317.204L 507.927 312.204L 511.927 327.204L 514.927 343.204L 528.927 345.204L 534.927 355.204L 517.927 360.204L 522.927 373.204L 511.927 373.204L 500.927 375.204L 490.927 378.204L 486.927 367.204L 477.927 368.204L 478.927 351.204L 469.927 356.204L 465.927 337.204C 465.927 337.204 452.927 336.204 445.927 332.204C 438.927 328.204 429.927 317.204 429.927 317.204L 427.927 330.204L 418.927 320.204L 413.927 307.204L 403.927 304.204L 398.927 305.204L 401.927 293.204z"/>
<path fill="#bf7fd8" stroke="none" d="M 398.927 305.204L 402.927 374.204C 402.927 374.204 416.927 381.204 429.927 380.204C 442.927 379.204 454.927 379.204 461.927 369.204C 468.927 359.204 474.927 348.204 474.927 348.204L 465.927 337.204C 465.927 337.204 445.927 333.204 438.927 328.204C 431.927 323.204 430.927 314.204 430.927 314.204L 427.927 330.204C 427.927 330.204 421.927 327.204 418.927 320.204C 415.927 313.204 415.927 304.204 415.927 304.204L 408.927 300.204L 398.927 305.204z"/>
<path fill="#bf7fff" stroke="none" d="M 333.927 522.204L 359.927 518.204L 432.927 479.204L 458.927 472.204L 455.927 544.204L 443.927 597.204L 413.927 578.204L 371.927 558.204L 333.927 522.204z"/>
<path fill="#ffdfbf" stroke="none" d="M 398.927 305.204C 398.927 305.204 390.927 311.204 388.927 322.204C 386.927 333.204 383.927 346.204 389.927 355.204C 395.927 364.204 402.927 374.204 402.927 374.204L 398.927 305.204z"/>
<path fill="#ffff00" stroke="none" d="M 388.927 313.204C 388.927 313.204 380.927 309.204 380.927 306.204C 380.927 303.204 380.927 297.204 380.927 297.204L 389.927 301.204L 391.927 284.204L 397.927 292.204L 398.927 305.204L 388.927 313.204z"/>
<path fill="#dfbfff" stroke="none" d="M 382.927 507.204L 409.927 491.204L 413.927 578.204L 381.927 563.204L 382.927 507.204z"/>
<path fill="#bf7fd8" stroke="none" d="M 195.427 300.704L 229.427 317.204C 229.427 317.204 228.427 338.704 226.427 353.704C 224.427 368.704 220.427 385.704 213.427 391.704C 206.427 397.704 192.427 395.204 180.927 393.204C 169.427 391.204 163.927 387.204 155.927 378.204C 147.927 369.204 146.427 360.204 143.427 349.204C 140.427 338.204 151.427 322.704 151.427 322.704C 151.427 322.704 160.427 309.204 167.427 304.204C 174.427 299.204 195.427 300.704 195.427 300.704z"/>
<path fill="#7fbfff" stroke="none" d="M 159.427 312.204C 159.427 312.204 173.427 307.704 181.427 308.704C 189.427 309.704 193.427 314.704 194.927 316.704C 196.427 318.704 198.427 328.704 198.427 328.704L 201.427 314.204L 199.927 309.204L 195.427 300.704L 207.427 304.204C 207.427 304.204 186.927 295.704 178.427 298.704C 169.927 301.704 159.427 312.204 159.427 312.204z"/>
<path fill="#bfdfff" stroke="none" d="M 199.927 309.204L 204.927 309.704L 207.427 304.204L 199.927 300.204L 199.927 309.204z"/>
<path fill="#d8b899" stroke="none" d="M 305.26 161.538L 304.927 148.871L 312.593 160.204L 323.26 156.204L 327.593 140.538L 332.927 158.871L 341.927 155.871L 347.927 141.871L 349.26 155.871L 361.593 155.538L 362.927 163.871L 369.593 168.204L 366.26 175.538L 362.927 178.871C 362.927 178.871 364.26 194.204 360.593 200.204C 356.927 206.204 358.593 215.538 344.927 217.538C 331.26 219.538 325.593 218.538 316.593 217.204C 307.593 215.871 300.593 212.538 297.26 204.538C 293.927 196.538 292.26 189.204 293.927 180.204C 295.593 171.204 305.26 161.538 305.26 161.538z"/>
<path fill="#b29272" stroke="none" d="M 303.593 177.538C 303.593 177.538 308.26 169.871 315.26 169.204C 322.26 168.538 328.26 167.204 334.26 169.538C 340.26 171.871 344.26 173.204 347.26 180.204C 350.26 187.204 350.927 199.538 350.927 199.538L 343.927 216.204C 343.927 216.204 326.593 218.871 319.593 219.204C 312.593 219.538 300.26 213.871 297.927 208.871C 295.593 203.871 297.593 192.871 297.593 192.871L 303.593 177.538z"/>
<path fill="#66a5e5" stroke="none" d="M 438.927 136.538L 446.26 138.538L 465.927 139.871C 465.927 139.871 471.593 151.538 471.927 156.538C 472.26 161.538 471.927 178.204 466.593 185.538C 461.26 192.871 451.593 202.538 440.26 203.871C 428.927 205.204 413.927 201.204 411.927 195.538C 409.927 189.871 409.26 171.871 409.26 165.538C 409.26 159.204 409.927 154.538 413.593 149.204C 417.26 143.871 419.593 140.204 419.593 140.204C 419.593 140.204 416.927 133.204 421.927 130.538C 426.927 127.871 433.927 127.204 436.593 130.538C 439.26 133.871 438.927 136.538 438.927 136.538z"/>
<path fill="#7fbfd8" stroke="none" d="M 561.927 503.204L 560.927 529.204L 546.927 522.204C 546.927 522.204 538.927 534.204 531.927 539.204C 524.927 544.204 514.927 546.204 514.927 546.204L 516.927 530.204L 502.927 545.204L 498.593 562.871C 498.593 562.871 496.927 603.204 492.927 611.204C 488.927 619.204 476.927 623.204 476.927 623.204L 483.927 558.204C 483.927 558.204 488.927 531.204 494.927 523.204C 500.927 515.204 504.927 507.204 513.927 502.204C 522.927 497.204 528.927 496.204 534.927 497.204C 540.927 498.204 552.927 500.204 552.927 500.204L 561.927 503.204z"/>
<path fill="#66a5bf" stroke="none" d="M 492.927 611.204L 498.927 557.204L 508.927 581.204L 528.927 590.204L 538.927 600.204L 535.927 621.204L 520.927 620.204L 510.927 618.204L 502.927 630.204L 499.927 610.204L 492.927 611.204z"/>
<path fill="#ffff3f" stroke="none" d="M 544.927 602.204C 544.927 602.204 560.927 600.204 566.927 597.204C 572.927 594.204 582.927 581.204 582.927 581.204L 584.927 599.204L 595.927 607.204L 584.927 613.204L 570.927 607.204L 570.927 622.204L 565.927 615.204L 551.927 630.204L 539.927 623.204L 538.927 600.204L 544.927 602.204z"/>
<path fill="#ffff3f" stroke="none" d="M 561.927 503.204L 556.927 524.204C 556.927 524.204 560.927 533.204 567.927 538.204C 574.927 543.204 583.927 543.204 583.927 543.204L 582.927 529.204L 591.927 544.204C 591.927 544.204 595.927 529.204 592.927 520.204C 589.927 511.204 581.927 505.204 581.927 505.204L 569.927 504.204L 561.927 503.204z"/>
<path fill="#cccc00" stroke="none" d="M 541.927 599.204L 559.927 601.204L 556.927 625.204L 551.927 630.204L 539.927 623.204L 541.927 599.204z"/>
<path fill="#ff007f" stroke="none" d="M 555.927 737.204L 569.927 775.204L 567.927 807.204L 597.927 809.204L 586.927 775.204L 573.927 750.204L 555.927 737.204z"/>
<path fill="#7f1666" stroke="none" d="M 535.927 722.204L 555.927 737.204L 569.927 775.204L 567.927 807.204L 500.927 808.204L 512.927 760.204L 535.927 722.204z"/>
<path fill="#7f1666" stroke="none" d="M 506.927 674.204"/>
<path fill="#ff007f" stroke="none" d="M 555.76 489.371L 574.26 490.204L 572.093 504.371L 554.593 497.871L 555.76 489.371z"/>
<path fill="#7f1666" stroke="none" d="M 531.427 482.538L 555.76 489.371L 553.427 499.704L 527.76 491.871L 531.427 482.538z"/>
</g>
<g>
<path fill="none" stroke-width="6" stroke="#7f7fff" d="M 165.927 304.204C 142.85 331.896 132.001 343.315 153.927 376.204C 163.927 392.204 198.927 401.204 207.927 394.204C 216.927 387.204 235.927 342.204 227.927 316.204C 221.927 304.204 175.927 292.204 165.927 304.204z"/>
<path fill="none" stroke-width="6" stroke="#7f7fff" d="M 181.927 393.204C 189.853 428.081 212.956 499.054 212.956 499.054C 212.956 499.054 199.927 588.204 201.927 618.204"/>
<path fill="none" stroke-width="6" stroke="#7f7fff" d="M 213.927 501.204C 247.927 525.204 287.927 562.204 321.927 586.204"/>
<path fill="none" stroke-width="6" stroke="#7f7fff" d="M 195.927 434.204C 219.927 412.204 247.927 400.204 273.927 384.204"/>
<path fill="none" stroke-width="6" stroke="#7f7fff" d="M 111.927 434.204C 135.927 428.204 163.927 424.204 187.927 420.204"/>
<path fill="none" stroke-width="6" stroke="#7f7fff" d="M 469.927 358.204C 467.927 365.871 460.593 370.871 454.26 374.538C 447.927 378.204 430.593 383.204 418.593 381.204C 412.593 379.204 405.593 377.871 400.927 373.204C 396.26 368.538 393.927 366.204 391.927 362.204C 389.927 360.204 387.927 356.204 387.927 354.204C 385.927 344.204 385.927 332.204 387.927 322.204C 391.927 312.204 399.927 300.204 411.927 302.204"/>
<path fill="none" stroke-width="6" stroke="#7f7fff" d="M 331.927 522.204C 353.927 548.204 385.927 564.204 415.927 580.204C 421.927 584.204 427.927 592.204 433.927 596.204C 437.927 598.204 444.243 604.084 444.927 602.204C 460.927 558.204 457.927 514.204 457.927 472.204C 431.927 478.204 417.927 487.204 393.927 499.204C 381.927 503.204 360.927 519.204 354.927 519.204C 352.927 519.204 333.927 520.204 331.927 522.204z"/>
<path fill="none" stroke-width="6" stroke="#7f7fff" d="M 441.927 380.204C 445.927 408.204 453.927 444.204 457.927 472.204"/>
<path fill="none" stroke-width="6" stroke="#7f7fff" d="M 343.927 538.204C 339.927 542.204 320.927 549.204 314.927 549.204"/>
<path fill="none" stroke-width="6" stroke="#7f7fff" d="M 445.927 398.204C 469.927 392.204 508.927 394.204 533.927 396.204"/>
<path fill="none" stroke-width="6" stroke="#7f7fff" d="M 360.927 400.204L 407.927 408.204L 446.927 418.204"/>
<path fill="none" stroke-width="6" stroke="#7f7fff" d="M 421.927 588.204C 421.927 600.204 410.927 617.204 410.927 629.204"/>
<path fill="none" stroke-width="5" stroke="#7f7fff" d="M 325.927 158.642C 313.761 158.642 299.927 160.642 295.927 172.642C 293.927 184.642 291.927 202.642 297.927 208.642C 309.927 220.642 335.927 222.642 349.927 214.642C 365.927 204.642 363.927 178.642 357.927 164.642C 353.927 154.642 337.927 158.642 325.927 158.642z"/>
<path fill="none" stroke-width="5" stroke="#7f7fff" d="M 322.927 217.204C 320.927 229.204 317.927 236.204 317.927 248.204C 317.927 270.204 317.927 312.204 317.927 312.204C 317.927 312.204 345.927 354.204 357.927 374.204"/>
<path fill="none" stroke-width="5" stroke="#7f7fff" d="M 317.927 248.204C 295.927 241.204 280.927 241.204 265.927 232.204"/>
<path fill="none" stroke-width="5" stroke="#7f7fff" d="M 320.927 240.204C 340.927 238.204 388.927 253.204 388.927 253.204"/>
<path fill="none" stroke-width="5" stroke="#7f7fff" d="M 317.927 312.204C 285.927 326.204 265.927 352.204 241.927 374.204"/>
<path fill="none" stroke-width="5" stroke="#7f7fff" d="M 388.927 253.204C 408.927 253.204 425.927 240.204 443.927 234.204"/>
<path fill="none" stroke-width="5" stroke="#7f7fff" d="M 438.927 204.204C 438.927 212.204 441.927 210.204 441.927 218.204C 443.927 222.204 443.927 226.204 443.927 234.204C 449.927 252.204 455.927 270.204 459.927 288.204"/>
<path fill="none" stroke-width="5" stroke="#7f7fff" d="M 441.927 218.204C 461.927 228.204 479.927 236.204 501.927 236.204"/>
<path fill="none" stroke-width="6" stroke="#7f7fff" d="M 413.01 286.413C 414.343 284.079 425.343 295.746 427.343 294.079C 433.01 289.746 439.677 289.079 446.343 289.746C 447.343 290.079 449.343 290.746 449.01 291.079C 447.677 293.079 444.677 293.413 443.677 295.413C 441.343 299.079 441.343 303.079 440.677 307.079C 442.447 296.455 465.01 291.413 477.01 301.413C 479.01 299.413 477.343 316.079 483.343 316.079C 493.343 320.079 504.01 307.746 510.01 313.746C 514.01 317.746 510.677 339.079 514.677 347.079C 516.677 349.079 524.677 345.079 530.677 347.079C 536.677 351.079 534.677 359.079 534.677 365.079"/>
<path fill="none" stroke-width="5" stroke="#7f7fff" d="M 441.927 138.204C 427.176 130.829 411.927 144.204 409.927 160.204C 409.927 172.204 405.927 188.204 413.927 198.204C 417.927 202.204 435.927 206.204 443.927 202.204C 451.927 198.204 455.927 200.204 459.927 194.204C 473.927 182.204 475.927 158.204 465.927 142.204C 461.927 136.204 449.927 142.204 441.927 138.204z"/>
<path fill="none" stroke-width="6" stroke="#7f7fff" d="M 416.26 308.204C 415.593 310.871 415.26 313.538 416.26 315.871C 417.927 320.204 421.26 323.871 424.927 327.204C 426.26 328.204 427.593 328.204 429.26 328.538C 429.593 325.538 428.593 322.538 429.593 319.538C 431.927 323.871 435.26 327.204 439.26 330.204C 444.927 333.871 450.593 336.204 456.927 337.871C 459.927 338.538 462.927 337.871 465.927 338.871"/>
<path fill="none" stroke-width="6" stroke="#7f7fff" d="M 402.26 333.871C 402.26 336.204 403.593 338.538 403.593 340.871"/>
<path fill="none" stroke-width="6" stroke="#7f7fff" d="M 415.593 336.204C 416.593 338.871 417.26 341.538 418.593 343.871C 418.927 344.871 419.26 345.871 419.26 346.871"/>
<path fill="none" stroke-width="6" stroke="#7f7fff" d="M 393.593 362.538C 396.26 364.204 398.593 366.538 401.927 366.871C 407.593 366.871 413.26 367.538 418.927 365.871C 425.593 363.538 432.26 360.204 436.927 354.871"/>
<path fill="none" stroke-width="4" stroke="#7f7fff" d="M 125.927 90.2042C 109.051 81.7661 95.9267 96.2042 93.9267 112.204C 93.9267 124.204 87.9267 142.204 99.9267 148.204C 111.927 156.204 129.927 160.204 139.927 152.204C 153.927 138.204 153.927 114.204 147.927 94.2042C 145.927 88.2042 133.927 94.2042 125.927 90.2042z"/>
<path fill="none" stroke-width="4" stroke="#7f7fff" d="M 255.927 144.204C 257.927 144.204 259.927 144.204 261.927 144.204C 261.927 138.204 261.927 132.204 257.927 126.204C 255.927 120.204 259.927 112.204 257.927 106.204C 255.927 100.204 247.927 104.204 241.927 102.204L 241.927 96.2042C 237.927 94.2042 229.927 98.2042 225.927 96.2042C 223.927 94.2042 227.927 88.2042 225.927 84.2042C 219.927 74.2042 207.986 76.5277 197.927 78.2042C 173.927 82.2042 179.927 110.204 179.927 128.204C 179.927 134.204 181.927 142.204 185.927 144.204C 191.927 152.204 205.927 154.204 215.927 148.204C 225.927 142.204 233.927 128.204 231.927 114.204"/>
<path fill="none" stroke-width="4" stroke="#7f7fff" d="M 113.927 162.204C 113.927 186.204 113.927 236.204 113.927 236.204C 113.927 236.204 137.927 278.204 151.927 296.204"/>
<path fill="none" stroke-width="4" stroke="#7f7fff" d="M 113.927 236.204C 93.9267 258.204 81.9267 290.204 71.9267 316.204"/>
<path fill="none" stroke-width="4" stroke="#7f7fff" d="M 47.9267 194.204C 69.9267 194.204 91.9267 194.204 111.927 184.204"/>
<path fill="none" stroke-width="4" stroke="#7f7fff" d="M 197.927 78.2042C 209.927 72.2042 221.927 70.2042 233.927 74.2042C 233.927 74.2042 231.927 80.2042 233.927 82.2042C 237.927 84.2042 245.927 80.2042 249.927 82.2042C 249.927 84.2042 249.927 88.2042 249.927 90.2042C 251.927 92.2042 257.927 88.2042 259.927 90.2042C 267.927 96.2042 265.927 104.204 273.927 110.204C 275.927 114.204 273.927 120.204 273.927 124.204"/>
<path fill="none" stroke-width="4" stroke="#7f7fff" d="M 181.927 94.2042C 177.927 94.2042 171.927 94.2042 167.927 94.2042C 167.927 100.204 163.927 106.204 165.927 110.204C 167.927 130.204 159.927 150.204 165.927 168.204C 167.927 168.204 171.927 168.204 173.927 168.204"/>
<path fill="none" stroke-width="4" stroke="#7f7fff" d="M 203.927 158.204C 203.927 178.204 207.927 198.204 201.927 218.204C 195.927 238.204 181.927 254.204 175.927 274.204C 199.927 282.204 225.927 280.204 251.927 280.204C 251.927 252.204 231.927 228.204 207.927 214.204"/>
<path fill="none" stroke-width="4" stroke="#7f7fff" d="M 203.927 170.204C 219.927 186.204 239.927 188.204 259.927 192.204"/>
<path fill="none" stroke-width="4" stroke="#7f7fff" d="M 115.927 187.204C 125.927 197.204 141.927 212.204 155.927 216.204"/>
<path fill="none" stroke-width="4" stroke="#7f7fff" d="M 167.927 220.204C 177.927 210.204 191.927 185.204 205.927 179.204"/>
<path fill="none" stroke-width="4" stroke="#7f7fff" d="M 187.927 280.204C 187.927 284.204 187.927 288.204 187.927 292.204"/>
<path fill="none" stroke-width="4" stroke="#7f7fff" d="M 238.927 281.204C 238.927 282.76 256.927 312.204 256.927 312.204"/>
<path fill="#7f7fff" stroke-width="8" stroke="#7f7fff" d="M 139.927 562.204C 127.927 562.204 117.927 560.204 105.927 564.204C 71.9267 572.204 65.9267 614.204 73.9267 644.204C 77.9267 662.204 91.9267 676.204 111.927 680.204C 131.927 682.204 147.927 674.204 165.927 670.204C 177.927 642.204 179.927 610.204 171.927 580.204C 167.927 568.204 155.927 564.204 141.927 566.204L 139.927 562.204z"/>
<path fill="none" stroke-width="8" stroke="#7f7fff" d="M 121.427 668.204C 133.427 706.204 155.927 762.204 161.927 802.204"/>
<path fill="none" stroke-width="8" stroke="#7f7fff" d="M 41.9267 684.204L 56.9267 743.204C 56.9267 743.204 113.927 756.204 145.927 754.204"/>
<path fill="none" stroke-width="8" stroke="#7f7fff" d="M 141.927 732.204C 175.927 726.204 207.927 716.204 237.927 700.204C 237.927 676.204 239.927 654.204 233.927 630.204"/>
<path fill="#7f7fff" stroke-width="8" stroke="#7f7fff" d="M 341.927 618.204C 328.199 615.459 313.927 612.204 303.927 622.204C 277.927 640.204 281.927 678.204 291.927 704.204C 303.927 730.204 343.927 722.204 371.927 724.204C 381.927 710.204 391.927 692.204 387.927 674.204C 385.927 656.204 379.927 638.204 367.927 626.204C 363.927 620.204 351.927 620.204 341.927 618.204z"/>
<path fill="none" stroke-width="8" stroke="#7f7fff" d="M 346.427 719.204C 350.427 743.204 367.927 784.204 369.927 808.204"/>
<path fill="none" stroke-width="8" stroke="#7f7fff" d="M 359.927 759.704L 417.927 746.204L 485.927 764.204"/>
<path fill="none" stroke-width="8" stroke="#7f7fff" d="M 219.927 758.204C 219.927 758.204 316.927 776.204 362.927 776.204"/>
<path fill="none" stroke-width="5" stroke="#7f7fff" d="M 437.927 282.204C 441.927 278.204 447.927 274.204 449.927 268.204"/>
<path fill="none" stroke-width="5" stroke="#7f7fff" d="M 467.927 150.204C 467.927 146.204 473.927 148.204 473.927 144.204"/>
<path fill="none" stroke-width="4" stroke="#7f7fff" d="M 571.927 76.2042C 561.194 70.8376 547.927 72.2042 537.927 78.2042C 525.927 84.2042 523.927 106.204 529.927 118.204C 535.927 130.204 551.927 144.204 567.927 136.204C 573.927 132.204 579.927 124.204 583.927 116.204C 587.927 104.204 587.927 92.2042 583.927 80.2042C 583.927 78.2042 575.927 78.2042 571.927 76.2042z"/>
<path fill="none" stroke-width="4" stroke="#7f7fff" d="M 547.927 140.204C 539.927 178.204 513.927 248.204 513.927 248.204C 513.927 248.204 527.927 279.204 535.927 291.204L 526.927 300.204"/>
<path fill="none" stroke-width="4" stroke="#7f7fff" d="M 530.927 199.204C 544.927 211.204 563.927 228.204 577.927 242.204C 581.927 246.204 595.927 242.204 603.927 242.204"/>
<path fill="none" stroke-width="4" stroke="#7f7fff" d="M 543.927 160.204C 551.927 170.204 565.927 172.204 577.927 178.204C 576.138 177.31 589.927 147.204 595.927 139.204"/>
<path fill="none" stroke-width="4" stroke="#7f7fff" d="M 541.927 170.204C 533.927 164.204 513.927 166.204 509.927 156.204C 505.927 146.204 509.927 130.204 509.927 118.204"/>
<path fill="none" stroke-width="6" stroke="#3f3fff" d="M 545.106 599.407C 553.802 600.767 562.427 599.454 569.927 594.204C 579.927 586.204 587.927 572.204 591.927 556.204C 593.927 542.204 595.927 528.204 589.927 516.204C 585.927 506.204 573.927 504.204 561.927 502.204"/>
<path fill="none" stroke-width="6" stroke="#7f7fff" d="M 561.927 502.204C 547.565 499.811 533.927 494.204 519.927 500.204C 507.927 504.204 503.927 518.204 501.927 532.204C 501.927 546.204 497.927 562.204 505.927 576.204C 515.927 587.454 530.614 597.142 545.106 599.407"/>
<path fill="none" stroke-width="6" stroke="#7f7fff" d="M 539.927 599.538C 541.927 649.538 535.927 672.204 535.927 722.204"/>
<path fill="none" stroke-width="6" stroke="#7f7fff" d="M 536.593 654.871C 514.593 652.871 488.113 643.232 467.927 652.204C 461.927 654.871 463.927 665.538 462.593 682.871"/>
<path fill="none" stroke-width="6" stroke="#3f3fff" d="M 539.927 644.204C 563.927 636.871 573.927 631.038 593.927 626.204L 597.927 656.204"/>
<path fill="none" stroke-width="6" stroke="#3f3fff" d="M 535.927 722.204C 558.593 733.538 571.707 746.972 581.927 768.871C 586.593 778.871 595.927 790.204 598.593 806.204"/>
<path fill="none" stroke-width="6" stroke="#7f7fff" d="M 533.26 720.871C 515.927 746.204 505.26 779.538 501.927 806.204"/>
<path fill="none" stroke-width="6" stroke="#7f7fff" d="M 519.927 500.204C 501.927 504.204 493.927 524.204 487.927 536.204C 475.927 564.204 485.927 596.204 477.927 626.204C 475.927 630.204 463.927 628.204 455.927 628.204"/>
<path fill="none" stroke-width="6" stroke="#3f3fff" d="M 583.927 574.204C 583.927 588.204 579.927 602.204 595.927 608.204"/>
<path fill="none" stroke-width="6" stroke="#7f7fff" d="M 547.927 522.204C 537.927 532.204 529.927 550.204 515.927 550.204C 515.927 544.204 515.927 536.204 515.927 530.204C 511.927 540.204 505.927 546.204 497.927 554.204"/>
<path fill="none" stroke-width="6" stroke="#7f7fff" d="M 477.927 626.204C 487.927 624.204 493.927 616.204 499.927 610.204C 499.927 616.204 497.927 626.204 501.927 630.204C 505.927 634.204 507.927 622.204 509.927 618.204C 513.927 616.204 517.927 618.204 521.927 622.204"/>
<path fill="none" stroke-width="6" stroke="#3f3fff" d="M 557.927 524.204C 561.927 534.204 569.927 550.204 581.927 544.204C 583.927 544.204 581.927 536.204 579.927 532.204C 583.927 530.204 579.927 536.204 583.927 536.204"/>
<path fill="none" stroke-width="6" stroke="#7f7fff" d="M 548.427 488.204L 547.927 496.204C 547.927 496.204 553.927 496.204 555.927 496.204C 555.927 494.204 555.927 490.204 555.927 488.204C 553.614 488.204 550.26 488.848 548.427 488.204C 545.126 487.045 531.829 481.603 530.427 482.204C 526.927 483.704 526.427 489.704 527.927 492.204C 529.427 494.704 537.294 496.046 545.927 498.204"/>
<path fill="none" stroke-width="6" stroke="#3f3fff" d="M 558.177 489.079C 569.177 487.579 572.427 486.079 574.427 490.079C 574.427 490.079 573.052 493.079 572.927 495.829C 572.802 498.579 576.302 502.704 574.552 504.954C 572.802 507.204 567.177 503.954 564.177 503.079C 561.177 502.204 557.677 499.579 557.677 499.579"/>
<path fill="none" stroke-width="4" stroke="#7f7fff" d="M 109.26 115.538C 109.26 119.538 109.26 124.204 111.26 128.204"/>
<path fill="none" stroke-width="4" stroke="#7f7fff" d="M 131.26 114.871C 130.593 118.871 131.927 122.871 131.927 126.871"/>
<path fill="none" stroke-width="4" stroke="#7f7fff" d="M 139.26 138.204C 128.593 140.871 117.26 141.538 105.927 140.871C 107.258 140.949 107.26 146.871 110.593 148.204C 115.26 149.538 119.927 150.204 124.593 148.204C 127.927 146.871 131.26 144.204 133.927 141.538"/>
<path fill="none" stroke-width="4" stroke="#7f7fff" d="M 191.26 110.204C 191.927 113.538 190.593 117.538 191.927 120.871"/>
<path fill="none" stroke-width="4" stroke="#7f7fff" d="M 208.593 112.204C 208.593 116.204 208.593 119.538 208.593 123.538"/>
<path fill="none" stroke-width="4" stroke="#7f7fff" d="M 192.593 140.204C 199.927 138.871 210.593 143.538 215.26 135.538"/>
<path fill="none" stroke-width="4" stroke="#7f7fff" d="M 179.26 107.538C 179.26 106.204 178.593 104.204 179.26 104.204C 183.927 101.538 187.927 99.5375 191.26 95.5375C 191.927 93.5375 189.927 90.8709 191.927 89.5375C 194.593 88.8709 197.927 90.2042 199.26 88.8709C 200.593 88.2042 199.927 84.8709 199.927 82.8709"/>
<path fill="none" stroke-width="5" stroke="#7f7fff" d="M 305.927 168.204C 306.927 161.204 303.927 154.204 303.927 147.204C 310.927 151.204 309.927 162.204 318.927 165.204C 322.927 157.204 323.927 148.204 326.927 140.204C 330.927 147.204 327.927 155.204 331.927 162.204C 332.927 162.204 333.927 164.204 334.927 163.204C 339.927 155.204 346.927 149.204 349.927 140.204C 349.927 147.204 347.927 156.204 350.927 161.204C 353.927 164.204 358.927 154.204 362.927 157.204C 365.927 159.204 361.927 164.204 360.927 168.204C 362.927 168.204 365.927 167.204 367.927 168.204C 369.927 171.204 365.927 174.204 365.927 177.204"/>
<path fill="none" stroke-width="5" stroke="#7f7fff" d="M 315.927 184.204C 315.927 187.204 315.927 189.204 315.927 192.204"/>
<path fill="none" stroke-width="5" stroke="#7f7fff" d="M 331.927 184.204C 332.927 186.204 329.927 189.204 332.927 191.204"/>
<path fill="none" stroke-width="5" stroke="#7f7fff" d="M 310.927 210.204C 316.927 210.204 323.927 211.204 329.927 210.204C 334.927 208.204 338.927 206.204 342.927 203.204"/>
<path fill="none" stroke-width="5" stroke="#7f7fff" d="M 424.927 164.204C 424.927 168.204 424.927 172.204 424.927 176.204"/>
<path fill="none" stroke-width="5" stroke="#7f7fff" d="M 440.927 165.204C 440.927 169.204 440.927 173.204 440.927 177.204"/>
<path fill="none" stroke-width="5" stroke="#7f7fff" d="M 418.927 192.204C 425.927 193.204 425.927 194.204 432.927 194.204C 433.927 194.204 440.927 196.204 441.927 196.204C 445.927 196.204 448.927 193.204 451.927 191.204"/>
<path fill="none" stroke-width="5" stroke="#7f7fff" d="M 441.927 138.204C 440.927 138.204 440.927 137.204 441.927 138.204C 441.927 137.204 441.927 138.204 441.927 138.204C 438.927 131.204 429.927 127.204 423.927 131.204C 419.927 133.204 418.927 141.204 420.927 146.204C 422.927 151.204 429.927 151.204 435.927 151.204"/>
<path fill="none" stroke-width="4" stroke="#7f7fff" d="M 529.927 83.2042C 529.927 82.2042 529.927 80.2042 529.927 80.2042C 527.927 79.2042 523.927 81.2042 523.927 80.2042C 521.927 78.2042 522.927 74.2042 522.927 71.2042C 519.927 72.2042 514.927 69.2042 512.927 74.2042"/>
<path fill="none" stroke-width="4" stroke="#7f7fff" d="M 540.927 75.2042C 543.927 73.2042 542.927 70.2042 542.927 67.2042C 539.927 67.2042 536.927 68.2042 534.927 67.2042C 531.927 63.2042 537.927 62.2042 537.927 58.2042C 535.927 58.2042 532.927 58.2042 530.927 58.2042"/>
<path fill="none" stroke-width="4" stroke="#7f7fff" d="M 554.927 71.2042C 558.927 71.2042 560.927 66.2042 559.927 64.2042C 557.927 63.2042 553.927 65.2042 551.927 63.2042C 551.927 63.2042 551.927 62.2042 551.927 61.2042C 554.927 62.2042 556.927 60.2042 558.927 59.2042L 558.927 56.2042C 555.927 55.2042 551.927 57.2042 549.927 56.2042C 547.927 54.2042 551.927 53.2042 553.927 52.2042"/>
<path fill="none" stroke-width="4" stroke="#7f7fff" d="M 570.927 73.2042C 568.927 68.2042 574.927 67.2042 578.927 65.2042C 579.927 64.2042 578.927 60.2042 574.927 60.2042C 574.927 59.2042 574.927 59.2042 574.927 58.2042C 577.927 59.2042 580.927 57.2042 583.927 57.2042C 582.927 54.2042 585.927 51.2042 582.927 49.2042"/>
<path fill="none" stroke-width="4" stroke="#7f7fff" d="M 583.927 80.2042C 583.927 79.2042 582.927 76.2042 583.927 74.2042C 585.927 73.2042 589.927 75.2042 590.927 74.2042C 591.927 72.2042 589.927 68.2042 590.927 66.2042C 592.927 65.2042 595.927 69.2042 597.927 68.2042C 598.927 67.2042 597.927 65.2042 597.927 63.2042"/>
<path fill="none" stroke-width="4" stroke="#7f7fff" d="M 585.927 92.2042C 585.927 89.2042 588.927 87.2042 591.927 87.2042C 590.927 89.2042 592.927 90.2042 592.927 91.2042C 594.927 89.2042 592.927 86.2042 594.927 84.2042C 597.927 83.2042 597.927 87.2042 598.927 88.2042C 600.927 88.2042 598.927 85.2042 600.927 84.2042"/>
<path fill="none" stroke-width="4" stroke="#7f7fff" d="M 525.927 92.2042C 525.927 91.2042 525.927 90.2042 525.927 89.2042C 525.927 89.2042 524.927 89.2042 523.927 89.2042C 522.927 89.2042 522.927 90.2042 522.927 91.2042C 517.927 92.2042 509.927 88.2042 507.927 95.2042L 504.927 95.2042C 503.927 93.2042 504.927 90.2042 504.927 88.2042"/>
<path fill="none" stroke-width="4" stroke="#7f7fff" d="M 537.927 105.204C 541.927 105.204 546.927 103.204 550.927 104.204"/>
<path fill="none" stroke-width="4" stroke="#7f7fff" d="M 567.927 104.204C 570.927 104.204 572.927 103.204 575.927 102.204"/>
<path fill="none" stroke-width="4" stroke="#7f7fff" d="M 550.927 128.204C 556.927 129.204 563.927 127.204 568.927 123.204"/>
<path fill="none" stroke-width="6" stroke="#7f7fff" d="M 400.927 293.204C 395.927 293.204 391.927 288.204 391.927 284.204C 388.927 289.204 389.927 295.204 389.927 300.204C 386.927 299.204 382.927 302.204 380.927 298.204C 379.927 304.204 380.927 311.204 387.927 313.204"/>
<path fill="none" stroke-width="6" stroke="#7f7fff" d="M 481.927 355.204C 480.927 354.204 478.927 356.204 478.927 356.204C 477.927 360.204 475.927 366.204 478.927 368.204C 480.927 370.204 485.927 368.204 487.927 370.204C 488.927 371.204 485.927 376.204 488.927 378.204C 491.927 379.204 495.927 379.204 498.927 378.204C 502.927 375.204 506.927 372.204 511.927 375.204C 512.927 375.204 511.927 378.204 511.927 380.204"/>
<path fill="none" stroke-width="6" stroke="#7f7fff" d="M 511.927 331.204C 514.927 337.204 522.927 339.204 526.927 336.204C 533.927 331.204 541.927 322.204 547.927 329.204C 550.927 332.204 551.927 339.204 548.927 343.204C 548.927 344.204 544.927 343.204 541.927 343.204C 541.927 343.204 541.927 342.204 541.927 341.204"/>
<path fill="none" stroke-width="6" stroke="#7f7fff" d="M 180.927 346.204C 180.927 351.204 180.927 355.204 181.927 360.204"/>
<path fill="none" stroke-width="6" stroke="#7f7fff" d="M 204.927 344.204C 204.927 349.204 204.927 353.204 204.927 358.204"/>
<path fill="none" stroke-width="6" stroke="#7f7fff" d="M 166.927 375.204C 179.927 378.204 192.927 379.204 205.927 376.204C 208.927 376.204 211.927 371.204 213.927 368.204"/>
<path fill="none" stroke-width="6" stroke="#7f7fff" d="M 165.927 304.204C 176.927 303.204 185.927 301.204 192.927 304.204C 205.927 310.204 201.927 323.204 198.927 330.204C 195.927 337.204 187.927 340.204 182.927 338.204C 177.927 336.204 175.927 330.204 176.927 327.204C 177.927 325.204 179.927 325.204 182.927 325.204"/>
<path fill="none" stroke-width="6" stroke="#7f7fff" d="M 537.427 547.204C 536.927 552.204 537.427 556.704 538.427 561.704C 538.427 561.704 538.927 561.704 539.427 561.704"/>
<path fill="none" stroke-width="6" stroke="#3f3fff" d="M 567.427 550.204C 567.427 555.204 567.427 560.204 567.427 565.204"/>
<path fill="none" stroke-width="6" stroke="#7f7fff" d="M 533.427 580.704C 536.927 586.704 543.927 587.204 549.927 586.204C 551.427 585.704 552.927 584.704 552.427 582.704"/>
<path fill="none" stroke-width="6" stroke="#3f3fff" d="M 564.427 616.204C 566.927 618.204 568.427 621.704 571.927 622.704C 571.927 619.204 571.927 615.204 571.927 611.704C 576.927 614.704 582.427 615.704 587.927 616.704"/>
</g>
</g>
<g>
    <animateTransform attributeName="transform" type="scale"
            additive="replace" fill="freeze" 
            values="1.0; 0.2" begin="btn1.click" dur="1"/>
    <animateTransform attributeName="transform" type="scale"
            additive="replace" fill="freeze" 
            values="0.2; 1.0" begin="btn2.click" dur="1"/>
<g>
<path fill="#ff9f3f" stroke-width="6" stroke="#000000" d="M 67.9237 470.485C 67.9237 528.164 110.761 574.924 163.602 574.924C 216.443 574.924 259.281 528.164 259.281 470.485L 67.9237 470.485z"/>
<path fill="none" stroke-width="6" stroke="#000000" d="M 71.8129 500.485C 71.8129 500.485 56.3129 492.485 45.8129 492.485C 35.3129 492.485 33.8129 503.985 34.3129 514.985C 34.8129 525.985 48.8129 535.985 68.3129 543.985C 87.8129 551.985 103.313 552.485 103.313 552.485"/>
</g>
<g>
<path fill="#ff9f3f" stroke-width="6" stroke="#000000" d="M 259.587 255.235C 259.587 312.914 216.749 359.674 163.908 359.674C 111.067 359.674 68.2297 312.914 68.2297 255.235L 259.587 255.235z"/>
<path fill="none" stroke-width="6" stroke="#000000" d="M 255.698 285.235C 255.698 285.235 271.198 277.235 281.698 277.235C 292.198 277.235 293.698 288.735 293.198 299.735C 292.698 310.735 278.698 320.735 259.198 328.735C 239.698 336.735 224.198 337.235 224.198 337.235"/>
</g>
<g>
<path fill="#ff9f3f" stroke-width="6" stroke="#000000" d="M 375.266 470.485C 375.266 528.164 418.104 574.924 470.945 574.924C 523.786 574.924 566.624 528.164 566.624 470.485L 375.266 470.485z"/>
<path fill="none" stroke-width="6" stroke="#000000" d="M 379.156 500.485C 379.156 500.485 363.656 492.485 353.156 492.485C 342.656 492.485 341.156 503.985 341.656 514.985C 342.156 525.985 356.156 535.985 375.656 543.985C 395.156 551.985 410.656 552.485 410.656 552.485"/>
</g>
<g>
<g>
<path fill="#ff9f3f" stroke-width="6" stroke="#000000" d="M 255.795 685.735C 255.795 743.414 212.958 790.174 160.117 790.174C 107.276 790.174 64.4382 743.414 64.4382 685.735L 255.795 685.735z"/>
<path fill="none" stroke-width="6" stroke="#000000" d="M 251.906 715.735C 251.906 715.735 267.406 707.735 277.906 707.735C 288.406 707.735 289.906 719.235 289.406 730.235C 288.906 741.235 274.906 751.235 255.406 759.235C 235.906 767.235 220.406 767.735 220.406 767.735"/>
</g>
<g>
<path fill="#ff9f3f" stroke-width="6" stroke="#000000" d="M 563.138 685.735C 563.138 743.414 520.301 790.174 467.46 790.174C 414.619 790.174 371.781 743.414 371.781 685.735L 563.138 685.735z"/>
<path fill="none" stroke-width="6" stroke="#000000" d="M 559.249 715.735C 559.249 715.735 574.749 707.735 585.249 707.735C 595.749 707.735 597.249 719.235 596.749 730.235C 596.249 741.235 582.249 751.235 562.749 759.235C 543.249 767.235 527.749 767.735 527.749 767.735"/>
</g>
</g>
<g>
<g>
<path fill="#ff9f3f" stroke-width="6" stroke="#000000" d="M 67.9237 39.9848C 67.9237 97.664 110.761 144.424 163.602 144.424C 216.443 144.424 259.281 97.664 259.281 39.9848L 67.9237 39.9848z"/>
<path fill="none" stroke-width="6" stroke="#000000" d="M 71.8129 69.9848C 71.8129 69.9848 56.3129 61.9848 45.8129 61.9848C 35.3129 61.9848 33.8129 73.4848 34.3129 84.4848C 34.8129 95.4848 48.8129 105.485 68.3129 113.485C 87.8129 121.485 103.313 121.985 103.313 121.985"/>
</g>
<g>
<path fill="#ff9f3f" stroke-width="6" stroke="#000000" d="M 375.266 39.9848C 375.266 97.664 418.104 144.424 470.945 144.424C 523.786 144.424 566.624 97.664 566.624 39.9848L 375.266 39.9848z"/>
<path fill="none" stroke-width="6" stroke="#000000" d="M 379.156 69.9848C 379.156 69.9848 363.656 61.9848 353.156 61.9848C 342.656 61.9848 341.156 73.4848 341.656 84.4848C 342.156 95.4848 356.156 105.485 375.656 113.485C 395.156 121.485 410.656 121.985 410.656 121.985"/>
</g>
</g>
<g>
<path fill="#ff9f3f" stroke-width="6" stroke="#000000" d="M 566.93 255.235C 566.93 312.914 524.092 359.674 471.251 359.674C 418.41 359.674 375.573 312.914 375.573 255.235L 566.93 255.235z"/>
<path fill="none" stroke-width="6" stroke="#000000" d="M 563.041 285.235C 563.041 285.235 578.541 277.235 589.041 277.235C 599.541 277.235 601.041 288.735 600.541 299.735C 600.041 310.735 586.041 320.735 566.541 328.735C 547.041 336.735 531.541 337.235 531.541 337.235"/>
</g>
<g>
<g>
<path fill="#ff9f3f" stroke-width="6" stroke="#000000" d="M 221.594 577.11C 221.594 634.789 264.432 681.549 317.273 681.549C 370.114 681.549 412.951 634.789 412.951 577.11L 221.594 577.11z"/>
<path fill="none" stroke-width="6" stroke="#000000" d="M 225.483 607.11C 225.483 607.11 209.983 599.11 199.483 599.11C 188.983 599.11 187.483 610.61 187.983 621.61C 188.483 632.61 202.483 642.61 221.983 650.61C 241.483 658.61 256.983 659.11 256.983 659.11"/>
</g>
<g>
<path fill="#ff9f3f" stroke-width="6" stroke="#000000" d="M 413.257 148.61C 413.257 206.289 370.42 253.049 317.579 253.049C 264.738 253.049 221.9 206.289 221.9 148.61L 413.257 148.61z"/>
<path fill="none" stroke-width="6" stroke="#000000" d="M 409.368 178.61C 409.368 178.61 424.868 170.61 435.368 170.61C 445.868 170.61 447.368 182.11 446.868 193.11C 446.368 204.11 432.368 214.11 412.868 222.11C 393.368 230.11 377.868 230.61 377.868 230.61"/>
</g>
</g>
</g>
</svg>