<svg xmlns="http://www.w3.org/2000/svg"
	xmlns:xlink="http://www.w3.org/1999/xlink"
	viewBox="31.6 12.4 577 792"
	width="288" height="396">
<g id="scene">
    <set attributeName="opacity" to="1" 
		    fill="freeze" begin="btn1.click"/>
    <set attributeName="opacity" to="0" 
		    fill="freeze" begin="btn2.click"/>
    <set attributeName="opacity" to="0" 
		    fill="freeze" begin="scene.load"/>
<g>
<path fill="#007f7f" stroke="none" d="M 608.612 804.441L 608.612 12.4409L 31.6118 12.4409L 31.6118 804.441L 608.612 804.441z"/>
</g>
<g>
<path fill="#00ff7f" stroke="none" d="M 31.6118 804.441L 31.6118 380.108L 608.612 216.441L 608.487 804.441L 31.6118 804.441z"/>
<path fill="#9f3f3f" stroke-width="6" stroke="#7f0000" d="M 304.612 592.441C 284.612 590.441 264.612 592.441 246.612 600.441C 228.612 608.441 214.612 624.441 194.612 632.441C 186.612 634.441 176.612 630.441 168.612 632.441C 150.612 638.441 140.612 656.441 134.612 672.441C 130.612 678.441 130.612 692.441 138.612 690.441C 202.612 684.441 266.612 688.441 328.612 670.441C 328.612 670.441 328.612 666.441 328.612 664.441C 328.612 662.441 330.612 662.441 332.612 662.441C 334.612 650.441 328.612 636.441 340.612 626.441C 340.612 624.441 340.612 622.441 340.612 620.441C 346.612 618.441 348.612 612.441 354.612 610.441"/>
</g>
<g>
<path  fill="#7fbf7f" stroke-width="6" stroke="#3f9f3f" d="M 504.612 610.441C 489.433 615.5 477.945 618.441 454.612 631.108C 431.278 643.774 387.278 695.108 422.612 704.441C 457.945 713.774 478.612 710.441 506.612 706.441C 532.612 700.441 552.612 682.441 567.278 668.441C 581.945 654.441 611.945 611.774 580.612 606.441C 549.278 601.108 510.612 608.441 504.612 610.441z"/>
<path fill="none" stroke-width="6" stroke="#3f9f3f" d="M 424.612 624.441C 414.612 624.441 464.612 632.441 456.612 632.441C 418.612 628.441 386.612 616.441 348.612 608.441C 270.612 592.441 188.612 555.108 188.612 555.108L 31.4451 545.108"/>
<path fill="none" stroke-width="6" stroke="#3f9f3f" d="M 185.174 704.691C 243.174 680.691 293.174 642.691 347.174 612.691"/>
<path fill="none" stroke-width="6" stroke="#3f9f3f" d="M 385.174 616.691C 387.174 616.691 389.174 618.691 391.174 618.691C 395.174 616.691 399.174 612.691 405.174 610.691C 459.174 596.691 509.174 582.691 561.174 570.691"/>
<path fill="none" stroke-width="6" stroke="#3f9f3f" d="M 194.612 558.441C 166.612 532.441 129.817 515.939 100.612 498.441C 75.1072 483.16 78.8245 475.433 63.3261 467.964"/>
</g>
<g>
<g>
<path fill="none" stroke-width="4" stroke="#00bf3f" d="M 310.677 412.823L 310.692 385.087L 299.221 385.08L 299.206 412.817"/>
<path fill="none" stroke-width="4" stroke="#00bf3f" d="M 299.201 422.774L 299.116 579.236L 304.612 598.441L 310.587 579.242L 310.672 422.958"/>
<path fill="none" stroke-width="4" stroke="#00bf3f" d="M 285.783 422.665L 324.181 422.685L 324.186 412.932L 285.789 412.911L 285.783 422.665z"/>
</g>
<g>
<path fill="none" stroke-width="4" stroke="#00bf3f" d="M 281.513 408.83L 279.111 381.198L 267.683 382.191L 270.085 409.823"/>
<path fill="none" stroke-width="4" stroke="#00bf3f" d="M 270.948 419.743L 284.498 575.615L 291.646 594.268L 295.925 574.622L 282.391 418.926"/>
<path fill="none" stroke-width="4" stroke="#00bf3f" d="M 257.572 420.803L 295.825 417.478L 294.98 407.761L 256.727 411.087L 257.572 420.803z"/>
</g>
<g>
<path fill="none" stroke-width="4" stroke="#00bf3f" d="M 249.011 404.488L 243.565 377.292L 232.317 379.544L 237.763 406.74"/>
<path fill="none" stroke-width="4" stroke="#00bf3f" d="M 240.813 416.132L 264.971 570.714L 273.376 588.835L 276.304 568.943L 252.173 414.537"/>
<path fill="none" stroke-width="4" stroke="#00bf3f" d="M 225.656 418.204L 263.641 412.597L 262.217 402.948L 224.232 408.556L 225.656 418.204z"/>
</g>
<g>
<path fill="none" stroke-width="4" stroke="#00bf3f" d="M 216.496 398.436L 208.701 371.818L 197.693 375.042L 205.488 401.66"/>
<path fill="none" stroke-width="4" stroke="#00bf3f" d="M 209.344 410.75L 246.881 562.637L 256.833 579.957L 258.016 559.885L 220.522 408.171"/>
<path fill="none" stroke-width="4" stroke="#00bf3f" d="M 194.425 414.135L 231.777 405.239L 229.517 395.751L 192.166 404.647L 194.425 414.135z"/>
</g>
<g>
<path fill="none" stroke-width="4" stroke="#00bf3f" d="M 182.471 396.514L 172.386 370.677L 161.701 374.848L 171.786 400.685"/>
<path fill="none" stroke-width="4" stroke="#00bf3f" d="M 176.419 409.405L 227.049 557.441L 238.472 573.827L 237.902 553.729L 187.33 405.861"/>
<path fill="none" stroke-width="4" stroke="#00bf3f" d="M 161.853 414.076L 198.287 401.959L 195.209 392.705L 158.775 404.822L 161.853 414.076z"/>
</g>
<g>
<path fill="none" stroke-width="4" stroke="#00bf3f" d="M 337.368 419.474L 339.77 391.842L 351.197 392.835L 348.795 420.467"/>
<path fill="none" stroke-width="4" stroke="#00bf3f" d="M 347.933 430.386L 334.383 586.259L 327.234 604.912L 322.955 585.265L 336.49 429.57"/>
<path fill="none" stroke-width="4" stroke="#00bf3f" d="M 361.309 431.447L 323.056 428.122L 323.9 418.405L 362.153 421.73L 361.309 431.447z"/>
</g>
<g>
<path fill="none" stroke-width="4" stroke="#00bf3f" d="M 374.706 424.35L 379.507 397.032L 390.804 399.018L 386.003 426.335"/>
<path fill="none" stroke-width="4" stroke="#00bf3f" d="M 384.28 436.141L 357.198 590.238L 348.452 608.197L 345.901 588.253L 372.952 434.331"/>
<path fill="none" stroke-width="4" stroke="#00bf3f" d="M 397.512 438.364L 359.695 431.717L 361.383 422.111L 399.2 428.758L 397.512 438.364z"/>
</g>
<g>
<path fill="none" stroke-width="4" stroke="#00bf3f" d="M 405.713 429.981L 413.508 403.364L 424.516 406.587L 416.721 433.205"/>
<path fill="none" stroke-width="4" stroke="#00bf3f" d="M 412.865 442.296L 375.327 594.183L 365.375 611.503L 364.192 591.431L 401.687 439.717"/>
<path fill="none" stroke-width="4" stroke="#00bf3f" d="M 427.783 445.681L 390.431 436.785L 392.691 427.297L 430.043 436.193L 427.783 445.681z"/>
</g>
<g>
<path fill="none" stroke-width="4" stroke="#00bf3f" d="M 437.98 438.37L 448.065 412.533L 458.75 416.704L 448.665 442.541"/>
<path fill="none" stroke-width="4" stroke="#00bf3f" d="M 444.032 451.261L 393.402 599.297L 381.978 615.683L 382.549 595.585L 433.121 447.717"/>
<path fill="none" stroke-width="4" stroke="#00bf3f" d="M 458.598 455.932L 422.164 443.815L 425.242 434.561L 461.676 446.678L 458.598 455.932z"/>
</g>
    <g>
        <path fill="none" stroke-width="4" stroke="#00bf3f" d="M 472.62 450.601L 484.918 425.742L 495.199 430.828L 482.901 455.687"/>
        <path fill="none" stroke-width="4" stroke="#00bf3f" d="M 477.525 463.97L 414.188 607.03L 401.38 622.358L 403.7 602.386L 466.965 459.489"/>
        <path fill="none" stroke-width="4" stroke="#00bf3f" d="M 491.629 469.894L 456.39 454.648L 460.262 445.697L 495.501 460.943L 491.629 469.894z"/>
    </g>
</g>
</g>
<g>
    <g>
        <path fill="#9f3f3f" stroke-width="6" stroke="#000000" d="M 536.034 264.286L 575.28 225.082L 559.067 208.851L 519.821 248.055"/>
        <path fill="#ffffff" stroke-width="6" stroke="#000000" d="M 505.732 262.128L 284.342 483.279L 264.953 518.211L 300.555 499.51L 521.694 278.611"/>
        <path fill="#ff7f7f" stroke-width="6" stroke="#000000" d="M 486.911 242.999L 541.184 297.331L 554.985 283.545L 500.712 229.213L 486.911 242.999z"/>
        <animateTransform attributeName="transform" type="scale" from="1 1" to=".5 .5"
                begin="btn1.click +1" dur="0.5" additive="sum" fill="freeze"/>
        <animateTransform attributeName="transform" type="rotate" from="0 120 315" to="-30 120 315"
                begin="btn1.click +1" dur="0.5" additive="sum" fill="freeze"/>
        <animateMotion attributeName="transform" from="0 0" to="192 404"
                begin="btn1.click +1" dur="0.5" additive="sum" fill="freeze"/>

        <animateMotion attributeName="transform" from="0 0" to="-192 -404"
                begin="btn2.click" dur="0.5" additive="sum" fill="freeze"/>
        <animateTransform attributeName="transform" type="rotate" from="0 240 315" to="-30 120 315"
                begin="btn2.click" dur="0.5" additive="sum" fill="freeze"/>
        <animateTransform attributeName="transform" type="scale" to="1 1"
                begin="btn2.click" dur="0.5" additive="sum" fill="freeze"/>
    </g>
    <g>
        <path fill="#9f3f3f" stroke-width="6" stroke="#000000" d="M 89.277 383.08L 50.0305 422.284L 66.2437 438.515L 105.49 399.311"/>
        <path fill="#ffffff" stroke-width="6" stroke="#000000" d="M 119.579 385.237L 340.969 164.087L 360.357 129.155L 324.756 147.856L 103.617 368.755"/>
        <path fill="#ff7f7f" stroke-width="6" stroke="#000000" d="M 138.4 404.367L 84.1268 350.035L 70.326 363.821L 124.599 418.153L 138.4 404.367z"/>
        <animateTransform attributeName="transform" type="scale" from="1 1" to=".5 .5"
                begin="btn1.click +3" dur="0.5" additive="sum" fill="freeze"/>
        <animateTransform attributeName="transform" type="rotate" from="0 120 315" to="-215 120 315"
                begin="btn1.click +3" dur="0.5" additive="sum" fill="freeze"/>
        <animateMotion attributeName="transform" from="0 0" to="332 305"
                begin="btn1.click +3" dur="0.5" additive="sum" fill="freeze"/>

        <animateMotion attributeName="transform" from="0 0" to="-332 -305"
                begin="btn2.click +0.1" dur="0.5" additive="sum" fill="freeze"/>
        <animateTransform attributeName="transform" type="rotate" from="0 120 315" to="475 120 315"
                begin="btn2.click +0.2" dur="0.5" additive="sum" fill="freeze"/>
        <animateTransform attributeName="transform" type="scale" to="1 1"
                begin="btn2.click +0.3" dur="0.5" additive="sum" fill="freeze"/>
    </g>
    <g>
        <path fill="#9f3f3f" stroke-width="6" stroke="#000000" d="M 89.277 86.8799L 50.0305 47.6758L 66.2437 31.4451L 105.49 70.649"/>
        <path fill="#ffffff" stroke-width="6" stroke="#000000" d="M 119.579 84.7222L 340.969 305.873L 360.357 340.805L 324.756 322.104L 103.617 101.204"/>
        <path fill="#ff7f7f" stroke-width="6" stroke="#000000" d="M 138.4 65.5927L 84.1268 119.925L 70.326 106.139L 124.599 51.8069L 138.4 65.5927z"/>
        <animateTransform attributeName="transform" type="scale" from="1 1" to=".5 .5"
                begin="btn1.click +1.25" dur="0.5" additive="sum" fill="freeze"/>
        <animateTransform attributeName="transform" type="rotate" from="0 120 315" to="50 120 315"
                begin="btn1.click +1.25" dur="0.5" additive="sum" fill="freeze"/>
        <animateMotion attributeName="transform" from="0 0" to="200 347"
                begin="btn1.click +1.25" dur="0.5" additive="sum" fill="freeze"/>
                
        <animateMotion attributeName="transform" from="0 0" to="-200 -347"
                begin="btn2.click +0.2" dur="0.5" additive="sum" fill="freeze"/>
        <animateTransform attributeName="transform" type="rotate" from="0 120 315" to="410 120 315"
                begin="btn2.click +0.3" dur="0.5" additive="sum" fill="freeze"/>
        <animateTransform attributeName="transform" type="scale" to="1 1"
                begin="btn2.click +0.4" dur="0.5" additive="sum" fill="freeze"/>
    </g>
    <g>
        <path fill="#9f3f3f" stroke-width="6" stroke="#000000" d="M 536.034 86.8799L 575.28 47.6758L 559.067 31.4451L 519.821 70.649"/>
        <path fill="#ffffff" stroke-width="6" stroke="#000000" d="M 505.732 84.7222L 284.342 305.873L 264.953 340.805L 300.555 322.104L 521.694 101.204"/>
        <path fill="#ff7f7f" stroke-width="6" stroke="#000000" d="M 486.911 65.5927L 541.184 119.925L 554.985 106.139L 500.712 51.8069L 486.911 65.5927z"/>
        <animateTransform attributeName="transform" type="scale" from="1 1" to=".5 .5"
                begin="btn1.click +2.75" dur="0.5" additive="sum" fill="freeze"/>
        <animateTransform attributeName="transform" type="rotate" from="0 120 315" to="-50 120 315"
                begin="btn1.click +2.75" dur="0.5" additive="sum" fill="freeze"/>
        <animateMotion attributeName="transform" from="0 0" to="175 485"
                begin="btn1.click +2.75" dur="0.5" additive="sum" fill="freeze"/>

        <animateMotion attributeName="transform" from="0 0" to="-175 -485"
                begin="btn2.click +0.3" dur="0.5" additive="sum" fill="freeze"/>
        <animateTransform attributeName="transform" type="rotate" from="0 120 315" to="310 120 315"
                begin="btn2.click +0.4" dur="0.5" additive="sum" fill="freeze"/>
        <animateTransform attributeName="transform" type="scale" to="1 1"
                begin="btn2.click +0.5" dur="0.5" additive="sum" fill="freeze"/>
    </g>
    <g>
        <path fill="#9f3f3f" stroke-width="6" stroke="#000000" d="M 536.034 559.049L 575.28 598.253L 559.067 614.483L 519.821 575.279"/>
        <path fill="#ffffff" stroke-width="6" stroke="#000000" d="M 505.732 561.206L 284.342 340.055L 264.953 305.123L 300.555 323.825L 521.694 544.724"/>
        <path fill="#ff7f7f" stroke-width="6" stroke="#000000" d="M 486.911 580.336L 541.184 526.004L 554.985 539.789L 500.712 594.121L 486.911 580.336z"/>
        <animateTransform attributeName="transform" type="scale" from="1 1" to=".5 .5"
                begin="btn1.click +1.5" dur="0.5" additive="sum" fill="freeze"/>
        <animateTransform attributeName="transform" type="rotate" from="0 120 315" to="-135 120 315"
                begin="btn1.click +1.5" dur="0.5" additive="sum" fill="freeze"/>
        <animateMotion attributeName="transform" from="0 0" to="300 490"
                begin="btn1.click +1.5" dur="0.5" additive="sum" fill="freeze"/>
                
        <animateMotion attributeName="transform" from="0 0" to="-300 -490"
                begin="btn2.click +0.4" dur="0.5" additive="sum" fill="freeze"/>
        <animateTransform attributeName="transform" type="rotate" from="0 120 315" to="495 120 315"
                begin="btn2.click +0.5" dur="0.5" additive="sum" fill="freeze"/>
        <animateTransform attributeName="transform" type="scale" to="1 1"
                begin="btn2.click +0.6" dur="0.5" additive="sum" fill="freeze"/>
    </g>
    <g>
        <path fill="#9f3f3f" stroke-width="6" stroke="#000000" d="M 89.277 557.33L 50.0305 596.534L 66.2437 612.765L 105.49 573.561"/>
        <path fill="#ffffff" stroke-width="6" stroke="#000000" d="M 119.579 559.487L 340.969 338.337L 360.357 303.405L 324.756 322.106L 103.617 543.005"/>
        <path fill="#ff7f7f" stroke-width="6" stroke="#000000" d="M 138.4 578.617L 84.1268 524.285L 70.326 538.071L 124.599 592.403L 138.4 578.617z"/>
        <animateTransform attributeName="transform" type="scale" from="1 1" to=".5 .5"
                begin="btn1.click +3" dur="0.5" additive="sum" fill="freeze"/>
        <animateTransform attributeName="transform" type="rotate" from="0 120 315" to="125 120 315"
                begin="btn1.click +3" dur="0.5" additive="sum" fill="freeze"/>
        <animateMotion attributeName="transform" from="0 0" to="280 330"
                begin="btn1.click +3" dur="0.5" additive="sum" fill="freeze"/>
                
        <animateMotion attributeName="transform" from="0 0" to="-280 -330"
                begin="btn2.click +0.5" dur="0.5" additive="sum" fill="freeze"/>
        <animateTransform attributeName="transform" type="rotate" from="0 120 315" to="235 120 315"
                begin="btn2.click +0.6" dur="0.5" additive="sum" fill="freeze"/>
        <animateTransform attributeName="transform" type="scale" to="1 1"
                begin="btn2.click +0.7" dur="0.5" additive="sum" fill="freeze"/>
    </g>
    <path fill="white" stroke-width="6" stroke="#000000" d="M 315.112 312.441L 324.756 322.106L 360.357 340.805L 340.969 305.873L 331.278 296.108">
        <set attributeName="opacity" to="0" begin="btn1.click +1"/>
        <set attributeName="opacity" to="1" begin="btn2.click +1"/>
    </path>
    <g>
        <path fill="#9f3f3f" stroke-width="6" stroke="#000000" d="M 89.277 263.286L 50.0305 224.082L 66.2437 207.851L 105.49 247.055"/>
        <path fill="#ffffff" stroke-width="6" stroke="#000000" d="M 119.579 261.128L 340.969 482.279L 360.357 517.211L 324.756 498.51L 103.617 277.611"/>
        <path fill="#ff7f7f" stroke-width="6" stroke="#000000" d="M 138.4 241.999L 84.1268 296.331L 70.326 282.545L 124.599 228.213L 138.4 241.999z"/>
        <animateTransform attributeName="transform" type="scale" from="1 1" to=".5 .5"
                begin="btn1.click +1.75" dur="0.5" additive="sum" fill="freeze"/>
        <animateTransform attributeName="transform" type="rotate" from="0 120 315" to="30 120 315"
                begin="btn1.click +1.75" dur="0.5" additive="sum" fill="freeze"/>
        <animateMotion attributeName="transform" from="0 0" to="144 280"
                begin="btn1.click +1.75" dur="0.5" additive="sum" fill="freeze"/>
                
        <animateMotion attributeName="transform" from="0 0" to="-144 -280"
                begin="btn2.click +0.6" dur="0.5" additive="sum" fill="freeze"/>
        <animateTransform attributeName="transform" type="rotate" from="0 120 315" to="330 120 315"
                begin="btn2.click +0.7" dur="0.5" additive="sum" fill="freeze"/>
        <animateTransform attributeName="transform" type="scale" to="1 1"
                begin="btn2.click +0.8" dur="0.5" additive="sum" fill="freeze"/>
    </g>
    <g>
        <path fill="#ffffff" stroke="none" d="M 141.862 330.441L 157.362 347.441L 194.362 310.441L 176.862 295.441L 141.862 330.441z"/>
        <path fill="none" stroke-width="6" stroke="#000000" d="M 140.278 332.108L 180.612 291.941"/>
        <path fill="none" stroke-width="6" stroke="#000000" d="M 157.216 347.545L 197.549 307.378"/>
        <path fill="#ffffff" stroke="none" d="M 292.487 474.733L 307.987 491.733L 344.987 454.733L 327.487 439.733L 292.487 474.733z"/>
        <path fill="none" stroke-width="6" stroke="#000000" d="M 290.903 476.399L 331.237 436.233"/>
        <path fill="none" stroke-width="6" stroke="#000000" d="M 307.841 491.837L 348.174 451.67"/>
        <set attributeName="opacity" to="0" begin="btn1.click +1"/>
        <set attributeName="opacity" to="1" begin="btn2.click +1"/>
    </g>
    <g>
        <path fill="#9f3f3f" stroke-width="6" stroke="#000000" d="M 536.034 440.192L 575.28 400.988L 559.067 384.758L 519.821 423.961"/>
        <path fill="#ffffff" stroke-width="6" stroke="#000000" d="M 505.732 438.035L 284.342 659.186L 264.953 694.118L 300.555 675.416L 521.694 454.517"/>
        <path fill="#ff7f7f" stroke-width="6" stroke="#000000" d="M 486.911 418.905L 541.184 473.237L 554.985 459.451L 500.712 405.119L 486.911 418.905z"/>
        <animateTransform attributeName="transform" type="scale" from="1 1" to=".5 .5"
                begin="btn1.click +2.75" dur="0.5" additive="sum" fill="freeze"/>
        <animateTransform attributeName="transform" type="rotate" from="0 120 315" to="-25 120 315"
                begin="btn1.click +2.75" dur="0.5" additive="sum" fill="freeze"/>
        <animateMotion attributeName="transform" from="0 0" to="174 320"
                begin="btn1.click +2.75" dur="0.5" additive="sum" fill="freeze"/>
                
        <animateMotion attributeName="transform" from="0 0" to="-174 -320"
                begin="btn2.click +0.7" dur="0.5" additive="sum" fill="freeze"/>
        <animateTransform attributeName="transform" type="rotate" from="0 120 315" to="385 120 315"
                begin="btn2.click +0.8" dur="0.5" additive="sum" fill="freeze"/>
        <animateTransform attributeName="transform" type="scale" to="1 1"
                begin="btn2.click +0.9" dur="0.5" additive="sum" fill="freeze"/>
    </g>
    <g id="sword9" stroke-width="6" stroke="#000000">
        <path fill="#9f3f3f" d="M 536.034 733.83L 575.28 773.034L 559.067 789.265L 519.821 750.061"/>
        <path fill="#ffffff" d="M 505.732 735.987L 284.342 514.837L 264.953 479.905L 300.555 498.606L 521.694 719.505"/>
        <path fill="#ff7f7f" d="M 486.911 755.117L 541.184 700.785L 554.985 714.571L 500.712 768.903L 486.911 755.117z"/>
        <animateTransform attributeName="transform" type="scale" from="1 1" to=".5 .5"
                begin="btn1.click +2" dur="0.5" additive="sum" fill="freeze"/>
        <animateTransform attributeName="transform" type="rotate" from="0 120 315" to="-110 120 315"
                begin="btn1.click +2" dur="0.5" additive="sum" fill="freeze"/>
        <animateMotion attributeName="transform" from="0 0" to="288 562"
                begin="btn1.click +2" dur="0.5" additive="sum" fill="freeze"/>

        <animateMotion attributeName="transform" from="0 0" to="-288 -562"
                begin="btn2.click +0.8" dur="0.5" additive="sum" fill="freeze"/>
        <animateTransform attributeName="transform" type="rotate" from="0 120 315" to="470 120 315"
                begin="btn2.click +0.9" dur="0.5" additive="sum" fill="freeze"/>
        <animateTransform attributeName="transform" type="scale" to="1 1"
                begin="btn2.click +1" dur="0.5" additive="sum" fill="freeze"/>
    </g>
    <g stroke-width="6" stroke="#000000">
        <path fill="#9f3f3f" d="M 89.277 733.83L 50.0305 773.034L 66.2437 789.265L 105.49 750.061"/>
        <path fill="#ffffff" d="M 119.579 735.987L 340.969 514.837L 360.357 479.905L 324.756 498.606L 103.617 719.505"/>
        <path fill="#ff7f7f" d="M 138.4 755.117L 84.1268 700.785L 70.326 714.571L 124.599 768.903L 138.4 755.117z"/>
        <animateTransform attributeName="transform" type="scale" from="1 1" to=".5 .5"
                begin="btn1.click +2.5" dur="0.5" additive="sum" fill="freeze"/>
        <animateTransform attributeName="transform" type="rotate" from="0 120 735" to="115 120 735"
                begin="btn1.click +2.5" dur="0.5" additive="sum" fill="freeze"/>
        <animateMotion attributeName="transform" from="0 0" to="114 46"
                begin="btn1.click +2.5" dur="0.5" additive="sum" fill="freeze"/>
                
        <animateMotion attributeName="transform" from="0 0" to="-114 -46"
                begin="btn2.click +0.9" dur="0.5" additive="sum" fill="freeze"/>
        <animateTransform attributeName="transform" type="rotate" from="0 120 735" to="245 120 735"
                begin="btn2.click +1" dur="0.5" additive="sum" fill="freeze"/>
        <animateTransform attributeName="transform" type="scale" to="1 1"
                begin="btn2.click +1.1" dur="0.5" additive="sum" fill="freeze"/>
    </g>
    <path fill="#ffffff" stroke-width="6" stroke="#000000"
            d="M 315.838 489.696L 325.482 499.361L 361.084 518.06L 341.695 483.128L 332.005 473.363">
        <set attributeName="opacity" to="0" begin="btn1.click +1"/>
        <set attributeName="opacity" to="1" begin="btn2.click +1"/>
    </path>
</g>
</svg>