<svg xmlns="http://www.w3.org/2000/svg"
	xmlns:xlink="http://www.w3.org/1999/xlink"
	width="599.434" height="793.445"
	viewBox="6.2 0 577 792">
<g>
<path fill="#3fff9f" stroke="none" d="M 583.151 792L 583.151 0L 6.15119 0L 6.15119 792L 583.151 792z"/>
</g>
<g>
<path fill="none" stroke-width="1" stroke="#3f9f9f" d="M 261.193 337.5C 261.484 338 261.318 338.667 261.651 339C 262.818 340.333 263.651 342 264.651 343.5"/>
<path fill="#7fffff" stroke="none" d="M 583.151 300L 583.151 0L 6.15119 0L 6.15119 300L 583.151 300z"/>
<path fill="#9f3fff" stroke="none" d="M 6.65119 390.25L 256.151 343L 257.651 194.5L 245.651 194.5C 245.651 194.5 235.151 137.5 196.151 142C 157.151 146.5 158.651 184 158.651 184L 160.151 250L 143.651 257.5L 85.1512 112L 46.1512 256L 35.6512 257.5C 35.6512 257.5 35.6512 235 19.1512 226C 2.65119 217 6.40119 218 6.40119 218L 6.65119 390.25z"/>
<path fill="#00ff7f" stroke-width="1" stroke="#007f7f" d="M 259.901 319.896C 259.194 319.66 258.234 319.562 257.401 319.896C 256.734 320.062 256.401 320.896 256.068 321.562C 255.734 322.896 255.568 324.229 256.068 325.396C 256.901 327.562 260.068 328.062 262.068 327.396C 263.234 326.896 262.401 325.062 262.734 323.896C 262.901 322.896 263.068 321.562 262.568 321.062C 261.901 320.396 260.901 320.229 259.901 319.896z"/>
<path fill="none" stroke-width="1" stroke="#007f7f" d="M 259.359 327.667C 259.359 329 260.193 330 260.526 331.167C 261.026 333.333 261.026 335.333 261.193 337.5C 261.339 339.395 258.526 340.333 256.859 341.5L 254.984 344.167L 252.818 343.5"/>
<path fill="none" stroke-width="1" stroke="#007f7f" d="M 259.693 330.667C 258.693 330.667 257.526 331 256.859 330.5C 254.859 329.333 254.526 327 253.526 325C 253.193 324.333 253.359 323.5 253.359 322.667"/>
<path fill="none" stroke-width="1" stroke="#007f7f" d="M 253.526 325C 252.693 325 252.193 324.667 251.693 324.167"/>
<path fill="#ffdfbf" stroke="none" d="M 503.151 204L 487.151 206L 489.151 160L 501.151 162L 445.151 8L 377.151 158L 389.151 156L 388.151 214L 364.151 218.5L 363.818 141.333L 339.818 143.333L 340.151 164.5L 320.484 166.667L 320.214 144.562L 299.38 146.229L 299.151 166.667L 279.151 168.667L 278.651 145L 260.651 145L 262.151 344.5L 580.151 382L 581.651 205L 549.151 150L 503.151 204z"/>
</g>
<g>
<path fill="#ffffff" stroke="none" d="M 227.866 276.829C 227.866 276.829 232.248 216.302 224.915 194.968C 217.582 173.635 164.915 155.635 164.915 155.635L 136.915 168.302L 122.248 158.968C 122.248 158.968 84.9149 184.302 74.9149 203.635C 64.9149 222.968 71.5816 226.302 78.9149 250.968C 86.2483 275.635 92.9149 302.968 92.9149 302.968C 92.9149 302.968 124.915 292.968 160.248 291.635C 195.582 290.302 229.582 294.302 229.582 294.302L 227.866 276.829z"/>
<path fill="#ad6b6b" stroke="none" d="M 97.5816 302.302C 97.5816 302.302 83.5816 332.302 92.2483 352.302C 100.915 372.302 122.248 400.302 147.582 402.302C 172.915 404.302 204.248 398.968 217.582 383.635C 230.915 368.302 238.915 356.968 236.915 333.635C 234.915 310.302 231.582 299.635 231.582 299.635L 228.915 292.302C 228.915 292.302 189.582 286.968 163.582 290.968C 137.582 294.968 97.5816 302.302 97.5816 302.302z"/>
<path fill="#7f00ff" stroke="none" d="M 162.248 314.302C 162.248 314.302 176.248 317.635 176.915 329.635C 177.344 337.356 175.041 347.97 170.248 348.968C 154.248 352.302 142.469 354.224 137.582 343.635C 133.582 334.968 139.582 325.635 145.582 319.635C 151.582 313.635 162.248 314.302 162.248 314.302z"/>
<path fill="#7f00ff" stroke="none" d="M 196.248 316.302C 196.248 316.302 197.582 308.302 208.248 311.635C 218.915 314.968 226.248 321.635 222.915 332.302C 219.582 342.968 211.582 358.302 199.582 348.968C 187.582 339.635 187.582 329.635 190.915 322.302C 194.248 314.968 196.248 316.302 196.248 316.302z"/>
<path fill="#bfffbf" stroke="none" d="M 145.498 339.802C 151.29 332.01 159.04 326.093 165.748 319.135L 160.082 313.468C 152.832 320.927 144.457 327.385 138.457 336.01L 145.498 339.802z"/>
<path fill="#bfffbf" stroke="none" d="M 194.248 339.093C 195.04 329.26 203.873 322.468 210.832 316.177L 205.665 310.052C 196.957 317.76 186.832 326.593 186.248 339.093L 194.248 339.093z"/>
<path fill="#ff7fbf" stroke="none" d="M 159.29 352.635C 162.165 349.885 164.332 346.552 167.123 343.76L 161.373 338.177C 158.832 340.885 156.54 343.885 154.04 346.635L 159.29 352.635z"/>
<path fill="#ff7fbf" stroke="none" d="M 207.915 348.635C 210.54 344.677 214.04 341.427 216.748 337.552C 216.54 337.885 216.332 338.177 216.123 338.51L 212.332 331.427C 207.957 334.677 204.79 339.635 201.373 343.968L 207.915 348.635z"/>
<path fill="#ffffdd" stroke="none" d="M 137.582 364.968C 137.582 364.968 149.582 368.968 172.248 368.968C 194.915 368.968 207.582 368.302 207.582 368.302C 207.582 368.302 208.915 376.968 195.582 384.302C 182.248 391.635 160.915 392.302 149.582 384.968C 138.248 377.635 137.582 364.968 137.582 364.968z"/>
<path fill="#ad6b6b" stroke="none" d="M 34.2483 368.968L 45.5816 366.968C 45.5816 366.968 46.915 360.302 42.2483 349.635C 37.5816 338.968 36.9149 335.635 36.9149 335.635L 44.2483 334.302L 46.9149 338.302L 54.2483 334.968L 62.2483 364.968L 66.2483 365.635L 63.5816 376.302C 63.5816 376.302 68.2483 382.968 63.5816 391.635C 58.9149 400.302 48.9149 400.302 48.9149 400.302C 48.9149 400.302 34.915 402.302 32.2483 391.635C 29.5816 380.968 34.2483 368.968 34.2483 368.968z"/>
<path fill="#ad6b6b" stroke="none" d="M 312.248 464.968C 312.248 464.968 304.248 463.635 296.248 469.635C 288.248 475.635 290.248 483.635 290.248 483.635L 297.582 492.302L 308.915 494.302L 326.915 484.302L 312.248 464.968z"/>
<path fill="#ad6b6b" stroke="none" d="M 322.915 487.635L 330.248 505.635L 335.582 503.635L 326.915 484.302L 322.915 487.635z"/>
<path fill="#bfffff" stroke="none" d="M 333.582 484.302C 333.582 484.302 342.915 468.968 342.915 470.968C 342.915 472.968 350.248 490.302 350.248 490.302L 334.248 490.302L 333.582 484.302z"/>
<path opacity="0.5" fill="#ffffbf" stroke="none" d="M 352.248 547.355C 388.176 547.355 417.302 518.229 417.302 482.302C 417.302 446.374 388.176 417.248 352.248 417.248C 316.321 417.248 287.194 446.374 287.194 482.302C 287.194 518.229 316.321 547.355 352.248 547.355z"/>
<path fill="#ffffff" stroke="none" d="M 148.582 435.302C 148.582 435.302 146.582 466.302 126.582 495.302C 106.582 524.302 96.5816 530.302 83.5816 566.302C 70.5816 602.302 53.5816 655.302 53.5816 655.302L 114.582 660.302L 186.582 662.302C 186.582 662.302 170.582 643.302 162.582 606.302C 154.582 569.302 152.582 558.302 152.582 527.302C 152.582 496.302 151.582 444.302 151.582 444.302L 151.582 430.302L 148.582 435.302z"/>
<path fill="none" stroke-width="4" stroke="#ff7f00" d="M 163.475 176.007L 144.928 204.863L 106.444 210.109L 129.627 233.719L 121.281 269.57L 161.157 249.021L 208.915 265.635L 199.178 234.156L 218.188 209.235L 179.704 205.3L 163.475 176.007z"/>
<path fill="#bfffff" stroke-width="4" stroke="#9f3fff" d="M 147.582 209.552L 168.832 209.552C 168.832 209.552 182.832 211.552 182.832 221.302C 182.832 229.968 172.082 232.302 172.082 232.302L 160.29 232.322L 160.082 244.302L 147.623 244.322L 147.582 209.552z"/>
<path fill="#ffffff" stroke-width="3" stroke="#9f3fff" d="M 159.582 218.552L 159.582 223.052L 164.582 223.052C 164.582 223.052 168.582 223.052 168.582 220.802C 168.582 218.538 164.832 218.552 164.832 218.552L 159.582 218.552z"/>
<path fill="none" stroke-width="4" stroke="#9f3fff" d="M 116.582 196.802L 127.082 198.802L 127.082 184.302L 140.082 193.802L 139.582 177.302L 148.582 180.802L 150.582 172.302"/>
<path fill="none" stroke-width="4" stroke="#9f3fff" d="M 179.582 175.802L 177.082 184.802L 190.082 178.302L 185.082 197.302L 204.582 188.302L 202.082 199.802L 210.582 194.802"/>
<path fill="none" stroke-width="4" stroke="#9f3fff" d="M 105.582 227.802L 113.582 229.802L 103.582 236.802L 121.582 237.302L 107.082 258.802L 117.582 255.802L 111.082 267.302"/>
<path fill="none" stroke-width="4" stroke="#9f3fff" d="M 222.582 224.802L 213.582 227.302L 221.082 236.802L 208.582 235.802L 220.582 254.302L 212.082 253.302L 216.082 263.802"/>
<path fill="none" stroke-width="4" stroke="#9f3fff" d="M 140.082 270.802L 146.582 263.802L 153.582 271.302L 160.582 258.302L 169.582 270.802L 175.582 262.802L 182.582 269.802"/>
<path fill="#bfbfff" stroke="none" d="M 124.582 158.802L 133.082 169.302C 133.082 169.302 109.582 184.302 102.082 197.302C 94.5816 210.302 94.5816 236.802 96.0816 250.302C 97.5816 263.802 99.0816 281.302 99.0816 281.302L 91.0816 283.302C 91.0816 283.302 69.0816 242.302 70.0816 225.802C 71.0816 209.302 75.5816 193.302 88.0816 183.802C 100.582 174.302 124.582 158.802 124.582 158.802z"/>
<path fill="none" stroke-width="4" stroke="#9f3fff" d="M 65.5816 646.302L 70.2483 626.302L 86.9149 628.302L 84.2483 646.968L 74.9149 645.635L 77.5816 635.635"/>
<path fill="none" stroke-width="4" stroke="#9f3fff" d="M 93.5816 646.968L 96.9149 628.302L 112.915 630.302L 111.582 649.635L 102.248 647.635L 104.248 638.302"/>
<path fill="none" stroke-width="4" stroke="#9f3fff" d="M 120.248 649.635L 120.915 631.635L 136.915 631.635L 137.582 649.635L 128.915 648.968L 129.582 639.635"/>
<path fill="none" stroke-width="4" stroke="#9f3fff" d="M 144.915 650.968L 144.915 632.302L 154.915 632.302L 162.915 650.302L 152.248 650.968L 152.248 642.302"/>
<path fill="none" stroke-width="4" stroke="#9f3fff" d="M 172.915 652.302L 164.248 631.635L 172.248 632.302L 182.915 650.968L 176.248 643.635"/>
<path fill="none" stroke-width="4" stroke="#ff7f00" d="M 68.9149 616.968C 68.9149 616.968 76.9149 617.635 105.582 620.302C 134.248 622.968 139.582 624.968 150.915 624.968C 162.248 624.968 166.915 623.635 166.915 623.635L 164.248 612.302C 164.248 612.302 165.582 613.635 148.915 613.635C 132.248 613.635 121.582 610.302 104.915 608.968C 88.2483 607.635 69.5816 604.302 69.5816 604.302"/>
<path fill="none" stroke-width="4" stroke="#ff7f00" d="M 134.915 476.968L 130.915 502.968L 144.248 471.635L 143.582 504.968L 152.248 474.968L 152.248 494.968"/>
<path fill="none" stroke-width="4" stroke="#ff7f00" d="M 124.484 498.667L 121.818 530.667L 135.818 506L 137.151 532L 142.484 518.667L 147.151 531.333L 153.151 514"/>
<path fill="none" stroke-width="4" stroke="#9f3fff" d="M 150.915 446.968C 150.915 446.968 150.248 464.968 148.248 480.968C 146.248 496.968 146.248 490.968 144.248 513.635C 142.248 536.302 140.915 542.968 142.915 552.302C 144.915 561.635 145.582 567.635 145.582 567.635"/>
</g>
<g>
<path fill="none" stroke-width="6" stroke="#7f7f7f" stroke-linejoin="bevel" d="M 128.248 162.302L 134.248 168.968"/>
<path fill="none" stroke-width="6" stroke="#000000" stroke-linejoin="bevel" d="M 101.582 282.302L 89.5816 285.635C 89.5816 285.635 85.5816 278.968 81.5816 258.302C 77.5816 237.635 65.2558 229.047 74.2483 206.302C 85.5816 177.635 123.582 158.968 123.582 158.968L 130.248 163.635"/>
<path fill="none" stroke-width="6" stroke="#000000" d="M 95.5816 302.968C 88.9149 321.635 87.8312 343.027 97.7148 363.002C 122.143 412.372 184.741 413.418 218.761 383.31C 242.328 362.453 239.343 310.864 229.473 295.491"/>
<path fill="none" stroke-width="6" stroke="#000000" d="M 154.489 399.776C 154.489 412.949 152.882 426.122 148.062 439.295C 140.027 463.994 131.714 488.903 115.925 511.745C 102.267 531.505 108.695 520.802 95.0368 543.031C 75.8932 574.188 75.7551 585.843 64.5074 618.775C 59.6869 628.654 53.2597 655 53.2597 655C 53.2597 655 74.1483 656.647 82.1823 656.647C 114.318 661.586 188.232 663.233 188.232 663.233C 188.232 663.233 180.198 646.767 176.984 641.827C 143.241 580.903 156.096 496.926 151.275 431.061"/>
<path fill="none" stroke-width="6" stroke="#000000" d="M 43.6188 333.912C 48.4393 345.438 50.0461 356.964 50.0461 368.491"/>
<path fill="none" stroke-width="6" stroke="#000000" d="M 54.8665 333.912C 56.4733 343.791 61.2938 365.197 61.2938 365.197C 61.2938 365.197 42.012 368.491 32.3712 368.491C 33.978 378.37 27.5507 391.543 35.5848 396.483C 42.012 401.423 54.8665 401.423 61.2938 396.483C 64.5074 394.836 62.9006 384.957 62.9006 378.37C 59.6869 381.663 53.2597 381.663 51.6529 386.603"/>
<path fill="none" stroke-width="6" stroke="#000000" d="M 49.2427 400.599C 42.8154 418.712 43.2768 464.642 53.2597 469.757C 64.5074 475.52 106.284 445.058 122.353 440.118C 128.78 438.471 142.438 433.531 148.865 435.178"/>
<path fill="none" stroke-width="6" stroke="#000000" d="M 152.882 461.524C 176.984 471.403 207.514 473.873 234.829 468.934C 244.47 467.287 255.718 465.64 265.359 463.994C 281.427 462.347 299.102 450.821 311.956 459.054C 323.204 465.64 337.665 505.982 337.665 505.982"/>
<path fill="none" stroke-width="6" stroke="#000000" d="M 324.811 485.4C 318.384 487.046 311.956 496.926 303.119 493.633C 294.281 490.339 297.495 479.636 297.495 479.636C 297.495 479.636 303.922 478.813 308.743 478.813"/>
<path fill="none" stroke-width="6" stroke="#000000" d="M 335.356 489.053C 329.732 483.29 343.39 470.94 343.39 470.94L 349.817 489.053C 349.817 489.053 340.979 494.816 335.356 489.053z"/>
<path fill="none" stroke-width="6" stroke="#000000" d="M 170.557 664.88C 176.984 689.579 188.232 707.691 199.479 730.744C 201.086 730.744 213.941 724.157 217.154 724.157C 225.188 719.218 233.223 710.985 241.257 704.398"/>
<path fill="none" stroke-width="6" stroke="#000000" d="M 88.6096 661.586C 91.8232 679.699 64.5074 691.225 51.6529 702.752C 51.6529 704.398 58.0801 715.924 61.2938 717.571C 72.5414 719.218 78.9687 727.451 78.9687 727.451L 99.8572 729.097"/>
<path fill="none" stroke-width="6" stroke="#000000" d="M 147.61 318.286C 137.969 323.226 134.805 338.509 139.09 345.644C 144.367 354.431 165.548 355.016 172.833 346.193C 178.725 339.057 178.725 328.08 173.369 320.945C 168.013 313.809 159.926 311.975 147.61 318.286z"/>
<path fill="none" stroke-width="6" stroke="#000000" d="M 193.521 317.566C 187.629 324.152 184.416 336.227 190.307 343.911C 196.199 351.596 210.66 350.498 217.087 344.46C 223.515 338.423 225.741 324.735 220.385 317.051C 215.029 309.367 199.413 310.979 193.521 317.566z"/>
<path fill="none" stroke-width="6" stroke="#000000" d="M 137.349 325.13C 114.318 321.288 107.121 320.646 92.8944 316.897"/>
<path fill="none" stroke-width="6" stroke="#000000" d="M 134.136 363.002C 159.5 369.667 187.059 370.15 208.585 367.393C 205.371 377.821 194.659 385.505 182.34 388.25C 170.021 390.994 160.38 390.445 149.668 384.408C 138.956 378.37 136.278 372.333 134.136 363.002z"/>
<path fill="none" stroke-width="6" stroke="#000000" d="M 232.151 226.882C 234.294 200.537 219.297 187.364 201.622 173.642C 183.947 159.92 163.594 157.176 163.594 157.176C 163.594 157.176 133.6 165.409 115.39 184.071C 97.1792 202.732 91.2876 205.476 93.9656 230.175C 96.6436 254.875 98.9149 281.988 98.9149 283.635C 99.3722 284.104 128.178 279.916 160.248 278.302C 185.863 277.012 214.064 278.527 227.866 276.829C 227.866 276.829 230.009 253.228 232.151 226.882z"/>
<path fill="none" stroke-width="6" stroke="#000000" d="M 89.8485 282.72L 91.5816 301.635C 91.5816 301.635 126.915 295.635 156.248 292.302C 180.786 289.513 230.009 293.295 230.009 293.295L 227.331 278.476"/>
<path fill="none" stroke-width="6" stroke="#000000" d="M 43.6188 368.491L 42.012 386.603"/>
</g>
<g>
<path fill="#ffffbf" stroke="none" d="M 404.151 134C 404.151 134 443.151 127 456.151 139C 469.151 151 475.151 165 470.151 184C 465.151 203 449.151 229 423.151 224C 397.151 219 373.151 197 382.151 168C 391.151 139 404.151 134 404.151 134z"/>
<path fill="#3f9fff" stroke="none" d="M 471.151 173C 472.151 157 466.151 150 456.151 139C 446.151 128 436.151 130 416.151 131C 396.151 132 395.151 146 395.151 146L 409.151 140C 409.151 140 411.151 137 409.151 147C 407.151 157 414.151 163 425.151 167C 436.151 171 443.151 161 443.151 161L 443.151 149C 443.151 149 452.151 155 460.151 167C 468.151 179 466.151 193 466.151 193L 471.151 173z"/>
<path fill="#ffffff" stroke="none" d="M 336.151 376C 336.151 376 356.151 346 372.151 333C 388.151 320 421.151 305 421.151 305C 421.151 305 425.151 324 430.151 344C 435.151 364 440.151 401 440.151 401L 424.151 403C 424.151 403 400.151 401 379.151 394C 358.151 387 336.151 376 336.151 376z"/>
<path fill="#ff0000" stroke="none" d="M 397.151 334C 397.151 334 382.151 332 386.151 343C 390.151 354 395.151 355 399.151 349C 403.151 343 406.151 339 397.151 334z"/>
<path fill="#ff0000" stroke="none" d="M 362.151 354C 369.151 359 370.151 360 364.151 365C 358.151 370 357.151 369 353.151 362C 349.151 355 362.151 354 362.151 354z"/>
<path fill="#ff0000" stroke="none" d="M 386.151 376C 391.151 366 394.151 370 399.151 377C 404.151 384 406.151 387 398.151 389C 390.151 391 383.151 382 386.151 376z"/>
<path fill="#ff0000" stroke="none" d="M 418.151 364C 415.151 371 410.151 373 418.151 376C 426.151 379 427.151 377 428.151 371C 429.151 365 432.151 362 425.151 363C 418.151 364 418.151 364 418.151 364z"/>
<path fill="#ff0000" stroke="none" d="M 413.151 343C 414.151 352 413.151 353 419.151 351C 425.151 349 429.151 344 426.151 339C 423.151 334 424.151 332 418.151 335C 412.151 338 413.151 343 413.151 343z"/>
<path fill="#ff0000" stroke="none" d="M 399.151 316L 410.151 310C 410.151 310 412.151 308 412.151 317C 412.151 326 410.151 327 403.151 325C 396.151 323 399.151 316 399.151 316z"/>
<path fill="#ff0000" stroke="none" d="M 416.151 399C 416.151 399 413.151 393 419.151 391C 425.151 389 425.151 390 427.151 395C 429.151 400 428.151 401 428.151 401L 416.151 399z"/>
<path fill="#ff0000" stroke="none" d="M 362.151 384C 362.151 384 358.151 382 362.151 377C 366.151 372 368.151 369 371.151 374C 374.151 379 373.151 385 370.151 387C 367.151 389 362.151 384 362.151 384z"/>
<path fill="#ff0000" stroke="none" d="M 373.151 336C 373.151 336 383.151 336 375.151 343C 367.151 350 362.151 346 362.151 346L 373.151 336z"/>
<path fill="#ff0000" stroke="none" d="M 377.151 358C 381.151 355 382.151 356 385.151 358C 388.151 360 391.151 360 386.151 365C 381.151 370 377.151 370 375.151 365C 373.151 360 377.151 358 377.151 358z"/>
<path fill="#ff7f7f" stroke="none" d="M 481.151 438C 493.151 431 502.151 431.5 517.151 434.5C 532.151 437.5 550.445 448.747 553.151 466C 557.151 491.5 553.151 503 538.151 523C 530.742 532.879 492.102 530.861 479.151 522C 460.151 509 456.651 489.5 463.151 460C 465.849 447.754 469.151 445 481.151 438z"/>
<path fill="#9fff3f" stroke="none" d="M 512.651 433C 512.651 433 500.151 420.5 503.151 404C 506.151 387.5 521.651 372 521.651 372C 521.651 372 509.651 409 516.651 418.5C 523.651 428 535.151 434 548.651 428C 562.151 422 572.151 417.5 574.651 406.5C 577.151 395.5 580.151 390 572.151 377C 564.151 364 552.151 353 534.151 358.5C 516.151 364 505.651 372.5 501.151 382C 496.651 391.5 493.151 400.5 493.151 413.5C 493.151 426.5 492.651 433.5 492.651 433.5L 512.651 433z"/>
<path fill="#9fff3f" stroke="none" d="M 522.651 438.5C 522.651 438.5 538.151 449 538.151 462C 538.151 462.444 538.651 478 535.651 486.5C 532.188 496.311 524.151 494 524.151 494L 536.151 505.5C 536.151 505.5 547.636 494.999 548.651 483.5C 550.151 466.5 548.651 451 548.651 451L 543.151 444.5L 522.651 438.5z"/>
</g>
<g>
<path fill="none" stroke-width="6" stroke="#000000" d="M 513.151 434C 489.151 428 467.151 440 463.151 464C 459.151 478 461.151 492 465.151 506C 467.151 518 479.151 524 491.151 528C 505.151 530 519.151 532 531.151 526C 555.151 514 559.151 484 551.151 458C 549.151 452 543.151 444 537.151 442C 529.151 440 521.151 436 513.151 434z"/>
<path fill="none" stroke-width="6" stroke="#000000" d="M 519.151 536C 527.821 585.848 525.151 662 525.151 662C 525.151 662 473.151 722 465.151 756"/>
<path fill="none" stroke-width="6" stroke="#000000" d="M 527.151 665C 533.151 710 554.151 736 565.151 762"/>
<path fill="none" stroke-width="6" stroke="#000000" d="M 438.151 593C 450.151 593 473.649 614.923 486.151 613C 499.151 611 515.151 592 521.151 582"/>
<path fill="none" stroke-width="6" stroke="#000000" d="M 483.151 464L 478.151 475"/>
<path fill="none" stroke-width="6" stroke="#000000" d="M 504.151 474L 495.151 486"/>
<path fill="none" stroke-width="6" stroke="#000000" d="M 475.151 508.438C 486.151 512.438 507.151 516.375 515.151 509.438"/>
<path fill="none" stroke-width="6" stroke="#000000" d="M 513.151 434C 501.151 426 503.151 412 505.151 396C 506.442 385.677 514.542 370.775 531.151 367C 553.151 362 563.872 371.419 567.151 390C 570.151 407 565.151 412 551.151 419C 535.946 426.603 528.542 419.75 525.151 412C 518.151 396 547.051 386.64 541.151 389"/>
<path fill="none" stroke-width="6" stroke="#000000" d="M 526.151 567C 526.151 567 546.151 574 553.151 599C 560.151 624 558.151 640 558.151 640"/>
</g>
<g>
<path fill="none" stroke-width="6" stroke="#000000" d="M 422.464 130.188C 386.272 131.394 377.191 175.276 384.464 196.188C 391.818 217.333 413.755 230.952 442.151 219.667C 468.151 209.333 479.874 180.446 462.484 145.667C 456.484 133.667 430.464 124.188 416.464 136.188C 406.464 142.188 406.776 153.562 414.776 161.562C 422.776 169.562 437.776 169.562 442.776 161.562C 447.776 153.562 440.776 143.562 428.776 147.562"/>
<path fill="none" stroke-width="6" stroke="#000000" d="M 402.651 170.062L 396.651 181.062"/>
<path fill="none" stroke-width="6" stroke="#000000" d="M 426.651 178.062L 420.651 187.062"/>
<path fill="none" stroke-width="6" stroke="#000000" d="M 417.484 198.667C 417.484 198.667 417.484 210 409.151 210C 400.818 210 399.818 199 399.818 199"/>
<path fill="none" stroke-width="6" stroke="#000000" d="M 421.651 228.062C 415.651 267.062 420.651 269.062 419.651 309.062"/>
<path fill="none" stroke-width="6" stroke="#000000" d="M 419.651 309.062"/>
<path fill="none" stroke-width="6" stroke="#000000" d="M 420.651 302.062C 419.651 304.062 423.651 307.062 419.651 309.062C 425.651 311.062 427.651 317.062 428.651 322.062C 430.651 345.062 434.651 378.062 438.651 400.062C 433.651 400.062 423.651 403.062 418.651 402.062C 390.651 396.062 372.651 390.062 338.651 378.062C 337.651 366.062 348.651 356.062 356.651 348.062C 365.651 341.062 372.651 334.062 381.651 326.062C 391.651 318.062 403.651 314.062 414.651 308.062C 417.651 306.062 417.651 309.062 419.651 309.062"/>
<path fill="none" stroke-width="6" stroke="#000000" d="M 419.651 247.062C 424.651 246.062 435.651 249.062 446.651 257.062C 459.915 266.709 459.651 277.062 466.651 292.062"/>
<path fill="none" stroke-width="6" stroke="#000000" d="M 363.651 268.062C 368.651 281.062 380.651 291.062 389.651 293.062C 397.701 294.851 408.791 286.504 413.651 267.062"/>
<path fill="none" stroke-width="6" stroke="#000000" d="M 352.651 383.062C 334.927 399.521 336.052 412.517 324.651 432.062"/>
<path fill="none" stroke-width="6" stroke="#000000" d="M 423.651 403C 427.651 427 438.651 441.062 445.651 464.062"/>
</g>
<g>
<path fill="none" stroke-width="8" stroke="#0000ff" stroke-linejoin="bevel" d="M 143.074 37.9713L 103.054 110.929L 61.6283 37.9713"/>
</g>
</svg>