<svg xmlns="http://www.w3.org/2000/svg"
	xmlns:xlink="http://www.w3.org/1999/xlink"
	viewBox="25.3 0 577 792"
	width="633.719" height="808.965">
<g id="scene">
    <set attributeName="opacity" to="1" 
		    fill="freeze" begin="btn1.click"/>
    <set attributeName="opacity" to="0" 
		    fill="freeze" begin="btn2.click"/>
    <set attributeName="opacity" to="0" 
		    fill="freeze" begin="scene.load"/>
<g>
<path fill="#7fbfff" stroke="none" d="M 602.271 791.998L 602.271 0L 25.2741 0L 25.2741 791.998L 602.271 791.998z"/>
<path fill="#bfdfff" stroke="none" d="M 363.898 252.751C 358.398 243.626 345.273 248.001 338.148 251.751C 294.273 275.001 248.898 289.126 203.773 308.126C 177.148 319.251 149.898 327.126 122.648 337.376C 98.5235 346.376 70.6485 351.001 51.2735 368.501C 45.3985 373.876 44.8985 383.001 50.2735 389.001C 55.6485 394.876 64.7735 395.376 70.7735 390.001C 118.648 369.376 167.398 352.251 215.148 330.376C 250.398 314.251 285.273 301.751 319.398 281.751C 328.023 276.751 335.398 271.626 343.523 265.626C 349.648 261.001 356.148 258.001 363.023 255.251C 363.773 255.501 364.523 255.126 364.773 254.501C 365.023 253.751 364.648 253.001 363.898 252.751L 363.898 252.751z"/>
<path fill="#bfdfff" stroke="none" d="M 368.648 284.876C 354.523 304.876 337.898 322.251 318.898 338.251C 288.398 364.001 264.023 391.126 236.148 419.126C 235.023 420.251 235.273 422.501 234.898 424.376C 230.523 428.251 230.023 435.001 233.898 439.501C 237.648 444.001 244.398 444.501 248.898 440.626C 251.023 440.126 253.523 440.001 255.023 438.751C 284.023 415.001 302.523 384.251 328.023 358.376C 342.148 334.126 357.648 310.876 371.148 286.251C 371.523 285.626 371.273 284.751 370.523 284.376C 369.898 283.876 369.023 284.251 368.648 284.876L 368.648 284.876z"/>
<path fill="#bfdfff" stroke="none" d="M 333.023 200.501C 329.273 199.876 325.398 199.001 321.648 199.126C 300.648 199.626 280.398 207.876 259.648 206.626C 228.648 204.626 198.523 209.876 167.898 211.876C 133.773 214.001 99.7735 212.751 65.7735 216.126C 60.2735 214.126 54.1485 217.001 52.1485 222.501C 50.1485 228.001 53.0235 234.001 58.5235 236.001C 61.3985 238.001 64.0235 241.001 67.0235 241.251C 132.773 246.501 196.898 232.501 262.148 229.751C 286.773 228.626 310.398 221.001 334.398 213.501C 335.898 213.001 336.773 210.751 337.898 209.251C 339.898 208.126 340.648 205.501 339.523 203.501C 338.398 201.501 335.898 200.751 333.898 201.876L 333.023 200.501z"/>
<path fill="#bfdfff" stroke="none" d="M 331.023 149.751C 324.023 145.126 318.898 137.751 311.023 134.751C 306.273 132.876 300.773 132.751 296.148 131.001C 274.523 122.376 251.898 120.376 230.148 112.876C 220.773 109.626 212.273 105.626 202.273 103.501C 194.398 101.876 186.898 103.501 179.398 101.501C 139.273 91.2512 102.773 76.3762 63.2735 67.6262C 55.2735 65.5012 46.8985 70.3762 44.7735 78.3762C 42.6485 86.5012 47.3985 94.8762 55.5235 97.0012L 55.0235 94.5012C 68.7735 103.251 86.5235 103.501 102.148 108.376C 121.898 114.626 140.773 120.501 160.523 126.751C 172.523 130.626 184.773 128.376 197.148 130.751C 231.398 137.626 261.523 145.751 295.773 152.126C 300.648 153.126 305.023 149.876 309.773 150.376C 316.773 151.001 323.148 154.626 330.273 152.751C 331.148 152.876 332.023 152.376 332.148 151.501C 332.398 150.751 331.898 149.876 331.023 149.751L 331.023 149.751z"/>
<path fill="#bfdfff" stroke="none" d="M 360.898 110.001C 353.273 67.1262 315.273 42.3762 289.398 10.7512C 285.023 4.37622 276.398 2.75122 270.023 7.12622C 263.648 11.5012 262.023 20.1262 266.398 26.5012L 269.648 25.3762C 269.398 27.3762 268.398 30.0012 269.273 30.8762C 295.648 58.6262 324.648 79.6262 350.273 108.501C 352.273 110.751 354.773 112.376 358.023 112.376C 358.773 113.126 359.898 113.251 360.648 112.626C 361.398 111.876 361.523 110.751 360.898 110.001L 360.898 110.001z"/>
<path fill="#bfdfff" stroke="none" d="M 408.523 88.5012C 408.148 63.7512 401.023 40.2512 393.898 16.8762C 391.898 9.37622 384.148 5.00122 376.648 7.12622C 369.148 9.12622 364.773 17.0012 366.773 24.3762L 367.398 23.3762C 368.273 33.6262 373.273 42.2512 378.023 51.0012C 385.773 65.5012 390.523 81.2512 404.898 91.5012C 405.773 92.5012 407.148 92.6262 408.148 91.7512C 409.148 91.0012 409.273 89.5012 408.523 88.5012L 408.523 88.5012z"/>
<path fill="#bfdfff" stroke="none" d="M 458.273 84.3762C 465.148 63.6262 476.273 44.1262 477.023 21.6262C 477.273 14.6262 471.648 8.75122 464.523 8.50122C 457.523 8.37622 451.648 13.8762 451.398 21.0012C 451.898 42.1262 449.023 63.8762 454.273 84.3762C 454.273 85.5012 455.148 86.3762 456.273 86.3762C 457.398 86.3762 458.273 85.5012 458.273 84.3762L 458.273 84.3762z"/>
<path fill="#bfdfff" stroke="none" d="M 512.148 112.251C 541.898 86.2512 572.648 60.3762 595.148 27.6262C 599.523 22.2512 598.648 14.2512 593.148 10.0012C 587.773 5.62622 579.773 6.50122 575.523 12.0012C 552.273 37.0012 533.273 63.2512 513.523 92.8762C 510.023 98.2512 507.773 103.751 508.398 110.126C 507.773 111.126 508.148 112.501 509.148 113.126C 510.273 113.751 511.523 113.376 512.148 112.251L 512.148 112.251z"/>
<path fill="#bfdfff" stroke="none" d="M 551.523 154.251C 565.023 157.751 580.273 152.876 594.148 150.876C 598.273 149.376 600.523 144.876 599.023 140.751C 597.648 136.501 593.023 134.376 588.898 135.751L 589.023 136.376C 576.273 140.001 563.898 144.876 551.523 149.751C 550.273 149.751 549.273 150.751 549.273 152.001C 549.273 153.251 550.273 154.251 551.523 154.251L 551.523 154.251z"/>
<path fill="#bfdfff" stroke="none" d="M 525.273 223.501C 521.773 231.001 527.398 238.251 533.398 241.501C 547.398 249.001 559.648 256.751 573.148 266.126C 575.023 267.376 577.773 267.126 580.148 267.501C 585.523 269.876 591.773 267.501 594.148 262.126C 596.523 256.751 594.148 250.376 588.773 248.001C 574.148 230.626 551.398 223.751 529.648 222.001C 529.273 220.876 527.898 220.251 526.773 220.626C 525.523 221.001 524.898 222.376 525.273 223.501L 525.273 223.501z"/>
<path fill="#bfdfff" stroke="none" d="M 503.023 260.376C 514.898 303.501 544.898 338.251 568.148 375.751C 572.398 382.001 580.773 383.751 587.023 379.501C 593.273 375.376 595.023 366.876 590.773 360.626C 576.898 342.626 563.023 325.126 546.773 308.626C 531.523 293.251 517.898 277.376 507.148 258.876C 506.773 257.751 505.523 257.126 504.273 257.501C 503.148 258.001 502.523 259.251 503.023 260.376L 503.023 260.376z"/>
<path fill="#bfdfff" stroke="none" d="M 457.023 283.001C 456.773 306.876 456.898 330.751 464.023 353.876C 475.648 390.751 483.023 427.626 500.773 462.251C 501.773 464.126 504.023 465.251 505.773 466.751C 507.523 471.501 512.773 474.001 517.648 472.251C 522.398 470.501 524.898 465.126 523.148 460.376C 524.398 456.626 525.273 452.751 524.148 448.751C 506.523 391.126 478.398 339.501 461.148 282.626C 461.023 281.501 460.023 280.626 458.898 280.751C 457.773 280.876 456.898 281.876 457.023 283.001L 457.023 283.001z"/>
</g>
<g>
<path fill="#ff9f3f" stroke="none" d="M 124.273 549.001L 117.273 536.001L 112.273 528.001L 101.273 531.001L 88.2735 545.001L 79.2735 530.001L 66.2735 524.001L 54.2735 527.001L 43.2735 542.001L 28.2735 563.001L 24.2735 571.001L 24.6474 654.001L 99.6068 626.668L 124.273 549.001z"/>
<path fill="#ff7f00" stroke="none" d="M 33.6068 638.668L 64.9402 618.001L 68.9402 604.001L 124.273 549.001L 183.273 502.001L 201.273 503.001L 217.273 488.001L 218.273 472.001L 229.273 467.001L 274.273 469.001L 294.273 463.001L 326.273 440.001L 342.273 436.001L 362.273 447.001L 415.273 462.001L 447.273 494.001L 476.273 526.001L 499.273 529.001L 504.273 509.001L 523.273 504.001L 554.273 508.001L 559.273 527.001L 576.273 556.001L 577.273 578.001L 581.773 611.001L 602.273 650.501L 601.273 792.001L 25.2735 793.001L 24.6474 654.001L 33.6068 638.668z"/>
<path fill="#ffff7f" stroke="none" d="M 25.6068 569.335C 25.6068 569.335 28.2735 562.668 32.9402 556.001C 37.6068 549.335 54.2735 527.001 54.2735 527.001L 54.9402 532.001C 54.9402 532.001 56.9402 535.335 52.2735 544.001C 47.6068 552.668 41.6068 568.668 39.6068 569.335C 37.6068 570.001 29.6068 582.668 29.6068 582.668L 30.2735 592.001L 24.2735 596.001L 25.6068 569.335z"/>
<path fill="#ffff7f" stroke="none" d="M 90.9402 543.335L 103.607 530.001L 100.94 546.668L 94.9402 558.668L 93.6068 546.001L 88.2735 545.001L 90.9402 543.335z"/>
<path fill="#ffff7f" stroke="none" d="M 60.9402 550.668C 60.9402 550.668 65.6068 549.335 66.2735 556.001C 66.9402 562.668 66.2735 572.668 61.6068 579.335C 56.9402 586.001 52.9402 589.335 48.9402 591.335C 44.9402 593.335 38.9402 598.001 38.9402 598.001L 58.2735 571.335L 60.9402 550.668z"/>
<path fill="#ff9f3f" stroke="none" d="M 579.773 576.501L 593.773 571.501L 596.273 577.501L 601.773 586.501L 602.273 650.501L 581.273 613.001L 579.773 576.501z"/>
<path fill="#ffff7f" stroke="none" d="M 587.273 573.001L 587.773 586.501L 579.273 596.501L 577.273 578.001L 587.273 573.001z"/>
<path fill="#ffff7f" stroke="none" d="M 23.2735 658.001L 33.6068 638.668L 64.9402 618.001L 70.2735 607.001L 186.273 500.001L 204.273 500.001L 219.273 484.001L 221.273 468.001L 227.273 485.001C 227.273 485.001 237.273 509.001 235.273 514.001C 233.273 519.001 204.273 520.001 197.273 523.001C 190.273 526.001 157.273 560.001 157.273 560.001L 112.273 609.001C 112.273 609.001 83.2735 643.001 79.2735 647.001C 75.2735 651.001 61.2735 639.001 55.2735 648.001C 49.2735 657.001 55.2735 703.001 55.2735 703.001L 25.2735 735.001L 23.2735 658.001z"/>
<path fill="#ffff7f" stroke="none" d="M 179.273 559.001C 179.273 559.001 189.273 566.001 189.273 571.001C 189.273 576.001 170.273 600.001 170.273 600.001L 151.273 647.001L 133.273 640.001L 159.273 607.001L 178.273 568.001L 179.273 559.001z"/>
<path fill="#ffff7f" stroke="none" d="M 107.273 658.001C 107.273 658.001 128.273 663.001 132.273 669.001C 136.273 675.001 135.273 696.001 135.273 696.001L 117.273 695.001L 105.273 692.001L 90.2735 708.001L 77.2735 719.001L 98.2735 693.001L 108.273 680.001L 107.273 658.001z"/>
<path fill="#ffff7f" stroke="none" d="M 186.273 567.001L 189.273 571.001L 188.273 591.001L 170.273 584.001L 176.273 571.001L 186.273 567.001z"/>
<path fill="#ffff7f" stroke="none" d="M 210.273 712.001C 210.273 712.001 200.94 695.335 212.94 683.335C 222.297 673.977 246.94 662.668 260.273 672.668C 276.884 685.126 274.273 712.001 268.273 720.001C 262.273 728.001 232.273 756.001 232.273 756.001L 240.273 724.001C 240.273 724.001 237.607 708.668 228.273 706.001C 220.581 703.803 210.273 712.001 210.273 712.001z"/>
<path fill="#9f9f3f" stroke="none" d="M 200.273 727.335C 200.273 727.335 190.273 743.335 194.94 751.335C 199.607 759.335 212.273 760.001 212.273 760.001L 224.273 760.668L 186.94 769.335L 188.94 746.668L 200.273 727.335z"/>
<path fill="#9f9f3f" stroke="none" d="M 200.023 560.501C 200.023 560.501 208.273 547.751 212.273 551.501C 216.273 555.251 218.273 564.751 216.523 570.251C 214.773 575.751 200.273 598.251 200.273 598.251L 200.023 560.501z"/>
<path fill="#ffff7f" stroke="none" d="M 516.273 538.001L 526.273 524.001C 526.273 524.001 538.273 536.001 546.273 550.001C 554.273 564.001 552.273 574.001 548.273 594.001C 544.273 614.001 544.273 578.001 534.273 566.001C 524.273 554.001 516.273 538.001 516.273 538.001z"/>
<path fill="#ffff7f" stroke="none" d="M 380.273 610.001C 380.273 610.001 370.376 594.844 390.273 592.001C 404.273 590.001 416.273 588.001 422.273 608.001C 428.273 628.001 440.273 632.001 440.273 632.001L 438.273 660.001L 406.273 634.001L 392.273 620.001L 380.273 610.001z"/>
<path fill="#ffff7f" stroke="none" d="M 478.273 670.001C 478.273 670.001 486.273 644.001 500.273 654.001C 514.273 664.001 520.273 686.001 526.273 698.001C 532.273 710.001 552.273 742.001 552.273 742.001L 558.273 784.001L 558.273 792.001L 548.273 786.001C 548.273 786.001 544.273 780.001 532.273 754.001C 520.273 728.001 496.273 696.001 496.273 696.001L 478.273 670.001z"/>
<path fill="#ffff7f" stroke="none" d="M 360.273 656.001C 360.273 656.001 388.273 662.001 396.273 668.001C 404.273 674.001 411.273 686.001 412.273 693.001C 413.273 700.001 409.273 737.001 409.273 737.001C 409.273 737.001 394.273 705.001 388.273 690.001C 382.273 675.001 377.273 673.001 368.273 668.001C 359.273 663.001 360.273 656.001 360.273 656.001z"/>
<path fill="#ffff7f" stroke="none" d="M 428.273 752.001L 436.273 734.001C 436.273 734.001 464.273 744.14 464.273 752.001C 464.273 766.001 456.273 792.001 456.273 792.001L 440.273 792.001L 436.273 769.001L 428.273 752.001z"/>
<path fill="#9f9f3f" stroke="none" d="M 510.273 613.001L 530.273 614.001C 530.273 614.001 523.273 613.001 528.273 622.001C 533.273 631.001 541.273 636.001 541.273 636.001L 555.273 658.001L 579.273 723.001L 549.273 667.001L 530.273 639.001L 518.273 639.001L 509.273 629.001L 510.273 613.001z"/>
<path fill="#ffff7f" stroke="none" d="M 284.273 466.001L 364.273 504.001L 360.273 476.001L 318.273 450.001L 284.273 466.001z"/>
</g>
<g>
<path fill="none" stroke-width="4" stroke="#b26300" d="M 28.2735 568.001C 32.2735 552.001 46.2735 542.001 54.2735 528.001C 60.2735 522.001 70.2735 524.001 76.2735 528.001C 80.2735 530.001 84.2735 538.001 86.2735 546.001C 88.2735 546.001 92.2735 546.001 94.2735 546.001C 96.2735 554.001 92.2735 562.001 98.2735 568.001"/>
<path fill="none" stroke-width="4" stroke="#b26300" d="M 86.2735 546.001C 96.2735 538.001 104.273 526.001 114.273 530.001C 118.273 534.001 120.273 542.001 122.273 548.001"/>
<path fill="none" stroke-width="4" stroke="#b26300" d="M 578.273 578.001C 584.273 574.001 588.273 570.001 594.273 572.001C 592.273 574.001 596.273 576.001 596.273 578.001"/>
<path fill="none" stroke-width="4" stroke="#b26300" d="M 34.2735 604.001C 42.2735 592.001 54.2735 582.001 60.2735 568.001C 62.2735 562.001 58.2735 556.001 62.2735 550.001"/>
<path fill="none" stroke-width="4" stroke="#b26300" d="M 76.2735 720.001C 82.2735 706.001 94.2735 698.001 104.273 686.001C 110.273 678.001 104.273 666.001 106.273 658.001C 108.273 656.001 112.273 654.001 116.273 654.001C 130.273 644.001 140.273 634.001 148.273 620.001C 160.273 602.001 166.273 586.001 176.273 568.001C 176.273 564.001 176.273 558.001 178.273 556.001C 184.273 552.001 196.273 552.001 198.273 554.001C 204.273 568.001 200.273 584.001 200.273 600.001"/>
<path fill="none" stroke-width="4" stroke="#b26300" d="M 436.273 548.001C 440.273 548.001 446.273 546.001 448.273 550.001C 452.273 558.001 448.273 572.001 454.273 576.001C 472.273 588.001 490.273 602.001 510.273 604.001C 510.273 616.001 506.273 630.001 516.273 636.001C 518.273 640.001 530.273 636.001 532.273 640.001C 550.273 664.001 562.273 690.001 576.273 716.001"/>
<path fill="none" stroke-width="4" stroke="#b26300" d="M 438.273 786.001C 440.273 778.001 436.273 768.001 432.273 762.001C 426.273 756.001 420.273 744.001 408.273 748.001C 408.273 742.001 408.273 734.001 406.273 728.001C 398.273 714.001 392.273 698.001 384.273 684.001C 378.273 674.001 364.273 672.001 360.273 660.001C 356.273 644.001 360.273 628.001 358.273 612.001C 376.273 610.001 394.273 614.001 404.273 634.001C 410.273 644.001 420.273 656.001 430.273 660.001C 448.273 666.001 470.273 668.001 482.273 680.001C 514.273 710.001 528.273 750.001 550.273 788.001"/>
<path fill="none" stroke-width="4" stroke="#b26300" d="M 212.273 712.001C 200.273 720.001 200.273 734.001 190.273 746.001C 186.273 754.001 188.273 762.001 188.273 770.001C 202.273 764.001 226.273 768.001 232.273 754.001C 238.273 740.001 244.273 720.001 232.273 708.001C 230.273 704.001 222.273 704.001 218.273 710.001"/>
</g>
<g>
<path fill="none" stroke-width="6" stroke="#b26300" d="M 32.2735 650.001C 30.2735 646.001 32.2735 642.001 34.2735 640.001C 44.2735 632.001 56.2735 626.001 64.2735 618.001C 66.2735 614.001 68.2735 610.001 70.2735 606.001C 106.273 570.001 138.273 534.001 180.273 504.001C 186.273 500.001 196.273 504.001 204.273 502.001C 214.273 498.001 218.273 488.001 218.273 476.001C 218.273 474.001 220.273 470.001 224.273 468.001C 246.273 462.001 270.273 472.001 290.273 466.001C 304.273 462.001 314.273 446.001 330.273 438.001C 336.273 436.001 346.273 436.001 352.273 440.001C 374.273 452.001 396.273 456.001 418.273 466.001C 424.273 470.001 445.699 491.14 450.273 498.001C 474.273 534.001 472.273 534.001 500.273 528.001C 502.273 526.001 502.273 510.001 506.273 508.001C 520.273 502.001 538.273 504.001 554.273 510.001C 554.273 538.001 574.273 534.001 578.273 562.001C 578.273 576.001 578.273 592.001 580.273 606.001C 584.273 624.001 596.273 638.001 602.273 654.001"/>
</g>
<g>
<path fill="#ffbfbf" stroke="none" d="M 400.273 156.668C 400.273 156.668 381.607 168.001 378.94 177.335C 376.273 186.668 366.94 210.001 374.94 227.335C 382.94 244.668 396.273 260.668 413.607 260.001C 430.94 259.335 455.607 258.001 463.607 246.001C 471.607 234.001 486.94 202.001 478.94 184.668C 470.94 167.335 454.273 154.668 439.607 152.668C 424.94 150.668 400.273 156.668 400.273 156.668z"/>
<path fill="#7fff00" stroke="none" d="M 485.607 122.001L 488.273 136.668L 483.607 148.001L 500.94 150.668L 503.607 158.001L 496.273 166.668L 512.273 168.668L 514.94 180.668L 500.94 191.335L 514.273 197.335L 511.607 206.001L 490.94 216.668L 478.94 215.335C 478.94 215.335 485.607 183.335 472.94 170.668C 460.273 158.001 443.607 154.001 443.607 154.001L 441.607 165.335L 435.607 166.001L 434.273 174.668L 424.273 175.335L 420.273 167.335L 412.273 168.001L 411.607 153.335C 411.607 153.335 392.94 152.668 386.273 164.001C 379.607 175.335 373.607 191.335 373.607 191.335C 373.607 191.335 366.94 200.001 362.273 194.001C 357.607 188.001 358.94 177.335 358.94 177.335L 355.607 160.001L 358.273 152.001L 368.273 154.001L 364.94 137.335L 373.607 132.001L 382.273 142.668L 386.273 130.668L 395.607 136.668L 400.273 120.668L 414.94 114.668L 419.607 121.335L 428.94 112.001L 437.607 116.001L 442.94 129.335L 453.607 120.001L 460.273 130.668L 473.607 123.335L 485.607 122.001z"/>
<path fill="#ffffff" stroke="none" d="M 394.273 208.001L 462.94 215.335C 462.94 215.335 464.94 232.668 453.607 239.335C 442.273 246.001 433.607 250.001 421.607 248.001C 409.607 246.001 394.273 238.668 392.273 228.668C 390.273 218.668 394.273 208.001 394.273 208.001z"/>
<path fill="#ffffff" stroke="none" d="M 114.273 172.001L 129.607 303.335L 182.273 296.668L 185.607 324.001C 185.607 324.001 228.543 307.402 237.273 297.501C 250.94 282.001 296.273 280.001 296.273 280.001L 282.773 167.501C 282.773 167.501 254.773 164.001 245.273 170.001C 235.773 176.001 212.273 186.501 204.273 194.501C 196.273 202.501 185.273 211.001 180.773 208.001C 176.273 205.001 181.773 175.668 176.273 170.668C 170.773 165.668 114.273 172.001 114.273 172.001z"/>
<path fill="#7f7f7f" stroke="none" d="M 178.773 223.501C 178.773 223.501 180.773 219.001 190.273 218.001C 199.773 217.001 210.708 219.843 210.273 232.001C 209.773 246.001 201.273 257.501 191.273 260.501C 185.813 262.139 180.273 264.001 180.273 264.001L 178.773 223.501z"/>
<path fill="#7f7f7f" stroke="none" d="M 209.273 249.001C 209.273 249.001 199.25 257.497 197.773 266.001C 195.987 276.29 199.187 282.703 208.273 284.001C 218.773 285.501 224.273 282.501 229.273 276.001C 234.273 269.501 239.273 255.501 234.273 248.501C 229.587 241.941 209.273 249.001 209.273 249.001z"/>
<path fill="#7f7f7f" stroke="none" d="M 196.773 249.501C 196.773 249.501 193.117 261.89 194.273 277.501C 195.22 290.272 212.273 295.501 212.273 295.501C 212.273 295.501 200.773 303.501 194.273 305.001C 187.773 306.501 181.273 306.501 181.273 306.501L 178.273 250.501L 196.773 249.501z"/>
<path fill="#7f7f7f" stroke="none" d="M 177.273 229.501C 177.273 229.501 163.63 229.399 160.273 235.501C 154.773 245.501 154.773 249.001 159.773 256.001C 164.773 263.001 177.773 263.501 177.773 263.501L 180.773 261.501L 177.273 229.501z"/>
<path fill="#00ff00" stroke="none" d="M 478.94 215.335C 478.94 215.335 475.607 176.001 472.94 170.668C 470.273 165.335 470.273 150.668 470.273 150.668L 478.273 136.001L 475.607 123.335L 485.607 122.001L 484.94 150.001L 489.607 152.001L 500.94 150.668L 501.607 165.335L 516.94 176.001L 512.273 188.001L 502.94 193.335L 513.607 195.335L 511.607 206.001L 486.273 218.001"/>
<path fill="#ffff7f" stroke-width="1" stroke="#7fff7f" d="M 366.273 134.001L 376.273 150.001L 368.273 154.001L 365.607 143.335L 366.273 134.001z"/>
<path fill="#ffff7f" stroke="none" d="M 402.273 120.668L 407.607 139.335L 396.94 134.001L 402.273 120.668z"/>
<path fill="#ffff7f" stroke="none" d="M 353.607 160.001L 358.273 174.001L 357.607 179.335L 359.607 193.335L 372.273 195.335C 372.273 195.335 374.565 190.126 373.607 188.001C 372.648 185.876 364.273 182.001 364.273 182.001L 366.273 180.001C 366.273 180.001 372.898 175.543 372.273 173.335C 371.648 171.126 355.607 160.001 355.607 160.001L 353.273 160.251"/>
<path fill="#ffff7f" stroke="none" d="M 382.94 170.668C 382.94 170.668 391.607 182.668 388.94 195.335C 386.273 208.001 384.273 229.335 387.607 234.668C 390.94 240.001 404.94 248.668 410.273 252.001C 415.607 255.335 423.607 259.335 423.607 259.335C 423.607 259.335 412.94 264.001 398.94 257.335C 384.94 250.668 374.94 235.335 372.94 224.001C 370.94 212.668 373.607 206.668 373.607 197.335L 378.273 185.335L 382.94 170.668z"/>
<path fill="#ffff7f" stroke="none" d="M 411.607 153.335L 420.273 152.001L 420.273 167.335L 412.273 168.001L 411.607 153.335z"/>
<path fill="#ffff7f" stroke="none" d="M 422.94 167.335L 424.273 158.001L 428.273 168.668L 433.607 170.001L 434.273 174.668L 422.273 172.001L 422.94 167.335z"/>
</g>
<g>
<path fill="none" stroke-width="6" stroke="#b26300" d="M 429.495 152.052C 448.759 152.052 468.023 156.544 475.432 177.506C 479.878 192.479 478.396 207.951 475.432 224.421C 473.756 233.738 469.011 242.388 461.108 248.877C 447.259 260.246 430.483 261.354 410.725 258.858C 398.326 257.292 389.979 249.875 380.594 239.893C 369.487 228.079 370.221 201.463 379.112 177.506C 380.594 173.014 383.148 166.966 388.004 163.531C 397.883 156.544 401.34 154.548 415.171 154.049C 411.609 154.177 410.94 162.668 412.273 167.335C 412.94 170.001 416.94 168.668 419.607 168.668C 420.273 168.001 420.94 166.668 420.94 165.335C 421.607 168.668 421.607 173.335 424.94 175.335C 428.273 177.335 433.607 177.335 434.94 174.668C 436.273 172.001 434.94 168.668 436.273 166.001C 436.273 165.335 439.607 166.668 440.94 166.001C 443.607 163.335 442.273 159.335 442.273 156.001"/>
<path fill="none" stroke-width="6" stroke="#b26300" d="M 414.677 262.851C 414.677 267.343 416.159 271.835 414.677 276.327C 411.713 280.819 410.231 283.813 408.749 288.305C 402.822 310.764 392.449 355.683 392.449 355.683C 392.449 355.683 362.812 378.142 349.476 391.618C 325.766 411.082 306.502 435.039 284.275 456.001"/>
<path fill="none" stroke-width="6" stroke="#b26300" d="M 392.449 355.683C 390.967 364.667 395.413 370.656 396.895 376.645C 413.195 414.077 432.459 448.514 445.795 487.444"/>
<path fill="none" stroke-width="6" stroke="#b26300" d="M 408.749 288.305C 447.277 292.797 488.273 286.001 513.96 258.359"/>
<path fill="none" stroke-width="6" stroke="#b26300" d="M 402.273 298.001C 400.792 298.001 348.273 290.001 348.273 290.001L 296.273 248.001"/>
<path fill="none" stroke-width="6" stroke="#b26300" d="M 392.449 208.949C 392.449 208.949 388.519 225.517 394.94 234.001C 399.825 240.455 410.231 245.882 419.122 247.379C 429.495 250.374 442.769 246.919 451.607 240.668C 461.486 233.681 462.096 214.938 462.096 214.938L 392.449 208.949z"/>
<path fill="none" stroke-width="6" stroke="#b26300" d="M 392.726 190.703C 392.726 190.703 391.148 178.353 405.075 177.227C 417.423 176.229 417.423 190.203 417.423 190.203"/>
<path fill="none" stroke-width="6" stroke="#b26300" d="M 437.181 192.2C 437.181 192.2 442.615 178.724 452.988 182.717C 463.534 186.777 459.903 200.185 459.903 200.185"/>
<path fill="none" stroke-width="6" stroke="#b26300" d="M 281.523 149.814L 317.523 435.814"/>
<path fill="none" stroke-width="6" stroke="#b26300" d="M 330.273 440.001"/>
<path fill="none" stroke-width="6" stroke="#b26300" d="M 320.273 420.001"/>
<path fill="none" stroke-width="6" stroke="#b26300" d="M 275.523 165.814C 241.523 165.814 219.523 187.814 191.523 205.814C 187.523 207.814 179.523 207.814 179.523 205.814C 175.523 195.814 187.523 179.814 177.523 171.814C 167.523 163.814 113.523 171.814 113.523 171.814L 129.523 303.814L 180.857 296.48"/>
<path fill="none" stroke-width="6" stroke="#b26300" d="M 177.523 206.48L 184.19 321.814C 184.19 321.814 179.716 324.231 190.19 321.814C 207.523 317.814 223.523 308.48 244.19 293.147C 259.864 281.518 290.857 280.48 290.857 280.48"/>
<path fill="none" stroke-width="6" stroke="#b26300" d="M 374.94 192.668C 370.273 193.335 365.607 196.668 361.607 194.001C 356.94 191.335 354.94 184.668 357.607 179.335C 357.607 178.668 360.94 179.335 362.94 179.335C 355.607 174.001 352.273 162.001 356.273 154.668C 357.607 152.001 362.94 153.335 366.94 153.335C 367.607 153.335 367.607 154.001 367.607 154.668C 368.273 154.668 368.273 154.668 368.94 154.668C 368.94 155.335 369.607 156.001 369.607 156.001C 370.94 154.668 369.607 153.335 368.94 152.001C 368.273 150.668 366.94 149.335 366.94 148.668C 365.607 144.001 364.273 137.335 368.94 135.335C 376.273 131.335 380.94 139.335 383.607 145.335C 383.607 144.668 383.607 143.335 383.607 143.335C 379.122 131.002 392.219 126.247 395.607 138.668C 395.782 139.311 394.273 136.001 396.273 134.668C 396.273 135.335 396.273 136.001 396.94 136.668C 396.273 131.335 397.607 126.668 400.273 122.668C 402.273 120.001 405.607 118.001 408.273 116.668C 410.94 115.335 414.94 114.668 416.273 116.668C 420.273 122.668 418.94 129.335 420.273 136.001C 419.607 130.668 419.607 124.668 421.607 119.335C 424.273 114.001 432.94 109.335 436.94 114.001C 442.273 119.335 440.94 128.668 442.94 136.668C 444.273 130.668 447.607 121.335 454.94 122.001C 460.94 125.335 460.94 132.668 458.94 142.668C 460.94 130.668 470.273 118.668 483.607 122.001C 485.607 122.668 486.94 124.668 486.94 126.668C 488.273 132.001 488.273 137.335 486.94 142.668C 486.273 145.335 484.94 148.668 482.273 150.668C 488.94 151.335 495.607 149.335 502.273 151.335C 503.607 160.001 501.607 167.335 493.607 172.001C 499.607 170.001 505.607 166.668 511.607 169.335C 515.607 172.001 515.607 179.335 513.607 183.335C 511.607 188.001 506.273 191.335 500.94 193.335C 502.94 195.335 510.273 195.335 512.94 196.001C 517.607 202.668 508.94 209.335 488.273 218.668"/>
</g>
</g>
<g>
<g>
<path fill="#7f7f00" stroke-width="6" stroke="#000000" d="M 313.773 725.503C 319.296 725.503 323.773 717.107 323.773 706.753L 323.773 444.253C 323.773 433.898 319.296 425.503 313.773 425.503L 313.773 425.503C 308.25 425.503 303.773 433.898 303.773 444.253L 303.773 706.753C 303.773 717.107 308.25 725.503 313.773 725.503L 313.773 725.503z"/>
<path fill="#7f7f00" stroke-width="6" stroke="#000000" d="M 151.554 366.499C 157.077 366.499 161.554 358.104 161.554 347.749L 161.554 85.2491C 161.554 74.8946 157.077 66.4991 151.554 66.4991L 151.554 66.4991C 146.031 66.4991 141.554 74.8946 141.554 85.2491L 141.554 347.749C 141.554 358.104 146.031 366.499 151.554 366.499L 151.554 366.499z"/>
<path fill="#7f7f00" stroke-width="6" stroke="#000000" d="M 475.991 366.499C 481.514 366.499 485.991 358.104 485.991 347.749L 485.991 85.2491C 485.991 74.8945 481.514 66.4991 475.991 66.4991L 475.991 66.4991C 470.469 66.4991 465.992 74.8945 465.992 85.2491L 465.992 347.749C 465.992 358.104 470.469 366.499 475.991 366.499L 475.991 366.499z"/>
<path fill="#7f7f00" stroke-width="6" stroke="#000000" d="M 313.773 66.4991C 319.296 66.4991 323.773 74.8945 323.773 85.2491L 323.773 347.749C 323.773 358.104 319.296 366.499 313.773 366.499L 313.773 366.499C 308.25 366.499 303.773 358.104 303.773 347.749L 303.773 85.2491C 303.773 74.8945 308.25 66.4991 313.773 66.4991L 313.773 66.4991z"/>
<path fill="#7f7f00" stroke-width="6" stroke="#000000" d="M 151.554 425.493C 157.077 425.493 161.554 433.888 161.554 444.243L 161.554 706.743C 161.554 717.097 157.077 725.493 151.554 725.493L 151.554 725.493C 146.031 725.493 141.554 717.097 141.554 706.743L 141.554 444.243C 141.554 433.888 146.031 425.493 151.554 425.493L 151.554 425.493z"/>
<path fill="#7f7f00" stroke-width="6" stroke="#000000" d="M 475.991 425.493C 481.514 425.493 485.991 433.888 485.991 444.243L 485.991 706.743C 485.991 717.097 481.514 725.493 475.991 725.493L 475.991 725.493C 470.469 725.493 465.992 717.097 465.992 706.743L 465.992 444.243C 465.992 433.888 470.469 425.493 475.991 425.493L 475.991 425.493z"/>
</g>
    <animateTransform attributeName="transform" type="scale"
            additive="replace" fill="freeze" 
            values="1.0; 0.2" begin="btn1.click" dur="5"/>
    <animateTransform attributeName="transform" type="scale"
            additive="replace" fill="freeze" 
            values="0.2; 1.0" begin="btn2.click" dur="1"/>
</g>
</svg>