<?xml version="1.0" encoding="UTF-8" standalone="no"?>
<!DOCTYPE svg PUBLIC "-//W3C//DTD SVG 20010904//EN" 
		"http://www.w3.org/TR/2001/REC-SVG-20010904/DTD/svg10.dtd">
<svg xmlns="http://www.w3.org/2000/svg" 
		xmlns:xlink="http://www.w3.org/1999/xlink"
		viewBox="0 0 320 320" width="160" height="160">
	<title></title>
  	<desc></desc>
	<defs>
		<symbol id="snake">	
			<path d="M80,70 v-30 a40,40 0 0 1 40,-40 h80 a40,40 0 0 1 40,40
				v75 a40,40 0 0 1 -40,40 h-80 a50,50 0 0 0 -50,50 v35
				h-30 a40,40 0 0 1 -40,-40 v-80 a40,40 0 0 1 40,-40 h120 v-10z
				M100,35 a15,15 1 0 0 30,0 a15,15 1 0 0 -30,0z"/>
		</symbol>
	</defs>
	<use xlink:href="#snake" fill="#446785" stroke="none"/>
	<use transform="rotate(180, 160, 160)" xlink:href="#snake" fill="#D5AD42" stroke="none"/>
</svg>
