<?xml version="1.0" encoding="UTF-8"?>
<svg xmlns="http://www.w3.org/2000/svg" xmlns:xlink="http://www.w3.org/1999/xlink" 
        clip-rule="evenodd" stroke-miterlimit="10" 
        viewBox="0 0 512.00 512.00">
    <title>Alleged Literature Logo (2010)</title>
    <desc>The letters AL in blue surrounded by a scribbled circle in red.</desc>
    <defs/>
    <g id="bg">
        <path d="M 331.51 47.18 C 280.74 33.26 226.21 30.97 176.11 40.07 C 126.28 49.12 76.99 83.45 44.75 124.00 C 11.42 165.93 23.80 228.05 23.82 279.78 C 23.84 318.60 34.12 354.51 40.89 391.66 C 49.97 441.53 103.22 472.92 145.27 495.14 C 209.00 528.82 285.59 495.02 350.08 474.08 C 396.53 458.99 432.37 419.42 466.06 384.30 C 482.71 366.94 496.95 349.94 500.39 323.99 C 505.55 285.05 515.69 241.73 506.14 203.37 C 494.55 156.84 466.44 109.67 417.22 92.45 C 391.98 83.62 375.52 58.99 351.21 47.84 L 354.33 48.88 " fill="#FFFF00"/>
    </g>
    <g id="wreath">
        <path d="M 431.18 106.32 C 372.59 80.94 271.63 65.09 218.08 65.85 C 145.17 66.89 69.43 113.01 44.78 151.55 C 8.16 208.76 15.05 273.10 21.49 314.03 C 30.20 369.39 105.06 431.20 132.93 448.83 C 155.50 463.11 194.22 484.99 246.41 484.56 C 301.47 484.10 370.80 446.51 402.41 421.67 C 437.33 394.24 478.39 342.32 481.39 281.93 C 483.01 249.35 472.94 169.36 423.68 132.29 C 378.57 98.36 287.87 73.75 215.08 74.68 C 156.39 75.44 84.11 109.00 52.80 163.01 C 29.91 202.51 29.14 292.68 34.90 322.67 C 41.96 359.45 52.10 409.01 91.46 448.57 C 119.99 477.24 196.11 504.47 251.17 501.37 C 331.61 496.83 392.00 466.77 430.56 419.90 C 458.38 386.09 495.04 331.30 497.45 269.54 C 499.15 225.97 483.33 180.42 466.48 140.54 " stroke="#FF0000" stroke-width="8.10" stroke-linecap="round" stroke-linejoin="round" fill="none"/>
    </g>
    <g id="al">
        <path d="M 337.89 392.21 C 337.89 392.21 350.67 304.95 355.45 264.59 C 359.94 226.73 372.22 150.69 373.98 115.69 C 376.40 67.83 382.43 11.30 365.25 10.09 C 337.50 8.12 342.56 79.46 342.56 125.11 C 342.56 169.74 350.87 283.45 360.22 321.68 C 369.57 359.91 378.32 368.60 386.16 373.82 C 398.42 381.99 406.77 385.26 414.92 378.04 C 422.81 371.05 409.96 353.52 396.39 344.42 C 385.32 336.99 356.51 309.02 328.28 301.90 " stroke="#000080" stroke-width="15.08" stroke-linecap="round" stroke-linejoin="round" fill="none"/>
        <path d="M 119.32 155.36 C 135.29 154.84 176.32 152.61 209.58 155.97 C 225.79 157.60 294.30 161.50 297.21 198.41 C 300.12 235.33 295.08 263.14 293.42 284.70 C 291.57 308.76 274.71 364.66 255.83 375.73 C 236.94 386.80 220.49 400.11 170.94 403.41 C 135.30 405.79 103.62 393.63 95.06 374.01 C 87.38 356.41 106.39 316.52 121.00 291.68 C 132.68 271.82 162.24 247.08 181.62 247.45 C 216.21 248.11 250.09 291.71 261.83 305.06 C 272.33 317.00 295.27 346.53 302.16 362.02 C 309.04 377.51 312.59 389.88 301.01 390.96 C 288.14 392.15 267.21 390.69 262.54 369.40 C 257.86 348.11 267.56 277.18 267.75 254.57 C 267.97 227.89 273.01 164.65 263.60 153.59 C 247.89 135.13 211.89 134.08 194.24 133.68 C 176.59 133.28 159.56 131.05 117.29 134.21 " stroke="#000080" stroke-width="15.08" stroke-linecap="round" stroke-linejoin="round" fill="none"/>
    </g>
</svg>