<?xml version="1.0" standalone="yes"?>
<!DOCTYPE svg PUBLIC "-//W3C//DTD SVG 20010904//EN"
    "http://www.w3.org/TR/2001/REC-SVG-20010904/DTD/svg10.dtd"
>
<svg xmlns="http://www.w3.org/2000/svg"
    width="215.788" height="278.979" viewBox="0 0 216 279">
    <g stroke-width="5" stroke-linecap="round">

        <g stroke="#81027E">
            <!-- legs -->
            <path fill="none" d="M 134.101 262.333L 169.288 179.583L 206.288 257.583"/>

            <!-- l arm -->
            <path fill="#ffbfff" d="M 160.288 113.583L 213.288 104.583"/>

            <!-- r arm -->
            <path fill="#ffbfff" d="M 161.288 121.583L 116.017 173.25"/>

            <!-- body -->
            <path fill="#ffbfff" d="M 153.788 76.5833L 169.288 182.583"/>

            <!-- head -->
            <path fill="#ffffbf" d="M 158.707 95.9881C 184.482 88.13 199.145 61.3189 191.457 36.1048C 183.77 10.8907 156.643 -3.17957 130.869 4.67853C 105.095 12.5366 90.4315 39.3478 98.1189 64.5618C 105.806 89.7759 132.933 103.846 158.707 95.9881z"/>


            <!-- hair -->
            <path fill="#CC3399" d="M 107.955 18.5833L 99.9548 39.25L 108.621 29.25L 104.621 43.9166"/>
            <path fill="#CC3399" d="M 108.621 26.5833L 127.288 10.5833"/>
            <path fill="#CC3399" d="M 119.288 11.5833L 156.288 7.58331L 123.288 19.5833L 147.288 18.5833L 134.288 27.5833L 149.288 24.5833"/>

            <!-- mouth -->
            <path fill="#ffffff" d="M 130.288 78.5833C 130.288 78.5833 145.755 90.6868 153.538 88.5833C 162.788 86.0833 175.538 68.8333 175.538 68.8333"/>
            <path fill="none" d="M 123.538 78.0833C 123.538 78.0833 139.288 77.5833 149.288 75.5833C 159.288 73.5833 177.288 67.3958 177.288 67.3958"/>

            <!-- eyes behind eyeglasses -->
            <path d="M 131.496 50.4791L 133.83 55.8125"/>
            <path d="M 162.288 44.5833L 163.955 49.25"/>
            <path fill="none" d="M 110.288 53.5833L 89.2881 48.5833L 89.2881 59.5833"/>
            <path fill="#FFFFFF" opacity="0.4" d="M 128.288 67.9681C 137.27 67.9681 144.552 59.7368 144.552 49.5833C 144.552 39.4298 137.27 31.1985 128.288 31.1985C 119.306 31.1985 112.025 39.4298 112.025 49.5833C 112.025 59.7368 119.306 67.9681 128.288 67.9681z"/>
            <path fill="#FFFFFF" opacity="0.4" d="M 161.788 61.9681C 170.77 61.9681 178.052 53.7368 178.052 43.5833C 178.052 33.4298 170.77 25.1985 161.788 25.1985C 152.806 25.1985 145.525 33.4298 145.525 43.5833C 145.525 53.7368 152.806 61.9681 161.788 61.9681z"/>
            <path fill="none" d="M 128.288 67.9681C 137.27 67.9681 144.552 59.7368 144.552 49.5833C 144.552 39.4298 137.27 31.1985 128.288 31.1985C 119.306 31.1985 112.025 39.4298 112.025 49.5833C 112.025 59.7368 119.306 67.9681 128.288 67.9681z"/>
            <path fill="none" d="M 161.788 61.9681C 170.77 61.9681 178.052 53.7368 178.052 43.5833C 178.052 33.4298 170.77 25.1985 161.788 25.1985C 152.806 25.1985 145.525 33.4298 145.525 43.5833C 145.525 53.7368 152.806 61.9681 161.788 61.9681z"/>
        </g>


        <path style="stroke:#40AA54; fill:#ffffbf" d="M 91.9548 123.25L 97.9548 123.917"/>
        <path style="stroke:#ff7f00; fill:#ffffbf" d="M 89.9548 129.917L 93.9548 139.25"/>
        <path style="stroke:#ff7f00; fill:#ffffbf" d="M 15.2881 142.583L 13.9548 157.917"/>

        <g stroke="#7F0000" fill="none">
            <path fill="#C0E8F1" d="M 61.5057 155.588C 86.2007 148.21 100.601 123.421 93.6698 100.223C 86.7383 77.0243 61.0989 64.1995 36.4038 71.5783C 11.7088 78.9571 -2.69176 103.746 4.23984 126.944C 11.1713 150.142 36.8106 162.967 61.5057 155.588z"/>
            <path d="M 40.6214 109.25L 43.2881 117.917"/>
            <path d="M 66.2464 109.083L 68.9131 117.75"/>
            <path d="M 31.9548 135.917C 31.9548 135.917 45.2881 137.917 56.6214 136.583C 67.9548 135.25 75.2881 131.917 75.2881 131.917C 75.2881 131.917 66.6214 143.917 57.2881 146.583C 47.9548 149.25 37.2881 137.917 37.2881 137.917"/>
            <path d="M 53.9548 159.917C 53.9548 161.917 63.2881 223.917 63.2881 223.917"/>
            <path d="M 30.0589 276.479L 62.0589 225.812L 95.2881 265.917"/>
            <path d="M 17.9548 203.917L 53.9548 175.917"/>
            <path d="M 60.6214 183.25L 88.6214 182.583"/>

            <!-- hair -->
            <path id="jeremy.hair" stroke="#CC0066" d="M 5.95484 101.25L 4.62144 88.5833L 11.2881 102.583C 11.2881 102.583 11.9548 76.5833 12.6214 78.5833C 13.2881 80.5833 19.9548 91.25 19.9548 91.25L 25.2881 69.9166L 35.2881 83.25C 35.2881 83.25 35.9548 59.9166 37.2881 62.5833C 38.6214 65.25 50.6214 84.5833 50.6214 84.5833L 53.2881 63.9166L 61.2881 74.5833C 61.2881 74.5833 67.9548 65.9166 69.2881 67.9166C 70.6214 69.9166 77.9548 83.9166 77.9548 83.9166L 82.6214 75.25L 88.6214 89.9166">
                <animateColor attributeName="stroke" attributeType="CSS"
                        values="#CC9900;#00FF00;#99CCFF;#CCCC33;#990000;#CC9900"
                        begin="0s" dur="300s" repeatCount="indefinite"/>
            </path>
        </g>
    </g>
</svg>
