<svg xmlns="http://www.w3.org/2000/svg"
		xmlns:xlink="http://www.w3.org/1999/xlink"
		viewBox="0 0 240 120"
		width="480" height="240"
>
	<title>Australian Merchant Flag (1901-1908)</title>
	<desc>
		A red flag with the Union Jack in the canton, 
		a 6-pointed federal star in the lower hoist,
		and the Southern Cross represented with stars of 9, 8, 7, 6, and 5
		points in the fly.
	</desc>
	<defs>
		<style type="text/css">
			.blue {
				fill: #003366;
				stroke: none;
			}
			.red {
				fill: #CC0033;
				stroke: none;
			}
			.white {
				fill: #FFFFFF;
				stroke: none;
			}
		</style>

		<!--
			Union Flag instructions from
			http://www.jdawiseman.com/papers/union-jack/union-jack.html#correct-construction
		-->
		<g id="unionflag">
			<rect class="blue" x="-30" y="-15" width="60" height="30"/>
			<path class="white"
					d="M-30,-15 H-23.3 L30,11.6 V15 H23.3 L-30,-11.6 Z"/>
			<path class="white"
					d="M-30,15 H-23.3 L30,-11.6 V-15 H23.3 L-30,11.6 Z"/>
			<path class="red"
					d="M-30,-15 V-12.8 L-4.5,0 H0 Z
					M30,15 V12.8 L4.5,0 H0 Z
					M30,-15 H25.5 L0,-2.2 V0 Z
					M-30,15 H-25.5 L0,2.2 V0 Z"/>
			<path d="M-30,-5 H-5 V-15 H5 V-5
					H30 V5 H5 V15 H-5 V5 H-30 Z"
					fill="white" stroke="none"/>
			<path class="red"
					d="M-30,-3 L-3,-3 -3,-15 3,-15, 3,-3
					30,-3 30,3, 3,3,  3,15, -3,15, -3,3, -30,3 Z"/>
		</g>
	</defs>

	<rect class="red" x="0" y="0" width="240" height="120"/>
	<use xlink:href="#unionflag" x="30" y="15" transform="scale(2)"/>

	<!-- Federal star of SIX points -->
	<path transform="translate(60, 90)" 
			d="M0,-18.0  L-4.0,-6.9  L-15.6,-9.0  L-8.0,-0.0  L-15.6,9.0  L-4.0,6.9  L-0.0,18.0  L4.0,6.9  L15.6,9.0  L8.0,0.0  L15.6,-9.0  L4.0,-6.9  L0.0,-18.0  Z"

			fill="white" stroke="none"
	/>


	<!-- Southern cross star placements from Flags Act 1953 
		http://www.ausflag.com.au/info/flagsact.html
	-->
	<g class="white">
		<!-- Alpha (bottom), 9 points -->
		<path transform="translate(180,100)"
				d="M0,-8.6  L-1.3,-3.6  L-5.5,-6.6  L-3.3,-1.9  L-8.4,-1.5  L-3.8,0.7  L-7.4,4.3  L-2.4,2.9  L-2.9,8.1  L-0.0,3.8  L2.9,8.1  L2.4,2.9  L7.4,4.3  L3.8,0.7  L8.4,-1.5  L3.3,-1.9  L5.5,-6.6  L1.3,-3.6  L0.0,-8.6  Z"
		/>

		<!-- Beta (left), 8 points -->
		<path transform="translate(150,52.5)"
				d="M0,-8.6  L-1.5,-3.5  L-6.1,-6.1  L-3.5,-1.5  L-8.6,-0.0  L-3.5,1.5  L-6.1,6.1  L-1.5,3.5  L-0.0,8.6  L1.5,3.5  L6.1,6.1  L3.5,1.5  L8.6,0.0  L3.5,-1.5  L6.1,-6.1  L1.5,-3.5  L0.0,-8.6  Z"

		/>

		<!-- Gamma (top), 7 points -->
		<path transform="translate(180,20)"
				d="M0,-8.6  L-1.7,-3.4  L-6.7,-5.3  L-3.7,-0.8  L-8.4,1.9  L-3.0,2.4  
				L-3.7,7.7  L-0.0,3.8  L3.7,7.7  L3.0,2.4  L8.4,1.9  L3.7,-0.8  
				L6.7,-5.3  L1.7,-3.4  L0.0,-8.6  Z"
		/>

		<!-- Delta (right), 6 points -->
		<path transform="translate(206.7,43.5)"
				d="M0,-8.6  L-1.9,-3.3  L-7.4,-4.3  L-3.8,-0.0  L-7.4,4.3  L-1.9,3.3  L-0.0,8.6  L1.9,3.3  L7.4,4.3  L3.8,0.0  L7.4,-4.3  L1.9,-3.3  L0.0,-8.6  Z"

		/>

		<!-- Epsilon, 5 points -->
		<path transform="translate(190,65)"
			
d="M0,-6.0  L-1.6,-2.2  L-5.7,-1.9  L-2.5,0.8  L-3.5,4.9  L-0.0,2.7  L3.5,4.9  L2.5,0.8  L5.7,-1.9  L1.6,-2.2  L0.0,-6.0  Z"
		/>
	</g>

</svg>