<svg xmlns="http://www.w3.org/2000/svg"
	xmlns:xlink="http://www.w3.org/1999/xlink"
	viewBox="203.0 0 577 792"
	width="810.075" height="809.445">
<g id="scene">
        <set attributeName="opacity" to="1" 
		        fill="freeze" begin="btn1.click"/>
        <set attributeName="opacity" to="0" 
		        fill="freeze" begin="btn2.click"/>
        <set attributeName="opacity" to="0" 
		        fill="freeze" begin="scene.load"/>

<g>
<path fill="#4473B4" stroke="none" d="
M 779.963 792
L 779.963 0
L 202.963 0
L 202.963 792
L 779.963 792z"/>
</g>
<g opacity="0.5">
<path fill="none" stroke-width="36" stroke-linecap="round" stroke="#FFFFC0" stroke-linejoin="round" d="M 253.401 248.062C 258.362 240.62 249.893 239.078 259.401 220.062C 283.401 242.062 309.401 250.062 333.401 264.062C 349.401 224.062 405.026 149.062 405.026 149.062C 437.026 149.062 439.963 155.5 471.963 154.75C 503.963 154 559.963 133.5 573.963 126.75C 587.963 120 591.963 114.75 597.963 106.75"/>
<path fill="none" stroke-width="36" stroke-linecap="round" stroke="#FFFFC0" stroke-linejoin="round" d="M 413.401 148.062L 409.401 270.062C 409.401 270.062 383.401 260.812 369.401 254.062C 355.401 247.312 353.401 248.062 333.401 236.062C 320.419 228.273 295.401 226.812 289.401 216.812C 279.401 228.812 291.401 240.062 285.401 254.062"/>
<path fill="none" stroke-width="36" stroke-linecap="round" stroke="#FFFFC0" stroke-linejoin="round" d="M 556.463 130.938C 556.463 130.938 562.463 144.938 566.463 152.938C 580.463 174.938 603.963 200 621.963 214C 629.963 220 653.963 232 653.963 232"/>
<path fill="none" stroke-width="36" stroke-linecap="round" stroke="#FFFFC0" stroke-linejoin="round" d="M 559.963 136C 559.963 136 587.963 154 607.963 166C 613.963 168 643.963 184.75 651.963 186C 659.963 187.25 667.963 186 673.963 180"/>
<path fill="none" stroke-width="36" stroke-linecap="round" stroke="#FFFFC0" stroke-linejoin="round" d="M 619.151 148.25C 635.151 155.5 655.151 159 673.151 146.25C 691.151 133.5 713.151 83 705.151 72.25C 697.151 61.5 695.151 59 675.151 52.25C 655.151 45.5 625.151 39 611.151 52.25C 597.151 65.5 587.151 91.5 589.151 111.5C 591.151 131.5 603.151 141 619.151 148.25z"/>
</g>
<g>
<path fill="#F882BF" stroke="none" d="M 619.297 48C 619.297 48 651.297 48 664.63 52.6667C 677.963 57.3333 704.63 66 704.63 76.6667C 704.63 87.3333 693.963 122 681.963 136C 669.963 150 655.297 159.333 637.297 155.333C 619.297 151.333 587.963 134.667 587.297 116.667C 586.63 98.6667 595.297 68 603.963 59.3333C 612.63 50.6667 619.297 48 619.297 48z"/>
</g>
<g>
<path fill="none" stroke-width="6" stroke-linecap="round" stroke="#FF0000" stroke-linejoin="round" d="M 577.573 149.099C 586.914 154.994 598.454 162.198 608.124 168C 614.124 170 644.124 186.75 652.124 188C 660.124 189.25 668.124 188 674.124 182"/>
<path fill="none" stroke-width="6" stroke-linecap="round" stroke="#FF0000" stroke-linejoin="round" d="M 619.311 150.25C 635.311 157.5 655.311 161 673.311 148.25C 691.311 135.5 713.311 85 705.311 74.25C 697.311 63.5 695.311 61 675.311 54.25C 655.311 47.5 625.311 41 611.311 54.25C 597.311 67.5 587.311 93.5 589.311 113.5C 591.311 133.5 603.311 143 619.311 150.25z"/>
<path fill="none" stroke-width="6" stroke-linecap="round" stroke="#FF0000" stroke-linejoin="round" d="M 253.561 250.062C 253.561 250.062 250.053 241.078 259.561 222.062C 264.831 226.893 270.197 231.049 275.617 234.741"/>
<path fill="none" stroke-width="6" stroke="#F882BF" stroke-linejoin="round" d="M 275.617 234.741C 278.055 236.402 280.505 237.969 282.961 239.462"/>
<path fill="none" stroke-width="6" stroke-linecap="round" stroke="#FF0000" stroke-linejoin="round" d="M 413.561 150.062L 409.561 272.062C 409.561 272.062 383.561 262.812 369.561 256.062C 364.948 253.838 355.339 250.121 344.314 245.778"/>
<path fill="none" stroke-width="6" stroke-linecap="round" stroke="#FF0000" stroke-linejoin="round" d="M 334.304 241.804C 314.204 233.736 293.002 224.547 289.561 218.812C 279.561 230.812 285.561 256.062 285.561 256.062"/>
<path fill="none" stroke-width="6" stroke="#F882BF" stroke-linejoin="round" d="M 344.314 245.778C 341.07 244.5 337.702 243.168 334.304 241.804"/>
<path fill="#80D0E3" stroke-width="4" stroke="#01A0C6" stroke-linejoin="round" d="M 635.328 89.2329C 634.38 89.75 631.727 102.753 632.22 103.21C 632.713 103.667 638.95 104.772 639.957 104.261C 640.963 103.75 643.297 92.3053 643.047 91.2776C 642.797 90.25 636.276 88.7159 635.328 89.2329z"/>
<path fill="#80D0E3" stroke-width="4" stroke="#01A0C6" stroke-linejoin="round" d="M 662.098 97.4856C 661.13 98 658.978 108.899 659.554 109.825C 660.13 110.75 666.099 112.973 667.115 112.445C 668.13 111.917 670.065 101.504 669.639 100.169C 669.213 98.8333 663.067 96.9712 662.098 97.4856z"/>
<path fill="none" stroke-width="4" stroke-linecap="round" stroke="#FF0000" stroke-linejoin="round" d="M 630.963 130.5C 633.463 136.5 640.463 138 646.463 138.5"/>
<path fill="none" stroke-width="6" stroke="#F882BF" d="M 560.124 138C 560.124 138 567.593 142.802 577.573 149.099"/>
<path fill="none" stroke-width="6" stroke-linecap="round" stroke="#FF0000" stroke-linejoin="round" d="M 558.213 137C 558.213 137 562.624 146.938 566.624 154.938C 580.624 176.938 604.124 202 622.124 216C 630.124 222 654.124 234 654.124 234"/>
<path fill="none" stroke-width="6" stroke-linecap="round" stroke="#FF0000" stroke-linejoin="round" d="M 282.961 239.462C 299.912 249.764 317.201 256.519 333.561 266.062C 349.561 226.062 405.026 149.062 405.026 149.062C 437.026 149.062 440.124 157.5 472.124 156.75C 504.124 156 560.124 135.5 574.124 128.75C 582.123 124.893 585.255 123.42 588.963 119.75"/>
<path fill="none" stroke-width="4" stroke="#FF0000" d="M 664.63 52C 667.963 51.3333 671.297 52.6667 673.963 55.3333C 675.963 58 675.963 60.6667 676.63 63.3333C 677.297 68 677.297 72.6667 674.63 76C 671.297 79.3333 665.963 82 661.297 80C 657.297 78 654.63 72.6667 657.297 68C 658.63 66 661.963 66 664.63 66.6667"/>
</g>
<g>
<path fill="#DDB7DA" stroke="none" d="M 273.297 352.667C 273.297 352.667 319.297 341.333 337.963 345.333C 356.63 349.333 391.602 369.452 399.963 379.333C 414.63 396.667 418.94 429.611 416.63 448.667C 413.963 470.667 388.522 509.349 369.297 518C 342.63 530 288.632 524.818 269.297 514.667C 242.63 500.667 228.17 469.963 231.297 434C 235.297 388 241.297 362 273.297 352.667z"/>
<path fill="none" stroke-width="6" stroke="#F0047F" d="M 283.963 448C 284.963 448 286.963 448 287.963 448C 313.963 464 344.963 455 368.963 443C 382.963 436 394.963 422 393.963 405"/>
<path fill="#FEE0B3" stroke="none" d="M 671.963 328C 694.463 329.5 739.463 344.5 751.463 364C 763.463 383.5 767.963 430 754.463 454C 740.963 478 716.963 509.5 677.963 511C 638.963 512.5 607.463 505 593.963 487C 580.463 469 577.463 431.5 581.963 404.5C 586.463 377.5 610.463 349 631.463 340C 652.463 331 671.963 328 671.963 328z"/>
<path fill="#FC815F" stroke="none" d="M 596.63 373.333L 589.297 353.333L 598.63 352.667L 601.297 315.333L 612.63 334.667L 618.63 286L 641.297 320.667L 651.963 283.333L 673.963 316C 673.963 316 693.963 269.333 692.63 273.333C 691.297 277.333 701.963 320.667 701.963 320.667L 735.297 294.667L 735.297 333.333L 767.963 325.333L 756.63 350.667L 777.963 360L 769.963 369.333L 777.297 380L 777.297 416L 758.63 440L 714.963 376L 668.963 375L 642.63 348.667L 596.63 373.333z"/>
</g>
<g>
<path fill="none" stroke-width="6" stroke-linecap="round" stroke="#81027E" stroke-linejoin="round" d="M 249.963 502.667C 284.795 527.999 333.965 536.278 370.63 516.667C 399.17 501.401 419.391 463.416 416.963 427C 413.963 382 392.963 370 368.963 358C 344.963 346 326.963 343 293.963 349C 260.963 355 248.963 364 239.963 385C 230.963 406 223.589 483.485 249.963 502.667z"/>
<path fill="none" stroke-width="6" stroke-linecap="round" stroke="#81027E" stroke-linejoin="round" d="M 341.963 532C 338.963 550 347.963 565 356.963 580C 377.963 622 395.963 679 395.963 679C 395.963 679 332.963 754 323.963 778"/>
<path fill="none" stroke-width="6" stroke-linecap="round" stroke="#81027E" stroke-linejoin="round" d="M 395.963 679C 425.963 694 497.963 751 521.963 775"/>
<path fill="none" stroke-width="6" stroke-linecap="round" stroke="#81027E" stroke-linejoin="round" d="M 221.963 547C 251.963 553 329.963 592 356.963 601"/>
<path fill="none" stroke-width="6" stroke-linecap="round" stroke="#81027E" stroke-linejoin="round" d="M 380.963 613C 416.963 601 452.963 532 485.963 517"/>
<path fill="none" stroke-width="4" stroke-linecap="round" stroke="#482F93" d="M 301.297 405.333C 300.63 396 312.63 394.667 319.963 395.333"/>
<path fill="none" stroke-width="4" stroke-linecap="round" stroke="#482F93" d="M 347.963 392C 351.297 385.333 359.963 387.333 365.963 387.333C 366.63 387.333 367.297 388.667 367.297 390"/>
<path fill="#80CA7F" stroke-width="4" stroke-linecap="round" stroke="#008837" d="M 248.213 394.5C 251.463 390.25 250.463 382.5 248.963 377C 247.463 371.5 233.963 370 227.963 373C 221.963 376 215.963 386 221.963 392C 224.963 396 235.463 394.25 237.963 393C 240.463 391.75 241.463 387 239.963 385C 236.963 381 228.463 381.75 230.713 386"/>
<path fill="#80CA7F" stroke-width="4" stroke-linecap="round" stroke="#008837" d="M 258.713 367.5C 258.713 367.75 258.713 368.25 258.713 368.5C 260.713 370.5 263.713 370.75 266.213 370C 266.963 370 267.463 369 268.213 368.25C 268.713 367.75 268.463 367 268.713 366.5C 269.213 364 268.463 361.5 267.713 359.25C 267.463 358.5 265.963 357.75 264.963 357.25C 262.463 356.25 259.463 356.25 257.213 357C 251.463 359.5 252.963 366.75 252.963 372C 255.713 378.25 263.463 377.5 269.213 377.5C 271.713 375.75 273.713 373.5 275.213 371C 276.963 367 277.213 362.5 276.213 358.25C 275.713 356.25 273.713 354.5 271.963 353C 270.463 352 271.713 350.5 262.963 349C 254.213 347.5 248.463 350.75 246.463 355C 244.463 359.25 244.963 362.5 244.963 366.25"/>
<path fill="#80CA7F" stroke-width="4" stroke-linecap="round" stroke="#008837" d="M 225.963 416C 224.963 415 226.963 413 226.963 413C 229.963 412 233.963 412 234.963 414C 236.963 415 236.963 420 234.963 423C 231.963 428 223.963 428 220.963 425C 217.963 422 217.963 412 220.963 409C 224.963 405 235.963 402 240.963 408C 245.963 413 243.963 422 241.963 430C 241.963 433 236.963 434 233.963 436C 231.963 432 229.963 436 227.963 437C 225.963 438 222.963 437 219.963 437"/>
<path fill="#80CA7F" stroke-width="4" stroke-linecap="round" stroke="#008837" d="M 267.963 343C 278.963 343 280.963 327 277.963 319C 277.963 317 275.963 315 273.963 313C 266.963 308 257.963 307 249.963 310C 239.963 313 239.963 327 241.963 336C 242.963 343 251.963 344 257.963 341C 263.963 339 265.213 325 262.963 323C 260.713 321 255.213 322.25 253.963 323C 252.713 323.75 252.963 325 252.963 325"/>
<path fill="#80CA7F" stroke-width="4" stroke-linecap="round" stroke="#008837" d="M 291.297 342.333C 291.297 340.333 294.13 337.5 291.63 335.333C 289.13 333.167 282.963 336 282.963 337C 280.963 340 280.963 346 282.963 347C 284.963 350 290.63 350.333 293.963 349C 297.297 347.667 302.963 337 299.963 330C 297.963 326 289.797 325.5 284.963 327.5"/>
<path fill="#80CA7F" stroke-width="4" stroke-linecap="round" stroke="#008837" d="M 326.963 347C 326.963 349 327.963 350.5 326.963 352C 325.963 353.5 321.63 353.333 319.963 352C 318.297 350.667 317.963 342 321.963 339C 323.963 337 329.963 335 330.963 338C 335.963 343 334.963 352 331.963 357C 325.963 365 313.963 358 310.963 351C 308.963 345 307.963 337 311.963 333C 316.963 327 326.963 327 331.963 330C 338.963 334 341.963 342 339.963 351"/>
<path fill="#80CA7F" stroke-width="4" stroke-linecap="round" stroke="#008837" d="M 359.963 342C 360.963 342 362.963 342 362.963 343C 362.963 345 363.963 347 361.963 348C 358.963 348 355.963 349 353.963 348C 352.963 346 351.963 343 352.963 340C 355.963 335 363.963 335 366.963 339C 371.963 344 369.963 353 368.963 358C 365.963 361 355.963 361 351.963 358C 343.963 354 348.963 344 347.963 337C 349.963 337 348.963 335 350.963 335"/>
<path fill="#80CA7F" stroke-width="4" stroke-linecap="round" stroke="#008837" d="M 389.963 352C 390.963 352 392.963 352 392.963 352C 393.963 354 393.963 358 392.963 359C 390.963 361 385.963 361 384.963 359C 381.963 356 380.963 350 383.963 347C 386.963 342 395.963 342 399.963 345C 406.963 350 401.963 360 402.963 368C 394.963 369 383.963 372 378.963 367C 373.963 361 375.963 351 377.963 342C 377.963 340 380.963 338 383.963 339"/>
<path fill="#80CA7F" stroke-width="4" stroke-linecap="round" stroke="#008837" d="M 229.963 359C 229.963 358 229.963 357 229.963 357C 235.963 355 236.963 364 233.963 365C 229.963 367 221.963 368 219.963 365C 216.963 363 217.963 355 219.963 351C 222.963 345 231.963 349 237.963 348C 237.963 350 237.963 351 237.963 353"/>
<path fill="#80CA7F" stroke-width="4" stroke-linecap="round" stroke="#008837" d="M 311.963 369C 313.963 369 315.463 368 316.963 369C 318.463 370 318.13 376 316.963 378C 315.797 380 306.963 380 304.963 377C 302.963 374 302.963 368 304.963 366C 308.963 362 317.963 362 320.963 365C 324.963 368 325.963 378 320.963 382C 315.963 387 304.963 388 299.963 383C 293.963 378 296.297 363.833 297.963 361C 299.63 358.167 304.63 358.167 306.963 358"/>
<path fill="#80CA7F" stroke-width="4" stroke-linecap="round" stroke="#008837" d="M 259.963 403C 259.963 401 259.963 399 259.963 398C 252.963 396 250.963 404 253.963 409C 254.963 411 260.963 411 262.963 409C 266.963 406 265.963 398 263.963 395C 261.963 391 255.963 392 250.963 393C 244.963 395 245.963 401 245.963 406"/>
<path fill="#80CA7F" stroke-width="4" stroke-linecap="round" stroke="#008837" d="M 244.963 441C 240.963 440 239.963 444 240.963 445C 247.963 450 252.963 441 247.963 437C 245.963 435 240.963 435 237.963 437C 233.963 439 234.963 446 236.963 451C 236.963 453 239.963 454 242.963 453"/>
<path fill="#80CA7F" stroke-width="4" stroke-linecap="round" stroke="#008837" d="M 287.963 362C 286.963 362 286.297 360.833 284.963 362C 283.63 363.167 284.13 366.5 284.963 368C 285.797 369.5 290.463 369.667 291.963 367C 293.463 364.333 294.963 359 291.963 358C 288.963 356 283.963 356 280.963 358C 275.963 361 279.797 371 280.963 373C 282.13 375 283.963 375 286.963 375"/>
<path fill="#80CA7F" stroke-width="4" stroke-linecap="round" stroke="#008837" d="M 342.963 332C 341.963 332 339.963 332 338.963 332C 337.963 330 337.963 327 338.963 326C 340.963 325 344.963 325 344.963 326C 346.963 329 344.963 333 347.963 337C 345.963 338 342.963 338 340.963 338"/>
<path fill="#80CA7F" stroke-width="4" stroke-linecap="round" stroke="#008837" d="M 305.963 322C 305.963 324 304.963 326 305.963 327C 311.963 330 314.963 321 310.963 319C 307.963 317 302.963 315 299.963 318C 298.963 319 297.463 320.667 298.297 323.667"/>
<path fill="#80CA7F" stroke-width="4" stroke-linecap="round" stroke="#008837" d="M 280.713 350C 279.797 348.083 277.047 346 274.963 347.25C 272.88 348.5 270.213 351 271.963 353C 273.713 355 279.963 356.667 283.297 355.333C 287.297 354 287.297 346.667 285.297 344C 281.963 340.667 275.297 340.667 269.963 342.667C 264.63 344.667 264.963 357.167 265.963 359.333C 266.963 361.5 268.63 361.333 268.63 361.333L 271.297 362"/>
<path fill="#80CA7F" stroke-width="4" stroke-linecap="round" stroke="#008837" d="M 241.963 349.333C 241.297 349.333 240.63 349.333 240.63 349.333C 239.963 350.667 239.297 352.667 239.963 352.667C 241.963 354 245.297 354 246.63 352.667C 248.63 351.333 249.297 346.667 247.297 345.333C 244.63 342 238.63 342.667 234.63 344.667C 229.963 346.667 231.963 354 233.297 358C 235.297 362 243.963 362.667 247.963 358.667C 253.297 354.667 253.297 347.333 251.297 342.667C 248.63 338 241.963 338 236.63 338.667"/>
<path fill="#80CA7F" stroke-width="4" stroke-linecap="round" stroke="#008837" d="M 305.463 349C 305.213 348 305.963 346.5 305.213 346.25C 303.963 345.5 301.963 345.5 300.963 346.25C 299.213 347.25 299.713 350.25 300.213 352.25C 300.463 352.75 301.213 353 301.463 353.5C 301.963 354 302.963 354.25 303.463 354C 305.963 353.5 309.713 354.5 310.213 351.25L 310.963 351C 311.213 348.5 311.713 345.5 310.713 343.5C 307.963 337.75 300.963 341.5 296.213 343.25C 295.713 343.5 295.213 344.75 294.963 345.5C 294.463 348.75 293.713 352.25 295.713 355.25C 297.713 358.25 300.713 360.25 304.213 360.75C 306.213 361 308.463 361 310.463 360.5C 311.963 360.25 313.213 358.75 313.963 357.25"/>
<path fill="#80CA7F" stroke-width="4" stroke-linecap="round" stroke="#008837" d="M 254.145 374C 254.5 374 254.854 374 254.854 374C 255.563 372.667 254.5 371.333 254.5 371.333C 254.5 371.333 251.023 366.666 248.118 368.333C 245.213 370 245.605 377.417 247.409 378.334C 249.213 379.25 248.827 378 248.827 378C 248.827 378 255.209 380.667 257.691 379C 258.754 378.334 259.463 376.333 259.818 374.667C 260.527 372 260.881 369.333 259.818 367.667C 258.4 365.333 255.209 364.333 252.727 363.333C 249.536 362 242.446 362.666 242.446 362.666L 243.155 363.666C 243.155 363.666 239.609 365.666 238.9 367.667C 237.837 372 237.837 376.333 238.9 380.334C 239.609 382.667 242.8 384 245.282 384.667C 249.182 386.001 253.082 385.334 256.982 385.334"/>
<path fill="#80CA7F" stroke-width="4" stroke-linecap="round" stroke="#008837" d="M 241.963 400C 241.963 398.5 242.463 396.5 241.963 396.5C 236.463 393.5 235.963 401 237.463 404.5C 238.463 406.5 241.963 407 243.963 405.5C 247.963 403.5 247.963 398.5 246.463 394.5C 244.463 389.5 237.963 391 232.963 392C 230.463 393 229.463 395.5 229.463 397.5C 228.963 401.5 227.463 405.5 229.963 409.5"/>
<path fill="#80CA7F" stroke-width="4" stroke-linecap="round" stroke="#008837" d="M 228.463 439.5C 228.463 437.5 228.463 435.5 227.463 434C 226.463 432 221.963 431.5 220.963 433C 218.463 436.5 218.463 444 223.963 445.5C 226.963 446 229.963 446.5 231.963 445C 236.463 442 234.963 435.5 233.463 431.5C 230.963 425.5 222.963 427 217.463 427C 214.963 432.5 213.963 437.5 214.463 443.5"/>
<path fill="#80CA7F" stroke-width="4" stroke-linecap="round" stroke="#008837" d="M 230.463 411C 231.463 413.5 233.463 411 234.963 414C 235.463 414.5 237.463 414 238.463 414"/>
<path fill="none" stroke-width="6" stroke="#006629" d="M 594.293 376.428C 573.57 405.747 582.596 432.384 584.963 475C 586.175 496.807 646.285 521.276 683.963 511C 716.963 502 743.963 487 758.963 442"/>
<path fill="none" stroke-width="6" stroke="#006629" d="M 650.963 520C 641.963 544 632.963 571 623.963 592C 608.963 622 605.963 655 593.963 685"/>
<path fill="none" stroke-width="6" stroke="#006629" d="M 644.963 778C 638.963 742 587.963 694 587.963 694C 587.963 694 497.963 697 452.963 697C 449.963 697 458.963 682 449.963 676"/>
<path fill="none" stroke-width="6" stroke="#006629" d="M 743.963 571C 704.963 568 668.963 586 629.963 583C 602.877 580.917 587.963 541 560.963 526C 545.963 514 527.963 502 509.963 493"/>
<path fill="none" stroke-width="6" stroke="#F8023F" d="M 596.963 376C 596.963 367 589.463 362.5 587.963 353.5C 592.463 353.5 598.463 353.5 598.463 353.5C 602.963 340 599.963 325 599.963 310C 601.463 319 608.963 326.5 611.963 335.5C 619.463 319 611.963 302.5 617.963 286C 625.463 289 625.463 296.5 629.963 301C 634.463 307 634.463 316 640.463 320.5C 644.963 308.5 644.963 295 650.963 283C 652.463 290.5 656.963 298 662.963 304C 664.463 305.5 664.463 310 665.963 311.5C 668.963 313 671.963 320.5 673.463 317.5C 683.963 304 686.963 287.5 692.963 272.5C 695.963 289 697.463 304 701.963 320.5C 716.963 317.5 722.963 301 736.463 295C 736.463 308.5 736.463 320.5 736.463 334C 748.463 335.5 757.463 328 767.963 325C 767.963 337 757.463 353.5 757.463 353.5L 778.63 360C 778.63 360 775.463 370 769.463 371.5"/>
<path fill="#FC815F" stroke-width="4" stroke="#FD4027" d="M 637.901 383.625C 633.901 387.625 636.901 395.625 635.901 401.625C 637.901 401.625 640.901 402.625 641.901 401.625C 644.901 395.625 644.901 389.625 643.901 383.625C 643.901 383.625 641.901 383.625 640.901 383.625"/>
<path fill="#FC815F" stroke-width="4" stroke="#FD4027" d="M 672.963 407C 671.963 407 670.963 407 670.963 407C 668.963 413 667.963 419 668.963 426C 671.963 426 675.963 427 676.963 425C 678.963 419 678.963 413 676.963 407C 676.963 407 674.963 407 672.963 407z"/>
<path fill="none" stroke-width="4" stroke="#81027E" d="M 621.963 453.188C 638.963 457.188 654.963 459.188 672.963 456.188C 680.963 455.188 686.963 451.188 692.963 446.188C 683.963 455.188 678.963 468.188 667.963 474.188C 663.963 476.188 657.963 476.188 653.963 474.188C 649.963 473.188 648.963 467.188 647.963 462.188"/>
<path fill="none" stroke-width="4" stroke="#81027E" d="M 20.9634 484"/>
</g>
</g>
<g>
 <g>
  <path fill="#FEA033" stroke-width="6" stroke="#000000" d="M 584.462 187.781C 584.462 245.46 541.624 292.219 488.783 292.219C 435.942 292.219 393.104 245.46 393.104 187.781L 584.462 187.781z"/>
  <path fill="none" stroke-width="6" stroke="#000000" d="M 580.572 217.781C 580.572 217.781 596.072 209.781 606.572 209.781C 617.072 209.781 618.572 221.281 618.072 232.281C 617.572 243.281 603.572 253.281 584.072 261.281C 564.572 269.281 549.072 269.781 549.072 269.781"/>
 </g>
 <g>
  <g>
   <path fill="#FEA033" stroke-width="6" stroke="#000000" d="M 712.462 478.78C 712.462 536.46 669.624 583.219 616.783 583.219C 563.942 583.219 521.104 536.46 521.104 478.78L 712.462 478.78z"/>
   <path fill="none" stroke-width="6" stroke="#000000" d="M 708.572 508.78C 708.572 508.78 724.072 500.78 734.572 500.78C 745.072 500.78 746.572 512.281 746.072 523.281C 745.572 534.281 731.572 544.281 712.072 552.281C 692.572 560.281 677.072 560.781 677.072 560.781"/>
  </g>
  <g>
   <path fill="#FEA033" stroke-width="6" stroke="#000000" d="M 456.462 478.78C 456.462 536.46 413.624 583.219 360.783 583.219C 307.942 583.219 265.104 536.46 265.104 478.78L 456.462 478.78z"/>
   <path fill="none" stroke-width="6" stroke="#000000" d="M 452.572 508.78C 452.572 508.78 468.072 500.78 478.572 500.78C 489.072 500.78 490.572 512.281 490.072 523.281C 489.572 534.281 475.572 544.281 456.072 552.281C 436.572 560.281 421.072 560.781 421.072 560.781"/>
  </g>
 </g>
</g>
</svg>