<svg xmlns="http://www.w3.org/2000/svg"
	xmlns:xlink="http://www.w3.org/1999/xlink"
	width="766.337" height="904.117"
	viewBox="94.7 62.4 577 792">
<g>
<path style="stroke:none; fill:#C0E8F1" d="M 671.689 854.407L 671.356 62.3444L 94.5852 62.5111L 94.9186 854.574L 671.689 854.407z"/>
<path style="stroke:#000000; stroke-width:6; fill:#13017C" d="M 149.502 98.4694L 149.502 174.469"/>
<path style="stroke:none; fill:#FDC0A7" d="M 123.502 346.469"/>
<path style="stroke:#9F853A; stroke-width:6; fill:#BFAC6F" d="M 499.502 672.469C 505.502 616.469 521.502 560.469 519.502 504.469C 503.502 492.469 493.502 474.469 489.502 454.469C 485.502 446.469 477.502 442.469 475.502 434.469C 471.502 418.469 469.502 400.469 475.502 384.469C 475.502 380.469 485.502 382.469 491.502 382.469C 489.502 400.469 497.502 416.469 505.502 432.469C 513.502 448.469 525.502 464.469 537.502 480.469C 541.502 488.469 547.502 488.469 551.502 486.469C 557.502 482.469 567.502 480.469 571.502 472.469C 577.502 446.469 585.502 422.469 595.502 390.469C 593.502 386.469 609.502 392.469 619.502 390.469C 619.502 400.469 621.502 412.469 617.502 422.469C 609.502 440.469 605.502 458.469 595.502 476.469C 589.502 488.469 593.502 500.469 593.502 510.469C 593.502 562.469 601.502 614.469 619.502 666.469C 621.502 672.469 625.502 678.469 631.502 684.469"/>
<path style="stroke:#008837; stroke-width:6; fill:#40AA54" d="M 671.335 144.469L 670.502 144.469L 665.502 142.469C 663.502 142.469 663.502 142.469 661.502 142.469C 663.502 126.469 663.502 106.469 645.502 102.469C 629.502 98.4694 611.502 98.4694 595.502 100.469C 579.502 102.469 575.502 114.469 579.502 128.469L 583.502 128.469C 585.502 120.469 581.502 112.469 577.502 110.469C 557.502 102.469 506.897 118.066 525.502 130.469C 507.502 118.469 479.502 112.469 465.502 134.469C 459.502 146.469 459.502 160.469 461.502 174.469C 463.502 180.469 467.502 184.469 475.502 184.469C 455.502 180.469 429.502 172.469 411.502 188.469C 393.502 204.469 377.502 226.469 387.502 252.469C 391.502 268.469 409.502 280.469 427.502 276.469C 399.502 282.469 379.502 304.469 373.502 330.469C 367.502 354.469 365.502 380.469 381.502 400.469C 405.502 426.469 441.502 422.469 473.502 420.469C 487.502 418.469 487.502 404.469 485.502 394.469L 479.502 394.469C 477.502 406.469 477.502 420.469 481.502 432.469C 483.502 440.469 491.502 448.469 499.502 454.469C 513.502 462.469 529.502 462.469 545.502 460.469C 563.502 456.469 577.502 442.469 589.502 428.469C 597.502 416.469 607.502 398.469 595.502 390.469C 589.502 386.469 577.502 386.469 571.502 390.469C 569.502 392.469 569.502 400.469 571.502 404.469C 587.502 418.469 607.502 424.469 627.502 418.469C 641.502 414.469 653.502 402.469 659.502 388.469C 663.502 382.469 665.502 374.469 659.502 368.469C 659.502 370.469 659.502 370.469 659.502 372.469L 669.502 367.469L 671.419 367.553"/>
<path style="stroke:#9F853A; stroke-width:6; fill:#BFAC6F" d="M 93.5019 466.469C 105.502 466.469 115.502 466.469 125.502 460.469C 127.502 478.469 125.502 496.469 131.502 512.469C 139.502 508.469 139.502 498.469 141.502 490.469C 145.502 482.469 151.502 472.469 159.502 470.469C 167.502 466.469 175.502 470.469 183.502 468.469C 191.502 464.469 199.502 462.469 207.502 460.469L 225.502 458.469C 221.502 464.469 217.502 468.469 211.502 472.469C 197.502 488.469 191.502 506.469 175.502 520.469C 169.502 526.469 167.502 534.469 167.502 540.469C 163.502 568.469 161.502 596.469 169.502 626.469C 171.502 634.469 181.502 646.469 175.502 650.469C 153.502 668.469 123.502 660.469 97.5019 660.469"/>
<path style="stroke:#008837; stroke-width:6; fill:#40AA54" d="M 94.0019 464.969L 99.5019 464.969C 99.5019 464.969 102.502 480.469 115.502 478.469C 147.681 473.519 179.502 484.469 211.502 472.469C 231.502 466.469 253.502 450.469 245.502 426.469C 241.502 416.469 223.502 418.469 221.502 422.469C 211.502 444.469 245.502 462.469 263.502 468.469C 291.502 474.469 329.502 460.469 335.502 428.469C 339.502 406.469 341.502 380.469 321.502 370.469C 311.502 366.469 299.502 368.469 287.502 368.469C 303.502 370.469 323.502 370.469 327.502 352.469C 335.502 320.469 323.502 278.469 289.502 270.469C 271.502 266.469 253.502 268.469 235.502 270.469C 249.502 272.469 261.502 258.469 263.502 248.469C 271.502 222.469 261.502 190.469 235.502 182.469C 221.502 178.469 207.502 178.469 193.502 182.469C 183.502 184.469 179.502 198.469 171.502 198.469C 145.502 202.469 107.831 176.905 99.7519 179.969C 96.1269 181.344 97.6269 186.344 97.6269 188.344L 94.5019 188.594"/>
<path style="stroke:#FFFFC0; stroke-width:20; fill:none" d="M 364.439 118.407L 393.314 136.532"/>
<path style="stroke:#000000; stroke-width:8; fill:none" d="M 365.752 118.282L 392.752 136.282"/>
<g>
<path style="stroke:#FFFFC0; stroke-width:20; fill:none" d="M 390.877 136.157C 395.377 137.657 429.877 148.157 440.377 148.157C 443.377 146.657 459.877 113.657 447.877 107.657C 441.877 104.657 429.877 103.157 420.877 107.657C 393.877 124.157 366.877 133.157 338.377 142.157C 329.377 145.157 318.877 145.157 312.877 139.157C 309.877 136.157 309.877 127.157 311.377 121.157C 312.877 115.157 315.877 113.657 320.377 112.157C 335.377 107.657 350.377 113.657 363.877 118.157"/>
<path style="stroke:#000000; stroke-width:8; fill:none" d="M 392.752 136.282C 397.252 137.782 431.752 148.282 442.252 148.282C 445.252 146.782 461.752 113.782 449.752 107.782C 443.752 104.782 431.752 103.282 422.752 107.782C 395.752 124.282 368.752 133.282 340.252 142.282C 331.252 145.282 320.752 145.282 314.752 139.282C 311.752 136.282 311.752 127.282 313.252 121.282C 314.752 115.282 317.752 113.782 322.252 112.282C 337.252 107.782 352.252 113.782 365.752 118.282"/>
</g>
</g>
<g opacity="0.5" stroke="#FFFFFF" stroke-width="18" fill="none">
<path d="M 292.752 330.782C 292.752 326.782 299.752 313.782 301.752 311.782C 335.752 259.782 357.752 207.782 385.752 155.782C 385.752 191.782 421.752 307.782 425.752 343.782"/>
<path d="M 383.752 345.782C 367.752 327.782 341.752 317.782 319.752 325.782C 311.752 327.782 297.752 339.782 293.752 347.782C 282.752 380.782 282.419 379.782 289.752 412.782C 293.752 430.782 315.752 447.782 333.752 451.782C 351.752 457.782 384.357 451.635 396.752 442.782C 418.223 427.445 429.853 398.391 421.752 349.782C 421.017 345.371 405.752 329.782 401.752 327.782C 393.752 319.782 385.752 316.782 373.752 314.782C 351.752 308.782 317.814 307.782 303.814 329.782"/>
<path d="M 355.752 451.782C 355.752 489.782 341.752 525.782 339.752 563.782C 339.437 569.774 336.689 594.469 336.689 600.469"/>
<path d="M 353.252 485.407C 401.252 501.407 401.252 497.407 447.252 519.407C 455.321 523.266 469.252 537.407 477.252 535.407C 481.252 533.407 493.252 545.407 497.252 543.407"/>
<path d="M 341.752 377.782C 341.752 379.782 339.752 389.782 339.752 391.782"/>
<path d="M 391.752 379.782C 391.752 381.782 390.752 390.782 390.752 392.782"/>
<path d="M 326.752 412.782C 345.753 412.782 381.727 412.154 394.752 413.782L 395.752 419.782C 371.752 436.782 352.752 433.782 343.752 420.782"/>
<path d="M 221.752 322.782L 218.752 400.782L 224.752 420.782C 224.752 420.782 303.752 495.782 347.752 499.782"/>
<path d="M 239.752 167.782C 241.752 163.782 245.752 155.782 245.752 155.782C 245.752 155.782 245.752 163.782 247.752 165.782C 253.752 167.782 265.752 167.782 265.752 167.782C 265.752 167.782 265.752 171.782 265.752 173.782C 263.752 175.782 259.752 177.782 259.752 177.782C 259.752 177.782 259.752 187.782 257.752 191.782C 249.752 187.782 243.752 189.782 235.752 191.782C 235.752 187.782 235.752 181.782 235.752 177.782C 233.752 179.782 222.502 173.782 222.502 173.782C 222.502 173.782 235.002 170.532 237.002 170.532"/>
<path d="M 245.752 297.782C 240.653 292.683 217.752 297.782 211.752 295.782C 211.752 299.782 213.752 322.782 213.752 322.782L 246.752 315.782C 246.752 315.782 247.752 299.782 245.752 297.782z"/>
<path d="M 319.752 368.782C 323.752 358.782 339.752 345.782 351.752 353.782C 351.752 353.782 351.752 355.782 351.752 357.782"/>
<path d="M 381.752 373.782C 389.952 373.782 397.593 374.782 404.752 374.782"/>
<path d="M 248.752 198.115L 232.419 294.449"/>
<path d="M 357.752 251.782C 362.277 248.388 365.752 243.782 369.752 239.782C 371.752 244.782 369.752 251.782 372.752 254.782C 375.752 257.782 382.752 258.782 387.752 260.782C 382.752 263.782 377.752 268.782 374.752 272.782C 371.752 277.782 373.752 286.782 373.752 293.782C 367.752 291.782 365.752 283.782 361.752 281.782C 354.752 277.782 346.752 280.782 339.752 285.782C 338.752 278.782 342.752 272.782 346.752 266.782C 348.752 261.782 344.752 257.782 343.752 252.782C 348.752 251.782 353.752 254.782 357.752 251.782z"/>
<path d="M 392.752 197.782C 386.752 196.782 378.752 197.782 380.752 203.782C 384.752 213.782 389.752 225.782 398.752 233.782"/>
<path d="M 408.752 280.782C 410.752 289.782 402.752 293.782 395.752 291.782C 395.752 291.782 395.752 289.782 395.752 288.782L 393.752 288.782C 392.752 294.782 391.726 302.605 396.252 306.282C 404.252 312.782 407.752 309.782 414.752 309.782"/>
</g>
<g style="stroke:none">
<path style="fill:#0A50A1" d="M 293.502 324.469L 385.502 154.469L 427.502 342.469C 427.502 342.469 397.502 318.469 369.502 314.469C 341.502 310.469 293.502 324.469 293.502 324.469z"/>
<path style="fill:#FFFF40" d="M 345.502 251.969L 358.502 250.469L 372.002 237.969L 374.502 253.969L 390.002 258.969L 376.002 270.969L 375.002 291.969L 361.002 278.969L 340.002 285.969L 349.002 262.969L 345.502 251.969z"/>
<path style="fill:#FFFF40" d="M 393.002 195.969L 383.002 200.469L 401.002 231.969L 393.002 195.969z"/>
<path style="fill:#FFFF40" d="M 397.002 286.969C 397.002 286.969 405.502 293.969 408.002 289.969C 410.502 285.969 413.002 280.969 413.002 280.969L 420.502 310.469C 420.502 310.469 404.002 311.469 399.002 305.969C 394.002 300.469 397.002 286.969 397.002 286.969z"/>
<path style="fill:#0A50A1" d="M 224.252 172.469"/>
<path style="fill:#FFFF40" d="M 226.502 172.219L 239.752 169.719L 247.252 155.469L 249.252 164.719L 270.002 167.719L 261.002 174.969L 261.252 191.969L 248.502 186.969L 237.002 191.969L 239.252 177.969L 226.502 172.219z"/>
<path style="fill:#FFFF40" d="M 589.502 308.469"/>
<path style="fill:#FDC0A7" d="M 311.502 326.469C 311.502 326.469 349.502 306.469 375.502 318.469C 401.502 330.469 429.502 342.469 425.502 378.469C 421.502 414.469 433.502 428.469 399.502 444.469C 365.502 460.469 359.502 464.469 331.502 450.469C 303.502 436.469 281.502 426.469 285.502 390.469C 289.502 354.469 311.502 326.469 311.502 326.469z"/>
<path style="fill:#FDC0A7" d="M 213.502 294.469L 245.502 294.469L 245.502 314.469L 217.502 322.469L 213.502 294.469z"/>
</g>
<g style="stroke:#000000; stroke-width:6; fill:none">
<path d="M 293.564 330.782C 293.564 326.782 300.564 313.782 302.564 311.782C 336.564 259.782 358.564 207.782 386.564 155.782C 386.564 191.782 422.564 307.782 426.564 343.782"/>
<path d="M 384.564 345.782C 368.564 327.782 342.564 317.782 320.564 325.782C 312.564 327.782 298.564 339.782 294.564 347.782C 283.564 380.782 283.231 379.782 290.564 412.782C 294.564 430.782 316.564 447.782 334.564 451.782C 352.564 457.782 385.17 451.635 397.564 442.782C 419.036 427.445 430.666 398.391 422.564 349.782C 421.829 345.371 406.564 329.782 402.564 327.782C 394.564 319.782 386.564 316.782 374.564 314.782C 352.564 308.782 318.627 307.782 304.627 329.782"/>
<path d="M 356.564 451.782C 356.564 489.782 342.564 525.782 340.564 563.782C 340.249 569.774 337.502 594.469 337.502 600.469"/>
<path d="M 354.064 485.407C 402.064 501.407 402.064 497.407 448.064 519.407C 456.133 523.266 470.064 537.407 478.064 535.407C 482.064 533.407 494.064 545.407 498.064 543.407"/>
<path d="M 342.564 377.782C 342.564 379.782 340.564 389.782 340.564 391.782"/>
<path d="M 392.564 379.782C 392.564 381.782 391.564 390.782 391.564 392.782"/>
<path style="stroke-linejoin:bevel; fill:#ffffff" d="M 313.169 412.136C 332.169 412.136 400.169 413.469 400.169 413.469C 376.502 441.803 335.261 444.047 313.169 412.136z"/>
<path d="M 222.564 322.782L 219.564 400.782L 225.564 420.782C 225.564 420.782 304.564 495.782 348.564 499.782"/>
<path d="M 240.564 167.782C 242.564 163.782 246.564 155.782 246.564 155.782C 246.564 155.782 246.564 163.782 248.564 165.782C 254.564 167.782 266.564 167.782 266.564 167.782C 266.564 167.782 266.564 171.782 266.564 173.782C 264.564 175.782 260.564 177.782 260.564 177.782C 260.564 177.782 260.564 187.782 258.564 191.782C 250.564 187.782 244.564 189.782 236.564 191.782C 236.564 187.782 236.564 181.782 236.564 177.782C 234.564 179.782 223.314 173.782 223.314 173.782C 223.314 173.782 235.814 170.532 237.814 170.532"/>
<path d="M 246.564 297.782C 241.465 292.683 218.564 297.782 212.564 295.782C 212.564 299.782 214.564 322.782 214.564 322.782L 247.564 315.782C 247.564 315.782 248.564 299.782 246.564 297.782z"/>
<path d="M 319.398 359.469C 319.398 359.469 356.865 375.115 350.398 370.803L 357.398 360.136"/>
<path d="M 384.627 372.615L 406.773 367.178"/>
<path d="M 249.564 198.115L 233.231 294.449"/>
<path stroke-width="4" d="M 358.564 251.782C 363.09 248.388 366.564 243.782 370.564 239.782C 372.564 244.782 370.564 251.782 373.564 254.782C 376.564 257.782 383.564 258.782 388.564 260.782C 383.564 263.782 378.564 268.782 375.564 272.782C 372.564 277.782 374.564 286.782 374.564 293.782C 368.564 291.782 366.564 283.782 362.564 281.782C 355.564 277.782 347.564 280.782 340.564 285.782C 339.564 278.782 343.564 272.782 347.564 266.782C 349.564 261.782 345.564 257.782 344.564 252.782C 349.564 251.782 354.564 254.782 358.564 251.782z"/>
<path stroke-width="4" d="M 393.564 197.782C 387.564 196.782 379.564 197.782 381.564 203.782C 385.564 213.782 390.564 225.782 399.564 233.782"/>
<path stroke-width="4" d="M 409.564 280.782C 411.564 289.782 403.564 293.782 396.564 291.782C 396.564 291.782 396.564 289.782 396.564 288.782L 394.564 288.782C 393.564 294.782 392.539 302.605 397.064 306.282C 405.064 312.782 408.564 309.782 415.564 309.782"/>
<path d="M 626.564 723.782"/>
<path d="M 352.564 809.782"/>
</g>
<g opacity="0.5" stroke="#FFFFFF" stroke-width="18" fill="none">
<path d="M 94.3352 633.303L 129.502 592.469L 631.502 596.469L 672.002 716.969"/>
</g>
<g stroke="none">
<path style="fill:#BFAC6F" d="M 94.0019 633.969L 134.002 589.969L 636.002 593.969L 672.002 695.969L 672.002 855.469L 94.9186 854.574L 94.0019 633.969z"/>
<path style="fill:#C0E8F1" d="M 391.502 736.469L 437.502 742.469L 439.502 762.469L 447.502 782.469L 459.502 838.469L 411.502 846.469L 405.502 834.469L 391.502 834.469L 391.502 818.469L 359.502 814.469L 391.502 736.469z"/>
<path style="fill:#FFFF40" d="M 264.877 653.782C 264.877 653.782 240.877 675.782 242.877 697.782C 244.877 719.782 280.877 729.782 280.877 729.782C 280.877 729.782 240.877 763.782 218.877 747.782C 196.877 731.782 200.877 693.782 216.877 677.782C 232.877 661.782 264.877 653.782 264.877 653.782z"/>
<path style="fill:#0A50A1" d="M 94.0019 729.469C 94.0019 729.469 114.502 730.469 122.002 730.969C 129.502 731.469 149.502 729.969 149.502 729.969L 150.502 749.969C 150.502 749.969 137.502 757.469 128.002 757.969C 118.502 758.469 95.0019 758.469 95.0019 758.469L 94.0019 729.469z"/>
<path style="fill:#0A50A1" d="M 95.0019 678.969C 95.0019 678.969 125.002 675.469 142.502 677.469C 160.002 679.469 192.502 687.969 190.002 700.469C 187.502 712.969 167.502 726.969 158.502 728.469C 149.502 729.969 152.502 728.969 152.502 728.969L 150.002 793.469C 150.002 793.469 133.002 801.969 119.002 804.469C 105.002 806.969 94.5019 807.969 94.5019 807.969L 95.0019 678.969z"/>
<path style="fill:#FFFFC0" d="M 137.502 731.969L 138.502 790.469L 128.002 794.469L 128.502 731.469L 137.502 731.969z"/>
<path style="fill:#9f3f3f" d="M 96.5019 699.969C 96.5019 699.969 125.002 699.469 134.002 700.469C 143.002 701.469 154.502 704.469 154.502 704.469L 130.002 713.969L 94.5019 713.469L 96.5019 699.969z"/>
<path style="fill:#ff3f9f" d="M 100.502 701.469L 111.002 701.969L 109.502 713.469L 100.002 712.969L 100.502 701.469z"/>
<path style="fill:#FFFFC0" d="M 116.502 691.969C 127.533 692.532 133.471 691.657 139.346 692.157C 147.252 692.813 154.939 694.813 162.783 695.907C 162.439 695.938 162.064 695.969 161.721 696.001C 161.814 695.969 161.877 695.938 167.096 697.719L 171.158 690.844C 157.689 686.032 148.658 685.532 139.752 684.251C 134.471 683.469 129.189 684.344 118.721 684.282L 116.502 691.969z"/>
<path style="fill:#008837" d="M 323.502 676.469L 407.502 650.469L 429.502 716.469L 407.502 722.469L 397.502 680.469L 327.502 700.469L 323.502 676.469z"/>
<g>
<path style="fill:#80Ca7F" d="M 227.835 779.803C 227.835 779.803 260.835 760.803 279.502 762.136C 298.169 763.469 319.169 767.136 319.169 782.803C 319.169 798.469 320.169 822.136 305.169 828.803C 290.169 835.469 249.502 835.469 240.169 823.136C 230.835 810.803 227.835 779.803 227.835 779.803z"/>
<path style="fill:#40AA54" d="M 238.502 790.469C 238.502 790.469 237.502 770.803 239.835 768.803C 242.169 766.803 253.169 756.136 257.502 763.803C 261.835 771.469 262.835 791.136 262.169 794.803C 261.502 798.469 238.502 790.469 238.502 790.469z"/>
<path style="fill:#FFFFC0" d="M 303.169 806.803C 303.169 806.803 297.502 804.469 294.835 811.803C 292.169 819.136 284.502 827.469 293.169 824.469C 301.835 821.469 310.835 810.136 308.169 808.803C 305.502 807.469 303.169 806.803 303.169 806.803z"/>
</g>
<path style="fill:#ff7f00" d="M 523.502 768.469C 523.502 768.469 557.502 766.469 553.502 780.469C 549.502 794.469 523.502 798.469 511.502 788.469C 499.502 778.469 523.502 768.469 523.502 768.469z"/>
<path style="fill:#ff7f00" d="M 477.502 740.469C 477.502 740.469 501.502 738.469 499.502 750.469C 497.502 762.469 479.502 774.469 469.502 758.469C 459.502 742.469 477.502 740.469 477.502 740.469z"/>
<path style="fill:#FFFF40" d="M 475.502 744.469C 475.502 744.469 469.002 747.969 474.002 750.469C 479.002 752.969 482.502 749.469 482.502 749.469L 475.502 744.469z"/>
<path style="fill:#FFFF40" d="M 520.002 774.969C 520.002 774.969 509.002 776.469 517.502 778.969C 526.002 781.469 529.502 776.469 529.502 776.469L 520.002 774.969z"/>
<path style="fill:#ff7f00" d="M 301.502 600.469L 315.502 598.469L 345.502 632.469L 315.502 640.469L 301.502 600.469z"/>
</g>
<g style="stroke:#000000; stroke-width:6; fill:none">
<path d="M 130.502 591.469C 290.502 591.469 473.502 599.469 633.502 597.469C 632.502 597.482 635.502 608.469 637.502 614.469C 639.502 618.469 640.502 621.469 643.502 625.469C 647.502 634.469 650.502 653.469 655.502 661.469C 663.502 677.469 666.502 684.469 670.502 701.469"/>
<path d="M 267.502 656.469C 255.502 682.469 240.502 698.469 240.502 712.469C 240.502 726.469 275.502 736.469 275.502 736.469C 275.502 736.469 231.502 758.469 213.502 746.469C 195.502 734.469 201.502 718.469 205.502 702.469C 211.502 678.469 243.064 650.094 265.064 657.094"/>
<path d="M 134.502 592.469C 133.502 592.469 131.502 592.469 130.502 591.469C 119.502 606.469 107.502 619.469 95.5019 633.469"/>
<path d="M 387.502 734.469C 394.286 739.315 357.08 826.049 361.502 816.469C 360.895 817.784 412.489 818.469 419.502 818.469C 419.502 793.278 426.64 771.055 435.502 744.469C 449.335 744.469 387.502 734.469 387.502 734.469z"/>
<path d="M 429.502 762.469C 433.502 762.469 435.502 762.469 439.502 762.469C 437.502 786.469 449.502 810.469 441.502 834.469C 425.502 838.469 407.502 836.469 391.502 836.469C 391.502 830.469 391.502 824.469 389.502 818.469"/>
<path d="M 437.502 782.469C 441.502 782.469 445.502 782.469 447.502 782.469C 453.502 800.469 461.502 818.469 461.502 838.469C 445.502 846.469 413.502 852.469 413.502 852.469C 413.502 852.469 411.502 848.469 411.502 846.469"/>
<path d="M 325.502 682.469C 343.502 670.47 361.502 670.469 379.502 662.469C 389.502 660.469 403.502 648.469 409.502 656.469C 421.502 674.469 425.502 698.469 427.502 720.469C 421.502 718.469 411.502 724.469 409.502 720.469C 403.502 710.469 407.502 692.469 399.502 686.469C 395.246 683.065 386.424 678.54 358.169 689.136C 350.169 693.136 337.502 698.469 327.502 700.469C 327.502 694.469 319.502 686.469 325.502 682.469z"/>
<path d="M 95.0019 678.969C 123.002 680.969 145.502 674.469 176.502 684.969C 189.209 689.273 194.002 702.469 183.502 714.469C 163.923 736.845 124.502 730.469 94.5019 730.469"/>
<path d="M 151.502 732.469C 151.502 752.469 151.502 794.469 151.502 794.469C 151.502 794.469 115.502 808.469 95.5019 806.469"/>
<path d="M 93.5019 758.469C 109.502 758.469 124.002 758.469 124.002 758.469C 124.002 758.469 139.502 755.969 147.502 750.469"/>
<path d="M 95.5019 700.469C 111.437 702.461 151.502 697.969 156.502 703.969C 158.313 706.142 142.002 710.469 125.002 713.469C 109.123 716.271 109.502 712.469 93.5019 712.469"/>
<g>
<path d="M 277.835 763.469C 261.502 764.469 228.855 766.488 227.835 782.469C 227.085 794.229 254.142 798.988 271.502 798.469C 298.825 797.654 320.835 792.469 320.502 780.803C 320.253 772.104 293.639 762.502 277.835 763.469z"/>
<path d="M 228.169 785.803C 226.169 785.803 226.169 785.803 228.169 785.803C 226.169 787.803 228.169 785.803 228.169 785.803C 225.901 806.207 233.602 819.398 248.169 829.803C 264.169 837.803 276.835 837.469 294.835 833.469C 318.835 829.469 318.835 803.803 320.169 787.803"/>
<path d="M 312.169 797.803C 320.399 799.86 327.169 788.136 336.169 793.803C 342.169 798.136 342.502 804.136 334.169 813.803C 330.039 818.593 322.169 817.803 316.169 817.803"/>
</g>
<path d="M 537.502 770.469C 527.502 770.469 513.502 770.469 507.502 780.469C 507.502 782.469 507.502 788.469 507.502 788.469C 523.502 792.469 539.502 794.469 551.502 788.469C 561.502 782.469 550.002 775.469 542.002 773.469"/>
<path d="M 485.502 742.469C 479.502 742.469 471.502 740.469 467.502 746.469C 467.502 750.469 465.502 756.469 469.502 758.469C 479.502 758.469 488.002 763.969 498.002 757.969C 498.002 751.616 499.502 755.016 499.502 748.469C 497.502 746.469 492.502 743.969 488.502 743.969"/>
<g>
<path d="M 309.502 603.657C 311.502 603.657 313.502 603.657 315.502 603.657C 323.502 617.657 335.502 627.657 345.502 639.657C 337.502 643.657 329.502 639.657 321.502 643.657C 317.502 631.657 309.835 616.324 301.835 603.99C 303.835 603.99 307.502 603.657 309.502 603.657"/>
<path d="M 111.502 633.657C 165.502 631.657 221.502 635.657 275.502 631.657C 289.169 630.853 302.836 628.756 316.503 626.666"/>
<path d="M 333.852 624.115C 348.402 622.143 362.952 620.801 377.502 621.657"/>
</g>
</g>
<g opacity="0.5" stroke="#FFFFFF" stroke-width="18" fill="none">
<path d="M 555.189 670.219C 573.189 670.219 593.189 666.219 609.189 672.219C 633.189 680.219 631.189 710.219 629.189 734.219C 599.189 738.219 569.189 740.219 541.189 732.219C 525.189 728.219 527.189 706.219 525.189 690.219"/>
<path d="M 631.189 712.219C 621.189 710.219 611.189 706.219 603.189 712.219C 601.189 716.219 605.189 724.219 603.189 724.219C 595.189 728.219 583.189 724.219 573.189 726.219C 569.189 728.219 569.189 732.219 569.189 736.219"/>
<path d="M 609.189 672.219C 611.189 666.219 611.189 662.219 611.189 658.219"/>
<path d="M 619.189 660.219C 619.189 656.219 625.189 660.219 623.189 656.219"/>
<path d="M 631.189 668.219C 635.189 668.219 641.189 668.219 645.189 668.219"/>
<path d="M 639.189 680.219C 641.189 680.219 643.189 680.219 643.189 682.219"/>
<path d="M 637.189 690.219L 640.189 693.219"/>
<path d="M 517.189 648.219C 517.189 651.219 517.189 653.219 517.189 656.219"/>
<path d="M 530.189 651.219C 530.189 653.219 530.189 656.219 530.189 658.219"/>
<path d="M 516.189 672.219C 518.189 672.219 519.189 672.219 521.189 672.219"/>
<path d="M 521.189 628.219C 519.189 586.219 515.189 528.219 563.189 508.219C 563.189 516.219 565.189 526.219 561.189 534.219C 559.189 542.219 553.189 552.219 549.189 560.219C 541.189 582.219 535.189 604.219 531.189 628.219C 538.164 586.37 577.189 550.219 619.189 548.219C 627.189 590.219 581.189 598.219 551.189 614.219C 547.189 618.219 545.189 622.219 541.189 626.219C 533.189 634.219 515.189 626.219 503.189 634.219C 489.189 644.219 489.189 662.219 495.189 676.219C 501.189 690.219 527.189 684.219 541.189 680.219C 557.189 676.219 559.189 652.219 555.189 636.219C 553.189 636.219 549.189 636.219 547.189 636.219"/>
</g>
<g>
<path style="stroke:none; fill:#FDC0A7" d="M 530.502 626.469C 530.502 626.469 562.502 568.469 571.502 564.469C 580.502 560.469 619.502 547.469 619.502 547.469C 619.502 547.469 614.502 581.469 600.502 587.469C 586.502 593.469 545.502 628.469 545.502 628.469L 555.502 637.469L 554.502 668.469L 608.502 671.469L 612.502 658.469C 612.502 658.469 633.502 659.469 637.502 667.469C 641.502 675.469 631.502 697.469 631.502 697.469L 628.502 732.469C 628.502 732.469 582.502 737.469 568.502 734.469C 554.502 731.469 533.502 726.469 533.502 726.469L 524.502 683.469C 524.502 683.469 502.502 694.469 494.502 676.469C 486.502 658.469 511.502 630.469 511.502 630.469C 511.502 630.469 521.502 620.469 521.502 605.469C 521.502 590.469 516.502 550.469 528.502 535.469C 540.502 520.469 562.502 506.469 562.502 506.469C 562.502 506.469 555.502 540.469 548.502 559.469C 541.502 578.469 540.502 592.469 540.502 592.469L 530.502 626.469z"/>
</g>
<g style="stroke:#13017C; stroke-width:6; fill:none">
<path d="M 555.064 669.469C 573.064 669.469 593.064 665.469 609.064 671.469C 633.064 679.469 631.064 709.469 629.064 733.469C 599.064 737.469 569.064 739.469 541.064 731.469C 525.064 727.469 527.064 705.469 525.064 689.469"/>
<path d="M 631.064 711.469C 621.064 709.469 611.064 705.469 603.064 711.469C 601.064 715.469 605.064 723.469 603.064 723.469C 595.064 727.469 583.064 723.469 573.064 725.469C 569.064 727.469 569.064 731.469 569.064 735.469"/>
<path d="M 609.064 671.469C 611.064 665.469 611.064 661.469 611.064 657.469"/>
<path d="M 619.064 659.469C 619.064 655.469 625.064 659.469 623.064 655.469"/>
<path d="M 631.064 667.469C 635.064 667.469 641.064 667.469 645.064 667.469"/>
<path d="M 639.064 679.469C 641.064 679.469 643.064 679.469 643.064 681.469"/>
<path d="M 637.064 689.469L 640.064 692.469"/>
<path d="M 517.064 647.469C 517.064 650.469 517.064 652.469 517.064 655.469"/>
<path d="M 530.064 650.469C 530.064 652.469 530.064 655.469 530.064 657.469"/>
<path d="M 516.064 671.469C 518.064 671.469 519.064 671.469 521.064 671.469"/>
<path d="M 521.064 627.469C 519.064 585.469 515.064 527.469 563.064 507.469C 563.064 515.469 565.064 525.469 561.064 533.469C 559.064 541.469 553.064 551.469 549.064 559.469C 541.064 581.469 535.064 603.469 531.064 627.469C 538.039 585.62 577.064 549.469 619.064 547.469C 627.064 589.469 581.064 597.469 551.064 613.469C 547.064 617.469 545.064 621.469 541.064 625.469C 533.064 633.469 515.064 625.469 503.064 633.469C 489.064 643.469 489.064 661.469 495.064 675.469C 501.064 689.469 527.064 683.469 541.064 679.469C 557.064 675.469 559.064 651.469 555.064 635.469C 553.064 635.469 549.064 635.469 547.064 635.469"/>
</g>
</svg>
