<svg xmlns="http://www.w3.org/2000/svg"
	xmlns:xlink="http://www.w3.org/1999/xlink"
	viewBox="0 0.3 577 792"
	width="584.21" height="792">
<g id="scene">
    <set attributeName="opacity" to="1" 
		    fill="freeze" begin="btn1.click"/>
    <set attributeName="opacity" to="0" 
		    fill="freeze" begin="btn2.click"/>
    <set attributeName="opacity" to="0" 
		    fill="freeze" begin="scene.load"/>
<g>
<path fill="#7fbfbf" stroke="none" d="M 577.342 792L 577.342 0L 0.341675 0L 0.341675 792L 577.342 792z"/>
<path fill="#bfffff" stroke="none" d="M 0.674675 605.996L 575.341 339.996L 577.342 792L 0.341675 792L 0.674675 605.996z"/>
<path fill="#7fffff" stroke="none" d="M 74.6747 791.996L 577.341 485.996L 577.342 792L 74.6747 791.996z"/>
<path fill="#3fffff" stroke="none" d="M 348.008 791.996L 577.341 605.33L 577.342 792L 348.008 791.996z"/>
<path fill="#ffffbf" stroke="none" d="M 495.341 377.996L 493.341 101.996L 577.341 89.9963L 577.341 413.996L 495.341 377.996z"/>
<path fill="#ffbfbf" stroke="none" d="M 495.341 377.996L 525.341 361.996L 524.341 111.996L 577.341 103.996L 577.341 89.9963L 493.341 101.996L 495.341 377.996z"/>
</g>
<g>
<path fill="none" stroke-width="4" stroke="#3f9f9f" d="M 68.6539 54.6838C 37.3617 44.2532 24.6539 88.6838 34.6539 108.684C 40.6539 118.684 60.6539 124.684 70.6539 116.684C 90.6539 104.684 88.6539 78.6838 82.6539 56.6838C 82.6539 54.6838 74.6539 56.6838 68.6539 54.6838z"/>
<path fill="none" stroke-width="3" stroke="#3f9f9f" d="M 54.6539 124.684C 54.6539 158.684 59.6539 191.684 63.6539 225.684"/>
<path fill="none" stroke-width="3" stroke="#3f9f9f" d="M 57.6539 140.684C 67.6539 158.684 73.6539 179.684 73.6539 210.684"/>
<path fill="none" stroke-width="3" stroke="#3f9f9f" d="M 52.6539 149.684C 39.6539 163.684 22.6539 173.684 22.6539 173.684L 334.654 410.684"/>
<path fill="none" stroke-width="3" stroke="#3f9f9f" d="M 74.6539 233.684C 82.6539 250.684 93.6539 264.684 104.654 280.684C 106.654 284.684 107.654 290.684 113.654 291.684"/>
<path fill="none" stroke-width="3" stroke="#3f9f9f" d="M 50.6539 321.684C 51.6539 319.684 54.6539 320.684 54.6539 320.684C 55.6539 300.684 59.6539 281.684 61.6539 261.684C 63.0505 247.718 61.6539 233.684 65.6539 219.684"/>
<path fill="none" stroke-width="3" stroke="#3f9f9f" d="M 180.654 32.6838C 173.654 32.6838 164.654 30.6838 160.654 37.6838C 156.654 48.6838 156.654 60.6838 154.654 72.6838C 154.654 78.6838 152.654 84.6838 156.654 89.6838C 158.654 92.6838 161.654 95.6838 165.654 97.6838C 174.654 100.684 184.654 102.684 193.654 97.6838C 197.654 95.6838 201.654 92.6838 204.654 88.6838C 210.654 76.6838 208.654 63.6838 206.654 51.6838C 206.654 46.6838 203.654 41.6838 200.654 37.6838C 195.654 33.6838 188.654 35.6838 182.654 35.6838"/>
<path fill="none" stroke-width="3" stroke="#3f9f9f" d="M 43.6539 84.6838C 51.6539 85.6838 58.6539 94.6838 65.6539 90.6838C 68.6539 89.6838 72.6539 88.6838 74.6539 84.6838"/>
<path fill="none" stroke-width="3" stroke="#3f9f9f" d="M 51.6539 91.6838C 51.6539 94.6838 51.6539 98.6838 51.6539 101.684"/>
<path fill="none" stroke-width="3" stroke="#3f9f9f" d="M 71.6539 88.6838C 71.6539 91.6838 71.6539 95.6838 71.6539 98.6838"/>
<path fill="none" stroke-width="3" stroke="#3f9f9f" d="M 54.6539 112.684C 58.6539 108.684 65.6539 109.684 70.6539 108.684"/>
<path fill="none" stroke-width="3" stroke="#3f9f9f" d="M 171.654 63.6838C 171.654 67.6838 171.654 71.6838 171.654 75.6838"/>
<path fill="none" stroke-width="3" stroke="#3f9f9f" d="M 192.654 62.6838C 192.654 65.6838 192.654 69.6838 192.654 72.6838"/>
<path fill="none" stroke-width="3" stroke="#3f9f9f" d="M 177.654 88.6838C 184.654 87.6838 192.654 91.6838 197.654 85.6838"/>
<path fill="none" stroke-width="3" stroke="#3f9f9f" d="M 182.654 102.684C 182.654 132.684 182.654 162.684 182.654 192.684C 182.654 215.044 201.654 232.684 207.654 254.684"/>
<path fill="none" stroke-width="3" stroke="#3f9f9f" d="M 151.654 257.684C 154.654 247.684 162.654 240.684 164.654 229.684C 167.654 211.684 173.654 194.684 177.654 177.684"/>
<path fill="none" stroke-width="3" stroke="#3f9f9f" d="M 315.654 71.6838C 310.654 71.6838 305.654 70.6838 300.654 72.6838C 290.654 77.6838 284.654 89.6838 287.654 97.6838C 293.654 112.684 284.654 116.684 295.654 127.684C 296.654 129.684 321.654 137.684 324.654 136.684C 327.654 134.684 331.654 131.684 333.654 128.684C 336.654 122.684 339.654 117.684 341.654 111.684C 343.654 101.684 344.654 90.6838 341.654 81.6838C 338.654 74.6838 329.654 69.6838 320.654 71.6838"/>
<path fill="none" stroke-width="3" stroke="#3f9f9f" d="M 313.654 138.684C 308.654 153.684 311.654 169.684 310.654 184.684"/>
<path fill="none" stroke-width="3" stroke="#3f9f9f" d="M 309.654 191.684C 300.654 217.684 292.654 242.684 286.654 269.684"/>
<path fill="none" stroke-width="3" stroke="#3f9f9f" d="M 317.654 213.684C 322.654 228.684 318.654 245.684 326.654 259.684"/>
<path fill="none" stroke-width="3" stroke="#3f9f9f" d="M 309.654 148.684C 304.654 158.684 295.654 165.684 292.654 176.684C 290.654 185.684 291.654 195.684 289.654 204.684"/>
<path fill="none" stroke-width="3" stroke="#3f9f9f" d="M 295.654 201.684C 299.654 189.684 305.654 179.684 310.654 168.684"/>
<path fill="none" stroke-width="3" stroke="#3f9f9f" d="M 305.654 104.684C 305.654 107.684 305.654 111.684 305.654 114.684"/>
<path fill="none" stroke-width="3" stroke="#3f9f9f" d="M 323.654 106.684C 323.654 109.684 323.654 112.684 323.654 115.684"/>
<path fill="none" stroke-width="3" stroke="#3f9f9f" d="M 295.654 123.684C 308.654 125.684 322.654 128.684 334.654 122.684"/>
<path fill="none" stroke-width="3" stroke="#3f9f9f" d="M 298.654 90.6838C 300.654 101.684 313.654 101.684 321.654 98.6838C 326.654 97.6838 330.654 91.6838 329.654 85.6838"/>
<path fill="none" stroke-width="3" stroke="#3f9f9f" d="M 305.654 78.6838C 299.654 73.6838 290.654 72.6838 285.654 75.6838C 278.654 79.6838 281.654 90.6838 276.654 96.6838C 273.654 101.684 265.654 96.6838 262.654 99.6838C 258.654 102.684 260.654 109.684 260.654 115.684L 261.654 115.684"/>
<path fill="none" stroke-width="3" stroke="#3f9f9f" d="M 323.654 80.6838C 328.654 78.6838 333.654 76.6838 338.654 79.6838C 344.654 83.6838 344.654 93.6838 351.654 96.6838C 354.654 97.6838 357.654 96.6838 359.654 98.6838C 361.654 103.684 361.654 110.684 358.654 114.684"/>
<path fill="none" stroke-width="3" stroke="#3f9f9f" d="M 338.654 408.684L 169.654 120.684L 166.654 106.684L 177.654 108.684L 173.654 117.684C 169.654 133.684 172.654 148.684 171.654 164.684C 175.654 154.684 177.654 144.684 181.654 134.684"/>
<path fill="none" stroke-width="3" stroke="#3f9f9f" d="M 293.654 204.684L 334.654 407.684"/>
</g>
<g>
<path fill="#dfdfbf" stroke="none" d="M 430.154 169.184C 430.154 169.184 438.154 156.684 449.154 153.684C 460.154 150.684 498.154 145.184 511.154 148.684C 524.154 152.184 535.154 160.684 535.154 160.684C 535.154 160.684 547.654 190.184 550.154 199.684C 552.654 209.184 551.654 240.684 545.654 249.184C 539.654 257.684 522.654 279.184 509.654 283.184C 496.654 287.184 460.154 289.184 447.654 283.184C 435.154 277.184 414.154 250.184 414.154 230.684C 414.154 211.184 417.154 189.684 421.154 182.184C 425.154 174.684 430.154 169.184 430.154 169.184z"/>
<path fill="#7fbf7f" stroke="none" d="M 419.654 187.684C 419.654 187.684 418.154 213.184 423.654 226.684C 429.154 240.184 436.654 256.684 444.654 260.684C 452.654 264.684 464.154 271.684 471.654 275.184C 479.154 278.684 512.154 281.184 512.154 281.184C 512.154 281.184 483.654 288.184 469.154 286.184C 454.654 284.184 440.154 283.684 432.654 273.184C 425.154 262.684 412.154 239.184 413.154 227.184C 414.154 215.184 419.654 187.684 419.654 187.684z"/>
<path fill="#00ff7f" stroke="none" d="M 466.654 212.184C 466.654 212.184 473.654 208.184 474.654 213.684C 475.654 219.184 478.154 228.184 474.654 229.184C 471.154 230.184 469.154 229.684 468.154 225.684C 467.154 221.684 466.654 212.184 466.654 212.184z"/>
<path fill="#00ff7f" stroke="none" d="M 515.154 207.184L 519.654 205.184L 517.654 223.684L 512.654 222.684L 515.154 207.184z"/>
<path fill="none" stroke-width="6" stroke="#7f00ff" d="M 470.154 151.184L 469.654 151.184C 469.654 154.684 472.154 157.184 472.154 160.684C 480.154 160.684 488.154 156.684 496.154 159.184C 498.654 160.184 498.654 164.184 497.154 166.684C 494.154 171.684 486.654 168.684 481.654 170.684C 479.154 171.684 478.654 176.184 480.154 178.184C 481.154 179.684 483.154 181.684 485.654 182.184"/>
</g>
<g>
<path fill="none" stroke-width="6" stroke="#007f00" d="M 437.154 278.184C 429.154 282.184 396.654 334.684 380.654 358.684C 364.654 384.684 354.654 412.684 340.654 438.684C 338.654 444.684 336.654 460.684 336.654 460.684L 434.654 510.684C 434.654 510.684 434.654 516.684 434.654 518.684C 408.654 548.684 386.654 578.684 370.654 612.684C 386.654 612.684 400.654 616.684 416.654 614.684"/>
<path fill="none" stroke-width="6" stroke="#007f00" d="M 336.654 460.684C 336.654 460.684 278.654 538.684 272.654 586.684C 258.654 584.684 248.654 568.684 234.654 568.684C 224.654 568.684 216.654 564.684 206.654 564.684C 208.654 580.684 204.654 598.684 204.654 614.684"/>
<path fill="none" stroke-width="6" stroke="#007f00" d="M 408.654 308.684C 366.654 342.684 352.654 398.684 318.654 442.684C 312.654 450.684 306.654 460.684 294.654 460.684"/>
<path fill="none" stroke-width="6" stroke="#007f00" d="M 441.654 280.684C 435.654 280.684 430.654 270.684 426.654 264.684C 410.654 240.684 410.654 212.684 418.654 188.684C 422.654 174.684 434.654 162.684 448.654 154.684C 472.654 146.684 496.654 144.684 520.654 150.684C 542.654 154.684 540.654 182.684 550.654 200.684C 554.654 208.684 553.654 237.684 541.654 256.184C 517.196 293.89 488.654 288.684 444.654 282.684"/>
<path fill="none" stroke-width="6" stroke="#007f00" d="M 440.654 258.684C 467.654 253.684 493.154 251.184 518.654 254.684"/>
<path fill="none" stroke-width="6" stroke="#007f00" d="M 448.154 194.184C 461.154 204.184 480.654 216.684 498.654 214.684C 508.654 212.684 520.154 199.684 526.154 192.184"/>
<path fill="none" stroke-width="6" stroke="#007f00" d="M 474.154 212.184C 474.154 218.184 476.154 222.684 476.154 228.684C 476.154 228.684 473.154 230.684 470.654 230.684C 468.154 230.684 466.654 215.184 466.654 215.184C 466.654 215.184 466.654 211.684 469.154 211.184C 471.654 210.684 474.154 212.184 474.154 212.184z"/>
<path fill="none" stroke-width="6" stroke="#007f00" d="M 513.654 207.684C 513.654 213.684 512.654 216.684 512.654 222.684C 512.654 222.684 513.654 225.184 515.654 225.184C 517.654 225.184 519.154 224.184 519.654 221.684C 520.154 219.184 520.154 209.684 520.154 207.184C 520.154 204.684 519.654 203.684 518.154 203.684C 516.654 203.684 513.654 207.684 513.654 207.684z"/>
<path fill="none" stroke-width="4" stroke="#007f7f" d="M 123.321 117.35C 104.654 114.684 92.3206 126.35 90.3206 146.35C 88.3206 172.35 98.6539 195.35 126.654 193.684C 141.858 192.779 163.321 175.35 163.987 161.017C 164.575 148.382 162.089 137.037 155.321 126.35C 148.987 116.35 133.983 118.874 123.321 117.35z"/>
<path fill="none" stroke-width="4" stroke="#007f7f" d="M 162.654 268.684L 89.6539 252.684L 113.654 226.684"/>
<path fill="none" stroke-width="4" stroke="#007f7f" d="M 99.6539 167.017C 109.478 171.715 149.663 162.485 149.654 162.684C 149.321 169.684 146.321 173.684 142.987 177.684C 140.107 181.14 120.589 188.783 108.654 178.684C 104.321 175.017 99.9872 175.017 99.6539 167.017z"/>
<path fill="none" stroke-width="4" stroke="#007f7f" d="M 110.654 152.684C 110.654 148.684 110.654 147.017 110.654 143.017"/>
<path fill="none" stroke-width="4" stroke="#007f7f" d="M 105.321 135.684C 105.321 135.684 117.487 141.35 123.987 141.35C 130.487 141.35 142.654 138.35 142.654 138.35"/>
<path fill="none" stroke-width="4" stroke="#007f7f" d="M 136.654 144.35C 136.654 146.35 136.654 149.684 136.654 151.684"/>
<path fill="none" stroke-width="4" stroke="#007f7f" d="M 119.654 212.684L 153.654 213.684L 166.654 262.684L 179.654 256.684L 184.654 271.684L 164.654 282.684L 158.654 272.684L 167.654 266.684"/>
<path fill="none" stroke-width="4" stroke="#007f00" d="M 306.654 438.684L 328.654 448.684"/>
<path fill="none" stroke-width="4" stroke="#007f00" d="M 320.654 424.684L 316.654 458.684"/>
<path fill="none" stroke-width="4" stroke="#007f00" d="M 328.904 417.184L 355.154 422.684L 338.404 403.684L 366.654 402.434L 346.904 378.934L 374.154 383.934L 359.154 363.684"/>
<path fill="none" stroke-width="4" stroke="#007f7f" d="M 174.654 276.684L 336.654 412.684L 338.654 410.684L 174.654 276.684z"/>
<path fill="none" stroke-width="4" stroke="#007f7f" d="M 218.654 128.684C 212.654 126.684 207.321 130.684 204.654 136.684C 201.987 142.684 193.654 167.684 196.654 176.684C 199.654 185.684 251.654 200.35 256.654 192.684C 261.654 185.017 272.654 146.684 260.654 128.684C 254.654 118.684 238.654 122.684 226.654 122.684"/>
<path fill="none" stroke-width="4" stroke="#007f7f" d="M 225.654 152.684C 225.654 155.684 225.654 159.684 225.654 162.684"/>
<path fill="none" stroke-width="4" stroke="#007f7f" d="M 246.654 150.684C 246.654 154.684 246.654 158.684 246.654 162.684"/>
<path fill="none" stroke-width="4" stroke="#007f7f" d="M 245.654 179.684C 237.321 181.017 219.654 174.684 219.654 174.684C 219.654 174.684 218.987 184.684 223.654 186.017C 226.875 186.938 232.987 187.684 236.987 184.017"/>
<path fill="none" stroke-width="4" stroke="#007f7f" d="M 228.654 230.684C 242.654 248.684 266.654 254.684 286.654 264.684C 282.654 246.684 296.654 216.684 272.654 210.684L 280.654 203.35L 272.987 193.35L 258.321 202.35L 265.321 212.684L 268.321 209.684"/>
<path fill="none" stroke-width="4" stroke="#007f7f" d="M 243.654 213.35L 241.654 215.684L 247.987 222.35L 256.321 217.35"/>
<path fill="none" stroke-width="4" stroke="#007f7f" d="M 230.654 250.684C 240.654 256.684 248.654 266.684 258.654 270.684C 258.654 258.684 258.654 246.684 262.654 232.684C 262.654 226.684 266.654 220.684 258.654 216.684L 263.321 213.017L 254.987 200.35L 241.321 208.017L 245.987 213.017"/>
<path fill="none" stroke-width="4" stroke="#007f7f" d="M 272.654 210.684L 338.654 410.684L 272.654 210.684z"/>
<path fill="none" stroke-width="4" stroke="#007f7f" d="M 224.654 296.684C 214.654 316.684 213.654 320.684 201.654 340.684C 193.654 350.684 172.654 369.684 172.654 383.684L 188.654 386.684"/>
<path fill="none" stroke-width="4" stroke="#007f7f" d="M 228.654 196.684C 227.654 228.684 224.654 296.684 224.654 296.684L 257.654 324.684C 257.654 324.684 256.085 366.477 256.654 384.684L 263.654 385.684"/>
<path fill="none" stroke-width="4" stroke="#007f7f" d="M 130.654 400.684L 147.654 392.684C 145.654 376.684 124.654 343.684 124.654 343.684L 96.6539 296.684L 116.654 216.684L 120.987 195.35"/>
<path fill="none" stroke-width="4" stroke="#007f7f" d="M 23.6539 395.684L 34.6539 396.684C 41.8026 378.301 46.6539 334.684 46.6539 334.684C 46.6539 334.684 83.8663 312.344 93.6539 296.684"/>
<path fill="none" stroke-width="4" stroke="#007f7f" d="M 365.154 176.184C 350.154 174.684 335.154 185.684 327.654 197.684C 323.154 203.684 325.654 224.184 333.154 230.184C 342.154 236.184 357.558 240.567 367.654 236.684C 374.154 234.184 384.654 225.684 386.154 218.184C 387.654 206.184 393.654 194.184 384.654 185.184C 383.154 182.184 380.154 180.684 371.154 180.684"/>
<path fill="none" stroke-width="4" stroke="#007f7f" d="M 330.654 225.684C 324.654 255.684 293.154 305.184 293.154 305.184L 327.654 350.184C 327.654 350.184 299.154 374.184 287.154 389.184"/>
<path fill="none" stroke-width="4" stroke="#007f7f" d="M 327.654 243.684C 333.654 243.684 365.654 250.184 365.654 250.184C 365.654 250.184 382.654 262.184 386.154 264.684C 389.654 267.184 395.154 273.684 393.654 279.684"/>
<path fill="none" stroke-width="4" stroke="#007f7f" d="M 293.154 305.184L 276.654 341.184L 236.154 344.184L 239.154 357.684"/>
<path fill="none" stroke-width="4" stroke="#007f7f" d="M 347.341 191.996L 356.341 202.496"/>
<path fill="none" stroke-width="4" stroke="#007f7f" d="M 368.154 198.684L 381.654 200.184"/>
<path fill="none" stroke-width="4" stroke="#3f9f3f" d="M 351.154 199.184L 353.154 210.184"/>
<path fill="none" stroke-width="4" stroke="#007f7f" d="M 372.654 202.684L 372.654 212.184"/>
<path fill="none" stroke-width="4" stroke="#007f7f" d="M 343.654 227.184C 343.654 227.184 342.654 222.684 353.154 220.184C 363.654 217.684 370.154 223.184 370.154 223.184L 343.654 227.184z"/>
<path fill="none" stroke-width="4" stroke="#007f7f" d="M 318.654 259.184L 336.154 292.184L 364.654 291.184L 364.654 282.017L 371.987 282.684L 373.987 300.017L 363.321 298.684L 362.654 291.35"/>
<path fill="none" stroke-width="4" stroke="#007f7f" d="M 363.321 298.684C 363.321 298.684 343.321 326.684 337.987 342.017C 332.356 358.206 327.321 369.35 325.321 383.35C 323.321 397.35 324.654 414.684 327.321 416.684C 329.987 418.684 336.654 412.684 336.654 412.684L 94.6539 327.684"/>
<path fill="none" stroke-width="4" stroke="#007f7f" d="M 46.6539 192.684C 20.6539 190.684 16.6539 226.684 24.6539 240.684C 32.6539 256.684 56.6539 254.684 68.6539 248.684C 84.6539 240.684 86.6539 214.684 76.6539 196.684C 72.6539 192.684 62.6539 194.684 54.6539 190.684"/>
<path fill="none" stroke-width="4" stroke="#007f7f" d="M 40.6539 258.684C 38.6539 284.684 51.6539 330.684 49.6539 356.684"/>
<path fill="none" stroke-width="4" stroke="#007f7f" d="M 49.6539 356.684C 49.6539 364.684 98.6539 406.684 110.654 432.684C 110.654 434.684 116.654 430.684 120.654 428.684"/>
<path fill="none" stroke-width="4" stroke="#007f7f" d="M 49.6539 356.684C 53.6539 362.684 52.6539 370.684 54.6539 376.684C 60.6539 400.684 62.6539 424.684 74.6539 446.684C 74.6539 448.684 82.6539 446.684 86.6539 446.684"/>
<path fill="none" stroke-width="4" stroke="#007f7f" d="M 40.6539 284.684C 52.6539 302.684 74.6539 310.684 88.6539 324.684"/>
<path fill="none" stroke-width="4" stroke="#007f7f" d="M 42.6539 266.684L 101.654 332.684"/>
<path fill="none" stroke-width="4" stroke="#007f7f" d="M 33.6539 235.684C 42.6539 240.684 48.3206 239.35 57.3206 237.35C 62.3206 236.35 70.6539 231.684 73.6539 226.684C 76.6539 242.684 56.9926 250.214 42.6539 247.684C 36.9872 246.684 33.6539 239.239 33.6539 237.017"/>
<path fill="none" stroke-width="4" stroke="#007f7f" d="M 34.6539 223.684C 38.6539 223.684 43.6539 222.684 47.6539 224.684"/>
<path fill="none" stroke-width="4" stroke="#007f7f" d="M 60.6539 223.684C 63.6539 223.684 65.6539 221.684 68.6539 221.684"/>
</g>
</g>
<g>
    <animateTransform attributeName="transform" type="scale"
            additive="replace" fill="freeze" 
            values="1.0; 0.2" begin="btn1.click" dur="1"/>
    <animateTransform attributeName="transform" type="scale"
            additive="replace" fill="freeze" 
            values="0.2; 1.0" begin="btn2.click" dur="1"/>
<g>
<path fill="#9f3f3f" stroke-width="6" stroke="#000000" d="M 114.555 698.72L 73.4825 736.008L 88.9033 752.994L 129.976 715.706"/>
<path fill="#ffffff" stroke-width="6" stroke="#000000" d="M 144.72 702.321L 376.411 491.979L 397.444 458.011L 360.99 474.993L 129.562 685.096"/>
<path fill="#ff7f7f" stroke-width="6" stroke="#000000" d="M 162.608 722.327L 110.987 665.467L 96.544 678.579L 148.165 735.439L 162.608 722.327z"/>
</g>
<g>
<path fill="#9f3f3f" stroke-width="6" stroke="#000000" d="M 465.347 698.72L 506.42 736.008L 490.999 752.994L 449.926 715.706"/>
<path fill="#ffffff" stroke-width="6" stroke="#000000" d="M 435.182 702.321L 203.491 491.979L 182.458 458.011L 218.912 474.993L 450.34 685.096"/>
<path fill="#ff7f7f" stroke-width="6" stroke="#000000" d="M 417.294 722.327L 468.915 665.467L 483.358 678.579L 431.737 735.439L 417.294 722.327z"/>
</g>
<path fill="#9f3f3f" stroke-width="6" stroke="#000000" d="M 465.347 93.2796L 506.42 55.9918L 490.999 39.0057L 449.926 76.2936"/>
<path fill="#ffffff" stroke-width="6" stroke="#000000" d="M 450.34 106.904L 285.874 256.215L 218.912 317.007L 182.458 333.989L 203.491 300.021L 268.599 240.912L 435.182 89.679"/>
<g>
<path fill="#9f3f3f" stroke-width="6" stroke="#000000" d="M 114.555 93.2796L 73.4825 55.9918L 88.9033 39.0057L 129.976 76.2936"/>
<path fill="#ffffff" stroke-width="6" stroke="#000000" d="M 144.72 89.679L 376.411 300.021L 397.444 333.989L 360.99 317.007L 129.562 106.904"/>
<path fill="#ff7f7f" stroke-width="6" stroke="#000000" d="M 162.608 69.6732L 110.987 126.533L 96.544 113.421L 148.165 56.5611L 162.608 69.6732z"/>
</g>
<g>
<path fill="#9f3f3f" stroke-width="6" stroke="#000000" d="M 80.8363 457.126L 39.7637 494.414L 55.1846 511.4L 96.257 474.112"/>
<path fill="#ffffff" stroke-width="6" stroke="#000000" d="M 111.001 460.727L 342.692 250.385L 363.725 216.417L 327.271 233.399L 95.8435 443.502"/>
<path fill="#ff7f7f" stroke-width="6" stroke="#000000" d="M 128.889 480.733L 77.2682 423.873L 62.8253 436.985L 114.446 493.845L 128.889 480.733z"/>
</g>
<g>
<g>
<path fill="#9f3f3f" stroke-width="6" stroke="#000000" d="M 496.847 457.126L 537.92 494.414L 522.499 511.4L 481.426 474.112"/>
<path fill="#ffffff" stroke-width="6" stroke="#000000" d="M 466.682 460.727L 234.991 250.385L 213.958 216.417L 250.412 233.399L 481.84 443.502"/>
<path fill="#ff7f7f" stroke-width="6" stroke="#000000" d="M 448.794 480.733L 500.415 423.873L 514.858 436.985L 463.237 493.845L 448.794 480.733z"/>
</g>
<g>
<path fill="#9f3f3f" stroke-width="6" stroke="#000000" d="M 496.847 334.873L 537.92 297.586L 522.499 280.6L 481.426 317.888"/>
<path fill="#ffffff" stroke-width="6" stroke="#000000" d="M 466.682 331.273L 234.991 541.615L 213.958 575.583L 250.412 558.601L 481.84 348.498"/>
<path fill="#ff7f7f" stroke-width="6" stroke="#000000" d="M 448.794 311.267L 500.415 368.127L 514.858 355.015L 463.237 298.155L 448.794 311.267z"/>
</g>
</g>
<g>
<path fill="#9f3f3f" stroke-width="6" stroke="#000000" d="M 80.8363 334.873L 39.7637 297.586L 55.1846 280.6L 96.257 317.888"/>
<path fill="#ffffff" stroke-width="6" stroke="#000000" d="M 111.001 331.273L 342.692 541.615L 363.725 575.583L 327.271 558.601L 95.8435 348.498"/>
<path fill="#ff7f7f" stroke-width="6" stroke="#000000" d="M 128.889 311.267L 77.2682 368.127L 62.8253 355.015L 114.446 298.155L 128.889 311.267z"/>
</g>
<path fill="#ffffff" stroke-width="6" stroke="#000000" d="M 268.982 240.583L 203.875 299.692L 182.842 333.659L 219.295 316.678L 286.258 255.886"/>
<g>
<path fill="#ffffff" stroke="none" d="M 144.591 398.684L 168.091 377.996L 185.591 393.246L 162.091 415.434L 144.591 398.684z"/>
<path fill="none" stroke-width="6" stroke="#000000" d="M 174.654 372.059L 138.591 404.496"/>
<path fill="none" stroke-width="6" stroke="#000000" d="M 191.404 387.746L 156.279 419.371"/>
</g>
<g>
<path fill="#ffffff" stroke="none" d="M 293.987 535.017L 317.487 514.33L 334.987 529.58L 311.487 551.767L 293.987 535.017z"/>
<path fill="none" stroke-width="6" stroke="#000000" d="M 324.05 508.392L 288.154 541.059"/>
<path fill="none" stroke-width="6" stroke="#000000" d="M 341.091 524.059L 305.841 555.996"/>
</g>
<path fill="#ff7f7f" stroke-width="6" stroke="#000000" d="M 417.294 69.6732L 468.915 126.533L 483.358 113.421L 431.737 56.5611L 417.294 69.6732z"/>
</g>
</svg>