<svg xmlns="http://www.w3.org/2000/svg"
	xmlns:xlink="http://www.w3.org/1999/xlink"
	viewBox="5.8 0 577 792"
	width="582.839" height="792.333">
<g>
<path style="stroke:none; fill:#C0E8F1" d="
M 581.006 790.13
L 582.839 0
L 5.83908 0.166687
L 5.83908 792.333
L 581.006 790.13z"/>
<path style="stroke:#80D0E3; stroke-width:6; fill:#ffffff" d="M 394.527 90.7292C 364.527 90.7292 332.527 74.7292 302.527 86.7292C 284.527 92.7292 268.527 114.729 276.527 134.729C 278.527 142.729 284.527 154.729 296.527 156.729C 274.527 156.729 252.527 158.729 230.527 158.729C 212.527 160.729 196.527 174.729 184.527 188.729C 174.527 202.729 175.786 218.667 182.839 236.167C 201.152 281.604 230.067 301.487 274.839 280.167C 259.72 334.595 330.907 380.098 374.839 336.167C 380.839 378.167 448.545 369.335 458.839 366.167C 545.152 339.604 510.839 266.167 504.839 204.167C 500.839 168.167 472.839 148.167 442.839 132.167C 462.839 134.167 440.527 108.729 450.527 92.7292C 452.527 88.7292 452.527 84.7292 450.527 80.7292C 440.527 68.7292 422.527 72.7292 408.527 72.7292C 398.527 74.7292 400.527 90.7292 394.527 90.7292z"/>
<path style="stroke:#80D0E3; stroke-width:6; fill:#ffffff" d="M 225.839 372.167C 201.756 372.167 179.839 362.167 153.839 366.167C 145.839 368.167 137.839 372.167 133.839 378.167C 131.839 386.167 135.839 398.167 131.839 406.167C 131.839 408.167 123.839 404.167 119.839 406.167C 95.8391 420.167 67.8391 434.167 61.8391 462.167C 57.8391 480.167 55.8391 500.167 63.8391 518.167C 69.8391 532.167 87.8391 530.167 101.839 530.167C 101.839 534.167 101.839 540.167 101.839 544.167C 109.839 570.167 131.839 580.167 149.839 598.167C 161.839 606.167 173.839 612.167 187.839 614.167C 231.839 616.167 279.839 616.167 313.839 584.167C 315.839 582.167 315.839 576.167 313.839 574.167C 311.839 574.167 307.839 574.167 305.839 574.167C 303.839 588.167 303.839 602.167 317.839 612.167C 339.839 628.167 365.839 628.167 389.839 622.167C 425.839 614.167 431.839 568.167 429.839 534.167C 405.839 514.167 385.839 490.167 357.839 476.167C 371.839 470.167 367.839 450.167 361.839 440.167C 345.839 416.167 317.839 414.167 291.839 418.167C 285.839 420.167 283.839 424.167 283.839 430.167C 287.839 400.167 255.839 388.167 231.839 380.167C 231.839 378.167 231.839 374.167 231.839 372.167C 229.839 372.167 227.839 372.167 225.839 372.167z"/>
<path style="stroke:#80D0E3; stroke-width:6; fill:#ffffff" d="M 40.8391 124.167C 96.8391 124.167 152.839 124.167 206.839 108.167C 216.839 104.167 222.839 92.1667 218.839 82.1667C 212.839 68.1667 194.839 58.1667 178.839 62.1667C 178.839 62.1667 178.839 66.1667 178.839 68.1667C 182.839 28.1667 130.839 32.1667 104.839 38.1667C 90.8391 42.1667 92.8391 64.1667 96.8391 78.1667C 90.8391 78.1667 86.8391 78.1667 80.8391 78.1667C 76.8391 80.1667 76.8391 86.1667 76.8391 90.1667C 52.8391 84.1667 24.8391 96.1667 32.8391 124.167C 32.8391 124.167 36.8391 124.167 40.8391 124.167z"/>
<path style="stroke:#80D0E3; stroke-width:6; fill:#ffffff" d="M 486.839 654.167C 470.839 642.167 450.839 638.167 432.839 644.167C 422.839 646.167 432.839 660.167 426.839 662.167C 412.839 668.167 390.839 672.167 386.839 688.167C 382.839 704.167 388.839 718.167 402.839 726.167C 426.839 740.167 450.839 738.167 476.839 736.167C 492.839 734.167 494.839 718.167 492.839 704.167C 488.839 706.167 488.839 698.167 484.839 700.167C 498.839 700.167 512.839 704.167 522.839 692.167C 530.839 684.167 530.839 672.167 526.839 662.167C 520.839 648.167 500.839 658.167 486.839 652.167L 486.839 654.167z"/>
<path style="stroke:#80D0E3; stroke-width:6; fill:#ffffff" d="M 486.839 156.167C 488.839 148.167 482.839 136.167 488.839 132.167C 500.839 124.167 516.839 126.167 528.839 130.167C 542.839 134.167 538.839 156.167 534.839 168.167C 530.839 178.167 512.839 176.167 500.839 172.167C 496.839 172.167 494.839 162.167 494.839 156.167C 492.839 156.167 488.839 156.167 486.839 156.167z"/>
</g>
<g>
<path style="stroke:none; fill:#bfdfff" d="M 184.839 472.167L 476.839 220.167L 530.839 206.167L 512.839 256.167L 218.839 516.167L 184.839 472.167z"/>
<path style="stroke:none; fill:#ddf7ff" d="M 217.527 492.667L 499.527 240.667L 527.527 232.667L 451.527 306.667L 217.527 512.667L 217.527 492.667z"/>
<path style="stroke:none; fill:#ddf7ff" d="M 476.839 220.167L 530.839 206.167L 468.839 244.167L 476.839 220.167z"/>
<path style="stroke:none; fill:#bfdfff" d="M 190.839 480.167L 246.839 456.167L 217.527 512.667L 190.839 480.167z"/>
<path style="stroke:none; fill:#ff7f00" d="M 122.839 458.167L 142.839 438.167C 142.839 438.167 182.839 476.167 204.839 504.167C 226.839 532.167 254.839 574.167 254.839 574.167L 234.839 592.167L 182.839 544.167L 154.839 516.167L 122.839 458.167z"/>
<path style="stroke:none; fill:#9f9f3f" d="M 86.8391 576.167L 158.568 512.583L 186.568 540.583L 108.839 608.167L 86.8391 576.167z"/>
<path style="stroke:none; fill:#ff7f00" d="M 58.8391 580.167L 72.6724 564.188L 118.672 620.188L 106.839 627.5L 58.8391 580.167z"/>
<path style="stroke:#bfdfff; stroke-width:6; fill:#7fbfff" d="M 346.527 340.167C 374.277 346.542 406.277 350.042 406.277 350.042L 454.777 309.542L 391.527 299.167L 346.527 340.167z"/>
<path style="stroke:#7fbfff; stroke-width:6; fill:none" d="M 306.839 368.167L 368.839 384.167L 342.839 412.167L 278.839 398.167L 306.839 368.167z"/>
<path style="stroke:#ffffff; stroke-width:6; fill:#ff007f" d="M 252.172 453.333L 490.172 241.333"/>
</g>
<g>
<path style="stroke:#000000; stroke-width:6; fill:none" d="M 220.339 518.167C 302.934 450.912 371.77 379.504 444.494 318.464C 470.124 297.623 512.792 257.574 512.792 257.574L 534.012 202.483C 534.012 202.483 497.402 211.008 477.855 218.386C 380.839 306.854 288.814 387.48 185.339 477.667L 220.339 518.167z"/>
<path style="stroke:#000000; stroke-width:6; fill:none" d="M 155.876 514.637C 128.815 481.097 119.827 459.207 119.827 459.207L 143.293 438.286C 143.293 438.286 166.784 455.525 203.596 499.07C 240.408 542.614 259.839 573.52 259.839 573.52L 236.373 594.441C 236.373 594.441 217.546 582.725 180.815 543.154"/>
<path style="stroke:#000000; stroke-width:6; fill:none" d="M 153.796 517.595C 131.375 537.584 109.01 557.523 86.6172 577.487C 94.6028 586.444 103.587 596.521 111.572 605.478C 135.206 582.398 161.713 564.795 182.353 538.356C 178.297 528.547 174.693 525.507 160.392 513.724C 158.153 515.72 156.035 515.598 153.796 517.595z"/>
<path style="stroke:#000000; stroke-width:6; fill:none" d="M 62.5756 577.569L 72.2589 569.271C 72.2589 569.271 87.6443 579.39 97.9312 590.929C 98.9294 592.048 117.786 616.768 117.786 616.768L 106.131 625.484L 62.5756 577.569z"/>
<path style="stroke:#000000; stroke-width:6; fill:none" d="M 129.646 462.957C 132.254 466.884 154.37 484.678 156.978 488.605C 161.804 495.02 176.163 508.121 181.486 514.092C 186.265 519.452 203.051 540.816 209.274 548.266C 222.529 564.136 221.252 561.702 236.792 587.146"/>
<path style="stroke:#000000; stroke-width:6; fill:none" d="M 108.839 578.167C 112.839 582.167 114.839 586.167 118.839 588.167"/>
<path style="stroke:#000000; stroke-width:6; fill:none" d="M 120.839 570.167C 124.839 568.167 132.839 572.167 130.839 578.167"/>
<path style="stroke:#000000; stroke-width:6; fill:none" d="M 136.839 562.167C 138.839 564.167 138.839 568.167 142.839 570.167"/>
<path style="stroke:#ffffff; stroke-width:4; fill:none" d="M 235.298 483.723C 235.298 483.723 230.043 489.33 239.836 492.077C 244.339 493.34 246.47 489.475 250.823 482.921C 257.51 472.851 260.138 454.083 260.138 454.083C 260.138 454.083 241.03 454.54 227.893 460.72C 218.191 465.285 216.657 465.375 217.145 472.164C 217.508 477.204 227.057 476.856 227.057 476.856L 214.04 485.897L 223.594 496.626"/>
<path style="stroke:#7fbfff; stroke-width:4; fill:none" d="M 232.538 482.194C 232.538 482.194 227.284 487.802 237.076 490.549C 241.58 491.812 243.711 487.947 248.063 481.393C 254.751 471.323 257.378 452.555 257.378 452.555C 257.378 452.555 238.271 453.012 225.134 459.192C 215.431 463.757 213.897 463.847 214.386 470.636C 214.749 475.676 224.298 475.328 224.298 475.328L 211.281 484.369L 220.835 495.098"/>
</g>
</svg>
