<svg xmlns="http://www.w3.org/2000/svg"
	xmlns:xlink="http://www.w3.org/1999/xlink"
	viewBox="32.3 49.3 577 792"
	width="577" height="792">
<g>
<path fill="#dfdfbf" stroke="none" d="M 609.265 832.252L 609.265 40.2521L 32.2648 40.2521L 32.2648 832.252L 609.265 832.252z"/>
</g>
<g>
<path fill="#ffbf7f" stroke="none" d="M 515.515 544.002L 517.265 439.502L 514.765 387.002L 511.765 333.252L 509.931 260.919L 507.598 119.585L 506.265 46.5854L 504.931 39.9188L 31.9315 40.2521L 32.2648 758.585L 378.931 623.252C 378.931 623.252 378.265 610.252 397.931 607.919C 417.598 605.585 439.265 601.585 445.265 595.919C 451.265 590.252 449.931 570.919 456.931 566.252C 463.931 561.585 494.598 555.585 499.931 552.585C 505.265 549.585 515.515 544.002 515.515 544.002z"/>
<path fill="#dfdfbf" stroke="none" d="M 609.265 558.252L 567.265 550.252L 567.327 40.1896L 609.327 40.2521L 609.265 558.252z"/>
<path fill="#bfbfbf" stroke="none" d="M 291.265 640.252L 340.265 620.252L 379.265 624.252L 528.265 545.252L 609.265 558.252L 607.265 724.252L 291.265 640.252z"/>
<path fill="#ff0000" stroke="none" d="M 32.2648 758.585L 308.265 635.252L 609.431 668.252L 609.265 831.585L 447.265 832.252L 32.2648 758.585z"/>
<path fill="#ff7f7f" stroke="none" d="M 556.265 832.252L 609.265 785.585L 608.598 799.585L 573.265 832.377L 556.265 832.252z"/>
<path fill="#bf0000" stroke="none" d="M 573.265 832.377L 608.598 799.585L 608.598 823.585L 601.931 831.585L 573.265 832.377z"/>
<path fill="#bfbfbf" stroke="none" d="M 32.2648 758.585L 31.9315 832.585L 439.265 832.252L 32.2648 758.585z"/>
<path fill="#7f7f7f" stroke="none" d="M 32.2648 783.585L 335.265 832.252L 31.9315 832.585L 32.2648 783.585z"/>
<path fill="#bfffff" stroke="none" d="M 609.265 518.252L 589.765 515.252C 589.765 515.252 586.765 66.7521 588.265 59.2521C 589.765 51.7521 598.577 40.1896 598.577 40.1896L 609.327 40.2521L 609.265 518.252z"/>
<path fill="#ffffff" stroke="none" d="M 608.765 613.252L 560.265 608.252L 535.265 640.252L 609.265 649.252L 608.765 613.252z"/>
<path fill="#ffffff" stroke="none" d="M 492.265 657.252L 514.265 638.252L 609.265 649.252L 609.431 668.252L 492.265 657.252z"/>
<path fill="#ff7f7f" stroke="none" d="M 492.265 657.252L 323.265 808.252L 447.265 832.252L 549.265 832.252L 609.265 785.585L 609.431 668.252L 492.265 657.252z"/>
<path fill="#ffffff" stroke="none" d="M 303.265 828.252L 325.265 810.252L 449.265 834.252L 303.265 828.252z"/>
<path fill="#9fff3f" stroke-width="1" stroke="#3fff9f" d="M 81.3902 585.178C 58.3375 603.9 51.3473 640.445 60.4196 671.229L 60.4196 674.649C 60.8658 677.17 62.5018 679.15 64.584 679.69L 88.3804 685.991C 99.6837 689.051 110.838 692.652 122.29 695.532L 125.265 696.252C 127.496 696.612 129.875 695.352 131.214 693.012L 131.809 692.112L 131.809 692.112L 132.255 691.391L 132.255 691.391L 132.552 690.851L 128.091 694.092L 129.727 693.912C 131.957 693.552 133.891 691.932 134.932 689.411L 135.973 685.991C 149.359 664.928 144.451 633.424 129.875 614.702C 118.275 599.58 100.576 609.121 90.1651 621.002L 85.2571 630.364C 84.5135 631.804 84.0673 633.604 84.216 635.224L 84.6622 640.985C 87.488 651.966 95.9655 664.208 106.674 660.968C 109.5 661.328 112.177 658.627 112.474 655.027C 112.772 651.606 110.541 648.366 107.566 648.006C 103.997 646.566 100.725 644.585 97.7502 641.705L 96.8579 633.964L 96.1142 638.105L 100.725 630.544C 108.905 619.562 122.29 620.102 126.455 634.864C 130.321 649.086 133.891 665.468 125.265 678.25L 123.331 683.11L 128.388 678.61L 126.752 678.97C 124.967 679.15 123.331 680.41 122.29 682.21L 121.993 682.75L 121.993 682.75L 121.695 683.47L 121.695 683.47L 121.1 684.551L 127.049 681.31L 121.993 680.59L 121.993 680.77C 116.341 679.51 110.689 678.07 105.038 676.63L 66.8149 666.728L 71.128 672.849L 70.5331 667.448C 60.7171 639.905 66.5175 608.941 82.58 586.618C 82.8775 586.258 82.8775 585.538 82.58 585.178C 82.2826 584.818 81.6877 584.818 81.3902 585.178L 81.3902 585.178z"/>
<path fill="#9fff3f" stroke-width="1" stroke="#3fff9f" d="M 70.032 447.554C 64.2289 471.679 92.9127 486.687 104.519 506.324C 118.778 530.589 117.286 559.062 102.861 582.627L 101.037 584.59L 103.856 582.627L 87.2754 588.798C 79.6485 591.042 72.3532 593.988 64.8921 596.372L 63.0683 596.933L 70.3636 598.056L 67.0476 595.671C 49.6383 582.767 47.6487 561.587 49.1409 543.353C 49.97 533.956 57.5968 525.259 68.5398 522.875C 76.9957 521.192 84.291 526.942 88.1044 532.553C 94.7365 542.792 90.7572 556.117 79.8143 563.972L 74.6744 565.374L 80.4775 564.954L 77.9905 564.252C 70.032 561.447 68.2082 554.013 72.0216 547L 72.519 543.493L 70.3636 547.14L 68.7056 547.701C 70.3636 547 72.0216 546.299 73.6796 545.597C 76.1667 545.597 78.1563 543.774 77.9905 541.67C 77.9905 539.566 75.8351 537.883 73.348 538.023C 70.5294 537.743 67.545 537.322 64.7263 537.041L 60.5813 538.584C 59.2549 539.566 58.5917 540.969 58.4259 542.371L 57.0994 546.719C 55.2756 555.837 58.0942 565.935 65.8869 572.949L 76.0009 576.736C 77.3273 577.016 78.8195 577.016 80.3117 576.736L 90.7572 572.107L 90.5914 572.247C 105.514 559.483 110.819 538.444 97.3893 523.716C 89.7624 515.301 77.3273 508.849 64.8921 512.495C 22.1152 524.839 30.0737 575.614 52.6228 601.001L 61.0787 606.612C 63.0683 608.154 65.8869 608.575 68.374 607.734L 73.5138 606.051L 73.348 605.91C 76.4983 604.788 79.4827 603.666 82.6329 602.544L 109.161 592.866C 110.156 592.445 111.151 591.884 111.814 591.042L 115.462 585.292C 130.218 560.605 130.881 531.711 117.286 506.885C 107.337 488.651 89.4308 476.869 75.5035 459.897C 72.1874 455.97 73.5138 451.481 71.69 447.554C 71.69 447.133 71.3584 446.852 70.861 446.852C 70.3636 446.852 70.032 447.133 70.032 447.554L 70.032 447.554z"/>
<path fill="#9fff3f" stroke-width="1" stroke="#3fff9f" d="M 99.3898 318.252C 108.64 347.002 81.5148 369.377 69.2648 393.002C 62.3898 406.252 61.2648 421.127 62.1398 435.877L 62.0148 441.002C 62.0148 442.127 62.5148 443.377 63.2648 444.252L 76.8898 460.752C 86.8898 478.502 107.265 498.502 128.515 482.002C 147.015 467.752 150.89 443.127 143.015 423.252C 137.39 409.377 125.89 396.252 109.765 394.627L 106.64 394.502C 105.39 394.502 104.265 394.877 103.265 395.502L 100.39 397.627C 83.6398 411.752 86.2648 440.877 99.3898 456.627L 104.765 460.002C 106.39 461.627 108.765 462.127 110.89 461.377L 112.64 460.627C 121.515 458.377 127.89 450.752 127.015 440.752C 127.14 437.502 124.64 434.877 121.515 434.752C 118.265 434.627 115.515 437.127 115.515 440.377L 117.015 440.252C 116.515 443.627 115.515 446.752 112.39 448.752L 106.89 450.377L 110.39 450.127L 106.515 447.627C 106.515 447.752 106.64 447.752 106.64 447.877C 100.765 436.127 96.1398 421.127 105.765 408.252L 109.765 405.002L 106.515 406.002L 110.89 406.127C 120.515 409.002 127.265 416.502 130.89 424.877C 137.64 440.877 137.265 461.877 120.39 473.252C 109.14 480.877 98.6398 473.752 93.1398 464.002L 71.2648 437.627L 72.5148 441.002L 72.5148 435.877C 71.2648 421.377 72.0148 406.502 79.2648 393.877C 92.0148 371.377 117.015 343.002 100.765 317.502C 100.515 317.002 100.015 316.877 99.6398 317.127C 99.2648 317.377 99.1398 317.877 99.3898 318.252L 99.3898 318.252z"/>
<path fill="#9fff3f" stroke-width="1" stroke="#3fff9f" d="M 87.8898 195.627C 78.8898 214.502 64.0148 235.002 72.1398 256.377C 80.6398 278.752 92.8898 301.377 88.0148 325.752C 80.2648 333.877 72.6398 349.002 59.5148 343.502C 47.1398 328.127 44.6398 307.002 47.8898 288.002L 48.3898 284.752L 47.1398 287.502L 50.0148 284.252C 51.2648 283.127 52.3898 282.127 53.6398 281.002L 55.8898 278.877L 51.7648 280.252L 54.8898 280.502C 62.7648 280.627 67.3898 287.502 69.7648 294.127C 72.1398 300.627 72.5148 308.377 67.5148 313.877L 66.2648 314.502L 70.5148 313.127L 68.5148 313.002L 72.7648 315.252L 71.8898 315.002C 71.1398 312.502 70.2648 309.877 69.5148 307.377C 68.3898 304.377 65.0148 302.752 62.0148 303.877C 59.0148 305.002 57.3898 308.377 58.5148 311.377L 61.6398 309.877C 61.1398 312.002 60.7648 314.127 60.2648 316.252L 63.3898 322.377C 64.5148 323.752 66.0148 324.502 67.7648 324.627L 69.7648 324.752C 71.2648 324.877 72.7648 324.377 73.8898 323.377L 77.5148 319.877C 83.2648 311.877 84.3898 301.252 80.6398 292.127C 76.8898 282.627 71.5148 272.627 59.7648 270.502L 52.6398 269.502C 51.1398 269.252 49.6398 269.877 48.5148 270.877L 43.0148 275.252C 43.1398 275.127 43.1398 275.127 43.2648 275.002L 38.8898 280.252C 38.2648 281.002 37.7648 282.002 37.6398 283.002L 35.7648 290.002C 35.2648 313.002 35.1398 347.627 61.3898 354.877C 79.2648 359.752 93.3898 341.502 97.5148 325.627C 103.89 301.127 91.8898 277.877 80.1398 255.877C 69.7648 236.377 83.5148 215.377 89.0148 196.002C 89.1398 195.752 89.0148 195.377 88.6398 195.252C 88.3898 195.127 88.0148 195.252 87.8898 195.627L 87.8898 195.627z"/>
<path fill="#9fff3f" stroke-width="1" stroke="#3fff9f" d="M 105.015 124.502C 90.1398 133.877 77.2648 146.877 70.7648 163.377C 60.7648 189.252 52.1398 224.627 77.6398 244.877C 87.7648 253.002 100.39 250.377 111.64 247.002C 125.765 242.877 138.14 232.127 140.515 216.752C 142.64 203.377 141.015 190.252 133.64 179.002L 130.765 175.502C 129.515 174.127 127.64 173.377 125.765 173.627L 110.39 175.252C 103.64 176.127 96.8898 177.377 90.1398 178.252L 86.7648 178.502C 83.8898 178.752 81.6398 181.127 81.6398 184.127L 81.5148 186.252C 80.2648 198.877 87.5148 212.252 99.5148 216.877C 105.39 219.252 111.015 217.002 116.515 214.502L 119.39 212.752C 120.64 211.877 121.64 210.502 121.89 209.002L 122.39 206.252C 122.765 204.002 122.89 201.627 123.14 199.377C 123.39 196.127 121.015 193.252 117.64 193.002C 114.39 192.752 111.515 195.127 111.265 198.502L 112.64 198.752C 112.14 200.002 111.515 201.252 111.015 202.502L 110.39 206.502L 112.89 202.752L 107.265 205.627C 107.64 205.502 108.015 205.377 108.39 205.252C 100.265 209.627 94.7648 199.002 93.0148 192.127L 93.1398 184.377L 87.3898 190.002L 94.8898 189.252L 94.8898 189.377C 97.6398 189.002 100.515 188.502 103.265 188.127L 127.015 185.377L 122.015 183.377L 124.765 187.502L 124.765 187.377C 130.265 196.627 130.89 207.502 127.89 217.627C 123.015 233.627 104.765 241.002 89.1398 237.627C 80.1398 235.752 74.7648 227.877 73.2648 219.502C 66.8898 183.627 81.7648 150.627 106.265 125.627C 106.515 125.252 106.515 124.752 106.265 124.502C 105.89 124.127 105.39 124.127 105.015 124.502L 105.015 124.502z"/>
<path fill="#9fff3f" stroke-width="1" stroke="#3fff9f" d="M 80.7648 48.3771C 77.1398 54.3771 75.3898 61.2521 76.1398 68.0021C 78.2648 85.3771 85.5148 100.627 81.7648 118.627C 78.7648 133.627 72.7648 146.377 67.1398 159.877C 64.1398 166.752 56.5148 167.127 49.8898 166.627L 45.6398 165.752L 50.6398 168.877L 49.0148 165.502C 42.3898 145.377 42.3898 118.627 58.8898 103.002C 68.2648 108.627 61.7648 121.877 56.1398 128.627C 54.1398 130.502 54.0148 133.627 55.8898 135.627C 57.6398 137.502 60.7648 137.627 62.7648 135.752C 73.1398 131.627 73.8898 117.502 74.1398 108.002C 74.2648 100.502 68.5148 94.0021 59.5148 93.1271C 53.3898 92.5021 48.7648 96.0021 45.6398 100.752C 32.8898 120.252 30.8898 143.252 36.5148 164.877L 40.5148 174.002C 41.1398 175.252 42.2648 176.252 43.6398 176.752L 49.8898 177.877C 60.6398 179.252 72.6398 174.877 76.7648 164.752C 82.5148 150.627 88.8898 137.127 91.7648 121.627C 95.3898 102.502 89.3898 85.6271 83.3898 67.8771C 81.5148 62.0021 80.7648 55.3771 82.5148 49.0021C 82.6398 48.5021 82.3898 48.0021 82.0148 47.7521C 81.5148 47.6271 81.0148 47.8771 80.7648 48.3771L 80.7648 48.3771z"/>
<path fill="#9fff3f" stroke-width="1" stroke="#3fff9f" d="M 80.7648 606.002C 82.1398 590.877 99.5148 588.627 108.39 579.002C 110.265 576.877 110.89 574.127 109.89 571.252C 110.39 569.627 109.515 568.127 108.015 567.627C 106.39 567.252 104.89 568.127 104.39 569.627C 103.39 572.377 102.265 575.127 99.7648 576.752C 89.1398 583.752 78.7648 592.627 79.3898 605.752C 79.2648 606.127 79.5148 606.502 80.0148 606.627C 80.3898 606.627 80.7648 606.377 80.7648 606.002L 80.7648 606.002z"/>
<path fill="#9fff3f" stroke-width="1" stroke="#3fff9f" d="M 65.6398 636.252C 64.5148 649.127 59.6398 663.127 65.6398 674.627C 73.6398 690.252 84.7648 703.627 97.3898 716.627C 99.3898 718.627 99.8898 721.502 100.14 724.252C 100.265 727.127 102.515 729.252 105.39 729.252C 108.14 729.127 110.39 726.877 110.39 724.002L 109.765 724.127C 110.015 721.752 110.89 719.127 110.015 717.377C 101.515 701.377 88.8898 688.752 75.1398 677.002C 63.0148 666.752 67.7648 650.002 67.2648 636.252C 67.2648 635.877 67.0148 635.502 66.5148 635.502C 66.1398 635.377 65.7648 635.752 65.6398 636.252L 65.6398 636.252z"/>
<path fill="#9fff3f" stroke-width="1" stroke="#3fff9f" d="M 67.5148 738.127C 67.5148 736.502 67.6398 734.877 67.6398 733.252L 68.1398 729.002L 67.6398 730.627L 68.6398 729.627C 68.8898 729.377 69.0148 729.127 69.0148 728.877L 70.2648 726.627L 68.6398 728.627L 69.5148 728.127C 70.6398 727.377 71.7648 726.502 72.8898 725.752C 74.2648 725.002 74.7648 723.252 74.1398 721.752C 73.3898 720.377 71.6398 719.877 70.1398 720.627C 68.5148 721.252 66.8898 722.002 65.2648 722.627L 65.1398 722.502C 64.3898 723.002 63.7648 723.752 63.5148 724.627L 63.2648 727.127L 63.6398 726.502L 63.1398 727.752C 62.8898 728.252 62.7648 728.752 62.7648 729.377L 63.0148 733.502C 63.2648 733.377 63.5148 733.127 63.7648 733.002C 64.3898 734.752 64.8898 736.627 65.5148 738.377C 65.5148 739.002 66.0148 739.377 66.6398 739.252C 67.1398 739.127 67.5148 738.627 67.5148 738.127L 67.5148 738.127z"/>
<path fill="#9fff3f" stroke-width="1" stroke="#3fff9f" d="M 170.515 48.0021C 172.14 59.8771 174.14 73.0021 165.39 82.3771C 156.89 91.7521 147.265 100.377 143.765 112.627C 135.64 140.252 144.89 182.502 179.64 183.002C 195.765 183.127 210.515 170.877 213.89 154.627C 216.39 143.502 214.015 131.502 204.64 124.002C 193.64 115.252 177.64 115.502 168.015 128.252C 162.89 135.002 166.14 143.627 172.39 148.002C 173.515 149.877 176.015 150.502 177.89 149.377C 179.89 148.252 180.515 145.752 179.265 143.877C 178.39 140.752 176.265 136.877 177.64 135.002C 181.765 128.627 191.39 128.377 198.015 133.502C 203.39 137.502 202.265 143.502 202.39 148.502C 202.765 160.127 191.64 171.752 179.515 171.252C 172.515 171.002 164.265 169.252 160.015 162.002C 151.89 148.002 148.64 132.002 152.39 116.502C 155.515 104.377 166.015 97.0021 172.64 86.5021C 180.265 74.3771 178.765 60.0021 172.015 47.6271C 171.89 47.2521 171.515 47.0021 171.015 47.1271C 170.64 47.2521 170.39 47.6271 170.515 48.0021L 170.515 48.0021z"/>
<path fill="#9fff3f" stroke-width="1" stroke="#3fff9f" d="M 156.515 167.002C 156.265 193.127 184.39 206.627 203.14 219.877L 204.64 221.252L 202.89 217.752L 205.64 247.752C 206.515 268.627 213.515 293.002 199.015 311.127C 188.14 315.502 178.265 306.377 174.765 296.752C 168.265 279.377 167.765 260.252 173.39 242.752L 176.265 238.252L 171.39 242.127L 172.015 241.752C 183.765 250.127 180.64 267.127 179.265 279.877C 178.265 282.127 179.39 284.752 181.64 285.627C 184.015 286.627 186.515 285.502 187.515 283.252L 186.89 283.252C 190.265 280.252 193.14 276.252 192.765 271.002C 191.64 256.877 193.39 238.377 176.765 231.502L 170.39 231.002C 169.265 231.127 168.015 231.627 167.14 232.502L 163.39 236.877C 163.39 236.752 163.515 236.752 163.515 236.627C 155.265 259.377 155.64 285.502 166.64 307.002C 173.39 319.877 190.765 330.627 204.64 320.627C 222.765 307.752 220.39 284.002 218.265 264.752L 213.515 216.752C 213.39 215.377 212.64 214.127 211.64 213.252L 206.39 208.877C 206.515 209.002 206.64 209.002 206.765 209.127C 189.015 198.252 164.015 188.502 158.015 167.002C 158.015 166.627 157.765 166.252 157.265 166.252C 156.765 166.252 156.515 166.627 156.515 167.002L 156.515 167.002z"/>
<path fill="#9fff3f" stroke-width="1" stroke="#3fff9f" d="M 203.64 316.752C 202.39 319.752 201.64 323.252 199.14 325.127C 172.515 346.002 158.39 376.627 163.515 409.627L 163.64 413.252C 163.765 414.252 164.14 415.252 164.765 416.002L 166.14 417.752C 171.64 428.127 180.765 436.127 192.265 439.252C 200.64 441.627 209.64 438.377 214.89 431.502C 228.89 413.127 228.015 389.002 219.64 369.002L 216.14 363.002C 215.015 360.502 212.39 359.127 209.765 359.502L 207.265 360.002L 207.39 360.002L 205.015 360.377C 203.89 360.502 202.89 361.002 202.14 361.752L 199.015 364.502C 193.765 370.377 195.015 378.127 193.14 385.002C 192.89 388.252 195.265 391.002 198.39 391.252C 201.515 391.502 204.39 389.252 204.64 386.002C 204.64 382.752 204.64 379.627 204.64 376.377L 209.765 370.627L 206.89 371.877L 209.265 371.502L 209.265 371.502L 211.765 371.127L 206.14 368.877L 208.765 373.252C 208.64 373.127 208.64 373.002 208.515 372.877C 215.14 388.752 216.765 407.377 207.14 422.627C 198.39 436.377 183.015 424.002 177.14 413.877L 173.765 409.127L 174.89 412.377L 174.265 406.502C 169.015 377.252 184.515 351.502 202.39 328.127C 204.64 325.127 205.015 321.127 205.265 317.252C 205.39 316.877 205.14 316.377 204.765 316.252C 204.265 316.127 203.765 316.377 203.64 316.752L 203.64 316.752z"/>
<path fill="#9fff3f" stroke-width="1" stroke="#3fff9f" d="M 172.515 405.502C 168.39 430.377 182.015 452.377 200.265 467.877C 207.265 484.377 209.515 503.127 207.765 520.877C 206.265 535.752 196.14 560.127 177.515 556.002C 165.515 534.002 154.14 498.127 180.515 481.752L 182.89 479.877L 179.515 481.002L 180.765 480.627C 192.015 491.627 198.39 510.752 189.265 525.127L 188.39 526.752L 190.64 524.377L 189.515 525.377C 189.765 524.752 189.89 524.252 190.14 523.627C 188.39 521.002 184.89 520.377 182.265 522.127C 179.64 523.877 179.015 527.502 180.765 530.127L 182.14 528.377C 182.14 532.002 182.765 535.377 190.64 536.627L 196.265 534.377C 197.265 533.877 198.015 533.002 198.515 532.002L 201.14 526.627C 201.14 526.752 201.015 526.752 201.015 526.877C 209.515 508.002 202.515 485.252 186.265 471.752L 179.765 470.627C 178.515 470.502 177.265 471.002 176.265 471.752L 170.39 476.377C 170.515 476.252 170.64 476.252 170.765 476.127C 143.265 497.752 153.265 537.377 171.39 562.877C 175.64 568.877 183.765 568.627 189.89 565.877C 204.14 559.752 212.015 546.002 215.515 531.252C 220.89 507.877 217.39 482.752 206.515 462.002C 188.64 448.127 171.14 430.252 174.015 405.502C 174.015 405.002 173.64 404.752 173.265 404.752C 172.89 404.752 172.515 405.002 172.515 405.502L 172.515 405.502z"/>
<path fill="#9fff3f" stroke-width="1" stroke="#3fff9f" d="M 215.265 518.377C 216.515 523.752 214.515 528.877 212.89 533.502C 199.265 570.002 186.265 606.877 177.515 644.752L 177.765 649.252C 178.015 650.502 178.765 651.627 179.765 652.377L 179.64 651.627C 187.265 662.877 199.515 672.627 213.64 671.127C 249.515 667.377 255.765 622.627 239.015 595.502C 235.89 590.377 229.265 588.752 222.515 592.377C 208.515 599.502 205.765 616.627 201.64 630.377C 205.765 632.627 199.265 639.002 208.64 639.127C 210.14 640.877 212.89 641.002 214.64 639.377C 216.39 637.877 216.515 635.127 215.015 633.377C 211.765 622.502 220.015 611.502 226.515 602.377C 226.89 601.752 229.64 602.127 229.89 602.627C 236.015 617.877 239.64 637.502 227.765 651.502C 216.89 664.252 200.64 659.502 191.265 648.002L 186.765 643.502L 188.89 647.627L 187.515 642.877C 192.64 600.252 218.64 561.252 216.89 518.127C 216.765 517.752 216.39 517.377 215.89 517.502C 215.515 517.502 215.265 518.002 215.265 518.377L 215.265 518.377z"/>
<path fill="#9fff3f" stroke-width="1" stroke="#3fff9f" d="M 174.64 666.127C 176.015 672.877 176.515 679.752 178.89 686.252C 178.89 687.627 180.015 688.627 181.265 688.627C 182.64 688.627 183.765 687.502 183.64 686.127C 184.765 678.752 178.89 672.127 175.89 665.627C 175.765 665.252 175.39 665.127 175.015 665.252C 174.64 665.377 174.515 665.752 174.64 666.127L 174.64 666.127z"/>
<path fill="#9fff3f" stroke-width="1" stroke="#3fff9f" d="M 167.765 26.2521C 170.265 49.1271 166.39 88.7521 134.39 82.7521C 117.765 70.2521 106.64 42.0021 124.015 26.8771C 128.265 23.1271 137.765 22.6271 142.515 28.6271C 148.015 35.5021 146.265 44.0021 146.265 52.0021L 144.89 54.5021L 146.89 50.3771L 145.765 51.6271C 142.14 52.8771 138.14 54.0021 135.14 51.5021C 132.64 49.2521 131.89 45.5021 133.765 41.1271L 134.015 38.7521L 131.14 41.7521L 132.39 41.2521C 132.515 41.3771 132.515 41.3771 132.64 41.5021C 134.14 42.6271 136.14 42.2521 137.265 40.7521C 138.265 39.2521 138.015 37.1271 136.39 36.0021C 134.265 33.7521 132.515 30.7521 126.64 33.8771L 127.39 32.2521C 125.515 33.0021 124.14 34.8771 124.14 36.8771L 123.265 39.8771C 120.64 48.3771 124.89 57.5021 132.39 62.0021C 137.015 64.7521 141.765 63.2521 146.39 62.2521L 153.015 58.6271C 153.765 58.1271 154.39 57.3771 154.765 56.5021L 156.39 51.8771C 160.515 30.7521 142.89 7.00214 120.14 18.1271C 106.14 24.8771 104.89 42.6271 107.515 56.6271C 110.015 69.6271 115.89 80.7521 126.89 88.8771C 138.89 97.7521 154.64 92.5021 163.765 82.8771C 179.14 67.1271 168.64 45.1271 170.015 26.2521C 169.89 25.6271 169.515 25.1271 168.89 25.1271C 168.265 25.1271 167.765 25.6271 167.765 26.2521L 167.765 26.2521z"/>
<path fill="#9fff3f" stroke-width="1" stroke="#3fff9f" d="M 239.765 13.7521C 237.39 18.1271 240.14 23.6271 238.14 26.7521C 222.39 52.3771 206.39 81.6271 218.765 110.252C 225.39 125.877 243.39 133.877 260.015 131.127C 272.39 129.002 283.015 122.377 291.14 112.377C 304.015 96.5021 305.015 72.1271 290.89 56.7521L 287.515 53.6271C 286.515 52.7521 285.265 52.1271 283.89 52.1271L 268.64 52.0021C 258.015 52.7521 246.64 54.1271 238.64 62.0021C 231.015 69.7521 230.14 81.5021 235.39 90.8771C 239.64 98.3771 245.64 104.377 254.64 107.252C 260.64 109.002 266.39 108.252 272.39 104.252C 280.765 98.6271 279.89 88.5021 274.89 81.1271C 274.015 78.2521 270.89 76.6271 267.89 77.6271C 265.015 78.6271 263.515 81.7521 264.515 84.6271C 265.89 88.0021 267.14 92.0021 265.015 94.7521C 263.015 97.2521 258.765 97.2521 255.265 95.0021C 249.39 91.3771 243.765 86.1271 243.265 78.8771C 242.515 68.7521 252.89 65.1271 261.14 64.2521L 283.64 63.5021L 279.89 62.0021L 284.89 66.8771C 284.89 66.7521 284.765 66.6271 284.765 66.5021C 298.64 86.6271 283.765 114.002 261.265 120.002C 247.14 123.877 232.015 117.127 226.39 104.752C 219.765 90.0021 223.265 72.2521 229.265 57.3771C 233.515 46.8771 242.64 38.3771 243.14 26.8771C 243.39 22.7521 239.765 18.7521 241.14 14.0021C 241.265 13.6271 241.015 13.2521 240.64 13.1271C 240.265 13.1271 239.89 13.3771 239.765 13.7521L 239.765 13.7521z"/>
<path fill="#9fff3f" stroke-width="1" stroke="#3fff9f" d="M 228.515 127.752C 228.39 132.752 231.015 136.502 234.14 140.002C 247.89 154.752 268.765 161.377 276.265 180.877C 270.765 200.502 278.265 226.502 263.765 242.627C 253.64 236.877 240.14 233.127 235.765 222.002C 230.765 209.127 228.515 185.377 246.64 182.002C 254.765 187.627 256.015 198.877 251.14 208.002L 249.64 209.502L 255.515 207.502L 256.39 209.377C 255.265 208.002 254.265 206.627 253.14 205.252C 253.39 205.377 253.64 205.627 253.89 205.752C 252.765 203.252 249.89 202.127 247.39 203.252C 244.89 204.377 243.765 207.377 244.89 209.877C 245.39 211.502 245.765 213.002 246.265 214.627L 252.89 218.877C 255.14 219.377 257.39 218.502 258.765 216.877L 261.265 213.627C 266.64 204.877 266.265 193.627 262.64 184.252C 259.64 176.377 251.765 170.002 242.89 171.877C 217.14 177.377 216.39 209.752 226.14 228.752C 233.265 242.502 248.64 249.002 262.765 254.002C 293.14 244.877 280.515 201.377 285.64 177.252C 276.64 153.002 250.515 148.002 232.515 132.127C 231.14 130.877 229.765 129.377 230.015 127.252C 229.89 126.752 229.39 126.627 229.015 126.752C 228.64 126.877 228.39 127.252 228.515 127.752L 228.515 127.752z"/>
<path fill="#9fff3f" stroke-width="1" stroke="#3fff9f" d="M 291.89 240.002C 283.265 259.627 265.89 271.627 252.515 288.502C 235.515 309.877 235.89 339.127 256.39 357.377C 271.265 370.502 292.015 369.752 309.14 360.752C 327.765 350.877 327.89 328.002 320.265 311.377C 315.265 300.252 304.515 291.752 290.64 293.377L 285.89 295.377C 284.39 296.127 283.39 297.502 283.015 299.127L 280.015 311.877C 281.265 319.502 270.39 325.127 282.39 334.627C 284.265 336.377 287.14 336.377 288.89 334.502C 290.64 332.752 290.515 329.752 288.765 328.127C 289.015 326.127 289.39 324.127 289.64 322.127L 294.265 301.752L 291.39 305.502L 295.265 304.502C 311.39 308.252 316.515 327.877 311.64 340.752C 306.015 355.377 285.765 359.627 271.39 353.877C 259.89 349.252 252.14 338.377 250.515 326.377C 246.39 295.002 276.64 277.877 290.015 252.877C 292.015 249.002 291.39 244.502 293.015 240.502C 293.14 240.252 293.015 239.877 292.765 239.627C 292.39 239.502 292.015 239.627 291.89 240.002L 291.89 240.002z"/>
<path fill="#9fff3f" stroke-width="1" stroke="#3fff9f" d="M 266.765 368.377C 265.265 391.502 280.265 409.127 288.89 429.252C 299.515 453.627 296.015 486.127 277.765 506.752L 276.015 508.627L 285.64 510.502L 277.89 490.877C 274.64 476.627 260.265 460.252 272.89 446.877L 274.39 443.127L 272.64 445.877L 275.265 443.627L 273.515 444.627L 277.64 442.502L 273.64 442.377L 276.14 443.377L 275.14 442.877L 278.015 444.752L 275.89 442.252L 276.765 443.502C 277.89 447.627 278.265 452.127 280.64 455.877C 281.39 458.877 284.515 460.627 287.39 459.877C 290.39 459.127 292.14 456.002 291.39 453.127C 290.89 451.002 290.515 449.002 290.015 446.877L 286.39 437.252C 285.89 436.252 285.14 435.502 284.14 434.877L 281.265 433.127C 281.015 432.877 280.64 432.752 280.265 432.627L 277.765 431.627C 276.015 430.877 274.015 431.127 272.39 432.252L 268.265 434.502C 268.14 434.627 268.015 434.752 267.89 434.752L 265.265 437.002C 264.39 437.752 263.765 438.627 263.39 439.752L 261.765 442.502C 253.265 455.127 256.265 469.752 262.515 482.627L 274.765 514.877C 275.015 515.627 275.515 516.252 276.14 516.877C 278.515 519.127 282.14 519.127 284.39 516.752L 289.64 510.877C 308.015 486.627 310.765 451.752 298.14 425.002C 288.89 405.377 272.765 389.877 267.765 368.127C 267.765 367.877 267.515 367.627 267.14 367.752C 266.89 367.752 266.64 368.002 266.765 368.377L 266.765 368.377z"/>
<path fill="#9fff3f" stroke-width="1" stroke="#3fff9f" d="M 297.39 502.002C 297.14 508.502 299.39 515.252 297.265 521.502C 288.265 547.627 258.015 562.752 257.39 591.877L 257.265 596.877C 257.265 599.502 258.765 601.752 261.14 602.627L 279.89 609.627C 287.265 611.502 294.14 615.002 301.89 615.752L 307.39 616.377C 309.64 616.627 311.89 615.627 313.14 613.752L 315.015 610.127C 314.515 610.627 313.89 611.002 313.39 611.502C 321.39 601.252 319.39 587.877 319.64 575.877L 319.64 571.502C 319.64 569.502 318.765 567.627 317.14 566.377L 315.64 565.252C 312.89 560.377 306.515 561.877 301.765 564.627C 299.015 566.752 298.515 570.502 300.515 573.252C 302.515 576.002 306.39 576.502 309.14 574.502L 305.015 575.377C 304.265 574.002 303.515 572.752 302.765 571.377L 309.39 576.502L 306.89 571.502L 306.89 575.877C 306.765 584.627 307.765 593.502 305.015 602.002L 302.765 606.502L 308.64 603.877L 301.14 603.252L 301.14 603.377C 298.89 602.752 296.765 602.002 294.515 601.377L 265.39 591.377L 269.265 597.002L 269.265 592.002C 268.39 584.252 271.89 578.002 276.015 571.752C 290.015 550.252 314.765 527.627 298.765 501.752C 298.64 501.252 298.265 501.002 297.89 501.127C 297.515 501.252 297.265 501.627 297.39 502.002L 297.39 502.002z"/>
<path fill="#9fff3f" stroke-width="1" stroke="#3fff9f" d="M 363.515 6.25214C 371.765 18.0021 382.14 28.0021 385.515 42.8771C 388.765 57.5021 381.015 70.1271 368.64 77.3771L 366.14 79.1271L 370.89 79.2521L 353.64 65.6271C 345.015 59.2521 337.64 51.2521 328.14 46.1271L 327.14 44.0021L 328.14 46.2521L 327.89 43.8771C 326.14 30.2521 339.015 18.2521 351.515 18.3771C 361.89 18.5021 363.015 32.5021 362.64 41.1271L 362.64 43.1271L 363.39 40.6271L 362.515 42.1271C 360.39 43.8771 358.39 45.6271 356.265 47.3771L 354.39 47.5021L 358.015 47.6271L 355.515 46.3771L 355.89 46.6271L 353.64 45.3771L 355.89 47.7521L 354.265 44.1271C 352.39 41.2521 351.515 38.2521 352.14 34.8771C 352.015 32.2521 349.64 30.1271 347.015 30.2521C 344.39 30.5021 342.265 32.7521 342.39 35.3771L 344.89 36.1271C 342.89 37.6271 341.64 39.6271 343.015 43.6271L 346.64 51.6271C 347.015 52.6271 347.765 53.5021 348.765 54.1271L 351.015 55.2521C 351.14 55.3771 351.265 55.3771 351.265 55.3771L 353.89 56.6271C 354.89 57.0021 355.89 57.1271 357.015 56.8771L 362.515 54.7521C 362.39 54.7521 362.39 54.8771 362.265 54.8771C 364.14 53.2521 366.14 51.6271 368.015 50.0021L 371.14 45.5021C 371.64 44.7521 371.89 43.8771 371.89 43.0021L 371.765 38.7521C 372.14 25.6271 365.265 8.00214 349.515 9.75214C 334.64 11.3771 321.265 23.5021 318.765 38.5021L 319.14 47.1271C 319.265 48.0021 319.515 48.7521 320.015 49.3771L 323.765 53.7521L 323.765 53.6271C 329.265 56.1271 333.515 60.2521 338.265 63.7521L 365.89 85.5021C 367.265 86.6271 369.265 86.6271 370.64 85.6271L 376.14 81.2521L 376.015 81.2521C 391.015 72.3771 396.14 53.7521 391.265 37.8771C 386.765 23.7521 373.89 16.0021 364.515 5.50214C 364.39 5.25214 364.015 5.12714 363.64 5.37714C 363.39 5.62714 363.39 6.00214 363.515 6.25214L 363.515 6.25214z"/>
<path fill="#9fff3f" stroke-width="1" stroke="#3fff9f" d="M 339.765 78.5021C 337.14 86.2521 334.64 95.0021 339.39 102.627C 345.015 111.877 355.765 119.002 354.14 129.377C 351.39 147.752 343.64 164.752 334.89 181.127L 331.64 182.627L 332.015 182.252L 330.265 183.877L 333.39 182.377L 330.265 182.752L 334.39 183.877L 332.265 182.377C 320.89 165.252 320.015 142.877 321.64 123.002L 323.14 117.877L 319.64 122.127L 321.265 121.502L 317.64 121.377L 320.265 122.377L 319.515 122.002L 324.515 124.377L 323.39 123.377L 325.64 125.877C 327.14 130.377 333.265 132.502 332.39 138.377C 332.89 141.002 335.265 142.877 337.89 142.502C 340.64 142.002 342.39 139.627 342.015 136.877C 342.89 131.127 338.515 127.127 336.015 122.502L 331.14 116.377C 330.39 115.627 329.515 115.127 328.64 114.877L 323.515 112.502L 324.14 112.752L 321.515 111.752C 320.39 111.252 319.14 111.127 317.89 111.627L 316.265 112.127C 315.14 112.502 314.14 113.252 313.515 114.252L 311.39 120.252C 311.39 120.127 311.39 120.002 311.39 119.877C 307.89 141.252 311.515 163.627 319.39 183.502L 327.515 192.502C 328.64 193.502 330.14 193.877 331.64 193.627L 334.765 193.252C 336.015 193.127 337.015 192.502 337.89 191.752L 339.515 190.127L 336.515 191.627L 342.64 188.377C 353.265 170.502 357.89 150.377 365.64 131.377C 364.14 116.627 352.015 108.377 343.89 96.5021C 340.015 91.1271 340.89 84.8771 341.265 78.7521C 341.265 78.3771 341.015 78.0021 340.64 77.8771C 340.14 77.8771 339.765 78.1271 339.765 78.5021L 339.765 78.5021z"/>
<path fill="#9fff3f" stroke-width="1" stroke="#3fff9f" d="M 364.39 144.127C 359.39 176.377 351.39 208.127 346.765 240.502C 352.265 247.877 357.64 255.502 365.015 261.252C 366.515 262.752 369.015 262.877 370.64 261.377C 372.265 259.877 372.265 257.252 370.765 255.752C 366.515 250.377 362.14 245.252 357.64 240.127C 361.265 214.377 367.265 188.877 367.515 162.877C 367.515 156.752 364.14 150.877 366.14 144.377C 366.265 144.002 365.89 143.502 365.39 143.377C 365.015 143.252 364.515 143.627 364.39 144.127L 364.39 144.127z"/>
<path fill="#9fff3f" stroke-width="1" stroke="#3fff9f" d="M 371.015 325.502C 358.265 346.002 340.015 365.752 342.89 391.627C 345.015 411.377 349.14 432.002 367.265 443.627C 378.015 450.627 393.64 450.752 404.89 444.377L 407.89 441.877C 409.14 440.752 409.89 439.252 410.015 437.502L 411.265 405.127C 410.39 388.127 415.015 371.252 411.39 354.252L 411.265 352.877C 411.015 350.752 409.765 349.002 407.89 348.127L 403.765 346.377C 395.39 345.002 387.265 349.627 382.265 356.502C 370.14 373.377 370.515 395.002 379.14 412.627C 380.515 415.502 384.015 416.877 386.89 415.627C 389.89 414.252 391.265 410.752 389.89 407.877C 382.89 393.127 381.39 370.502 396.265 359.752L 402.89 358.877L 399.515 354.127L 400.64 359.752C 400.515 359.377 400.515 359.127 400.39 358.752C 401.515 367.627 400.14 376.377 400.14 385.252L 398.015 437.127L 400.14 432.752L 396.89 436.252C 368.89 443.627 355.39 414.877 352.39 391.627C 349.265 367.252 365.14 348.002 372.265 326.252C 372.515 325.877 372.39 325.377 372.015 325.252C 371.64 325.002 371.14 325.127 371.015 325.502L 371.015 325.502z"/>
<path fill="#9fff3f" stroke-width="1" stroke="#3fff9f" d="M 336.89 405.252C 322.765 437.252 349.89 463.502 365.265 489.752C 376.89 509.502 391.015 527.627 387.64 551.877C 386.265 561.752 382.515 570.002 376.39 577.627C 371.765 583.252 363.39 584.627 359.265 578.877C 346.765 561.627 342.015 540.127 343.64 519.502C 344.265 512.627 349.265 503.377 358.515 506.127L 361.015 506.127L 357.015 504.627L 359.265 506.627C 359.515 506.877 359.89 507.127 360.265 507.377L 365.265 511.502L 362.39 507.002L 363.515 517.627C 363.39 521.377 363.39 525.252 363.265 529.002C 362.765 528.627 362.265 528.127 361.765 527.752C 359.265 529.627 358.765 533.377 360.765 535.877C 362.765 538.377 366.39 538.752 368.89 536.752C 374.14 534.752 376.39 528.877 375.39 523.502L 374.265 505.752C 374.14 504.627 373.64 503.502 372.89 502.502L 367.765 498.502C 367.64 498.377 367.515 498.127 367.265 498.002L 365.015 496.002C 363.89 494.877 362.515 494.377 361.015 494.377L 354.765 494.377C 340.89 493.752 332.515 508.002 332.265 519.502C 331.64 544.002 333.89 573.752 355.015 589.877C 371.765 602.627 389.765 584.877 395.515 568.377C 401.89 549.752 402.265 528.627 391.64 511.377C 373.765 482.627 351.515 459.627 338.765 429.127C 335.765 422.002 337.015 413.502 338.39 405.627C 338.515 405.127 338.265 404.752 337.765 404.752C 337.39 404.627 337.015 404.877 336.89 405.252L 336.89 405.252z"/>
<path fill="#9fff3f" stroke-width="1" stroke="#3fff9f" d="M 414.515 31.0021C 409.89 48.8771 413.14 67.2521 406.89 84.7521C 382.89 108.502 378.39 153.752 409.64 173.627L 414.015 177.877C 414.64 178.377 415.515 178.877 416.39 179.002L 419.265 179.627C 428.015 180.252 434.39 172.752 440.64 167.752L 442.515 165.752C 443.515 164.752 444.015 163.377 444.015 161.877L 444.39 140.877C 443.89 131.502 443.39 122.002 443.14 112.627L 443.015 110.502C 443.015 109.252 442.64 108.002 441.89 107.127L 440.265 105.002C 439.265 103.752 437.89 102.877 436.265 102.752L 430.89 102.877C 413.14 109.877 403.14 132.002 411.015 149.252C 412.015 152.252 415.265 154.002 418.39 153.002C 421.39 152.002 423.015 148.627 422.14 145.627L 420.39 147.752C 418.39 136.752 419.64 124.127 429.265 116.627L 435.14 114.252L 431.14 112.002L 432.64 114.127L 431.515 110.752L 431.64 116.252C 431.89 120.752 432.14 125.377 432.265 129.877L 432.515 161.752L 434.14 157.877L 430.64 162.377C 427.89 164.127 425.14 165.627 423.39 168.502L 418.89 168.127L 421.64 169.627L 416.265 164.627L 416.265 164.752C 402.515 157.377 397.39 141.752 397.765 127.752C 398.265 112.502 410.14 100.502 415.015 86.0021C 420.765 68.3771 421.14 49.2521 416.015 31.0021C 416.015 30.6271 415.64 30.2521 415.265 30.2521C 414.89 30.2521 414.515 30.6271 414.515 31.0021L 414.515 31.0021z"/>
<path fill="#9fff3f" stroke-width="1" stroke="#3fff9f" d="M 400.39 171.627C 408.89 208.127 430.765 239.627 446.265 273.377L 446.515 273.877L 445.265 270.252L 445.265 272.002C 440.39 290.252 437.015 310.002 421.765 323.002L 421.64 322.502L 427.765 323.127L 426.14 322.502C 412.015 299.127 399.39 270.627 410.64 243.627L 414.39 240.252L 406.89 241.502L 408.015 242.002C 420.14 255.877 420.89 273.127 422.64 290.252C 422.64 292.752 424.765 294.877 427.265 294.877C 429.765 294.877 431.89 292.752 431.89 290.252C 437.515 272.127 429.515 254.752 421.015 239.252L 412.89 231.377C 411.015 230.252 408.64 230.252 406.765 231.377L 400.89 236.877C 400.89 236.752 400.89 236.752 400.89 236.627C 386.015 265.752 398.14 300.627 414.39 326.752L 420.515 333.127C 422.265 334.377 424.64 334.627 426.64 333.752L 432.89 329.127C 448.39 314.127 452.265 292.877 457.265 272.752L 457.265 270.127C 457.265 268.877 456.765 267.627 456.015 266.627L 453.015 263.002C 442.14 242.877 435.015 221.752 420.64 202.502C 412.89 192.377 409.39 180.627 402.14 170.502C 401.765 170.127 401.265 169.877 400.765 170.252C 400.265 170.502 400.14 171.127 400.39 171.627L 400.39 171.627z"/>
<path fill="#9fff3f" stroke-width="1" stroke="#3fff9f" d="M 445.765 324.752C 444.765 326.377 443.14 327.752 442.89 329.502C 438.015 357.877 428.765 382.377 422.015 410.127C 417.89 426.752 422.265 445.627 431.515 459.752L 437.765 462.502C 439.515 463.252 441.64 463.002 443.14 461.752L 453.64 452.377C 473.265 436.502 475.14 407.252 464.89 385.377L 460.64 379.877C 460.14 379.252 459.39 378.752 458.64 378.377L 456.64 377.627C 454.765 376.752 452.64 377.252 451.14 378.502L 448.14 381.627C 438.765 396.752 434.14 415.252 434.14 432.877C 434.14 433.627 435.515 434.377 436.39 435.127C 436.765 437.377 439.015 438.877 441.39 438.502C 443.765 438.002 445.265 435.752 444.765 433.377C 444.39 418.877 448.39 404.252 454.515 390.877L 458.14 386.127L 452.64 387.127L 454.64 388.002L 452.39 386.252L 455.765 390.377C 455.64 390.252 455.64 390.127 455.515 390.002C 461.515 405.502 464.89 426.627 451.64 439.752L 436.64 454.377L 440.515 453.252L 436.14 451.752C 434.265 438.127 426.39 426.002 430.39 412.127C 438.765 382.877 444.765 355.002 447.14 325.377C 447.39 325.002 447.265 324.502 446.765 324.377C 446.39 324.127 445.89 324.252 445.765 324.752L 445.765 324.752z"/>
<path fill="#9fff3f" stroke-width="1" stroke="#3fff9f" d="M 427.265 463.752C 428.765 478.252 436.89 489.877 448.515 498.127L 450.515 499.127L 448.89 496.127L 451.265 523.502C 451.265 536.252 455.015 548.877 452.765 561.752L 451.14 565.002L 455.765 561.877L 454.515 562.002C 441.39 561.127 438.64 544.877 435.765 534.002C 433.14 524.252 431.64 512.127 439.89 504.127L 439.765 505.127L 434.015 503.502L 434.89 504.627C 435.765 505.877 436.515 507.252 437.64 508.377C 438.515 510.252 440.765 511.252 442.765 510.377C 444.765 509.627 445.765 507.252 444.89 505.252C 444.89 503.877 445.015 502.627 445.015 501.252L 441.89 497.127C 440.515 495.377 438.14 494.752 436.14 495.627L 428.39 502.002C 428.39 501.877 428.515 501.627 428.515 501.502C 418.14 523.502 425.39 550.127 441.265 568.502C 443.64 571.252 447.265 571.377 450.765 571.627L 455.89 572.002C 457.89 572.002 459.765 570.752 460.515 568.877L 462.765 562.877C 464.14 554.877 462.265 547.002 461.89 539.127L 457.89 495.252C 457.765 493.502 456.515 491.877 454.64 491.377L 452.015 490.127C 441.39 483.752 432.015 475.627 428.765 463.127C 428.64 462.752 428.265 462.502 427.765 462.752C 427.39 462.877 427.14 463.252 427.265 463.752L 427.265 463.752z"/>
<path fill="#9fff3f" stroke-width="1" stroke="#3fff9f" d="M 477.64 18.2521C 476.265 19.5021 474.765 20.6271 473.39 21.8771L 471.14 24.0021C 470.765 24.3771 470.515 24.8771 470.64 25.3771L 471.265 27.7521C 473.515 39.6271 479.765 49.6271 487.39 58.8771L 488.265 59.3771C 488.265 59.5021 488.39 59.5021 488.39 59.5021L 489.015 60.6271C 491.64 77.0021 480.89 92.7521 466.14 99.1271C 446.89 91.0021 439.265 68.1271 440.265 48.3771L 441.64 43.6271L 435.015 46.5021L 447.515 51.8771C 453.265 55.2521 459.765 57.7521 464.64 62.6271L 466.765 66.6271L 466.015 64.3771L 466.265 66.3771C 465.64 68.3771 465.015 70.3771 464.39 72.3771L 460.015 75.3771L 468.14 74.2521L 466.64 72.8771C 464.015 70.2521 462.39 66.6271 458.265 65.8771C 457.14 64.1271 454.765 63.7521 453.14 65.0021C 451.515 66.1271 451.14 68.5021 452.265 70.1271C 453.515 73.8771 454.765 77.5021 457.89 80.1271L 461.015 82.1271C 462.14 83.2521 463.64 83.7521 465.265 83.5021L 472.265 79.6271C 473.64 76.7521 475.515 74.0021 476.39 70.8771L 476.14 63.7521C 476.015 62.6271 475.64 61.6271 474.89 60.7521L 473.265 58.1271C 470.015 53.5021 466.015 49.7521 460.14 47.5021L 439.015 37.3771C 438.64 37.2521 438.14 37.1271 437.765 37.0021C 435.015 36.6271 432.515 38.5021 432.14 41.1271L 430.39 48.3771C 429.015 71.5021 437.515 98.6271 460.89 106.502C 479.265 112.627 494.515 90.1271 497.265 73.0021C 498.015 68.0021 497.515 63.1271 496.265 58.2521L 495.14 55.6271C 494.64 54.8771 494.015 54.3771 493.265 54.0021L 490.515 50.3771C 490.64 50.6271 490.765 50.7521 490.89 51.0021C 484.89 45.2521 479.515 39.0021 476.39 31.1271L 473.14 24.7521L 473.015 25.7521L 477.14 21.7521C 477.015 21.6271 476.765 21.6271 476.64 21.5021C 477.265 20.7521 477.89 19.8771 478.515 19.1271C 478.765 18.8771 478.765 18.5021 478.515 18.2521C 478.265 18.0021 477.89 18.0021 477.64 18.2521L 477.64 18.2521z"/>
<path fill="#9fff3f" stroke-width="1" stroke="#3fff9f" d="M 484.89 94.0021C 482.265 98.6271 482.39 104.127 479.39 108.627C 465.64 129.252 454.515 149.627 452.265 173.502L 452.14 180.002C 452.14 181.127 452.515 182.252 453.265 183.252L 462.765 195.127C 468.765 202.627 472.765 212.627 482.015 217.127L 486.89 218.002C 488.39 218.002 489.89 217.502 491.015 216.502L 494.265 213.502C 504.765 195.627 503.765 174.752 506.265 154.627C 506.515 152.002 504.765 148.752 502.64 146.627C 496.14 139.877 484.765 138.877 477.64 146.002C 469.14 154.502 466.89 168.752 473.14 178.877C 474.39 181.502 477.515 182.627 480.14 181.252C 482.765 180.002 483.765 176.877 482.515 174.252C 480.14 169.252 480.015 164.002 481.39 158.752C 483.015 152.252 490.265 149.877 495.64 154.377C 492.89 170.127 491.14 186.002 488.14 201.752L 483.515 208.002L 487.265 206.502L 483.015 203.877C 482.89 204.002 482.89 204.002 482.765 204.127C 480.765 201.752 478.89 199.502 476.89 197.127L 461.265 176.877L 462.39 180.002L 462.39 173.877L 462.39 174.002C 463.765 151.252 475.515 131.627 484.515 111.252C 486.89 106.002 484.39 100.002 486.39 94.5021C 486.515 94.1271 486.265 93.6271 485.89 93.5021C 485.515 93.3771 485.015 93.6271 484.89 94.0021L 484.89 94.0021z"/>
<path fill="#9fff3f" stroke-width="1" stroke="#3fff9f" d="M 465.64 211.752C 460.765 221.002 465.265 230.877 468.89 239.502C 479.14 264.252 505.515 289.002 490.39 317.002C 493.39 324.627 491.515 335.127 484.265 338.502C 477.265 341.752 472.765 331.127 471.265 325.127C 467.14 309.127 467.015 292.377 474.89 277.502L 475.765 275.502L 472.515 278.502L 475.515 277.502L 470.515 276.752L 471.89 277.377C 475.64 287.877 472.515 299.002 474.265 309.627C 474.265 312.502 476.515 314.752 479.265 314.752C 482.015 314.752 484.265 312.502 484.265 309.627C 484.515 297.377 486.64 284.127 481.515 272.502L 477.015 268.127C 475.515 267.002 473.64 266.752 472.015 267.252L 469.015 268.377C 467.64 268.877 466.39 269.877 465.765 271.377L 463.64 276.002C 463.64 275.877 463.765 275.877 463.765 275.752C 455.64 298.252 452.89 329.002 473.14 346.502C 477.515 350.377 483.89 351.627 489.015 348.377C 498.515 342.627 504.515 331.252 500.515 319.627C 516.515 282.502 481.765 252.002 467.765 220.252C 466.765 217.877 467.015 214.752 467.265 212.002C 467.39 211.502 467.14 211.127 466.64 211.002C 466.14 210.877 465.64 211.252 465.64 211.752L 465.64 211.752z"/>
<path fill="#9fff3f" stroke-width="1" stroke="#3fff9f" d="M 494.39 355.877C 494.14 358.752 494.64 361.877 493.265 364.127C 488.14 372.002 480.39 377.002 478.015 386.127C 473.14 403.877 483.14 424.002 498.515 433.377C 503.14 451.502 504.14 469.877 503.015 488.377C 502.39 498.502 498.265 507.877 491.89 516.252C 491.14 517.127 487.64 517.002 487.265 516.252C 477.14 496.252 474.265 472.627 480.515 451.002L 485.015 445.752L 479.14 448.377L 481.14 448.877L 479.765 448.252L 482.015 449.627L 480.015 447.502L 481.265 449.627C 484.765 463.627 485.015 477.877 486.015 492.127C 486.14 491.877 486.265 491.627 486.39 491.377C 486.39 494.002 488.515 496.252 491.265 496.252C 494.015 496.252 496.14 494.002 496.14 491.377C 498.39 477.752 494.765 464.127 492.89 450.752L 489.39 442.252C 488.89 441.377 488.14 440.752 487.39 440.252L 485.14 439.002C 484.64 438.752 484.265 438.627 483.765 438.502L 481.765 437.877C 479.89 437.377 477.765 438.002 476.515 439.502L 471.89 444.877C 462.265 470.877 464.14 502.002 480.64 525.752C 483.89 530.377 491.14 528.502 496.015 526.377C 507.14 521.502 509.765 508.377 512.39 497.752C 518.14 474.877 516.14 451.127 508.39 429.377C 505.64 421.752 496.015 418.877 491.14 411.002C 482.265 396.252 487.89 381.627 495.765 368.127C 497.89 364.502 496.64 360.002 496.14 355.877C 496.14 355.377 495.765 355.002 495.265 355.002C 494.765 355.002 494.39 355.377 494.39 355.877L 494.39 355.877z"/>
<path fill="#ffbf7f" stroke="none" d="M 48.7648 459.002C 55.2648 467.502 64.0148 473.752 74.1398 477.002C 75.6398 478.002 77.7648 477.502 78.6398 475.877C 79.6398 474.377 79.1398 472.252 77.5148 471.377C 68.6398 466.127 60.1398 459.877 49.7648 457.502C 49.2648 457.252 48.7648 457.377 48.5148 457.752C 48.2648 458.252 48.3898 458.752 48.7648 459.002L 48.7648 459.002z"/>
<path fill="#ffffff" stroke-width="1" stroke="#7f7f7f" d="M 83.2648 462.383C 81.6398 443.896 85.1398 425.246 81.2648 406.922C 80.8898 404.141 78.7648 402.178 76.5148 402.832C 74.2648 403.323 72.8898 406.104 73.2648 409.049C 75.3898 427.045 78.3898 444.878 81.6398 462.711C 81.7648 463.365 82.1398 463.692 82.6398 463.692C 83.0148 463.529 83.2648 463.038 83.2648 462.383L 83.2648 462.383z"/>
<path fill="#ffffff" stroke-width="1" stroke="#7f7f7f" d="M 85.3065 463.065C 90.0565 449.977 94.9315 437.052 101.681 425.6C 103.056 422.655 102.306 418.729 100.056 416.929C 97.8065 415.129 94.8065 416.111 93.4315 419.056C 87.9315 432.635 86.4315 447.686 83.4315 462.247C 83.3065 462.901 83.5565 463.72 84.0565 463.883C 84.5565 464.047 85.1815 463.72 85.3065 463.065L 85.3065 463.065z"/>
<path fill="#ffffff" stroke-width="1" stroke="#7f7f7f" d="M 85.9315 462.383C 96.6815 460.911 103.556 449.459 112.806 444.223C 115.556 442.26 116.556 437.679 115.056 434.244C 113.556 430.644 110.181 429.172 107.431 431.135C 97.8065 437.516 89.8065 447.823 84.6815 460.093C 84.3065 460.584 84.1815 461.402 84.4315 462.056C 84.8065 462.547 85.4315 462.711 85.9315 462.383L 85.9315 462.383z"/>
<path fill="#ffffff" stroke-width="1" stroke="#7f7f7f" d="M 85.2648 465.874C 88.0148 476.344 98.5148 476.181 104.89 481.743C 107.64 483.706 111.015 482.234 112.39 478.798C 113.89 475.199 112.765 470.782 110.015 468.818L 110.515 470.291C 103.64 463.256 93.6398 459.166 85.7648 463.91C 85.3898 463.747 84.8898 463.91 84.7648 464.565C 84.6398 465.056 84.7648 465.71 85.2648 465.874L 85.2648 465.874z"/>
<path fill="#ffffff" stroke-width="1" stroke="#7f7f7f" d="M 82.8273 465.901C 87.8273 481.934 89.2023 501.239 100.077 512.855C 101.327 515.636 104.077 516.454 106.202 514.818C 108.202 513.182 108.952 509.583 107.577 506.802L 107.202 507.292C 107.202 496.495 99.4523 490.441 93.4523 484.224C 88.7023 479.316 86.7023 472.118 84.2023 465.246C 84.0773 464.756 83.7023 464.428 83.3273 464.592C 82.9523 464.919 82.7023 465.41 82.8273 465.901L 82.8273 465.901z"/>
<path fill="#ffffff" stroke-width="1" stroke="#7f7f7f" d="M 81.5356 466.501C 79.6606 473.536 81.9106 479.753 75.6606 488.096C 71.1606 493.986 70.7856 504.293 70.7856 513.455C 69.9106 516.236 70.9106 519.344 72.9106 520.49C 74.9106 521.471 77.2856 520.326 78.1606 517.545C 79.5356 516.4 81.6606 515.582 81.9106 513.946C 84.7856 497.912 86.0356 482.37 83.0356 466.501C 83.0356 466.01 82.6606 465.519 82.2856 465.519C 81.9106 465.519 81.5356 466.01 81.5356 466.501L 81.5356 466.501z"/>
<path fill="#ffffff" stroke-width="1" stroke="#7f7f7f" d="M 81.3273 465.465C 73.9523 484.442 57.2023 489.187 45.9523 502.93C 44.3273 504.566 43.9523 507.511 45.2023 509.637C 46.3273 511.764 48.7023 512.255 50.3273 510.783C 65.7023 503.093 75.9523 485.424 82.3273 466.283C 82.4523 465.955 82.4523 465.465 82.2023 465.301C 81.9523 464.974 81.5773 465.137 81.3273 465.465L 81.3273 465.465z"/>
<path fill="#ffffff" stroke-width="1" stroke="#7f7f7f" d="M 80.7023 463.665C 72.9523 466.283 64.8273 469.064 56.8273 466.61C 55.4523 464.483 53.0773 464.156 51.4523 465.955C 49.8273 467.755 49.7023 470.863 51.0773 472.99L 52.2023 478.88C 62.8273 486.569 72.5773 472.172 81.3273 465.465C 81.7023 465.137 81.9523 464.647 81.7023 464.156C 81.5773 463.665 81.0773 463.338 80.7023 463.665L 80.7023 463.665z"/>
<path fill="#ffffff" stroke-width="1" stroke="#7f7f7f" d="M 80.2648 461.511C 74.2648 450.713 61.6398 450.549 53.2648 443.187C 50.6398 441.224 47.2648 442.533 45.7648 446.132C 44.2648 449.568 45.2648 453.985 48.0148 455.948C 56.6398 462.492 68.8898 462.82 79.3898 463.801C 79.8898 463.965 80.3898 463.801 80.6398 463.147C 80.8898 462.656 80.6398 461.838 80.2648 461.511L 80.2648 461.511z"/>
<path fill="#ffffff" stroke-width="1" stroke="#7f7f7f" d="M 231.332 248.492C 237.134 234.983 240.035 218.706 243.464 202.917C 244.079 199.825 243.288 196.244 241.53 194.942C 239.859 193.802 237.925 195.267 237.222 198.523C 233.354 213.823 231.245 230.913 230.278 247.841C 230.19 248.329 230.278 248.981 230.629 249.143C 230.893 249.306 231.245 249.143 231.332 248.492L 231.332 248.492z"/>
<path fill="#ffffff" stroke-width="1" stroke="#7f7f7f" d="M 232.563 250.934C 241.442 248.818 251.199 242.958 257.353 230.913C 258.583 228.96 258.847 225.542 257.792 223.263C 256.825 220.822 254.891 220.496 253.661 222.287C 245.397 228.146 238.365 237.587 231.86 248.492C 231.508 248.818 231.42 249.632 231.596 250.283C 231.772 250.934 232.124 251.259 232.563 250.934L 232.563 250.934z"/>
<path fill="#ffffff" stroke-width="1" stroke="#7f7f7f" d="M 233.003 254.189C 237.662 265.42 245.749 266.071 252.43 270.954C 254.628 272.093 256.913 269.652 257.529 265.583C 258.144 261.514 256.825 257.282 254.628 256.142L 255.331 258.421C 248.738 249.469 241.09 253.864 233.706 251.585C 233.266 251.259 232.827 251.585 232.651 252.236C 232.475 252.887 232.651 253.864 233.003 254.189L 233.003 254.189z"/>
<path fill="#ffffff" stroke-width="1" stroke="#7f7f7f" d="M 231.684 255.817C 233.266 275.186 233.354 295.206 238.453 313.274C 239.596 317.017 242.057 318.157 244.079 316.041C 246.013 313.925 246.716 309.367 245.573 305.624C 241.178 288.859 239.068 269.977 232.739 255.003C 232.563 254.515 232.212 254.352 231.948 254.515C 231.684 254.84 231.596 255.328 231.684 255.817L 231.684 255.817z"/>
<path fill="#ffffff" stroke-width="1" stroke="#7f7f7f" d="M 230.19 249.143C 226.586 269.815 223.509 290.812 221.575 312.134C 220.52 315.878 221.223 320.435 223.245 322.551C 225.267 324.505 227.816 323.202 228.871 319.459C 230.805 296.671 237.31 271.442 231.42 249.143C 231.42 248.492 231.157 248.004 230.805 248.004C 230.453 248.004 230.19 248.492 230.19 249.143L 230.19 249.143z"/>
<path fill="#ffffff" stroke-width="1" stroke="#7f7f7f" d="M 229.047 252.887C 223.157 266.071 214.542 272.907 207.422 283.324C 207.774 282.836 208.125 282.185 208.477 281.697C 206.807 282.185 205.752 284.952 205.928 287.882C 206.191 290.812 207.686 292.928 209.268 292.602C 210.059 293.742 211.114 295.695 211.378 295.369C 219.465 284.138 225.355 270.14 229.75 253.864C 229.838 253.375 229.838 253.05 229.662 252.724C 229.399 252.561 229.223 252.561 229.047 252.887L 229.047 252.887z"/>
<path fill="#ffffff" stroke-width="1" stroke="#7f7f7f" d="M 228.519 248.329C 220.872 248.167 213.575 252.236 206.103 250.771C 206.279 250.608 206.367 250.283 206.543 250.12C 204.345 249.306 202.236 252.073 201.796 256.142C 201.444 260.374 202.939 264.281 205.136 264.932C 213.751 269.164 222.366 258.909 229.135 250.12C 229.486 249.794 229.486 249.143 229.311 248.655C 229.135 248.004 228.783 248.004 228.519 248.329L 228.519 248.329z"/>
<path fill="#ffffff" stroke-width="1" stroke="#7f7f7f" d="M 230.893 247.353C 223.685 241.33 219.289 228.146 211.993 222.287C 210.059 220.496 207.686 221.961 206.719 225.705C 205.752 229.448 206.631 233.843 208.565 235.634C 215.07 243.609 222.718 251.748 230.717 248.981C 230.981 248.981 231.157 248.655 231.245 248.329C 231.245 247.841 231.069 247.516 230.893 247.353L 230.893 247.353z"/>
<path fill="#ffffff" stroke-width="1" stroke="#7f7f7f" d="M 229.399 238.563C 228.519 223.752 226.586 209.428 223.245 195.918C 222.63 192.175 220.608 190.059 218.586 191.198C 216.564 192.175 215.421 196.081 215.949 199.825C 218.586 214.474 226.146 223.752 228.256 239.052C 228.344 239.54 228.607 239.866 228.959 239.866C 229.223 239.703 229.486 239.214 229.399 238.563L 229.399 238.563z"/>
<path fill="#ffffff" stroke-width="1" stroke="#7f7f7f" d="M 453.668 92.6845C 461.399 88.7798 467.373 76.0474 470.448 61.9567C 471.151 60.0891 470.975 57.5427 470.009 56.3542C 469.043 54.9962 467.725 55.3356 467.022 57.2031C 462.014 67.8984 457.533 79.6124 452.174 89.7985C 451.559 90.9868 451.559 93.024 452.174 94.2125C 452.789 95.4008 453.843 95.4008 454.458 94.2125L 453.668 92.6845z"/>
<path fill="#ffffff" stroke-width="1" stroke="#7f7f7f" d="M 458.676 98.6263C 466.407 100.154 474.138 98.9659 481.782 97.0984C 483.275 97.0984 484.417 94.8914 484.417 92.0054C 484.417 89.1194 483.275 86.9124 481.782 86.9124C 473.611 82.1589 465.616 88.4403 458.676 96.2496C 458.324 96.2496 458.061 96.7589 458.061 97.438C 458.061 98.1171 458.324 98.6263 458.676 98.6263L 458.676 98.6263z"/>
<path fill="#ffffff" stroke-width="1" stroke="#7f7f7f" d="M 457.182 97.6077C 456.216 101.682 456.391 105.757 457.358 109.661L 457.621 112.038C 457.885 113.226 458.412 114.075 459.115 114.585L 459.73 115.094C 464.298 123.243 468.867 131.731 474.841 136.145C 476.598 138.352 478.97 137.164 480.113 133.768C 481.167 130.203 480.64 125.619 478.795 123.412C 474.226 117.301 468.867 113.905 464.474 107.115L 460.96 104.908L 462.453 107.454L 461.487 103.55C 459.818 102.531 458.676 100.324 457.885 97.2682C 457.885 96.7589 457.621 96.5891 457.446 96.7589C 457.182 96.7589 457.094 97.2682 457.182 97.6077L 457.182 97.6077z"/>
<path fill="#ffffff" stroke-width="1" stroke="#7f7f7f" d="M 454.898 104.229C 456.567 121.205 457.27 138.691 460.169 155.159C 460.872 159.403 463.156 161.61 465.265 160.252C 467.461 158.894 468.603 154.31 467.9 150.236L 466.934 151.933C 467.022 142.596 465.792 133.259 462.717 126.638C 459.466 119.508 458.061 111.189 455.688 103.719C 455.601 103.21 455.337 103.04 455.161 103.21C 454.898 103.38 454.81 103.889 454.898 104.229L 454.898 104.229z"/>
<path fill="#ffffff" stroke-width="1" stroke="#7f7f7f" d="M 455.161 103.38C 449.363 116.791 446.991 133.768 442.774 148.878C 442.071 152.782 443.125 157.196 445.146 158.554C 447.166 159.912 449.363 157.875 450.154 153.971C 454.898 138.691 454.458 121.545 456.04 104.568C 456.128 104.059 456.128 103.38 455.864 103.04C 455.601 102.871 455.249 102.871 455.161 103.38L 455.161 103.38z"/>
<path fill="#ffffff" stroke-width="1" stroke="#7f7f7f" d="M 454.371 99.3054C 447.342 104.908 439.347 106.436 433.461 116.961C 431.879 118.829 431.44 122.903 432.494 125.959C 433.549 129.015 435.657 129.864 437.151 127.826C 444.355 123.243 450.768 113.226 455.073 101.003C 455.249 100.494 455.337 99.9846 455.161 99.4752C 454.898 99.1356 454.634 98.9659 454.371 99.3054L 454.371 99.3054z"/>
<path fill="#ffffff" stroke-width="1" stroke="#7f7f7f" d="M 457.006 93.7031C 450.154 87.0822 442.51 83.0078 434.867 87.252C 433.461 87.252 432.407 89.4589 432.319 92.0054C 432.319 94.5519 433.461 96.7589 434.779 96.7589C 442.159 98.7961 450.154 104.738 457.006 95.7404C 457.27 95.7404 457.533 95.4008 457.533 94.7217C 457.533 94.0427 457.27 93.7031 457.006 93.7031L 457.006 93.7031z"/>
<path fill="#ffffff" stroke-width="1" stroke="#7f7f7f" d="M 457.533 90.1381C 455.337 80.2916 453.843 69.9356 450.856 60.7682C 450.066 57.7125 448.221 56.524 446.639 57.8823C 445.058 59.4102 444.443 62.9752 445.146 66.031L 445.321 65.3519C 446.551 77.0659 452.438 83.6868 456.391 91.8356C 456.655 92.3449 457.094 92.5147 457.446 92.0054C 457.709 91.4962 457.797 90.6473 457.533 90.1381L 457.533 90.1381z"/>
<path fill="#ffbf7f" stroke="none" d="M 537.765 561.752C 537.765 561.752 520.265 559.752 513.765 563.752C 507.265 567.752 503.265 570.252 507.265 573.752C 511.265 577.252 529.265 580.752 529.265 580.752L 517.765 591.752L 588.765 602.252L 594.765 591.752C 594.765 591.752 612.765 591.752 616.765 587.252C 620.765 582.752 625.265 579.252 619.265 576.252C 613.265 573.252 593.765 567.252 588.765 569.252C 583.765 571.252 570.765 574.252 570.765 574.252L 558.265 572.252C 558.265 572.252 551.265 564.252 547.765 563.752C 544.265 563.252 537.765 561.752 537.765 561.752z"/>
<path fill="#bfbfbf" stroke="none" d="M 585.548 625.981C 598.719 628.596 609.717 626.808 610.113 621.987C 610.508 617.167 600.152 611.139 586.981 608.524C 573.81 605.908 562.812 607.696 562.417 612.517C 562.021 617.338 572.378 623.366 585.548 625.981z"/>
<path fill="#bfbfbf" stroke="none" d="M 546.765 621.752L 583.265 631.252L 584.765 627.752L 544.765 615.752"/>
<path fill="none" stroke-width="2" stroke="#bfbfbf" d="M 582.765 628.752L 610.113 621.987L 562.417 612.517L 582.765 628.752z"/>
<path fill="#bfdfff" stroke="none" d="M 158.598 832.252C 158.598 832.252 169.931 816.252 171.265 806.919C 172.598 797.585 169.265 783.585 165.931 778.252C 162.598 772.919 158.598 768.919 158.598 768.919C 158.598 768.919 148.598 769.585 149.931 764.919C 151.265 760.252 153.265 752.919 161.265 750.919C 169.265 748.919 174.598 742.252 186.598 746.252C 198.598 750.252 219.931 762.919 223.931 770.919C 227.931 778.919 238.598 796.919 236.598 800.919C 234.598 804.919 233.931 801.585 232.598 808.919C 231.265 816.252 227.931 828.919 228.598 834.919C 229.265 840.919 158.598 832.252 158.598 832.252z"/>
<path fill="#ffffff" stroke="none" d="M 167.265 768.919C 167.265 768.919 183.931 773.585 188.598 780.919C 193.265 788.252 207.265 798.252 213.931 802.252C 220.598 806.252 229.265 814.919 232.598 808.919C 235.931 802.919 237.265 793.585 232.598 786.919C 227.931 780.252 221.265 764.919 217.265 762.252C 213.265 759.585 195.931 748.919 191.265 747.585C 186.598 746.252 177.265 742.919 169.265 746.919C 161.265 750.919 153.931 754.252 151.931 759.585C 149.931 764.919 147.931 768.919 155.931 768.252C 163.931 767.585 167.265 768.919 167.265 768.919z"/>
<path fill="#ffffff" stroke="none" d="M 179.973 798.585C 177.848 809.96 170.431 819.21 165.848 829.627C 165.515 831.502 166.765 833.335 168.64 833.669C 170.556 834.002 172.348 832.752 172.681 830.835L 171.848 830.71C 172.39 830.21 173.14 829.794 173.39 829.169C 173.515 828.794 173.015 828.169 173.14 827.794C 176.598 818.169 182.765 809.252 181.223 798.71C 181.265 798.377 181.015 798.085 180.681 798.044C 180.348 798.002 180.015 798.21 179.973 798.585L 179.973 798.585z"/>
<path fill="#ffffff" stroke="none" d="M 206.181 806.669C 209.181 812.002 217.14 814.46 215.223 821.835L 215.14 822.085L 215.848 819.96L 215.556 820.294C 211.89 822.627 212.015 827.252 213.098 830.877C 213.306 830.71 213.556 830.585 213.765 830.419C 213.89 832.335 215.515 833.835 217.431 833.71C 219.39 833.627 220.848 831.96 220.765 830.044L 221.765 829.044C 221.723 828.169 221.723 827.752 220.306 826.544C 219.89 826.169 220.806 824.794 221.473 823.919L 221.348 824.127C 221.806 823.502 222.056 822.752 222.056 822.002L 222.056 820.919C 221.056 817.752 220.056 814.752 218.056 811.877C 215.39 808.085 210.556 808.585 207.306 805.835C 207.056 805.502 206.598 805.46 206.306 805.71C 206.015 805.919 205.931 806.377 206.181 806.669L 206.181 806.669z"/>
<path fill="#ffffff" stroke="none" d="M 175.556 779.419C 175.515 780.544 175.556 781.627 175.723 782.752C 175.765 782.627 175.765 782.544 175.806 782.419C 175.973 783.002 176.598 783.335 177.181 783.169C 177.765 783.002 178.098 782.377 177.931 781.794C 177.515 780.96 177.181 780.085 176.848 779.21C 176.765 778.835 176.431 778.627 176.098 778.669C 175.723 778.752 175.515 779.085 175.556 779.419L 175.556 779.419z"/>
<path fill="#bfbfbf" stroke="none" d="M 189.806 758.085C 190.89 759.877 192.556 761.96 191.848 763.71C 191.223 765.21 190.515 766.96 190.64 768.627C 190.89 772.252 190.473 775.96 192.765 779.085C 192.848 781.21 194.681 782.877 196.806 782.752C 198.931 782.669 200.556 780.835 200.431 778.71C 200.473 776.669 199.39 774.669 198.848 772.877C 197.765 769.377 197.015 765.794 196.098 762.085C 195.515 759.669 192.973 758.377 190.848 757.085C 190.598 756.794 190.14 756.794 189.848 757.044C 189.556 757.335 189.515 757.794 189.806 758.085L 189.806 758.085z"/>
<path fill="#dfdfbf" stroke="none" d="M 321.058 813.464L 270.195 759.971L 331.695 739.471L 369.327 767.167"/>
<path fill="#ffffff" stroke="none" d="M 369.327 767.167L 394.195 785.471L 328.195 820.971L 321.058 813.464L 369.327 767.167z"/>
<path fill="#bfbf7f" stroke="none" d="M 358.196 777.657C 351.764 778.977 345.747 782.027 341.883 787.502C 339.32 788.658 336.695 787.252 333.883 787.814C 332.914 788.033 332.101 788.346 331.445 788.971C 329.32 791.064 329.32 794.596 326.633 796.221C 322.289 796.064 316.883 797.221 316.226 802.439C 316.039 802.877 316.226 803.377 316.664 803.564C 317.101 803.721 317.601 803.533 317.789 803.096L 317.789 803.096C 318.414 801.814 319.101 800.471 320.383 799.877C 323.57 798.471 327.414 800.502 330.133 797.533C 331.851 795.689 332.726 793.439 333.914 791.314C 336.633 791.002 339.226 792.002 342.07 791.408C 343.133 791.189 344.07 790.783 344.664 789.971C 346.505 787.483 348.748 785.617 351.233 784.244"/>
<path fill="#dfdfbf" stroke="none" d="M 351.233 784.244C 356.552 781.305 362.981 780.63 368.945 780.971L 369.789 781.252C 370.383 781.564 371.101 781.564 371.726 781.252L 372.32 780.908C 373.008 780.408 373.976 780.346 374.445 779.533C 375.289 779.127 375.664 778.096 375.258 777.221C 374.82 776.346 373.789 776.002 372.914 776.408C 372.476 776.502 372.07 776.627 371.633 776.721L 369.789 777.689L 370.851 777.439L 368.945 776.939C 365.431 776.728 361.75 776.928 358.196 777.657"/>
<path fill="#bfbf7f" stroke="none" d="M 330.398 804.365C 330.984 807.15 331.554 809.939 332.633 812.596C 332.976 813.439 333.945 813.846 334.82 813.502C 335.664 813.158 336.07 812.189 335.726 811.346C 334.708 808.187 334.119 804.894 333.332 801.674"/>
<path fill="#9f9f3f" stroke="none" d="M 333.332 801.674C 332.694 799.064 331.926 796.502 330.695 794.096C 325.133 788.627 320.945 781.939 314.758 777.127C 314.445 776.814 313.976 776.814 313.664 777.127C 313.351 777.408 313.351 777.908 313.633 778.221L 313.633 778.221C 318.539 784.127 322.82 790.533 328.07 796.158C 329.211 798.799 329.812 801.58 330.398 804.365"/>
<path fill="#bfbf7f" stroke="none" d="M 337.955 797.246C 341.529 798.646 345.216 799.813 349.008 800.877C 350.351 801.252 351.289 802.502 352.508 803.252C 353.226 803.908 354.32 803.877 354.976 803.158C 355.633 802.439 355.601 801.346 354.883 800.689C 353.82 799.377 352.383 798.439 350.914 797.908C 347.508 796.642 344.031 795.689 340.554 794.752"/>
<path fill="#9f9f3f" stroke="none" d="M 340.554 794.752C 337.078 793.814 333.601 792.892 330.195 791.689C 329.758 791.471 329.226 791.627 329.008 792.064C 328.789 792.502 328.976 793.033 329.383 793.252L 329.383 793.252C 332.159 794.788 335.019 796.096 337.955 797.246"/>
<path fill="#bfbf7f" stroke="none" d="M 351.251 784.239C 352.324 788.076 352.727 792.087 354.237 795.808C 354.547 796.567 355.418 796.933 356.206 796.623C 356.965 796.314 357.331 795.442 357.022 794.683C 355.691 790.557 355.175 786.178 353.747 782.111"/>
<path fill="#9f9f3f" stroke="none" d="M 353.747 782.111C 353.394 781.105 352.984 780.118 352.494 779.158C 347.487 774.236 343.719 768.217 338.15 763.886C 337.869 763.605 337.447 763.605 337.165 763.886C 336.884 764.139 336.884 764.589 337.137 764.871L 337.137 764.871C 341.553 770.186 345.406 775.952 350.131 781.014C 350.586 782.068 350.946 783.146 351.251 784.239"/>
<path fill="#bfbf7f" stroke="none" d="M 355.206 780.368C 359.596 782.395 364.194 783.92 368.975 785.261C 370.184 785.599 371.028 786.724 372.125 787.399C 372.771 787.989 373.756 787.961 374.346 787.314C 374.937 786.667 374.909 785.683 374.262 785.092C 373.306 783.911 372.012 783.067 370.69 782.589C 366.227 780.931 361.629 779.868 357.092 778.578"/>
<path fill="#9f9f3f" stroke="none" d="M 357.092 778.578C 355.397 778.095 353.711 777.581 352.043 776.992C 351.65 776.795 351.172 776.936 350.975 777.33C 350.778 777.724 350.947 778.202 351.312 778.399L 351.312 778.399C 352.591 779.106 353.889 779.76 355.206 780.368"/>
<path fill="#9f9f3f" stroke="none" d="M 306.695 790.783C 311.133 789.939 314.601 786.846 318.539 784.877C 319.32 784.408 319.539 783.377 319.07 782.627C 318.601 781.846 317.601 781.596 316.82 782.064C 313.07 784.158 309.57 786.658 306.07 789.158C 305.633 789.346 305.414 789.846 305.601 790.283C 305.758 790.721 306.258 790.939 306.695 790.783L 306.695 790.783z"/>
<path fill="#9f9f3f" stroke="none" d="M 323.07 785.564C 326.226 785.252 328.57 783.064 331.351 781.846C 332.101 781.596 332.508 780.783 332.258 780.002C 332.008 779.252 331.195 778.846 330.445 779.096C 327.508 780.252 325.508 782.877 322.539 783.971C 322.101 784.127 321.851 784.596 322.008 785.033C 322.164 785.471 322.633 785.689 323.07 785.564L 323.07 785.564z"/>
<path fill="#9f9f3f" stroke="none" d="M 330.894 776.177C 334.887 775.417 338.009 772.633 341.553 770.861C 342.256 770.439 342.453 769.511 342.031 768.836C 341.609 768.133 340.709 767.908 340.006 768.33C 336.631 770.214 333.481 772.464 330.331 774.714C 329.937 774.883 329.741 775.333 329.909 775.727C 330.05 776.121 330.5 776.317 330.894 776.177L 330.894 776.177z"/>
<path fill="#9f9f3f" stroke="none" d="M 345.631 771.48C 348.472 771.199 350.581 769.23 353.084 768.133C 353.759 767.908 354.125 767.177 353.9 766.474C 353.675 765.799 352.944 765.433 352.269 765.658C 349.625 766.699 347.825 769.061 345.153 770.046C 344.759 770.186 344.534 770.608 344.675 771.002C 344.815 771.396 345.237 771.592 345.631 771.48L 345.631 771.48z"/>
<path fill="#bfbf7f" stroke="none" d="M 301.945 770.627C 302.226 772.158 302.914 773.533 303.508 774.971L 303.82 776.314C 303.945 776.564 304.133 776.783 304.414 776.908L 304.508 776.971L 304.508 776.971L 304.601 777.002L 303.914 776.158L 303.945 776.377L 303.945 776.377L 303.976 776.502C 304.039 776.846 304.258 777.158 304.57 777.314L 305.258 777.596C 307.851 778.002 309.851 776.283 312.039 775.283L 312.226 775.189C 312.851 774.877 313.133 774.127 312.851 773.471L 312.476 772.814C 312.476 773.002 312.445 773.221 312.445 773.408C 311.883 772.564 311.445 771.596 310.758 770.814C 310.383 770.221 309.633 770.033 309.039 770.408C 308.445 770.783 308.258 771.533 308.633 772.127C 308.726 772.471 308.851 772.814 308.945 773.158L 310.383 774.533L 311.008 772.846L 309.664 773.471C 308.914 774.221 307.945 774.502 307.008 774.846L 305.758 775.221L 306.351 776.033L 306.32 775.908L 306.32 775.908L 306.258 775.689C 306.164 775.314 305.914 775.002 305.57 774.846L 305.508 774.814L 305.508 774.814L 305.383 774.783L 305.383 774.783L 305.82 774.939C 305.008 773.346 304.07 771.814 303.445 770.127C 303.32 769.721 302.883 769.502 302.445 769.627C 302.039 769.752 301.82 770.189 301.945 770.627L 301.945 770.627z"/>
<path fill="#bfbf7f" stroke="none" d="M 328.976 757.658C 329.258 756.971 329.601 756.346 330.039 755.752L 330.133 755.752L 329.351 756.252L 330.539 756.283L 329.258 755.846L 329.414 756.033C 329.976 756.502 330.508 756.939 331.07 757.408L 330.789 757.408C 330.976 757.814 331.32 758.096 331.726 758.221L 331.976 758.283C 332.976 758.377 333.976 758.596 334.976 758.564L 335.445 758.564L 334.195 758.002L 334.351 758.189C 334.508 758.377 334.664 758.502 334.883 758.627L 335.258 758.814L 334.539 758.096L 334.508 757.814C 334.695 758.596 334.851 759.346 335.039 760.127L 335.008 760.408L 335.351 759.377L 335.039 759.814C 334.914 759.971 334.789 760.158 334.664 760.314C 333.976 760.596 333.664 761.408 333.945 762.096C 334.226 762.783 335.039 763.127 335.726 762.846L 336.726 762.877C 337.101 762.502 337.445 762.096 337.82 761.721L 338.039 761.408C 338.258 761.096 338.383 760.752 338.383 760.377L 338.289 758.908C 338.133 758.283 337.82 757.752 337.57 757.158L 337.445 756.627C 337.289 756.314 337.039 756.064 336.726 755.908L 336.32 755.721L 336.851 756.158L 336.664 755.939C 336.383 755.596 335.914 755.377 335.445 755.377L 334.414 755.377L 334.445 755.408C 334.133 755.564 333.851 755.721 333.539 755.877L 332.508 755.408L 333.476 756.221L 332.508 754.908C 332.539 754.939 332.539 754.971 332.57 755.002C 332.289 754.814 332.008 754.627 331.726 754.439L 331.289 754.096C 331.039 753.814 330.664 753.627 330.258 753.627L 329.351 753.689C 329.164 753.814 328.945 753.908 328.758 754.033L 328.883 753.908C 328.57 753.971 328.289 754.158 328.101 754.439L 327.414 755.627C 327.445 755.627 327.476 755.627 327.508 755.627C 327.414 756.158 327.32 756.689 327.226 757.221C 327.101 757.752 327.414 758.314 327.945 758.439C 328.476 758.564 329.039 758.252 329.164 757.721L 328.976 757.658z"/>
<path fill="#9f9f3f" stroke="none" d="M 303.414 764.752C 299.383 766.002 298.133 770.814 299.445 774.658L 299.414 775.471C 299.445 775.689 299.539 775.908 299.664 776.064L 299.883 776.346C 300.383 777.689 301.289 778.752 302.445 779.564L 303.789 780.252L 303.57 780.221L 304.633 780.408C 308.633 779.752 314.289 780.596 316.133 776.033C 316.883 774.158 317.601 772.127 317.164 770.158C 315.945 764.877 310.133 764.002 305.601 762.814C 304.695 762.658 303.82 763.283 303.664 764.221C 303.508 765.127 304.133 766.002 305.07 766.158L 305.039 766.064C 308.164 767.658 313.445 767.189 313.976 771.314C 314.445 775.189 311.07 777.252 307.351 777.002L 304.445 777.314L 305.101 777.752L 303.664 776.783C 303.633 776.814 303.633 776.814 303.601 776.846C 303.32 776.533 303.008 776.189 302.726 775.877L 301.695 774.533L 301.945 775.252L 301.758 773.721C 301.758 773.752 301.726 773.752 301.726 773.783C 300.758 771.002 301.383 767.783 303.976 766.189C 304.383 766.033 304.57 765.596 304.414 765.189C 304.258 764.783 303.82 764.596 303.414 764.752L 303.414 764.752z"/>
<path fill="#9f9f3f" stroke="none" d="M 327.941 752.749C 324.312 753.874 323.187 758.205 324.369 761.664L 324.341 762.396C 324.369 762.592 324.453 762.789 324.566 762.93L 324.762 763.183C 325.212 764.392 326.028 765.349 327.069 766.08L 328.278 766.699L 328.081 766.671L 329.037 766.839C 332.637 766.249 337.728 767.008 339.387 762.902C 340.062 761.214 340.709 759.386 340.315 757.614C 339.219 752.861 333.987 752.074 329.909 751.005C 329.094 750.864 328.306 751.427 328.166 752.271C 328.025 753.086 328.587 753.874 329.431 754.014L 329.403 753.93C 332.216 755.364 336.969 754.943 337.447 758.655C 337.869 762.142 334.831 763.999 331.484 763.774L 328.869 764.055L 329.459 764.449L 328.166 763.577C 328.137 763.605 328.137 763.605 328.109 763.633C 327.856 763.352 327.575 763.042 327.322 762.761L 326.394 761.552L 326.619 762.199L 326.45 760.821C 326.45 760.849 326.422 760.849 326.422 760.877C 325.55 758.374 326.112 755.477 328.447 754.043C 328.812 753.902 328.981 753.508 328.841 753.143C 328.7 752.777 328.306 752.608 327.941 752.749L 327.941 752.749z"/>
</g>
<g>
<path fill="none" stroke-width="6" stroke="#7f007f" d="M 609.265 786.252L 567.265 824.252"/>
<path fill="none" stroke-width="6" stroke="#7f007f" d="M 39.2648 758.252L 339.265 620.252L 609.265 648.252"/>
<path fill="none" stroke-width="6" stroke="#7f007f" d="M 31.4451 783.149L 166.469 805.059"/>
<path fill="none" stroke-width="6" stroke="#7f007f" d="M 265.238 821.085L 333.285 832.127"/>
<path fill="none" stroke-width="4" stroke="#7f007f" d="M 374.765 625.377L 526.765 545.377L 526.765 39.3771"/>
<path fill="none" stroke-width="4" stroke="#7f007f" d="M 526.765 545.377L 609.265 550.252"/>
<path fill="none" stroke-width="4" stroke="#7f007f" d="M 607.89 519.127L 587.89 517.127L 587.89 57.1271L 597.223 41.1271"/>
<path fill="none" stroke-width="4" stroke="#3f3fff" d="M 505.265 40.2521C 507.265 56.2521 507.265 74.2521 507.265 92.2521C 509.265 190.252 507.265 288.252 515.265 388.252C 519.415 440.125 518.265 532.252 515.265 544.252C 506.515 553.502 475.265 562.252 457.265 564.252C 457.265 568.252 453.265 568.252 453.265 570.252C 459.265 610.252 411.265 600.252 385.265 612.252C 381.265 614.252 377.265 618.252 379.265 624.252"/>
<path fill="none" stroke-width="4" stroke="#3f3fff" d="M 453.265 576.252C 453.265 572.252 457.265 568.252 457.265 564.252C 451.265 476.252 437.265 386.252 439.265 298.252"/>
<path fill="none" stroke-width="4" stroke="#3f3fff" d="M 327.265 126.252C 335.265 230.252 335.265 334.252 331.265 438.252"/>
<path fill="none" stroke-width="4" stroke="#3f3fff" d="M 245.265 262.252C 233.265 394.252 239.265 526.252 237.265 658.252"/>
<path fill="none" stroke-width="4" stroke="#3f3fff" d="M 111.265 80.2521C 107.265 218.252 123.265 354.252 121.265 492.252"/>
<path fill="none" stroke-width="4" stroke="#3f3fff" d="M 379.265 612.252C 369.265 546.252 379.265 478.252 373.265 412.252"/>
<path fill="none" stroke-width="4" stroke="#3f3fff" d="M 321.265 628.252C 317.265 434.252 311.265 242.252 309.265 48.2521"/>
<path fill="none" stroke-width="4" stroke="#3f3fff" d="M 303.265 634.252C 303.265 590.252 297.265 544.252 295.265 500.252C 295.265 370.252 289.265 242.252 293.265 112.252C 293.265 90.2521 297.265 66.2521 299.265 44.2521"/>
<path fill="none" stroke-width="4" stroke="#ff7f00" d="M 560.658 574.357L 568.707 575.23"/>
<path fill="none" stroke-width="4" stroke="#ff7f00" d="M 594.588 590.914L 589.265 602.919L 515.931 592.919L 529.678 583.223"/>
<path fill="none" stroke-width="4" stroke="#ff7f00" d="M 531.598 581.152C 545.917 581.152 557.525 576.719 557.525 571.252C 557.525 565.785 545.917 561.353 531.598 561.353C 517.279 561.353 505.671 565.785 505.671 571.252C 505.671 576.719 517.279 581.152 531.598 581.152z"/>
<path fill="none" stroke-width="4" stroke="#ff7f00" d="M 594.306 590.589C 608.625 590.589 620.234 586.157 620.234 580.69C 620.234 575.222 608.625 570.79 594.306 570.79C 579.987 570.79 568.379 575.222 568.379 580.69C 568.379 586.157 579.987 590.589 594.306 590.589z"/>
<path fill="none" stroke-width="4" stroke="#ff7f00" d="M 560.598 584.919L 560.598 535.585L 525.265 537.585L 599.265 539.585L 560.598 535.585"/>
<path fill="none" stroke-width="2" stroke="#ff7f00" d="M 509.931 565.585L 531.931 538.252L 557.525 571.252"/>
<path fill="none" stroke-width="2" stroke="#ff7f00" d="M 568.598 578.252L 594.598 539.585L 620.234 580.69"/>
<path fill="none" stroke-width="4" stroke="#007fff" d="M 165.765 749.065C 179.765 745.065 186.265 745.065 205.265 755.065C 222.963 764.38 229.265 784.565 229.265 784.565C 229.265 784.565 247.702 812.704 223.265 807.065C 210.265 804.065 190.265 784.065 179.265 775.565C 166.904 766.014 146.765 772.565 150.765 762.565C 154.765 752.565 165.765 749.065 165.765 749.065z"/>
<path fill="none" stroke-width="4" stroke="#007fff" d="M 152.265 768.565C 152.265 768.565 160.909 767.841 166.765 779.065C 172.765 790.565 172.265 799.065 171.765 803.565C 171.265 808.065 171.265 808.065 166.765 818.065C 166.765 818.065 161.765 823.252 159.765 830.252C 157.765 837.252 158.265 850.752 158.265 850.752"/>
<path fill="none" stroke-width="4" stroke="#007fff" d="M 234.265 806.752C 234.265 806.752 228.265 816.252 228.765 837.752"/>
<path fill="none" stroke-width="4" stroke="#007fff" d="M 220.765 822.752C 220.765 822.752 234.265 809.252 244.265 813.252C 254.265 817.252 259.765 818.252 258.765 832.752"/>
<path fill="none" stroke-width="2" stroke="#7f7f00" d="M 268.195 761.471L 328.195 821.471L 394.195 785.471L 331.195 740.471L 268.195 761.471z"/>
</g>
<g>
<path fill="#ff7f00" stroke="none" d="M 399.265 590.252L 486.265 539.252C 486.265 539.252 373.765 527.252 351.265 527.252C 328.765 527.252 298.765 516.752 279.265 524.252C 259.765 531.752 235.765 528.752 210.265 539.252C 184.765 549.752 156.265 560.252 178.765 567.752C 201.265 575.252 259.765 581.252 300.265 582.752C 340.765 584.252 399.265 590.252 399.265 590.252z"/>
<path fill="#ff7f00" stroke="none" d="M 159.265 429.752C 159.265 429.752 160.765 407.252 183.265 401.252C 205.765 395.252 231.265 390.752 247.765 392.252C 264.265 393.752 280.765 393.752 280.765 393.752L 283.765 489.752C 283.765 489.752 253.765 491.252 226.765 500.252C 199.765 509.252 174.265 510.752 169.765 515.252C 165.265 519.752 171.265 525.752 171.265 525.752L 163.765 521.252L 159.265 429.752z"/>
</g>
<g>
<path fill="none" stroke-width="6" stroke="#7f7f00" d="M 163.515 733.252C 163.515 733.252 173.515 563.252 171.515 519.252C 169.515 475.252 166.515 420.252 166.515 420.252"/>
<path fill="none" stroke-width="6" stroke="#7f7f00" d="M 376.563 529.678C 336.91 526.284 298.16 523.609 285.015 524.752C 250.515 527.752 157.515 550.252 169.515 565.252C 181.515 580.252 399.015 590.752 399.015 590.752L 481.515 539.752C 481.515 539.752 434.864 534.803 386.488 530.54"/>
<path fill="none" stroke-width="6" stroke="#7f7f00" d="M 213.424 579.935C 185.664 588.019 163.241 597.91 169.515 605.752C 181.515 620.752 399.015 631.252 399.015 631.252L 481.515 580.252C 481.515 580.252 462.171 578.2 435.48 575.6"/>
<path fill="none" stroke-width="6" stroke="#7f7f00" d="M 161.015 411.94C 158.022 402.017 163.201 389.736 187.515 383.252C 217.515 375.252 241.448 377.252 271.515 377.252C 311.515 377.252 405.204 391.404 431.515 405.252C 450.515 415.252 462.515 427.252 468.515 444.252C 477.168 468.77 475.515 493.461 475.515 541.252C 475.515 589.252 477.515 699.252 477.515 699.252"/>
<path fill="none" stroke-width="6" stroke="#7f7f00" d="M 158.181 425.919L 163.515 523.252L 171.515 527.252"/>
<path fill="none" stroke-width="6" stroke="#7f7f00" d="M 171.515 519.252C 171.515 519.252 192.848 507.919 213.515 502.585C 241.697 495.313 283.515 493.919 283.515 493.919"/>
<path fill="none" stroke-width="6" stroke="#7f7f00" d="M 170.515 413.252C 170.515 413.252 175.515 405.252 190.181 400.919C 215.474 393.446 240.181 392.252 257.515 392.252C 269.884 392.252 279.848 393.919 279.848 393.919"/>
<path fill="none" stroke-width="6" stroke="#7f7f00" d="M 278.515 378.252C 280.836 394.503 282.795 418.862 283.186 440.241"/>
<path fill="none" stroke-width="6" stroke="#7f7f00" d="M 283.306 449.255C 283.505 472.285 282.936 497.378 282.085 523.27"/>
<path fill="none" stroke-width="6" stroke="#7f7f00" d="M 279.681 588.259C 279.357 596.967 279.046 605.649 278.765 614.259"/>
<path fill="none" stroke-width="6" stroke="#7f7f00" d="M 278.483 623.281C 277.905 642.559 277.515 661.39 277.515 679.252"/>
</g>
<g>
<path fill="#3fffff" stroke="none" d="M 429.431 750.085L 504.431 690.085C 504.431 690.085 499.931 598.585 490.931 579.085C 481.931 559.585 487.931 547.585 475.931 546.085C 463.931 544.585 367.931 534.085 367.931 534.085L 265.515 534.752L 356.348 565.085L 423.431 580.585L 429.431 750.085z"/>
<path fill="#ff0000" stroke="none" d="M 373.931 433.919L 416.265 460.252L 408.265 518.585L 364.265 494.252L 373.931 433.919z"/>
<path fill="#ffffff" stroke="none" d="M 371.265 431.919L 416.598 431.585L 415.265 457.919L 371.265 431.919z"/>
<path fill="#dfdfbf" stroke="none" d="M 374.931 432.252L 415.598 432.585L 414.265 438.585L 378.598 435.585L 374.931 432.252z"/>
<path fill="#dfdfbf" stroke="none" d="M 387.598 438.919L 410.931 448.585L 410.931 453.585L 380.931 437.919L 387.598 438.919z"/>
<path fill="#bfdfff" stroke="none" d="M 117.265 235.585L 265.265 77.5854L 289.931 68.9188L 283.265 94.9188L 134.598 255.585L 117.265 235.585z"/>
<path fill="#bfdfff" stroke="none" d="M 81.2648 236.252L 96.5981 221.585L 153.265 273.585L 137.265 289.585L 81.2648 236.252z"/>
<path fill="#7fbfff" stroke="none" d="M 128.598 245.585L 211.265 158.252L 213.265 168.252L 134.598 255.585L 128.598 245.585z"/>
<path fill="#7fbfff" stroke="none" d="M 237.931 130.919L 239.931 136.252L 281.265 94.9188L 268.598 97.5854L 237.931 130.919z"/>
<path fill="#ffffff" stroke="none" d="M 159.265 196.252L 159.931 205.585L 245.931 114.919L 237.931 111.585L 159.265 196.252z"/>
<path fill="#ffffff" stroke="none" d="M 85.2648 236.919L 96.5981 234.919L 96.5981 223.585L 85.2648 236.919z"/>
<path fill="#7fbfff" stroke="none" d="M 140.598 286.919L 138.598 274.252L 153.265 273.585L 140.598 286.919z"/>
<path fill="#ffdfbf" stroke="none" d="M 79.9315 274.252L 110.598 251.585L 113.931 284.252L 89.9315 308.919L 79.9315 274.252z"/>
<path fill="#ff9f3f" stroke="none" d="M 59.2648 295.585L 69.9315 285.585L 90.5981 302.919L 79.9315 314.919L 59.2648 295.585z"/>
<path fill="#3fffff" stroke="none" d="M 117.265 312.252L 87.2648 352.252L 177.931 354.252L 117.265 312.252z"/>
<path fill="#00ffff" stroke="none" d="M 383.765 431.502L 410.765 431.502L 424.265 393.252L 383.765 431.502z"/>
<path fill="#ff9f3f" stroke="none" d="M 296.931 263.419L 283.598 240.752C 283.598 240.752 294.931 244.752 300.265 234.085C 305.598 223.419 304.931 188.085 304.931 188.085C 304.931 188.085 332.265 206.752 343.598 202.085C 354.931 197.419 376.931 176.752 376.931 176.752C 376.931 176.752 391.598 211.419 400.931 212.752C 410.265 214.085 424.931 201.419 424.931 201.419L 408.931 262.085L 296.931 263.419z"/>
<path fill="#7f7fbf" stroke="none" d="M 357.265 214.919C 357.265 214.919 312.598 224.919 305.265 240.919C 297.931 256.919 288.598 300.252 281.265 308.252C 273.931 316.252 265.265 324.252 265.265 324.252C 265.265 324.252 287.931 320.919 294.598 308.252C 301.265 295.585 309.931 268.919 309.931 268.919C 309.931 268.919 319.265 234.919 332.598 230.919C 345.931 226.919 364.598 218.252 373.931 221.585C 383.265 224.919 403.265 248.252 404.598 252.252C 405.931 256.252 405.265 229.585 405.265 229.585C 405.265 229.585 373.931 213.585 357.265 214.919z"/>
<path fill="#bfbf7f" stroke="none" d="M 314.598 256.919C 314.598 256.919 339.931 255.585 351.265 250.919C 362.598 246.252 373.931 234.919 373.931 234.919C 373.931 234.919 378.598 244.252 385.931 248.252C 393.265 252.252 407.931 264.252 407.931 264.252C 407.931 264.252 402.598 241.585 391.931 233.585C 381.265 225.585 375.931 215.585 353.931 222.252C 331.931 228.919 323.265 233.585 319.931 242.252C 316.598 250.919 314.598 256.919 314.598 256.919z"/>
<path fill="#3f3f9f" stroke="none" d="M 305.931 281.585C 305.931 281.585 297.931 307.585 289.265 313.585C 280.598 319.585 267.265 325.585 267.265 325.585C 267.265 325.585 275.265 333.585 289.931 330.252C 304.598 326.919 316.598 328.919 322.598 330.252C 328.598 331.585 343.931 335.585 359.265 341.585C 374.598 347.585 410.598 350.252 410.598 350.252C 410.598 350.252 399.931 333.585 397.265 325.585C 394.598 317.585 393.265 310.919 393.265 310.919L 305.931 281.585z"/>
<path fill="#ffccb2" stroke="none" d="M 317.265 254.919C 317.265 254.919 347.265 255.585 357.931 248.919C 368.598 242.252 373.931 234.919 373.931 234.919C 373.931 234.919 382.598 246.252 391.265 252.919C 399.931 259.585 407.265 266.919 407.265 266.919C 407.265 266.919 407.931 292.919 399.931 303.585C 391.931 314.252 366.598 335.585 342.598 325.585C 318.598 315.585 313.931 322.252 310.598 308.252C 307.265 294.252 307.931 273.585 309.265 265.585C 310.598 257.585 317.265 254.919 317.265 254.919z"/>
<path fill="#7f7f7f" stroke="none" d="M 347.265 258.919C 347.265 258.919 353.931 256.919 354.598 263.585C 355.265 270.252 358.598 278.252 353.265 279.585C 347.931 280.919 343.931 281.585 341.931 276.252C 339.931 270.919 341.931 261.585 341.931 261.585L 347.265 258.919z"/>
<path fill="#7f7f7f" stroke="none" d="M 382.598 266.919C 382.598 266.919 387.931 274.252 385.265 280.252C 382.598 286.252 379.265 294.919 375.265 287.585C 371.265 280.252 371.265 272.919 373.931 270.252C 376.598 267.585 382.598 266.919 382.598 266.919z"/>
<path fill="#3f3f3f" stroke="none" d="M 348.598 273.759C 350.03 273.759 351.191 271.965 351.191 269.752C 351.191 267.539 350.03 265.745 348.598 265.745C 347.166 265.745 346.005 267.539 346.005 269.752C 346.005 271.965 347.166 273.759 348.598 273.759z"/>
<path fill="#3f3f3f" stroke="none" d="M 380.098 280.926C 381.53 280.926 382.691 279.132 382.691 276.919C 382.691 274.706 381.53 272.912 380.098 272.912C 378.666 272.912 377.505 274.706 377.505 276.919C 377.505 279.132 378.666 280.926 380.098 280.926z"/>
<path fill="#ffffff" stroke="none" d="M 346.515 269.558C 347.882 269.558 348.99 267.817 348.99 265.669C 348.99 263.521 347.882 261.78 346.515 261.78C 345.148 261.78 344.04 263.521 344.04 265.669C 344.04 267.817 345.148 269.558 346.515 269.558z"/>
<path fill="#ffffff" stroke="none" d="M 378.431 276.788C 379.603 276.788 380.553 275.205 380.553 273.252C 380.553 271.3 379.603 269.717 378.431 269.717C 377.26 269.717 376.31 271.3 376.31 273.252C 376.31 275.205 377.26 276.788 378.431 276.788z"/>
<path fill="#000000" stroke="none" d="M 374.104 190.435C 374.104 190.435 368.953 195.766 368.677 197.936C 368.463 199.622 369.497 200.33 370.508 199.854C 371.519 199.377 372.278 199.02 372.278 199.02C 372.278 199.02 372.663 200.754 371.637 201.856C 370.611 202.957 370.611 202.957 370.611 202.957L 373.601 203.402C 373.601 203.402 373.601 203.402 373.005 202.138C 372.41 200.873 373.122 199.287 373.122 199.287C 373.122 199.287 373.572 199.7 374.382 200.338C 375.454 201.182 376.486 201.219 376.652 199.122C 376.78 197.502 374.104 190.435 374.104 190.435z"/>
<path fill="#000000" stroke="none" d="M 419.018 214.592C 419.018 214.592 413.406 219.435 412.935 221.57C 412.569 223.231 413.534 224.03 414.585 223.647C 415.635 223.264 416.423 222.976 416.423 222.976C 416.423 222.976 416.649 224.738 415.527 225.742C 414.406 226.746 414.406 226.746 414.406 226.746L 417.344 227.46C 417.344 227.46 417.344 227.46 416.865 226.147C 416.386 224.834 417.239 223.318 417.239 223.318C 417.239 223.318 417.65 223.771 418.399 224.48C 419.39 225.417 420.415 225.547 420.769 223.474C 421.043 221.872 419.018 214.592 419.018 214.592z"/>
<path fill="#ffbf7f" stroke="none" d="M 396.64 267.169C 396.723 269.127 395.098 270.752 395.39 272.752C 395.098 272.377 394.765 272.002 394.473 271.627C 394.056 273.252 394.806 274.71 395.181 276.252C 394.89 275.627 394.556 274.96 394.265 274.335C 394.056 275.877 394.181 277.377 394.098 278.919C 394.098 278.294 394.14 277.669 394.14 277.044C 393.515 279.794 393.181 282.627 392.723 285.419C 392.681 284.919 392.681 284.46 392.64 283.96C 391.056 287.669 392.056 291.877 389.931 295.419C 387.765 298.96 384.765 301.585 382.473 304.919C 382.723 304.377 383.015 303.877 383.265 303.335C 372.723 311.419 360.515 318.877 346.806 319.627C 341.223 317.544 335.098 317.419 329.556 315.169C 327.056 314.169 324.223 315.335 323.223 317.835C 322.223 320.294 326.098 321.252 328.598 322.252C 332.306 324.377 336.265 324.335 339.265 327.585C 348.2 330.446 385.33 324.503 394.806 314.919C 402.681 306.96 402.64 296.877 405.931 286.252C 405.723 286.835 408.14 279.669 407.931 280.252C 409.931 273.96 410.098 276.669 407.931 270.252C 408.015 270.752 411.265 269.502 411.348 270.002C 410.556 268.919 410.015 267.752 409.64 266.502C 409.265 266.794 408.89 267.127 408.515 267.419C 408.265 266.752 408.015 266.085 407.765 265.419C 406.473 262.169 402.765 260.585 399.515 261.877C 396.265 263.21 394.681 266.877 395.973 270.169L 396.64 267.169z"/>
<path fill="#9f9f3f" stroke="none" d="M 312.098 253.544C 313.681 252.794 315.515 252.752 317.056 251.877C 328.265 245.669 339.598 241.044 350.431 234.752C 351.056 234.002 350.973 232.877 350.265 232.252C 349.515 231.627 348.39 231.71 347.765 232.46L 348.181 232.627C 336.098 239.419 323.931 246.002 311.598 252.377C 311.265 252.544 311.14 252.919 311.265 253.252C 311.431 253.544 311.806 253.71 312.098 253.544L 312.098 253.544z"/>
<path fill="#9f9f3f" stroke="none" d="M 331.265 251.502C 339.681 250.46 347.181 246.502 354.473 242.419C 355.265 242.044 355.598 241.044 355.181 240.252C 354.806 239.46 353.848 239.127 353.015 239.502L 353.39 239.752C 345.765 243.044 338.848 247.627 330.973 250.335C 330.681 250.419 330.473 250.752 330.556 251.085C 330.64 251.377 330.973 251.585 331.265 251.502L 331.265 251.502z"/>
<path fill="#9f9f3f" stroke="none" d="M 392.39 244.127C 394.765 247.585 396.681 251.044 399.223 254.585C 400.348 256.169 400.515 258.502 403.431 258.585C 404.348 259.544 405.931 259.627 406.931 258.71C 407.931 257.794 407.973 256.21 407.056 255.21C 405.098 249.502 397.89 247.085 393.598 243.044C 393.306 242.752 392.806 242.71 392.473 243.002C 392.14 243.294 392.098 243.794 392.39 244.127L 392.39 244.127z"/>
<path fill="#ffffff" stroke="none" d="M 311.39 198.252C 309.14 205.502 310.015 213.46 309.098 221.002C 308.39 222.585 309.14 224.419 310.681 225.085C 312.265 225.794 314.098 225.044 314.765 223.502C 315.265 222.96 316.14 222.377 316.14 221.835C 316.056 213.919 314.848 205.919 312.473 198.252C 312.473 197.96 312.223 197.71 311.931 197.71C 311.64 197.71 311.39 197.96 311.39 198.252L 311.39 198.252z"/>
<path fill="#ff0000" stroke-width="1" stroke="#7f0000" d="M 297.765 259.752C 297.765 259.752 310.765 231.752 322.265 225.752C 333.765 219.752 359.265 212.752 368.765 214.252C 378.265 215.752 400.765 224.252 402.765 227.752C 404.765 231.252 410.265 255.252 410.265 255.252L 412.265 247.252C 412.265 247.252 414.265 233.752 408.265 224.252C 404.936 218.981 381.632 204.903 366.765 205.752C 349.265 206.752 325.765 211.252 314.765 221.752C 304.484 231.566 293.765 254.252 293.765 254.252L 297.765 259.752z"/>
<path fill="#000000" stroke="none" d="M 312.9 200.585C 312.9 200.585 312.15 207.96 313.275 209.835C 314.149 211.293 315.4 211.21 315.9 210.21C 316.4 209.21 316.775 208.46 316.775 208.46C 316.775 208.46 318.15 209.585 318.025 211.085C 317.9 212.585 317.9 212.585 317.9 212.585L 320.525 211.085C 320.525 211.085 320.525 211.085 319.275 210.46C 318.025 209.835 317.603 208.148 317.603 208.148C 317.603 208.148 318.212 208.195 319.243 208.195C 320.608 208.195 321.441 207.585 320.275 205.835C 319.373 204.483 312.9 200.585 312.9 200.585z"/>
<path fill="#ffffff" stroke="none" d="M 349.265 203.46C 361.973 203.169 372.265 192.627 377.098 181.627C 377.098 180.252 376.015 179.127 374.64 179.085C 373.265 179.085 372.14 180.169 372.098 181.544C 370.431 185.335 367.931 188.502 365.14 191.544C 360.64 196.419 354.431 198.877 348.973 202.377C 348.681 202.46 348.515 202.752 348.598 203.085C 348.681 203.377 348.973 203.544 349.265 203.46L 349.265 203.46z"/>
<path fill="#ffffff" stroke="none" d="M 305.931 190.252C 304.556 192.585 305.223 195.377 304.306 197.794L 305.348 200.794L 305.973 196.794L 304.515 198.835C 302.723 203.21 303.64 208.127 301.14 212.377C 300.598 213.96 301.431 215.71 303.056 216.21C 304.64 216.752 306.39 215.877 306.931 214.294L 306.098 214.294C 309.515 212.669 308.015 207.544 309.515 204.502L 309.848 201.502C 310.89 200.669 311.223 199.21 310.723 198.002L 310.306 196.627C 309.223 194.544 309.473 191.669 307.265 190.252C 307.265 189.877 306.973 189.585 306.598 189.585C 306.223 189.585 305.931 189.877 305.931 190.252L 305.931 190.252z"/>
<path fill="#00ffff" stroke="none" d="M 471.431 588.419C 471.14 594.71 469.556 600.877 469.598 607.127C 469.64 617.794 471.306 628.419 471.098 639.085C 470.681 660.085 469.598 681.002 470.723 701.96C 470.723 706.669 474.556 710.502 479.265 710.502C 483.973 710.502 487.806 706.669 487.806 701.96L 487.015 702.252C 487.306 701.627 487.765 701.002 487.765 700.377C 486.723 678.21 484.39 656.419 482.515 634.21C 481.181 618.46 479.015 602.752 472.973 588.085C 472.89 587.669 472.473 587.419 472.056 587.502C 471.598 587.585 471.348 588.002 471.431 588.419L 471.431 588.419z"/>
<path fill="none" stroke-width="6" stroke="#ffffff" d="M 428.765 732.252L 449.765 679.252L 464.765 704.752L 475.765 666.752L 486.265 688.252L 495.265 655.752L 503.265 673.252"/>
<path fill="#7fffff" stroke="none" d="M 467.223 559.835C 467.64 560.419 468.015 561.002 468.431 561.585C 468.056 560.877 467.64 560.169 467.265 559.46C 468.64 563.419 468.931 567.669 471.473 571.252C 473.473 574.044 476.181 576.169 476.681 579.335C 478.931 593.919 483.598 606.96 488.181 620.502C 488.306 621.252 489.015 621.71 489.723 621.585C 490.431 621.46 490.931 620.794 490.806 620.085C 490.765 609.669 489.14 599.669 486.64 589.294C 484.723 581.21 486.765 573.627 486.64 565.71C 486.598 561.085 484.515 556.544 482.848 552.044L 481.223 549.419L 467.765 560.419L 482.848 552.044C 480.223 548.085 474.848 546.96 470.848 549.627C 466.89 552.252 465.765 557.585 468.431 561.585L 467.223 559.835z"/>
<path fill="#bfffff" stroke-width="1" stroke="#7fffff" d="M 438.056 583.294C 438.404 584.821 443.862 618.975 445.098 620.627C 447.348 629.835 447.306 639.335 448.056 648.752C 448.056 649.085 448.306 649.335 448.598 649.335C 448.89 649.335 449.14 649.085 449.14 648.752C 450.223 638.835 452.223 628.169 453.265 618.252C 459.39 605.335 454.89 590.96 452.89 577.252C 451.598 573.002 447.14 570.669 442.931 571.96C 438.681 573.252 436.348 577.71 437.64 581.919L 438.056 583.294z"/>
</g>
<g>
<path fill="none" stroke-width="6" stroke="#000000" d="M 387.765 220.565C 371.765 212.565 355.765 214.565 341.765 218.565C 305.765 228.565 305.765 272.565 311.765 306.565C 311.765 316.565 323.888 322.024 333.765 324.565C 359.765 331.252 375.704 328.023 393.765 311.252C 414.902 291.625 407.765 258.565 403.765 232.565C 403.765 226.565 395.765 224.565 387.765 220.565z"/>
<path fill="none" stroke-width="6" stroke="#000000" d="M 327.765 324.565C 305.765 382.565 271.515 533.252 271.515 533.252C 271.515 533.252 467.515 539.252 479.515 545.252C 489.692 550.341 501.307 631.669 505.822 695.301"/>
<path fill="none" stroke-width="6" stroke="#000000" d="M 500.009 698.176C 500.818 709.574 498.961 708.53 499.265 718.252L 542.265 716.252"/>
<path fill="none" stroke-width="6" stroke="#000000" d="M 268.515 535.252C 294.515 551.252 413.515 579.252 427.515 581.252"/>
<path fill="none" stroke-width="6" stroke="#000000" d="M 443.515 739.252C 445.515 751.252 443.265 754.252 445.265 766.252L 497.265 765.252"/>
<path fill="none" stroke-width="6" stroke="#000000" d="M 505.515 691.252L 427.515 753.252L 427.515 581.252"/>
<path fill="none" stroke-width="6" stroke="#000000" d="M 315.265 368.252C 337.598 372.136 424.515 392.252 424.515 392.252L 382.515 430.252L 379.515 457.252"/>
<path fill="none" stroke-width="6" stroke="#000000" d="M 376.515 433.002L 372.265 433.252L 365.515 493.252L 408.515 519.252L 415.515 458.252L 381.515 440.252"/>
<path fill="none" stroke-width="6" stroke="#000000" d="M 381.765 432.502L 416.515 431.252L 415.515 439.502"/>
<path fill="none" stroke-width="4" stroke="#000000" d="M 383.765 437.002L 417.765 440.252L 415.015 456.252"/>
<path fill="none" stroke-width="6" stroke="#000000" d="M 315.265 348.252C 276.265 342.252 181.265 356.252 181.265 356.252C 181.265 356.252 127.265 320.252 102.524 298.562"/>
<path fill="none" stroke-width="6" stroke="#000000" d="M 78.9989 273.933L 91.5219 307.447L 114.686 282.559L 110.643 248.741L 78.9989 273.933z"/>
<path fill="none" stroke-width="6" stroke="#000000" d="M 95.5148 297.252"/>
<path fill="none" stroke-width="6" stroke="#000000" d="M 290.282 68.9465L 283.396 93.9581L 133.509 254.997L 115.941 238.646L 265.828 77.6068L 290.282 68.9465z"/>
<path fill="none" stroke-width="6" stroke="#000000" d="M 98.0248 252.024L 81.1889 236.354L 96.1776 220.25L 153.273 273.392L 138.284 289.496L 117.057 269.738"/>
<path fill="none" stroke-width="6" stroke="#000000" d="M 91.3698 303.207L 80.4689 314.919L 59.9731 295.843L 70.874 284.131L 91.3698 303.207z"/>
<path fill="none" stroke-width="6" stroke="#000000" d="M 350.765 260.752C 348.134 258.998 344.265 258.252 342.765 260.752C 341.265 263.252 339.265 270.065 342.265 277.065C 343.765 280.065 350.765 281.565 352.265 279.065C 353.765 276.565 356.265 270.752 354.765 262.752C 354.765 261.252 352.265 261.752 350.765 260.752z"/>
<path fill="none" stroke-width="6" stroke="#000000" d="M 375.765 268.752C 377.533 266.984 382.765 266.752 384.265 269.752C 385.765 272.752 386.89 278.065 384.39 284.565C 382.89 288.065 374.265 287.752 373.265 284.252C 374.202 287.531 370.828 277.473 373.765 272.252C 374.111 271.636 374.765 269.752 375.765 268.752z"/>
<path fill="none" stroke-width="6" stroke="#000000" d="M 117.265 312.252L 87.2648 352.252L 181.265 356.252"/>
<path fill="none" stroke-width="6" stroke="#000000" d="M 395.265 312.919C 395.265 312.919 393.931 321.585 399.931 332.252C 405.931 342.919 410.598 351.585 410.598 351.585C 410.598 351.585 397.931 354.919 372.598 346.919C 347.265 338.919 332.598 334.252 332.598 334.252"/>
<path fill="none" stroke-width="6" stroke="#000000" d="M 325.265 224.252C 303.265 237.585 297.931 260.252 294.598 272.252C 291.265 284.252 281.265 311.585 275.265 316.919C 269.265 322.252 266.598 324.919 266.598 324.919"/>
<path fill="none" stroke-width="6" stroke="#000000" d="M 297.265 262.252L 281.931 240.919C 281.931 240.919 298.598 242.919 302.598 224.252C 306.598 205.585 302.598 185.585 302.598 185.585C 302.598 185.585 318.598 197.585 336.598 200.919C 354.598 204.252 376.598 178.252 376.598 178.252C 376.598 178.252 385.265 208.919 401.931 211.585C 418.598 214.252 424.598 196.919 424.598 196.919C 424.598 196.919 421.931 220.919 415.265 240.252C 408.598 259.585 408.598 267.585 408.598 267.585C 408.598 267.585 409.265 253.585 394.598 234.919C 379.931 216.252 364.598 218.919 341.265 227.585C 317.931 236.252 311.265 258.919 303.265 288.919C 295.265 318.919 268.598 326.252 268.598 326.252C 268.598 326.252 281.265 333.585 294.598 330.919C 307.931 328.252 315.265 327.585 315.265 327.585"/>
<path fill="none" stroke-width="6" stroke="#000000" d="M 327.931 296.252C 327.931 296.252 337.265 314.919 355.265 314.252C 373.265 313.585 383.265 304.252 383.265 304.252"/>
<path fill="none" stroke-width="6" stroke="#000000" d="M 313.265 256.919C 313.265 256.919 319.931 256.252 327.265 254.252C 334.598 252.252 350.598 254.919 364.598 244.919C 378.598 234.919 373.931 226.252 373.931 226.252C 373.931 226.252 374.598 237.585 384.598 246.919C 394.598 256.252 405.931 264.919 405.931 264.919"/>
<path fill="none" stroke-width="6" stroke="#000000" d="M 424.515 392.252L 411.515 426.002"/>
</g>
<g>
<path fill="none" stroke-width="6" stroke="#7f7f00" d="M 389.515 765.252C 389.515 765.252 392.913 546.76 386.507 521.137C 379.507 493.137 350.507 473.137 321.507 462.137C 276.55 445.084 208.237 445.708 182.507 433.137C 172.395 428.197 163.49 420.277 160.992 411.992"/>
</g>
</svg>