<svg xmlns="http://www.w3.org/2000/svg"
	xmlns:xlink="http://www.w3.org/1999/xlink"
	viewBox="109.2 37.6 577 792"
	width="577" height="792">
<g>
<path fill="#7fffff" stroke-width="1" stroke="#00ffff" d="M 354.178 419.619C 336.068 419.619 316.178 413.619 306.178 433.619C 296.178 455.619 280.178 475.619 282.178 501.619C 312.178 515.619 336.178 557.619 368.178 545.619C 408.178 529.619 396.178 475.619 392.178 439.619C 390.178 429.619 376.178 423.619 364.178 417.619C 358.178 413.619 358.178 419.619 354.178 419.619z"/>
<path fill="#7fffff" stroke-width="1" stroke="#00ffff" d="M 560.178 399.619C 546.036 399.619 530.178 395.619 516.178 401.619C 488.178 413.619 486.178 453.619 494.178 477.619C 502.178 499.619 538.178 501.619 556.178 493.619C 588.178 479.619 586.178 437.619 580.178 405.619C 578.178 399.619 568.178 399.619 560.178 399.619z"/>
<path fill="#7fffff" stroke-width="1" stroke="#00ffff" d="M 510.178 459.619C 534.178 497.619 582.178 499.619 622.178 497.619C 624.178 469.619 608.178 443.619 588.178 423.619C 586.178 421.619 582.178 417.619 578.178 419.619"/>
<path fill="none" stroke-width="1" stroke="#00ffff" d="M 622.178 497.619C 620.178 509.619 622.178 521.619 616.178 533.619C 634.178 539.619 654.178 541.619 672.178 551.619"/>
<path fill="#7fffff" stroke-width="1" stroke="#00ffff" d="M 244.178 423.619C 246.178 427.619 250.178 431.619 254.178 435.619C 288.178 455.619 324.178 461.619 360.178 473.619C 399.294 486.657 354.178 555.619 324.178 567.619C 312.178 573.619 292.178 573.619 286.178 563.619C 276.178 537.619 294.178 507.619 314.178 487.619"/>
<path fill="#7fffff" stroke-width="1" stroke="#00ffff" d="M 302.178 561.619C 246.178 603.619 202.178 661.619 166.178 723.619"/>
<path fill="#7fffff" stroke-width="1" stroke="#00ffff" d="M 130.178 579.619C 180.178 537.619 240.178 507.619 302.178 485.619"/>
<path fill="none" stroke-width="1" stroke="#00ffff" d="M 394.178 429.619C 412.178 437.619 434.178 433.619 454.178 433.619C 462.178 431.619 472.178 429.619 480.178 425.619C 490.178 423.619 502.178 423.619 506.178 409.619"/>
<path fill="none" stroke-width="1" stroke="#00ffff" d="M 394.178 521.619C 404.178 509.619 414.178 499.619 428.178 493.619C 462.178 481.619 500.178 475.619 536.178 477.619"/>
<path fill="none" stroke-width="1" stroke="#00ffff" d="M 122.178 411.619C 154.178 403.619 184.178 391.619 214.178 379.619"/>
<path fill="none" stroke-width="1" stroke="#00ffff" d="M 120.178 417.619C 120.178 425.619 118.178 437.619 122.178 441.619C 134.178 449.619 150.178 441.619 166.178 443.619C 162.178 451.619 156.178 455.619 152.178 463.619C 156.178 463.619 162.178 465.619 166.178 463.619C 174.178 455.619 182.178 449.619 192.178 443.619C 218.178 431.619 242.178 415.619 270.178 407.619"/>
<path fill="none" stroke-width="1" stroke="#00ffff" d="M 222.178 377.619C 200.178 381.619 188.178 411.619 202.178 425.619C 214.178 439.619 244.178 437.619 258.178 417.619C 266.178 405.619 264.178 391.619 262.178 377.619C 260.178 373.619 256.178 369.619 252.178 369.619C 244.178 369.619 238.178 373.619 230.178 377.619"/>
<path fill="none" stroke-width="1" stroke="#00ffff" d="M 214.178 373.619C 230.178 353.619 258.178 353.619 280.178 347.619C 276.178 355.619 270.178 361.619 264.178 367.619C 276.178 367.619 288.178 367.619 300.178 367.619C 296.178 379.619 282.178 383.619 272.178 387.619"/>
<path fill="none" stroke-width="1" stroke="#00ffff" d="M 382.178 435.619C 386.178 437.619 388.178 439.619 392.178 439.619C 434.178 439.619 476.178 427.619 518.178 419.619"/>
<path fill="none" stroke-width="1" stroke="#00ffff" d="M 470.178 417.619C 474.178 401.619 492.178 399.619 504.178 399.619C 514.178 397.619 526.178 399.619 534.178 403.619C 548.178 409.619 552.178 429.619 550.178 445.619"/>
<path fill="none" stroke-width="1" stroke="#00ffff" d="M 190.178 371.619C 192.178 383.619 200.178 391.619 210.178 397.619C 252.178 413.619 300.178 409.619 344.178 421.619C 350.28 423.283 358.178 417.619 364.178 417.619C 404.178 423.619 442.178 427.619 480.178 425.619C 484.173 425.409 490.178 413.619 496.178 407.619C 500.178 405.619 504.178 403.619 506.178 409.619C 520.178 395.619 552.178 385.619 564.178 405.619C 578.621 429.69 622.178 405.619 650.178 397.619C 664.178 393.619 676.178 385.619 690.178 383.619C 690.178 385.619 690.178 389.619 690.178 391.619"/>
<path fill="none" stroke-width="1" stroke="#00ffff" d="M 520.178 491.619C 536.178 501.619 580.178 503.619 598.178 509.619C 602.178 483.619 572.178 465.619 576.178 439.619"/>
<path fill="none" stroke-width="1" stroke="#00ffff" d="M 576.178 483.619C 570.178 489.619 684.178 509.619 676.178 513.619C 682.178 523.619 734.178 503.619 742.178 507.619C 772.178 519.619 626.178 565.619 656.178 579.619C 664.178 581.619 672.178 579.619 680.178 579.619"/>
<path fill="none" stroke-width="1" stroke="#00ffff" d="M 622.178 497.619C 628.178 507.619 640.178 521.619 646.178 525.619C 682.178 539.619 718.178 549.619 754.178 565.619C 774.178 573.619 764.178 571.619 784.178 563.619C 784.178 561.619 784.178 557.619 784.178 553.619"/>
<path fill="none" stroke-width="1" stroke="#00ffff" d="M 190.178 405.619C 192.178 397.619 184.178 387.619 194.178 379.619C 216.178 367.619 240.178 365.619 264.178 367.619C 272.178 383.619 260.178 401.619 258.178 417.619"/>
<path fill="none" stroke-width="1" stroke="#00ffff" d="M 428.178 457.619C 440.178 475.619 436.178 495.619 432.178 515.619C 432.178 517.619 424.178 519.619 420.178 523.619C 408.178 531.619 396.178 529.619 384.178 529.619"/>
<path fill="none" stroke-width="1" stroke="#00ffff" d="M 448.178 449.619C 448.178 465.619 454.178 481.619 448.178 497.619C 446.178 505.619 434.178 505.619 432.178 515.619"/>
</g>
<g>
<path fill="#bfffff" stroke="none" d="M 686.178 829.619L 686.178 37.6191L 109.178 37.6191L 109.178 829.619L 686.178 829.619z"/>
</g>
<g>
<path fill="#dfdfbf" stroke="none" d="M 109.178 481.286C 109.178 481.286 386.178 423.619 464.178 415.619C 542.178 407.619 686.178 403.619 686.178 403.619L 686.178 829.744L 109.178 829.619L 109.178 481.286z"/>
<path fill="#ffffff" stroke-width="3" stroke="#7fffff" d="M 116.803 254.869C 251.678 187.494 393.678 135.869 533.803 80.6191C 537.553 79.1191 539.178 74.8691 537.678 71.2441C 536.178 67.4941 531.928 65.8691 528.303 67.3691C 461.303 92.3691 394.303 115.869 328.303 145.119C 255.053 177.619 180.803 205.744 113.928 249.244C 112.428 249.994 111.803 251.869 112.553 253.494C 113.303 254.994 115.178 255.619 116.803 254.869L 116.803 254.869z"/>
<path fill="#ffffff" stroke-width="3" stroke="#7fffff" d="M 143.803 159.119C 195.678 139.994 248.053 124.869 301.553 108.119C 351.428 92.4941 402.053 84.3691 448.928 62.2441C 452.678 60.8691 454.553 56.7441 453.178 53.1191C 451.803 49.3691 447.678 47.4941 444.053 48.8691C 343.178 83.8691 239.178 109.494 141.303 152.869C 139.678 153.619 138.803 155.494 139.428 157.244C 140.178 158.994 142.053 159.869 143.803 159.119L 143.803 159.119z"/>
<path fill="#ffffff" stroke-width="3" stroke="#7fffff" d="M 232.053 277.494C 351.928 237.494 474.803 208.119 595.928 172.369C 598.053 171.744 599.303 169.494 598.678 167.369C 598.053 165.244 595.928 163.994 593.678 164.619C 472.803 201.494 348.553 227.119 229.928 271.244C 228.178 271.869 227.303 273.744 227.803 275.494C 228.428 277.244 230.303 278.119 232.053 277.494L 232.053 277.494z"/>
<path fill="#ffffff" stroke-width="3" stroke="#7fffff" d="M 51.5533 413.369C 144.928 387.119 233.303 351.744 328.053 324.119C 439.178 291.744 546.053 259.244 657.303 235.119C 664.678 233.744 669.428 226.619 667.928 219.244C 666.553 211.994 659.428 207.244 652.053 208.619C 445.178 255.119 243.928 323.369 48.8033 405.869C 46.8033 406.619 45.6783 408.869 46.4283 410.994C 47.1783 412.994 49.4283 414.119 51.5533 413.369L 51.5533 413.369z"/>
<path fill="#ffffff" stroke-width="3" stroke="#7fffff" d="M 312.053 392.619C 366.928 380.119 420.928 365.494 475.553 351.619C 478.928 350.744 480.803 347.369 479.928 344.119C 479.053 340.744 475.678 338.744 472.428 339.619C 418.178 354.494 363.428 367.619 309.928 384.994C 307.803 385.619 306.678 387.744 307.178 389.869C 307.803 391.994 309.928 393.119 312.053 392.619L 312.053 392.619z"/>
<path fill="#ffffff" stroke-width="3" stroke="#7fffff" d="M 500.303 149.994C 515.928 149.494 530.803 147.494 546.553 144.244C 635.678 126.119 717.178 107.494 803.178 91.9941C 809.803 90.2441 813.803 83.4941 812.178 76.8691C 810.428 70.1191 803.678 66.1191 797.053 67.8691C 696.553 87.9941 595.803 109.119 498.553 142.119C 496.303 142.619 494.928 144.744 495.428 146.869C 495.928 148.994 498.053 150.369 500.303 149.994L 500.303 149.994z"/>
<path fill="#ffffff" stroke-width="3" stroke="#7fffff" d="M 270.803 80.4941C 342.053 66.6191 412.553 48.6191 484.678 39.1191C 490.928 38.4941 495.553 32.9941 494.928 26.7441C 494.428 20.4941 488.803 15.8691 482.553 16.4941L 485.428 18.6191C 483.803 17.9941 482.178 16.7441 480.678 16.8691C 448.553 21.8691 419.678 30.7441 387.678 38.2441C 346.178 48.1191 308.053 60.1191 268.803 73.2441C 266.803 73.7441 265.678 75.7441 266.178 77.7441C 266.678 79.7441 268.803 80.9941 270.803 80.4941L 270.803 80.4941z"/>
<path fill="#ffffff" stroke-width="3" stroke="#7fffff" d="M 28.9283 124.494C 67.3033 116.494 104.678 104.619 142.928 95.8691C 147.178 94.9941 149.803 90.8691 148.928 86.7441C 148.053 82.4941 143.928 79.8691 139.803 80.7441C 101.678 91.4941 64.9283 106.119 27.4283 118.744C 25.8033 119.119 24.8033 120.744 25.3033 122.369C 25.6783 123.994 27.3033 124.994 28.9283 124.494L 28.9283 124.494z"/>
<path fill="#ffffff" stroke-width="3" stroke="#7fffff" d="M 535.053 383.244C 535.053 385.369 536.803 387.119 538.928 387.119C 541.178 387.119 542.928 385.369 542.928 383.244C 542.928 380.994 541.178 379.244 538.928 379.244C 536.803 379.244 535.053 380.994 535.053 383.244L 535.053 383.244z"/>
<path fill="#ffffff" stroke-width="3" stroke="#7fffff" d="M 91.8033 306.244C 213.178 269.119 328.303 222.744 453.428 188.369C 579.678 153.744 702.053 126.119 829.303 110.244C 836.303 109.619 841.428 103.494 840.803 96.4941C 840.178 89.4941 834.053 84.3691 827.053 84.9941C 690.678 100.619 558.553 131.369 425.428 172.119C 309.178 207.744 195.553 243.494 89.3033 299.369C 87.4283 300.119 86.5533 302.119 87.1783 303.994C 87.8033 305.869 89.9283 306.869 91.8033 306.244L 91.8033 306.244z"/>
<path fill="#ffffff" stroke-width="3" stroke="#7fffff" d="M 93.5533 216.619C 168.803 186.619 242.053 154.494 319.678 128.494C 366.803 112.619 412.053 99.2441 460.928 86.7441C 507.553 74.8691 551.053 65.9941 598.178 54.7441C 601.053 54.1191 604.303 53.6191 605.678 50.1191C 610.928 47.7441 613.303 41.4941 610.928 36.2441C 608.553 30.8691 602.303 28.6191 596.928 30.9941C 421.553 68.9941 245.928 118.869 89.9283 209.744C 88.0533 210.744 87.3033 213.119 88.3033 214.994C 89.3033 216.994 91.6783 217.619 93.5533 216.619L 93.5533 216.619z"/>
<path fill="#ffffff" stroke-width="3" stroke="#7fffff" d="M 85.4283 75.8691C 123.053 65.6191 161.178 57.2441 199.053 48.2441C 204.428 46.9941 207.803 41.6191 206.553 36.2441C 205.303 30.8691 199.928 27.4941 194.553 28.7441C 156.803 40.4941 118.678 52.1191 82.9283 68.9941C 81.0533 69.7441 80.0533 71.8691 80.8033 73.7441C 81.4283 75.6191 83.5533 76.4941 85.4283 75.8691L 85.4283 75.8691z"/>
<path fill="#ffffff" stroke-width="3" stroke="#7fffff" d="M 83.5533 150.619C 196.053 99.3691 317.053 72.8691 434.928 37.4941C 440.303 33.7441 441.678 26.2441 438.053 20.8691C 434.303 15.4941 426.803 14.1191 421.428 17.7441L 422.428 19.2441C 305.178 50.8691 189.428 89.6191 80.8033 144.619C 79.1783 145.369 78.4283 147.244 79.1783 148.994C 79.9283 150.619 81.8033 151.369 83.5533 150.619L 83.5533 150.619z"/>
<path fill="#ffffff" stroke-width="3" stroke="#7fffff" d="M 78.4283 432.119C 218.053 393.619 357.053 359.744 503.178 342.994C 605.303 331.244 705.303 328.994 806.678 324.619C 813.803 323.619 818.803 317.119 817.803 309.994C 816.803 302.994 810.303 297.994 803.303 298.994C 557.053 308.369 307.178 333.369 76.3033 424.744C 74.3033 425.244 73.0533 427.494 73.6783 429.494C 74.3033 431.494 76.4283 432.744 78.4283 432.119L 78.4283 432.119z"/>
<path fill="#ffffff" stroke-width="3" stroke="#7fffff" d="M 364.928 307.744C 508.178 284.869 652.053 266.744 795.303 244.244C 800.053 243.369 803.178 238.744 802.303 233.994C 801.428 229.244 796.803 225.994 792.053 226.869C 649.178 251.119 506.428 275.744 363.428 298.619C 360.928 299.119 359.178 301.369 359.678 303.994C 360.053 306.494 362.428 308.119 364.928 307.744L 364.928 307.744z"/>
<path fill="#ffffff" stroke-width="3" stroke="#7fffff" d="M 244.928 279.244C 425.803 225.869 613.803 199.619 802.303 197.744C 809.053 197.619 814.303 191.994 814.053 185.244C 813.928 178.494 808.303 173.244 801.553 173.494L 801.678 174.119C 611.678 178.119 422.553 209.619 242.553 271.244C 240.428 271.869 239.178 274.244 239.803 276.369C 240.428 278.619 242.803 279.869 244.928 279.244L 244.928 279.244z"/>
<path fill="#ffbf7f" stroke-width="3" stroke="#ff9f3f" d="M 92.0533 697.369C 114.678 679.744 142.928 673.994 169.803 665.494C 212.678 652.119 253.178 640.994 297.928 630.994C 349.678 619.369 397.053 612.244 448.928 603.244C 496.553 594.994 541.428 590.244 588.428 586.619C 616.678 584.369 644.678 583.244 672.928 582.744C 698.053 582.244 723.178 585.244 748.303 583.494C 751.803 583.369 755.178 578.994 758.553 576.369C 761.928 570.494 760.053 562.994 754.303 559.619C 748.428 556.119 740.928 558.119 737.553 563.869C 739.678 562.744 741.928 561.494 744.053 560.369C 643.928 556.869 546.803 564.244 445.053 582.119C 374.803 594.494 309.428 604.619 242.178 625.244C 215.678 633.369 189.928 640.119 164.428 650.244C 137.303 661.119 104.178 666.494 86.6783 692.244C 85.3033 693.744 85.3033 696.119 86.8033 697.494C 88.3033 698.994 90.6783 698.869 92.0533 697.369L 92.0533 697.369z"/>
<path fill="#ffbf7f" stroke-width="3" stroke="#ff9f3f" d="M 86.1783 645.244C 198.803 598.119 313.553 569.119 437.553 545.244C 562.178 521.244 680.053 503.869 802.803 508.369C 802.303 508.119 801.678 507.744 801.178 507.494C 807.053 507.119 811.553 502.119 811.303 496.244C 810.928 490.369 805.928 485.744 800.053 486.119C 676.678 486.119 558.803 503.369 433.678 527.119C 366.053 539.869 305.303 557.619 241.053 577.869C 186.428 595.119 131.803 609.494 83.0533 638.869C 81.3033 639.744 80.5533 641.869 81.4283 643.619C 82.3033 645.244 84.4283 645.994 86.1783 645.244L 86.1783 645.244z"/>
<path fill="#ffbf7f" stroke-width="3" stroke="#ff9f3f" d="M 558.178 487.494C 617.053 482.744 675.803 478.369 734.928 476.494C 769.178 475.369 803.178 474.244 837.553 476.994C 841.303 477.244 844.928 475.994 847.928 473.369C 852.053 472.619 854.678 468.869 854.053 464.744C 853.303 460.744 849.553 457.994 845.428 458.619C 749.053 456.369 653.178 470.744 557.428 478.994C 555.053 479.244 553.303 481.244 553.553 483.619C 553.803 485.869 555.803 487.619 558.178 487.494L 558.178 487.494z"/>
<path fill="#ffbf7f" stroke-width="3" stroke="#ff9f3f" d="M 99.9283 547.119C 156.678 527.619 213.178 514.619 273.803 500.869C 348.053 484.119 419.178 480.744 491.678 468.869C 497.553 466.869 500.928 460.494 499.053 454.494C 497.053 448.494 490.678 445.244 484.678 447.119C 352.928 464.994 220.428 487.369 97.1783 539.369C 95.0533 540.119 93.9283 542.494 94.6783 544.619C 95.4283 546.744 97.8033 547.869 99.9283 547.119L 99.9283 547.119z"/>
<path fill="#ffbf7f" stroke-width="3" stroke="#ff9f3f" d="M 68.6783 584.244C 312.178 514.869 564.928 481.869 817.928 479.369C 824.428 479.244 829.553 473.994 829.428 467.494C 829.303 460.994 824.053 455.869 817.553 455.994C 693.678 456.744 572.803 467.369 447.803 485.494C 315.553 504.744 188.178 528.869 66.0533 577.369C 64.1783 578.119 63.1783 580.244 63.9283 582.119C 64.6783 583.994 66.8033 584.994 68.6783 584.244L 68.6783 584.244z"/>
<path fill="#ffbf7f" stroke-width="3" stroke="#ff9f3f" d="M 71.1783 747.369C 214.678 693.994 363.928 668.119 517.553 648.744C 619.678 635.994 720.428 626.619 821.428 640.244C 821.178 640.244 820.928 640.244 820.678 640.244C 826.678 641.619 832.678 637.994 834.053 631.994C 835.553 625.994 831.928 620.119 825.928 618.619C 692.053 599.119 559.803 621.369 424.178 642.869C 299.553 662.494 180.928 689.619 68.4283 740.619C 66.5533 741.369 65.6783 743.494 66.4283 745.369C 67.1783 747.244 69.3033 748.119 71.1783 747.369L 71.1783 747.369z"/>
<path fill="#ffbf7f" stroke-width="3" stroke="#ff9f3f" d="M 178.428 743.619C 198.928 738.244 218.803 734.369 240.428 729.994C 290.803 719.619 338.178 716.869 385.928 703.494C 390.053 702.619 392.553 698.619 391.678 694.619C 390.803 690.494 386.803 687.994 382.803 688.869C 312.928 699.494 243.178 713.244 176.303 736.494C 174.303 736.994 173.178 739.119 173.803 741.119C 174.428 743.119 176.428 744.244 178.428 743.619L 178.428 743.619z"/>
<path fill="#ffbf7f" stroke-width="3" stroke="#ff9f3f" d="M 150.803 690.494C 230.178 670.244 310.553 654.119 391.428 641.119C 396.178 640.244 399.178 635.619 398.178 630.869C 397.178 626.119 392.553 623.119 387.928 624.119C 306.928 637.744 228.053 661.119 148.803 682.369C 146.553 682.994 145.178 685.244 145.678 687.494C 146.303 689.744 148.553 690.994 150.803 690.494L 150.803 690.494z"/>
<path fill="#ffbf7f" stroke-width="3" stroke="#ff9f3f" d="M 528.678 618.619C 588.178 611.119 647.928 612.244 707.678 609.244C 711.803 609.119 715.178 605.744 715.053 601.744C 715.053 597.619 711.678 594.244 707.553 594.244C 647.178 590.244 587.428 602.994 527.678 610.119C 525.303 610.494 523.678 612.619 523.928 614.869C 524.178 617.244 526.303 618.994 528.678 618.619L 528.678 618.619z"/>
<path fill="#ffbf7f" stroke-width="3" stroke="#ff9f3f" d="M 514.678 550.869C 514.678 552.494 516.053 553.869 517.803 553.869C 519.553 553.869 520.928 552.494 520.928 550.869C 520.928 549.119 519.553 547.744 517.803 547.744C 516.053 547.744 514.678 549.119 514.678 550.869L 514.678 550.869z"/>
<path fill="#ffbf7f" stroke-width="3" stroke="#ff9f3f" d="M 449.928 446.369C 449.928 448.119 451.303 449.494 452.928 449.494C 454.678 449.494 456.053 448.119 456.053 446.369C 456.053 444.744 454.678 443.369 452.928 443.369C 451.303 443.369 449.928 444.744 449.928 446.369L 449.928 446.369z"/>
<path fill="#ffbf7f" stroke-width="3" stroke="#ff9f3f" d="M 53.0533 488.744C 183.428 452.494 315.928 424.744 450.178 406.994C 455.803 405.119 458.928 399.119 457.178 393.369C 455.303 387.744 449.303 384.619 443.553 386.369C 309.928 405.119 176.928 433.619 50.5533 481.619C 48.5533 482.369 47.5533 484.494 48.1783 486.494C 48.9283 488.369 51.0533 489.494 53.0533 488.744L 53.0533 488.744z"/>
<path fill="#ffbf7f" stroke-width="3" stroke="#ff9f3f" d="M 393.678 458.369C 525.428 437.119 659.053 426.994 792.428 434.244C 797.928 434.869 802.803 430.869 803.428 425.369C 804.053 419.869 800.053 414.869 794.553 414.369C 659.553 405.244 524.553 423.994 392.303 450.369C 390.178 450.744 388.678 452.869 388.928 455.119C 389.303 457.244 391.428 458.744 393.678 458.369L 393.678 458.369z"/>
<path fill="#9fff3f" stroke-width="3" stroke="#7fff00" d="M 451.428 746.494C 553.928 736.119 657.053 734.494 759.803 740.869C 765.053 741.119 769.428 737.119 769.678 731.869C 769.928 726.619 765.928 722.244 760.678 721.994C 657.178 713.994 553.178 724.619 450.553 738.244C 448.178 738.494 446.553 740.619 446.803 742.869C 447.053 745.119 449.178 746.744 451.428 746.494L 451.428 746.494z"/>
<path fill="#9fff3f" stroke-width="3" stroke="#7fff00" d="M 77.4283 672.369C 186.178 623.869 303.428 596.494 421.428 583.244C 427.053 582.494 431.053 577.244 430.303 571.619C 429.553 565.994 424.428 561.994 418.678 562.744C 299.428 577.494 181.053 609.994 74.9283 666.869C 73.4283 667.619 72.8033 669.369 73.4283 670.869C 74.1783 672.369 75.9283 672.994 77.4283 672.369L 77.4283 672.369z"/>
<path fill="#9fff3f" stroke-width="3" stroke="#7fff00" d="M 414.928 509.244C 539.803 483.244 667.553 485.244 794.428 485.619C 798.553 486.119 802.303 483.244 802.928 479.119C 803.428 475.119 800.553 471.369 796.428 470.744C 739.678 460.869 681.678 468.494 624.428 470.244C 553.053 472.244 482.803 485.494 413.428 501.994C 411.553 502.369 410.178 504.369 410.553 506.369C 410.928 508.244 412.928 509.619 414.928 509.244L 414.928 509.244z"/>
<path fill="#9fff3f" stroke-width="3" stroke="#7fff00" d="M 412.428 397.619C 482.303 385.994 552.053 375.619 623.178 369.994C 680.803 365.494 737.928 369.119 795.053 363.244C 799.803 363.369 803.678 359.744 803.928 355.119C 804.053 350.369 800.428 346.494 795.803 346.244C 666.303 347.119 537.928 364.494 411.053 389.619C 408.928 389.994 407.428 392.119 407.803 394.244C 408.178 396.494 410.303 397.994 412.428 397.619L 412.428 397.619z"/>
<path fill="#9fff3f" stroke-width="3" stroke="#7fff00" d="M 428.428 339.244C 527.178 323.744 626.803 311.244 726.928 312.994C 731.428 313.494 735.303 310.244 735.678 305.744C 736.178 301.369 732.803 297.369 728.428 296.994C 627.178 292.244 526.803 315.994 427.178 331.119C 424.928 331.494 423.303 333.619 423.678 335.869C 424.053 338.119 426.178 339.619 428.428 339.244L 428.428 339.244z"/>
<path fill="#9fff3f" stroke-width="3" stroke="#7fff00" d="M 108.178 334.494C 172.053 313.994 238.553 305.369 303.678 289.869C 307.678 289.119 310.303 285.369 309.678 281.369C 308.928 277.369 305.178 274.744 301.178 275.369C 259.428 279.119 219.428 292.119 178.053 303.369C 153.053 310.244 129.803 318.494 105.803 326.369C 103.553 326.994 102.303 329.369 102.928 331.619C 103.553 333.869 105.928 335.119 108.178 334.494L 108.178 334.494z"/>
<path fill="#9fff3f" stroke-width="3" stroke="#7fff00" d="M 187.928 287.369C 282.928 267.744 377.803 248.494 473.678 233.744C 478.303 233.244 481.678 229.119 481.178 224.369C 480.678 219.744 476.428 216.369 471.803 216.869C 376.053 235.369 281.303 257.869 186.053 278.994C 183.803 279.494 182.303 281.869 182.803 284.119C 183.303 286.369 185.553 287.869 187.928 287.369L 187.928 287.369z"/>
<path fill="#9fff3f" stroke-width="3" stroke="#7fff00" d="M 235.803 245.244C 252.553 239.994 268.803 235.119 286.303 230.869C 331.053 220.119 373.178 217.744 418.178 210.619C 422.678 209.994 426.303 207.619 429.678 204.744C 433.553 203.244 435.553 198.869 434.053 194.869C 432.553 190.994 428.178 188.994 424.178 190.494C 359.428 201.369 293.678 210.744 233.303 237.994C 231.303 238.744 230.178 240.869 230.928 242.869C 231.678 244.869 233.803 245.994 235.803 245.244L 235.803 245.244z"/>
<path fill="#9fff3f" stroke-width="3" stroke="#7fff00" d="M 244.678 214.869C 244.678 216.494 246.053 217.869 247.803 217.869C 249.428 217.869 250.803 216.494 250.803 214.869C 250.803 213.119 249.428 211.744 247.803 211.744C 246.053 211.744 244.678 213.119 244.678 214.869L 244.678 214.869z"/>
<path fill="#9fff3f" stroke-width="3" stroke="#7fff00" d="M 297.803 752.619C 466.053 707.369 641.803 690.619 815.678 696.744C 820.428 697.994 825.428 695.119 826.678 690.244C 827.928 685.369 824.928 680.494 820.178 679.244C 786.428 666.994 750.053 673.369 715.178 673.244C 688.553 673.119 662.053 675.119 635.303 677.494C 592.803 681.369 552.303 686.744 509.428 693.369C 435.053 704.869 364.053 718.994 295.303 745.869C 293.428 746.494 292.553 748.619 293.178 750.494C 293.803 752.369 295.928 753.244 297.803 752.619L 297.803 752.619z"/>
<path fill="#9fff3f" stroke-width="3" stroke="#7fff00" d="M 433.428 795.494C 524.053 785.744 615.303 784.869 706.053 792.244C 710.928 792.619 715.178 788.994 715.553 784.244C 715.928 779.369 712.303 775.119 707.553 774.744C 616.053 764.994 523.553 776.119 432.553 786.994C 430.178 787.244 428.428 789.244 428.678 791.619C 428.928 793.994 431.053 795.744 433.428 795.494L 433.428 795.494z"/>
<path fill="#9fff3f" stroke-width="3" stroke="#7fff00" d="M 78.4283 787.119C 181.553 730.744 297.803 707.119 410.678 678.619C 414.928 677.494 417.553 673.244 416.428 668.994C 415.428 664.869 411.178 662.244 406.928 663.244C 293.553 692.994 174.678 716.244 74.6783 780.869C 72.9283 781.994 72.4283 784.244 73.4283 785.869C 74.5533 787.619 76.8033 788.244 78.4283 787.119L 78.4283 787.119z"/>
<path fill="#ff9f3f" stroke-width="3" stroke="#ff7f00" d="M 183.178 774.119C 339.053 726.244 502.178 703.369 664.303 688.869C 670.303 688.619 675.053 683.494 674.678 677.369C 674.428 671.369 669.178 666.619 663.178 666.994C 606.178 671.994 551.303 679.994 493.178 690.494C 384.178 710.244 280.803 726.619 180.303 766.744C 178.303 767.619 177.303 769.869 178.178 771.869C 178.928 773.869 181.178 774.869 183.178 774.119L 183.178 774.119z"/>
<path fill="#ff9f3f" stroke-width="3" stroke="#ff7f00" d="M 281.178 804.994C 426.428 764.994 578.303 751.494 728.678 753.994C 734.428 754.494 739.553 750.119 740.053 744.244C 740.553 738.494 736.178 733.369 730.428 732.869L 730.803 733.244C 661.678 728.619 592.803 739.119 523.303 746.119C 439.553 754.369 358.303 770.869 279.178 797.494C 277.053 798.119 275.803 800.244 276.428 802.244C 277.053 804.369 279.178 805.494 281.178 804.994L 281.178 804.994z"/>
<path fill="#ff9f3f" stroke-width="3" stroke="#ff7f00" d="M 114.303 825.994C 207.303 781.994 312.928 780.994 412.678 762.619C 416.053 762.119 418.428 758.994 417.928 755.619C 417.553 752.244 414.428 749.869 411.053 750.369C 309.928 765.744 201.803 766.994 110.803 818.869C 108.803 819.869 108.053 822.244 109.053 824.244C 110.053 826.119 112.428 826.994 114.303 825.994L 114.303 825.994z"/>
<path fill="#ff9f3f" stroke-width="3" stroke="#ff7f00" d="M 91.4283 491.744C 184.678 467.994 278.928 448.119 374.803 438.869C 381.053 438.494 385.803 433.119 385.303 426.869C 384.928 420.619 379.553 415.994 373.303 416.369L 373.553 418.869C 352.553 413.744 330.178 423.244 308.553 425.994C 282.678 429.244 258.803 433.994 232.928 439.869C 182.178 451.244 134.178 461.494 88.9283 484.244C 86.9283 484.869 85.8033 487.119 86.4283 489.244C 87.0533 491.244 89.3033 492.494 91.4283 491.744L 91.4283 491.744z"/>
<path fill="#ff9f3f" stroke-width="3" stroke="#ff7f00" d="M 225.928 562.369C 314.803 549.869 402.303 530.244 491.178 517.869C 495.678 517.619 499.178 513.619 498.803 509.119C 498.553 504.619 494.553 501.119 490.053 501.369L 490.803 502.244C 488.803 501.744 486.678 500.869 484.678 501.119C 435.053 506.994 389.678 517.744 339.428 527.744C 299.428 535.744 262.803 544.994 224.803 555.244C 222.803 555.494 221.428 557.369 221.803 559.369C 222.053 561.369 223.928 562.744 225.928 562.369L 225.928 562.369z"/>
<path fill="#ff9f3f" stroke-width="3" stroke="#ff7f00" d="M 503.178 562.369C 598.428 559.994 693.678 561.494 788.928 559.994C 793.553 559.994 797.303 556.244 797.303 551.619C 797.303 546.994 793.553 543.244 788.928 543.244C 693.428 541.994 597.803 545.494 502.803 555.244C 500.803 555.369 499.303 556.994 499.428 558.994C 499.428 560.994 501.178 562.494 503.178 562.369L 503.178 562.369z"/>
<path fill="#ff9f3f" stroke-width="3" stroke="#ff7f00" d="M 213.178 828.494C 381.428 780.744 554.178 740.744 730.178 744.619C 734.053 744.619 737.178 741.494 737.053 737.619C 737.053 733.744 733.928 730.619 730.053 730.619C 552.928 726.494 379.053 769.244 211.178 821.994C 209.303 822.494 208.303 824.369 208.928 826.244C 209.428 827.994 211.428 829.119 213.178 828.494L 213.178 828.494z"/>
</g>
<g>
<path fill="#f2f2f2" stroke="none" d="M 147.512 453.619C 147.512 453.619 119.512 450.952 120.178 442.286C 120.845 433.619 116.845 426.286 128.178 420.286C 139.512 414.286 182.845 390.286 182.845 390.286L 202.178 372.952L 220.845 365.619L 254.178 325.619L 251.512 339.619L 276.845 322.952L 271.512 338.952L 296.845 321.619L 296.178 340.952L 323.512 328.286L 328.178 334.286L 324.845 348.952L 345.512 353.619L 344.845 364.286L 370.178 367.619L 352.845 378.952L 380.178 395.619L 189.512 438.952C 189.512 438.952 177.512 434.952 173.512 436.952C 169.512 438.952 164.845 444.286 164.845 444.286L 147.512 453.619z"/>
<path fill="#f2f2f2" stroke="none" d="M 307.178 432.619C 307.178 432.619 283.178 462.619 283.178 478.619C 283.178 494.619 294.178 512.619 294.178 512.619L 290.178 566.619C 290.178 566.619 312.178 580.619 324.178 573.619C 336.178 566.619 362.178 539.619 362.178 539.619L 378.178 540.619L 404.178 527.619L 437.178 512.619L 459.178 491.619L 521.178 479.619L 524.178 472.619L 563.178 493.619L 627.178 501.619L 616.178 457.619L 608.178 435.619C 608.178 435.619 603.178 414.619 593.178 409.619C 583.178 404.619 548.178 398.619 548.178 398.619L 541.178 392.619L 513.178 398.619L 486.678 420.619L 427.178 420.119L 376.178 404.119L 253.178 422.619L 291.178 451.619L 307.178 432.619z"/>
<path fill="#bfbfbf" stroke="none" d="M 685.845 322.619L 686.178 379.952C 686.178 379.952 624.845 380.286 615.845 378.286C 612.369 377.513 601.604 370.029 595.512 372.286C 586.512 375.619 575.178 384.286 575.178 384.286L 592.178 322.952L 685.845 322.619z"/>
<path fill="#bfbfbf" stroke="none" d="M 220.845 365.619L 240.178 364.619L 257.178 372.619L 282.178 368.619L 271.178 386.619L 287.178 395.619L 311.178 409.619L 332.178 405.619L 384.178 393.619L 350.178 381.619L 369.178 364.619L 344.845 364.286L 345.512 353.619L 324.845 348.952L 329.178 331.619L 321.178 326.619L 296.178 340.952L 296.845 321.619L 271.512 338.952L 276.845 322.952L 251.512 339.619L 254.178 321.619L 233.178 344.619L 220.845 365.619z"/>
<path fill="#e5e5e5" stroke-width="3" stroke="#ffffff" d="M 582.71 446.807C 582.335 441.057 578.147 435.869 573.835 432.275C 574.272 432.432 574.803 432.432 575.116 432.869C 572.21 428.775 566.491 427.807 562.397 430.744C 558.303 433.682 557.366 439.369 560.303 443.463C 561.303 446.119 563.71 448.244 566.772 448.963C 566.522 448.588 566.303 448.213 566.053 447.838C 569.803 450.244 574.303 450.9 578.241 452.838C 579.928 454.057 582.272 453.713 583.491 452.057C 584.741 450.369 584.366 448.025 582.71 446.807L 582.71 446.807z"/>
<path fill="#e5e5e5" stroke-width="3" stroke="#ffffff" d="M 583.741 421.182C 584.085 421.119 584.428 421.088 584.772 421.025C 584.272 420.557 583.241 420.525 584.21 418.807C 582.741 415.432 579.866 412.338 575.991 411.963C 572.303 411.338 568.835 413.838 568.21 417.494C 567.616 421.182 570.085 424.65 573.772 425.275L 572.866 424.838C 573.178 424.994 573.46 425.119 573.772 425.275C 573.366 425.088 572.928 424.932 572.522 424.744C 574.928 424.963 576.866 426.369 579.178 426.994C 580.241 427.307 581.46 427.307 582.616 427.057C 584.241 427.369 585.803 426.307 586.116 424.682C 586.428 423.057 585.366 421.494 583.741 421.182L 583.741 421.182z"/>
<path fill="#e5e5e5" stroke-width="3" stroke="#ffffff" d="M 595.678 440.9C 595.053 438.213 595.178 434.994 592.866 433.025C 593.241 433.182 593.647 433.369 594.022 433.525C 593.491 432.9 592.928 432.307 592.335 431.744C 589.053 429.525 584.585 430.369 582.366 433.619C 580.116 436.9 580.96 441.4 584.241 443.619C 583.897 443.307 583.553 443.025 583.21 442.713C 583.522 443.057 583.835 443.369 584.147 443.713C 584.022 443.338 583.928 442.963 583.803 442.588C 584.366 443.338 585.085 443.932 585.835 444.494C 585.585 444.119 585.303 443.744 585.053 443.369C 585.397 443.682 585.741 443.994 586.085 444.307C 585.897 443.963 585.741 443.619 585.553 443.275C 585.96 443.588 585.835 444.65 587.366 443.432C 588.116 444.525 589.241 444.15 590.272 444.557C 591.303 446.025 593.335 446.432 594.803 445.4C 596.303 444.4 596.678 442.369 595.678 440.9L 595.678 440.9z"/>
<path fill="#e5e5e5" stroke-width="3" stroke="#ffffff" d="M 555.053 417.213C 555.366 417.057 555.71 416.869 556.022 416.713C 554.897 415.432 553.741 414.307 551.96 414.057C 552.553 414.15 553.116 414.213 553.71 414.307C 553.647 414.338 553.585 414.338 553.522 414.369C 550.616 412.9 547.085 414.088 545.616 416.994C 544.147 419.9 545.335 423.463 548.241 424.932C 549.335 425.557 550.428 426.088 551.71 426.182C 551.897 424.213 555.085 424.557 556.491 423.4C 558.21 423.025 559.272 421.307 558.866 419.588C 558.46 417.869 556.772 416.838 555.053 417.213L 555.053 417.213z"/>
<path fill="#e5e5e5" stroke-width="3" stroke="#ffffff" d="M 593.96 464.025C 592.585 461.9 590.71 460.275 588.772 458.744C 589.21 458.775 589.616 458.775 590.053 458.807C 589.866 458.775 589.71 458.744 589.522 458.713C 585.96 456.338 581.147 457.307 578.772 460.869C 576.428 464.432 577.397 469.244 580.96 471.619C 581.366 473.963 584.178 473.713 585.803 474.525C 585.585 474.244 585.366 473.994 585.147 473.713C 586.835 473.9 588.866 474.275 590.085 472.65C 592.678 473.619 595.553 472.307 596.491 469.713C 597.46 467.15 596.147 464.275 593.585 463.307L 593.96 464.025z"/>
<path fill="#e5e5e5" stroke-width="3" stroke="#ffffff" d="M 571.616 471.525C 569.647 470.9 567.647 470.338 565.71 469.65C 563.928 469.088 562.022 470.057 561.428 471.807C 560.835 473.588 561.803 475.494 563.585 476.088C 565.585 476.775 567.71 476.775 569.741 477.307C 571.366 477.838 573.053 476.963 573.585 475.338C 574.085 473.744 573.21 472.025 571.616 471.525L 571.616 471.525z"/>
<path fill="#e5e5e5" stroke-width="3" stroke="#ffffff" d="M 582.585 479.932C 581.835 479.4 581.085 478.9 580.272 478.463C 578.397 477.682 576.21 478.588 575.428 480.494C 574.647 482.4 575.553 484.557 577.46 485.338C 578.335 485.619 579.241 485.807 580.178 485.932C 581.835 486.588 583.71 485.775 584.366 484.119C 585.022 482.463 584.241 480.588 582.585 479.932L 582.585 479.932z"/>
<path fill="#e5e5e5" stroke-width="3" stroke="#ffffff" d="M 595.678 450.15C 594.71 449.244 594.116 447.963 592.928 447.244C 591.053 446.119 588.616 446.713 587.491 448.588C 586.366 450.432 586.96 452.869 588.835 453.994C 589.835 454.463 590.897 454.807 591.897 455.275C 593.303 456.307 595.303 456.025 596.335 454.619C 597.366 453.182 597.085 451.213 595.678 450.15L 595.678 450.15z"/>
<path fill="#dfdfbf" stroke="none" d="M 125.928 449.119L 128.678 459.369L 155.928 463.869L 168.428 460.119L 164.928 444.869L 150.428 453.619L 125.928 449.119z"/>
<path fill="#ffbfff" stroke="none" d="M 160.928 421.619L 170.178 414.369L 179.428 423.119L 169.428 425.119C 169.428 425.119 174.178 423.369 172.178 421.369C 170.178 419.369 170.928 420.119 166.428 420.619C 161.928 421.119 160.928 421.619 160.928 421.619z"/>
</g>
<g>
<path fill="none" stroke-width="6" stroke="#000000" d="M 255.178 373.619C 266.178 370.619 275.178 368.619 286.178 371.119C 274.625 376.174 280.387 381.728 268.678 386.119"/>
<path fill="none" stroke-width="6" stroke="#000000" d="M 268.178 382.952C 267.512 387.619 268.845 392.286 267.512 396.952C 266.178 401.619 264.178 406.286 261.512 410.286C 260.845 411.619 260.178 413.619 258.178 414.952C 258.178 415.619 258.178 416.952 258.178 417.619C 254.845 420.286 246.178 431.619 242.845 432.286C 233.512 435.619 224.178 434.952 214.178 436.286"/>
<path fill="none" stroke-width="6" stroke="#000000" d="M 217.512 431.619C 214.178 431.619 216.845 434.952 214.178 436.286C 210.178 438.952 206.178 440.286 198.178 442.286C 196.133 442.797 194.178 444.286 192.178 443.619C 192.178 444.286 192.178 444.952 192.178 445.619C 182.845 450.952 173.512 455.619 166.178 463.619C 166.178 463.619 165.512 462.952 166.178 463.619C 164.178 462.952 164.178 463.619 163.512 464.286C 162.845 464.952 162.178 465.619 161.512 465.619C 149.512 463.619 145.512 462.286 133.512 459.619C 133.512 459.619 128.249 457.321 128.845 457.619C 136.845 461.619 144.845 465.619 152.178 463.619C 157.512 462.952 160.178 460.286 164.845 458.286C 168.178 457.619 167.512 446.952 166.178 443.619C 161.767 443.419 155.323 452.611 150.845 452.952C 140.436 453.747 128.845 449.619 122.178 446.952C 116.178 440.952 122.845 435.619 122.178 428.286C 122.178 428.286 129.512 416.952 134.845 414.952C 152.468 408.344 159.512 399.619 177.512 393.619C 180.845 392.286 188.178 384.952 190.845 382.286C 197.512 375.619 210.178 366.286 222.178 366.286"/>
<path fill="none" stroke-width="6" stroke="#000000" d="M 159.512 419.619C 164.178 416.286 170.178 413.619 175.512 416.286C 178.178 417.619 178.178 424.286 175.512 426.952C 174.845 428.286 171.512 427.619 169.512 427.619"/>
<path fill="none" stroke-width="6" stroke="#000000" d="M 216.178 393.619C 214.178 393.619 211.512 392.952 210.845 394.286C 208.845 396.286 210.178 399.619 210.178 402.952C 210.178 404.286 212.178 402.952 212.178 404.286C 216.178 402.286 220.178 400.952 222.845 397.619C 224.178 394.952 220.845 394.286 218.178 394.286"/>
<path fill="none" stroke-width="6" stroke="#000000" d="M 191.512 387.619C 192.178 387.619 193.512 387.619 194.178 387.619C 194.845 390.286 194.845 394.286 193.512 395.619C 192.178 396.952 188.178 396.286 185.512 396.286C 185.512 394.952 185.512 392.952 186.178 391.619"/>
<path fill="none" stroke-width="6" stroke="#000000" d="M 176.845 458.795C 182.573 458.795 187.216 453.94 187.216 447.952C 187.216 441.964 182.573 437.11 176.845 437.11C 171.117 437.11 166.474 441.964 166.474 447.952C 166.474 453.94 171.117 458.795 176.845 458.795z"/>
<path fill="none" stroke-width="6" stroke="#000000" d="M 391.512 416.952C 391.512 416.286 391.512 415.619 391.512 415.619C 390.845 415.619 389.512 415.619 389.512 415.619C 388.845 412.952 391.512 408.952 389.512 408.286C 384.845 405.619 377.512 406.286 372.845 402.286C 368.178 398.952 376.845 396.952 376.178 392.286C 370.178 392.286 364.845 388.286 358.845 386.286C 356.178 385.619 353.512 384.952 351.512 382.286C 350.845 380.952 351.512 379.619 352.178 378.286C 357.512 372.952 365.512 371.619 369.512 365.619C 361.512 365.619 353.512 364.952 345.512 364.286C 343.512 363.619 348.178 355.619 346.845 352.952C 350.845 352.286 321.512 352.286 325.512 351.619C 317.512 340.952 334.178 338.286 325.512 328.286C 313.512 328.286 308.178 342.286 296.178 342.286C 299.512 338.952 298.845 323.619 298.845 318.286C 290.845 316.952 279.512 336.952 272.178 339.619C 272.845 334.952 281.512 326.286 278.845 321.619C 268.845 326.286 261.512 334.952 251.512 340.286C 252.178 334.952 254.845 328.952 254.845 323.619C 238.845 337.619 228.845 347.619 218.178 365.619"/>
<path fill="none" stroke-width="6" stroke="#000000" d="M 251.512 426.286C 254.845 427.619 259.512 432.286 262.845 434.286C 271.512 439.619 275.512 440.286 284.178 445.619C 290.178 449.619 292.178 451.619 297.512 455.619L 307.512 461.619"/>
<path fill="none" stroke-width="6" stroke="#000000" d="M 294.845 512.952C 288.845 510.286 285.512 504.952 284.178 499.619C 284.178 498.952 280.845 497.619 281.512 490.286C 282.6 478.317 286.178 468.286 290.845 456.952C 291.892 454.411 288.178 461.619 286.845 464.286"/>
<path fill="none" stroke-width="6" stroke="#000000" d="M 330.845 411.619C 333.512 414.286 336.845 414.952 339.512 414.952C 356.178 416.286 372.845 414.286 389.512 415.619C 399.512 417.619 408.178 415.619 418.178 416.952C 429.512 418.952 440.845 421.619 452.178 422.286C 464.178 422.286 476.845 423.619 488.178 418.952C 487.512 418.952 487.512 418.952 486.845 418.952"/>
<path fill="none" stroke-width="6" stroke="#000000" d="M 496.845 412.952C 502.178 408.286 506.845 402.952 514.178 400.286C 514.845 400.286 515.512 401.619 516.178 401.619C 523.512 394.952 533.512 393.619 542.845 394.286C 544.178 394.952 544.845 396.952 546.845 396.952"/>
<path fill="none" stroke-width="6" stroke="#000000" d="M 358.845 540.952C 363.845 540.952 375.512 542.286 379.512 540.286C 389.512 535.286 392.845 534.286 402.845 528.286C 409.845 523.286 419.178 522.619 428.178 517.619C 439.178 511.619 450.178 500.952 458.178 490.952C 481.178 483.952 494.512 479.952 519.512 480.952C 520.512 480.952 524.178 473.619 524.178 473.619C 525.512 476.286 526.845 479.619 528.845 480.286C 538.178 482.952 545.512 487.619 554.178 490.952C 554.845 491.619 556.845 491.619 556.178 493.619C 578.178 498.952 600.845 502.286 623.512 501.619"/>
<path fill="none" stroke-width="6" stroke="#000000" d="M 769.512 570.952"/>
<path fill="none" stroke-width="6" stroke="#000000" d="M 766.845 570.952C 760.776 568.525 719.343 553.573 687.113 542.193"/>
<path fill="none" stroke-width="6" stroke="#000000" d="M 687.113 542.193C 666.24 534.823 649.227 528.952 648.178 528.952C 647.512 529.619 625.512 498.952 625.512 498.952C 625.512 498.952 621.512 480.952 620.178 472.286C 619.512 462.952 612.178 451.619 609.512 442.952C 604.845 429.619 600.845 413.619 588.178 406.952C 575.512 400.286 560.845 399.619 546.845 399.619"/>
<path fill="none" stroke-width="6" stroke="#000000" d="M 371.178 518.619C 366.178 529.619 360.178 539.619 352.178 548.619C 345.178 554.619 339.178 560.619 332.178 566.619C 326.178 570.619 319.178 572.619 312.178 571.619C 305.178 570.619 294.51 567.981 290.178 571.619C 265.178 592.619 244.131 618.574 221.178 642.619C 200.178 664.619 185.178 690.619 169.178 716.619C 168.178 718.619 166.178 721.619 167.178 724.619C 169.48 731.526 167.178 739.619 167.178 747.619"/>
<path fill="none" stroke-width="6" stroke="#000000" d="M 295.512 517.619C 290.178 535.619 288.178 553.619 290.178 571.619"/>
<path fill="none" stroke-width="6" stroke="#000000" d="M 118.178 604.619C 118.178 596.619 116.178 588.619 122.178 583.619C 144.178 564.619 168.178 549.619 191.178 532.619C 213.054 516.45 241.178 511.619 266.178 499.619C 270.178 497.619 274.178 495.619 278.178 494.619"/>
<path fill="none" stroke-width="6" stroke="#000000" d="M 660.178 535.619"/>
<path fill="none" stroke-width="6" stroke="#000000" d="M 576.178 503.619"/>
<path fill="none" stroke-width="6" stroke="#000000" d="M 682.178 531.619"/>
<path fill="none" stroke-width="6" stroke="#000000" d="M 558.178 391.619C 588.178 385.619 582.178 345.619 592.178 323.619C 624.178 323.619 654.178 323.619 686.178 323.619"/>
<path fill="none" stroke-width="6" stroke="#000000" d="M 682.178 379.619C 662.178 379.619 642.178 379.619 622.178 379.619C 614.178 379.619 604.178 367.619 594.178 369.619"/>
<path fill="none" stroke-width="6" stroke="#000000" d="M 295.512 517.619C 296.178 512.952 298.178 504.952 300.845 500.286"/>
<path fill="none" stroke-width="6" stroke="#000000" d="M 300.845 444.952C 310.845 432.952 310.178 423.619 326.178 419.619"/>
</g>
<g>
<path fill="#ffffff" stroke="none" d="M 388.178 391.619L 420.178 421.619L 330.178 407.619L 377.178 433.619L 266.178 424.619L 306.178 445.619L 197.178 439.619L 388.178 391.619z"/>
<path fill="#ffb299" stroke="none" d="M 324.678 206.619C 324.678 206.619 314.678 242.619 320.678 255.119C 326.678 267.619 336.178 284.619 355.178 286.119C 374.178 287.619 398.178 283.119 406.178 280.619C 414.178 278.119 417.678 258.119 416.678 255.119C 415.678 252.119 362.178 182.119 362.178 182.119L 324.678 206.619z"/>
<path fill="#7f7f00" stroke="none" d="M 326.678 233.119L 332.178 231.119L 333.678 249.619L 327.178 246.619L 326.678 233.119z"/>
<path fill="#7f7f00" stroke="none" d="M 355.678 236.619L 362.178 240.119L 358.678 253.119L 352.178 251.119L 352.178 238.619L 355.678 236.619z"/>
<path fill="#594c00" stroke="none" d="M 333.178 207.619L 341.678 227.619L 354.178 237.619L 351.678 220.119L 370.178 229.119L 367.678 218.119L 375.678 222.119L 362.678 207.119L 333.178 207.619z"/>
<path fill="#7f7f00" stroke="none" d="M 338.678 207.619C 338.678 207.619 340.678 215.119 342.678 219.119C 344.678 223.119 350.178 234.119 350.178 234.119C 350.178 234.119 336.178 226.119 334.678 219.619C 333.178 213.119 332.678 206.119 332.678 206.119L 338.678 207.619z"/>
<path fill="#7f7f00" stroke="none" d="M 351.178 218.119L 348.178 210.619L 366.678 221.119L 367.678 228.619L 351.178 218.119z"/>
<path fill="#7fbfff" stroke="none" d="M 324.678 206.619L 365.178 206.619C 365.178 206.619 359.178 196.619 350.178 197.119C 341.178 197.619 326.178 198.619 326.178 198.619L 324.678 206.619z"/>
<path fill="#7fbfff" stroke="none" d="M 323.678 197.619L 362.178 161.619C 362.178 161.619 387.678 179.119 392.178 191.119C 396.678 203.119 404.678 231.119 404.678 231.119L 384.178 228.619C 384.178 228.619 361.678 199.619 353.678 198.119C 345.678 196.619 323.678 197.619 323.678 197.619z"/>
<path fill="#7fbfff" stroke="none" d="M 386.678 180.119C 386.678 180.119 413.178 181.619 415.678 193.119C 418.178 204.619 421.178 251.119 421.178 251.119L 427.178 280.619L 398.178 257.619C 398.178 257.619 388.178 260.119 384.678 249.119C 381.178 238.119 384.178 228.619 384.178 228.619L 386.678 180.119z"/>
<path fill="#bfdfff" stroke="none" d="M 372.678 184.119L 377.178 188.619L 366.178 200.119L 362.178 194.619L 372.678 184.119z"/>
<path fill="#bfdfff" stroke="none" d="M 347.678 186.119L 362.178 173.119L 364.678 178.119L 350.178 190.119L 347.678 186.119z"/>
<path fill="#bfdfff" stroke="none" d="M 381.678 196.119L 384.178 203.119L 377.678 208.119L 373.178 203.119L 381.678 196.119z"/>
<path fill="none" stroke-width="6" stroke="#bfdfff" d="M 400.178 233.119C 399.178 229.619 392.678 229.619 390.678 230.619C 385.178 234.119 386.178 241.619 386.678 247.619"/>
<path fill="none" stroke-width="6" stroke="#bfdfff" d="M 389.178 182.619C 392.678 184.119 396.178 184.119 399.678 185.619C 403.178 187.619 407.178 189.119 410.178 192.619"/>
<path fill="none" stroke-width="6" stroke="#bfdfff" d="M 332.678 192.619C 341.678 183.619 351.178 175.619 361.178 167.119C 361.678 167.119 362.678 167.119 363.178 167.119C 368.678 172.619 374.678 176.619 379.678 182.119"/>
<path fill="none" stroke-width="6" stroke="#bfdfff" d="M 329.178 204.619C 329.178 204.119 328.678 203.119 329.678 202.619"/>
<path fill="#7fbfff" stroke="none" d="M 301.845 332.619L 312.178 333.619L 310.845 307.619L 282.178 318.952L 282.178 312.286L 262.678 310.952L 260.845 322.286L 261.512 329.119L 271.345 322.452L 281.949 318.327L 282.178 325.786L 301.845 309.952L 301.845 332.619z"/>
<path fill="#7fbfff" stroke="none" d="M 238.678 302.286L 250.678 304.286L 250.012 323.619L 239.345 334.286L 238.678 302.286z"/>
<path fill="#7fbfff" stroke="none" d="M 119.178 324.119L 130.678 317.119L 239.678 314.119L 237.178 328.619L 129.178 329.619L 119.178 324.119z"/>
<path fill="#bfdfff" stroke="none" d="M 121.178 322.119L 238.178 322.619L 239.678 314.119L 129.678 314.619L 121.178 322.119z"/>
<path fill="none" stroke-width="4" stroke="#ffffff" d="M 124.178 322.619L 130.178 318.619L 236.678 319.119"/>
<path fill="none" stroke-width="4" stroke="#bfdfff" d="M 247.178 306.619L 241.678 305.619L 241.178 331.119"/>
<path fill="#ff0000" stroke="none" d="M 389.678 395.119L 420.178 423.119L 336.178 409.119L 350.678 404.119L 389.178 410.619L 374.178 398.619L 389.678 395.119z"/>
<path fill="#7fbfff" stroke="none" d="M 422.428 377.619L 427.678 399.119L 399.178 394.619L 397.928 398.369L 386.178 401.619L 380.678 386.869L 389.928 382.119L 393.512 384.286L 422.428 377.619z"/>
<path fill="#ff0000" stroke="none" d="M 328.678 410.619L 377.178 433.619L 268.178 424.619L 290.678 419.119L 337.178 425.119L 312.178 413.619L 328.678 410.619z"/>
<path fill="#ff0000" stroke="none" d="M 256.178 426.619L 302.678 446.119L 203.178 439.619L 223.178 434.619L 264.178 437.619L 243.678 429.119L 256.178 426.619z"/>
<path fill="#9f3f3f" stroke="none" d="M 414.178 423.619C 414.178 423.619 423.678 445.119 429.678 451.619C 435.678 458.119 433.178 458.619 443.678 460.119C 454.178 461.619 460.678 457.119 479.178 454.119C 506.341 449.714 506.016 450.024 514.178 441.119C 519.678 435.119 525.178 432.119 518.178 429.119C 511.178 426.119 493.178 420.119 493.178 420.119C 493.178 420.119 478.178 425.619 463.178 426.119C 450.176 426.553 418.678 420.119 418.678 420.119L 411.678 415.619L 414.178 423.619z"/>
<path fill="none" stroke-width="1" stroke="#ffff00" d="M 491.678 417.119L 491.678 426.619L 503.678 422.119L 501.678 431.119L 513.178 428.119L 505.178 435.119L 513.178 438.119L 504.178 440.119L 502.678 447.119L 495.178 443.619L 490.178 450.619L 481.178 445.619L 477.178 454.619L 469.178 450.619L 462.178 458.119L 457.178 449.619L 448.178 459.119L 446.178 449.619L 436.678 454.619L 434.178 445.119L 427.678 444.119L 431.178 434.619L 423.678 433.619L 428.678 425.119L 417.178 422.619L 416.678 414.619"/>
<path fill="#7fffff" stroke="none" d="M 384.178 302.952C 384.178 302.952 420.178 300.286 437.512 288.952C 444.019 284.698 446.178 260.286 446.178 260.286L 456.845 270.286L 471.512 261.619L 506.178 260.952C 506.178 260.952 521.512 247.619 534.178 244.952C 546.845 242.286 572.178 232.286 588.845 238.286C 605.512 244.286 628.845 246.952 638.845 248.952C 648.845 250.952 661.512 249.619 661.512 249.619C 661.512 249.619 598.191 292.467 574.845 298.952C 550.845 305.619 510.178 318.286 485.512 321.619C 460.845 324.952 395.512 318.286 395.512 318.286L 384.178 302.952z"/>
<path fill="#3fffff" stroke="none" d="M 506.178 260.952L 491.512 262.286C 491.512 262.286 480.845 278.952 468.845 284.286C 456.845 289.619 440.845 297.619 440.845 297.619C 440.845 297.619 476.845 288.286 483.512 282.952C 490.178 277.619 506.178 260.952 506.178 260.952z"/>
<path fill="#3fffff" stroke="none" d="M 452.178 266.286L 443.512 278.286L 456.845 270.286L 452.178 266.286z"/>
<path fill="#3fffff" stroke="none" d="M 620.178 244.286C 620.178 244.286 600.178 265.619 580.845 274.952C 561.512 284.286 515.512 306.286 515.512 306.286C 515.512 306.286 598.845 284.286 610.178 276.952C 621.512 269.619 648.178 248.286 648.178 248.286L 620.178 244.286z"/>
<path fill="none" stroke-width="1" stroke="#ffffff" d="M 503.512 265.619C 503.512 265.619 520.845 252.952 532.845 251.619C 544.845 250.286 560.845 248.952 576.845 251.619C 592.845 254.286 602.178 255.619 615.512 258.952C 628.845 262.286 636.178 263.619 645.512 260.286"/>
<path fill="none" stroke-width="1" stroke="#ffffff" d="M 451.512 276.286C 451.512 276.286 454.845 275.619 464.845 273.619C 474.845 271.619 476.845 271.619 482.845 272.952C 488.845 274.286 492.845 274.952 492.845 274.952"/>
<path fill="#7fbfff" stroke="none" d="M 177.178 456.236C 181.474 456.236 184.956 452.49 184.956 447.869C 184.956 443.248 181.474 439.502 177.178 439.502C 172.883 439.502 169.4 443.248 169.4 447.869C 169.4 452.49 172.883 456.236 177.178 456.236z"/>
<path fill="none" stroke-width="4" stroke="#ffffff" d="M 178.678 440.668C 176.345 440.452 173.512 442.119 172.178 444.119C 170.845 446.119 170.012 448.452 171.178 450.952"/>
</g>
<g>
<path fill="none" stroke-width="6" stroke="#000000" d="M 378.178 289.619C 382.178 331.619 462.178 365.619 462.178 407.619C 462.178 413.619 420.178 567.619 416.178 577.619L 386.178 573.619"/>
<path fill="none" stroke-width="6" stroke="#000000" d="M 327.228 203.219"/>
<path fill="none" stroke-width="6" stroke="#000000" d="M 327.228 203.219C 324.574 206.21 322.742 209.676 322.178 213.619C 318.178 229.619 318.678 258.619 328.678 268.619C 346.678 290.619 372.178 289.619 402.178 281.619C 412.178 279.619 409.717 280.061 414.678 272.619"/>
<path fill="none" stroke-width="6" stroke="#000000" d="M 311.512 320.286C 361.512 314.286 334.845 318.952 386.845 312.952"/>
<path fill="none" stroke-width="6" stroke="#000000" d="M 426.38 380.926C 445.434 374.938 494.178 355.619 494.178 355.619L 396.178 319.619C 396.178 317.619 394.178 317.619 396.178 319.619C 398.178 315.619 396.178 319.619 396.178 319.619C 434.178 319.619 472.178 325.619 510.178 315.619C 568.178 303.619 626.178 287.619 666.178 243.619"/>
<path fill="none" stroke-width="6" stroke="#000000" d="M 393.512 384.286L 422.178 376.286L 428.181 400.022L 397.678 395.244L 398.845 398.286L 386.178 401.619L 378.845 386.952L 389.678 380.619L 393.512 384.286z"/>
<path fill="none" stroke-width="6" stroke="#000000" d="M 118.178 359.619C 134.178 359.619 152.178 363.619 168.178 357.619C 182.178 353.619 198.178 359.619 210.178 349.619"/>
<path fill="none" stroke-width="6" stroke="#000000" d="M 460.178 401.619L 431.784 413.867"/>
<path fill="none" stroke-width="6" stroke="#000000" d="M 277.761 480.309L 256.178 489.619L 230.178 475.619"/>
<path fill="none" stroke-width="6" stroke="#000000" d="M 393.736 403.296L 419.512 423.619L 330.178 410.286L 380.845 436.952L 258.178 426.286L 308.178 447.619L 188.178 440.286L 382.711 396.763"/>
<path fill="none" stroke-width="6" stroke="#000000" d="M 384.428 383.119C 382.928 379.869 380.678 376.619 381.428 372.869C 383.428 371.869 385.928 372.369 387.928 371.369C 387.928 367.369 382.178 367.869 380.178 364.869C 379.678 363.869 380.428 363.119 381.428 362.619C 384.428 361.369 387.178 360.119 390.428 359.619"/>
<path fill="none" stroke-width="6" stroke="#000000" d="M 393.928 256.279C 400.372 256.279 405.596 249.156 405.596 240.369C 405.596 231.582 400.372 224.459 393.928 224.459C 387.485 224.459 382.261 231.582 382.261 240.369C 382.261 249.156 387.485 256.279 393.928 256.279z"/>
<path fill="none" stroke-width="6" stroke="#000000" d="M 384.178 232.119C 384.178 232.119 358.178 199.119 349.178 197.119C 340.178 195.119 321.178 200.119 321.178 200.119L 361.678 161.619C 361.678 161.619 379.178 171.619 388.178 188.119C 397.178 204.619 404.178 232.619 404.178 232.619"/>
<path fill="none" stroke-width="6" stroke="#000000" d="M 344.678 187.619"/>
<path fill="none" stroke-width="6" stroke="#000000" d="M 362.178 172.619L 346.178 187.119"/>
<path fill="none" stroke-width="6" stroke="#000000" d="M 362.178 196.119L 372.678 184.119"/>
<path fill="none" stroke-width="6" stroke="#000000" d="M 373.178 204.619L 380.678 196.619"/>
<path fill="none" stroke-width="6" stroke="#000000" d="M 395.678 256.119C 395.678 256.119 397.678 260.119 405.678 267.119C 413.678 274.119 425.678 281.119 425.678 281.119C 425.678 281.119 419.178 268.619 420.178 261.619C 420.178 261.619 422.178 247.619 420.178 232.119C 418.178 216.619 422.178 197.119 411.678 190.119C 401.178 183.119 393.178 178.119 383.178 177.619"/>
<path fill="none" stroke-width="6" stroke="#000000" d="M 324.678 208.119C 336.178 204.619 348.178 206.619 360.178 206.119"/>
<path fill="none" stroke-width="6" stroke="#000000" d="M 332.678 209.119C 333.678 212.619 333.178 216.119 335.178 219.119C 337.678 223.119 340.178 226.119 343.178 229.619C 346.178 232.619 350.178 234.619 354.178 237.119C 354.678 233.619 352.178 231.119 352.178 228.119C 352.178 225.119 350.178 222.619 350.178 219.619C 356.178 220.619 369.178 229.119 369.178 229.119L 366.678 218.619C 366.678 218.619 368.178 217.119 371.178 216.619"/>
<path fill="none" stroke-width="6" stroke="#000000" d="M 325.678 230.619"/>
<path fill="none" stroke-width="6" stroke="#000000" d="M 334.116 233.619C 335.616 238.119 335.616 243.619 334.116 247.619C 332.616 251.119 331.678 249.619 328.178 250.119C 326.12 246.001 324.737 241.57 327.178 232.619C 328.178 229.119 333.616 232.119 334.116 233.619z"/>
<path fill="none" stroke-width="6" stroke="#000000" d="M 353.491 252.932C 355.991 254.932 357.491 256.932 358.991 254.432C 360.68 251.615 365.655 240.602 359.678 236.119C 357.678 234.619 353.678 233.619 352.678 236.119C 351.678 238.619 350.991 250.932 353.491 252.932z"/>
<path fill="none" stroke-width="6" stroke="#000000" d="M 328.678 265.619C 328.678 265.619 345.178 266.119 353.678 268.119C 362.178 270.119 368.678 272.619 368.678 272.619"/>
<path fill="none" stroke-width="6" stroke="#000000" d="M 672.178 241.619C 656.178 253.619 638.178 249.619 622.178 245.619C 594.178 239.619 568.178 235.619 542.178 241.619C 514.178 249.619 498.178 275.619 472.178 289.619C 446.178 305.619 416.178 305.619 386.178 303.619C 420.162 305.885 438.178 287.619 462.178 267.619C 472.178 257.619 488.178 261.619 502.178 261.619"/>
<path fill="none" stroke-width="6" stroke="#000000" d="M 456.178 269.619C 452.178 265.619 450.178 261.619 448.178 257.619C 442.178 265.619 444.178 273.619 442.178 281.619"/>
<path fill="none" stroke-width="6" stroke="#000000" d="M 238.845 328.952L 238.845 316.286L 129.428 316.286L 116.928 323.244L 129.428 328.952L 238.845 328.952z"/>
<path fill="none" stroke-width="6" stroke="#000000" d="M 250.178 326.619L 250.178 302.952L 238.845 302.952L 238.845 333.952"/>
<path fill="none" stroke-width="6" stroke="#000000" d="M 260.845 325.619L 262.845 310.952L 280.845 314.952L 282.845 320.286L 308.845 309.619L 310.845 333.619L 298.178 334.286"/>
<path fill="none" stroke-width="6" stroke="#000000" d="M 407.178 425.119C 407.178 425.119 417.178 423.119 422.178 438.119C 427.178 453.119 435.178 458.619 435.178 458.619L 442.678 460.119"/>
<path fill="none" stroke-width="6" stroke="#000000" d="M 451.178 461.119C 451.178 461.119 457.178 463.119 473.178 458.119C 489.178 453.119 503.178 452.619 509.178 446.619C 515.178 440.619 524.178 437.619 516.178 428.619C 508.178 419.619 500.178 422.119 496.178 418.619C 492.178 415.119 491.178 415.119 491.178 415.119L 488.178 419.119"/>
</g>
<g>
<g>
<g>
<path fill="none" stroke-width="3" stroke="#ffffff" d="M 503.178 284.119L 311.178 118.119"/>
<path fill="none" stroke-width="3" stroke="#ffffff" d="M 490.178 105.119L 324.178 297.119"/>
</g>
<g>
<path fill="none" stroke-width="1" stroke="#ffffff" d="M 599.178 367.119L 215.178 35.1191"/>
<path fill="none" stroke-width="1" stroke="#ffffff" d="M 573.178 9.11908L 241.178 393.119"/>
</g>
</g>
<g>
<g>
<path fill="none" stroke-width="3" stroke="#ffffff" d="M 293.241 401.057L 101.241 235.057"/>
<path fill="none" stroke-width="3" stroke="#ffffff" d="M 280.241 222.057L 114.241 414.057"/>
</g>
<g>
<path fill="none" stroke-width="1" stroke="#ffffff" d="M 389.241 484.057L 5.24084 152.057"/>
<path fill="none" stroke-width="1" stroke="#ffffff" d="M 363.241 126.057L 31.2408 510.057"/>
</g>
</g>
<path fill="none" stroke-width="1" stroke="#ffffff" d="M 391.178 397.619"/>
</g>
</svg>