<svg xmlns="http://www.w3.org/2000/svg"
	xmlns:xlink="http://www.w3.org/1999/xlink"
	viewBox="55.3 21.5 577 792"
	width="633.26" height="813.963">
<g>
<path fill="#ffbf7f" stroke="none" d="M 632.297 813.463L 632.297 21.4634L 55.2967 21.4634L 55.2967 813.463L 632.297 813.463z"/>
</g>
<g>
<path fill="#bfffff" stroke="none" d="M 54.7967 515.463L 54.7967 21.4634L 122.297 20.9634L 122.297 515.463L 54.7967 515.463z"/>
<path fill="#7f7fbf" stroke="none" d="M 632.797 813.463L 632.797 681.463L 54.7967 681.463L 55.7967 813.963L 632.797 813.463z"/>
<path fill="#bfffff" stroke-width="4" stroke="#ff7f00" d="M 510.297 20.9634L 510.297 515.463L 612.297 515.463L 612.297 20.9634"/>
<path fill="#bfffff" stroke-width="4" stroke="#ff7f00" d="M 54.7967 515.463L 122.297 515.463L 122.297 20.9634"/>
<path fill="none" stroke-width="4" stroke="#3fffff" d="M 514.963 63.4634L 607.63 63.4634"/>
<path fill="none" stroke-width="4" stroke="#3fffff" d="M 514.963 118.838L 607.63 118.838"/>
<path fill="none" stroke-width="4" stroke="#3fffff" d="M 514.963 174.213L 607.63 174.213"/>
<path fill="none" stroke-width="4" stroke="#3fffff" d="M 514.963 229.588L 607.63 229.588"/>
<path fill="none" stroke-width="4" stroke="#3fffff" d="M 514.963 284.963L 607.63 284.963"/>
<path fill="none" stroke-width="4" stroke="#3fffff" d="M 514.963 340.338L 607.63 340.338"/>
<path fill="none" stroke-width="4" stroke="#3fffff" d="M 514.963 395.713L 607.63 395.713"/>
<path fill="none" stroke-width="4" stroke="#3fffff" d="M 514.963 451.088L 607.63 451.088"/>
<path fill="none" stroke-width="4" stroke="#3fffff" d="M 20.9634 63.4634L 113.63 63.4634"/>
<path fill="none" stroke-width="4" stroke="#3fffff" d="M 20.9634 118.838L 113.63 118.838"/>
<path fill="none" stroke-width="4" stroke="#3fffff" d="M 20.9634 174.213L 113.63 174.213"/>
<path fill="none" stroke-width="4" stroke="#3fffff" d="M 20.9634 229.588L 113.63 229.588"/>
<path fill="none" stroke-width="4" stroke="#3fffff" d="M 20.9634 284.963L 113.63 284.963"/>
<path fill="none" stroke-width="4" stroke="#3fffff" d="M 20.9634 340.338L 113.63 340.338"/>
<path fill="none" stroke-width="4" stroke="#3fffff" d="M 20.9634 395.713L 113.63 395.713"/>
<path fill="none" stroke-width="4" stroke="#3fffff" d="M 20.9634 451.088L 113.63 451.088"/>
<path fill="none" stroke-width="4" stroke="#3fffff" d="M 562.297 511.463L 562.297 21.4634"/>
<path fill="none" stroke-width="4" stroke="#3fffff" d="M 68.2967 511.463L 68.2967 21.4634"/>
</g>
<g>
<path fill="#bfbf7f" stroke="none" d="M 219.259 61.4634L 230.259 61.4634L 233.259 120.463C 233.259 120.463 288.259 103.463 310.259 105.463C 332.259 107.463 392.259 122.463 392.259 122.463L 394.259 58.4634L 406.259 58.4634L 404.259 126.463C 404.259 126.463 431.259 145.463 426.259 161.463C 421.259 177.463 406.259 188.463 406.259 188.463L 407.259 563.463L 409.259 765.463L 375.259 765.463L 373.259 743.463L 346.259 734.463L 346.259 778.463L 330.259 778.463L 329.259 731.463C 329.259 731.463 302.259 725.463 290.259 729.463C 278.259 733.463 249.259 736.463 249.259 736.463L 250.259 763.463L 216.259 765.463L 216.259 587.463L 177.259 590.463L 169.259 778.463L 151.259 779.463L 151.259 560.463L 218.259 560.463L 220.259 186.463L 235.259 195.463L 244.259 559.463L 248.259 669.463L 267.259 667.463L 266.259 589.463L 246.259 589.463L 244.259 559.463L 268.259 557.463L 268.259 205.463L 291.259 208.463L 293.259 558.463L 292.259 668.463L 326.259 670.463L 323.259 592.463L 295.259 590.463L 290.259 560.463L 329.259 561.463L 331.259 209.463L 356.259 204.463L 357.259 559.463L 350.259 564.463L 345.259 671.463L 378.259 669.463L 380.259 592.463L 350.259 593.463L 352.259 561.463L 380.259 561.463L 390.259 195.463C 390.259 195.463 384.259 196.463 370.259 200.463C 356.259 204.463 333.259 208.463 312.259 208.463C 291.259 208.463 271.259 209.463 251.259 201.463C 231.259 193.463 198.259 176.463 200.259 161.463C 202.259 146.463 220.259 128.463 220.259 128.463L 219.259 61.4634z"/>
<path fill="#9f9f3f" stroke="none" d="M 268.963 589.463L 294.963 588.13L 291.63 622.13L 267.63 620.797L 268.963 589.463z"/>
<path fill="#9f9f3f" stroke="none" d="M 268.963 633.463L 292.297 632.797L 292.297 646.797L 268.963 640.797L 268.963 633.463z"/>
<path fill="#9f9f3f" stroke="none" d="M 235.63 588.13L 246.259 589.463L 243.63 604.797L 235.63 588.13z"/>
<path fill="#9f9f3f" stroke="none" d="M 378.963 590.797L 396.297 596.797L 396.297 616.13L 380.297 615.463L 378.963 590.797z"/>
<path fill="#9f9f3f" stroke="none" d="M 381.63 628.797L 395.63 627.463L 394.963 640.13L 379.63 634.13L 381.63 628.797z"/>
<path fill="#9f9f3f" stroke="none" d="M 379.63 640.13L 394.963 640.13L 395.63 627.463L 379.63 628.13L 379.63 640.13z"/>
<path fill="#9f9f3f" stroke="none" d="M 379.63 654.13L 396.963 652.797L 396.297 673.463L 378.963 666.13L 379.63 654.13z"/>
<path fill="#9f9f3f" stroke="none" d="M 250.297 712.797L 249.63 734.797L 254.297 732.797L 254.297 710.797L 250.297 712.797z"/>
<path fill="#dfdfbf" stroke="none" d="M 407.547 764.213L 399.547 764.213L 400.547 59.7134L 405.047 58.9634L 407.547 764.213z"/>
<path fill="#dfdfbf" stroke="none" d="M 402.297 565.463L 344.297 559.463L 350.259 593.463C 350.259 593.463 362.797 587.963 374.297 587.963C 384.495 587.963 404.297 597.463 404.297 597.463L 402.297 565.463z"/>
<path fill="#dfdfbf" stroke="none" d="M 347.797 559.963L 339.297 561.463L 339.797 777.463L 345.297 776.963L 347.797 559.963z"/>
<path fill="#dfdfbf" stroke="none" d="M 347.297 624.963L 404.297 619.463L 404.797 624.963L 346.797 629.963L 347.297 624.963z"/>
<path fill="#dfdfbf" stroke="none" d="M 346.297 649.463L 405.297 643.963L 404.797 649.463L 346.297 654.463L 346.297 649.463z"/>
</g>
<g>
<path fill="none" stroke-width="6" stroke="#3f3f00" d="M 234.471 194.558C 254.8 203.716 282.82 209.375 313.759 209.375C 342.865 209.375 369.388 204.367 389.354 196.149"/>
<path fill="none" stroke-width="6" stroke="#3f3f00" d="M 406.988 186.928C 419.111 178.803 426.189 169.007 426.189 158.463C 426.189 147.492 418.525 137.331 405.489 129.019"/>
<path fill="none" stroke-width="6" stroke="#3f3f00" d="M 393.259 122.464C 372.913 113.25 344.806 107.552 313.759 107.552C 281.818 107.552 252.988 113.583 232.52 123.269"/>
<path fill="none" stroke-width="6" stroke="#3f3f00" d="M 221.381 129.437C 208.74 137.671 201.329 147.675 201.329 158.463C 201.329 168.852 208.201 178.514 219.998 186.568"/>
<path fill="none" stroke-width="6" stroke="#3f3f00" d="M 244.667 589.453L 245.588 624.576"/>
<path fill="none" stroke-width="6" stroke="#3f3f00" d="M 245.775 631.694L 246.238 649.329"/>
<path fill="none" stroke-width="6" stroke="#3f3f00" d="M 246.425 656.458L 249.259 764.463L 217.258 764.463L 217.777 656.088"/>
<path fill="none" stroke-width="6" stroke="#3f3f00" d="M 217.808 649.713L 217.896 631.339"/>
<path fill="none" stroke-width="6" stroke="#3f3f00" d="M 217.932 623.84L 218.087 591.463"/>
<path fill="none" stroke-width="6" stroke="#3f3f00" d="M 380.279 589.977L 379.558 617.469"/>
<path fill="none" stroke-width="6" stroke="#3f3f00" d="M 379.322 626.465L 378.901 642.481"/>
<path fill="none" stroke-width="6" stroke="#3f3f00" d="M 249.259 737.463C 249.259 737.463 282.259 729.463 309.259 729.463C 313.398 729.463 317.795 729.792 322.273 730.349"/>
<path fill="none" stroke-width="6" stroke="#3f3f00" d="M 347.072 735.199C 362.32 739.065 374.259 743.463 374.259 743.463"/>
<path fill="none" stroke-width="6" stroke="#3f3f00" d="M 248.259 670.463L 320.259 670.463"/>
<path fill="none" stroke-width="6" stroke="#3f3f00" d="M 348.259 670.463L 377.259 670.463"/>
<path fill="none" stroke-width="6" stroke="#3f3f00" d="M 268.759 204.963L 268.759 554.463"/>
<path fill="none" stroke-width="6" stroke="#3f3f00" d="M 268.759 586.463L 268.759 622.713"/>
<path fill="none" stroke-width="6" stroke="#3f3f00" d="M 268.759 631.713L 268.759 649.713"/>
<path fill="none" stroke-width="6" stroke="#3f3f00" d="M 268.759 656.463L 268.759 669.963L 292.759 669.963L 292.759 655.713"/>
<path fill="none" stroke-width="6" stroke="#3f3f00" d="M 292.759 649.338L 292.759 632.088"/>
<path fill="none" stroke-width="6" stroke="#3f3f00" d="M 292.759 624.213L 292.759 588.463"/>
<path fill="none" stroke-width="6" stroke="#3f3f00" d="M 292.759 553.463L 292.759 204.963"/>
<path fill="none" stroke-width="6" stroke="#3f3f00" d="M 331.759 204.963L 331.759 553.463"/>
<path fill="none" stroke-width="6" stroke="#3f3f00" d="M 355.759 553.463L 355.759 204.963"/>
<path fill="none" stroke-width="6" stroke="#3f3f00" d="M 176.259 562.463L 170.322 779.463L 151.322 779.463L 152.259 561.463L 176.259 562.463z"/>
<path fill="none" stroke-width="6" stroke="#3f3f00" d="M 324.259 562.463L 331.322 779.463L 345.322 779.463L 346.259 561.463L 324.259 562.463z"/>
<path fill="none" stroke-width="6" stroke="#3f3f00" d="M 346.259 562.463L 407.259 562.495L 406.759 598.495C 406.759 598.495 381.759 587.963 375.759 587.963C 369.759 587.963 347.259 594.463 347.259 594.463L 346.259 562.463z"/>
<path fill="none" stroke-width="6" stroke="#3f3f00" d="M 175.263 591.509C 197.206 589.758 229.852 587.463 250.259 587.463C 270.266 587.463 302.77 589.669 325.264 591.405"/>
<path fill="none" stroke-width="6" stroke="#3f3f00" d="M 346.822 592.963L 346.822 560.963L 152.259 561.463L 152.259 593.463"/>
<path fill="none" stroke-width="6" stroke="#3f3f00" d="M 175.259 631.463L 326.259 631.463L 326.259 656.463L 174.259 656.463"/>
<path fill="none" stroke-width="6" stroke="#3f3f00" d="M 345.259 630.463L 406.259 625.463"/>
<path fill="none" stroke-width="6" stroke="#3f3f00" d="M 345.259 654.463L 410.259 649.463"/>
<path fill="none" stroke-width="6" stroke="#3f3f00" d="M 243.748 554.451L 234.275 193.463L 230.758 59.4634L 220.633 59.4634L 220.021 187.462L 218.264 554.467"/>
<path fill="none" stroke-width="6" stroke="#3f3f00" d="M 381.172 555.961L 390.658 194.473L 394.201 59.4634L 404.326 59.4634L 404.939 187.459L 407.701 764.463L 375.7 764.463L 378.665 651.475"/>
<path fill="#ffbf7f" stroke-width="6" stroke="#3f3f00" d="M 249.259 141.463C 249.259 141.463 292.259 124.463 315.259 124.463C 338.259 124.463 375.259 145.463 375.259 145.463C 375.259 145.463 335.259 142.463 327.259 141.463C 319.259 140.463 324.259 145.463 313.259 145.463C 302.259 145.463 303.259 137.463 295.259 138.463C 287.259 139.463 249.259 141.463 249.259 141.463z"/>
</g>
<g>
<path fill="#bfbfbf" stroke="none" d="M 245.63 274.13C 245.63 274.13 234.297 328.797 229.63 340.13C 224.963 351.463 209.63 369.463 209.63 369.463L 226.297 374.13L 233.63 364.13L 284.963 370.797L 316.963 366.13L 360.297 366.13L 367.63 377.463L 380.297 368.13C 380.297 368.13 352.963 334.13 348.297 317.463C 343.63 300.797 338.297 276.797 338.297 276.797L 314.297 253.463L 258.963 258.797L 245.63 274.13z"/>
<path fill="#ff0000" stroke="none" d="M 209.63 369.463L 226.297 374.13L 238.963 345.463L 245.63 321.463L 249.63 301.463L 254.297 272.13L 245.63 274.13L 236.963 309.463L 231.63 336.13L 222.963 356.797L 209.63 369.463z"/>
<path fill="#3f3fff" stroke="none" d="M 337.63 280.797L 312.297 269.463L 322.963 288.13L 333.63 297.463L 340.963 316.13L 348.963 342.797L 370.297 378.13L 380.297 368.13L 360.963 343.463L 347.63 309.463L 337.63 280.797z"/>
<path fill="#ff9f3f" stroke="none" d="M 236.963 236.13C 236.963 236.13 247.63 246.13 247.63 252.13C 247.63 258.13 246.963 271.463 246.963 271.463C 246.963 271.463 270.963 265.463 281.63 266.13C 292.297 266.797 306.297 267.463 314.963 270.13C 323.63 272.797 338.297 276.797 338.297 276.797C 338.297 276.797 336.963 266.13 340.963 256.797C 344.963 247.463 351.63 233.463 351.63 233.463C 351.63 233.463 342.963 232.797 339.63 236.13C 336.297 239.463 326.963 249.463 326.963 249.463L 323.63 246.797L 324.297 234.13L 320.963 223.463L 308.297 229.463L 301.63 242.797L 289.63 242.797L 281.63 230.13L 272.297 220.797L 267.63 231.463L 266.297 244.13L 259.63 246.797L 246.297 236.797L 236.963 236.13z"/>
<path fill="#3f3fff" stroke-width="1" stroke="#ffffff" d="M 250.297 280.797L 244.297 287.463L 248.297 293.463L 241.63 296.797L 247.63 306.13L 237.63 312.797L 242.963 320.797L 234.963 325.463L 241.63 334.13L 229.63 340.13L 236.963 348.797L 224.963 353.463L 228.963 364.13L 218.297 364.13L 221.63 372.797L 209.63 369.463C 209.63 369.463 224.297 354.797 229.63 340.13C 234.963 325.463 240.297 300.13 242.297 289.463C 244.297 278.797 245.63 274.13 245.63 274.13L 250.297 280.797z"/>
<path fill="#ff0000" stroke-width="1" stroke="#ffffff" d="M 378.297 366.13L 360.297 366.13L 364.963 354.797L 354.297 352.797L 358.297 339.463L 346.963 338.13L 351.63 326.13L 342.297 324.13L 346.297 312.797L 337.63 302.13L 340.963 292.797L 338.963 283.463L 338.963 308.13L 342.297 328.797L 352.297 350.797L 360.297 366.13L 367.63 377.463L 378.297 366.13z"/>
<path fill="#bfbfbf" stroke="none" d="M 254.297 272.13L 270.963 270.13L 262.963 284.13L 249.63 301.463L 254.297 272.13z"/>
<path fill="#ff7f00" stroke="none" d="M 254.297 272.13L 261.63 272.13L 250.963 282.797L 254.297 272.13z"/>
<path fill="#3f3fff" stroke="none" d="M 249.797 286.13L 263.13 270.797L 270.963 270.13L 250.297 300.297L 249.797 286.13z"/>
<path fill="#ff0000" stroke-width="1" stroke="#ffffff" d="M 251.713 299.651L 251.13 286.963L 260.297 284.797L 258.297 276.13L 267.63 276.797L 266.297 269.463L 272.38 270.984L 251.713 299.651z"/>
<path fill="#ff0000" stroke-width="1" stroke="#ffffff" d="M 313.63 273.463L 320.963 274.13L 318.963 282.13L 328.963 282.13L 328.297 290.13L 335.63 290.13L 333.63 297.463L 320.963 286.797L 313.63 273.463z"/>
<path fill="#ff7f00" stroke="none" d="M 324.963 275.463L 335.63 290.13L 338.297 276.797L 324.963 275.463z"/>
<path fill="#ffdfbf" stroke="none" d="M 268.297 280.797L 247.63 306.13C 247.63 306.13 244.963 322.797 250.297 330.797C 255.63 338.797 248.963 346.797 261.63 351.463C 274.297 356.13 288.297 360.797 299.63 359.463C 310.963 358.13 324.963 357.463 329.63 347.463C 334.297 337.463 338.963 318.797 338.963 318.797L 332.297 294.797L 318.297 284.13L 312.297 278.13L 304.297 274.797L 302.297 284.797L 292.963 271.463L 282.297 282.797L 281.63 272.13L 268.297 280.797z"/>
<path fill="#9f9f3f" stroke="none" d="M 270.963 289.463L 276.963 288.13L 282.963 291.463L 282.963 307.463L 272.963 310.797L 270.963 300.797L 270.963 289.463z"/>
<path fill="#9f9f3f" stroke="none" d="M 305.63 288.797L 312.297 287.463L 316.963 292.797L 316.297 306.13L 309.63 310.797L 303.63 304.797L 305.63 288.797z"/>
<path fill="#ffffff" stroke="none" d="M 271.63 292.797L 275.63 293.463L 275.63 300.13L 270.963 300.797L 271.63 292.797z"/>
<path fill="#ffffff" stroke="none" d="M 306.963 292.797L 310.297 293.463L 309.63 298.797L 304.963 298.13L 306.963 292.797z"/>
<path fill="#ffff00" stroke="none" d="M 270.963 270.13L 268.297 280.797L 281.63 272.13L 282.297 282.797L 292.963 271.463L 302.297 284.797L 304.297 274.797L 313.63 280.13L 309.63 268.797L 291.63 266.797L 270.963 270.13z"/>
<path fill="#ff7f00" stroke="none" d="M 277.63 269.63L 275.797 274.297L 280.463 269.63L 277.63 269.63z"/>
<path fill="#ff7f00" stroke="none" d="M 289.297 268.63L 284.13 277.297L 291.797 269.297L 289.297 268.63z"/>
<path fill="#ff7f00" stroke="none" d="M 298.797 269.297L 301.13 280.13L 301.963 272.13L 298.797 269.297z"/>
<path fill="#ff7f00" stroke="none" d="M 303.297 270.13L 310.63 277.297L 303.13 275.463L 299.797 269.297L 303.297 270.13z"/>
<path fill="#ff7f00" stroke="none" d="M 273.963 274.963L 278.63 269.297L 280.463 269.13L 274.797 276.63L 273.963 274.963z"/>
<path fill="#ff7f00" stroke="none" d="M 289.297 268.63L 286.13 272.463L 284.13 277.297L 289.463 272.13L 290.797 267.297L 289.297 268.63z"/>
<path fill="#ff7f00" stroke="none" d="M 294.963 268.13L 293.963 271.297L 295.63 271.63L 296.963 267.963L 294.963 268.13z"/>
<path fill="#ff7f00" stroke="none" d="M 299.797 269.297L 298.963 273.797L 301.13 280.13L 301.13 272.963L 299.797 269.297z"/>
<path fill="#ff7f00" stroke="none" d="M 188.297 405.463L 111.63 288.13C 111.63 288.13 100.297 280.797 96.9634 285.463C 93.63 290.13 92.2967 290.13 94.9634 296.13C 97.63 302.13 126.297 347.463 126.297 347.463L 136.963 346.797L 150.297 372.13L 146.297 376.797L 166.963 409.463L 218.963 488.13L 254.963 542.797C 254.963 542.797 264.297 560.13 270.297 558.13C 276.297 556.13 282.963 551.463 279.63 547.463C 276.297 543.463 239.63 486.797 239.63 486.797L 188.297 405.463z"/>
<path fill="#ffdfbf" stroke="none" d="M 112.297 350.797L 136.963 346.797L 150.297 372.13L 127.63 380.13L 112.297 350.797z"/>
<path fill="#ffdfbf" stroke="none" d="M 440.963 412.797L 456.297 398.797L 475.63 412.797L 463.63 430.13L 440.963 412.797z"/>
<path fill="#ffff00" stroke="none" d="M 464.963 264.13L 461.63 252.797L 473.63 257.463L 478.963 250.797L 486.297 258.797L 496.963 250.13L 497.63 265.463L 513.63 261.463C 513.63 261.463 502.297 276.13 504.963 276.13C 507.63 276.13 520.963 281.463 520.963 281.463L 507.63 290.13L 516.963 299.463L 502.297 300.13L 504.297 317.463L 490.297 308.797L 486.963 324.797L 476.963 313.463L 462.963 324.13L 458.963 310.13L 452.963 320.13L 450.963 304.797L 440.297 303.463L 446.297 293.463L 440.297 288.797L 448.963 282.13L 440.963 275.463L 452.297 270.13L 444.963 262.797L 459.63 262.13L 464.963 264.13z"/>
<path fill="#9b3300" stroke="none" d="M 471.63 265.463C 471.63 265.463 488.963 262.13 493.63 269.463C 498.297 276.797 504.963 288.13 500.297 294.13C 495.63 300.13 493.63 305.463 482.297 307.463C 470.963 309.463 464.297 306.797 459.63 298.797C 454.963 290.797 455.144 281.579 458.963 273.463C 464.297 262.13 471.63 265.463 471.63 265.463z"/>
<path fill="#ff7f00" stroke="none" d="M 251.297 550.463L 202.797 520.463L 132.297 484.963L 119.297 485.463L 114.797 494.463L 110.297 579.963L 111.297 688.963L 115.797 759.463L 164.297 728.963L 208.297 715.963L 257.297 709.463L 286.797 704.463L 286.297 694.963L 263.297 652.963L 242.797 604.963L 215.797 561.463L 248.297 561.963L 251.297 550.463z"/>
<path fill="none" stroke-width="2" stroke="#ff9f3f" d="M 117.859 331.276L 130.859 323.276"/>
<path fill="none" stroke-width="2" stroke="#ff9f3f" d="M 110.609 319.463L 124.359 311.338"/>
<path fill="none" stroke-width="2" stroke="#ff9f3f" d="M 123.63 337.463C 127.63 335.463 131.63 332.13 135.63 330.13"/>
<path fill="none" stroke-width="2" stroke="#cc4c00" d="M 124.922 340.588L 130.672 337.338L 136.797 333.213"/>
<path fill="none" stroke-width="2" stroke="#cc4c00" d="M 120.963 333.505L 126.797 330.213L 132.297 326.838"/>
<path fill="none" stroke-width="2" stroke="#cc4c00" d="M 113.713 321.505L 119.547 318.213L 125.047 314.838"/>
<path fill="#ff9f3f" stroke-width="2" stroke="#ffbf7f" d="M 136.63 506.338C 134.963 504.588 134.88 501.963 133.172 500.255L 133.63 500.505C 130.297 498.005 125.588 498.338 122.672 501.38L 122.63 501.422C 123.88 500.713 125.088 500.005 126.338 499.297L 124.213 499.963C 122.588 500.672 121.213 501.88 120.297 503.422L 118.922 506.255C 117.005 509.713 116.755 513.672 116.505 517.422C 115.713 529.172 115.963 540.88 116.755 552.588C 116.922 555.13 119.338 557.172 120.588 559.547C 121.463 561.213 120.963 563.505 121.422 565.672C 122.213 569.713 123.838 573.047 125.547 576.588C 127.63 581.047 125.755 585.963 127.755 590.297C 129.255 593.505 130.797 596.588 131.213 600.213C 131.338 601.13 131.922 602.088 132.755 602.713C 133.088 604.172 134.547 605.047 135.963 604.755C 137.422 604.422 138.338 602.963 138.005 601.547C 138.255 601.047 138.672 600.547 138.713 600.047C 139.047 596.63 138.422 593.255 138.963 589.88C 140.922 577.13 142.797 564.713 139.297 552.172C 138.463 549.255 136.63 546.922 134.38 544.922C 135.13 546.797 136.255 548.505 135.463 550.922C 135.713 548.963 135.963 547.005 136.005 545.005C 136.338 534.297 133.463 523.672 135.047 513.047L 135.047 512.213L 131.13 515.672L 134.255 513.672C 132.838 514.422 131.38 515.172 129.963 515.922L 134.588 512.88L 134.588 512.88L 127.213 515.047C 126.38 514.672 125.505 514.297 124.672 513.922C 127.38 514.047 130.088 514.588 132.838 514.13C 135.005 515.172 137.588 514.297 138.63 512.13C 139.672 509.963 138.797 507.38 136.63 506.338L 136.63 506.338z"/>
<path fill="#ff9f3f" stroke-width="2" stroke="#ffbf7f" d="M 211.338 613.172C 210.172 617.422 208.672 621.463 207.463 625.797C 206.838 627.88 207.172 630.088 207.88 632.13C 210.172 638.588 212.547 644.588 216.672 650.422C 217.088 651.005 217.13 651.797 217.297 652.505C 217.13 652.047 216.922 651.547 216.755 651.088C 217.255 652.422 217.713 653.755 218.172 655.088C 217.963 654.547 217.713 654.005 217.505 653.463C 217.88 654.297 218.213 655.13 218.588 655.963C 220.422 660.88 225.838 663.38 230.755 661.588C 235.672 659.755 238.172 654.338 236.38 649.422L 235.88 649.213C 236.047 649.838 236.255 650.505 236.422 651.13C 235.463 641.963 229.547 635.255 224.338 627.588C 223.38 626.213 221.338 625.505 220.838 623.963C 219.38 619.422 217.13 615.713 213.797 612.422C 213.588 611.713 212.838 611.338 212.172 611.547C 211.505 611.797 211.13 612.505 211.338 613.172L 211.338 613.172z"/>
<path fill="#ff9f3f" stroke-width="2" stroke="#ffbf7f" d="M 234.88 698.213C 234.547 699.547 233.255 700.63 234.505 702.422C 234.505 702.463 234.838 702.255 235.047 702.172C 235.047 704.713 237.13 706.755 239.672 706.713C 242.213 706.713 244.255 704.63 244.213 702.088L 245.588 702.047C 245.963 699.172 244.547 696.422 242.005 695.088C 240.963 693.047 238.422 692.213 236.38 693.255C 234.297 694.338 233.505 696.838 234.547 698.922L 234.88 698.213z"/>
<path fill="#ff9f3f" stroke-width="2" stroke="#ffbf7f" d="M 222.38 650.713C 219.547 657.213 220.797 664.213 221.047 670.963C 221.463 680.63 224.172 689.963 229.047 698.463C 230.963 702.422 235.713 704.13 239.713 702.213C 243.672 700.338 245.38 695.547 243.463 691.588L 243.713 694.797C 243.713 689.297 239.588 685.338 238.172 680.255C 237.172 676.797 236.88 673.297 235.088 670.13C 231.38 663.505 226.713 657.713 224.38 650.588C 224.338 650.047 223.88 649.63 223.297 649.672C 222.755 649.672 222.338 650.172 222.38 650.713L 222.38 650.713z"/>
<path fill="#ff0000" stroke-width="2" stroke="#ffffff" d="M 112.297 724.797C 112.297 724.797 141.63 710.797 152.297 706.797C 162.963 702.797 192.963 690.797 203.63 692.13C 214.297 693.463 238.297 688.13 248.963 688.797C 259.63 689.463 275.63 682.13 275.63 682.13L 264.297 657.463C 264.297 657.463 239.63 664.13 223.63 664.13C 207.63 664.13 186.297 659.463 176.297 664.797C 166.297 670.13 136.963 678.13 130.963 682.13C 124.963 686.13 112.963 692.797 112.963 692.797L 112.297 724.797z"/>
<path fill="#3f3fff" stroke-width="2" stroke="#ffffff" d="M 112.963 692.797L 120.297 718.797L 126.963 685.463L 139.63 710.797L 150.963 675.463L 175.63 697.463L 180.963 664.13L 208.297 691.463L 218.963 664.13L 239.63 686.797L 249.63 662.13L 264.297 684.13L 261.63 659.463L 269.63 671.463L 264.297 657.463L 249.63 662.13L 228.297 665.463L 216.297 663.463L 180.963 664.13L 150.963 675.463L 126.963 685.463L 112.963 692.797z"/>
<path fill="#ff9f3f" stroke-width="2" stroke="#ffbf7f" d="M 213.005 532.005C 218.005 540.088 225.047 546.547 234.338 549.088C 234.213 549.172 234.047 549.297 233.922 549.38C 235.13 549.922 236.547 549.38 237.088 548.213C 237.588 547.005 237.088 545.588 235.88 545.047C 227.797 541.63 219.963 537.797 213.963 531.213C 213.755 530.922 213.338 530.88 213.088 531.13C 212.838 531.338 212.797 531.755 213.005 532.005L 213.005 532.005z"/>
<path fill="#ff9f3f" stroke-width="2" stroke="#ffbf7f" d="M 140.922 656.422C 140.88 658.088 140.713 659.713 140.088 661.297C 140.088 662.505 141.088 663.505 142.297 663.463C 143.547 663.463 144.547 662.463 144.505 661.255L 144.047 661.463C 145.088 659.338 142.547 658.088 142.338 656.088C 142.213 655.713 141.838 655.463 141.463 655.588C 141.088 655.672 140.838 656.047 140.922 656.422L 140.922 656.422z"/>
<path fill="#ff9f3f" stroke-width="2" stroke="#ffbf7f" d="M 135.047 718.88C 135.213 721.297 134.088 723.838 135.588 726.172C 135.63 728.422 137.505 730.172 139.755 730.088C 142.005 730.005 143.755 728.13 143.672 725.922L 144.38 725.838C 143.588 722.63 144.463 719.13 141.797 716.213C 140.797 714.297 138.422 713.505 136.463 714.505C 134.547 715.505 133.755 717.88 134.755 719.838L 135.047 718.88z"/>
<path fill="#ff7f00" stroke-width="2" stroke="#ffbf7f" d="M 272.213 241.047C 270.463 244.088 268.797 246.547 265.547 248.463C 262.505 250.255 261.088 255.255 263.713 258.422C 264.255 260.588 266.463 261.88 268.588 261.338C 270.755 260.838 272.047 258.63 271.547 256.463C 271.922 255.505 272.213 254.505 271.13 253.297C 274.13 250.422 276.63 245.297 273.963 241.213C 273.963 240.672 273.505 240.213 272.963 240.213C 272.422 240.213 271.963 240.672 271.963 241.213L 272.213 241.047z"/>
<path fill="#ff7f00" stroke-width="2" stroke="#ffbf7f" d="M 309.505 236.797C 305.005 241.505 300.005 246.797 299.422 253.588L 299.338 253.797L 300.088 251.422L 301.297 250.463C 300.713 250.797 300.088 251.13 299.505 251.463C 297.672 253.088 297.422 255.88 299.047 257.755C 300.63 259.63 303.463 259.838 305.297 258.213L 303.963 258.963C 305.172 258.505 306.005 257.63 306.755 256.63L 307.172 256.213C 307.672 255.505 307.922 254.672 307.922 253.797L 307.922 252.422C 306.672 247.63 309.755 242.38 310.797 237.588C 311.047 237.213 310.922 236.755 310.547 236.547C 310.213 236.338 309.713 236.463 309.505 236.797L 309.505 236.797z"/>
</g>
<g>
<path fill="none" stroke-width="6" stroke="#000000" d="M 253.797 272.463C 246.297 297.463 244.984 320.274 252.259 338.463C 264.259 365.463 321.259 368.463 333.259 341.463C 341.602 321.997 345.323 297.059 333.797 276.463"/>
<path fill="none" stroke-width="6" stroke="#000000" d="M 286.297 363.463C 276.004 411.988 265.711 459.431 257.802 507.383"/>
<path fill="none" stroke-width="6" stroke="#000000" d="M 252.628 541.475C 251.804 547.456 250.775 557.952 250.047 563.963"/>
<path fill="none" stroke-width="6" stroke="#000000" d="M 250.297 549.463C 228.63 533.463 228.297 533.463 204.297 521.463C 180.297 509.463 130.297 477.463 118.297 485.463C 106.297 493.463 110.297 643.463 112.297 723.463C 112.297 735.463 114.297 747.463 114.297 759.463C 138.297 747.463 156.297 729.463 182.297 721.463C 218.297 713.463 250.297 711.463 286.297 705.463C 286.297 705.463 288.297 699.463 286.297 695.463C 270.297 675.463 264.297 653.463 256.297 631.463C 246.297 607.463 228.297 585.463 216.297 561.463C 226.297 561.463 238.297 561.463 248.297 561.463C 248.297 557.463 250.297 549.463 250.297 549.463z"/>
<path fill="none" stroke-width="6" stroke="#000000" d="M 145.66 376.14L 261.851 553.796C 264.551 557.968 270.124 559.164 274.297 556.463L 274.297 556.463C 278.47 553.763 279.663 548.19 276.963 544.017L 110.451 288.594C 107.751 284.422 102.178 283.227 98.0052 285.927L 98.0052 285.927C 93.8322 288.627 92.6391 294.2 95.3392 298.373L 127.691 348.37"/>
<path fill="none" stroke-width="6" stroke="#000000" d="M 270.297 289.463C 268.963 293.463 270.297 306.797 272.297 309.463C 274.297 312.13 279.63 311.463 282.297 309.463C 284.963 307.463 284.963 292.13 282.297 290.13C 279.63 288.13 271.63 285.463 270.297 289.463z"/>
<path fill="none" stroke-width="6" stroke="#000000" d="M 309.63 286.13C 301.63 285.463 305.127 306.865 304.963 306.13C 304.563 304.93 311.63 314.13 315.63 307.463C 318.866 302.07 316.963 298.13 316.963 292.13C 316.588 289.713 313.377 286.442 309.63 286.13z"/>
<path fill="none" stroke-width="6" stroke="#000000" d="M 268.297 332.797C 279.63 340.13 276.547 344.384 294.963 343.463C 308.297 342.797 310.963 340.797 322.297 329.463"/>
<path fill="none" stroke-width="6" stroke="#000000" d="M 112.297 351.463L 136.297 347.463L 150.297 373.463L 128.297 381.463L 112.297 351.463z"/>
<path fill="none" stroke-width="6" stroke="#000000" d="M 120.297 367.463C 122.297 417.463 134.297 441.463 142.297 447.463C 144.993 449.486 161.278 442.883 181.919 433.227"/>
<path fill="none" stroke-width="6" stroke="#000000" d="M 204.793 422.207C 234.203 407.721 265.523 391.359 278.297 385.463"/>
<path fill="none" stroke-width="6" stroke="#000000" d="M 278.297 407.463L 382.297 461.463L 440.297 411.463"/>
<path fill="none" stroke-width="6" stroke="#000000" d="M 265.614 283.659C 273.401 279.007 279.629 276.323 283.297 268.463C 280.742 273.938 280.297 276.963 281.797 283.463C 281.797 283.963 285.297 280.463 286.297 279.463C 288.797 275.963 290.297 272.963 293.297 269.963"/>
<path fill="none" stroke-width="6" stroke="#000000" d="M 339.034 276.783C 338.062 270.481 338.068 263.952 340.943 257.153C 343.898 250.164 345.649 240.053 351.316 233.484C 351.316 233.484 342.524 232.87 335.916 239.387C 328.655 246.548 329.606 249.801 326.607 249.273C 321.72 248.412 323.662 243.049 324.241 235.099C 324.753 228.075 321.242 223.064 321.242 223.064C 321.242 223.064 308.05 228.52 306.096 235.298C 303.887 242.962 300.918 243.673 296.558 243.96C 289.746 244.41 283.566 239.874 281.965 232.457C 280.42 225.296 272.084 220.808 272.084 220.808C 272.084 220.808 267.744 227.753 266.607 232.126C 264.68 239.536 267.129 245.141 262.907 247.424C 258.685 249.707 257.921 244.101 252.928 240.602C 246.613 236.177 236.446 232.984 236.446 232.984C 240.567 241.626 242.425 243.137 245.17 248.84C 248.595 255.955 246.53 264.816 246.123 272.584C 258.325 272.094 278.26 265.719 293.865 266.44C 312.232 267.289 323.173 274.416 339.034 276.783z"/>
<path fill="none" stroke-width="6" stroke="#000000" d="M 293.297 269.963C 292.297 275.963 298.797 285.963 305.297 286.463C 305.297 283.963 303.297 278.963 303.297 276.463C 305.959 279.126 311.45 280.577 315.297 281.463"/>
<path fill="none" stroke-width="6" stroke="#000000" d="M 272.297 268.463C 270.797 277.463 265.297 281.463 261.797 286.963C 258.297 292.463 262.297 288.963 255.797 295.463C 249.297 301.963 246.797 308.963 246.797 308.963"/>
<path fill="none" stroke-width="6" stroke="#000000" d="M 309.797 269.463C 310.797 274.963 319.953 287.17 327.797 291.963C 336.797 297.463 332.797 302.963 340.297 313.963"/>
<path fill="none" stroke-width="6" stroke="#000000" d="M 455.547 379.213L 444.297 387.463L 439.797 413.463L 456.797 398.963L 465.547 404.213L 476.297 413.463L 464.297 431.463L 439.297 414.963"/>
<path fill="none" stroke-width="6" stroke="#000000" d="M 463.547 379.963L 478.297 389.463L 466.297 403.463"/>
<path fill="none" stroke-width="6" stroke="#000000" d="M 460.297 396.963C 460.297 396.963 458.797 372.963 462.797 355.463C 466.797 337.963 477.297 309.963 477.297 309.963C 477.297 309.963 456.797 305.463 455.297 296.963C 453.797 288.463 455.797 266.963 469.297 265.963C 482.797 264.963 496.797 265.463 500.297 276.463C 503.797 287.463 503.797 293.963 496.797 299.963C 489.797 305.963 477.297 309.963 477.297 309.963C 477.297 309.963 478.297 315.963 482.797 320.963C 487.297 325.963 487.797 323.963 487.797 323.963L 490.297 315.463L 488.797 305.963C 488.797 305.963 493.797 311.463 496.297 313.463C 498.797 315.463 504.797 315.463 504.797 315.463L 501.496 306.862L 498.297 300.463C 498.297 300.463 505.297 302.963 508.797 303.463C 512.297 303.963 516.797 301.463 516.797 301.463L 510.396 294.804L 504.297 290.963C 504.297 290.963 512.297 291.963 515.797 288.463C 519.297 284.963 521.797 280.463 521.797 280.463L 512.43 279.189L 502.797 280.963C 502.797 280.963 508.297 274.963 510.297 271.463C 512.297 267.963 513.797 262.463 513.797 262.463L 505.342 265.54L 497.797 269.963C 497.797 269.963 497.797 262.463 497.797 258.963C 497.797 255.463 495.297 251.463 495.297 251.463L 490.582 256.375L 487.297 264.463C 487.297 264.463 484.297 256.463 481.297 253.963C 478.297 251.463 479.297 249.463 479.297 249.463L 474.797 254.963L 474.797 262.963C 474.797 262.963 471.797 255.963 468.297 255.463C 464.797 254.963 459.797 253.463 457.797 254.463C 456.797 254.963 458.172 257.463 459.797 259.838C 461.422 262.213 463.297 264.463 463.297 264.463C 463.297 264.463 456.797 263.463 454.297 262.463C 451.797 261.463 444.797 261.963 444.797 261.963C 444.797 261.963 446.297 264.463 448.797 266.463C 451.297 268.463 456.797 271.963 456.797 271.963C 456.797 271.963 452.297 271.463 448.297 271.963C 444.297 272.463 440.297 274.463 440.297 274.463C 440.297 274.463 442.797 276.963 445.797 278.463C 448.797 279.963 454.297 280.963 454.297 280.963C 454.297 280.963 451.797 282.963 447.797 283.963C 443.797 284.963 440.797 288.963 440.797 288.963L 446.297 292.963L 452.297 292.463C 452.297 292.463 448.297 293.463 445.297 296.463C 442.297 299.463 440.797 304.963 440.797 304.963C 440.797 304.963 446.297 305.963 448.797 304.463C 451.297 302.963 455.297 300.463 455.297 300.463C 455.297 300.463 452.797 305.463 451.797 308.963C 450.797 312.463 453.797 319.963 453.797 319.963C 453.797 319.963 457.297 316.963 459.297 313.963C 461.297 310.963 463.797 305.963 463.797 305.963C 463.797 305.963 462.297 310.963 462.297 315.463C 462.297 319.963 464.297 323.463 464.297 323.463C 464.297 323.463 469.297 321.463 470.297 318.963C 471.297 316.463 475.297 310.463 475.297 310.463"/>
<path fill="none" stroke-width="6" stroke="#000000" d="M 246.963 301.463C 246.963 301.463 243.63 329.463 239.63 341.463C 235.63 353.463 226.297 374.797 226.297 374.797L 210.297 371.463C 220.297 364.963 225.041 354.379 226.797 349.463C 229.297 342.463 233.297 332.463 236.797 319.463C 239.409 309.759 242.797 290.963 246.297 273.963"/>
<path fill="none" stroke-width="6" stroke="#000000" d="M 339.63 318.797C 339.63 318.797 344.963 334.13 350.297 346.13C 355.63 358.13 368.963 378.13 368.963 378.13L 380.797 368.463C 376.797 364.963 366.991 353.545 364.297 348.963C 359.297 340.463 351.204 324.15 348.797 317.463C 344.297 304.963 339.034 276.783 339.034 276.783"/>
<path fill="none" stroke-width="6" stroke="#000000" d="M 232.297 365.463C 232.297 365.463 250.963 364.797 259.63 366.13C 268.297 367.463 274.963 368.797 274.963 368.797"/>
<path fill="none" stroke-width="6" stroke="#000000" d="M 303.297 368.963C 303.297 368.963 321.297 365.463 330.797 364.963C 340.297 364.463 359.797 366.463 359.797 366.463"/>
</g>
</svg>