<?xml version="1.0" encoding="UTF-8"?>
<!DOCTYPE svg PUBLIC "-//W3C//DTD SVG 20010904//EN" "http://www.w3.org/TR/2001/REC-SVG-20010904/DTD/svg10.dtd">
<svg xmlns="http://www.w3.org/2000/svg" xmlns:xlink="http://www.w3.org/1999/xlink" viewBox="0 0 561 794" height="210mm" width="148mm"><title>Page 15 of Percy Street</title><metadata/><rect fill="#FFF" stroke="#AC351D" stroke-width="1" ry="5" rx="5" height="793" width="560" y="0.5" x="0.5"/><text font-size="10" font-family="Futura, Futura Medium, sans-serif" y="22" x="24.5">1. We should have a party</text><a xlink:title="Back to page 14" xlink:href="percy-14.svg"><image xlink:href="prev.svg" height="9" width="25" y="19" x="24.5"/></a>
			
			<g transform="translate(24.5,34)">
				<image xlink:href="15a1.gif" height="482" width="166" y="1" x="1"/><rect fill="none" stroke-width="1" stroke="#000" height="483" width="167" y="0.5" x="0.5"/>
				<image xlink:href="15a2.gif" height="482" width="167" y="1" x="175"/><rect fill="none" stroke-width="1" stroke="#000" height="483" width="168" y="0.5" x="174.5"/>
				<image xlink:href="15a3.gif" height="482" width="167" y="1" x="350"/><rect fill="none" stroke-width="1" stroke="#000" height="483" width="168" y="0.5" x="349.5"/>
			</g>
			<g transform="translate(24.5,524)">
				<image xlink:href="15b1.gif" height="238" width="253" y="1" x="1"/><rect fill="none" stroke-width="1" stroke="#000" height="239" width="254" y="0.5" x="0.5"/>
				<image xlink:href="15b2.gif" height="238" width="253" y="1" x="262"/><rect fill="none" stroke-width="1" stroke="#000" height="239" width="254" y="0.5" x="261.5"/>
			</g>
		<text font-size="10" font-family="Futura, Futura Medium, sans-serif" text-anchor="middle" y="776" x="280.5">15</text><text font-size="8" font-family="Futura, Futura Medium, sans-serif" text-anchor="end" y="766" x="536.5">(To be continued.)</text></svg>