<?xml version="1.0" encoding="UTF-8"?>
<svg xmlns="http://www.w3.org/2000/svg" xmlns:xlink="http://www.w3.org/1999/xlink" 
        clip-rule="evenodd" stroke-miterlimit="10" viewBox="0 0 550.00 200.00">
    <desc>SVG generated by Lineform</desc>
    <defs/>
    <g>
        <path d="M 10.05 31.84 C 8.12 36.02 9.02 48.30 10.48 49.69 C 11.53 50.68 56.44 48.92 57.78 50.88 C 59.23 52.99 59.69 82.64 57.77 84.94 C 56.17 86.86 27.98 87.11 11.71 87.97 C -0.44 89.09 1.60 129.38 8.82 133.84 C 19.87 140.65 45.61 137.88 53.25 136.12 C 60.90 134.37 63.01 131.12 69.04 130.96 C 73.69 130.84 80.08 134.77 83.59 136.22 C 87.10 137.67 98.41 134.42 98.14 127.87 C 97.91 122.06 80.62 120.44 78.06 115.38 C 75.50 110.31 77.96 36.03 75.73 33.11 C 73.84 30.64 13.95 30.96 12.71 31.75 Z M 58.97 101.98 L 58.83 120.46 C 58.83 120.46 51.32 123.90 46.03 125.25 C 40.74 126.59 22.84 127.95 21.02 116.56 C 19.09 104.47 23.04 99.64 27.91 99.44 C 38.68 99.16 47.57 98.89 58.33 98.61 Z M 62.68 98.76 " fill="#008000" stroke="#000000" stroke-width="1.00"/>
    </g>
    <g>
        <path d="M 101.87 9.19 C 101.77 10.14 103.03 129.95 105.49 132.35 C 107.94 134.74 131.64 138.03 134.36 135.59 L 137.44 120.13 L 122.55 117.60 C 122.55 117.60 120.12 9.73 119.44 6.37 C 118.76 3.02 107.45 2.93 102.96 6.98 Z M 102.96 6.98 " fill="#008000" stroke="#000000" stroke-width="1.00"/>
        <path d="M 145.56 9.61 C 145.46 10.56 146.72 130.37 149.18 132.77 C 151.63 135.16 175.33 138.45 178.05 136.01 L 181.13 120.55 L 166.24 118.02 C 166.24 118.02 163.81 10.15 163.13 6.79 C 162.45 3.44 151.14 3.35 146.65 7.40 Z M 146.65 7.40 " fill="#008000" stroke="#000000" stroke-width="1.00"/>
    </g>
    <g>
        <path d="M 226.00 31.30 C 222.43 31.02 208.33 31.10 197.59 42.21 C 189.41 50.65 190.15 69.69 190.39 85.69 C 190.63 101.16 187.05 122.73 200.19 132.44 C 208.70 138.71 237.12 139.19 248.40 134.16 C 252.60 132.29 258.94 131.24 261.08 129.60 C 263.22 127.95 259.70 117.58 259.46 115.97 C 259.22 114.37 232.91 130.70 214.56 121.43 C 206.77 117.50 207.78 98.70 208.27 96.77 C 208.75 94.84 258.67 94.46 261.83 90.62 C 264.98 86.79 267.40 50.54 257.45 40.82 C 247.78 31.39 236.06 31.64 229.55 31.19 Z M 246.40 54.42 C 248.95 61.67 247.70 78.00 246.16 79.89 C 244.12 82.42 210.17 84.90 208.97 82.37 C 207.94 80.21 206.27 57.24 215.18 49.38 C 220.43 44.75 237.37 42.89 244.53 51.03 Z M 235.85 45.58 " fill="#008000" stroke="#000000" stroke-width="1.00"/>
        <path d="M 406.18 31.32 C 392.66 32.79 391.16 31.69 380.41 42.79 C 372.24 51.24 372.73 70.23 372.97 86.22 C 373.20 101.69 374.28 128.73 384.80 135.18 C 391.20 139.10 405.66 137.62 414.17 137.22 C 418.76 137.01 441.56 131.32 443.70 129.67 C 445.85 128.02 442.33 117.65 442.09 116.05 C 441.85 114.44 408.33 125.70 395.70 123.53 C 392.55 122.99 390.41 98.77 390.89 96.84 C 391.37 94.92 441.43 96.22 444.59 92.38 C 447.74 88.55 450.72 49.86 440.07 40.90 C 429.74 32.20 430.87 33.81 418.27 30.91 Z M 428.59 50.21 C 429.70 53.43 430.54 79.38 428.08 81.51 C 425.62 83.64 394.32 83.82 391.86 82.49 C 390.05 81.21 389.60 53.32 396.75 48.30 C 402.48 44.26 411.15 45.03 417.56 44.94 Z M 418.47 45.65 " fill="#008000" stroke="#000000" stroke-width="1.00"/>
    </g>
    <g>
        <path d="M 352.60 21.18 C 352.08 21.02 351.59 21.03 351.17 21.28 L 334.95 36.28 C 334.95 36.28 332.04 34.97 330.09 33.96 C 319.39 28.38 296.81 30.70 287.99 39.94 C 272.33 56.33 275.90 82.68 288.38 94.17 C 297.00 102.10 303.91 99.54 303.36 101.65 C 302.10 106.44 301.73 115.04 304.79 121.01 C 312.51 136.09 322.63 134.45 328.41 136.08 C 333.47 137.51 339.86 136.91 344.24 139.73 C 354.32 146.22 353.64 162.00 344.04 167.97 C 333.25 174.69 294.92 166.70 290.16 161.84 C 279.80 151.27 285.83 136.22 291.94 131.72 C 297.27 127.79 306.47 130.64 304.79 126.15 L 302.46 119.92 C 301.71 117.85 295.69 112.74 281.98 118.58 C 266.27 125.26 263.30 154.81 275.78 167.77 C 290.62 183.17 338.40 188.44 354.68 180.29 C 371.68 171.79 369.41 139.34 355.02 129.19 C 341.52 119.68 330.97 124.81 322.19 118.94 C 317.52 115.83 315.61 106.01 317.61 102.77 C 318.93 100.64 335.80 103.11 345.32 93.73 C 356.98 82.24 355.62 65.79 350.16 54.55 C 348.94 52.04 346.40 49.31 346.35 46.62 C 346.31 43.92 360.83 39.67 361.22 35.93 C 361.55 32.66 356.22 22.37 352.60 21.18 Z M 302.61 48.85 C 307.91 44.40 324.65 44.47 331.33 51.31 C 337.43 57.55 338.20 76.97 332.05 83.03 C 325.14 89.83 307.19 91.89 300.27 82.97 C 295.47 76.77 293.75 56.53 301.38 50.10 Z M 309.18 44.90 " fill="#008000" stroke="#000000" stroke-width="0.96"/>
    </g>
    <g>
        <path d="M 522.16 4.45 C 520.73 5.30 520.72 6.70 520.01 7.25 L 519.43 39.90 C 519.43 39.90 504.65 31.83 493.82 31.54 C 474.02 30.99 461.32 61.54 461.82 83.08 C 462.30 103.50 465.57 138.71 496.30 137.15 C 518.71 136.02 519.14 130.02 523.32 130.12 C 527.49 130.23 534.81 138.94 536.52 136.50 C 538.22 134.06 546.35 128.29 545.70 125.64 C 545.06 122.99 536.27 122.44 536.91 117.57 L 536.54 3.94 C 536.54 3.94 536.33 1.51 532.03 1.30 Z M 515.03 49.68 C 517.02 51.47 519.33 53.77 519.33 57.42 L 518.97 116.15 C 518.97 116.15 503.64 129.39 487.77 122.54 C 477.57 118.13 477.69 63.01 487.21 51.05 C 493.13 43.61 495.39 46.46 500.28 46.10 Z M 497.86 56.10 " fill="#008000" stroke="#000000" stroke-width="1.00"/>
    </g>
    <g/>
    <g/>
</svg>