<?xml version="1.0" encoding="UTF-8"?>
<svg xmlns="http://www.w3.org/2000/svg" xmlns:xlink="http://www.w3.org/1999/xlink" 
        clip-rule="evenodd" stroke-miterlimit="10" viewBox="0 0 550.00 200.00">
    <desc>SVG generated by Lineform</desc>
    <defs/>
    <g>
        <path d="M 10.05 31.84 C 8.12 36.02 9.02 48.30 10.48 49.69 C 11.53 50.68 56.44 48.92 57.78 50.88 C 59.23 52.99 59.69 82.64 57.77 84.94 C 56.17 86.86 27.98 87.11 11.71 87.97 C -0.44 89.09 1.60 129.38 8.82 133.84 C 19.87 140.65 45.61 137.88 53.25 136.12 C 60.90 134.37 63.01 131.12 69.04 130.96 C 73.69 130.84 80.08 134.77 83.59 136.22 C 87.10 137.67 98.41 134.42 98.14 127.87 C 97.91 122.06 80.62 120.44 78.06 115.38 C 75.50 110.31 77.96 36.03 75.73 33.11 C 73.84 30.64 13.95 30.96 12.71 31.75 Z M 58.97 101.98 L 58.83 120.46 C 58.83 120.46 51.32 123.90 46.03 125.25 C 40.74 126.59 22.84 127.95 21.02 116.56 C 19.09 104.47 23.04 99.64 27.91 99.44 C 38.68 99.16 47.57 98.89 58.33 98.61 Z M 62.68 98.76 " fill="#008000" stroke="#000000" stroke-width="1.00"/>
    </g>
    <g>
        <path d="M 101.87 9.19 C 101.77 10.14 103.03 129.95 105.49 132.35 C 107.94 134.74 131.64 138.03 134.36 135.59 L 137.44 120.13 L 122.55 117.60 C 122.55 117.60 120.12 9.73 119.44 6.37 C 118.76 3.02 107.45 2.93 102.96 6.98 Z M 102.96 6.98 " fill="#008000" stroke="#000000" stroke-width="1.00"/>
        <path d="M 145.56 9.61 C 145.46 10.56 146.72 130.37 149.18 132.77 C 151.63 135.16 175.33 138.45 178.05 136.01 L 181.13 120.55 L 166.24 118.02 C 166.24 118.02 163.81 10.15 163.13 6.79 C 162.45 3.44 151.14 3.35 146.65 7.40 Z M 146.65 7.40 " fill="#008000" stroke="#000000" stroke-width="1.00"/>
    </g>
    <g>
        <path d="M 226.00 31.30 C 222.43 31.02 208.33 31.10 197.59 42.21 C 189.41 50.65 190.15 69.69 190.39 85.69 C 190.63 101.16 187.05 122.73 200.19 132.44 C 208.70 138.71 237.12 139.19 248.40 134.16 C 252.60 132.29 258.94 131.24 261.08 129.60 C 263.22 127.95 259.70 117.58 259.46 115.97 C 259.22 114.37 232.91 130.70 214.56 121.43 C 206.77 117.50 207.78 98.70 208.27 96.77 C 208.75 94.84 258.67 94.46 261.83 90.62 C 264.98 86.79 267.40 50.54 257.45 40.82 C 247.78 31.39 236.06 31.64 229.55 31.19 Z M 246.40 54.42 C 248.95 61.67 247.70 78.00 246.16 79.89 C 244.12 82.42 210.17 84.90 208.97 82.37 C 207.94 80.21 206.27 57.24 215.18 49.38 C 220.43 44.75 237.37 42.89 244.53 51.03 Z M 235.85 45.58 " fill="#008000" stroke="#000000" stroke-width="1.00"/>
        <path d="M 406.18 31.32 C 392.66 32.79 391.16 31.69 380.41 42.79 C 372.24 51.24 372.73 70.23 372.97 86.22 C 373.20 101.69 374.28 128.73 384.80 135.18 C 391.20 139.10 405.66 137.62 414.17 137.22 C 418.76 137.01 441.56 131.32 443.70 129.67 C 445.85 128.02 442.33 117.65 442.09 116.05 C 441.85 114.44 408.33 125.70 395.70 123.53 C 392.55 122.99 390.41 98.77 390.89 96.84 C 391.37 94.92 441.43 96.22 444.59 92.38 C 447.74 88.55 450.72 49.86 440.07 40.90 C 429.74 32.20 430.87 33.81 418.27 30.91 Z M 428.59 50.21 C 429.70 53.43 430.54 79.38 428.08 81.51 C 425.62 83.64 394.32 83.82 391.86 82.49 C 390.05 81.21 389.60 53.32 396.75 48.30 C 402.48 44.26 411.15 45.03 417.56 44.94 Z M 418.47 45.65 " fill="#008000" stroke="#000000" stroke-width="1.00"/>
    </g>
    <g>
        <path d="M 522.16 4.45 C 520.73 5.30 520.72 6.70 520.01 7.25 L 519.43 39.90 C 519.43 39.90 504.65 31.83 493.82 31.54 C 474.02 30.99 461.32 61.54 461.82 83.08 C 462.30 103.50 465.57 138.71 496.30 137.15 C 518.71 136.02 519.14 130.02 523.32 130.12 C 527.49 130.23 534.81 138.94 536.52 136.50 C 538.22 134.06 546.35 128.29 545.70 125.64 C 545.06 122.99 536.27 122.44 536.91 117.57 L 536.54 3.94 C 536.54 3.94 536.33 1.51 532.03 1.30 Z M 515.03 49.68 C 517.02 51.47 519.33 53.77 519.33 57.42 L 518.97 116.15 C 518.97 116.15 503.64 129.39 487.77 122.54 C 477.57 118.13 477.69 63.01 487.21 51.05 C 493.13 43.61 495.39 46.46 500.28 46.10 Z M 497.86 56.10 " fill="#008000" stroke="#000000" stroke-width="1.00"/>
    </g>
    <g/>
    <g>
        <path d="M 353.27 21.96 C 352.75 21.79 352.27 21.80 351.84 22.05 L 335.63 37.05 C 335.63 37.05 332.71 35.74 330.77 34.73 C 320.07 29.15 297.48 31.47 288.66 40.71 C 273.00 57.11 276.58 83.45 289.05 94.94 C 297.67 102.88 304.59 100.31 304.03 102.42 C 302.77 107.21 301.50 111.46 304.56 117.43 C 312.27 132.51 325.39 131.75 331.11 130.97 C 336.31 130.26 342.87 131.57 347.30 134.29 C 354.51 138.72 354.03 154.09 345.50 158.99 C 334.48 165.31 305.62 169.75 299.54 166.68 C 289.58 161.66 291.83 144.87 298.06 141.15 C 304.24 137.45 314.18 139.13 312.50 134.65 L 310.17 128.41 C 309.42 126.34 303.93 122.80 290.13 128.43 C 273.66 135.15 269.91 161.13 283.39 174.97 C 298.31 190.30 337.75 181.14 356.14 171.31 C 373.31 162.13 375.15 134.60 357.48 123.26 C 343.58 114.34 329.85 121.69 321.06 115.82 C 316.40 112.70 316.28 106.78 318.28 103.54 C 319.61 101.41 336.47 103.89 345.99 94.50 C 357.65 83.01 356.29 66.56 350.84 55.32 C 349.62 52.81 347.08 50.08 347.03 47.39 C 346.98 44.69 361.51 40.44 361.89 36.71 C 362.22 33.43 356.89 23.14 353.27 21.96 Z M 303.29 49.63 C 308.58 45.17 325.32 45.24 332.01 52.08 C 338.10 58.32 338.88 77.74 332.73 83.80 C 325.82 90.60 307.86 92.66 300.95 83.74 C 296.14 77.54 294.42 57.30 302.06 50.87 Z M 309.85 45.67 " fill="#008000" stroke="#000000" stroke-width="0.96"/>
    </g>
</svg>