<svg xmlns="http://www.w3.org/2000/svg"
	xmlns:xlink="http://www.w3.org/1999/xlink"
	viewBox="26.9 0 577 792"
	width="605.313" height="805.486">
<g>
<path fill="#7fff00" stroke="none" d="
M 603.868 792
L 603.868 0
L 26.8681 0
L 26.8681 792
L 603.868 792
z"/>
</g>
<g>
<path fill="#3fff3f" stroke-width="6" stroke="#00ff00" d="M 174.868 191.667C 165.868 188.667 156.868 183.667 155.868 173.667C 154.868 171.667 154.868 169.667 151.868 169.667C 152.868 162.667 149.868 155.667 149.535 148.333C 156.868 150.667 164.868 152.667 168.868 159.667C 173.868 169.667 175.868 179.667 178.868 189.667C 181.868 184.667 183.868 179.667 183.868 174.667C 185.868 153.667 188.868 132.667 186.11 110.746C 186.868 107.667 187.868 103.667 187.868 99.6667"/>
<path fill="#7fff00" stroke-width="6" stroke="#00ff00" d="M 523.868 171.667C 525.868 165.667 525.868 161.667 525.868 155.667C 525.868 169.667 525.868 181.667 525.868 195.667C 537.868 181.667 541.868 165.667 549.868 149.667C 555.868 155.667 551.868 161.667 551.868 167.667C 547.868 181.667 541.868 193.667 542.368 207.667C 543.868 195.667 547.868 185.667 557.868 177.667C 559.868 189.667 551.868 197.667 549.868 207.667C 553.868 205.667 555.868 201.667 559.868 199.667C 559.868 205.667 557.868 213.667 555.868 219.667C 555.868 223.667 557.868 229.667 557.868 235.667C 565.868 235.667 569.868 227.667 573.868 221.667C 573.868 229.667 573.868 237.667 573.868 245.667"/>
<path fill="#bfbfbf" stroke-width="6" stroke="#7f7f7f" d="M 438.868 104.167C 425.368 104.167 413.368 102.667 399.868 105.667C 392.368 108.667 387.868 114.667 381.868 120.667C 378.868 123.667 378.868 129.667 377.368 134.167C 366.868 153.667 344.368 165.667 341.368 188.167C 338.368 206.167 336.868 224.167 341.368 240.667C 345.868 255.667 366.868 257.167 380.368 258.667C 431.368 261.667 482.368 269.167 531.868 252.667C 546.868 246.667 545.368 224.167 542.368 207.667C 542.368 203.167 537.868 200.167 534.868 195.667C 534.868 192.667 533.368 188.167 531.868 185.167C 521.368 165.667 518.368 144.667 507.868 123.667C 501.868 111.667 485.368 114.667 473.368 110.167C 464.368 105.667 453.868 105.667 444.868 107.167C 444.868 105.667 444.868 104.167 444.868 104.167C 443.368 104.167 440.368 104.167 438.868 104.167z"/>
<path fill="#bfbfbf" stroke-width="6" stroke="#7f7f7f" d="M 465.868 194.167C 464.368 206.167 465.868 219.667 474.868 228.667C 480.868 237.667 492.868 242.167 495.868 252.667"/>
<path fill="#bfbfbf" stroke-width="6" stroke="#7f7f7f" d="M 468.868 207.667C 471.868 209.167 471.868 204.667 474.868 206.167"/>
<path fill="#bfbfbf" stroke-width="6" stroke="#7f7f7f" d="M 473.368 216.667C 476.368 216.667 477.868 215.167 480.868 213.667"/>
<path fill="#bfbfbf" stroke-width="6" stroke="#7f7f7f" d="M 479.368 225.667C 480.868 225.667 482.368 225.667 482.368 224.167"/>
<path fill="#bfbfbf" stroke-width="6" stroke="#7f7f7f" d="M 462.868 246.667C 477.476 236.043 501.868 234.667 512.368 248.167C 513.868 249.667 513.868 254.167 513.868 255.667C 530.368 275.167 534.868 299.167 530.368 323.167C 513.868 329.167 497.368 324.667 480.431 328.354C 477.868 327.667 473.368 326.167 470.368 324.667C 462.868 315.667 455.368 309.667 453.868 297.667C 452.368 279.667 446.368 258.667 462.868 246.667z"/>
<path fill="#bfbfbf" stroke-width="6" stroke="#7f7f7f" d="M 327.431 247.354C 343.931 230.854 357.431 212.854 376.931 200.854C 390.431 191.854 408.431 191.854 424.931 196.354C 432.431 199.354 436.931 206.854 439.931 217.354C 447.431 236.854 469.931 248.854 477.431 269.854C 483.431 289.354 486.431 311.854 480.431 328.354C 471.431 352.354 438.431 349.354 414.431 349.354C 390.431 322.354 367.931 296.854 345.431 266.854C 337.931 254.854 327.431 241.354 334.931 230.854C 342.431 217.354 358.931 211.354 372.431 206.854"/>
<path fill="#bfbfbf" stroke-width="6" stroke="#7f7f7f" d="M 446.368 338.167C 458.368 335.167 458.368 324.667 456.868 315.667C 456.868 315.667 455.368 315.667 456.868 315.667C 455.368 315.667 456.868 315.667 456.868 315.667"/>
<path fill="#bfbfbf" stroke-width="6" stroke="#7f7f7f" d="M 471.868 302.167C 465.868 314.167 470.368 327.667 464.368 339.667"/>
<path fill="#bfbfbf" stroke-width="6" stroke="#7f7f7f" d="M 494.368 306.667C 494.368 312.667 494.368 320.167 494.368 326.167"/>
<path fill="#bfbfbf" stroke-width="6" stroke="#00ff00" d="M 491.368 135.667C 491.368 137.167 492.868 138.667 492.868 140.167C 492.868 142.916 492.465 146.069 492.028 149.256"/>
<path fill="#bfbfbf" stroke-width="6" stroke="#7f7f7f" d="M 505.528 291.756C 504.773 297.261 503.918 302.866 504.868 306.667C 506.018 311.268 503.368 317.167 506.368 321.667"/>
<path fill="#bfbfbf" stroke-width="6" stroke="#7f7f7f" d="M 426.868 224.167C 423.868 242.167 437.368 255.667 443.368 270.667"/>
<path fill="#bfbfbf" stroke-width="6" stroke="#dfdfbf" d="M 500.368 261.667C 500.368 267.667 500.368 272.167 500.368 278.167"/>
<path fill="#bfbfbf" stroke-width="6" stroke="#00ff00" d="M 398.368 125.167C 399.868 123.667 402.868 125.167 404.368 122.167C 405.868 123.667 402.868 126.667 405.868 128.167"/>
<path fill="#bfbfbf" stroke-width="6" stroke="#00ff00" d="M 420.868 125.167C 419.368 128.167 417.868 131.167 416.368 134.167"/>
<path fill="#bfbfbf" stroke-width="6" stroke="#00ff00" d="M 437.368 128.167C 437.368 134.167 437.368 138.667 435.868 144.667"/>
<path fill="#bfbfbf" stroke-width="6" stroke="#00ff00" d="M 453.868 134.167C 453.868 138.667 453.868 143.167 453.868 147.667"/>
<path fill="#bfbfbf" stroke-width="6" stroke="#00ff00" d="M 468.868 137.167C 468.868 140.167 468.868 141.667 468.868 144.667"/>
<path fill="#bfbfbf" stroke-width="6" stroke="#7f7f7f" d="M 31.4451 443.367C 59.5506 447.494 97.0246 418.606 111.077 443.367C 125.13 468.128 153.236 484.636 181.341 497.017C 190.71 505.27 195.394 513.524 200.078 525.905C 214.131 546.539 242.236 550.666 256.289 575.427C 265.658 596.062 265.658 616.696 256.289 633.204C 251.605 653.838 223.499 674.472 204.762 682.726C 148.551 703.36 92.3404 715.741 31.4451 711.614"/>
<path fill="#bfbfbf" stroke-width="6" stroke="#7f7f7f" d="M 148.551 732.249C 148.551 703.36 139.183 674.472 153.236 649.711C 162.604 629.077 209.447 624.95 223.499 637.33C 251.605 657.965 275.026 703.36 251.605 732.249C 232.868 752.883 190.71 748.756 157.92 748.756C 157.92 740.502 148.551 740.502 148.551 732.249z"/>
<path fill="#bfbfbf" stroke-width="6" stroke="#7f7f7f" d="M 64.2349 728.122C 82.5572 679.695 143.867 662.092 181.341 682.726C 204.762 695.107 200.078 736.375 186.025 752.883C 167.288 781.771 115.762 765.264 78.2876 761.137C 64.2349 761.137 59.5506 740.502 64.2349 728.122z"/>
<path fill="#bfbfbf" stroke-width="6" stroke="#7f7f7f" d="M 106.393 480.509C 106.393 492.89 115.762 501.143 129.814 505.27"/>
<path fill="#3fff3f" stroke-width="4" stroke="#00ff00" d="M 102.49 774.205C 100.928 768.015 97.8054 762.512 96.2439 756.322C 102.49 759.761 107.955 763.2 112.639 768.015C 108.735 757.01 99.3668 748.756 97.0246 737.751C 105.612 743.941 111.858 752.883 118.884 760.449C 118.884 761.137 118.884 758.385 118.884 757.698C 116.542 750.82 111.077 745.317 111.077 738.439C 116.542 743.254 118.884 750.132 125.13 754.946C 125.911 746.005 128.253 737.751 132.156 730.185C 132.156 737.751 133.718 745.317 132.937 752.883C 139.183 749.444 140.744 741.878 146.99 738.439C 147.771 746.693 143.086 754.946 142.306 763.2C 145.429 759.073 150.113 754.946 152.455 750.132C 154.797 752.195 153.236 754.946 152.455 757.698C 151.674 761.137 150.113 764.576 150.113 768.015C 153.236 765.951 154.797 762.512 157.92 760.449C 160.262 765.951 157.139 770.766 156.358 776.269C 156.358 772.83 161.823 771.454 163.385 768.015C 163.385 773.517 163.385 779.02 164.166 784.522"/>
<path fill="#3fff3f" stroke-width="4" stroke="#00ff00" d="M 204.762 755.634C 202.42 744.285 204.372 732.592 208.276 721.587C 210.618 729.497 207.104 737.751 210.227 745.317C 211.398 741.19 212.96 737.407 215.302 733.624C 216.083 732.249 217.254 731.217 217.254 729.841C 218.425 736.032 216.863 742.222 218.034 748.412C 218.034 748.756 219.205 748.412 219.596 748.068C 222.719 745.317 227.403 743.941 230.526 741.19C 230.526 746.349 230.526 751.507 229.355 756.666"/>
<path fill="#3fff3f" stroke-width="4" stroke="#00ff00" d="M 487.868 330.667C 487.368 324.667 488.868 318.667 490.368 312.667C 490.868 317.167 491.368 321.167 491.868 325.667C 492.868 325.667 493.368 325.667 494.368 326.167C 494.368 322.167 497.868 320.167 499.868 317.167C 499.368 320.667 500.868 324.167 498.868 327.667C 502.368 327.167 505.868 325.167 509.368 324.167C 509.368 328.167 504.368 330.167 503.868 334.167"/>
<path fill="none" stroke-width="6" stroke="#7f7f7f" d="M 68.9191 572.676C 68.9191 576.803 72.042 582.305 72.042 586.432C 76.7262 598.813 97.0246 587.808 101.709 591.935C 120.446 596.062 147.51 591.018 161.563 582.764C 175.616 574.51 176.657 563.047 171.973 546.539"/>
<path fill="none" stroke-width="6" stroke="#7f7f7f" d="M 177.177 563.505C 177.177 558.92 182.382 559.837 185.505 557.086"/>
<path fill="none" stroke-width="6" stroke="#7f7f7f" d="M 171.973 579.096C 176.136 578.178 180.3 576.344 184.464 575.427"/>
<path fill="none" stroke-width="6" stroke="#7f7f7f" d="M 153.236 591.018C 158.44 591.018 163.645 591.018 168.85 591.018"/>
<path fill="none" stroke-width="6" stroke="#7f7f7f" d="M 204.242 629.535C 208.406 625.867 211.528 622.199 215.692 618.53"/>
<path fill="none" stroke-width="6" stroke="#7f7f7f" d="M 217.774 632.286C 224.02 627.701 226.102 621.281 231.306 616.696"/>
<path fill="none" stroke-width="6" stroke="#7f7f7f" d="M 231.306 641.457C 234.429 636.872 236.511 630.452 239.634 625.867"/>
<path fill="none" stroke-width="6" stroke="#7f7f7f" d="M 238.593 648.794C 239.634 643.292 243.798 637.789 245.88 632.286C 246.921 627.701 246.921 623.116 247.962 618.53"/>
<path fill="#7fff00" stroke-width="6" stroke="#00ff00" d="M 444.868 663.667C 444.868 654.667 438.868 648.667 435.868 639.667C 441.868 639.667 452.868 645.667 455.868 651.667C 455.868 636.667 450.868 621.667 450.868 606.667C 462.868 612.667 461.868 631.667 467.868 637.667C 470.868 622.667 468.868 597.667 474.868 582.667C 474.868 594.667 479.868 619.667 479.868 631.667C 494.868 619.667 498.868 588.667 510.868 573.667C 513.868 588.667 503.868 632.667 497.868 647.667C 497.868 641.667 513.868 606.667 516.868 600.667C 522.868 606.667 508.868 646.667 511.868 649.667C 517.868 652.667 534.868 618.667 540.868 615.667C 540.868 633.667 528.868 648.667 522.868 666.667C 525.868 654.667 537.868 651.667 543.868 642.667C 552.868 648.667 534.868 666.667 537.868 675.667L 560.868 670.667"/>
<path fill="#7fff00" stroke-width="6" stroke="#00ff00" d="M 347.868 729.667C 342.994 705.391 332.389 718.867 324.546 667.049C 337.618 681.854 356.12 707.263 365.868 717.667C 368.253 704.09 357.83 662.416 355.801 652.307C 363.112 676.583 376.994 677.391 381.868 701.667C 389.179 677.391 375.297 666.179 375.297 641.903C 375.297 669.647 388.994 677.391 393.868 701.667C 401.179 680.859 394.793 669.647 397.23 648.839C 399.667 666.179 402.104 683.519 406.978 700.859C 406.978 683.519 406.978 662.711 409.415 645.371C 419.163 659.243 414.289 680.051 416.726 697.391C 426.474 690.455 428.911 676.583 433.785 662.711C 433.785 676.583 433.785 690.455 433.785 704.327C 443.533 693.923 448.407 676.583 458.155 666.179C 458.155 683.519 458.155 700.859 450.844 714.731C 455.718 700.859 465.466 690.455 475.214 683.519C 477.651 697.391 472.777 707.795 467.903 718.199C 475.214 718.199 477.651 704.327 484.962 707.795C 487.399 711.263 482.525 721.667 484.962 725.135C 487.399 725.135 497.431 711.667 499.868 711.667C 499.868 715.135 494.711 735.539 494.711 735.539C 509.868 721.667 506.896 707.795 511.77 690.455C 516.644 707.795 509.333 735.539 526.392 728.603"/>
<path fill="#7fff00" stroke-width="6" stroke="#00ff00" d="M 281.868 293.667C 281.868 277.667 271.868 265.667 271.868 249.667C 275.868 261.667 281.868 271.667 289.868 281.667C 289.868 259.667 289.868 235.667 283.868 213.667C 281.868 233.667 293.868 251.667 299.868 269.667C 299.868 247.667 299.868 225.667 299.868 203.667C 297.868 225.667 303.868 245.667 307.868 265.667C 305.868 243.667 309.868 219.667 317.868 197.667C 317.868 221.667 317.868 243.667 321.868 267.667C 329.868 245.667 323.868 223.667 331.868 201.667C 331.868 211.667 331.868 221.667 334.931 230.854C 337.868 241.667 335.868 253.667 335.868 265.667C 335.868 257.667 333.868 247.667 337.868 245.667C 345.868 239.667 337.868 225.667 343.868 217.667C 341.868 239.667 345.868 261.667 345.868 283.667C 347.868 273.667 351.868 263.667 355.868 255.667C 353.868 259.667 357.868 265.667 357.868 269.667"/>
<path fill="#7fff00" stroke-width="6" stroke="#00ff00" d="M 114.743 241.042C 114.743 237.042 114.743 233.042 114.743 229.042C 114.743 233.042 118.743 239.042 118.743 237.042C 130.743 221.042 136.743 180.375 136.743 180.375C 136.743 180.375 135.743 220.375 131.743 236.375C 131.743 220.375 146.41 199.708 158.41 189.708C 160.41 205.708 142.743 223.042 142.743 237.042C 138.743 223.042 154.743 219.042 160.743 211.042C 168.743 223.042 146.743 231.042 154.743 239.042C 156.743 243.042 162.743 233.042 168.743 231.042C 168.743 233.042 168.743 235.042 168.743 237.042"/>
<path fill="#7fff00" stroke-width="6" stroke="#00ff00" d="M 49.8473 256.667C 51.8473 238.667 50.1806 218.667 50.1806 200.667C 50.1806 218.667 54.1806 234.667 58.1806 250.667C 64.1806 230.667 62.1806 210.667 64.1806 190.667C 76.1806 208.667 68.1806 228.667 72.1806 248.667C 76.1806 232.667 76.8473 214.333 84.8473 198.333C 84.8473 216.333 82.1806 234.667 84.1806 252.667C 86.1806 234.667 92.1806 216.667 94.1806 198.667C 94.1806 214.667 94.1806 230.667 94.1806 246.667C 98.1806 246.667 100.181 244.667 98.1806 244.667C 104.669 234.933 103.581 217.733 103.181 217.333"/>
<path fill="#ff3f9f" stroke-width="6" stroke="#7f00ff" d="M 167.799 91.6008C 166.655 91.069 164.938 90.5372 163.794 90.5372C 161.505 89.4735 161.505 86.8144 160.36 85.219C 157.499 79.3689 156.355 72.9871 154.638 67.1371C 158.072 67.1371 162.077 66.6053 165.51 67.6689C 172.377 69.2644 175.238 75.6462 180.388 79.9007C 180.388 80.4326 180.388 80.9644 180.388 81.4962C 180.388 80.9644 180.388 80.4326 180.388 79.9007C 186.11 80.9644 191.832 81.4962 197.554 82.5599C 203.952 83.7491 204.993 72.4553 210.143 69.7962C 215.293 67.1371 221.015 65.0098 227.31 66.0734C 230.743 71.9234 230.171 79.3689 230.171 85.7508C 221.587 87.3462 213.004 87.878 204.421 87.878"/>
<path fill="#ff3f9f" stroke-width="6" stroke="#7f00ff" d="M 203.849 89.4735C 212.432 89.4735 220.443 92.6644 229.026 93.7281C 230.171 94.2599 231.887 94.7917 232.459 95.8553C 233.604 101.173 235.321 107.555 230.171 110.746C 226.165 113.405 221.015 112.342 217.01 111.278C 211.86 109.683 207.282 107.023 203.849 102.769C 211.952 112.81 226.165 120.851 222.732 135.21C 222.16 137.337 221.015 140.528 218.154 140.528C 212.432 141.592 206.71 140.528 200.988 138.933C 198.127 137.869 194.121 137.869 191.26 138.933C 189.543 139.465 187.827 139.996 186.11 139.996C 186.682 130.424 184.393 119.255 188.971 110.214"/>
<path fill="#ff3f9f" stroke-width="6" stroke="#7f00ff" d="M 170.088 90.5372C 165.51 91.069 160.36 92.6644 155.783 91.6008C 151.205 90.5372 144.338 88.9417 142.622 93.7281C 138.616 102.237 146.055 109.683 150.633 116.596C 158.072 119.255 164.366 114.469 169.516 110.214C 171.233 108.619 167.227 107.555 172.377 107.555C 171.805 107.555 170.66 107.555 170.088 107.555C 164.938 111.81 160.933 117.128 159.216 122.978C 157.499 127.233 156.927 131.487 158.072 135.742C 158.644 136.274 159.216 137.869 160.36 137.869C 167.227 137.869 173.521 138.401 180.388 137.869C 181.532 128.828 186.682 120.319 186.11 110.746"/>
<path fill="#ff3f9f" stroke-width="6" stroke="#7f00ff" d="M 180.388 79.9007C 180.388 72.9871 175.81 62.8825 183.249 57.5643C 190.688 58.0961 198.127 56.5007 204.993 59.1598C 207.282 67.1371 206.71 76.178 201.56 83.0917"/>
<path fill="#ffff3f" stroke-width="6" stroke="#ff7f00" d="M 177.527 83.6235C 174.094 82.5599 171.805 85.219 170.66 87.878C 169.516 91.6008 169.516 95.8553 170.66 99.5781C 171.233 102.769 174.094 105.96 177.527 107.555C 183.821 109.683 190.688 109.151 196.982 109.151C 197.554 109.151 198.127 108.087 198.699 107.555C 200.415 99.0463 203.849 91.6008 201.56 83.0917C 194.693 78.3053 184.393 75.6462 176.955 81.4962"/>
<path fill="#3fff3f" stroke-width="6" stroke="#00ff00" d="M 181.868 178.667C 189.868 162.667 206.868 156.667 223.868 155.667C 223.868 162.667 225.868 169.667 221.868 175.667C 213.868 189.667 196.868 186.667 182.868 189.667"/>
</g>
<g>
<path fill="#ff9f3f" stroke="none" d="M 188.181 276.667C 188.181 276.667 217.181 238.667 267.181 231.667C 317.181 224.667 370.181 227.667 418.181 267.667C 466.181 307.667 489.181 366.667 492.181 401.667C 495.181 436.667 478.181 487.667 455.181 516.667C 432.181 545.667 403.181 567.667 362.181 576.667C 321.181 585.667 272.181 586.667 236.181 565.667C 200.181 544.667 150.181 489.667 142.181 458.667C 134.181 427.667 132.181 355.667 149.181 328.667C 166.181 301.667 188.181 276.667 188.181 276.667z"/>
<path fill="none" stroke-width="6" stroke="#ffdfbf" d="M 409.171 282.487C 443.431 311.2 465.184 354.104 465.184 402.042C 465.184 488.489 394.442 558.571 307.181 558.571C 271.35 558.571 238.305 546.755 211.799 526.842"/>
<path fill="none" stroke-width="6" stroke="#ff7f00" d="M 211.799 526.842C 173.751 498.259 149.177 452.993 149.177 402.042C 149.177 315.594 219.919 245.513 307.181 245.513C 346.053 245.513 381.648 259.42 409.171 282.487"/>
<path fill="none" stroke-width="6" stroke="#ff7f00" d="M 466.181 324.667L 479.181 363.167L 487.181 377.667L 479.181 374.667L 480.181 388.667L 490.181 398.167L 490.681 413.167L 480.181 404.667L 480.181 420.167L 488.181 431.667L 487.181 446.167L 477.181 436.167L 474.181 451.667L 482.181 464.167L 476.681 478.667L 467.181 468.167L 459.681 482.667L 468.681 494.667L 461.181 508.667L 451.181 495.167L 443.681 509.167L 450.181 522.167L 440.681 533.167L 432.681 520.167L 423.514 529L 430.181 541L 420.847 550.333L 414.847 537L 404.181 545L 411.514 557L 400.847 562.333L 396.181 550.333L 385.514 556.333L 389.514 569L 376.847 573L 370.847 561.667L 360.847 566.333L 362.181 576.667L 350.847 577.667L 346.181 568.333L 332.847 571L 337.514 581.667L 326.181 581L 322.181 572.667L 310.181 574.333L 314.181 582.333L 302.847 581.667L 298.181 573L 288.181 573.667L 289.181 581.667L 276.181 578.333L 272.847 569C 272.847 569 245.514 561 245.514 563C 245.514 565 270.181 571.667 270.181 571.667"/>
<path fill="none" stroke-width="6" stroke="#ffdfbf" d="M 306.746 549.184C 306.746 549.184 331.057 503.556 364.668 468.65C 410.773 420.768 453.318 403.65 453.318 403.65C 453.318 403.65 407.961 384.65 363.668 338.65C 330.057 303.743 305.289 257.65 305.289 257.65C 305.289 257.65 282.279 303.743 248.668 338.65C 204.376 384.65 157.668 403.65 157.668 403.65C 157.668 403.65 203.376 422.65 247.668 468.65C 281.279 503.556 306.746 549.184 306.746 549.184z"/>
<g>
<path fill="none" stroke-width="6" stroke="#ffdfbf" d="M 335.181 453.167C 343.681 457.167 349.181 458.167 349.181 458.167L 348.681 466.667L 273.181 466.667L 272.681 458.167C 272.681 458.167 279.681 457.167 287.681 453.667C 295.681 450.167 297.681 446.167 297.681 446.167L 297.681 373.667L 275.681 373.667L 275.681 363.667C 275.681 363.667 288.41 362.699 301.681 356.667C 312.681 351.667 316.681 343.667 316.681 343.667L 324.681 343.667L 324.681 446.167C 324.681 446.167 326.681 449.167 335.181 453.167z"/>
<path fill="none" stroke-width="6" stroke="#ffdfbf" d="M 310.681 371.167L 310.681 454.667"/>
</g>
<g>
<path fill="none" stroke-width="6" stroke="#ff7f00" d="M 330.418 446.65C 338.918 450.65 344.418 451.65 344.418 451.65L 343.918 460.15L 268.418 460.15L 267.918 451.65C 267.918 451.65 274.918 450.65 282.918 447.15C 290.918 443.65 292.918 439.65 292.918 439.65L 292.918 367.15L 270.918 367.15L 270.918 357.15C 270.918 357.15 283.648 356.182 296.918 350.15C 307.918 345.15 311.918 337.15 311.918 337.15L 319.918 337.15L 319.918 439.65C 319.918 439.65 321.918 442.65 330.418 446.65z"/>
<path fill="none" stroke-width="6" stroke="#ff7f00" d="M 305.918 364.65L 305.918 448.15"/>
</g>
</g>
<g>
<path fill="none" stroke-width="6" stroke="#000000" d="M 208.433 544.802C 238.258 569.415 276.493 584.201 318.181 584.201C 413.467 584.201 490.715 506.953 490.715 411.667C 490.715 387.037 485.554 363.613 476.254 342.416"/>
<path fill="none" stroke-width="6" stroke="#000000" d="M 307.618 572.638C 402.905 572.638 480.152 495.391 480.152 400.104C 480.152 304.818 402.905 227.57 307.618 227.57C 212.332 227.57 135.084 304.818 135.084 400.104C 135.084 495.391 212.332 572.638 307.618 572.638z"/>
<path fill="none" stroke-width="6" stroke="#ff7f00" d="M 305.258 542.201C 305.258 542.201 329.57 496.573 363.181 461.667C 409.286 413.785 451.831 396.667 451.831 396.667C 451.831 396.667 406.473 377.667 362.181 331.667C 328.57 296.76 303.801 250.667 303.801 250.667C 303.801 250.667 280.791 296.76 247.181 331.667C 202.888 377.667 156.18 396.667 156.18 396.667C 156.18 396.667 201.888 415.667 246.181 461.667C 279.791 496.573 305.258 542.201 305.258 542.201z"/>
</g>
</svg>