<svg xmlns="http://www.w3.org/2000/svg"
	xmlns:xlink="http://www.w3.org/1999/xlink"
	viewBox="31.7 0 577 792"
	width="642.122" height="798.406">
<g id="scene">
    <set attributeName="opacity" to="1" 
		    fill="freeze" begin="btn1.click"/>
    <set attributeName="opacity" to="0" 
		    fill="freeze" begin="btn2.click"/>
    <set attributeName="opacity" to="0" 
		    fill="freeze" begin="scene.load"/><g>
<path fill="#72cc72" stroke="none" d="M 608.695 792L 608.695 0L 31.6951 0L 31.6951 792L 608.695 792z"/>
</g>
<g>
<path fill="#ff7fbf" stroke="none" d="M 188.695 230L 376.695 120L 534.695 416L 344.695 528L 188.695 230z"/>
<path fill="#9f9f3f" stroke="none" d="M 228.362 316.333C 228.362 316.333 212.695 311.667 205.028 319C 197.362 326.333 181.695 349.333 182.028 362.667C 182.362 376 188.695 404 203.028 409.667C 217.362 415.333 235.362 420 246.028 416.333C 256.695 412.667 266.695 412.333 267.028 398.667C 267.362 385 271.028 370.667 265.695 360C 260.362 349.333 255.028 329.333 245.362 325C 235.695 320.667 228.362 316.333 228.362 316.333z"/>
<path fill="#9f9f3f" stroke="none" d="M 189.695 398.667"/>
<path fill="#bf7fbf" stroke="none" d="M 211.32 303.792L 216.653 300.458L 223.32 304.792L 227.987 306.792L 241.32 321.125L 240.987 329.458L 227.987 325.125L 223.987 334.458L 214.32 324.125L 201.32 335.792C 201.32 335.792 198.987 351.458 195.987 356.792C 192.987 362.125 192.32 368.792 186.653 373.125C 180.987 377.458 187.653 393.458 187.653 393.458L 181.695 401.333L 183.028 408.333L 177.028 412L 181.362 419L 170.362 419.667L 160.362 416L 160.695 404.667L 170.028 401.333L 164.028 394.333L 173.695 389.333L 176.028 384.333L 162.695 375.333L 163.695 358.333L 175.362 354L 177.028 347L 172.028 338L 182.028 333L 182.695 323.333L 189.028 321.667L 187.695 312L 193.362 310.333L 202.028 308.333L 211.32 303.792z"/>
<path fill="#bfbf7f" stroke="none" d="M 31.6951 765.5C 43.6951 765.5 58.7323 771.334 68.7323 765.334C 72.7323 763.334 62.7323 755.334 60.7323 747.334C 60.7323 737.334 58.7323 725.334 62.7323 723.334C 82.7323 711.334 110.732 709.334 136.732 711.334C 138.732 697.334 130.732 687.334 130.732 673.334C 158.732 673.334 184.732 669.334 212.732 671.334C 212.732 655.334 212.732 641.334 212.732 625.334C 236.732 623.334 258.732 611.334 284.732 615.334C 284.732 601.334 284.732 589.334 282.732 575.334C 308.732 573.334 332.732 569.334 358.732 567.334C 358.732 553.334 358.732 539.334 358.732 525.334C 386.732 525.334 414.732 527.334 442.732 519.334C 442.732 505.334 434.732 495.334 436.732 481.334C 458.732 481.334 608.445 476 608.445 476L 608.695 792.25L 31.4451 792.25L 31.6951 765.5z"/>
</g>
<g>
<path fill="none" stroke-width="6" stroke="#7f7f00" d="M 31.4451 765.5C 43.4451 765.5 60.9451 769.75 70.9451 763.75C 74.9451 761.75 64.9451 753.75 62.9451 745.75C 62.9451 735.75 60.9451 723.75 64.9451 721.75C 84.9451 709.75 112.945 707.75 138.945 709.75C 140.945 695.75 132.945 685.75 132.945 671.75C 160.945 671.75 186.945 667.75 214.945 669.75C 214.945 653.75 214.945 639.75 214.945 623.75C 238.945 621.75 260.945 609.75 286.945 613.75C 286.945 599.75 286.945 587.75 284.945 573.75C 310.945 571.75 334.945 567.75 360.945 565.75C 360.945 551.75 360.945 537.75 360.945 523.75C 388.945 523.75 416.945 525.75 444.945 517.75C 444.945 503.75 436.945 493.75 438.945 479.75C 460.945 479.75 612.639 480.423 610.658 474.416"/>
<path fill="none" stroke-width="6" stroke="#ff007f" d="M 272.634 388.033L 347.232 526.732L 535.919 416.31L 376.158 119.268L 187.471 229.69L 231.163 310.927"/>
<path fill="none" stroke-width="6" stroke="#9f3f3f" d="M 234.695 316C 220.695 316 208.695 312 198.695 324C 194.695 332 190.695 338 186.695 346C 180.695 360 180.695 378 186.695 392C 196.695 414 228.695 420 252.695 414C 272.695 408 268.695 384 266.695 366C 264.695 352 254.695 342 248.695 330C 244.695 328 242.695 322 236.695 322C 234.695 322 234.695 318 234.695 316z"/>
<path fill="none" stroke-width="6" stroke="#9f3f3f" d="M 214.695 418C 206.695 436 190.695 448 180.695 466C 166.695 494 140.695 552 140.695 552C 140.695 552 196.695 564 224.695 564C 222.695 600 200.695 632 192.695 668"/>
<path fill="none" stroke-width="6" stroke="#9f3f3f" d="M 140.695 552C 136.695 572 126.695 630 120.695 648C 110.695 670 88.6951 686 84.6951 710"/>
<path fill="none" stroke-width="6" stroke="#9f3f3f" d="M 188.695 456C 194.695 458 242.72 444.073 248.695 442C 281.362 430.667 274.695 434.667 296.695 420.667"/>
<path fill="none" stroke-width="6" stroke="#9f3f3f" d="M 200.695 438C 226.695 436 255.362 414 277.362 402"/>
<path fill="none" stroke-width="6" stroke="#9f3f3f" d="M 215.362 352C 224.362 355 233.695 355.333 243.028 353.667C 249.028 352.667 254.695 351.667 260.695 351.333"/>
<path fill="none" stroke-width="6" stroke="#9f3f3f" d="M 220.695 366.333C 226.695 366.333 232.695 366.333 238.695 366.333"/>
<path fill="none" stroke-width="6" stroke="#9f3f3f" d="M 252.695 365C 255.695 363.333 259.695 363 262.695 361.333"/>
<path fill="none" stroke-width="6" stroke="#9f3f3f" d="M 228.028 405.333C 237.695 401.667 248.362 402.667 258.362 402.333"/>
<path fill="none" stroke-width="6" stroke="#9f3f9f" d="M 216.362 324.333C 216.362 321.333 217.028 318.333 216.362 315.333C 215.695 312 213.695 308.667 211.362 306.667C 209.362 305 205.695 305 203.362 306.667C 201.028 308 199.695 311.333 200.362 314.333C 196.362 312.667 191.028 309 188.028 313.333C 187.028 314.333 187.362 316.333 187.695 317.667C 188.028 318.667 189.362 319 190.028 319.667C 190.362 320.333 190.362 321.333 190.028 321.667C 187.362 323.333 183.362 322.667 182.028 325.667C 181.028 328 183.028 330.667 182.028 333C 181.362 334.667 178.695 334 177.028 335C 175.362 336 173.362 337.333 172.695 339C 172.028 340.667 172.028 342.333 172.695 344C 173.028 345.667 174.695 346.333 176.362 347.333C 177.695 348.667 177.362 351 176.695 353C 176.362 355 174.028 356.667 172.028 357.333C 169.362 358 166.362 357.333 163.695 358C 162.028 358.333 162.362 361 163.028 362C 165.028 365.333 168.028 367.667 167.028 371.667C 166.028 376.333 161.028 376.333 157.028 376.667C 155.028 377 155.028 379.667 156.028 381C 157.028 382.333 158.695 383.333 160.362 383"/>
<path fill="none" stroke-width="6" stroke="#9f3f9f" d="M 228.362 322.333C 228.362 321.667 228.028 320.667 228.362 320.333C 229.362 320 230.028 319 230.028 318.333C 230.695 314.667 231.028 310.667 228.362 307.333C 227.362 306 226.028 306 224.695 306.333C 223.695 307 223.362 308.333 222.028 307.667C 220.028 306.667 220.362 304 219.028 302.333C 218.028 301 216.362 301.333 215.028 301.333"/>
<path fill="none" stroke-width="6" stroke="#9f3f9f" d="M 200.028 351C 196.028 351 191.695 350.333 187.695 350.667C 185.695 353.667 187.028 357.333 186.362 360.667C 186.028 362 184.362 362 183.028 362.333C 181.028 363.333 179.028 365 178.028 366.667C 176.695 369.333 179.362 372 178.695 375C 176.362 375 173.695 374.667 171.362 375.333C 170.028 375.333 170.695 377.333 170.695 378.333C 172.028 382 178.695 383.667 176.028 387.667C 174.362 390 170.362 388.667 167.695 390.667C 165.362 392.333 164.362 395.667 166.695 397.333C 168.028 398 170.028 398.333 170.695 399.667C 171.362 401 171.695 403 170.695 404C 169.362 406.333 165.695 405 163.362 404.667C 161.695 404.667 160.362 404 158.695 404.333C 157.695 405 157.695 406.667 158.362 407.667C 159.362 409.333 162.028 409.667 164.028 411C 165.695 412 165.695 415.333 164.028 415.667C 161.028 416.333 157.695 416 154.695 416C 155.028 416.667 154.028 417 154.362 417.667"/>
<path fill="none" stroke-width="6" stroke="#9f3f9f" d="M 184.362 397.333C 184.362 398 183.695 398.667 183.028 399C 181.362 399.667 180.362 402 181.362 402.333C 183.695 403.667 185.362 406.667 184.028 408.333C 182.695 409.667 179.695 408.667 178.362 410.333C 177.695 411 177.695 412.333 178.028 413.333C 179.362 414.667 181.028 416 181.028 418L 180.695 418"/>
<path fill="none" stroke-width="6" stroke="#ff3f9f" d="M 202.695 231L 273.695 192L 300.695 236L 225.695 275L 202.695 231z"/>
<path fill="none" stroke-width="6" stroke="#ff3f9f" d="M 284.695 186L 308.695 231L 397.695 185L 371.695 135L 284.695 186z"/>
<path fill="none" stroke-width="6" stroke="#ff3f9f" d="M 230.695 287L 400.695 194L 428.695 248L 256.695 332L 230.695 287z"/>
<path fill="none" stroke-width="6" stroke="#ff3f9f" d="M 262.695 341L 433.695 255L 466.695 311L 292.695 396L 262.695 341z"/>
<path fill="none" stroke-width="6" stroke="#ff3f9f" d="M 294.695 406L 468.695 318L 501.133 371.875L 327.133 462.875L 294.695 406z"/>
<path fill="none" stroke-width="6" stroke="#ff3f9f" d="M 248.195 244.278C 253.272 244.278 257.387 240.796 257.387 236.5C 257.387 232.204 253.272 228.722 248.195 228.722C 243.118 228.722 239.003 232.204 239.003 236.5C 239.003 240.796 243.118 244.278 248.195 244.278z"/>
<path fill="none" stroke-width="6" stroke="#ff3f9f" d="M 282.695 298.278C 287.772 298.278 291.887 294.796 291.887 290.5C 291.887 286.204 287.772 282.722 282.695 282.722C 277.618 282.722 273.503 286.204 273.503 290.5C 273.503 294.796 277.618 298.278 282.695 298.278z"/>
<path fill="none" stroke-width="6" stroke="#ff3f9f" d="M 317.695 358C 322.772 358 326.887 354.517 326.887 350.222C 326.887 345.926 322.772 342.444 317.695 342.444C 312.618 342.444 308.503 345.926 308.503 350.222C 308.503 354.517 312.618 358 317.695 358z"/>
<path fill="none" stroke-width="6" stroke="#ff3f9f" d="M 355.695 420C 360.772 420 364.887 416.517 364.887 412.222C 364.887 407.926 360.772 404.444 355.695 404.444C 350.618 404.444 346.503 407.926 346.503 412.222C 346.503 416.517 350.618 420 355.695 420z"/>
<path fill="none" stroke-width="6" stroke="#ff3f9f" d="M 339.503 193.778C 344.579 193.778 348.695 190.296 348.695 186C 348.695 181.704 344.579 178.222 339.503 178.222C 334.426 178.222 330.31 181.704 330.31 186C 330.31 190.296 334.426 193.778 339.503 193.778z"/>
<path fill="none" stroke-width="6" stroke="#ff3f9f" d="M 374.19 252.403C 379.267 252.403 383.383 248.921 383.383 244.625C 383.383 240.329 379.267 236.847 374.19 236.847C 369.113 236.847 364.998 240.329 364.998 244.625C 364.998 248.921 369.113 252.403 374.19 252.403z"/>
<path fill="none" stroke-width="6" stroke="#ff3f9f" d="M 414.19 311.091C 419.267 311.091 423.383 307.608 423.383 303.312C 423.383 299.017 419.267 295.534 414.19 295.534C 409.113 295.534 404.998 299.017 404.998 303.312C 404.998 307.608 409.113 311.091 414.19 311.091z"/>
<path fill="none" stroke-width="6" stroke="#ff3f9f" d="M 449.378 371.466C 454.454 371.466 458.57 367.983 458.57 363.688C 458.57 359.392 454.454 355.909 449.378 355.909C 444.301 355.909 440.185 359.392 440.185 363.688C 440.185 367.983 444.301 371.466 449.378 371.466z"/>
<path fill="none" stroke-width="6" stroke="#7f7fbf" d="M 274.695 171C 274.695 167.5 274.195 164 275.195 160.5C 275.195 158.5 276.195 156.5 276.195 154.5C 278.695 140.5 280.195 126.5 283.195 113"/>
<path fill="none" stroke-width="6" stroke="#7f7fbf" d="M 295.195 113C 296.695 105.5 299.195 99 300.695 91C 302.195 85.5 306.695 82 309.195 77C 311.195 74.5 313.695 72.5 316.195 71C 320.695 68.5 325.195 66 330.695 65C 342.695 63 354.195 64 365.695 64C 370.695 68 376.695 69.5 381.695 73C 387.43 77.0143 395.695 74 402.695 72C 411.695 69 418.195 62.5 426.195 57C 427.195 56 428.695 55.5 430.195 55.5"/>
<path fill="none" stroke-width="6" stroke="#7f7fbf" d="M 297.195 155C 297.195 140 295.695 125.5 295.695 110.5"/>
<path fill="none" stroke-width="6" stroke="#7f7fbf" d="M 374.195 71.5C 371.195 77.5 370.195 94 370.195 94L 381.195 96C 381.195 96 375.695 108 373.195 116.5"/>
<path fill="none" stroke-width="6" stroke="#7f7fbf" d="M 364.695 68.5C 361.695 77 358.195 85 355.195 93.5C 357.695 93.5 359.695 96 362.695 95.5C 362.695 96 362.695 97 362.695 97.5C 358.695 104.5 352.195 111 352.195 119.5"/>
<path fill="none" stroke-width="6" stroke="#7f7fbf" d="M 272.695 68.5C 266.979 72.8967 265.195 89 273.695 95C 279.195 98.5 285.695 98 292.195 97C 294.695 96.5 293.195 98 297.195 92C 301.195 86 303.896 74.1605 296.195 68C 288.695 62 279.195 63.5 272.695 68.5z"/>
<path fill="none" stroke-width="6" stroke="#7f7fbf" d="M 268.195 73.5C 266.695 73.5 261.195 67.5 261.695 59.5C 262.195 51.5 262.695 54.5 265.695 54C 268.695 53.5 277.695 63.5 277.695 63.5"/>
<path fill="none" stroke-width="6" stroke="#7f7fbf" d="M 289.195 64C 289.195 64 294.195 52.5 297.695 51C 301.195 49.5 303.195 50.5 304.195 56.5C 305.195 62.5 299.695 70.5 299.695 70.5"/>
<path fill="none" stroke-width="6" stroke="#7f7fbf" d="M 274.695 73.5L 277.195 84"/>
<path fill="none" stroke-width="6" stroke="#7f7fbf" d="M 292.195 73L 290.195 84"/>
</g>
</g>
<g>
    <animateTransform attributeName="transform" type="scale"
            additive="replace" fill="freeze" 
            values="1.0; 0.2" begin="btn1.click" dur="1"/>
    <animateTransform attributeName="transform" type="scale"
            additive="replace" fill="freeze" 
            values="0.2; 1.0" begin="btn2.click" dur="1"/>
<g>
<path fill="#ff9f3f" stroke-width="6" stroke="#000000" d="M 501.362 186.711C 540.414 186.711 572.072 155.052 572.072 116C 572.072 76.9482 540.414 45.2893 501.362 45.2893C 462.31 45.2893 430.651 76.9482 430.651 116C 430.651 155.052 462.31 186.711 501.362 186.711z"/>
<path fill="#ff9f3f" stroke-width="6" stroke="#000000" d="M 142.862 191.711C 181.914 191.711 213.572 160.052 213.572 121C 213.572 81.9482 181.914 50.2893 142.862 50.2893C 103.81 50.2893 72.1511 81.9482 72.1511 121C 72.1511 160.052 103.81 191.711 142.862 191.711z"/>
</g>
<path fill="#ff9f3f" stroke-width="6" stroke="#000000" d="M 322.112 326.461C 361.164 326.461 392.822 294.802 392.822 255.75C 392.822 216.698 361.164 185.039 322.112 185.039C 283.06 185.039 251.401 216.698 251.401 255.75C 251.401 294.802 283.06 326.461 322.112 326.461z"/>
<g>
<path fill="#ff9f3f" stroke-width="6" stroke="#000000" d="M 499.445 735.711C 538.497 735.711 570.156 704.052 570.156 665C 570.156 625.948 538.497 594.289 499.445 594.289C 460.393 594.289 428.734 625.948 428.734 665C 428.734 704.052 460.393 735.711 499.445 735.711z"/>
<path fill="#ff9f3f" stroke-width="6" stroke="#000000" d="M 140.945 740.711C 179.997 740.711 211.656 709.052 211.656 670C 211.656 630.948 179.997 599.289 140.945 599.289C 101.893 599.289 70.2344 630.948 70.2344 670C 70.2344 709.052 101.893 740.711 140.945 740.711z"/>
</g>
<g>
<path fill="#ff9f3f" stroke-width="6" stroke="#000000" d="M 501.362 461.211C 540.414 461.211 572.072 429.552 572.072 390.5C 572.072 351.448 540.414 319.789 501.362 319.789C 462.31 319.789 430.651 351.448 430.651 390.5C 430.651 429.552 462.31 461.211 501.362 461.211z"/>
<path fill="#ff9f3f" stroke-width="6" stroke="#000000" d="M 142.862 466.211C 181.914 466.211 213.572 434.552 213.572 395.5C 213.572 356.448 181.914 324.789 142.862 324.789C 103.81 324.789 72.1511 356.448 72.1511 395.5C 72.1511 434.552 103.81 466.211 142.862 466.211z"/>
</g>
</g>
</svg>