<svg xmlns="http://www.w3.org/2000/svg"
	xmlns:xlink="http://www.w3.org/1999/xlink"
	viewBox="31.1 13.7 577 792"
	width="637.557" height="837.722">
<g id="scene">
    <set attributeName="opacity" to="1" 
		    fill="freeze" begin="btn1.click"/>
    <set attributeName="opacity" to="0" 
		    fill="freeze" begin="btn2.click"/>
    <set attributeName="opacity" to="0" 
		    fill="freeze" begin="scene.load"/>
<g>
<path fill="#9fff3f" stroke="none" d="M 608.112 805.656L 608.112 13.6558L 31.1118 13.6558L 31.1118 805.656L 608.112 805.656z"/>
</g>
<g>
<path fill="#ffff7f" stroke-width="1" stroke="#ffbf7f" d="M 120.862 102.027C 117.987 103.902 116.237 106.527 115.612 109.902L 114.612 112.527C 114.487 113.027 114.612 113.527 114.862 113.902L 115.612 115.027L 115.612 115.027L 115.987 115.652C 116.237 116.152 116.612 116.402 117.112 116.527L 118.987 116.902C 121.862 117.527 124.862 117.902 127.862 117.902L 131.987 118.027C 132.612 118.027 133.237 117.777 133.612 117.402L 134.487 116.652L 133.737 117.152L 134.987 116.652C 135.487 116.527 135.862 116.152 136.112 115.777L 136.737 114.902C 142.112 109.152 144.362 100.902 141.237 93.5273L 141.487 90.5273C 141.362 89.4023 140.737 88.4023 139.737 87.7773L 138.987 87.2773L 138.987 87.2773L 138.487 87.0273L 140.112 89.0273L 139.862 88.0273C 139.612 87.2773 139.112 86.5273 138.362 86.0273L 137.862 85.7773C 132.362 80.6523 125.112 79.0273 117.737 79.6523L 115.362 79.6523C 114.612 79.6523 113.987 79.7773 113.237 80.1523L 111.612 81.2773C 99.2368 87.6523 92.9868 102.277 91.8618 115.652C 90.8618 126.777 95.9868 138.027 106.237 143.402C 116.612 148.902 126.362 142.402 136.987 142.902L 139.862 143.277C 141.612 143.402 143.487 142.777 144.737 141.527L 155.237 131.027C 161.237 122.402 173.112 116.402 172.112 103.277C 172.862 100.777 171.612 98.2773 169.237 97.5273C 166.737 96.7773 164.237 98.1523 163.487 100.527C 159.987 105.402 157.737 111.152 153.112 115.152L 136.237 133.027L 141.112 131.277L 135.112 129.777C 125.862 131.902 114.987 138.277 106.862 130.277C 95.8618 119.152 101.237 102.152 110.237 91.4023L 117.487 87.1523L 115.362 87.6523L 120.362 87.7773C 123.237 87.1523 126.112 87.9023 128.987 88.1523L 134.737 92.1523L 133.112 90.1523L 133.487 91.0273C 133.737 91.9023 134.362 92.6523 135.112 93.1523L 135.737 93.2773L 135.737 93.2773L 136.487 93.6523L 134.737 90.7773L 134.987 95.1523C 137.487 98.7773 138.362 104.277 135.362 108.152L 132.112 112.902L 133.362 112.027L 131.987 112.527C 131.737 112.652 131.487 112.902 131.237 113.152L 130.362 113.902L 131.987 113.277L 127.987 113.277C 126.612 114.027 125.237 113.402 123.862 113.402L 117.862 112.902L 118.987 113.652L 118.487 113.027L 118.487 113.027L 117.737 112.027L 117.987 113.402L 119.112 108.902C 117.987 106.027 120.237 104.527 121.862 102.902C 121.987 102.527 121.987 102.152 121.737 101.902C 121.487 101.777 120.987 101.777 120.862 102.027L 120.862 102.027z"/>
<path fill="#ffff7f" stroke-width="1" stroke="#ffbf7f" d="M 377.862 83.2773C 377.112 84.4023 376.237 85.5273 375.487 86.6523L 374.737 89.5273C 374.612 90.0273 374.737 90.5273 375.112 90.9023L 375.862 91.6523C 378.487 93.7773 381.237 95.2773 384.737 95.4023L 386.112 95.6523C 386.487 95.7773 386.862 95.6523 387.362 95.5273L 388.862 94.7773C 389.862 94.4023 390.987 93.9023 391.987 93.5273L 393.362 93.0273C 393.737 92.7773 394.112 92.4023 394.362 92.0273L 394.987 91.1523C 402.862 84.0273 398.112 71.7773 390.112 66.9023C 384.612 63.5273 379.112 60.6523 372.362 61.6523C 362.237 63.4023 355.487 71.7773 353.112 81.4023C 351.737 87.2773 352.612 93.0273 356.237 98.6523C 368.237 116.527 392.612 120.527 409.987 109.402C 419.862 103.027 427.987 91.9023 426.987 80.5273C 426.112 70.7773 420.237 61.6523 416.362 52.2773C 414.737 49.2773 410.987 48.0273 407.862 49.6523C 404.862 51.2773 403.612 55.1523 405.237 58.1523C 408.737 64.1523 413.487 69.5273 415.112 76.1523C 417.362 85.4023 410.987 93.1523 404.737 98.6523C 395.487 106.777 381.987 104.527 371.112 99.5273C 364.862 96.5273 360.362 90.2773 361.612 82.7773C 362.487 77.2773 365.737 73.2773 370.612 71.1523C 378.862 67.6523 389.112 73.9023 392.737 82.0273L 389.987 89.1523L 390.987 88.2773L 386.862 90.6523L 386.862 90.6523L 385.362 91.4023L 386.612 91.1523L 381.987 90.5273C 381.987 90.6523 381.987 90.7773 381.987 90.9023L 377.362 88.6523L 377.737 89.9023L 378.487 83.6523C 378.737 83.7773 378.862 83.9023 379.112 84.0273C 379.362 83.6523 379.112 83.1523 378.862 83.0273C 378.487 82.9023 378.112 83.0273 377.862 83.2773L 377.862 83.2773z"/>
<path fill="#bfdfff" stroke-width="1" stroke="#7fbfff" d="M 463.862 151.027C 462.487 151.152 461.112 151.402 459.737 151.527L 458.487 151.652L 458.487 151.652L 457.987 151.777C 457.487 151.902 457.112 152.402 456.987 152.902L 456.737 153.777C 456.487 154.902 456.112 156.152 455.862 157.277L 455.112 160.652C 455.112 161.277 455.362 161.902 455.612 162.527L 456.362 163.652L 456.362 163.652L 456.987 164.902C 457.362 165.527 458.112 166.027 458.862 166.277L 458.737 166.027C 466.362 172.152 476.987 169.152 483.112 163.027C 487.612 158.652 490.987 153.152 490.237 145.527L 490.237 140.902C 490.237 140.027 490.112 139.277 489.612 138.652L 488.362 136.652C 485.237 130.652 479.862 126.152 473.487 124.527C 455.487 120.027 436.112 128.027 425.862 144.027C 416.237 158.902 423.362 177.277 434.862 188.277L 441.487 192.402C 442.362 192.652 443.237 192.652 444.112 192.527L 468.237 188.152C 482.112 183.902 499.862 186.652 508.987 172.652C 519.112 156.652 520.612 137.777 514.487 121.152C 503.862 92.9023 468.487 85.0273 441.362 93.4023L 436.487 93.9023C 435.737 94.1523 435.112 94.4023 434.487 94.9023L 432.362 96.4023C 421.737 103.152 409.487 107.277 401.487 117.652C 391.487 130.777 384.362 145.652 385.112 161.152C 386.112 179.277 395.987 196.652 407.612 210.777C 422.737 217.902 438.737 225.277 455.237 223.902C 490.737 220.777 529.112 206.402 544.362 171.902C 557.737 141.402 549.987 108.777 531.237 81.0273C 517.487 60.5273 492.862 55.4023 469.112 57.4023C 466.112 57.7773 461.112 56.2773 455.862 57.5273L 452.237 59.0273L 458.862 59.5273L 455.737 57.5273C 452.112 55.2773 447.987 54.4023 442.862 56.0273L 440.237 56.5273L 443.987 56.9023L 442.112 56.2773C 439.737 55.2773 437.612 53.9023 435.112 53.6523C 427.362 52.5273 421.612 57.9023 412.612 56.1523C 406.862 55.0273 402.862 61.5273 397.112 62.0273C 395.362 62.1523 393.612 61.2773 391.862 60.9023L 386.987 61.9023C 385.612 62.1523 384.362 62.9023 383.487 64.0273L 367.362 82.4023C 358.362 92.9023 349.362 103.027 344.362 116.027L 340.612 117.152C 338.362 118.652 337.237 121.152 337.487 123.652L 338.737 129.402C 339.237 130.152 339.737 130.902 340.237 131.652L 341.112 134.402L 340.987 130.402L 340.362 132.652C 338.862 139.152 342.487 145.152 343.237 151.152C 343.487 153.402 339.487 156.152 337.112 158.652L 334.362 164.402C 333.612 166.402 333.737 168.652 334.862 170.527L 338.862 175.777C 341.112 176.652 342.612 178.402 344.362 179.902L 348.237 182.027L 345.237 178.902L 346.862 182.402L 346.362 178.277L 345.862 181.152C 344.612 185.402 343.362 189.527 343.237 194.027L 344.362 199.027C 344.862 200.402 345.737 201.527 346.987 202.402L 349.737 204.402C 350.112 204.527 350.362 204.777 350.737 204.902L 353.737 206.402L 350.987 204.027L 352.987 207.152L 351.987 204.402L 351.237 213.652C 351.737 216.402 353.737 218.652 356.487 219.402L 359.987 220.277L 359.487 220.152L 362.237 221.152L 358.112 217.402L 359.112 219.527L 358.487 217.652L 358.987 221.777C 359.112 222.777 359.487 223.777 360.112 224.652L 366.362 230.027C 366.362 229.777 366.362 229.652 366.362 229.402L 370.237 231.152L 366.612 228.027L 368.237 230.902L 367.612 229.277L 369.862 235.527C 370.487 237.527 371.987 239.277 373.987 240.027L 382.112 242.777C 383.612 242.777 385.237 242.777 386.737 242.777L 391.737 242.777L 388.237 241.902L 389.237 241.402C 391.112 244.402 392.862 247.527 394.737 250.527L 397.987 254.902C 398.862 256.152 400.237 257.152 401.737 257.652L 407.862 259.027C 411.362 258.527 414.737 257.902 418.237 257.152L 421.612 257.027L 416.862 255.652L 418.987 257.152C 423.362 263.152 430.737 261.652 436.987 260.902L 439.237 263.902C 440.612 264.402 442.112 264.527 443.612 264.152L 447.862 263.027C 453.237 260.152 458.987 264.027 464.487 261.902C 479.737 255.902 494.362 249.777 508.362 241.027C 531.987 226.277 552.737 210.027 569.987 188.527C 572.112 186.027 571.862 182.277 569.487 180.152C 566.987 178.027 563.237 178.152 561.112 180.652C 541.487 196.027 524.987 214.527 502.987 227.527C 488.987 235.902 475.237 243.402 459.487 247.652C 456.362 248.527 452.862 247.152 449.362 247.277L 439.987 250.027L 445.487 250.902L 440.862 248.152C 438.487 247.652 436.112 247.277 433.737 246.777L 425.237 243.902C 423.862 243.027 422.237 242.527 420.612 242.652L 415.862 242.902C 414.487 243.652 412.862 243.527 411.362 243.777L 405.737 243.777L 409.612 246.402L 406.862 242.777C 406.862 242.902 406.987 242.902 406.987 243.027L 395.362 229.402C 394.237 228.777 392.987 228.527 391.737 228.527L 386.737 228.527C 386.737 228.527 386.737 228.527 379.362 226.777C 379.362 226.777 379.362 226.777 383.237 230.402C 383.237 230.402 383.237 230.402 380.987 224.277C 380.987 224.277 380.862 224.027 380.737 223.902C 380.612 223.652 380.612 223.652 378.987 220.777C 378.987 220.777 378.112 219.402 376.862 218.277C 375.237 217.652 375.237 217.652 370.112 216.277C 370.112 216.277 370.112 216.277 373.612 218.902C 373.612 218.902 373.612 218.902 371.862 216.527C 371.862 216.527 371.862 216.527 373.112 220.277C 373.112 220.277 373.112 220.277 372.737 216.152C 372.737 216.152 372.612 215.277 372.362 214.277C 371.987 213.402 371.987 213.402 370.987 211.277C 370.987 211.277 370.237 209.527 368.737 208.277C 366.862 207.652 366.862 207.652 364.112 206.652C 364.112 206.652 363.987 206.652 363.862 206.527C 363.612 206.527 363.612 206.527 360.112 205.527C 360.112 205.527 360.112 205.527 365.362 213.402C 365.362 213.402 365.362 213.402 365.862 209.652C 365.862 209.652 366.112 207.402 365.862 205.152C 365.862 202.902 365.862 202.902 362.737 196.152C 362.737 196.152 362.112 195.027 361.112 194.277C 359.987 193.652 359.987 193.652 356.862 192.152C 356.862 192.152 356.862 192.152 357.862 192.777C 357.862 192.777 357.862 192.777 355.112 190.902C 355.112 190.902 355.112 190.902 357.612 194.277C 357.612 194.277 357.612 194.277 357.737 190.402C 357.737 190.402 357.737 190.527 357.612 190.777C 357.612 190.902 358.237 189.027 358.862 187.152C 359.487 185.277 359.487 185.277 360.112 180.652C 360.112 180.652 360.362 179.277 360.112 177.777C 359.612 176.527 359.612 176.527 357.987 173.027C 357.987 173.027 357.362 171.652 356.237 170.527C 354.987 169.777 354.987 169.777 349.487 165.902C 349.487 165.902 349.862 166.277 350.237 166.527C 350.612 166.902 350.612 166.902 346.862 163.277C 346.862 163.277 346.862 163.277 347.362 169.402C 347.362 169.402 347.362 169.402 350.112 165.152C 350.112 165.152 356.362 158.777 360.362 148.902C 353.737 140.027 353.737 140.027 354.112 133.777C 354.112 133.777 354.487 132.527 354.487 131.152C 353.987 129.777 353.987 129.777 350.987 123.652C 350.987 123.652 350.987 123.652 351.362 125.277C 351.362 125.277 351.362 125.277 350.987 122.277C 350.987 122.277 350.987 122.277 347.362 129.027C 347.362 129.027 347.362 129.027 355.112 124.152C 355.112 124.152 360.237 117.027 361.237 107.527C 368.737 101.902 368.737 101.902 393.737 73.0273C 393.737 73.0273 393.737 73.0273 390.112 75.1523C 390.112 75.1523 390.112 75.1523 395.487 74.6523C 395.487 74.6523 397.737 74.9023 400.487 75.6523C 402.112 74.5273 411.612 67.5273 419.987 71.1523C 429.737 68.5273 429.737 68.5273 438.987 70.0273C 438.987 70.0273 440.112 70.4023 441.487 70.5273C 442.737 70.2773 442.737 70.2773 453.487 70.4023C 453.487 70.4023 453.487 70.4023 448.487 69.4023C 448.487 69.4023 448.487 69.4023 451.362 71.2773C 451.362 71.2773 453.362 72.5273 455.862 72.6523C 457.987 71.7773 457.987 71.7773 464.362 71.1523C 464.362 71.1523 464.237 71.1523 464.112 71.1523C 463.987 71.1523 480.987 71.9023 499.112 68.5273C 512.112 81.2773 536.612 105.402 544.487 146.527C 526.237 176.777 496.612 204.902 447.112 222.652C 411.237 194.902 407.487 183.277 397.487 173.902C 396.987 161.652 396.612 150.527 402.737 140.277C 407.112 130.152 412.237 118.027 426.487 114.527C 436.737 107.527 436.737 107.527 441.362 104.277C 441.362 104.277 441.362 104.277 438.112 105.402C 438.112 105.402 438.112 105.402 442.112 105.152C 442.112 105.152 462.737 98.0273 491.362 101.652C 501.737 122.527 511.237 141.777 505.987 174.902C 479.112 174.402 479.112 174.402 442.112 181.777C 442.112 181.777 442.112 181.777 446.612 182.902C 446.612 182.902 446.612 182.902 441.237 180.027C 441.237 180.027 434.487 171.777 428.237 160.527C 433.612 150.152 441.487 135.152 462.987 126.402C 477.612 135.652 477.612 135.652 482.612 143.027C 482.612 143.027 482.612 143.027 481.987 140.902C 481.987 140.902 481.987 140.902 481.987 145.402C 481.987 145.402 483.862 154.402 475.862 160.402C 467.862 161.777 467.862 161.777 460.487 159.777C 460.487 159.777 460.487 159.777 462.362 161.152C 462.362 161.152 462.362 161.152 461.487 160.152L 461.487 160.152C 461.487 160.152 461.487 160.152 460.612 159.027C 460.612 159.027 460.612 159.027 461.112 160.777C 461.112 160.777 461.112 160.777 461.112 155.902C 461.112 155.902 460.612 156.152 460.237 156.277C 459.737 156.527 459.737 156.527 460.487 153.902C 460.487 153.902 460.487 153.902 459.487 155.027C 459.487 155.027 459.487 155.027 459.862 154.777L 459.862 154.777C 459.862 154.777 459.862 154.777 464.112 151.652C 464.112 151.652 464.237 151.902 464.237 152.277C 464.362 152.527 464.862 152.402 465.112 151.902C 464.987 151.402 464.862 150.902 464.362 150.652C 463.862 150.777 463.862 151.027 463.862 151.027z"/>
<path fill="#ffbfdf" stroke-width="1" stroke="#ff7fbf" d="M 207.362 237.277C 206.362 238.527 205.487 239.902 204.487 241.152L 203.862 243.152C 203.737 243.902 203.987 244.527 204.362 244.902L 204.987 246.027L 204.487 245.152L 204.862 247.402C 205.237 248.277 205.987 249.027 206.987 249.277L 208.612 249.902L 207.237 249.027L 208.362 250.152C 211.987 253.402 216.487 253.402 220.862 253.902L 223.112 254.027C 223.987 254.027 224.862 253.777 225.612 253.277L 226.737 252.527C 239.862 247.152 239.987 229.652 233.487 219.652C 224.612 206.277 205.862 207.027 193.362 215.152C 179.737 224.152 174.987 241.652 179.987 256.527C 185.112 271.902 201.112 279.402 216.487 278.527L 222.862 278.652C 224.237 278.652 225.612 278.152 226.862 277.402L 239.362 268.527C 248.237 261.027 262.362 257.277 262.987 242.527C 263.362 229.652 256.612 218.402 255.112 206.027L 255.112 204.652C 255.112 203.402 254.737 202.152 253.987 201.027L 252.737 199.027C 247.612 188.027 234.487 183.527 224.112 184.402C 205.237 186.027 185.987 186.902 167.612 192.402C 141.612 211.902 143.862 255.152 163.487 278.527L 167.987 283.652C 168.862 284.527 170.112 285.277 171.362 285.652L 175.362 286.527C 197.737 287.902 219.987 289.402 242.362 290.777L 246.987 291.027C 248.862 291.152 250.737 290.527 252.112 289.277L 254.362 287.402C 266.862 277.027 279.237 265.152 285.112 249.652C 288.862 239.652 290.737 224.902 281.612 217.277C 279.112 214.652 275.112 214.527 272.487 216.902C 269.862 219.402 269.612 223.527 272.112 226.152C 279.237 244.527 261.487 260.777 249.237 272.652L 242.612 278.027L 247.612 276.277L 243.237 276.152C 230.237 275.277 217.362 274.527 204.362 273.777L 174.987 271.652L 178.862 274.027L 174.612 269.277L 174.612 269.402C 159.737 252.152 156.612 220.777 173.487 204.152C 190.737 201.652 208.112 200.402 225.362 197.402C 229.737 201.902 236.237 195.902 239.737 204.527L 242.237 208.527L 241.237 205.027L 241.487 210.402C 243.362 224.277 257.737 244.652 238.862 251.902L 218.862 265.902L 222.862 264.652L 216.612 264.652C 207.237 265.652 198.237 264.027 193.612 255.777C 187.362 244.652 190.362 227.777 203.487 222.527C 210.112 219.902 217.362 219.777 223.112 222.652C 228.987 225.777 227.362 233.652 227.612 239.652C 227.612 240.777 225.862 241.902 224.737 243.027L 220.737 246.027L 223.112 245.277L 218.987 245.152C 218.987 245.277 219.112 245.402 219.112 245.527C 217.487 245.652 215.737 245.902 214.112 246.027L 211.737 244.777C 211.237 244.402 210.862 244.027 210.237 243.902L 208.487 243.652L 210.487 245.527L 209.362 243.527C 209.362 243.152 209.112 242.902 208.987 242.652L 207.987 241.902L 208.612 243.527L 208.112 241.277C 208.112 240.152 208.362 239.027 208.862 238.027C 208.987 237.527 208.862 237.152 208.487 236.902C 207.987 236.777 207.612 236.902 207.362 237.277L 207.362 237.277z"/>
<path fill="#ffff3f" stroke-width="1" stroke="#ff9f3f" d="M 335.612 276.902C 333.987 277.277 332.487 277.777 330.862 278.152L 330.237 279.277C 330.237 279.402 330.112 279.527 330.112 279.652L 330.237 280.277C 326.112 284.527 326.737 290.152 326.112 295.402L 325.737 298.402C 325.737 299.277 325.987 300.027 326.362 300.777L 327.237 302.027C 335.612 314.527 355.737 314.402 366.112 304.902C 372.237 299.402 372.987 291.027 375.737 283.777L 377.237 279.527C 378.112 277.902 378.112 275.902 377.362 274.277L 376.487 272.902C 374.112 263.527 366.487 257.527 358.987 252.152L 357.112 250.902C 355.987 250.152 354.612 249.902 353.237 249.902L 335.862 251.277C 326.987 252.027 318.112 252.652 309.237 253.277L 307.737 253.277C 305.737 253.402 303.862 254.402 302.737 256.152L 300.987 258.902C 290.112 278.902 290.112 306.777 308.737 322.527C 318.487 330.777 329.112 336.277 341.612 339.277C 358.737 343.527 372.862 331.652 387.737 325.402C 396.737 312.777 403.862 298.902 407.862 283.902C 403.862 259.902 389.987 236.777 370.112 223.277L 370.612 223.777C 370.237 222.277 369.362 221.027 367.987 220.527L 367.112 220.152C 354.987 219.027 343.862 216.902 331.612 214.402C 328.112 213.652 324.112 216.652 320.487 218.402L 315.362 214.402C 315.112 214.527 314.862 214.527 314.737 214.652L 311.987 215.902C 309.237 216.402 307.612 218.527 305.487 220.027L 294.737 220.527C 294.487 220.777 294.237 221.027 293.987 221.277L 291.487 224.277C 282.237 233.777 271.987 242.277 262.237 251.277C 262.112 250.777 262.112 250.277 261.987 249.777C 259.237 251.402 258.362 254.902 259.862 257.652C 261.487 260.402 264.987 261.402 267.737 259.777C 280.112 253.777 285.987 240.527 297.237 233.277L 301.612 227.777L 298.737 229.527L 303.112 229.527C 307.112 229.652 310.987 229.277 313.862 226.027L 318.487 223.152L 312.362 220.652L 314.237 224.277C 316.362 225.902 318.987 227.402 321.362 227.277C 324.737 227.152 327.737 223.402 330.737 223.027C 340.487 221.902 349.237 225.402 359.237 224.777L 364.612 228.527L 361.987 225.402L 364.737 230.527C 378.862 245.152 390.237 262.152 396.612 281.527C 392.237 294.027 389.112 307.652 380.237 318.152C 367.487 320.027 356.737 329.902 343.362 326.277C 332.237 323.152 321.862 318.027 314.362 309.527C 304.987 299.027 304.862 284.152 309.112 270.777L 313.487 263.152L 308.487 266.027L 312.612 265.777C 317.112 265.027 321.737 265.277 326.362 264.652L 354.237 262.527L 350.362 261.527L 355.737 265.277C 358.487 267.027 360.862 269.152 362.987 271.652L 366.487 279.152L 366.112 275.402L 364.112 281.402C 364.237 281.027 364.237 280.652 364.362 280.277C 363.362 294.652 350.362 305.777 335.987 299.527L 333.862 296.152L 334.487 298.527L 334.487 294.152C 332.612 290.902 334.612 287.527 334.237 284.152L 335.112 280.402L 335.112 280.777L 336.112 277.652C 336.237 277.902 336.487 278.152 336.612 278.402C 336.987 278.152 337.112 277.527 336.862 277.152C 336.612 276.777 335.987 276.652 335.612 276.902L 335.612 276.902z"/>
<path fill="#bfff7f" stroke-width="1" stroke="#3fff9f" d="M 467.737 335.027C 464.237 335.277 461.612 337.027 459.362 339.527L 456.987 341.277C 456.987 341.527 456.862 341.652 456.862 341.777L 456.112 343.777C 454.987 346.652 454.112 349.527 453.612 352.652L 453.487 353.027C 453.487 354.152 453.862 355.277 454.487 356.152L 455.237 357.152L 454.362 355.777L 454.737 357.152C 455.112 358.027 455.612 358.902 456.362 359.527L 457.487 360.277C 466.237 368.277 479.487 365.527 489.487 358.777L 491.862 356.777C 493.612 355.402 494.487 353.402 494.362 351.277L 493.362 336.777C 492.737 325.777 491.737 312.527 480.862 306.527C 459.237 294.527 436.612 312.152 428.737 332.152C 421.112 351.277 432.862 370.652 446.737 383.277C 459.237 394.527 476.862 400.152 492.862 394.277C 535.237 378.652 541.362 321.402 520.862 285.902L 517.862 280.277C 516.612 277.402 513.987 275.277 510.987 274.652L 479.737 268.652C 466.112 266.777 452.487 264.777 438.862 262.902L 436.737 262.527C 434.362 262.277 431.987 262.777 429.987 264.152L 427.237 266.027C 401.862 278.652 384.237 302.652 383.362 331.277C 382.862 351.277 383.112 370.652 386.987 390.902C 391.737 415.652 420.237 417.277 440.612 422.652C 448.362 424.652 453.987 432.777 462.237 433.402C 472.737 434.277 480.987 440.027 491.362 440.652C 494.487 440.777 497.487 440.277 500.487 439.152C 503.612 438.027 506.237 435.152 509.362 434.777C 543.487 429.902 560.112 394.402 567.612 365.277L 565.737 357.777L 564.987 366.527L 567.612 362.277C 567.737 362.152 567.737 362.027 567.862 361.902L 571.862 356.152C 572.487 355.152 572.862 354.152 572.987 353.027L 573.487 349.527C 577.862 322.152 585.237 293.527 570.862 267.402L 567.112 262.402C 565.112 260.152 561.987 258.902 558.862 259.277L 560.987 260.277C 548.487 251.027 537.737 237.152 520.487 238.027C 512.487 231.152 501.362 230.027 493.112 224.152C 485.612 218.777 477.487 218.402 469.362 217.027C 459.862 215.402 450.987 219.652 444.612 225.777C 428.612 220.152 411.112 235.277 398.237 245.027C 394.362 248.402 393.987 254.277 397.362 258.027C 400.737 261.902 406.612 262.277 410.487 258.902C 418.362 252.402 427.237 246.777 436.487 243.902C 443.737 241.527 453.112 242.777 461.112 237.777C 466.112 234.652 473.237 235.402 479.112 238.652C 496.112 248.152 513.862 253.277 530.987 261.027C 537.987 264.277 543.237 271.277 549.362 276.402L 561.112 278.527L 552.862 275.402L 554.987 279.402C 565.362 300.652 557.612 323.277 554.362 345.027L 553.987 349.777L 556.112 345.152L 552.737 349.402C 552.737 349.277 552.862 349.277 552.862 349.152L 548.612 356.277C 546.987 358.902 546.737 362.152 547.862 365.027L 547.862 368.152C 547.862 367.902 547.987 367.527 547.987 367.277C 539.737 380.152 539.112 397.277 524.737 406.402C 523.362 407.402 523.362 410.152 521.987 411.027C 513.362 416.402 502.362 414.152 494.737 421.152C 476.237 418.902 460.737 410.527 443.612 404.152C 432.737 400.152 420.737 399.027 409.862 394.152C 405.237 392.027 404.112 386.652 403.987 382.277C 403.487 365.152 400.862 348.152 402.112 331.027C 403.737 310.527 414.487 291.902 434.612 284.652L 440.737 279.527L 433.987 281.152L 438.487 281.777C 445.487 282.652 452.362 283.652 459.362 284.777L 507.362 293.152L 501.487 289.277L 504.487 294.902C 520.362 320.402 518.612 366.277 485.987 377.027C 463.862 384.277 440.487 361.652 442.362 339.902C 443.487 326.027 458.862 311.152 474.362 318.652C 477.862 320.402 478.487 325.027 479.112 329.652L 481.237 352.152L 483.612 346.652L 479.987 350.652C 480.237 350.527 480.612 350.527 480.862 350.402C 476.612 351.652 471.862 351.402 467.987 353.902L 462.362 351.652L 464.112 354.027L 463.487 352.652C 463.237 352.152 462.987 351.652 462.612 351.152L 461.737 350.277L 462.737 353.402L 463.112 348.152C 462.737 348.277 462.362 348.277 461.987 348.402L 462.737 343.777L 461.237 345.527L 465.612 340.777C 465.362 340.652 465.237 340.402 464.987 340.277C 466.112 338.902 466.237 336.777 468.487 336.277C 468.862 336.027 468.987 335.652 468.737 335.277C 468.487 334.902 468.112 334.777 467.737 335.027L 467.737 335.027z"/>
<path fill="#ff7fbf" stroke-width="1" stroke="#ff9f3f" d="M 84.1118 284.902C 81.2368 284.652 78.4868 285.652 75.9868 288.527L 75.4868 288.527C 75.1118 288.777 74.7368 289.277 74.4868 289.777L 73.9868 290.902L 73.9868 290.902L 72.9868 293.277C 72.6118 294.277 72.7368 295.402 73.2368 296.402L 73.9868 297.652C 76.1118 302.902 79.7368 306.902 86.6118 308.152L 86.4868 309.152C 87.9868 310.402 89.8618 310.652 91.6118 310.027L 94.3618 308.902C 105.362 306.277 116.362 297.902 115.237 285.402C 114.237 275.527 114.487 263.777 106.112 257.902C 87.1118 244.402 52.2368 248.027 46.8618 275.152C 44.9868 284.777 44.6118 293.402 41.7368 302.652C 38.2368 314.152 43.1118 326.152 50.9868 334.402C 69.6118 354.277 98.1118 343.402 121.737 337.652C 157.862 328.902 167.737 287.777 163.987 255.902C 156.862 245.527 153.612 234.652 149.862 222.652C 145.987 210.527 132.612 210.902 122.987 205.652C 116.237 201.902 108.487 204.777 101.737 207.652L 91.9868 197.777C 91.6118 197.777 91.2368 197.777 90.8618 197.777L 81.9868 199.527C 71.7368 204.777 64.1118 213.402 54.3618 219.277L 47.8618 221.402L 53.8618 220.902L 51.7368 220.277C 51.4868 220.277 51.1118 220.152 50.8618 220.152L 43.2368 218.527C 39.2368 217.777 35.2368 220.027 33.7368 223.777L 33.7368 224.277C 31.6118 227.277 29.8618 230.527 28.1118 233.777C 28.2368 233.527 28.4868 233.402 28.6118 233.152C 25.7368 236.652 26.3618 241.777 29.8618 244.652C 33.3618 247.527 38.4868 246.902 41.2368 243.527C 42.4868 242.027 43.8618 240.652 45.1118 239.152L 49.6118 230.152L 41.3618 235.527L 45.7368 236.652C 45.6118 236.652 45.3618 236.652 45.2368 236.652L 48.9868 237.527C 50.6118 238.027 52.3618 238.027 53.9868 237.527L 59.9868 235.527C 68.7368 229.902 77.6118 224.527 85.2368 217.277L 92.6118 215.152L 86.3618 213.402L 90.1118 218.027C 92.3618 220.277 95.1118 222.777 97.7368 223.027C 110.112 223.777 120.987 223.152 132.862 227.402C 136.987 239.777 140.362 251.902 147.612 263.027C 145.112 283.152 145.487 309.152 124.737 318.527C 107.862 326.152 89.7368 331.027 70.9868 329.027C 59.4868 327.777 53.9868 314.402 56.2368 304.902C 58.4868 294.527 56.8618 284.777 59.7368 275.027C 64.3618 258.652 84.3618 264.027 97.6118 263.527C 104.112 274.027 110.112 294.277 93.7368 298.277L 87.9868 300.777L 92.9868 301.527L 87.9868 298.402C 88.1118 298.527 88.2368 298.652 88.3618 298.777C 86.8618 298.277 85.3618 297.902 83.8618 297.402L 79.2368 292.777L 79.7368 295.027L 79.8618 292.402L 79.6118 293.152L 79.9868 291.902L 78.8618 293.277L 81.8618 290.152C 81.3618 287.652 83.7368 287.527 84.8618 286.402C 85.3618 286.152 85.4868 285.652 85.2368 285.277C 85.1118 284.777 84.4868 284.652 84.1118 284.902L 84.1118 284.902z"/>
<path fill="#ff7fbf" stroke-width="1" stroke="#ff9f3f" d="M 209.362 66.7773C 208.237 67.5273 207.237 68.4023 206.112 69.1523L 204.112 71.9023L 204.362 71.7773L 203.237 72.1523C 203.112 72.2773 202.987 72.4023 202.862 72.5273L 202.237 73.6523L 202.237 73.6523L 201.362 76.0273C 201.237 76.4023 201.237 76.7773 201.362 77.1523L 202.112 78.4023C 204.112 83.2773 208.862 85.1523 214.737 84.9023C 220.737 84.5273 226.112 82.0273 229.737 75.5273C 233.987 67.9023 231.987 58.0273 224.862 53.1523L 220.987 51.4023C 220.362 51.1523 219.737 51.1523 219.112 51.4023L 201.112 56.7773C 192.112 58.7773 183.112 60.9023 174.237 63.5273L 170.987 65.2773C 169.862 66.2773 169.237 67.5273 169.112 68.9023L 168.987 70.0273C 162.112 89.2773 178.612 111.277 198.862 114.902C 211.112 117.027 223.487 116.527 233.237 108.152C 251.112 92.9023 265.362 67.6523 253.737 44.9023C 249.737 36.9023 242.862 30.1523 233.737 28.4023L 235.487 29.0273C 234.737 28.0273 233.612 27.2773 232.487 26.9023L 229.487 26.0273C 205.362 24.0273 174.237 27.1523 160.612 49.9023C 159.737 50.9023 159.987 52.5273 161.112 53.2773C 162.112 54.1523 163.737 53.9023 164.487 52.9023C 179.362 36.6523 203.112 31.2773 223.862 37.2773L 228.987 38.0273L 225.987 35.9023L 232.362 40.4023C 232.237 40.4023 232.112 40.4023 231.987 40.4023C 241.862 43.2773 247.237 55.2773 245.612 64.7773C 243.362 78.7773 237.487 91.1523 225.237 99.5273C 212.612 108.152 195.487 105.777 186.237 95.0273C 181.612 89.5273 176.612 83.4023 178.987 74.1523L 179.612 70.0273L 177.737 73.5273L 181.112 71.6523C 183.862 67.4023 189.487 69.2773 192.737 66.1523L 220.737 56.6523L 218.987 56.5273L 223.362 59.2773C 223.237 59.1523 223.237 59.0273 223.112 58.9023C 225.862 60.5273 227.362 62.9023 228.112 65.9023C 230.112 73.9023 224.362 80.7773 216.987 81.7773C 212.737 82.4023 208.362 82.9023 204.612 78.4023L 203.237 76.0273L 203.362 76.7773L 203.862 74.1523L 203.862 74.5273L 204.362 73.4023L 203.987 73.7773L 204.987 73.1523C 205.112 73.1523 205.237 73.0273 205.362 72.7773L 209.737 67.2773C 209.862 67.4023 209.862 67.5273 209.987 67.6523C 210.237 67.5273 210.362 67.1523 210.112 66.9023C 209.987 66.6523 209.612 66.6523 209.362 66.7773L 209.362 66.7773z"/>
<path fill="#ff7fbf" stroke-width="1" stroke="#ff9f3f" d="M 60.8618 46.9023C 68.6118 56.1523 75.3618 65.4023 83.8618 73.9023C 87.6118 77.5273 92.9868 79.6523 97.7368 82.4023C 98.7368 83.4023 100.362 83.4023 101.362 82.4023C 102.362 81.4023 102.362 79.7773 101.362 78.7773C 93.1118 63.0273 79.4868 47.9023 61.7368 44.4023C 60.9868 44.2773 60.3618 44.5273 60.1118 45.2773C 59.8618 45.9023 60.2368 46.6523 60.8618 46.9023L 60.8618 46.9023z"/>
<path fill="#ff7fbf" stroke-width="1" stroke="#ff9f3f" d="M 69.9868 120.902C 69.9868 121.152 70.2368 121.402 70.4868 121.402C 70.7368 121.402 70.9868 121.152 70.9868 120.902C 70.9868 120.527 70.7368 120.402 70.4868 120.402C 70.2368 120.402 69.9868 120.527 69.9868 120.902L 69.9868 120.902z"/>
<path fill="#ff7fbf" stroke-width="1" stroke="#ff9f3f" d="M 44.7368 148.277C 59.7368 159.777 77.3618 166.902 95.7368 170.027C 99.2368 171.402 103.237 169.652 104.612 166.152C 105.987 162.777 104.362 158.777 100.862 157.402C 84.1118 147.902 63.9868 150.777 45.9868 145.402C 45.1118 145.027 44.2368 145.402 43.8618 146.277C 43.4868 147.027 43.8618 147.902 44.7368 148.277L 44.7368 148.277z"/>
<path fill="#ff7fbf" stroke-width="1" stroke="#ff9f3f" d="M 48.3618 94.2773C 62.8618 102.027 77.2368 110.152 92.9868 115.152C 93.8618 115.277 94.6118 114.652 94.6118 113.777C 94.7368 113.027 94.1118 112.277 93.2368 112.152C 79.1118 104.277 67.2368 92.5273 51.2368 88.1523C 49.3618 87.4023 47.3618 88.2773 46.6118 90.0273C 45.8618 91.9023 46.7368 93.9023 48.4868 94.6523L 48.3618 94.2773z"/>
<path fill="#ff7fbf" stroke-width="1" stroke="#ff9f3f" d="M 50.7368 188.402C 61.8618 188.152 72.8618 189.527 83.8618 189.902C 85.3618 190.402 86.8618 189.527 87.2368 188.027C 87.6118 186.652 86.7368 185.152 85.3618 184.777C 75.6118 177.277 60.3618 175.027 49.8618 182.777C 48.1118 183.652 47.3618 185.777 48.2368 187.527C 49.1118 189.277 51.2368 189.902 52.9868 189.027L 50.7368 188.402z"/>
<path fill="#ff7fbf" stroke-width="1" stroke="#ff9f3f" d="M 37.6118 465.652C 59.4868 448.277 72.7368 423.277 90.3618 402.152C 91.7368 400.527 91.6118 397.902 89.9868 396.402C 88.2368 394.902 85.6118 395.152 84.2368 396.777C 62.2368 414.652 47.9868 438.777 36.1118 464.152C 35.7368 464.527 35.7368 465.152 36.1118 465.652C 36.6118 466.027 37.2368 466.027 37.6118 465.652L 37.6118 465.652z"/>
<path fill="#ff7fbf" stroke-width="1" stroke="#ff9f3f" d="M 120.737 495.027C 126.987 486.027 133.862 477.527 140.987 469.152C 142.862 467.277 142.862 464.402 141.112 462.527C 139.362 460.777 136.487 460.652 134.612 462.402C 122.362 468.402 118.487 481.902 119.487 494.652C 119.362 495.027 119.612 495.402 119.987 495.527C 120.237 495.652 120.612 495.402 120.737 495.027L 120.737 495.027z"/>
<path fill="#ff7fbf" stroke-width="1" stroke="#ff9f3f" d="M 568.737 36.0273C 553.112 43.1523 546.237 60.6523 536.362 73.7773C 535.487 74.7773 535.612 76.2773 536.612 77.0273C 537.612 77.9023 538.987 77.7773 539.862 76.9023C 552.362 65.2773 565.112 53.5273 569.862 36.9023C 570.112 36.6523 570.112 36.1523 569.737 35.9023C 569.487 35.6523 568.987 35.6523 568.737 36.0273L 568.737 36.0273z"/>
<path fill="#ff7fbf" stroke-width="1" stroke="#ff9f3f" d="M 519.612 91.6523C 519.612 91.9023 519.862 92.1523 520.112 92.1523C 520.362 92.1523 520.612 91.9023 520.612 91.6523C 520.612 91.4023 520.362 91.1523 520.112 91.1523C 519.862 91.1523 519.612 91.4023 519.612 91.6523L 519.612 91.6523z"/>
<path fill="#ff7fbf" stroke-width="1" stroke="#ff9f3f" d="M 527.487 35.5273C 512.362 52.9023 498.612 73.4023 498.362 97.2773C 497.737 99.1523 498.737 101.152 500.612 101.652C 502.487 102.277 504.487 101.277 504.987 99.4023C 516.487 80.0273 524.112 58.5273 529.612 36.6523C 529.862 36.0273 529.612 35.2773 529.112 35.0273C 528.487 34.6523 527.737 34.9023 527.487 35.5273L 527.487 35.5273z"/>
<path fill="#ff7fbf" stroke-width="1" stroke="#ff9f3f" d="M 494.487 113.777C 491.862 118.902 489.862 124.277 487.487 129.527C 487.112 130.527 487.612 131.527 488.487 131.902C 489.362 132.152 490.362 131.777 490.737 130.902C 492.737 125.402 494.987 120.027 496.112 114.277C 496.237 113.902 495.987 113.402 495.612 113.277C 495.112 113.152 494.737 113.277 494.487 113.777L 494.487 113.777z"/>
<path fill="#ff7fbf" stroke-width="1" stroke="#ff9f3f" d="M 454.487 57.6523C 454.487 58.0273 454.862 58.4023 455.362 58.4023C 455.737 58.4023 456.112 58.0273 456.112 57.6523C 456.112 57.2773 455.737 56.9023 455.362 56.9023C 454.862 56.9023 454.487 57.2773 454.487 57.6523L 454.487 57.6523z"/>
<path fill="#ff7fbf" stroke-width="1" stroke="#ff9f3f" d="M 447.612 104.277C 440.737 111.652 435.987 122.402 439.237 132.152C 439.237 133.777 440.487 135.027 442.112 135.152C 443.737 135.152 444.987 133.902 445.112 132.277C 448.612 123.277 447.362 113.902 448.612 104.652C 448.737 104.402 448.612 104.152 448.362 104.027C 448.112 103.902 447.737 104.027 447.612 104.277L 447.612 104.277z"/>
<path fill="#ff7fbf" stroke-width="1" stroke="#ff9f3f" d="M 437.987 149.277C 437.987 149.527 438.237 149.777 438.487 149.777C 438.862 149.777 438.987 149.527 438.987 149.277C 438.987 148.902 438.862 148.777 438.487 148.777C 438.237 148.777 437.987 148.902 437.987 149.277L 437.987 149.277z"/>
<path fill="#ff7fbf" stroke-width="1" stroke="#ff9f3f" d="M 427.862 182.277C 426.612 191.652 417.987 197.652 416.612 206.902C 416.112 208.402 416.862 209.902 418.237 210.527C 419.737 211.027 421.237 210.277 421.862 208.902C 426.487 200.777 427.112 191.527 429.112 182.652C 429.237 182.277 429.112 181.902 428.737 181.777C 428.362 181.652 427.987 181.902 427.862 182.277L 427.862 182.277z"/>
<path fill="#ff7fbf" stroke-width="1" stroke="#ff9f3f" d="M 378.862 36.9023C 373.362 46.0273 369.362 57.1523 372.737 67.7773C 372.737 69.5273 374.237 71.0273 376.112 71.1523C 377.987 71.1523 379.487 69.6523 379.487 67.7773C 382.112 57.7773 381.487 47.6523 381.362 37.5273C 381.487 36.9023 381.112 36.2773 380.362 36.0273C 379.737 35.9023 379.112 36.2773 378.862 36.9023L 378.862 36.9023z"/>
<path fill="#ff7fbf" stroke-width="1" stroke="#ff9f3f" d="M 375.487 86.4023C 375.487 86.7773 375.737 87.1523 376.112 87.1523C 376.487 87.1523 376.737 86.7773 376.737 86.4023C 376.737 86.1523 376.487 85.7773 376.112 85.7773C 375.737 85.7773 375.487 86.1523 375.487 86.4023L 375.487 86.4023z"/>
<path fill="#ff7fbf" stroke-width="1" stroke="#ff9f3f" d="M 376.737 111.277C 376.362 114.777 375.612 118.152 375.737 121.652C 375.737 123.027 376.862 124.027 378.112 124.027C 379.362 124.027 380.487 123.027 380.487 121.652C 380.362 118.152 380.362 114.652 379.487 111.277C 379.487 110.527 378.862 109.902 378.112 109.902C 377.362 109.902 376.737 110.527 376.737 111.277L 376.737 111.277z"/>
<path fill="#ff7fbf" stroke-width="1" stroke="#ff9f3f" d="M 375.487 131.652C 375.237 133.277 374.862 134.777 374.612 136.402C 374.612 137.277 375.362 137.902 376.112 137.902C 376.862 137.902 377.612 137.277 377.612 136.402C 377.487 134.777 377.237 133.277 377.112 131.652C 377.112 131.027 376.737 130.652 376.112 130.652C 375.487 130.652 375.112 131.027 375.112 131.652L 375.487 131.652z"/>
<path fill="#ff7fbf" stroke-width="1" stroke="#ff9f3f" d="M 375.237 151.652C 373.737 153.277 372.362 155.027 373.237 157.527C 373.237 159.027 374.612 160.277 376.112 160.277C 377.612 160.277 378.987 159.027 378.987 157.527C 378.862 156.152 378.862 154.652 378.737 153.277C 378.737 151.777 377.612 150.527 376.112 150.527C 374.612 150.527 373.487 151.777 373.487 153.277L 375.237 151.652z"/>
<path fill="#ff7fbf" stroke-width="1" stroke="#ff9f3f" d="M 377.112 170.902C 377.112 171.527 377.487 172.027 378.112 172.027C 378.737 172.027 379.112 171.527 379.112 170.902C 379.112 170.402 378.737 169.902 378.112 169.902C 377.487 169.902 377.112 170.402 377.112 170.902L 377.112 170.902z"/>
<path fill="#ff7fbf" stroke-width="1" stroke="#ff9f3f" d="M 313.862 44.6523C 307.862 56.9023 309.362 70.7773 311.987 83.6523C 311.862 86.1523 313.612 88.1523 316.112 88.4023C 318.487 88.5273 320.612 86.7773 320.737 84.4023C 325.487 71.0273 320.112 57.7773 316.737 45.0273C 316.862 44.2773 316.362 43.5273 315.487 43.4023C 314.737 43.2773 313.987 43.9023 313.862 44.6523L 313.862 44.6523z"/>
<path fill="#ff7fbf" stroke-width="1" stroke="#ff9f3f" d="M 317.487 104.902C 317.487 105.152 317.737 105.527 318.112 105.527C 318.487 105.527 318.737 105.152 318.737 104.902C 318.737 104.527 318.487 104.277 318.112 104.277C 317.737 104.277 317.487 104.527 317.487 104.902L 317.487 104.902z"/>
<path fill="#ff7fbf" stroke-width="1" stroke="#ff9f3f" d="M 261.237 461.277C 261.237 454.152 259.112 446.902 262.862 440.027L 262.237 438.027C 261.487 436.527 260.362 435.277 258.987 434.402L 258.862 434.402C 249.362 427.652 235.112 426.652 230.237 414.402L 230.987 415.027L 229.612 421.902L 230.112 420.527C 237.112 414.277 246.237 412.152 254.987 409.402L 260.112 406.902C 261.737 405.902 262.987 404.402 263.737 402.652L 264.862 400.027C 265.612 398.152 265.737 395.902 264.987 393.902L 263.987 390.902C 261.362 381.902 255.612 373.027 257.987 363.027L 258.487 360.402L 254.737 366.152L 258.112 363.777L 252.237 365.277L 254.487 365.402C 262.737 365.402 267.362 372.027 274.737 374.652C 290.737 380.402 304.612 370.027 311.737 356.652L 323.612 356.277L 312.487 356.402L 313.362 356.652C 316.987 362.027 316.612 368.402 318.112 374.277L 319.112 377.777C 319.737 379.777 321.112 381.527 322.862 382.652L 328.237 385.402C 330.487 385.777 332.737 385.402 334.987 385.527C 345.737 386.402 353.987 368.277 365.112 380.777C 363.737 380.902 361.612 380.777 361.237 381.402C 354.987 394.152 364.362 407.027 377.362 411.152C 380.487 412.277 383.487 415.902 382.237 420.027C 376.487 437.902 368.237 454.402 360.362 471.277C 359.737 469.152 352.612 466.152 370.987 466.652C 367.112 462.902 360.862 463.027 357.112 466.902C 353.362 470.777 353.487 477.027 357.362 480.777L 358.487 479.402C 363.487 482.777 367.862 487.527 377.237 481.527C 384.737 461.652 395.362 443.527 400.487 422.277C 402.612 413.402 398.362 404.027 390.612 398.402C 386.737 395.652 383.862 391.402 377.112 394.402C 378.362 384.277 384.237 372.152 373.987 364.027C 361.737 354.402 346.737 359.652 335.487 366.902L 332.362 367.777L 336.112 372.777L 334.487 366.652C 334.112 360.902 332.362 355.402 330.237 350.152L 323.487 342.777C 322.112 341.527 320.237 340.902 318.487 340.777L 313.612 340.402C 302.237 338.527 296.112 349.402 289.362 356.402C 281.237 364.902 272.112 350.902 262.237 349.652L 254.237 348.027C 252.112 347.777 250.112 348.402 248.362 349.527L 244.987 351.777C 243.112 353.027 241.737 355.152 241.362 357.402L 240.737 361.402C 238.362 371.902 242.112 382.402 245.737 392.027L 248.487 399.527L 248.737 393.402L 247.737 396.027L 251.362 391.902L 245.612 394.027C 237.237 396.902 227.987 399.027 221.237 405.402L 215.237 412.027C 213.862 414.027 213.362 416.527 213.862 418.777L 215.112 423.152C 220.987 435.152 233.237 442.027 245.237 446.152L 250.737 448.152L 247.487 444.527L 248.362 446.027C 255.237 448.402 255.862 456.402 258.112 462.027C 258.362 462.902 259.112 463.402 259.987 463.277C 260.862 463.027 261.487 462.152 261.237 461.277L 261.237 461.277z"/>
<path fill="#7fffff" stroke-width="1" stroke="#3fffff" d="M 447.112 478.402C 440.362 470.777 427.862 472.402 420.612 478.527L 419.862 478.527C 418.487 479.527 417.487 480.902 417.362 482.652L 417.112 485.402C 414.487 502.527 432.112 516.027 447.987 514.652C 460.112 513.527 469.862 505.277 476.987 496.027C 496.487 470.652 473.362 437.152 449.112 424.652C 436.362 418.277 420.862 417.777 407.612 424.152C 382.612 436.027 365.487 462.777 366.237 490.152C 367.237 521.152 389.362 554.652 420.987 561.277L 425.612 563.152C 428.112 564.152 430.862 563.902 433.237 562.652L 476.112 539.152C 496.737 528.152 517.112 516.652 537.737 505.777L 542.362 504.277C 543.362 503.652 544.362 502.902 545.112 501.902L 547.362 499.152C 563.612 469.027 545.362 433.027 525.112 408.902C 514.612 396.402 500.737 388.027 484.862 385.777C 454.237 381.277 423.612 370.152 394.362 383.527C 363.487 397.652 330.987 415.777 319.112 449.527C 308.112 481.027 293.487 521.277 316.737 550.777C 319.862 554.777 325.487 555.527 329.362 552.402C 333.362 549.402 334.112 543.777 331.112 539.777C 327.862 536.277 325.487 532.027 324.862 527.527C 320.487 496.277 326.487 463.902 345.987 438.277C 359.362 420.777 378.362 412.402 396.987 401.902C 406.487 396.527 416.862 394.527 427.112 396.152C 452.862 400.527 478.612 396.527 501.237 412.902C 524.362 429.652 535.112 457.902 533.987 484.652L 530.112 489.402L 536.112 486.027L 528.362 488.777L 528.487 488.777C 516.612 495.402 504.737 502.027 492.862 508.527L 424.237 546.277L 431.862 545.652L 424.487 543.152C 403.737 539.652 390.612 518.402 384.612 499.527C 378.362 479.527 387.862 458.902 402.862 445.277C 413.487 435.652 428.237 432.152 441.112 437.902C 457.487 445.277 470.862 462.777 468.487 480.527C 466.987 491.652 453.362 501.777 441.112 499.902C 436.362 499.152 431.987 496.277 429.362 490.902L 428.237 483.777L 425.737 487.777L 429.362 484.402C 433.112 479.277 440.362 477.152 445.987 480.152C 446.487 480.402 447.112 480.277 447.362 479.777C 447.737 479.277 447.612 478.652 447.112 478.402L 447.112 478.402z"/>
<path fill="#7fffff" stroke-width="1" stroke="#3fffff" d="M 189.237 733.402C 200.737 720.277 213.862 708.652 225.612 695.777C 227.487 694.402 227.862 691.777 226.487 689.902C 225.112 688.027 222.487 687.652 220.612 689.027C 211.487 690.152 205.237 697.152 199.862 703.902C 193.237 712.277 184.987 719.402 186.987 732.402C 186.612 733.027 186.987 733.777 187.612 734.027C 188.237 734.277 188.987 734.027 189.237 733.402L 189.237 733.402z"/>
<path fill="#7fffff" stroke-width="1" stroke="#3fffff" d="M 279.362 691.027C 283.112 688.277 284.737 683.902 287.487 680.402C 288.112 679.402 287.862 678.027 286.737 677.402C 285.737 676.777 284.362 677.027 283.737 678.152C 281.987 682.277 278.737 685.527 277.612 689.902C 277.362 690.277 277.487 691.027 277.862 691.277C 278.362 691.652 278.987 691.527 279.362 691.027L 279.362 691.027z"/>
<path fill="#7fffff" stroke-width="1" stroke="#3fffff" d="M 293.862 775.527C 298.362 755.652 309.737 738.902 317.487 720.402C 318.612 717.902 317.487 715.027 315.112 713.902C 312.612 712.902 309.737 713.902 308.612 716.402C 296.237 733.527 294.237 754.777 291.112 774.902C 290.987 775.652 291.487 776.402 292.237 776.652C 292.987 776.777 293.737 776.277 293.862 775.527L 293.862 775.527z"/>
<path fill="#7fffff" stroke-width="1" stroke="#3fffff" d="M 349.487 694.277C 353.987 688.277 359.487 682.902 363.862 676.777C 364.737 675.527 364.487 673.652 363.112 672.777C 361.737 671.902 359.987 672.152 359.112 673.527C 354.987 679.902 351.237 686.527 347.487 693.027C 347.112 693.527 347.237 694.277 347.862 694.652C 348.362 695.027 349.112 694.902 349.487 694.277L 349.487 694.277z"/>
<path fill="#7fffff" stroke-width="1" stroke="#3fffff" d="M 564.737 543.027C 568.862 537.027 571.487 530.027 576.862 524.902C 577.862 523.402 577.487 521.402 576.112 520.402C 574.737 519.402 572.612 519.652 571.612 521.152C 567.737 527.652 565.987 535.152 562.737 541.902C 562.362 542.527 562.612 543.152 563.237 543.527C 563.737 543.777 564.487 543.527 564.737 543.027L 564.737 543.027z"/>
</g>
<g>
<path fill="#52b200" stroke="none" d="M 32.1118 807.652L 34.1118 633.652L 608.112 633.652L 610.112 807.652L 32.1118 807.652z"/>
<path fill="#ffdfbf" stroke="none" d="M 277.445 348.319C 277.445 348.319 274.112 381.652 266.112 394.319C 258.112 406.986 262.112 410.319 250.778 412.986C 239.445 415.652 224.112 416.986 214.778 416.319C 205.445 415.652 182.112 398.319 182.112 398.319L 178.112 352.986C 178.112 352.986 214.778 312.986 212.778 313.652C 210.778 314.319 256.778 315.652 256.778 315.652L 277.445 348.319z"/>
<path fill="#ffdfbf" stroke="none" d="M 412.112 210.319C 412.112 210.319 415.445 230.319 411.112 243.652C 406.778 256.986 399.778 271.319 387.445 273.652C 375.112 275.986 363.112 277.986 354.778 268.652C 346.445 259.319 342.778 260.319 340.778 251.986C 338.778 243.652 327.445 233.986 337.778 217.652C 348.112 201.319 363.112 195.652 376.778 196.319C 390.445 196.986 411.445 202.986 412.112 210.319z"/>
<path fill="#ffbf7f" stroke="none" d="M 103.112 235.652C 103.112 235.652 106.112 253.652 120.112 259.652C 134.112 265.652 142.112 265.652 153.112 260.652C 164.112 255.652 172.112 251.652 177.112 241.652C 182.112 231.652 190.112 225.652 190.112 225.652L 188.112 213.652L 194.112 217.652L 188.112 188.652L 149.112 175.652L 117.112 179.652L 97.1118 198.652L 99.1118 226.652L 103.112 235.652z"/>
<path fill="#ff7fbf" stroke="none" d="M 104.112 235.319L 98.7785 238.986L 97.1118 226.319L 89.1118 231.319C 89.1118 231.319 92.7785 212.652 91.1118 212.986C 89.4451 213.319 77.1118 219.652 77.1118 219.652L 81.1118 202.652L 76.1118 198.652L 76.7785 189.986L 113.778 167.986L 140.112 170.652L 157.112 155.986L 160.112 163.652L 176.445 164.652L 177.112 171.652L 195.112 185.652L 187.778 187.652L 194.112 201.319L 196.778 215.652L 188.112 213.652L 190.778 230.986L 185.112 227.986L 181.445 227.986C 181.445 227.986 181.112 214.652 176.112 205.652C 171.112 196.652 171.445 185.319 160.445 181.986C 149.445 178.652 134.112 179.652 125.112 182.986C 116.112 186.319 106.445 190.319 104.112 195.652C 101.778 200.986 104.778 209.986 105.445 217.652C 106.112 225.319 106.778 234.652 106.778 234.652L 104.112 235.319z"/>
<path fill="#ffffff" stroke="none" d="M 128.778 236.319L 162.778 232.319C 162.778 232.319 164.112 242.319 158.112 245.319C 152.112 248.319 139.778 247.652 134.445 246.652C 129.112 245.652 128.778 236.319 128.778 236.319z"/>
<path fill="#ffdfbf" stroke="none" d="M 250.778 122.986C 250.778 122.986 271.445 120.319 280.778 122.986C 290.112 125.652 305.445 133.652 306.778 143.652C 308.112 153.652 306.112 161.652 296.112 172.319C 286.112 182.986 286.112 190.319 274.112 192.986C 262.112 195.652 244.112 196.319 236.778 185.652C 229.445 174.986 224.778 161.652 230.778 146.986C 236.778 132.319 250.778 122.986 250.778 122.986z"/>
<path fill="#7f7fff" stroke="none" d="M 270.778 124.319L 294.112 138.319L 284.112 146.986L 284.778 166.986L 298.778 166.986C 298.778 166.986 307.445 164.319 307.445 152.319C 307.445 140.319 307.445 128.986 296.112 126.319C 284.778 123.652 270.778 124.319 270.778 124.319z"/>
<path fill="#bfbf7f" stroke="none" d="M 346.778 287.319L 333.445 290.986C 333.445 290.986 329.112 296.652 326.112 292.319C 323.112 287.986 323.778 279.319 323.778 279.319L 313.112 258.319L 312.112 243.652L 321.112 235.652L 317.112 232.319L 316.445 221.652L 322.112 208.319L 330.112 206.652L 338.778 185.319L 348.112 190.986L 350.445 183.986L 359.778 183.319L 363.445 178.652L 373.778 182.986L 378.445 188.986L 391.112 183.319L 397.778 185.986L 409.112 180.986L 410.112 189.986L 417.112 190.319L 416.112 196.319L 420.778 202.986L 415.778 208.319L 412.778 213.319L 405.445 207.986L 389.445 210.319L 387.112 203.652L 379.778 206.652L 377.112 210.652L 363.445 210.986L 353.112 216.986L 352.445 226.652L 344.778 233.319L 342.445 250.986L 348.445 264.319L 355.778 269.652L 355.112 287.652L 346.778 287.319z"/>
<path fill="#ffffff" stroke="none" d="M 430.112 202.986L 432.778 220.986L 429.112 241.986C 429.112 241.986 428.778 245.986 435.778 248.319C 442.778 250.652 461.778 255.319 461.778 255.319L 458.778 245.652L 475.112 239.652L 459.778 229.986L 457.778 221.319L 457.112 203.986L 443.778 209.652L 430.112 202.986z"/>
<path fill="#ffffff" stroke="none" d="M 418.112 256.986L 444.445 264.319C 444.445 264.319 445.445 275.319 448.778 283.652C 452.112 291.986 459.778 302.652 458.445 306.319C 457.112 309.986 445.778 321.319 440.778 318.652C 435.778 315.986 414.778 301.986 414.778 291.652C 414.778 281.319 418.112 256.986 418.112 256.986z"/>
<path fill="#ff7f7f" stroke="none" d="M 489.445 177.652C 489.445 177.652 501.445 210.319 507.445 216.319C 513.445 222.319 526.112 236.319 526.112 236.319L 539.445 230.319C 539.445 230.319 535.445 223.652 544.778 220.986C 554.112 218.319 582.778 226.986 582.778 226.986L 572.778 232.986L 582.778 238.986L 575.445 248.986L 588.778 246.986L 586.778 260.319L 590.778 264.986L 599.445 263.652L 600.778 236.319L 606.778 226.986L 594.778 216.319L 594.112 209.652L 580.112 208.986L 579.445 201.652L 566.778 204.986L 566.112 191.652L 552.112 195.652L 548.112 178.986L 536.778 186.319L 522.112 174.319L 514.112 173.652L 514.778 188.986L 489.445 177.652z"/>
<path fill="#ffdfbf" stroke="none" d="M 564.778 216.319C 578.778 219.652 582.778 226.986 582.778 226.986L 572.778 232.986L 582.778 238.986L 575.445 248.986L 588.778 246.986L 586.778 260.319L 590.778 264.986L 589.445 280.986C 589.445 280.986 576.778 284.986 560.778 287.652C 544.778 290.319 536.112 290.986 528.778 281.652C 521.445 272.319 522.112 260.319 522.112 250.986C 522.112 241.652 526.112 236.319 526.112 236.319L 533.445 232.986L 539.445 230.319C 539.445 230.319 535.445 224.986 544.778 220.986C 554.112 216.986 564.778 216.319 564.778 216.319z"/>
<path fill="#7f7f7f" stroke="none" d="M 233.445 323.652C 233.445 323.652 223.445 332.986 214.112 334.986C 204.778 336.986 200.778 340.986 200.778 340.986C 200.778 340.986 200.112 352.986 194.112 360.319C 188.112 367.652 180.778 376.319 180.778 376.319C 180.778 376.319 180.778 385.652 188.778 394.986C 196.778 404.319 210.112 414.986 210.112 414.986L 205.445 442.986L 194.778 448.986L 187.445 462.986L 184.778 448.319L 170.112 463.652L 151.445 471.652L 168.112 450.986L 171.445 434.319L 145.445 440.319L 162.112 426.986L 164.778 412.986C 164.778 412.986 157.445 389.652 159.445 375.652C 161.445 361.652 179.445 330.986 179.445 330.986L 166.112 330.986L 193.445 313.652L 180.778 308.319C 180.778 308.319 193.445 299.652 204.778 298.986C 216.112 298.319 230.112 303.652 230.112 303.652L 246.112 290.319L 243.445 303.652C 243.445 303.652 254.778 302.986 264.778 308.319C 274.778 313.652 281.445 318.319 281.445 329.652C 281.445 340.986 283.445 344.986 283.445 344.986L 275.445 344.319C 275.445 344.319 270.778 336.319 261.445 335.652C 252.112 334.986 239.445 324.986 239.445 324.986L 233.445 323.652z"/>
<path fill="#7fff00" stroke="none" d="M 277.445 348.319"/>
<path fill="#ffdfbf" stroke="none" d="M 286.778 396.986C 286.778 396.986 271.445 412.319 272.112 430.319C 272.778 448.319 278.778 465.652 294.778 471.652C 310.778 477.652 325.445 482.986 335.445 475.652C 345.445 468.319 352.112 448.986 352.778 436.986C 353.445 424.986 356.778 410.319 346.112 400.319C 335.445 390.319 319.445 385.652 306.112 388.319C 292.778 390.986 286.778 396.986 286.778 396.986z"/>
<path fill="#00ff7f" stroke="none" d="M 273.445 435.652C 273.445 435.652 282.112 438.986 288.112 424.319C 294.112 409.652 293.445 398.986 293.445 398.986C 293.445 398.986 294.778 410.986 306.778 417.652C 318.778 424.319 337.445 429.652 343.445 428.986C 349.445 428.319 352.778 428.319 352.778 428.319C 352.778 428.319 354.112 406.986 342.112 398.986C 330.112 390.986 322.778 389.652 309.445 388.986C 296.112 388.319 290.778 387.652 284.112 396.319C 277.445 404.986 272.112 419.652 272.112 424.986C 272.112 430.319 273.445 435.652 273.445 435.652z"/>
<path fill="#00ff7f" stroke="none" d="M 44.4451 421.652L 35.4451 413.986L 44.7785 409.986L 37.1118 393.319L 51.4451 398.652L 46.4451 379.986L 60.1118 385.652L 64.1118 369.652L 75.7785 380.986L 81.1118 366.319L 90.7785 381.986L 98.7785 366.652L 103.778 384.652L 115.112 371.652L 114.778 388.319L 128.778 387.319L 120.778 400.986L 122.445 409.319L 126.445 426.652L 47.7785 438.986L 44.4451 421.652z"/>
<path fill="#bfbf7f" stroke="none" d="M 76.7785 398.319C 88.4451 396.986 94.4451 397.319 103.778 400.652C 113.112 403.986 119.778 407.652 122.112 410.986C 124.445 414.319 128.112 428.319 124.778 437.652C 121.445 446.986 122.445 453.652 109.445 459.319C 96.4451 464.986 82.4451 466.652 68.7785 461.319C 55.1118 455.986 50.4451 442.652 50.1118 432.319C 49.7785 421.986 53.7785 411.986 60.1118 406.986C 66.4451 401.986 76.7785 398.319 76.7785 398.319z"/>
<path fill="#ffffff" stroke="none" d="M 70.4451 439.986L 110.112 436.986C 110.112 436.986 111.445 449.986 102.778 452.319C 94.1118 454.652 82.1118 453.319 78.1118 450.319C 74.1118 447.319 70.4451 439.986 70.4451 439.986z"/>
<path fill="#bf997f" stroke="none" d="M 438.612 449.652L 431.112 456.152L 420.612 453.152L 425.612 444.652L 411.112 443.152L 421.612 433.152L 410.612 430.152L 418.612 421.152L 412.612 404.652L 433.612 393.652L 435.612 384.652L 429.112 374.152L 439.612 362.652L 462.112 363.152L 468.112 365.152L 475.612 358.652L 480.612 362.152L 481.612 368.652L 501.112 368.152L 506.112 380.152L 505.612 389.152L 520.112 395.652L 525.612 403.652L 518.112 417.652L 528.612 417.652L 528.612 426.152L 535.612 447.652L 524.612 446.152L 531.612 458.152L 512.612 448.652L 512.112 462.652L 494.612 450.152L 438.612 449.652z"/>
<path fill="#dfdfbf" stroke="none" d="M 429.612 409.652C 429.612 409.652 440.612 410.152 446.112 399.652C 451.612 389.152 454.112 384.652 461.112 382.652C 468.112 380.652 469.612 386.652 469.612 386.652L 469.612 393.152C 469.612 393.152 474.112 397.652 480.112 395.652C 486.112 393.652 490.112 390.652 490.112 390.652L 489.612 398.652L 497.112 401.652L 495.612 413.652L 504.112 421.152C 504.112 421.152 501.612 435.152 496.112 444.652C 490.612 454.152 490.612 455.652 478.612 458.652C 466.612 461.652 450.612 460.652 442.612 452.152C 434.612 443.652 431.612 430.652 430.112 423.152C 428.612 415.652 429.612 409.652 429.612 409.652z"/>
<path fill="#ffdfbf" stroke="none" d="M 426.612 676.652C 426.612 676.652 409.112 679.652 404.612 698.152C 400.112 716.652 398.112 740.152 402.612 756.652C 407.112 773.152 407.612 785.652 415.612 789.152C 423.612 792.652 439.612 798.652 458.112 796.152C 476.612 793.652 506.612 788.152 509.112 768.152C 511.612 748.152 512.612 726.652 507.612 712.152C 502.612 697.652 491.612 675.152 491.612 675.152C 491.612 675.152 469.112 667.152 456.612 666.652C 444.112 666.152 426.612 676.652 426.612 676.652z"/>
<path fill="#bfffdf" stroke="none" d="M 68.1118 702.319L 80.1118 707.652L 76.7785 683.652L 80.7785 674.986L 115.445 680.986C 115.445 680.986 152.112 690.986 158.112 696.986C 164.112 702.986 168.112 722.986 169.445 734.319C 170.778 745.652 170.112 762.986 164.778 775.652C 159.445 788.319 166.778 791.652 154.778 794.319C 142.778 796.986 130.778 797.652 112.778 791.652C 94.7785 785.652 80.1118 783.652 74.1118 773.652C 68.1118 763.652 67.4451 740.986 66.1118 726.986C 64.7785 712.986 68.1118 702.319 68.1118 702.319z"/>
<path fill="#bf7f99" stroke="none" d="M 30.6118 519.652C 30.6118 519.652 128.612 514.152 168.612 512.152C 208.612 510.152 316.112 507.652 360.112 507.652C 404.112 507.652 472.112 513.652 516.112 515.652C 560.112 517.652 608.112 521.652 608.112 521.652L 608.612 684.152C 608.612 684.152 480.112 687.652 434.112 685.652C 388.112 683.652 324.112 683.652 276.112 685.652C 228.112 687.652 150.112 683.652 120.112 681.652C 90.1118 679.652 31.1118 681.152 31.1118 681.152L 30.6118 519.652z"/>
<path fill="#bf7fff" stroke="none" d="M 425.112 672.652L 417.112 687.152L 418.612 698.152L 433.112 694.152L 434.612 706.152L 444.612 705.152L 451.612 727.152L 459.612 717.152L 469.612 727.652L 474.112 719.152L 488.112 730.152L 498.612 720.152L 511.612 728.152L 493.612 675.152C 493.612 675.152 477.112 666.652 463.612 666.652C 450.112 666.652 425.112 672.652 425.112 672.652z"/>
</g>
<g>
<path fill="#ffbf7f" stroke-width="6" stroke="#7f7f7f" d="M 316.402 541.635C 317.355 544.674 315.925 550.751 318.309 555.092C 320.692 559.432 328.32 560.3 328.797 563.773C 329.75 568.548 328.797 572.889 328.32 577.663C 327.843 580.702 323.553 585.043 323.553 585.043L 342.623 585.043C 342.623 585.043 339.285 582.004 337.378 577.663C 336.425 574.191 337.855 566.812 337.855 563.339C 345.006 557.696 351.204 547.712 349.774 538.597"/>
<path fill="#ffbf7f" stroke-width="6" stroke="#7f7f7f" d="M 174.808 523.404C 175.762 526.443 174.331 532.52 176.715 536.86C 179.099 541.201 186.727 542.069 187.203 545.542C 188.157 550.317 187.203 554.658 186.727 559.432C 186.25 562.471 181.959 566.812 181.959 566.812L 201.029 566.812C 201.029 566.812 197.692 563.773 195.785 559.432C 194.831 555.96 196.262 548.58 196.262 545.108C 203.413 539.465 209.611 529.481 208.18 520.366"/>
<path fill="#ffbf7f" stroke-width="6" stroke="#7f7f7f" d="M 41.8908 628.245C 42.8443 631.283 41.414 637.36 43.7978 641.701C 46.1815 646.042 53.8094 646.91 54.2862 650.383C 55.2397 655.158 54.2862 659.498 53.8094 664.273C 53.3327 667.312 49.042 671.652 49.042 671.652L 68.1118 671.652C 68.1118 671.652 64.7746 668.614 62.8676 664.273C 61.9141 660.8 63.3443 653.421 63.3443 649.949C 70.4955 644.306 76.6932 634.322 75.263 625.206"/>
<path fill="#ffbf7f" stroke-width="6" stroke="#7f7f7f" d="M 260.146 569.226C 284.721 569.226 304.644 562.218 304.644 553.572C 304.644 544.927 284.721 537.919 260.146 537.919C 235.57 537.919 215.647 544.927 215.647 553.572C 215.647 562.218 235.57 569.226 260.146 569.226z"/>
<path fill="#ffbf7f" stroke-width="6" stroke="#7f7f7f" d="M 131.424 571.152C 156 571.152 175.923 564.144 175.923 555.499C 175.923 546.853 156 539.845 131.424 539.845C 106.849 539.845 86.9258 546.853 86.9258 555.499C 86.9258 564.144 106.849 571.152 131.424 571.152z"/>
<path fill="#ffbf7f" stroke-width="6" stroke="#7f7f7f" d="M 82.2993 610.402C 106.875 610.402 126.798 603.394 126.798 594.749C 126.798 586.103 106.875 579.095 82.2993 579.095C 57.7238 579.095 37.8008 586.103 37.8008 594.749C 37.8008 603.394 57.7238 610.402 82.2993 610.402z"/>
<path fill="#ffbf7f" stroke-width="6" stroke="#7f7f7f" d="M 334.996 634.898C 334.004 638.112 335.492 644.539 333.012 649.131C 330.532 653.722 322.595 654.641 322.098 658.314C 321.106 663.364 322.098 667.956 322.595 673.006C 323.091 676.22 327.555 680.811 327.555 680.811L 307.712 680.811C 307.712 680.811 311.185 677.598 313.169 673.006C 314.161 669.333 312.673 661.528 312.673 657.855C 305.232 651.886 298.783 641.325 300.271 631.684"/>
<path fill="#ffbf7f" stroke-width="6" stroke="#7f7f7f" d="M 206.514 599.544C 205.521 602.758 207.01 609.186 204.529 613.777C 202.049 618.369 194.112 619.287 193.616 622.96C 192.624 628.011 193.616 632.602 194.112 637.652C 194.608 640.866 199.072 645.458 199.072 645.458L 179.23 645.458C 179.23 645.458 182.702 642.244 184.686 637.652C 185.679 633.979 184.19 626.174 184.19 622.501C 176.749 616.532 170.3 605.972 171.789 596.33"/>
<path fill="#ffbf7f" stroke-width="6" stroke="#7f7f7f" d="M 252.834 665.287C 227.263 665.287 206.532 657.874 206.532 648.729C 206.532 639.585 227.263 632.171 252.834 632.171C 278.406 632.171 299.137 639.585 299.137 648.729C 299.137 657.874 278.406 665.287 252.834 665.287z"/>
<path fill="#ffbf7f" stroke-width="6" stroke="#7f7f7f" d="M 123.483 666.435C 97.9118 666.435 77.1811 659.021 77.1811 649.877C 77.1811 640.733 97.9118 633.319 123.483 633.319C 149.055 633.319 169.786 640.733 169.786 649.877C 169.786 659.021 149.055 666.435 123.483 666.435z"/>
<path fill="#ffbf7f" stroke-width="6" stroke="#7f7f7f" d="M 570.03 527.745C 570.984 530.783 569.553 536.86 571.937 541.201C 574.321 545.542 581.949 546.41 582.426 549.883C 583.379 554.658 582.426 558.998 581.949 563.773C 581.472 566.812 577.181 571.152 577.181 571.152L 596.251 571.152C 596.251 571.152 592.914 568.114 591.007 563.773C 590.054 560.3 591.484 552.921 591.484 549.449C 598.635 543.806 604.833 533.822 603.402 524.706"/>
<path fill="#ffbf7f" stroke-width="6" stroke="#7f7f7f" d="M 404.205 586.196C 405.158 589.235 403.728 595.312 406.112 599.652C 408.495 603.993 416.123 604.861 416.6 608.334C 417.554 613.109 416.6 617.449 416.123 622.224C 415.647 625.263 411.356 629.603 411.356 629.603L 430.426 629.603C 430.426 629.603 427.089 626.565 425.182 622.224C 424.228 618.752 425.658 611.372 425.658 607.9C 432.809 602.257 439.007 592.273 437.577 583.158"/>
<path fill="#ffbf7f" stroke-width="6" stroke="#7f7f7f" d="M 395.363 570.366C 419.938 570.366 439.861 563.357 439.861 554.712C 439.861 546.067 419.938 539.058 395.363 539.058C 370.787 539.058 350.864 546.067 350.864 554.712C 350.864 563.357 370.787 570.366 395.363 570.366z"/>
<path fill="#ffbf7f" stroke-width="6" stroke="#7f7f7f" d="M 519.674 571.451C 544.249 571.451 564.172 564.442 564.172 555.797C 564.172 547.152 544.249 540.143 519.674 540.143C 495.098 540.143 475.175 547.152 475.175 555.797C 475.175 564.442 495.098 571.451 519.674 571.451z"/>
<path fill="#ffbf7f" stroke-width="6" stroke="#7f7f7f" d="M 482.33 615.614C 481.338 618.828 482.826 625.256 480.346 629.847C 477.865 634.438 469.928 635.357 469.432 639.03C 468.44 644.08 469.432 648.672 469.928 653.722C 470.424 656.936 474.889 661.528 474.889 661.528L 455.046 661.528C 455.046 661.528 458.518 658.314 460.503 653.722C 461.495 650.049 460.007 642.244 460.007 638.571C 452.566 632.602 446.117 622.042 447.605 612.4"/>
<path fill="#ffbf7f" stroke-width="6" stroke="#7f7f7f" d="M 393.533 664.082C 367.961 664.082 347.231 656.668 347.231 647.524C 347.231 638.38 367.961 630.966 393.533 630.966C 419.105 630.966 439.835 638.38 439.835 647.524C 439.835 656.668 419.105 664.082 393.533 664.082z"/>
<path fill="#ffbf7f" stroke-width="6" stroke="#7f7f7f" d="M 527.472 666.119C 501.901 666.119 481.17 658.706 481.17 649.561C 481.17 640.417 501.901 633.004 527.472 633.004C 553.044 633.004 573.775 640.417 573.775 649.561C 573.775 658.706 553.044 666.119 527.472 666.119z"/>
<path fill="#ffbf7f" stroke-width="6" stroke="#7f7f7f" d="M 559.722 623.619C 534.151 623.619 513.42 616.206 513.42 607.061C 513.42 597.917 534.151 590.504 559.722 590.504C 585.294 590.504 606.025 597.917 606.025 607.061C 606.025 616.206 585.294 623.619 559.722 623.619z"/>
<path fill="#ffbf7f" stroke-width="6" stroke="#7f7f7f" d="M 439.879 508.212C 440.832 511.25 439.402 517.327 441.786 521.668C 444.169 526.009 451.797 526.877 452.274 530.349C 453.228 535.124 452.274 539.465 451.797 544.24C 451.321 547.278 447.03 551.619 447.03 551.619L 466.1 551.619C 466.1 551.619 462.762 548.58 460.855 544.24C 459.902 540.767 461.332 533.388 461.332 529.915C 468.483 524.272 474.681 514.289 473.251 505.173"/>
<path fill="#ffbf7f" stroke-width="6" stroke="#7f7f7f" d="M 74.5137 507.044C 73.5215 510.258 75.0098 516.686 72.5293 521.277C 70.049 525.869 62.1118 526.787 61.6158 530.46C 60.6236 535.51 61.6158 540.102 62.1118 545.152C 62.6079 548.366 67.0725 552.958 67.0725 552.958L 47.2297 552.958C 47.2297 552.958 50.7021 549.744 52.6864 545.152C 53.6786 541.479 52.1904 533.674 52.1904 530.001C 44.7493 524.032 38.3003 513.472 39.7886 503.83"/>
<path fill="none" stroke-width="6" stroke="#3f3f3f" d="M 31.4451 496.652C 31.4451 496.652 75.7785 482.319 85.7785 480.319"/>
<path fill="none" stroke-width="4" stroke="#7f7f7f" d="M 154.528 262.361C 152.528 282.361 156.528 302.361 160.528 322.361C 161.149 325.462 160.528 327.361 160.528 330.361"/>
<path fill="none" stroke-width="6" stroke="#3f3f3f" d="M 180.814 368.891C 180.713 374.134 181.2 379.481 182.362 384.902C 186.362 394.902 194.362 402.902 202.362 408.902C 216.362 418.902 231.362 417.902 249.362 413.902C 257.362 413.902 266.93 394.583 268.862 388.902C 274.174 373.277 277.338 362.34 277.011 351.451"/>
<path fill="none" stroke-width="6" stroke="#3f3f3f" d="M 210.362 416.902C 204.362 448.902 206.362 482.902 202.362 514.902"/>
<path fill="none" stroke-width="6" stroke="#7f7f7f" d="M 32.1118 521.652C 34.1084 521.569 36.1085 521.486 38.1118 521.402"/>
<path fill="none" stroke-width="6" stroke="#7f7f7f" d="M 78.8588 519.592C 112.031 517.955 145.532 515.725 178.112 511.652C 247.538 508.122 343.272 510.823 434.358 514.052"/>
<path fill="none" stroke-width="6" stroke="#7f7f7f" d="M 479.102 515.674C 526.465 517.409 530.039 517.524 567.112 518.152"/>
<path fill="none" stroke-width="6" stroke="#3f3f3f" d="M 323.362 389.402C 311.362 389.402 297.362 385.402 289.362 393.402C 283.362 397.402 277.362 405.402 275.362 413.402C 273.362 425.402 267.862 441.402 275.862 453.402C 279.862 461.402 289.362 467.402 297.362 473.402C 311.362 479.402 328.93 479.762 338.362 472.902C 354.862 460.902 355.362 431.402 349.362 409.402C 347.362 401.402 335.362 389.402 323.362 389.402z"/>
<path fill="none" stroke-width="6" stroke="#3f3f3f" d="M 323.362 476.402C 327.862 489.402 328.362 500.402 332.362 510.402"/>
<path fill="none" stroke-width="6" stroke="#3f3f3f" d="M 210.112 437.652C 240.112 447.652 259.862 454.402 284.112 467.652"/>
<path fill="none" stroke-width="6" stroke="#3f3f3f" d="M 340.362 481.902C 340.362 491.902 330.362 497.402 324.862 505.402"/>
<path fill="#ff9f3f" stroke-width="6" stroke="#7f7f7f" d="M 322.122 532.954C 317.832 535.558 316.402 541.635 318.309 543.372C 325.936 546.844 339.285 546.844 343.099 545.108C 346.913 543.372 351.204 536.426 346.913 532.954C 344.994 531.401 326.413 530.349 322.122 532.954z"/>
<path fill="#ff9f3f" stroke-width="6" stroke="#7f7f7f" d="M 180.529 514.723C 176.238 517.327 174.808 523.404 176.715 525.14C 184.343 528.613 197.692 528.613 201.506 526.877C 205.32 525.14 209.611 518.195 205.32 514.723C 203.401 513.17 184.82 512.118 180.529 514.723z"/>
<path fill="#ff9f3f" stroke-width="6" stroke="#7f7f7f" d="M 575.751 519.063C 571.46 521.668 570.03 527.745 571.937 529.481C 579.565 532.954 592.914 532.954 596.728 531.218C 600.542 529.481 604.833 522.536 600.542 519.063C 598.623 517.51 580.042 516.459 575.751 519.063z"/>
<path fill="#ff9f3f" stroke-width="6" stroke="#7f7f7f" d="M 47.6117 619.563C 43.321 622.168 41.8908 628.245 43.7978 629.981C 51.4257 633.454 64.7746 633.454 68.5885 631.718C 72.4025 629.981 76.6932 623.036 72.4025 619.563C 70.4836 618.01 51.9024 616.959 47.6117 619.563z"/>
<path fill="#ff9f3f" stroke-width="6" stroke="#7f7f7f" d="M 409.926 577.515C 405.635 580.119 404.205 586.196 406.112 587.932C 413.74 591.405 427.089 591.405 430.903 589.669C 434.716 587.932 439.007 580.987 434.716 577.515C 432.798 575.962 414.216 574.91 409.926 577.515z"/>
<path fill="none" stroke-width="6" stroke="#3f3f3f" d="M 428.731 401.894C 427.531 420.926 430.716 443.668 440.362 450.902C 452.362 459.902 476.362 461.902 486.362 454.902C 492.612 450.527 501.987 437.559 506.186 423.076"/>
<path fill="none" stroke-width="6" stroke="#3f3f3f" d="M 470.362 458.902C 470.362 476.902 470.362 492.902 470.362 510.902"/>
<path fill="none" stroke-width="6" stroke="#3f3f3f" d="M 390.862 453.902C 406.862 467.902 450.362 488.902 470.362 492.902"/>
<path fill="none" stroke-width="6" stroke="#3f3f3f" d="M 470.362 480.902C 498.362 482.902 524.362 470.902 552.362 464.902"/>
<path fill="none" stroke-width="6" stroke="#3f3f3f" d="M 45.0967 423.579C 45.2188 430.272 46.3329 436.816 48.3618 442.902C 56.3618 464.902 88.3618 468.902 108.362 460.902C 124.362 454.902 128.362 432.902 124.362 414.902C 123.381 411.959 122.038 409.136 120.453 406.374"/>
<path fill="none" stroke-width="6" stroke="#3f3f3f" d="M 86.3618 466.902C 86.3618 484.902 86.3618 500.902 88.3618 518.902"/>
<path fill="none" stroke-width="6" stroke="#7f7f7f" d="M 36.1118 679.652C 47.4265 680.043 58.9442 680.416 70.6385 680.772"/>
<path fill="none" stroke-width="6" stroke="#7f7f7f" d="M 139.112 682.609C 224.3 684.604 315.577 685.706 404.112 685.733"/>
<path fill="none" stroke-width="6" stroke="#7f7f7f" d="M 503.613 685.285C 539.049 684.943 573.427 684.404 606.112 683.652"/>
<path fill="none" stroke-width="6" stroke="#3f3f3f" d="M 445.362 429.902C 445.362 429.902 452.862 443.402 463.862 444.902C 474.862 446.402 486.362 436.902 486.362 436.902"/>
<path fill="none" stroke-width="6" stroke="#3f3f3f" d="M 458.362 402.902C 458.362 406.902 458.362 410.902 458.362 414.902"/>
<path fill="none" stroke-width="6" stroke="#3f3f3f" d="M 480.362 404.902C 480.362 410.902 479.362 418.902 479.362 418.902"/>
<path fill="none" stroke-width="6" stroke="#3f3f3f" d="M 466.362 368.902C 460.362 356.902 437.362 363.902 432.362 369.902C 427.362 375.902 429.362 377.902 433.362 383.902C 439.362 397.902 422.362 396.902 414.362 402.902C 408.362 410.902 424.362 416.902 414.362 426.902"/>
<path fill="none" stroke-width="6" stroke="#3f3f3f" d="M 494.362 447.902C 493.862 456.402 504.862 462.902 512.862 461.902C 510.862 458.402 510.862 449.902 510.862 445.902C 510.862 446.402 510.862 446.902 510.862 447.402C 514.862 450.402 517.362 454.902 522.362 456.402C 525.362 457.402 528.862 457.902 531.862 458.402C 531.362 454.902 522.362 444.902 522.362 443.402C 522.362 446.902 532.862 447.902 535.362 448.902C 535.362 446.902 532.862 442.402 532.862 440.402C 532.862 436.402 530.862 433.402 527.862 429.902C 524.862 426.402 531.362 420.402 527.362 418.402C 527.362 416.402 517.362 419.902 517.362 417.902C 523.362 409.902 528.362 402.902 522.362 398.902C 518.362 392.902 515.362 389.902 504.362 390.902C 504.362 380.902 506.862 376.902 500.862 368.902C 498.862 366.902 480.862 369.402 480.862 369.402C 480.862 369.402 481.362 360.902 475.362 360.402C 469.362 359.902 466.362 368.902 466.362 368.902"/>
<path fill="none" stroke-width="6" stroke="#3f3f3f" d="M 222.362 346.902C 222.362 352.902 222.362 360.902 222.362 366.902"/>
<path fill="none" stroke-width="6" stroke="#3f3f3f" d="M 246.362 350.902C 246.362 356.902 246.362 362.902 246.362 368.902"/>
<path fill="none" stroke-width="6" stroke="#3f3f3f" d="M 204.362 388.902C 216.362 398.902 235.862 399.902 240.362 398.402C 244.862 396.902 248.362 390.902 248.362 390.902"/>
<path fill="none" stroke-width="6" stroke="#3f3f3f" d="M 189.913 316.151C 186.511 316.854 182.847 318.339 178.362 320.902C 172.718 324.127 167.362 327.902 165.362 333.402C 170.862 332.902 175.862 331.402 181.362 330.902C 174.862 339.402 168.862 348.402 164.362 357.902C 161.862 363.402 160.862 369.402 159.862 375.402C 159.362 381.402 159.862 386.902 161.862 392.402C 163.362 398.402 163.362 403.902 164.362 409.902C 165.862 417.402 164.862 424.902 159.862 430.902C 159.362 430.902 158.862 430.902 158.362 430.902C 155.362 436.902 148.862 440.402 142.362 439.402C 142.362 439.902 142.362 440.402 142.362 440.402C 152.362 444.902 162.362 439.902 171.362 435.402C 171.862 440.402 171.362 445.902 170.362 450.902C 169.862 452.402 167.362 453.402 166.362 454.902C 163.362 459.402 160.862 463.402 156.862 466.902C 152.362 470.902 147.362 472.402 141.862 474.402C 144.862 475.902 147.862 475.402 150.362 474.402C 162.362 470.902 172.362 463.402 181.362 454.402C 183.862 452.402 186.862 450.402 186.862 446.902C 186.862 453.402 186.862 459.402 186.862 465.902C 189.362 460.902 192.362 456.402 195.862 451.902C 196.862 450.402 196.862 448.402 197.362 446.402"/>
<path fill="none" stroke-width="6" stroke="#3f3f3f" d="M 230.362 305.902C 220.362 295.902 220.362 298.902 206.362 298.902C 203.862 298.902 193.362 302.402 191.362 303.402C 186.862 305.402 181.862 306.902 178.862 310.902C 184.862 310.902 191.862 310.402 195.362 315.902"/>
<path fill="none" stroke-width="6" stroke="#3f3f3f" d="M 300.362 388.902C 300.362 398.902 299.111 406.296 304.862 415.402C 310.862 424.902 337.862 428.402 355.862 428.402"/>
<path fill="none" stroke-width="6" stroke="#3f3f3f" d="M 312.362 388.902C 306.362 414.902 332.362 420.902 352.362 416.902"/>
<path fill="none" stroke-width="6" stroke="#3f3f3f" d="M 330.362 392.902C 328.362 400.902 330.362 410.902 340.362 406.902"/>
<path fill="none" stroke-width="6" stroke="#3f3f3f" d="M 292.362 396.902C 292.362 408.902 294.362 424.902 280.362 430.902"/>
<path fill="none" stroke-width="6" stroke="#3f3f3f" d="M 294.612 432.59C 294.612 434.59 295.112 440.09 295.112 442.09"/>
<path fill="none" stroke-width="6" stroke="#3f3f3f" d="M 310.049 432.902C 310.049 435.783 309.549 440.086 309.549 441.902"/>
<path fill="none" stroke-width="6" stroke="#3f3f3f" d="M 291.112 457.277C 289.112 453.277 293.112 459.777 299.112 461.777C 305.112 463.777 321.112 462.777 329.112 453.277"/>
<path fill="#ff9f3f" stroke-width="6" stroke="#7f7f7f" d="M 329.044 625.715C 333.508 628.47 334.996 634.898 333.012 636.734C 325.075 640.407 311.185 640.407 307.216 638.571C 303.248 636.734 298.783 629.388 303.248 625.715C 305.244 624.072 324.579 622.96 329.044 625.715z"/>
<path fill="#ff9f3f" stroke-width="6" stroke="#7f7f7f" d="M 476.377 606.431C 480.842 609.186 482.33 615.614 480.346 617.45C 472.408 621.123 458.518 621.123 454.55 619.287C 450.581 617.45 446.117 610.104 450.581 606.431C 452.578 604.788 471.912 603.676 476.377 606.431z"/>
<path fill="#ff9f3f" stroke-width="6" stroke="#7f7f7f" d="M 200.561 590.361C 205.025 593.116 206.514 599.544 204.529 601.38C 196.592 605.054 182.702 605.054 178.734 603.217C 174.765 601.38 170.3 594.034 174.765 590.361C 176.762 588.718 196.096 587.606 200.561 590.361z"/>
<path fill="#ff9f3f" stroke-width="6" stroke="#7f7f7f" d="M 68.5608 497.861C 73.0254 500.616 74.5137 507.044 72.5293 508.88C 64.5922 512.554 50.7021 512.554 46.7336 510.717C 42.765 508.88 38.3003 501.534 42.765 497.861C 44.7617 496.218 64.0961 495.106 68.5608 497.861z"/>
<path fill="none" stroke-width="6" stroke="#3f3f3f" d="M 247.672 730.56C 253.606 733.548 255.584 740.521 252.947 742.514C 242.398 746.498 223.937 746.498 218.662 744.506C 213.388 742.514 207.454 734.544 213.388 730.56C 216.041 728.778 241.738 727.571 247.672 730.56z"/>
<path fill="none" stroke-width="6" stroke="#3f3f3f" d="M 255.584 740.521C 254.265 744.008 256.243 750.981 252.947 755.962C 249.65 760.943 239.101 761.939 238.442 765.923C 237.123 771.402 238.442 776.383 239.101 781.862C 239.76 785.349 245.694 790.329 245.694 790.329L 219.321 790.329C 219.321 790.329 223.937 786.843 226.574 781.862C 227.893 777.877 225.915 769.41 225.915 765.425C 216.025 758.95 207.454 747.494 209.432 737.035"/>
<path fill="none" stroke-width="5" stroke="#7f7f7f" d="M 379.028 204.132C 379.028 206.132 379.695 209.465 378.362 210.132C 375.695 212.132 371.695 209.465 368.362 208.798C 368.362 209.465 368.362 210.798 368.362 210.798C 365.695 211.465 362.362 210.132 360.362 207.465C 360.362 210.132 361.695 214.132 358.362 215.465C 355.695 216.132 352.362 215.465 349.695 215.465C 353.028 218.132 353.695 222.132 353.028 226.132C 351.695 230.132 347.695 231.465 344.362 233.465C 343.695 234.132 345.028 236.132 345.028 236.798C 345.695 241.465 342.362 245.465 341.695 250.132C 341.695 250.132 339.695 250.132 339.994 250.269C 340.706 250.597 340.558 251.735 340.862 252.465C 343.862 261.465 354.362 270.465 363.362 273.465C 372.362 276.465 384.362 277.965 390.362 273.465C 411.35 262.971 415.131 235.269 412.74 211.427"/>
<path fill="none" stroke-width="5" stroke="#7f7f7f" d="M 354.362 273.465C 355.862 310.965 343.862 346.965 342.362 384.465"/>
<path fill="none" stroke-width="5" stroke="#7f7f7f" d="M 355.862 306.465C 376.862 306.465 391.862 291.465 409.862 285.465"/>
<path fill="none" stroke-width="5" stroke="#7f7f7f" d="M 356.112 319.652C 330.112 321.652 385.099 313.126 418.862 300.465"/>
<path fill="none" stroke-width="5" stroke="#7f7f7f" d="M 417.862 255.965C 415.862 258.965 412.862 289.965 418.862 300.465C 424.862 307.965 430.862 313.965 438.362 318.465C 448.862 321.465 462.561 308.999 457.362 301.965C 448.862 290.465 447.862 277.965 444.862 264.465C 434.362 258.465 431.362 259.465 417.862 255.965z"/>
<path fill="none" stroke-width="5" stroke="#7f7f7f" d="M 435.362 219.465C 435.362 219.465 427.362 238.465 430.862 243.465C 434.362 248.465 460.278 258.277 463.862 255.465C 467.445 252.652 453.362 243.465 453.362 243.465C 453.362 243.465 474.945 248.611 474.362 243.465C 473.778 238.319 457.862 232.965 457.862 232.965L 457.862 222.465L 435.362 219.465z"/>
<path fill="none" stroke-width="5" stroke="#7f7f7f" d="M 447.362 268.465C 459.362 263.965 455.362 263.965 467.362 260.965"/>
<path fill="none" stroke-width="5" stroke="#7f7f7f" d="M 451.362 276.465C 461.862 276.465 461.862 276.465 470.862 272.965"/>
<path fill="none" stroke-width="5" stroke="#7f7f7f" d="M 454.862 310.965C 463.862 313.965 472.862 313.965 481.862 316.965"/>
<path fill="none" stroke-width="5" stroke="#7f7f7f" d="M 457.362 301.965C 466.825 296.557 470.566 296.206 481.862 298.465"/>
<path fill="none" stroke-width="5" stroke="#7f7f7f" d="M 432.362 221.965C 432.362 221.965 427.862 202.965 432.862 202.465C 437.862 201.965 448.362 219.465 448.362 219.465"/>
<path fill="none" stroke-width="5" stroke="#7f7f7f" d="M 442.862 211.465C 442.862 211.465 452.862 202.965 455.862 204.965C 458.862 206.965 456.862 220.465 456.862 220.465"/>
<path fill="none" stroke-width="5" stroke="#7f7f7f" d="M 447.862 229.965L 448.362 235.965"/>
<path fill="none" stroke-width="5" stroke="#7f7f7f" d="M 362.862 230.965C 364.862 223.465 374.862 224.965 380.362 225.965C 381.362 226.465 382.862 228.965 383.362 230.965"/>
<path fill="none" stroke-width="5" stroke="#7f7f7f" d="M 394.862 229.965C 394.362 227.465 396.862 226.465 398.362 225.965C 401.862 224.965 405.862 223.965 408.362 226.465C 409.862 227.465 410.362 229.465 410.362 231.465"/>
<path fill="none" stroke-width="5" stroke="#7f7f7f" d="M 363.362 254.465C 373.362 260.965 390.362 263.965 398.862 253.965"/>
<path fill="none" stroke-width="5" stroke="#7f7f7f" d="M 376.862 191.965C 376.862 187.465 373.862 182.465 369.362 180.965C 366.862 179.965 363.862 179.965 360.862 180.465C 359.362 180.965 359.862 183.465 359.362 183.965C 356.862 185.465 353.862 183.965 351.362 184.465C 347.862 184.965 347.362 188.465 347.862 191.465C 343.862 191.465 341.345 183.244 338.183 187.306C 336.81 189.623 336.843 192.664 336.458 195.134C 336.074 197.604 332.956 198.131 332.154 200.03C 331.275 202.424 329.903 204.74 330.012 207.287C 330.012 207.287 330.506 207.364 331 207.441C 328.113 206.486 325.566 206.595 323.282 208.264C 319.209 211.678 315.969 216.234 316.606 221.899C 316.869 223.458 318.615 225.248 320.668 225.062C 317.473 226.082 318.757 230.836 317.801 233.724C 319.778 234.031 319.887 236.579 321.863 236.886C 321.062 238.785 318.932 239.466 317.296 240.223C 312.311 242.99 311.465 248.424 312.178 253.595C 312.398 258.69 317.261 259.953 321.861 259.657C 323.991 258.976 324.453 256.012 323.618 254.87C 321.269 250.456 314.956 252.004 312.782 256.219C 311.333 259.03 319.862 272.965 321.362 275.965C 321.862 277.465 323.362 279.465 324.862 279.465C 328.362 279.965 333.862 281.465 336.362 278.965C 336.862 277.965 336.362 276.465 335.362 275.965C 333.362 275.465 330.862 275.465 328.862 275.965C 326.862 276.965 324.862 278.465 324.362 280.465C 323.362 285.465 322.362 293.465 328.362 293.465C 330.362 293.465 332.362 289.965 333.362 287.465"/>
<path fill="none" stroke-width="5" stroke="#7f7f7f" d="M 382.362 191.965C 384.862 186.465 390.862 181.965 396.362 185.465C 396.862 185.965 396.362 187.965 396.362 189.465C 398.862 186.965 400.362 183.465 403.862 182.965C 405.862 182.965 408.362 181.965 408.862 183.465C 409.862 185.465 410.362 189.465 407.862 190.965C 410.362 191.465 414.362 189.465 414.862 192.465C 415.862 194.465 416.362 197.965 413.362 198.465C 414.862 197.465 416.862 197.465 417.862 198.465C 420.862 200.465 419.862 204.965 418.862 207.965C 418.362 208.965 415.362 208.965 413.362 208.965"/>
<path fill="none" stroke-width="5" stroke="#7f7f7f" d="M 431.862 248.465C 428.362 252.965 425.862 252.465 426.362 257.965"/>
<path fill="none" stroke-width="6" stroke="#3f3f3f" d="M 73.0285 410.902C 73.6951 415.569 74.3618 420.236 75.0285 424.902"/>
<path fill="none" stroke-width="6" stroke="#3f3f3f" d="M 97.6951 409.569C 98.3618 413.569 99.0285 417.902 99.6951 421.902"/>
<path fill="none" stroke-width="6" stroke="#3f3f3f" d="M 87.6951 439.569C 83.0285 439.236 70.3618 440.902 70.3618 440.902C 70.3618 440.902 73.3618 448.236 79.0285 450.902C 84.6951 453.569 93.0285 455.236 98.3618 453.902C 102.695 452.902 104.695 449.236 107.362 445.236C 110.028 441.236 110.362 437.236 110.362 437.236C 110.362 437.236 100.695 439.236 97.6951 439.236L 87.6951 439.569z"/>
<path fill="none" stroke-width="6" stroke="#3f3f3f" d="M 46.0285 421.236C 41.3618 420.902 37.6951 416.902 34.3618 413.569C 38.0285 413.569 40.6951 411.236 44.3618 410.569C 44.3618 410.236 44.3618 409.569 44.3618 409.236C 40.3618 404.902 37.3618 400.236 34.6951 395.236C 35.6951 395.236 36.6951 394.902 37.6951 395.236C 42.0285 397.236 46.3618 398.236 51.0285 398.902C 51.0285 397.236 50.3618 395.902 49.6951 394.569C 48.0285 390.236 46.6951 385.569 45.6951 380.902C 50.3618 382.236 54.0285 385.569 58.6951 386.902C 60.3618 380.902 61.6951 374.902 61.6951 368.902C 62.0285 368.902 62.3618 368.902 62.6951 368.902C 65.0285 371.569 68.0285 373.569 70.0285 376.569C 71.6951 378.902 74.0285 380.902 75.3618 383.569C 76.0285 381.236 76.3618 379.236 76.3618 376.902C 77.0285 373.236 77.3618 369.569 79.3618 366.569C 80.0285 365.902 80.6951 367.902 81.6951 368.902C 83.0285 371.236 83.6951 373.569 85.0285 375.902C 85.6951 377.236 87.3618 377.902 88.0285 379.236C 88.3618 380.236 89.3618 380.902 89.3618 381.902C 92.3618 377.236 94.3618 371.902 97.0285 366.902C 101.695 372.236 102.362 379.569 102.695 386.236C 106.695 381.902 110.695 377.902 114.362 373.236C 115.362 379.569 114.362 385.902 114.695 392.236C 119.028 392.236 123.028 389.569 127.362 388.236C 127.362 388.902 127.362 389.569 127.362 389.902C 124.695 394.569 121.362 398.902 120.362 404.236"/>
<path fill="none" stroke-width="6" stroke="#3f3f3f" d="M 427.862 408.402C 429.862 408.402 432.362 408.902 434.362 407.902C 439.862 405.402 445.862 401.402 448.862 395.902C 451.362 391.902 454.362 387.902 457.862 384.902C 460.362 382.902 464.362 380.902 468.862 383.402C 472.386 385.36 466.862 392.902 471.362 394.402C 477.362 396.902 484.862 397.902 489.362 392.402C 489.362 395.402 488.862 398.902 490.862 400.402C 492.862 402.402 496.362 400.902 497.862 402.402C 498.862 402.902 495.862 404.402 495.862 405.902C 495.862 410.402 494.362 414.902 496.862 418.902C 498.362 421.402 502.362 421.402 506.186 423.076"/>
<path fill="none" stroke-width="6" stroke="#3f3f3f" d="M 406.362 429.402C 408.362 429.402 409.362 432.402 411.362 432.402C 415.362 432.402 416.362 434.902 420.362 434.902C 416.862 442.402 411.362 444.402 402.862 442.902C 408.862 446.902 416.362 446.902 422.862 446.402C 423.362 445.902 424.362 445.402 424.862 444.902C 425.362 448.902 422.862 452.902 419.362 454.902C 425.362 455.902 434.362 455.402 438.862 451.902"/>
<path fill="none" stroke-width="5" stroke="#7f7f7f" d="M 387.028 200.132C 387.695 203.465 385.695 207.465 389.028 209.465C 392.362 210.798 395.695 210.798 399.028 210.132C 400.362 209.465 400.362 206.132 402.362 207.465C 403.695 208.132 405.695 208.798 407.695 208.798"/>
<path fill="none" stroke-width="5" stroke="#7f7f7f" d="M 525.692 235.088C 520.096 248.458 521.421 265.469 525.445 278.882C 527.445 282.882 537.445 288.882 543.445 288.882C 559.445 290.882 573.445 284.882 589.445 280.882C 590.787 275.513 591.929 269.643 592.558 263.699"/>
<path fill="none" stroke-width="5" stroke="#7f7f7f" d="M 525.445 234.882C 513.445 232.882 513.445 220.882 505.445 214.882C 497.445 204.882 495.445 188.882 489.445 176.882C 499.445 178.882 507.445 186.882 515.445 190.882C 515.445 184.882 513.445 178.882 515.445 174.882C 515.445 174.882 519.445 174.882 521.445 174.882C 525.445 176.882 527.445 182.882 531.445 184.882C 539.445 186.882 543.445 184.882 549.445 178.882C 549.445 184.882 553.445 188.882 551.445 194.882C 557.445 194.882 563.445 192.882 567.445 194.882C 567.445 196.882 567.445 200.882 567.445 202.882C 571.445 204.882 577.445 200.882 581.445 202.882C 581.445 202.882 581.445 206.882 581.445 208.882C 585.445 210.882 589.445 210.882 593.445 210.882C 591.445 220.882 599.445 220.882 605.445 226.882C 607.445 230.882 601.445 232.882 601.445 234.882C 597.445 242.882 601.445 254.882 599.445 264.882C 599.445 266.882 593.445 262.882 593.445 266.882"/>
<path fill="none" stroke-width="5" stroke="#7f7f7f" d="M 536.112 249.548C 536.778 251.548 537.445 258.215 538.778 260.215"/>
<path fill="none" stroke-width="5" stroke="#7f7f7f" d="M 542.112 273.548C 550.112 274.882 560.112 276.215 565.445 266.882C 566.112 265.548 566.778 269.548 568.778 269.548"/>
<path fill="none" stroke-width="5" stroke="#7f7f7f" d="M 560.778 288.882C 560.778 292.215 562.112 297.652 562.778 300.986C 567.445 320.319 572.778 334.319 575.445 354.319C 576.778 364.319 580.778 386.215 580.778 386.215"/>
<path fill="none" stroke-width="5" stroke="#7f7f7f" d="M 580.778 386.215C 580.778 386.215 561.445 426.986 551.445 447.652C 550.112 450.319 547.445 451.652 546.778 454.986"/>
<path fill="none" stroke-width="5" stroke="#7f7f7f" d="M 496.112 318.215C 500.112 319.548 504.778 320.882 508.778 320.882C 527.445 323.548 545.445 324.215 564.112 323.548"/>
<path fill="none" stroke-width="5" stroke="#7f7f7f" d="M 497.445 297.548C 518.112 302.215 539.445 306.215 560.778 306.882"/>
<path fill="none" stroke-width="5" stroke="#7f7f7f" d="M 552.778 247.548C 551.445 247.548 551.445 247.548 552.778 248.882C 554.112 252.215 550.778 257.548 554.778 259.548"/>
<path fill="none" stroke-width="6" stroke="#3f3f3f" d="M 175.862 380.402C 175.862 376.902 175.362 372.902 178.362 370.902C 180.862 369.902 183.862 369.902 186.362 368.402C 192.862 361.902 201.862 350.902 201.362 340.902"/>
<path fill="none" stroke-width="6" stroke="#7f7f7f" d="M 194.362 345.402"/>
<path fill="none" stroke-width="6" stroke="#3f3f3f" d="M 246.862 297.902L 243.362 305.402C 243.362 305.402 256.362 305.402 263.362 308.902C 266.362 310.402 273.362 314.402 275.362 317.402C 279.362 326.402 280.862 336.902 283.362 346.402C 280.362 345.902 277.362 347.402 274.862 344.902C 273.362 343.402 267.862 338.902 265.362 337.902C 257.862 335.902 254.862 335.902 247.862 331.902C 242.862 328.402 239.362 322.902 240.862 316.402"/>
<path fill="none" stroke-width="6" stroke="#3f3f3f" d="M 226.862 325.402C 221.862 328.902 215.862 335.402 210.362 336.902C 205.862 337.902 199.362 340.402 194.862 341.902"/>
<path fill="none" stroke-width="6" stroke="#3f3f3f" d="M 79.4451 708.986C 77.6437 694.986 71.9698 679.652 82.7785 675.652C 85.7955 674.313 129.697 685.732 129.445 685.652C 147.423 690.788 163.644 692.319 165.445 714.319C 168.656 732.144 174.568 766.626 161.153 788.548C 150.955 805.215 88.8222 787.861 75.8038 775.215C 66.7966 765.215 71.6274 741.652 66.223 727.652C 64.4216 719.652 64.4216 709.652 66.223 701.652C 66.223 701.652 77.6437 708.986 79.4451 708.986z"/>
<path fill="none" stroke-width="6" stroke="#3f3f3f" d="M 426.112 673.652C 440.865 664.801 456.112 665.652 472.112 667.652C 476.112 669.652 490.112 671.152 492.112 675.152C 498.112 691.152 505.112 701.652 509.112 717.652C 511.112 737.652 514.112 761.152 502.112 779.152C 486.112 805.152 431.612 797.152 418.112 791.652C 404.612 786.152 396.112 731.652 404.112 701.652C 406.112 689.652 416.112 679.652 426.112 673.652z"/>
<path fill="none" stroke-width="6" stroke="#3f3f3f" d="M 109.153 789.882C 109.153 793.882 105.445 801.652 105.445 805.652"/>
<path fill="none" stroke-width="6" stroke="#3f3f3f" d="M 462.612 796.652C 462.612 800.652 466.112 801.652 466.112 805.652"/>
<path fill="none" stroke-width="5" stroke="#7f7f7f" d="M 530.112 234.319C 530.778 232.986 531.445 231.652 532.778 230.986C 535.445 228.986 538.112 232.319 539.445 230.986C 542.778 226.986 542.778 220.319 548.778 218.986C 555.445 217.652 562.112 217.652 568.778 218.986C 574.778 220.319 580.778 221.652 583.445 228.319C 580.112 228.319 574.778 233.652 571.445 234.319C 571.445 234.319 574.112 232.986 574.112 233.652C 576.778 236.319 584.778 236.986 582.778 240.986C 580.778 244.319 575.445 245.652 574.112 250.319C 578.778 250.986 583.445 248.986 588.112 248.319C 588.112 250.319 588.112 252.319 586.778 254.319C 586.112 255.652 586.112 256.986 586.778 258.319C 586.778 258.319 588.112 258.319 588.778 258.319"/>
<path fill="none" stroke-width="5" stroke="#7f7f7f" d="M 582.112 384.986C 584.778 403.652 593.445 458.319 598.778 476.319C 600.112 482.986 602.112 489.652 604.112 496.319C 601.445 496.319 599.445 497.652 596.778 498.319"/>
<path fill="none" stroke-width="5" stroke="#7f7f7f" d="M 536.112 472.986C 532.112 480.986 530.778 489.652 526.778 497.652C 526.778 498.319 517.445 497.652 516.112 497.652"/>
<path fill="none" stroke-width="6" stroke="#3f3f3f" d="M 169.487 806.277C 169.487 806.277 222.82 787.611 231.487 775.611"/>
<path fill="none" stroke-width="6" stroke="#3f3f3f" d="M 144.778 728.319C 144.778 733.652 145.445 742.319 146.112 747.652"/>
<path fill="none" stroke-width="6" stroke="#3f3f3f" d="M 156.778 722.319C 156.778 727.652 156.778 732.319 156.778 737.652"/>
<path fill="none" stroke-width="6" stroke="#3f3f3f" d="M 123.153 769.882C 127.82 771.215 130.487 775.215 134.487 775.882C 143.82 778.548 153.153 777.882 162.487 776.548C 163.153 776.548 163.82 774.548 165.153 773.882"/>
<path fill="none" stroke-width="6" stroke="#3f3f3f" d="M 412.112 719.652C 412.112 725.652 412.112 731.652 412.112 737.652"/>
<path fill="none" stroke-width="6" stroke="#3f3f3f" d="M 434.112 729.652C 434.112 735.652 434.112 741.652 434.112 747.652"/>
<path fill="none" stroke-width="6" stroke="#3f3f3f" d="M 406.112 769.652C 426.112 773.652 446.112 777.652 466.112 771.652C 466.112 771.652 472.112 771.652 472.112 767.652"/>
<path fill="none" stroke-width="6" stroke="#3f3f3f" d="M 438.112 669.652C 424.112 669.652 414.112 685.652 418.112 697.652C 418.112 699.652 428.112 697.652 434.112 695.652C 434.112 699.652 434.112 703.652 434.112 707.652C 438.112 707.652 442.112 707.652 444.112 703.652C 444.112 711.652 450.112 719.652 448.112 727.652C 450.112 727.652 452.112 727.652 452.112 727.652C 454.112 723.652 456.112 719.652 456.112 715.652C 458.112 715.652 458.112 715.652 460.112 715.652C 460.112 721.652 468.112 723.652 466.112 729.652C 468.112 729.652 470.112 729.652 470.112 729.652C 470.112 723.652 470.112 715.652 470.112 709.652"/>
<path fill="none" stroke-width="4" stroke="#7f7f7f" d="M 105.473 237.415C 106.152 240.372 107.035 243.141 108.112 245.652C 122.112 275.652 166.112 261.652 178.112 241.652C 180.001 238.504 181.592 234.91 182.809 231.057"/>
<path fill="none" stroke-width="4" stroke="#7f7f7f" d="M 264.112 121.652C 248.112 117.652 236.112 133.652 230.112 147.652C 228.112 157.652 228.112 169.652 232.112 177.652C 238.112 193.652 260.112 197.652 276.112 191.652C 284.326 186.724 293.89 177.746 300.369 168.046"/>
<path fill="none" stroke-width="4" stroke="#7f7f7f" d="M 300.369 168.046C 301.778 165.938 303.04 163.795 304.112 161.652C 312.112 149.652 306.112 135.652 294.112 127.652C 286.112 123.652 278.112 121.652 270.112 123.652"/>
<path fill="none" stroke-width="4" stroke="#7f7f7f" d="M 258.112 197.652C 258.112 225.652 258.112 255.652 258.112 283.652C 258.112 288.652 261.112 293.652 263.112 297.652"/>
<path fill="none" stroke-width="4" stroke="#7f7f7f" d="M 154.112 279.652C 142.112 279.652 124.112 289.652 112.112 293.652C 102.207 296.954 91.1118 305.652 82.1118 312.652"/>
<path fill="none" stroke-width="4" stroke="#7f7f7f" d="M 210.112 223.652C 226.112 223.652 240.112 223.652 256.112 223.652"/>
<path fill="none" stroke-width="4" stroke="#7f7f7f" d="M 105.112 233.152C 101.612 234.652 101.612 239.652 98.1118 241.152C 98.1118 236.652 97.1118 232.152 97.6118 227.652C 94.1118 230.152 89.1118 232.652 88.6118 237.152C 88.6118 232.652 88.1118 228.152 89.1118 223.652C 90.1118 219.152 93.1118 215.152 95.1118 210.652C 91.1118 211.652 86.6118 213.652 83.6118 216.652C 79.6118 221.152 74.1118 225.652 74.1118 232.152C 75.1118 223.152 76.1118 214.152 81.1118 206.152C 84.1118 200.652 90.1118 198.652 94.6118 194.152C 92.6118 193.652 90.6118 194.152 88.6118 195.652C 83.6118 198.652 78.6118 200.652 75.1118 205.652C 74.6118 206.152 75.1118 207.152 75.1118 208.152C 75.6118 202.152 78.1118 196.652 77.6118 190.652C 89.6118 182.152 103.112 176.152 115.112 168.152C 121.112 168.152 126.612 169.152 132.612 168.652C 135.103 168.445 137.612 169.152 140.112 170.652C 140.612 170.652 141.612 170.652 142.112 170.652C 149.112 164.652 153.112 155.652 161.612 152.652C 161.112 156.652 158.612 159.652 157.112 163.152C 165.112 165.152 174.112 161.152 181.612 164.152C 178.112 167.152 173.112 167.152 169.612 169.652C 177.612 170.152 183.612 175.152 190.112 179.652C 192.612 181.152 194.612 184.652 194.112 186.652C 193.112 188.652 189.112 186.652 186.612 186.652C 189.112 189.652 192.612 192.652 193.112 197.152C 193.612 203.652 195.612 210.152 195.112 216.652C 192.112 215.152 189.612 212.152 186.112 211.652C 186.612 215.652 189.612 218.652 190.112 222.652C 190.112 225.652 191.112 228.152 191.112 231.152C 188.612 231.152 186.612 228.152 183.612 228.652"/>
<path fill="none" stroke-width="4" stroke="#7f7f7f" d="M 114.612 208.152C 118.112 206.652 122.112 206.652 126.112 207.652C 130.612 208.652 134.112 212.652 138.112 215.152"/>
<path fill="none" stroke-width="4" stroke="#7f7f7f" d="M 152.112 214.652C 154.612 208.652 160.612 206.652 166.612 207.152"/>
<path fill="none" stroke-width="4" stroke="#7f7f7f" d="M 126.612 236.652C 127.112 240.152 129.112 246.652 132.612 247.152C 140.112 248.652 147.112 248.152 154.612 247.152C 156.612 247.152 158.112 245.652 159.612 244.152C 161.612 241.152 162.112 237.652 162.112 234.152C 162.112 234.152 163.112 233.652 163.612 233.652C 151.022 233.652 139.112 236.152 126.612 236.652z"/>
<path fill="none" stroke-width="4" stroke="#7f7f7f" d="M 158.112 287.652C 178.112 287.652 199.112 287.652 219.112 287.652"/>
<path fill="none" stroke-width="4" stroke="#7f7f7f" d="M 260.112 237.652C 276.112 238.652 290.112 245.652 306.112 247.652C 305.112 247.652 303.112 247.652 302.112 247.652"/>
<path fill="none" stroke-width="4" stroke="#7f7f7f" d="M 260.112 120.652C 247.112 106.652 248.112 80.6523 264.112 69.6523C 273.112 62.6523 286.112 61.6523 297.112 66.6523C 303.112 69.6523 304.112 79.6523 301.112 86.6523C 300.112 89.6523 295.112 90.6523 291.112 89.6523C 291.112 89.6523 291.112 87.6523 291.112 86.6523"/>
<path fill="none" stroke-width="4" stroke="#7f7f7f" d="M 252.112 146.652C 251.112 150.652 249.112 153.652 249.112 157.652"/>
<path fill="none" stroke-width="4" stroke="#7f7f7f" d="M 268.112 150.652C 266.112 153.652 266.112 157.652 266.112 160.652"/>
<path fill="none" stroke-width="4" stroke="#7f7f7f" d="M 240.112 174.652C 244.112 175.652 247.112 179.652 251.112 180.652C 256.112 181.652 262.112 180.652 267.112 180.652"/>
<path fill="none" stroke-width="6" stroke="#3f3f3f" d="M 126.112 538.152C 124.205 527.735 146.984 510.361 154.612 505.152C 167.961 491.262 190.112 471.152 206.112 460.152"/>
<path fill="#ff9f3f" stroke-width="6" stroke="#7f7f7f" d="M 445.6 499.53C 441.309 502.135 439.879 508.212 441.786 509.948C 449.414 513.42 462.762 513.42 466.576 511.684C 470.39 509.948 474.681 503.003 470.39 499.53C 468.471 497.977 449.89 496.926 445.6 499.53z"/>
</g>
</g>
<g>
    <animateTransform attributeName="transform" type="scale"
            additive="replace" fill="freeze" 
            values="1.0; 0.2" begin="btn1.click" dur="1"/>
    <animateTransform attributeName="transform" type="scale"
            additive="replace" fill="freeze" 
            values="0.2; 1.0" begin="btn2.click" dur="1"/>
<g>
<path fill="#ff9f3f" stroke-width="6" stroke="#000000" d="M 122.362 685.366C 161.414 685.366 193.072 653.708 193.072 614.656C 193.072 575.604 161.414 543.945 122.362 543.945C 83.3099 543.945 51.6511 575.604 51.6511 614.656C 51.6511 653.708 83.3099 685.366 122.362 685.366z"/>
<path fill="#ff9f3f" stroke-width="6" stroke="#000000" d="M 122.362 480.366C 161.414 480.366 193.072 448.708 193.072 409.656C 193.072 370.604 161.414 338.945 122.362 338.945C 83.3099 338.945 51.6511 370.604 51.6511 409.656C 51.6511 448.708 83.3099 480.366 122.362 480.366z"/>
<path fill="#ff9f3f" stroke-width="6" stroke="#000000" d="M 122.362 275.366C 161.414 275.366 193.072 243.708 193.072 204.656C 193.072 165.604 161.414 133.945 122.362 133.945C 83.3099 133.945 51.6511 165.604 51.6511 204.656C 51.6511 243.708 83.3099 275.366 122.362 275.366z"/>
</g>
<g>
<path fill="#ff9f3f" stroke-width="6" stroke="#000000" d="M 324.362 787.866C 363.414 787.866 395.072 756.208 395.072 717.156C 395.072 678.104 363.414 646.445 324.362 646.445C 285.31 646.445 253.651 678.104 253.651 717.156C 253.651 756.208 285.31 787.866 324.362 787.866z"/>
<path fill="#ff9f3f" stroke-width="6" stroke="#000000" d="M 324.362 582.866C 363.414 582.866 395.072 551.208 395.072 512.156C 395.072 473.104 363.414 441.445 324.362 441.445C 285.31 441.445 253.651 473.104 253.651 512.156C 253.651 551.208 285.31 582.866 324.362 582.866z"/>
<g>
<path fill="#ff9f3f" stroke-width="6" stroke="#000000" d="M 324.362 172.866C 363.414 172.866 395.072 141.208 395.072 102.156C 395.072 63.1039 363.414 31.4451 324.362 31.4451C 285.31 31.4451 253.651 63.1039 253.651 102.156C 253.651 141.208 285.31 172.866 324.362 172.866z"/>
<path fill="#ff9f3f" stroke-width="6" stroke="#000000" d="M 324.362 377.866C 363.414 377.866 395.072 346.208 395.072 307.156C 395.072 268.104 363.414 236.445 324.362 236.445C 285.31 236.445 253.651 268.104 253.651 307.156C 253.651 346.208 285.31 377.866 324.362 377.866z"/>
</g>
</g>
<g>
<path fill="#ff9f3f" stroke-width="6" stroke="#000000" d="M 516.862 480.366C 555.914 480.366 587.572 448.708 587.572 409.656C 587.572 370.604 555.914 338.945 516.862 338.945C 477.81 338.945 446.151 370.604 446.151 409.656C 446.151 448.708 477.81 480.366 516.862 480.366z"/>
<path fill="#ff9f3f" stroke-width="6" stroke="#000000" d="M 516.862 685.366C 555.914 685.366 587.572 653.708 587.572 614.656C 587.572 575.604 555.914 543.945 516.862 543.945C 477.81 543.945 446.151 575.604 446.151 614.656C 446.151 653.708 477.81 685.366 516.862 685.366z"/>
<path fill="#ff9f3f" stroke-width="6" stroke="#000000" d="M 516.862 275.366C 555.914 275.366 587.572 243.708 587.572 204.656C 587.572 165.604 555.914 133.945 516.862 133.945C 477.81 133.945 446.151 165.604 446.151 204.656C 446.151 243.708 477.81 275.366 516.862 275.366z"/>
</g>
</g>
</svg>