<svg xmlns="http://www.w3.org/2000/svg"
	xmlns:xlink="http://www.w3.org/1999/xlink"
	viewBox="10.3 0 577 792"
	width="588.06" height="810.837">
<g id="scene">
        <set attributeName="opacity" to="1" 
		        fill="freeze" begin="btn1.click"/>
        <set attributeName="opacity" to="0" 
		        fill="freeze" begin="btn2.click"/>
        <set attributeName="opacity" to="0" 
		        fill="freeze" begin="scene.load"/>

<g>
<path fill="#80C41B" stroke="none" d="M 587.279 792L 587.279 0L 10.2794 0L 10.2794 792L 587.279 792z"/>
</g>
<g>
<path fill="#819CC9" stroke="none" d="M 339.284 531.444C 462.688 531.444 562.73 431.403 562.73 307.999C 562.73 184.595 462.688 84.5531 339.284 84.5531C 215.88 84.5531 115.839 184.595 115.839 307.999C 115.839 431.403 215.88 531.444 339.284 531.444z"/>
<path fill="#9F853A" stroke="none" d="M 13.2844 549.999L 141.284 535.999L 329.284 519.999L 204.284 678.999L 94.2844 789.999L 11.2844 790.999L 13.2844 549.999z"/>
<path fill="#DFD5B0" stroke="none" d="M 19.2844 696.999L 152.284 606.999L 194.284 646.999L 153.284 665.999L 147.284 643.999L 27.2844 728.999L 19.2844 696.999z"/>
<path fill="#FCC0C3" stroke="none" d="M 264.284 482.999L 289.284 472.999L 346.284 480.999L 345.284 543.999L 312.784 561.999L 262.784 543.499L 264.284 482.999z"/>
<path fill="#FA818F" stroke="none" d="M 315.618 502.332L 347.951 481.665L 347.951 537.332L 315.284 560.999L 315.618 502.332z"/>
<path fill="#F84163" stroke="none" d="M 264.284 482.999L 291.618 473.665L 347.951 482.665L 316.284 503.999L 264.284 482.999z"/>
<path fill="#FFFF40" stroke="none" d="M 393.951 591.665C 404.618 584.332 401.951 568.332 399.284 555.665C 396.618 542.999 383.618 522.332 385.951 513.999C 388.284 505.665 403.618 490.665 403.618 490.665L 380.284 498.999L 371.618 487.332L 369.618 485.665C 369.618 485.665 368.951 498.665 369.618 509.332C 370.284 519.999 368.618 521.332 360.951 528.332C 353.284 535.332 340.951 535.999 328.951 541.999C 316.951 547.999 316.618 555.999 310.951 581.332C 305.284 606.665 334.951 607.665 351.284 608.665C 351.284 608.665 368.951 605.999 375.951 603.332C 382.951 600.665 393.951 591.665 393.951 591.665z"/>
<path fill="#BFAC6F" stroke="none" d="M 351.284 608.665C 351.284 608.665 334.784 604.499 335.284 596.999C 335.784 589.499 349.284 584.499 365.284 580.499C 381.284 576.499 390.784 573.499 393.284 579.499C 395.784 585.499 396.784 590.999 392.284 594.499C 387.784 597.999 381.784 602.999 373.284 605.499C 364.784 607.999 351.284 608.665 351.284 608.665z"/>
<path fill="#FA818F" stroke="none" d="M 353.284 365.136C 418.891 365.136 472.078 314.482 472.078 251.999C 472.078 189.516 418.891 138.862 353.284 138.862C 287.677 138.862 234.49 189.516 234.49 251.999C 234.49 314.482 287.677 365.136 353.284 365.136z"/>
<path fill="#FEE0B3" stroke="none" d="M 46.3186 324.616C 44.9772 314.662 44.4554 304.446 44.5273 295.325C 44.5398 293.736 44.5704 292.181 44.6177 290.665C 45.2844 269.332 53.2844 241.999 62.6177 229.332C 71.9511 216.665 83.9511 210.665 83.9511 210.665C 99.9511 204.665 115.284 207.999 135.951 215.332C 156.618 222.665 183.284 227.999 197.284 244.665C 211.284 261.332 219.284 275.332 213.951 304.665C 208.618 333.999 205.284 349.332 189.284 365.999C 173.284 382.665 167.284 391.332 150.618 393.999C 133.951 396.665 121.951 397.332 103.284 388.665C 84.6177 379.999 70.1177 370.332 55.7844 356.999C 48.2719 350.01 48.0331 337.338 46.3186 324.616z"/>
<path fill="#FA818F" stroke="none" d="M 33.9511 307.999L 95.2844 279.332L 112.618 283.332L 108.618 295.332L 36.6177 327.332C 36.6177 327.332 30.6177 323.332 29.9511 316.665C 29.2844 309.999 33.9511 307.999 33.9511 307.999z"/>
<path fill="#BFAC6F" stroke="none" d="M 453.034 335.999C 466.034 329.999 465.034 330.999 488.034 332.999C 511.034 334.999 526.034 338.999 533.034 347.999C 542.386 360.022 541.034 375.999 535.034 399.999C 529.034 423.999 525.784 437.999 513.784 443.499C 497.523 450.952 487.784 451.999 471.034 450.999C 445.37 449.467 439.284 442.999 431.284 425.999C 426.974 416.838 421.784 398.999 428.784 373.999C 435.784 348.999 453.034 335.999 453.034 335.999z"/>
<path fill="#FEA033" stroke="none" d="M 456.784 531.999C 474.784 524.499 467.284 527.999 480.284 525.499C 493.284 522.999 504.784 518.999 516.784 518.999C 525.416 518.999 520.784 523.999 530.784 527.499C 540.784 530.999 557.284 535.999 561.784 544.999C 566.284 553.999 570.284 573.499 566.284 587.499C 562.284 601.499 551.784 626.999 539.284 634.999C 526.784 642.999 509.784 649.999 489.284 642.499C 468.784 634.999 449.784 625.999 445.284 613.999C 440.784 601.999 438.284 580.499 442.284 565.499C 446.284 550.499 456.784 531.999 456.784 531.999z"/>
<path fill="#FFFF40" stroke="none" d="M 367.784 688.999C 367.784 688.999 376.784 685.749 382.284 685.249C 387.784 684.749 394.034 686.749 394.034 686.749L 385.284 700.249C 385.284 700.249 398.034 732.249 398.534 741.749C 399.034 751.249 397.534 765.249 388.034 767.499C 378.534 769.749 358.034 768.249 352.034 762.249C 346.034 756.249 343.784 744.999 347.034 737.749C 350.284 730.499 356.034 720.499 363.034 715.999C 370.034 711.499 375.784 702.999 375.784 702.999L 367.784 688.999z"/>
</g>
<g>
<path fill="none" stroke-width="4" stroke-linecap="round" stroke="#FEA033" d="M 45.4581 324.508C 46.6877 334.839 49.1756 343.658 53.2219 351.124C 61.2844 365.999 77.1594 374.249 93.2219 383.124C 109.284 391.999 135.284 399.999 157.284 391.999C 179.284 383.999 209.159 342.249 213.222 315.124C 217.284 287.999 219.222 279.124 213.222 267.124C 207.222 255.124 205.159 250.249 181.222 235.124C 157.284 219.999 109.159 198.249 83.2219 211.124C 57.2844 223.999 47.1594 262.249 45.2219 289.124C 45.0718 291.206 44.9446 293.248 44.8413 295.252"/>
<path fill="none" stroke-width="4" stroke-linecap="round" stroke="#008837" d="M 121.284 391.999C 119.284 457.999 139.284 475.999 137.284 541.999"/>
<path fill="none" stroke-width="4" stroke-linecap="round" stroke="#F84163" d="M 33.2844 307.999C 40.9511 303.665 95.6079 279.796 95.6079 279.796L 113.284 283.999L 109.284 295.999C 109.284 295.999 42.2844 325.999 37.2844 327.999C 29.6046 324.927 28.2421 316.571 33.2844 307.999z"/>
<path fill="none" stroke-width="4" stroke-linecap="round" stroke="#008837" d="M 113.284 283.999L 119.284 281.999"/>
<path fill="none" stroke-width="4" stroke-linecap="round" stroke="#80620D" d="M 21.2844 549.999C 89.4042 542.594 176.164 532.997 253.961 528.514"/>
<path fill="none" stroke-width="4" stroke-linecap="round" stroke="#80620D" d="M 301.959 564.339C 241.489 638.65 126.465 763.785 103.284 781.999"/>
<path fill="none" stroke-width="4" stroke-linecap="round" stroke="#80620D" d="M 497.472 334.874C 483.11 332.48 467.472 328.874 455.472 334.874C 425.472 350.874 423.472 392.874 431.472 424.874C 439.472 452.874 475.472 454.874 501.472 448.874C 517.472 444.874 531.472 428.874 533.472 412.874C 537.472 388.874 543.472 362.874 531.472 344.874C 525.472 338.874 509.472 336.874 497.472 334.874z"/>
<path fill="none" stroke-width="4" stroke-linecap="round" stroke="#FF8000" d="M 479.097 525.374C 439.047 525.374 437.097 581.374 445.097 611.374C 455.097 637.374 509.097 655.374 533.097 639.374C 545.097 631.374 561.097 603.374 565.097 587.374C 569.097 575.374 567.097 545.374 559.097 541.374C 551.097 531.374 531.097 531.374 523.097 521.374C 517.097 515.374 487.097 525.374 479.097 525.374z"/>
<path fill="none" stroke-width="4" stroke-linecap="round" stroke="#FF8000" d="M 499.097 645.374C 491.097 689.374 499.597 745.874 497.597 789.874"/>
<path fill="none" stroke-width="4" stroke-linecap="round" stroke="#FF8000" d="M 497.284 685.999C 479.284 713.999 463.284 739.999 445.784 740.499C 421.111 741.204 406.284 704.999 386.284 698.999"/>
<path fill="none" stroke-width="4" stroke-linecap="round" stroke="#FEA033" d="M 385.097 700.374C 385.097 700.374 400.097 733.374 399.097 751.374C 398.097 769.374 383.639 770.459 369.097 767.374C 352.597 763.874 350.097 762.874 346.097 752.874C 342.097 744.874 350.761 726.724 356.097 721.874C 367.097 711.874 365.097 713.374 373.097 707.374C 383.097 699.374 363.097 693.374 369.097 689.374C 370.504 687.263 387.689 681.318 393.097 685.374C 397.097 687.374 385.097 700.374 385.097 700.374z"/>
<path fill="none" stroke-width="4" stroke-linecap="round" stroke="#4473B4" d="M 383.597 729.374C 378.597 727.374 370.097 726.874 365.597 729.374C 359.099 732.984 358.597 733.874 358.597 743.374C 358.597 752.374 370.553 755.028 377.097 754.374C 382.097 753.874 384.597 749.874 386.097 748.374"/>
<path fill="none" stroke-width="4" stroke-linecap="round" stroke="#4473B4" d="M 353.597 738.374C 360.097 738.374 367.097 738.374 373.597 738.374"/>
<path fill="none" stroke-width="4" stroke-linecap="round" stroke="#4473B4" d="M 352.097 744.874C 358.597 744.874 365.597 744.874 372.097 744.874"/>
<path fill="none" stroke-width="4" stroke-linecap="round" stroke="#008837" d="M 127.284 463.999C 133.284 471.999 141.284 471.999 149.284 475.999C 185.284 487.999 223.284 491.999 261.284 495.999"/>
<path fill="none" stroke-width="4" stroke-linecap="round" stroke="#008837" d="M 119.284 431.999C 115.284 429.999 111.284 433.999 109.284 433.999C 97.2844 441.999 85.2844 451.999 75.2844 459.999C 39.2844 489.999 25.2844 539.999 37.2844 583.999C 43.2844 607.999 69.2844 619.999 87.2844 637.999C 89.2844 637.999 91.2844 637.999 93.2844 637.999"/>
<path fill="none" stroke-width="4" stroke-linecap="round" stroke="#80620D" d="M 153.284 605.999L 193.284 647.999L 153.284 667.999L 147.284 643.999L 27.2844 729.999C 27.2844 729.999 19.2844 697.999 21.2844 697.999C 21.2844 695.999 153.284 605.999 153.284 605.999z"/>
<path fill="none" stroke-width="4" stroke-linecap="round" stroke="#F84163" d="M 99.2844 359.999C 117.284 373.999 141.284 375.999 161.284 369.999C 173.284 365.999 185.284 355.999 187.284 339.999"/>
<path fill="#819CC9" stroke-width="4" stroke-linecap="round" stroke="#9E3999" d="M 129.284 325.999C 129.284 315.999 129.284 307.999 129.284 297.999C 129.284 297.999 126.534 294.999 123.784 295.249C 121.034 295.499 119.284 301.749 119.284 301.749L 121.284 326.999C 121.284 326.999 123.284 332.499 125.534 331.749C 127.784 330.999 129.284 325.999 129.284 325.999z"/>
<path fill="#819CC9" stroke-width="4" stroke-linecap="round" stroke="#9E3999" d="M 163.284 321.999C 163.284 313.999 163.284 303.999 163.284 295.999C 163.284 295.999 164.034 293.249 166.284 292.999C 168.534 292.749 170.534 296.499 170.534 296.499L 170.034 321.749C 170.034 321.749 169.534 327.999 167.534 327.749C 165.534 327.499 163.284 321.999 163.284 321.999z"/>
<path fill="#80C41B" stroke-width="4" stroke-linecap="round" stroke="#BD748B" d="M 459.284 605.999C 468.284 612.999 535.284 621.999 535.284 621.999C 535.284 621.999 500.284 635.332 489.284 631.999C 478.284 628.665 463.284 618.999 461.284 611.999"/>
<path fill="#BE735F" stroke-width="4" stroke-linecap="round" stroke="#8E5647" d="M 473.284 577.999C 475.284 579.999 481.284 579.999 483.284 577.999C 485.284 575.999 485.284 569.999 483.284 567.999C 481.284 565.999 475.284 565.999 473.284 567.999C 471.284 569.999 471.284 575.999 473.284 577.999z"/>
<path fill="#BE735F" stroke-width="4" stroke-linecap="round" stroke="#8E5647" d="M 513.284 595.999C 521.284 599.999 527.284 589.999 523.284 583.999C 521.284 581.999 513.284 581.999 511.284 583.999C 509.284 585.999 509.284 593.999 513.284 595.999z"/>
<path fill="none" stroke-width="4" stroke-linecap="round" stroke="#008837" d="M 483.284 453.999C 485.284 475.999 473.284 493.999 471.284 513.999"/>
<path fill="none" stroke-width="4" stroke-linecap="round" stroke="#008837" d="M 479.284 485.999C 489.284 487.999 495.284 499.999 503.284 503.999"/>
<path fill="none" stroke-width="4" stroke-linecap="round" stroke="#008837" d="M 377.951 518.332C 398.284 521.999 425.284 547.999 425.284 547.999C 425.284 547.999 466.618 502.999 472.618 502.999"/>
<path fill="none" stroke-width="4" stroke-linecap="round" stroke="#9F853A" d="M 369.618 485.332C 371.951 485.665 376.99 498.94 378.951 499.332C 383.951 500.332 393.284 489.999 403.284 489.999C 401.284 497.999 392.951 504.665 388.618 509.999C 379.436 521.299 391.284 533.999 395.284 547.999C 401.284 561.999 405.284 577.999 397.284 587.999C 381.284 607.999 349.618 611.665 327.951 606.665C 318.261 604.429 315.284 600.665 313.284 593.332C 309.956 581.129 309.898 572.777 315.284 561.332C 320.618 549.999 327.284 541.999 337.284 537.999C 347.284 533.999 363.284 530.332 367.284 520.332C 373.284 508.332 365.951 496.999 369.618 485.332z"/>
<path fill="none" stroke-width="4" stroke-linecap="round" stroke="#F84163" d="M 373.618 554.665C 373.951 546.332 371.284 547.999 366.951 545.332C 359.951 544.332 360.62 544.157 355.284 547.999C 346.951 553.999 359.284 575.999 349.284 587.999C 345.284 591.999 333.756 594.471 329.284 589.999C 326.951 587.665 327.284 584.999 329.284 581.999C 332.793 576.736 343.284 579.999 349.284 581.999C 355.284 585.999 371.618 592.999 377.618 588.999C 381.618 586.999 385.951 578.999 383.951 572.999C 381.951 572.999 380.284 572.999 376.284 572.999"/>
<path fill="none" stroke-width="4" stroke-linecap="round" stroke="#F84163" d="M 342.618 568.999C 353.388 568.999 358.146 568.665 362.618 568.665"/>
<path fill="none" stroke-width="4" stroke-linecap="round" stroke="#9E3999" d="M 263.284 479.999L 263.284 543.999C 263.284 543.999 293.284 559.999 309.284 557.999"/>
<path fill="none" stroke-width="4" stroke-linecap="round" stroke="#9E3999" d="M 315.284 551.332C 315.284 538.325 315.284 515.655 315.284 501.999C 297.284 499.999 265.284 481.999 265.284 481.999L 289.284 473.999L 347.284 481.999L 347.284 528.999"/>
<path fill="none" stroke-width="4" stroke-linecap="round" stroke="#9E3999" d="M 315.284 501.999C 315.284 501.999 335.284 495.999 341.284 487.999"/>
<path fill="#80CA7F" stroke-width="4" stroke-linecap="round" stroke="#008837" d="M 461.784 384.999C 464.947 384.999 466.091 384.463 467.284 378.499C 468.284 373.499 465.284 373.499 462.784 372.499C 461.111 371.829 458.284 375.499 457.784 378.999C 457.284 382.499 457.784 384.999 461.784 384.999z"/>
<path fill="#80CA7F" stroke-width="4" stroke-linecap="round" stroke="#008837" d="M 485.972 382.499C 480.997 381.788 482.472 382.999 481.472 388.499C 480.872 391.799 482.972 393.999 485.972 393.999C 488.521 393.999 489.04 391.794 490.472 387.499C 491.472 384.499 489.472 382.999 485.972 382.499z"/>
<path fill="#80C41B" stroke-width="4" stroke-linecap="round" stroke="#BE735F" d="M 446.284 417.499C 454.284 420.999 462.284 421.499 465.284 421.999C 474.784 422.999 478.284 421.999 486.784 421.999C 495.284 421.999 506.784 418.499 508.784 418.499C 508.784 421.999 506.383 429.4 501.284 434.499C 495.784 439.999 496.284 442.499 485.284 443.499C 475.214 444.414 472.693 443.251 466.784 437.999C 462.284 433.999 461.284 429.499 460.784 422.999"/>
<path fill="none" stroke-width="4" stroke-linecap="round" stroke="#F84163" d="M 95.6079 279.796C 95.6079 279.796 93.7844 284.999 96.5344 289.499C 99.2844 293.999 109.284 295.999 109.284 295.999"/>
<path fill="none" stroke-width="4" stroke-linecap="round" stroke="#80620D" d="M 447.784 355.999C 452.784 346.999 457.284 336.499 468.284 333.499"/>
<path fill="none" stroke-width="4" stroke-linecap="round" stroke="#80620D" d="M 458.784 353.999C 458.284 351.499 459.784 348.999 461.284 347.999C 466.284 342.999 470.784 335.499 478.284 334.499"/>
<path fill="none" stroke-width="4" stroke-linecap="round" stroke="#80620D" d="M 466.784 362.499C 467.784 355.499 471.284 348.999 477.284 344.999C 481.784 341.499 484.284 336.499 490.284 335.499"/>
<path fill="none" stroke-width="4" stroke-linecap="round" stroke="#80620D" d="M 475.284 358.999C 480.284 351.499 486.784 345.499 494.284 341.499C 496.784 339.999 498.784 338.499 501.784 337.999"/>
<path fill="none" stroke-width="4" stroke-linecap="round" stroke="#80620D" d="M 483.284 370.999C 483.284 369.999 482.784 368.499 483.284 367.499C 487.284 358.999 491.784 349.999 499.784 344.499C 502.784 341.999 505.784 338.999 510.284 338.999"/>
<path fill="none" stroke-width="4" stroke-linecap="round" stroke="#80620D" d="M 498.284 356.999C 504.284 349.499 512.784 342.999 522.784 341.999"/>
<path fill="none" stroke-width="4" stroke-linecap="round" stroke="#80620D" d="M 504.284 365.499C 506.284 359.999 510.784 356.999 514.284 352.999C 518.284 349.499 522.784 345.999 528.784 344.999"/>
<path fill="none" stroke-width="4" stroke-linecap="round" stroke="#80620D" d="M 520.284 359.999C 522.284 357.999 524.284 356.499 526.284 354.499C 528.284 352.999 530.784 351.499 533.284 350.499"/>
<path fill="none" stroke-width="4" stroke-linecap="round" stroke="#80620D" d="M 520.284 373.999C 523.784 367.999 528.784 363.499 534.784 359.999"/>
<path fill="none" stroke-width="4" stroke-linecap="round" stroke="#80620D" d="M 530.284 371.499C 531.784 368.999 534.784 367.999 537.284 366.499"/>
<path fill="#BFCBE3" stroke-width="4" stroke-linecap="round" stroke="#4473B4" d="M 506.784 533.499C 509.284 536.999 514.784 537.499 517.284 535.999C 519.784 534.999 521.284 530.999 519.284 527.999C 514.284 521.999 506.284 523.999 499.784 523.999C 496.284 528.999 497.784 535.499 497.284 541.499C 505.284 545.499 515.284 547.999 523.784 545.499C 528.284 538.499 531.284 529.999 529.284 521.499C 528.784 519.999 527.284 517.999 525.784 516.999C 522.284 514.999 518.284 512.999 514.284 512.999C 507.284 513.499 501.284 516.499 494.784 518.999C 491.784 519.999 493.284 523.999 491.784 526.999"/>
<path fill="#FA818F" stroke-width="4" stroke-linecap="round" stroke="#F84163" stroke-linejoin="round" d="M 121.284 241.999C 115.284 241.999 101.284 247.999 101.284 247.999C 101.284 247.999 111.284 247.999 117.284 247.999C 115.284 253.999 115.284 265.999 115.284 265.999L 125.284 259.999C 125.284 259.999 125.284 273.999 131.284 281.999C 133.284 273.999 135.284 265.999 137.284 257.999C 145.284 263.999 141.284 275.999 147.284 281.999C 147.284 273.999 147.284 267.999 147.284 259.999C 157.284 259.999 171.284 269.999 171.284 269.999C 171.284 269.999 166.534 260.249 160.534 254.249C 166.534 254.249 179.284 253.999 179.284 253.999C 179.284 253.999 168.534 251.249 160.534 249.249C 164.534 245.249 171.284 243.999 171.284 243.999C 165.284 241.999 157.284 241.999 151.284 239.999"/>
</g>

</g>
<g>
 <g>
  <path fill="#FEA033" stroke-width="6" stroke="#000000" d="M 298.779 255.066C 337.831 255.066 369.49 223.407 369.49 184.355C 369.49 145.303 337.831 113.645 298.779 113.645C 259.727 113.645 228.069 145.303 228.069 184.355C 228.069 223.407 259.727 255.066 298.779 255.066z"/>
  <path fill="#FEA033" stroke-width="6" stroke="#000000" d="M 298.779 678.355C 337.831 678.355 369.49 646.696 369.49 607.645C 369.49 568.593 337.831 536.934 298.779 536.934C 259.727 536.934 228.069 568.593 228.069 607.645C 228.069 646.696 259.727 678.355 298.779 678.355z"/>
  <path fill="#FEA033" stroke-width="6" stroke="#000000" d="M 298.779 466.711C 337.831 466.711 369.49 435.052 369.49 396C 369.49 356.948 337.831 325.289 298.779 325.289C 259.727 325.289 228.069 356.948 228.069 396C 228.069 435.052 259.727 466.711 298.779 466.711z"/>
 </g>
</g>
</svg>