<svg xmlns="http://www.w3.org/2000/svg"
	xmlns:xlink="http://www.w3.org/1999/xlink"
	viewBox="5.1 0 577 792"
	width="607.819" height="823.112">
<g id="scene">
    <set attributeName="opacity" to="1" 
		    fill="freeze" begin="btn1.click"/>
    <set attributeName="opacity" to="0" 
		    fill="freeze" begin="btn2.click"/>
    <set attributeName="opacity" to="0" 
		    fill="freeze" begin="scene.load"/>
<g>
<path fill="#00ff00" stroke="none" d="M 582.097 792L 582.097 0L 5.09686 0L 5.09686 792L 582.097 792z"/>
<path fill="#ff9f3f" stroke-width="6" stroke="#ff7f00" d="M 240.749 230.059C 240.749 267.549 193.894 297.941 136.097 297.941C 78.3002 297.941 31.4451 267.549 31.4451 230.059L 240.749 230.059z"/>
<path fill="#ff9f3f" stroke-width="6" stroke="#ff7f00" d="M 555.749 230.347C 555.749 267.837 508.894 298.23 451.097 298.23C 393.3 298.23 346.445 267.837 346.445 230.347L 555.749 230.347z"/>
<path fill="none" stroke-width="6" stroke="#ff7f00" d="M 364.097 253L 452.097 51L 540.097 253"/>
<path fill="none" stroke-width="6" stroke="#ff7f00" d="M 48.0969 252L 136.097 50L 224.097 252"/>
<path fill="none" stroke-width="6" stroke="#ff7f00" d="M 108.097 52L 477.097 52"/>
<path fill="#ff9f3f" stroke-width="6" stroke="#ff7f00" d="M 296.097 65.0208C 302.736 65.0208 308.118 59.6388 308.118 53C 308.118 46.3612 302.736 40.9792 296.097 40.9792C 289.458 40.9792 284.076 46.3612 284.076 53C 284.076 59.6388 289.458 65.0208 296.097 65.0208z"/>
</g>
<g>
<path fill="#ff007f" stroke="none" d="M 149.097 271L 132.097 269L 117.097 251L 142.097 252L 168.097 238L 176.097 196L 170.097 155L 173.097 138C 173.097 138 180.097 106 196.097 101C 212.097 96 242.097 96 251.097 102C 260.097 108 262.097 114 262.097 114C 262.097 114 267.097 99 283.097 96C 299.097 93 333.097 96 337.097 111C 341.097 126 346.097 173 344.097 191C 342.097 209 338.097 221 350.097 235C 362.097 249 382.097 257 382.097 257L 389.097 252L 387.097 269L 362.097 277L 363.097 291L 370.097 293L 348.097 301L 331.097 277L 320.097 299L 310.097 278L 310.097 257L 211.097 261L 196.097 282L 193.097 266L 169.097 288L 139.097 285L 148.097 276L 149.097 271z"/>
<path fill="#ffdfbf" stroke="none" d="M 184.097 201L 202.097 192C 202.097 192 222.097 176 227.097 162C 232.097 148 235.097 131 235.097 131L 232.097 174L 248.097 160L 258.097 136L 290.097 166L 316.097 166C 316.097 166 329.097 190 326.097 208C 323.097 226 313.277 246.82 302.097 258C 288.764 271.333 288.058 277.224 260.097 275C 230.764 272.667 217.43 265.333 203.43 257.333C 189.058 249.121 186.097 239 186.097 239L 184.097 201z"/>
<path fill="#ffffff" stroke="none" d="M 205.097 231C 205.097 231 229.097 230 254.097 229C 279.097 228 303.097 227 303.097 227C 303.097 227 304.097 239 292.097 249C 280.097 259 258.097 266 243.097 261C 228.097 256 205.097 231 205.097 231z"/>
<path fill="none" stroke-width="1" stroke="#bfbf7f" d="M 218.097 230.667L 219.43 248.667L 228.097 253.333L 229.43 230.667L 241.43 230L 239.43 256L 250.764 260L 253.43 232.667L 266.097 231.333L 265.43 257.333L 276.764 256L 277.43 230.667L 286.764 228L 288.097 250.667L 296.764 242.667L 294.764 229.333"/>
<path fill="#4cffea" stroke="none" d="M 204.097 390L 185.097 417L 156.097 465L 101.097 550L 166.097 551L 310.097 552L 266.097 471L 204.097 403L 204.097 390z"/>
</g>
<g>
<path fill="none" stroke-width="6" stroke="#0000ff" d="M 182.251 194.42C 180.922 208.465 183.707 223.793 187.388 244.048C 200.359 258.646 218.193 263.512 236.027 270C 248.998 274.866 261.968 274.866 274.939 273.244C 279.803 271.622 283.045 271.622 287.909 270C 305.744 261.89 324.173 228.117 325.199 212.299C 326.418 193.512 322.14 179.666 313.743 162.926"/>
<path fill="none" stroke-width="6" stroke="#0000ff" d="M 303.243 228C 303.243 228 272.076 232 255.243 232C 238.409 232 204.576 228.667 204.576 228.667C 204.576 228.667 204.409 235.333 211.909 242.667C 219.409 250 231.576 256.333 243.243 258.667C 254.909 261 271.909 261.5 281.909 256C 291.909 250.5 301.909 240.667 303.243 228z"/>
<path fill="none" stroke-width="6" stroke="#0000ff" d="M 233.909 276C 221.909 324 210.097 370 197.909 420"/>
<path fill="none" stroke-width="6" stroke="#0000ff" d="M 201.909 402C 212.78 412.871 231.909 430 231.909 430L 261.097 464.5L 305.909 546"/>
<path fill="none" stroke-width="6" stroke="#0000ff" d="M 307.909 552C 237.909 550 99.9094 554 99.9094 554L 135.909 494L 159.909 462C 159.909 462 179.909 424 193.909 406"/>
<path fill="none" stroke-width="6" stroke="#0000ff" d="M 227.909 300C 288.049 311.565 335.41 327.731 379.909 338"/>
<path fill="none" stroke-width="6" stroke="#0000ff" d="M 211.909 354C 211.909 354 257.909 386 275.909 404C 293.909 422 293.909 422 293.909 422"/>
<path fill="none" stroke-width="6" stroke="#0000ff" d="M 261.909 556C 261.909 556 281.909 604 289.909 628"/>
<path fill="none" stroke-width="6" stroke="#0000ff" d="M 153.909 558C 153.909 558 135.909 618 131.909 648"/>
<path fill="none" stroke-width="6" stroke="#0000ff" d="M 221.909 210C 221.909 204 220.345 195.885 229.409 192C 236.409 189 245.909 191.5 247.909 204"/>
<path fill="none" stroke-width="6" stroke="#0000ff" d="M 273.909 206C 275.909 189 284.279 189.983 292.409 194.5C 296.909 197 297.909 204 297.909 210"/>
<path fill="none" stroke-width="6" stroke="#0000ff" d="M 209.097 263C 205.097 270 202.097 278 195.097 283C 195.097 277 195.097 270 195.097 264C 189.097 275 178.097 280 168.097 286C 158.097 291 148.097 288 138.097 288C 137.097 288 134.097 285 135.097 285C 141.097 284 145.097 281 148.097 277C 149.097 275 148.097 273 148.097 271C 142.097 271 136.097 272 130.097 269C 122.097 263 116.097 254 115.097 245C 118.097 261 139.097 256 149.097 250C 161.097 244 171.097 235 173.097 221C 176.097 207 177.097 193 174.097 179C 170.097 162 168.097 144 175.097 130C 181.097 118 188.386 99.6551 209.097 97C 248.097 92 262.097 115 262.097 115C 262.097 115 273.097 97 282.097 96C 293.097 94 305.097 93 315.097 98C 316.097 98 288.097 89 321.097 101C 347.09 110.452 347.097 154 344.097 184C 343.097 200 337.097 226.75 346.347 235.5C 355.597 244.25 372.347 258.75 380.347 257.5C 385.557 256.686 388.097 252 388.097 252C 388.097 252 391.597 268 381.097 274C 370.597 280 367.097 277 360.097 277C 360.097 284 359.097 295 369.097 294C 364.097 303 351.097 300 343.097 298C 331.097 295 332.097 280 329.097 269"/>
<path fill="none" stroke-width="6" stroke="#0000ff" d="M 311.097 264C 312.097 269 309.097 273 310.097 278C 312.097 287 317.097 294 319.097 302C 319.097 294 325.097 285 325.097 277"/>
<path fill="none" stroke-width="6" stroke="#0000ff" d="M 198.097 196C 219.097 188.5 234.527 149.885 236.027 128.885C 242.027 139.385 231.097 163 232.597 175C 253.597 158.5 253.597 157 259.597 134.5C 258.437 138.848 274.597 154 282.097 160C 289.597 169 298.597 167.5 312.097 167.5"/>
</g>
<g>
<path fill="#ffbfbf" stroke="none" d="M 495.097 464C 495.097 464 481.097 473 477.097 486C 473.097 499 477.097 550 477.097 550C 477.097 550 481.097 568 492.097 570C 503.097 572 537.097 571 537.097 571L 564.097 561L 576.097 521L 565.097 479L 521.097 462L 495.097 464z"/>
<path fill="#ffffff" stroke="none" d="M 493.097 550L 545.097 543C 545.097 543 549.097 553 544.097 558C 539.097 563 535.097 567 520.097 566C 505.097 565 498.097 560 498.097 560L 493.097 550z"/>
<path fill="#ffffff" stroke="none" d="M 344.097 483C 344.097 483 355.097 474 365.097 480C 375.097 486 382.097 497 376.097 510C 370.097 523 356.097 528 345.097 521C 334.097 514 335.097 504 337.097 497C 339.097 490 344.097 483 344.097 483z"/>
<path fill="#dfdfbf" stroke="none" d="M 370.097 485L 369.097 499.5L 363.597 512L 351.097 522L 366.097 521.5L 377.597 501.5L 376.597 487L 370.097 485z"/>
</g>
<g>
<path fill="none" stroke-width="6" stroke="#0000ff" d="M 510.097 462C 504.097 462 498.097 460 494.097 462C 470.097 482 470.097 514 476.097 542C 476.097 554 480.097 566 492.097 570C 510.097 574 528.097 574 546.097 570C 556.097 568 564.097 562 570.097 552C 578.097 532 578.097 508 572.097 492C 564.097 474 542.097 466 520.097 464C 516.097 446 522.097 416 546.097 428C 550.097 430 548.097 440 548.097 448C 544.097 448 538.097 448 534.097 448"/>
<path fill="none" stroke-width="6" stroke="#0000ff" d="M 492.097 550C 510.097 552 528.097 546 546.097 544C 548.097 552 546.097 558 540.097 562C 528.097 568 514.097 568 500.097 564C 494.097 564 496.097 554 492.097 550z"/>
<path fill="none" stroke-width="6" stroke="#0000ff" d="M 500.097 498C 500.097 506 500.097 514 500.097 522"/>
<path fill="none" stroke-width="6" stroke="#0000ff" d="M 526.097 506C 526.097 514 526.097 520 526.097 528"/>
<path fill="none" stroke-width="6" stroke="#0000ff" d="M 534.097 578C 522.097 632 526.734 629.198 510.097 684C 504.43 702.667 497.43 722.333 489.43 741.333C 488.43 745.333 486.097 754 486.097 754C 486.097 754 516.097 744 533.097 740C 543.097 738 562.097 727 562.097 727L 564.43 756"/>
<path fill="none" stroke-width="6" stroke="#0000ff" d="M 526.097 610"/>
<path fill="none" stroke-width="6" stroke="#7f7f00" d="M 358.097 480C 350.764 480 344.097 482 339.43 490C 334.764 498 336.097 513.333 340.097 518C 344.097 522.667 361.43 527.333 369.43 520C 377.43 512.667 380.097 492.667 374.764 486.667C 369.43 480.667 360.097 480 358.097 480"/>
<path fill="none" stroke-width="6" stroke="#7f7f00" d="M 368.097 518C 382.097 536 376.764 554 374.764 563.333C 372.764 572.667 368.764 586 368.764 586L 345.43 600.667L 330.097 600"/>
<path fill="none" stroke-width="6" stroke="#7f7f00" d="M 376.764 536.667C 363.748 551.852 357.804 556.358 346.097 570.667"/>
<path fill="none" stroke-width="6" stroke="#7f7f00" d="M 368.764 586C 370.097 597.333 371.43 606.667 362.764 625.333"/>
<path fill="none" stroke-width="6" stroke="#7f7f00" d="M 375.43 530C 375.43 530 371.43 534 356.764 539.333C 343.355 544.209 334.764 553.333 334.764 553.333"/>
<path fill="none" stroke-width="6" stroke="#0000ff" d="M 524.097 592.667C 524.097 592.667 476.764 593.333 459.43 584.667C 442.097 576 385.43 541.333 385.43 541.333"/>
<path fill="none" stroke-width="6" stroke="#0000ff" d="M 508.097 687C 500.097 701 480.097 726 480.097 726L 474.097 738C 474.097 738 479.764 738 480.764 738"/>
<path fill="none" stroke-width="6" stroke="#0000ff" d="M 491.097 737C 493.097 737 505.43 733 505.43 733L 533.097 723C 533.097 723 533.43 726.333 535.097 733"/>
<path fill="none" stroke-width="6" stroke="#0000ff" d="M 537.43 739L 538.097 750.333"/>
</g>
<g>
<path fill="#dfdfbf" stroke="none" d="M 279.097 624L 335.097 616L 367.097 644L 395.097 651L 442.097 670L 441.097 709L 381.097 720L 331.097 753L 299.097 691L 301.097 652L 279.097 624z"/>
<path fill="#ff0000" stroke="none" d="M 243.097 684L 254.097 673L 263.097 674L 269.097 660L 277.097 662L 281.097 680L 288.097 685L 297.097 707L 307.097 710L 314.097 691L 322.097 691L 319.097 682L 323.097 671L 329.097 673L 334.097 734L 354.097 726L 356.097 698L 384.097 698L 394.097 686L 408.097 692L 419.159 728L 434.097 725L 448.097 719L 453.097 712L 461.097 714L 464.097 742L 444.097 732L 429.097 739L 409.097 734L 400.097 758L 306.097 760L 287.097 714L 278.097 694L 258.097 696L 243.097 684z"/>
<path fill="#a30000" stroke="none" d="M 409.097 734L 400.097 758L 443.097 747L 444.097 735L 429.097 739L 422.097 735L 409.097 734z"/>
<path fill="#ffffff" stroke="none" d="M 411.097 699L 415.097 725L 436.097 729L 437.097 721L 448.097 719L 453.097 712L 476.097 703L 451.097 706L 429.097 703L 408.097 692L 411.097 699z"/>
<path fill="#ffffff" stroke="none" d="M 288.097 685L 317.097 686L 322.097 691L 314.097 691L 307.097 710L 297.097 707L 288.097 685z"/>
<path fill="#bfbf7f" stroke="none" d="M 301.097 652L 276.097 624L 335.097 616L 367.097 644L 395.097 651L 301.097 652z"/>
<path fill="#9f9f3f" stroke="none" d="M 302.097 655L 367.097 644L 384.097 646L 395.097 651L 302.097 655z"/>
<path fill="#bfbf7f" stroke="none" d="M 399.097 654L 400.097 685L 421.097 701L 441.097 709L 442.097 670L 399.097 654z"/>
<path fill="#bfbf7f" stroke="none" d="M 332.097 682L 339.097 681L 341.097 730L 334.097 729L 332.097 682z"/>
<path fill="#9f3f3f" stroke="none" d="M 357.097 716L 370.097 699L 387.097 695L 356.097 730L 357.097 716z"/>
</g>
<g>
<path fill="none" stroke-width="6" stroke="#7f0000" d="M 228.097 714C 226.097 702 232.097 694 240.097 688C 242.097 684 250.097 686 256.097 694C 258.097 696 266.097 690 270.097 692C 282.097 694 277.43 704 288.097 718C 298.764 732 306.097 760 306.097 760L 400.097 760C 400.097 760 406.097 744 406.097 734C 414.097 736 428.097 730 428.097 742C 428.097 738 432.097 738 434.097 736C 446.097 734 460.097 734 464.097 748C 466.097 736 458.097 724 460.097 712C 462.097 706 468.097 710 472.097 706C 448.097 706 422.097 712 404.097 688C 402.097 686 394.097 686 392.097 688C 384.097 702 368.097 698 356.097 698C 356.097 708 358.097 718 354.097 728C 352.097 734 340.097 728 336.097 736C 334.097 740 336.097 746 336.097 752C 332.097 726 334.097 698 328.097 672C 328.097 672 324.097 672 322.097 672C 326.097 692 300.097 684 288.097 682C 278.097 682 280.097 670 276.097 662C 274.097 660 270.097 662 266.097 662C 268.097 668 262.097 670 262.097 674C 250.097 672 242.097 680 242.097 692"/>
<path fill="none" stroke-width="6" stroke="#595900" d="M 298.764 685.333C 298.764 675.333 297.43 654 297.43 654L 396.764 651.333L 400.097 686.667"/>
<path fill="none" stroke-width="6" stroke="#595900" d="M 398.097 649.333L 440.764 668L 441.43 705.333"/>
<path fill="none" stroke-width="6" stroke="#7f0000" d="M 400.097 760L 441.43 748L 442.764 734.667"/>
<path fill="none" stroke-width="6" stroke="#7f7f00" d="M 288.097 682C 288.764 684 288.097 685.333 288.764 686C 293.43 692.667 294.097 701.333 296.097 708.667C 296.764 709.333 300.764 710 303.43 710C 304.764 710 306.097 712 306.097 711.333C 306.097 704 307.43 697.333 314.097 693.333C 316.097 692 319.43 693.333 320.764 692C 322.764 690.667 320.764 688.667 318.764 686.667C 318.764 686 318.764 684.667 318.764 684"/>
<path fill="none" stroke-width="6" stroke="#7f7f00" d="M 411.43 697.333C 410.764 702.667 414.764 706.667 414.764 711.333C 415.43 716 416.097 720.667 414.764 725.333C 421.43 724.667 429.43 722.667 435.43 727.333C 433.43 720 442.097 718.667 448.097 719.333C 448.097 718 447.43 716 448.097 714.667C 449.43 712 454.097 714 456.764 713.333"/>
<path fill="none" stroke-width="6" stroke="#7f7f00" d="M 299.43 652L 276.097 623.333L 333.43 616.667L 365.43 643.333L 382.764 645.333L 396.764 651.333"/>
</g>
<g>
<path fill="#ffff7f" stroke="none" d="M 228.764 790L 277.68 767.667L 262.097 686L 198.097 676L 126.097 688.667L 228.764 790z"/>
<path fill="#ffff00" stroke="none" d="M 111.18 775.167L 118.764 690.667L 216.764 706.667L 228.764 790L 111.18 775.167z"/>
<path fill="none" stroke-width="6" stroke="#3fff3f" d="M 217.68 704.667L 265.68 685.167L 277.68 767.667L 229.68 791.667"/>
<path fill="#ff7f7f" stroke-width="4" stroke="#ff0000" d="M 199.097 655.5C 199.097 655.5 206.347 655.75 208.097 659.75C 209.847 663.75 212.097 669.25 212.097 669.25L 203.347 675.5C 203.347 675.5 205.597 670.75 201.347 667.5C 197.097 664.25 192.597 664 192.597 664L 195.097 656.5L 199.097 655.5z"/>
<path fill="#ff3f3f" stroke-width="4" stroke="#ff0000" d="M 179.847 659C 179.847 659 171.347 661.5 172.347 666.5C 173.347 671.5 184.097 683.75 184.097 683.75"/>
<path fill="none" stroke-width="6" stroke="#3fff3f" d="M 117.18 689.667L 205.68 677.667L 261.18 683.667"/>
<path fill="#ff7f7f" stroke-width="4" stroke="#ff0000" d="M 252.68 784L 238.014 695.333L 152.347 682.25L 170.847 678.5L 250.014 690L 265.347 776L 252.68 784z"/>
<path fill="none" stroke-width="6" stroke="#3fff3f" d="M 111.18 775.167L 229.68 791.667L 217.68 704.667L 117.18 689.667L 111.18 775.167z"/>
<path fill="#ff7f7f" stroke-width="4" stroke="#ff0000" d="M 149.347 784L 152.847 695.167L 216.68 676.667L 237.347 680L 176.014 698.667L 168.014 786L 149.347 784z"/>
<path fill="#ff3f3f" stroke="none" d="M 205.597 646L 204.847 651.75L 196.097 656C 196.097 656 193.097 660.5 193.097 665C 193.097 669.5 196.347 682.25 196.347 682.25L 191.847 689C 191.847 689 183.847 684.25 182.097 677.25C 180.347 670.25 179.847 655.5 183.347 651.75C 186.847 648 193.597 644.25 197.347 644.25C 201.097 644.25 205.597 646 205.597 646z"/>
<path fill="none" stroke-width="4" stroke="#ff0000" d="M 205.43 651.333C 205.43 651.333 205.43 652 205.43 651.333C 204.764 652 205.43 651.333 205.43 651.333C 203.43 651.333 196.457 655.439 196.097 656C 190.097 665.333 195.43 672 195.43 682"/>
<path fill="#ff7f7f" stroke-width="4" stroke="#ff0000" d="M 202.347 688.25C 202.347 688.25 204.847 683 211.847 681.75C 218.847 680.5 223.097 680 226.597 683.75C 230.097 687.5 230.847 695.75 230.847 695.75L 222.097 693.5L 216.097 700C 216.097 700 213.847 692.25 209.847 690.25C 205.847 688.25 202.347 688.25 202.347 688.25z"/>
<path fill="#ff7f7f" stroke="none" d="M 206.597 646L 226.347 647.75L 231.847 665.75L 221.597 675.25L 210.097 687.5L 193.347 687.5L 204.097 676L 218.597 663.25L 217.597 656.25L 204.847 652L 206.597 646z"/>
<path fill="none" stroke-width="4" stroke="#ff0000" d="M 204.764 644.667C 210.097 649.333 224.764 647.333 224.764 647.333C 224.764 647.333 228.097 652.667 229.43 655.333C 232.764 660.667 232.764 670 226.097 672.667C 218.097 676 215.43 684.667 208.097 687.333C 204.764 688.667 200.097 688 196.097 688"/>
<path fill="none" stroke-width="4" stroke="#ff0000" d="M 190.097 688.667C 180.097 682 179.43 668.667 181.43 657.333C 182.097 654 184.097 650 188.097 648C 193.43 646 199.43 641.333 204.764 644.667C 206.097 645.333 204.764 649.333 205.43 651.333C 207.43 654.667 212.097 654 215.43 655.333C 219.43 656 220.097 660.667 218.097 664C 215.43 669.333 209.43 671.333 204.097 675.333C 197.615 680.889 195.603 686.189 193.43 688"/>
<path fill="#ffff00" stroke="none" d="M 216.764 706.667"/>
</g>
</g>
<g>
<g>
    <animateTransform attributeName="transform" type="scale"
            additive="replace" fill="freeze" 
            values="1.0; 0.2" begin="btn1.click" dur="1"/>
    <animateTransform attributeName="transform" type="scale"
            additive="replace" fill="freeze" 
            values="0.2; 1.0" begin="btn2.click" dur="1"/>
<path fill="#ff9f3f" stroke-width="6" stroke="#000000" d="M 451.597 270.711C 490.649 270.711 522.308 239.052 522.308 200C 522.308 160.948 490.649 129.289 451.597 129.289C 412.545 129.289 380.886 160.948 380.886 200C 380.886 239.052 412.545 270.711 451.597 270.711z"/>
<path fill="#ff9f3f" stroke-width="6" stroke="#000000" d="M 451.597 662.711C 490.649 662.711 522.308 631.052 522.308 592C 522.308 552.948 490.649 521.289 451.597 521.289C 412.545 521.289 380.886 552.948 380.886 592C 380.886 631.052 412.545 662.711 451.597 662.711z"/>
<path fill="#ff9f3f" stroke-width="6" stroke="#000000" d="M 135.597 270.711C 174.649 270.711 206.308 239.052 206.308 200C 206.308 160.948 174.649 129.289 135.597 129.289C 96.545 129.289 64.8862 160.948 64.8862 200C 64.8862 239.052 96.545 270.711 135.597 270.711z"/>
<path fill="#ff9f3f" stroke-width="6" stroke="#000000" d="M 135.597 662.711C 174.649 662.711 206.308 631.052 206.308 592C 206.308 552.948 174.649 521.289 135.597 521.289C 96.545 521.289 64.8862 552.948 64.8862 592C 64.8862 631.052 96.545 662.711 135.597 662.711z"/>
<path fill="#ff9f3f" stroke-width="6" stroke="#000000" d="M 451.597 466.711C 490.649 466.711 522.308 435.052 522.308 396C 522.308 356.948 490.649 325.289 451.597 325.289C 412.545 325.289 380.886 356.948 380.886 396C 380.886 435.052 412.545 466.711 451.597 466.711z"/>
<path fill="#ff9f3f" stroke-width="6" stroke="#000000" d="M 135.597 466.711C 174.649 466.711 206.308 435.052 206.308 396C 206.308 356.948 174.649 325.289 135.597 325.289C 96.545 325.289 64.8862 356.948 64.8862 396C 64.8862 435.052 96.545 466.711 135.597 466.711z"/>
</g>
</g>
</svg>