<svg xmlns="http://www.w3.org/2000/svg"
	xmlns:xlink="http://www.w3.org/1999/xlink"
	viewBox="1 0 577 792"
	width="577" height="792">
<g>
<path fill="#00ff00" stroke="none" d="M 578 792L 578 0L 1 0L 1 792L 578 792z"/>
</g>
<g>
<path fill="#00ffff" stroke="none" d="M 0 526L 452 378L 546 482L 576 488L 578 2L 2 0L 0 526z"/>
</g>
<g>
<path fill="#bfbf7f" stroke="none" d="M 416 164.667L 436.667 166L 394 394L 389.333 608.667L 482.667 610.667C 482.667 610.667 520 598.667 528 604C 536 609.333 564.667 642 564.667 642L 579.333 632.667L 562.667 452L 548 284L 539.333 166.667L 552.667 165.333L 570 50L 539.333 47.3333L 533.333 74L 503.333 74L 504.667 42L 476.667 44.6667L 468.667 74L 448.667 74.6667L 439.333 48.6667L 404 57.3333L 416 164.667z"/>
<path fill="#9f9f3f" stroke="none" d="M 511.333 180.667C 511.333 180.667 496.667 183.333 493.333 196.667C 490 210 494.667 242.667 494.667 242.667L 530.667 241.333C 530.667 241.333 530.667 217.333 527.333 205.333C 524 193.333 511.333 180.667 511.333 180.667z"/>
<path fill="#9f9f3f" stroke="none" d="M 455.333 280.667C 455.333 280.667 444 280.667 442.667 291.333C 441.333 302 442.667 336 442.667 336L 474 336C 474 336 480 303.333 472.667 294.667C 465.333 286 455.333 280.667 455.333 280.667z"/>
<path fill="#9f9f3f" stroke="none" d="M 528.667 390.667C 528.667 390.667 517.333 390 513.333 400C 509.333 410 512 456 512 456L 544.667 454C 544.667 454 551.333 425.333 544 413.333C 536.667 401.333 528.667 390.667 528.667 390.667z"/>
<path fill="#ffffff" stroke="none" d="M 502.5 211.25L 516.75 211.5C 516.75 211.5 522.25 232 520 233.75C 517.75 235.5 507.75 233 505.75 230.5C 503.75 228 502 216.5 502 216.5L 502.5 211.25z"/>
<path fill="#ffffff" stroke="none" d="M 486.25 226.75C 486.25 226.75 489.5 228.5 491.25 232.5C 493 236.5 494 241.5 494 241.5L 487.75 243.75L 483 225.75L 486.25 226.75z"/>
<path fill="#ffffff" stroke="none" d="M 451.667 299.667L 457 299.333L 458.667 291.333L 469.333 293.667L 469.333 300.667L 473.333 303L 469.333 317.333L 481 319.667L 482 337L 466.667 321L 458.667 322.667L 449.667 331.333L 440.333 322.667L 451.667 299.667z"/>
<path fill="#ffffff" stroke="none" d="M 521.25 404.5C 521.25 404.5 529 402 532.25 404.5C 535.5 407 535.5 413.5 535.5 413.5L 531.25 419.5L 518.5 418.25L 516.25 412L 521.25 404.5z"/>
<path fill="none" stroke-width="3" stroke="#00ff00" d="M 512 328C 510 328 506 328 504 328C 502 326 502 320 504 318C 508 316 518 316 518 318C 530 338 504 358 492 374C 486 384 486 396 488 406C 486.211 397.053 485 385 494 377.5C 494 377.5 492.5 376 492 374C 498.5 374.5 503 368.5 509 371.5C 509 371.5 509 373 509 374.5"/>
<path fill="none" stroke-width="2" stroke="#00ff00" d="M 507.5 359.5C 513.5 350.5 525.5 340 536 349C 539 350.5 539 358 537.5 362.5C 534.5 368.5 527 365.5 522.5 365.5C 522.5 362.5 521 358 522.5 355C 524 353.5 527 355 530 355"/>
<path fill="none" stroke-width="2" stroke="#00ff00" d="M 519.5 338.5C 519.5 337 519.5 335.5 519.5 334C 531.5 322 536 302.5 531.5 287.5C 530 281.5 519.5 280 515 284.5C 512 286 512 293.5 515 298C 515 299.5 519.5 298 522.5 298C 522.5 298 522.5 296.5 522.5 295"/>
<path fill="none" stroke-width="2" stroke="#00ff00" d="M 531.5 287.5C 534.5 283 531.5 278.5 530 275.5C 527 269.5 527 262 528.5 256C 530 253 536 248.5 540.5 251.5C 542 254.5 540.5 259 540.5 262"/>
<path fill="none" stroke-width="2" stroke="#00ff00" d="M 521 326.5C 521 317.5 515 311.5 509 305.5C 507.5 304 498.5 302.5 498.5 301C 494 287.5 491 274 495.5 260.5C 495.5 260.5 501.5 260.5 504.5 260.5C 503 265 507.5 269.5 503 272.5"/>
<path fill="none" stroke-width="2" stroke="#00ff00" d="M 492.5 286C 494 268 476 250 461 259C 455 262 465.5 268 471.5 265"/>
<path fill="none" stroke-width="2" stroke="#00ff00" d="M 471.5 253C 467 244 462.5 238 456.5 230.5C 453.5 224.5 453.5 215.5 456.5 212.5C 462.5 206.5 465.5 220 465.5 227.5L 465.5 226"/>
<path fill="none" stroke-width="2" stroke="#00ff00" d="M 452 253C 450.5 247 438.5 247 437 250C 432.5 256 434 268 444.5 265C 443 263.5 446 260.5 443 259"/>
<path fill="none" stroke-width="3" stroke="#00ff00" d="M 449 425.5C 449 406 444.5 370 473 380.5C 474.5 382 473 391 465.5 389.5L 465.5 388"/>
<path fill="none" stroke-width="3" stroke="#00ff00" d="M 452 386.5C 455 380.5 462.5 377.5 465.5 371.5C 467 367 467 358 464 356.5C 458 350.5 447.5 355 450.5 367C 452 365.5 455 368.5 456.5 365.5"/>
<path fill="none" stroke-width="3" stroke="#00ff00" d="M 483.5 436C 479 416.5 486.5 397 483.5 376C 482 371.5 470 368.5 470 370C 470 367 468.5 362.5 470 359.5C 477.5 349 491 359.5 497 349C 497 346 500 343 498.5 341.5C 497 340 492.5 340 491 341.5C 491 343 491 344.5 491 346"/>
<path fill="none" stroke-width="3" stroke="#00ff00" d="M 425 355C 425 356.5 425 358 423.5 359.5C 425 358 423.5 358 423.5 359.5C 423.5 362.854 419 359.5 417.5 361C 417.5 358 417.5 355 417.5 352C 426.5 352 440 355 437 367"/>
<path fill="none" stroke-width="2" stroke="#00ff00" d="M 426.5 347.5C 419 338.5 410 328 413 316C 413 319 416 320.5 416 323.5"/>
<path fill="none" stroke-width="2" stroke="#00ff00" d="M 524 346C 533 343 545 337 540.5 326.5C 539 326.5 536 326.5 534.5 326.5C 534.5 328 534.5 331 534.5 332.5"/>
<path fill="none" stroke-width="2" stroke="#00ff00" d="M 537.5 341.5C 540.5 338.5 543.5 337 548 337"/>
<path fill="none" stroke-width="4" stroke="#00ff00" d="M 529.354 605.667C 527.854 593.667 529.354 580.167 529.354 568.167C 530.854 563.667 533.854 557.667 538.354 556.167C 542.854 556.167 548.854 553.167 550.354 557.667C 553.354 565.167 554.854 574.167 553.354 581.667C 547.354 580.167 541.354 575.667 542.854 569.667"/>
<path fill="none" stroke-width="3" stroke="#00ff00" d="M 528.5 569.5C 528.5 557.5 527 544 518 536.5C 512 529 503 515.5 494 521.5C 489.5 524.5 489.5 535 492.5 541C 492.5 542.5 498.5 542.5 500 541C 501.5 539.5 500 536.5 500 533.5"/>
<path fill="none" stroke-width="3" stroke="#00ff00" d="M 524 544.667C 524 539.333 522 534.667 521.333 529.333C 521.333 520 519.333 510.667 523.333 501.333C 524.667 498 528 494 531.333 494.667C 539.333 495.333 547.333 498 552.667 503.333C 556 506.667 555.333 514 553.333 518.667C 552 522.667 544.667 523.333 541.333 521.333C 538 519.333 538.667 513.333 540 509.333C 540.667 507.333 544 508.667 546 508.667C 548 509.333 547.333 512 547.333 514"/>
<path fill="none" stroke-width="3" stroke="#00ff00" d="M 520.667 506.667C 520.667 506 520.667 505.333 520.667 504.667C 521.333 503.333 522 502 523.333 501.333C 524 500.667 522.667 498.667 523.333 497.333C 528 490 527.333 482 526 474C 524.667 467.333 514.667 468 509.333 470C 506.667 471.333 506.667 477.333 509.333 480C 510.667 482 514.667 482 517.333 480.667C 518 480.667 517.333 478.667 517.333 477.333"/>
<path fill="none" stroke-width="3" stroke="#00ff00" d="M 526.667 484C 526.667 480.667 528 476.667 530.667 475.333C 539.333 468.667 550.667 462.667 560 466C 562 466.667 562 472.667 560.667 476C 559.333 480.667 552.667 482 548 480C 546.667 479.333 548.667 476 551.333 476.667"/>
<path fill="none" stroke-width="3" stroke="#00ff00" d="M 500 520C 498 516 496 510 490.667 509.333C 489.333 502 488.667 494 490.667 487.333C 491.333 486 496 485.333 497.333 487.333C 499.333 490 499.333 494 498 497.333C 498 497.333 496.667 497.333 495.333 497.333"/>
<path fill="none" stroke-width="3" stroke="#00ff00" d="M 504.667 609.333C 508.667 598.667 516.667 587.333 512.667 575.333C 511.333 570 503.333 567.333 498.667 570C 495.333 571.333 495.333 578.667 498 581.333C 499.333 582.667 503.333 582.667 506 581.333C 506.667 581.333 506.667 578 506 576.667C 505.333 576 503.333 576.667 502 576.667"/>
<path fill="none" stroke-width="3" stroke="#00ff00" d="M 538.667 620C 538.667 614 537.333 608 539.333 602.667C 540 600 542 596.667 545.333 594.667C 549.333 592.667 554 591.333 558 593.333C 563.333 596 563.333 604.667 561.333 610C 560.667 612.667 555.333 611.333 552 611.333C 552 608 551.333 604.667 552 601.333C 552 601.333 553.333 601.333 554 601.333"/>
<path fill="none" stroke-width="3" stroke="#00ff00" d="M 538.354 556.167C 550 553.333 562 548.667 565.333 537.333C 562 537.333 558 536.667 554.667 538C 554 538 554 540.667 554.667 542C 555.333 542 556.667 542 557.333 542"/>
<path fill="#7fff00" stroke-width="2" stroke="#00ff00" d="M 505.333 514.667C 503.448 509.01 502.667 502 509.333 499.333C 508.667 504 510.667 509.333 508.667 514C 506.667 513.333 506 516.667 505.333 514.667z"/>
<path fill="#7fff00" stroke-width="2" stroke="#00ff00" d="M 520 554.667C 514.667 552.667 509.333 551.333 504 553.333C 502 554 500.667 557.333 502.667 558.667C 504.667 561.333 509.333 560.667 512.667 559.333C 515.333 558.667 517.333 556.667 520 556L 520 554.667z"/>
<path fill="#7fff00" stroke-width="2" stroke="#00ff00" d="M 544.667 550C 539.333 545.333 536 539.333 540 533.333C 541.333 531.333 544 534 545.333 536C 547.333 540 548 546.667 544.667 550z"/>
<path fill="#7fff00" stroke-width="2" stroke="#00ff00" d="M 554.667 533.333C 554.667 530.667 552 528.667 552.667 526C 554 523.333 556.667 520.667 558.667 520C 562 518.667 562.667 525.333 561.333 528C 560.667 529.333 558.667 530.667 556.667 532"/>
<path fill="#7fff00" stroke-width="2" stroke="#00ff00" d="M 484.667 498C 484.667 491.963 478 492.667 473.333 490.667C 472.667 494 473.333 498 476 499.333C 478.667 500.667 481.333 500 484 500C 484 499.333 484.667 498.667 484.667 498z"/>
<path fill="#7fff00" stroke-width="2" stroke="#00ff00" d="M 486 480.667C 481.333 477.333 480.667 470.667 484 466.667C 485.333 464.667 487.333 468 488.667 470C 490.667 473.333 490 478 488 481.333"/>
<path fill="#7fff00" stroke-width="2" stroke="#00ff00" d="M 492.667 566C 490.667 560.667 485.333 562 480.667 562C 480 567.333 489.333 565.333 492.667 566z"/>
<path fill="#7fff00" stroke-width="2" stroke="#00ff00" d="M 484 550.667C 486 543.333 478 542 472.667 540.667C 470.667 548 478.667 548.667 484 548"/>
<path fill="#7fff00" stroke-width="2" stroke="#00ff00" d="M 484.667 520C 481.333 516.667 477.333 516.667 472.667 517.333C 472.667 517.333 472.667 519.333 472.667 520C 474.667 523.333 478 525.333 482 524C 483.333 523.333 486.667 522 484.667 520z"/>
<path fill="#7fff00" stroke-width="2" stroke="#00ff00" d="M 562 570.667C 564 570.667 567.333 570 568 571.333C 572 574.667 569.333 581.333 570 586.667C 568.667 586 567.333 585.333 566 584C 563.333 580.667 566.667 576 564 572.667C 563.333 572 563.333 570.667 562 570.667z"/>
<path fill="#7fff00" stroke-width="2" stroke="#00ff00" d="M 490 581.333C 490 575.333 481.333 573.333 478 575.333C 476.667 576 477.333 580.667 479.333 582C 482.667 583.333 486.667 582.667 490.667 582.667C 490.667 582 490 582 490 581.333z"/>
<path fill="#7fff00" stroke-width="2" stroke="#00ff00" d="M 540.667 488.667C 544.667 485.333 550 486.667 554.667 486.667C 556 487.333 557.333 488 556.667 490C 555.333 492.667 552.667 492 550.667 492.667C 546.667 494.667 542.667 490 538 490"/>
<path fill="#7fff00" stroke-width="2" stroke="#00ff00" d="M 535.333 465.333C 536 463.333 534 460.667 535.333 458.667C 536 457.333 539.333 458 542 458C 541.333 460.667 538.667 461.333 538 464"/>
<path fill="#7fff00" stroke-width="2" stroke="#00ff00" d="M 555.333 437.333C 555.333 434.667 558 433.333 558.667 431.333C 560.667 427.333 560 423.333 558 419.333C 557.333 419.333 555.333 419.333 555.333 419.333C 554 424.667 554.667 430 554.667 435.333"/>
<path fill="#7fff00" stroke-width="2" stroke="#00ff00" d="M 493.333 386C 493.333 377.89 502 377.333 508 378.667C 508 379.333 508 380.667 508 381.333C 506.667 384.667 503.333 385.333 501.333 386.667C 499.333 388 496.667 387.333 494 387.333C 494 387.333 493.333 386.667 493.333 386z"/>
<path fill="#7fff00" stroke-width="2" stroke="#00ff00" d="M 487.333 368C 487.333 366 488 364 487.333 363.333C 484.667 361.333 482 358 480.667 360.667C 477.333 364.667 482.667 367.333 487.333 368z"/>
<path fill="#7fff00" stroke-width="2" stroke="#00ff00" d="M 536.667 372C 538.113 371.638 539.333 374.667 541.333 376C 542 377.333 542 380 541.333 381.333C 540.667 382.667 539.333 384 537.333 383.333C 535.333 382.667 534 381.333 533.333 379.333C 532 376 534 372.667 536.667 372z"/>
<path fill="#7fff00" stroke-width="2" stroke="#00ff00" d="M 542.667 361.333C 545.333 361.333 548 362 550 360.667C 551.333 360 553.333 358 552 356C 550.667 354 548 354 546 355.333C 544.667 356.667 544 359.333 542.667 361.333z"/>
<path fill="#7fff00" stroke-width="2" stroke="#00ff00" d="M 540.667 318.667C 541.333 315.333 538.667 307.333 543.333 308.667C 544.667 309.333 546.667 314 544.667 315.333C 544 316.667 542.667 318 540.667 318.667z"/>
<path fill="#7fff00" stroke-width="2" stroke="#00ff00" d="M 521.333 314C 518 312 518 308.667 518.667 305.333C 519.333 304 522.667 303.333 524 304.667C 525.333 308.667 525.333 312.667 522.667 316"/>
<path fill="#7fff00" stroke-width="2" stroke="#00ff00" d="M 498 312.667C 494 310 490.667 308.667 486 309.333C 485.333 316.667 492.667 315.333 497.333 315.333"/>
<path fill="#7fff00" stroke-width="2" stroke="#00ff00" d="M 408 346C 408.667 342.667 406 340 406.667 336.667C 407.333 334.667 410 334 411.333 334.667C 413.333 337.333 414 340.667 413.333 344C 412.667 346 410 346.667 409.333 348.667"/>
<path fill="#7fff00" stroke-width="2" stroke="#00ff00" d="M 417.333 317.333C 417.333 312 414.667 304 421.333 302C 423.333 307.333 424 314 419.333 318"/>
<path fill="#7fff00" stroke-width="2" stroke="#00ff00" d="M 422 334C 422 332.667 420.667 332.667 420 332C 418.667 330.667 420 329.333 419.333 328C 420.667 327.333 422 326.667 424 326.667C 424 330 424 334 424 337.333"/>
<path fill="#7fff00" stroke-width="2" stroke="#00ff00" d="M 406.667 374.667C 403.333 370.667 404.667 366 404.667 362C 405.333 362.667 406 360.667 406.667 361.333C 410.667 365.333 412.667 370.667 410 376"/>
<path fill="#7fff00" stroke-width="2" stroke="#00ff00" d="M 446 353.333C 442.667 351.333 441.333 347.333 443.333 345.333C 450 340.667 448.667 351.333 448.667 356.667"/>
<path fill="#7fff00" stroke-width="2" stroke="#00ff00" d="M 471.333 351.333C 471.333 349.333 470 347.333 470.667 345.333C 472 343.333 473.333 342 475.333 341.333C 476 341.333 478 340.667 478 342C 478 344 479.333 345.333 478.667 347.333C 476.667 350 474.667 352 472 353.333"/>
<path fill="#7fff00" stroke-width="2" stroke="#00ff00" d="M 438.667 393.333C 437.333 391.333 434.667 391.333 434 389.333C 433.333 387.333 433.333 384.667 434.667 384C 436.667 382 439.333 385.333 440.667 388C 441.333 390.667 440.667 394 440.667 397.333"/>
<path fill="#7fff00" stroke-width="2" stroke="#00ff00" d="M 472 399.333C 471.333 395.333 474 391.333 478 390.667C 478.667 396 478 401.333 473.333 405.333"/>
<path fill="#7fff00" stroke-width="2" stroke="#00ff00" d="M 502.667 292.667C 498.667 291.333 498.667 287.333 499.333 284.667C 500 283.333 503.333 280.667 504 282.667C 506 284.667 506.667 288 506 291.333C 505.333 292.667 503.333 294 504 296"/>
<path fill="#7fff00" stroke-width="2" stroke="#00ff00" d="M 516 277.333C 509.333 276 511.333 268.667 511.333 264C 518 264 516.667 272.667 516.667 277.333L 516 277.333z"/>
<path fill="#7fff00" stroke-width="2" stroke="#00ff00" d="M 537.333 278C 537.333 276 536.667 274 537.333 272C 538.667 270 542 268.667 543.333 270.667C 544.667 271.333 544.667 274.667 544 276.667C 542.667 278.667 540.667 280 538 279.333C 538 279.333 537.333 278.667 537.333 278z"/>
<path fill="#7fff00" stroke-width="2" stroke="#00ff00" d="M 540 298C 537.333 294 543.333 291.333 546.667 293.333C 547.333 293.333 547.333 296 546.667 297.333C 544.667 298.667 541.333 300 540 298z"/>
<path fill="#7fff00" stroke-width="2" stroke="#00ff00" d="M 448 232C 445.333 228.667 441.333 229.333 437.333 229.333C 437.333 230.667 436.667 232 437.333 232.667C 440.667 234.667 444 234 448 234"/>
<path fill="#7fff00" stroke-width="2" stroke="#00ff00" d="M 450.667 220C 446 216.667 444 212 442.667 206.667C 442 205.333 444.667 206 445.333 206C 450 209.333 449.333 214.667 450.667 220z"/>
<path fill="#7fff00" stroke-width="2" stroke="#00ff00" d="M 472 232.667C 475.095 231.429 474.667 226.667 477.333 224.667C 478.667 228 479.333 232 478 234.667C 476.667 236.667 472.667 235.333 470 235.333C 470.667 234.667 468.667 234 472 232.667z"/>
<path fill="#7fff00" stroke-width="2" stroke="#00ff00" d="M 437.333 269.333C 435.333 272 433.333 276 434.667 279.333C 435.333 279.333 436.667 279.333 437.333 279.333C 441.333 276.667 439.333 272.667 437.333 269.333z"/>
<path fill="#7fff00" stroke-width="2" stroke="#00ff00" d="M 449.333 259.333C 448.667 260.667 448.667 264 450 264.667C 454.667 268 454.667 262 455.333 258.667C 453.333 258.667 450 258 449.333 259.333z"/>
<path fill="#7fff00" stroke-width="2" stroke="#00ff00" d="M 489.333 258C 484 257.333 484.667 252 485.333 248.667C 486 247.333 488.667 246.667 488.667 247.333C 491.333 250.667 492 254.667 490 258.667L 489.333 258z"/>
</g>
<g>
<path fill="none" stroke-width="6" stroke="#7f7f7f" d="M 404 56L 416 164L 438 164L 368 536L 302 534L 310 630C 310 630 500 608 522 606C 544 604 564 644 564 644L 578 634L 538.667 166.667L 554 166L 570.667 49.3333L 537.333 45.3333L 534 74L 504 74L 505.375 44.0417L 475.375 44.0417L 470 74L 447.333 74.6667L 440 48L 404 56z"/>
<path fill="none" stroke-width="6" stroke="#7f7f7f" d="M 455.574 272.25C 455.574 272.25 441.172 275.512 435 283.667C 428.828 291.821 431.914 339.933 431.914 339.933L 482.322 340.748C 482.322 340.748 481.293 295.083 476.149 286.929C 471.005 278.774 455.574 272.25 455.574 272.25z"/>
<path fill="none" stroke-width="6" stroke="#7f7f7f" d="M 527.093 381.453C 527.093 381.453 513.275 381.453 503.708 393.021C 494.142 404.588 500.52 458.571 500.52 458.571L 553.666 457.029C 553.666 457.029 554.298 415.218 548.351 402.275C 541.974 388.394 527.093 381.453 527.093 381.453z"/>
<path fill="none" stroke-width="6" stroke="#7f7f7f" d="M 510.171 174.248C 510.171 174.248 494.015 177.329 485.938 191.963C 477.86 206.597 485.04 245.107 485.04 245.107L 534.404 245.107C 534.404 245.107 533.587 209.17 529.019 194.273C 524.531 179.639 510.171 174.248 510.171 174.248z"/>
<path fill="none" stroke-width="4" stroke="#9f3f3f" d="M 508.31 193.718C 508.31 193.718 515.042 197.473 516.388 201.516C 517.734 205.56 516.725 209.603 516.725 209.603L 506.291 209.892C 506.291 209.892 506.291 205.56 503.598 202.672C 500.906 199.783 496.194 196.317 496.194 196.317"/>
<path fill="none" stroke-width="4" stroke="#9f3f3f" d="M 516.725 209.603C 516.725 209.603 520.764 232.421 519.754 234.732C 518.744 237.042 512.013 235.021 506.627 232.132C 501.242 229.244 501.242 211.914 501.242 211.914C 501.242 211.914 500.906 210.47 503.598 210.181"/>
<path fill="none" stroke-width="4" stroke="#7f0000" d="M 512.013 221.445L 505.618 219.713"/>
<path fill="none" stroke-width="4" stroke="#9f3f3f" d="M 500.569 220.29C 500.569 220.29 500.569 225.2 496.194 228.666C 491.818 232.132 486.77 232.71 486.77 232.71"/>
<path fill="none" stroke-width="4" stroke="#9f3f3f" d="M 494 242C 494 242 492.25 234.75 491.25 231.25C 490.25 227.75 486.75 226.75 486.75 226.75"/>
<path fill="none" stroke-width="4" stroke="#9f3f3f" d="M 464.333 300.667L 451 299.667L 440 324.667L 449.667 331.333L 459 323C 459 323 466.667 324 469 318.667C 471.333 313.333 473.333 302.667 473.333 302.667L 464.333 300.667z"/>
<path fill="none" stroke-width="4" stroke="#9f3f3f" d="M 456.667 295C 456.667 295 449 290 445.333 293.667C 441.667 297.333 440.333 301.667 440.333 301.667"/>
<path fill="none" stroke-width="4" stroke="#9f3f3f" d="M 470.667 297.667C 470.667 297.667 472.667 295.667 475.333 297.667C 478 299.667 478.333 302.667 477.667 306"/>
<path fill="none" stroke-width="4" stroke="#9f3f3f" d="M 470 300L 470.333 293L 458.333 291.333L 456 299"/>
<path fill="none" stroke-width="4" stroke="#9f3f3f" d="M 470.333 317L 477.667 321"/>
<path fill="none" stroke-width="4" stroke="#9f3f3f" d="M 467.667 322L 478.667 334.333"/>
<path fill="none" stroke-width="4" stroke="#9f3f3f" d="M 458 311L 465.333 310"/>
<path fill="none" stroke-width="6" stroke="#7f7f7f" d="M 527.333 408.667"/>
<path fill="none" stroke-width="4" stroke="#9f3f3f" d="M 522.75 404.75C 516.75 405 516.5 412 517.5 416.5C 517.5 416.75 518.25 417.75 519 418C 523 419.25 527 420.25 531 420C 534.75 417 536.5 412 534.75 407.5C 533.5 404.5 529.25 404.5 526 404.5"/>
<path fill="none" stroke-width="4" stroke="#9f3f3f" d="M 517.5 409.25C 516 409.25 514.25 409 513.75 410C 513 411.75 514 414.25 513.25 416C 512.75 416.75 511.25 416 510.25 415C 510 414.75 509.25 415 509 415C 508.75 415.75 508.75 416.75 509.25 417.5C 510 418.75 510.75 420 510 421C 509.25 422.5 506.75 420.5 506 422C 505.5 422.75 505.5 424 506 425C 506.25 425.5 507 425.5 507.75 426C 508.5 426.5 508 427.5 508 428.25C 507.25 428.25 506.75 428.25 506 428.25"/>
<path fill="none" stroke-width="4" stroke="#9f3f3f" d="M 522.5 411.5C 523.25 411.5 523.75 411.5 524.5 411.5"/>
<path fill="none" stroke-width="4" stroke="#9f3f3f" d="M 528.75 412C 529.5 412 530.25 412 531 412"/>
<path fill="none" stroke-width="4" stroke="#9f3f3f" d="M 534.75 408.25C 538 408.25 538 411.25 537.75 413.75C 539.5 414.25 541.75 413.25 543 414.25C 544.5 415.25 542.75 417 542.75 418.75C 544.25 418.75 546.25 418.25 547.25 419C 548 419.5 547.25 421.25 546.5 422.5C 546.25 423.25 546.25 424 546.5 424.75C 546.75 425 547.5 424.75 548 424.75"/>
<path fill="none" stroke-width="4" stroke="#9f3f3f" d="M 525.25 421.5C 524.75 424.75 524 427.75 523.25 431C 522.75 434.5 521.75 437.75 520.75 441.25C 519.25 446 517 450.75 515.75 455.5"/>
<path fill="none" stroke-width="4" stroke="#9f3f3f" d="M 522.25 437.75C 525.75 442 529 446.5 532.75 451C 533.5 451.75 534.25 453.25 534.25 454.5"/>
<path fill="none" stroke-width="4" stroke="#9f3f3f" d="M 518 452.5C 522 450.5 526.75 451.5 531 451.25"/>
<path fill="none" stroke-width="4" stroke="#9f3f3f" d="M 524.5 430.75L 534.75 432.75L 542 437"/>
<path fill="none" stroke-width="4" stroke="#9f3f3f" d="M 536.75 447.25C 539 445.25 541.25 443 541.75 440C 543 433.75 543.25 426.25 537.25 422.5"/>
<path fill="none" stroke-width="4" stroke="#9f3f3f" d="M 507.25 435L 523.25 426.75"/>
<path fill="none" stroke-width="1" stroke="#9f3f3f" d="M 538 424.75L 537 444.5"/>
<path fill="none" stroke-width="2" stroke="#9f3f3f" d="M 503.75 432.75L 503.75 428L 513.75 443"/>
<path fill="none" stroke-width="2" stroke="#9f3f3f" d="M 508 429.5L 503.75 428"/>
<path fill="none" stroke-width="2" stroke="#9f3f3f" d="M 510.25 438.75L 509.75 442.5L 512.75 447.25L 513.75 443.75L 517.25 443.25L 513.75 438L 510.25 438.75z"/>
<path fill="none" stroke-width="2" stroke="#9f3f3f" d="M 520.75 442.5L 521 450.75L 523.5 450.5L 525.25 441.75L 527 450.25"/>
</g>
<g>
<path fill="#7f7f7f" stroke="none" d="M 469 434L 474 425L 474 405L 462 396L 410 398L 378 406L 213 402L 183 397L 133 394L 122 398L 116 416L 116 428L 114 455L 115 468L 115 574L 117 583L 116 604L 112 613L 113 631L 118 645L 463 647L 473 638L 474 609L 471 603L 470 590L 474 579L 474 465L 469 457L 469 434z"/>
<path fill="#3f3f3f" stroke="none" d="M 400 563L 389 574L 404 581L 400 563z"/>
<path fill="#3f3f3f" stroke="none" d="M 405 638L 395 646L 411 644L 405 638z"/>
<path fill="#3f3f3f" stroke="none" d="M 189 564L 199 575L 189 583L 189 564z"/>
<path fill="#3f3f3f" stroke="none" d="M 130.562 402.375C 124.812 403.625 121.75 409.312 121.5 414.625C 120.688 433.062 123.188 451.062 124.812 469.5C 125.75 480.125 124.812 490.625 124.812 501.188C 124.875 510 129.438 518.25 128.062 527.125C 126.312 538.938 123.812 553.688 133.875 562.062C 134.875 565.562 138.562 567.562 142.062 566.562C 145.5 565.5 147.5 561.875 146.5 558.375C 147.125 556 148 553.625 148.125 551.25C 148.25 549.125 147.688 547 147.5 544.812C 146.938 538.562 148.812 532.688 149.062 526.562C 149.5 517.875 145.938 509.75 145.438 501.188C 144.562 486.25 145.562 471.75 142.812 456.625C 140.25 442.375 138.875 429.312 135.562 415.25C 135.188 413.75 133.188 412.938 132.812 411.688C 132.375 410.188 133.625 408.438 134.625 406.938C 135.938 405.625 135.875 403.5 134.5 402.188C 133.188 400.938 131.062 401 129.812 402.312L 130.562 402.375z"/>
<path fill="#3f3f3f" stroke="none" d="M 167 472.812C 165.25 494.125 163.5 515.375 163.688 536.688C 163.938 559.062 168.5 580.938 170.438 603.375C 171.5 615.25 168.875 627.188 163.375 637.562C 164.688 635.188 166.688 633.438 170.062 632.812C 165 632.188 160.375 635.875 159.75 641C 159.188 646.062 162.812 650.688 167.938 651.312C 175.5 653.75 181.062 646.375 182.875 639.875C 186 628.25 189.062 617.5 187.375 605.312C 184.125 581.875 179.562 559.875 177 536.562C 174.625 514.938 173.062 493.938 169 472.812C 169 472.25 168.562 471.812 168 471.812C 167.438 471.812 167 472.25 167 472.812L 167 472.812z"/>
<path fill="#bfbfbf" stroke="none" d="M 173.125 413.812C 169 439.25 172.312 465 170.875 490.688C 169.188 520.688 168.812 550.375 174.375 579.938C 174.375 581.375 175.562 582.562 177 582.562C 178.438 582.562 179.625 581.375 179.625 579.938C 182.75 558.125 185.312 536.25 185.375 514.25C 185.5 490.188 182.875 466.562 179.938 442.375C 178.688 432.625 178.688 422.875 174.875 413.812C 174.875 413.312 174.5 412.938 174 412.938C 173.5 412.938 173.125 413.312 173.125 413.812L 173.125 413.812z"/>
<path fill="#bfbfbf" stroke="none" d="M 123.125 520.25C 122.5 555.562 125.375 590.688 129.312 625.75C 129.625 628.5 132.125 630.438 134.875 630.125C 137.625 629.75 139.562 627.25 139.25 624.5C 135.312 589.562 127.25 555.25 124.875 520.125C 124.812 519.688 124.438 519.312 123.938 519.312C 123.5 519.375 123.125 519.75 123.125 520.25L 123.125 520.25z"/>
<path fill="#bfbfbf" stroke="none" d="M 204.562 522.312C 222.938 523.75 239.812 530.75 258.375 533.625C 290.688 538.562 321.938 541.625 353.938 539.5C 356.375 539.125 358 536.812 357.562 534.438C 357.188 532 354.938 530.375 352.5 530.75L 353.438 531.812C 326.562 532.125 299.938 531.062 273 528.812C 249.938 526.812 227.688 519.75 204.625 520.5C 204.125 520.438 203.688 520.875 203.688 521.375C 203.688 521.875 204.062 522.312 204.562 522.312L 204.562 522.312z"/>
<path fill="#bfbfbf" stroke="none" d="M 215.5 534.312C 224.188 544.5 234.688 551.938 246.312 559.812C 247.875 560.875 249.562 561.188 251.375 561.312C 253.812 561.562 255.938 559.812 256.188 557.438C 256.375 555 254.625 552.875 252.25 552.625L 252.312 553.188C 238.875 550.062 227.188 542.125 216.938 532.875C 216.5 532.5 215.875 532.5 215.438 532.875C 215.062 533.312 215.062 533.938 215.5 534.312L 215.5 534.312z"/>
<path fill="#bfbfbf" stroke="none" d="M 209.125 541.438C 210.188 547.312 211 553.25 212.812 559C 213.625 560.75 215.688 561.438 217.438 560.625C 219.125 559.812 219.875 557.75 219 556C 215.375 551.5 212.688 546.438 210.875 540.938C 210.75 540.438 210.25 540.188 209.75 540.312C 209.25 540.438 208.938 540.938 209.125 541.438L 209.125 541.438z"/>
<path fill="#3f3f3f" stroke="none" d="M 387.438 432.938C 377.062 449.875 371.375 469.125 368.438 488.5C 368.375 488.375 368.312 488.312 368.25 488.188C 366.75 491.938 368.5 496.188 372.25 497.75C 376 499.25 380.25 497.438 381.812 493.75C 382.438 492.625 383.25 491.625 383.5 490.438C 386.812 471.062 385.75 452.375 389 433.5C 389.125 433.062 388.938 432.562 388.5 432.438C 388.062 432.25 387.562 432.5 387.438 432.938L 387.438 432.938z"/>
<path fill="#3f3f3f" stroke="none" d="M 397.312 528.125C 391 539.938 387.25 552.875 382 565.125L 381.75 566.5L 383.688 562.062L 382.75 563L 395.312 566.812L 394.062 566.688C 393.625 564 391.812 561.812 389.312 560.875L 387.75 560.375C 385.125 559.25 382.25 558.625 379.562 559.25C 365.125 562.812 351.5 560.688 337.375 560C 316.562 564 295.438 565.25 274.375 567.25C 272.562 567.375 271.188 568.938 271.312 570.812C 271.438 572.625 273 574 274.875 573.875C 292.312 573.75 309.312 570.062 327.188 574.188C 330.875 575.062 334.562 574.062 338.312 574.562C 343.688 575.25 348.5 577.938 353.875 578.312C 363.5 578.875 372.938 576.875 382.25 574.625L 384.188 574.875C 385.5 575.375 386.938 575.438 388.312 575.125L 380.688 568.812C 385.312 569.625 389.875 570.438 394.438 571.25L 394.312 571.938C 395.438 570.688 396.125 569.125 396.25 567.438L 396.312 566.75C 400 554.312 399.438 541.5 399.062 528.625C 399.188 528.188 398.938 527.688 398.438 527.5C 397.938 527.375 397.438 527.688 397.312 528.125L 397.312 528.125z"/>
<path fill="#3f3f3f" stroke="none" d="M 250.25 644.562C 298.812 651.5 347.75 644.25 396.562 645.5L 398 645.75C 400.375 645.75 402.5 644.312 403.375 642.062L 402.875 642.625C 411.562 629.375 406.188 612.938 407 598.25C 407.375 596.688 406.375 595.188 404.812 594.812C 403.312 594.438 401.75 595.438 401.375 596.938C 395.312 606.812 396.688 618.625 396.125 629.688C 396.062 631.375 395.125 633 394.562 634.688L 392.625 637.938L 398 634.25L 395.25 634.25C 364.375 636.688 333.625 637.812 302.625 639.938C 286.375 641 270.312 640.812 254.062 641.5C 252.312 641.562 250.938 642.312 249.75 643.438C 249.438 643.625 249.312 643.938 249.438 644.25C 249.625 644.562 249.938 644.688 250.25 644.562L 250.25 644.562z"/>
<path fill="#3f3f3f" stroke="none" d="M 206.312 582.312C 229.188 583.75 251.875 587.875 274.875 587.938C 276.062 588 277.062 587.062 277.125 585.875C 277.125 584.688 276.188 583.688 275 583.625C 252.188 581.812 228.938 577.625 206.125 580.875C 205.688 580.938 205.438 581.312 205.5 581.688C 205.562 582.062 205.875 582.375 206.312 582.312L 206.312 582.312z"/>
<path fill="#3f3f3f" stroke="none" d="M 191.562 416.312C 183.188 443.438 185.938 471.875 187.562 499.75C 188.438 503.062 191.875 505.125 195.188 504.25C 198.562 503.375 200.562 499.938 199.688 496.625C 196.125 470 197.375 443.062 193.625 416.5C 193.688 415.938 193.25 415.438 192.688 415.375C 192.125 415.312 191.625 415.75 191.562 416.312L 191.562 416.312z"/>
<path fill="#3f3f3f" stroke="none" d="M 200.438 416.812C 198.062 435.75 195.812 454.688 197.062 473.875C 197.625 481.938 194.812 489.75 195.25 497.75C 195.25 498.188 195.875 498.562 196.25 499C 196.25 501.062 197.938 502.75 200 502.75C 202.062 502.75 203.75 501.062 203.75 499C 207.875 471.688 200.188 444.312 201.562 416.812C 201.562 416.5 201.312 416.188 201 416.188C 200.688 416.188 200.438 416.5 200.438 416.812L 200.438 416.812z"/>
<path fill="#3f3f3f" stroke="none" d="M 181.375 411.375C 181.188 434.25 177.188 456.812 177.812 479.812C 178.25 497 174.375 513.625 172.438 530.812C 168.562 566.312 169.312 601.062 168 636.312C 168 637 168.688 637.688 169.125 638.375C 169.125 641.062 171.25 643.312 173.938 643.312C 176.625 643.312 178.812 641.188 178.875 638.5L 179.688 637.5C 183 602.688 181.5 567.75 182.312 532.875C 182.625 518.5 185.875 504.25 185.75 489.938C 185.562 463.75 188.438 437.25 182.625 411.375C 182.625 411.062 182.375 410.75 182 410.75C 181.625 410.75 181.375 411.062 181.375 411.375L 181.375 411.375z"/>
<path fill="#3f3f3f" stroke="none" d="M 119.562 646.562C 130.312 649.125 142 653.312 152.875 649C 156.25 649 158.938 646.312 158.938 643C 158.938 639.688 156.25 637 152.875 637C 152.188 636.562 151.5 635.812 150.75 635.75C 146.812 635.562 143.5 638.125 139.625 638.812C 132.5 640.062 125.625 641.188 119.25 644.625C 118.688 644.688 118.312 645.188 118.438 645.75C 118.5 646.312 119 646.688 119.562 646.562L 119.562 646.562z"/>
<path fill="#3f3f3f" stroke="none" d="M 467.438 501.062C 460.125 526.688 456.938 553.125 455.062 579.625L 454.25 580.375L 461.688 574.75L 458.062 575.5C 456.75 575.938 455.625 576.75 454.438 577.438C 454.5 577.312 454.625 577.125 454.688 577C 450.25 577.625 447.188 581.75 447.875 586.188C 448.5 590.625 452.625 593.688 457.062 593C 458.562 592.75 460.062 592.438 461.562 592.188L 462.375 591.188C 466.375 591 469.75 587.875 470.125 583.812L 470.375 583.562C 472.938 556.125 467.438 528.812 468.938 501.312C 469.062 500.938 468.75 500.5 468.312 500.438C 467.938 500.375 467.5 500.625 467.438 501.062L 467.438 501.062z"/>
<path fill="#3f3f3f" stroke="none" d="M 466.375 606.062C 466 615.5 460.375 623.375 457.438 632.188C 456.812 634.125 456.688 636.062 456.562 638.062C 457.188 637.625 457.875 637.188 458.5 636.75C 455.562 638.25 454.5 641.875 456 644.75C 457.562 647.625 461.125 648.75 464 647.25L 468.938 645.625C 473.438 633.125 472.812 618.312 467.625 605.938C 467.625 605.562 467.25 605.312 466.938 605.375C 466.562 605.375 466.312 605.75 466.375 606.062L 466.375 606.062z"/>
<path fill="#3f3f3f" stroke="none" d="M 418.75 643.688C 430.438 648.438 442.688 650.062 455.25 649.562C 458.875 649.562 461.875 646.625 461.875 643C 461.875 639.375 458.875 636.438 455.25 636.438C 442.938 637.812 429.562 635.125 418.438 641.5C 417.875 641.562 417.438 642.125 417.5 642.75C 417.562 643.375 418.125 643.75 418.75 643.688L 418.75 643.688z"/>
<path fill="#3f3f3f" stroke="none" d="M 457.625 431.625C 460.438 431.312 463.25 432.25 466.062 431.312L 468.125 431.438C 468.625 431.25 469.062 431 469.438 430.625L 470.188 430.062C 470.688 429.625 471 429 471.188 428.375L 471.438 427.5C 474.562 423.25 475.188 417.875 476.188 412.875C 476.688 410.5 475.125 408.25 472.75 407.75C 470.375 407.312 468.062 408.875 467.625 411.188L 468.688 410.812C 465.875 414.625 466.875 419.5 465.125 423.625L 464 426.375L 465.062 424.625L 464.438 425.375L 466.562 424.375L 464.438 424.688C 462.125 426.688 459.688 428.562 457.188 430.375C 456.875 430.5 456.688 430.875 456.812 431.188C 456.875 431.562 457.25 431.75 457.625 431.625L 457.625 431.625z"/>
<path fill="#3f3f3f" stroke="none" d="M 464.375 469.312C 462.188 489.375 455.312 510.25 463.875 530C 464.062 531.75 465.688 532.938 467.438 532.688C 469.125 532.5 470.375 530.875 470.125 529.125C 472.875 522.312 467.25 514.812 466 507.5C 463.75 494.562 465.625 482.188 465.625 469.5C 465.688 469.188 465.438 468.875 465.125 468.812C 464.75 468.75 464.438 468.938 464.375 469.312L 464.375 469.312z"/>
<path fill="#bfbfbf" stroke="none" d="M 413.375 415.812C 411.625 456.125 409.75 496.312 408.438 536.625C 410.875 556.5 410.188 576.562 412.438 596.438C 412.625 598.062 414.125 599.25 415.75 599.062C 417.375 598.875 418.562 597.375 418.375 595.75C 419.562 576.062 416.562 556.438 416.25 536.812C 415.625 496.438 415.312 456.188 414.625 415.812C 414.625 415.438 414.375 415.188 414 415.188C 413.625 415.188 413.375 415.438 413.375 415.812L 413.375 415.812z"/>
<path fill="#bfbfbf" stroke="none" d="M 462.625 408.375C 460.125 413.688 455.438 417.5 453.062 422.875C 452.688 423.562 452.875 424.375 453.562 424.75C 454.188 425.188 455 424.938 455.438 424.312C 459.312 419.75 461.688 414.312 463.812 408.812C 463.938 408.5 463.75 408.125 463.438 408C 463.125 407.875 462.75 408.062 462.625 408.375L 462.625 408.375z"/>
<path fill="#bfbfbf" stroke="none" d="M 454.812 405.812C 450.812 407.812 446.562 409.25 442.438 410.875C 441.312 411.375 440.875 412.688 441.375 413.812C 441.938 414.938 443.25 415.375 444.312 414.875C 448.312 412.75 451.75 409.688 455.625 407.375C 456.062 407.125 456.188 406.625 456 406.188C 455.75 405.75 455.188 405.625 454.812 405.812L 454.812 405.812z"/>
<path fill="#bfbfbf" stroke="none" d="M 459.062 463.5C 467.25 471.188 463.688 483.062 462.438 492.812C 461.938 496.75 460.875 500.75 462.375 504.75C 462.375 506.188 463.562 507.312 465 507.312C 466.438 507.375 467.562 506.188 467.625 504.75C 468.25 490.875 474.75 471.062 459.688 462.5C 459.438 462.375 459.125 462.438 458.938 462.688C 458.75 462.938 458.812 463.312 459.062 463.5L 459.062 463.5z"/>
<path fill="#bfbfbf" stroke="none" d="M 457.75 575.125C 460 565.938 462 556.625 464.062 547.375C 464.188 546.875 463.875 546.438 463.438 546.312C 462.938 546.188 462.438 546.5 462.312 546.938C 460.375 556.25 458.562 565.562 456.625 574.875C 456.562 575.188 456.75 575.5 457.062 575.562C 457.375 575.625 457.688 575.438 457.75 575.125L 457.75 575.125z"/>
<path fill="#bfbfbf" stroke="none" d="M 458.812 611.25C 460.438 612.125 461.062 614.188 462.938 614.812C 463.438 615.125 464.125 614.938 464.438 614.438C 464.75 613.938 464.562 613.312 464.062 613C 462.375 612.375 460.938 611.438 459.562 610.312C 459.312 610.125 458.938 610.188 458.75 610.438C 458.5 610.688 458.562 611.062 458.812 611.25L 458.812 611.25z"/>
<path fill="#bfbfbf" stroke="none" d="M 458.188 620.562C 458.938 623.5 458.25 626.688 459.625 629.5C 460 630.25 460.875 630.5 461.625 630.125C 462.312 629.75 462.625 628.875 462.25 628.125C 460 625.938 461 622.688 459.438 620.25C 459.375 619.875 459 619.688 458.625 619.75C 458.312 619.875 458.062 620.188 458.188 620.562L 458.188 620.562z"/>
<path fill="#bfbfbf" stroke="none" d="M 212.062 425.938C 215.562 443 217.875 460.375 218.875 477.75C 218.938 478.25 219.375 478.688 219.938 478.625C 220.438 478.625 220.875 478.188 220.812 477.625C 219.25 460.188 216.75 442.812 213.125 425.688C 213.062 425.438 212.75 425.25 212.5 425.312C 212.188 425.375 212 425.625 212.062 425.938L 212.062 425.938z"/>
<path fill="#bfbfbf" stroke="none" d="M 220.688 415.312C 228.188 416.938 235.625 418.875 243.062 420.75C 243.812 420.938 244.562 420.5 244.75 419.75C 244.938 419 244.5 418.25 243.75 418.062C 236.25 416.188 228.562 415.188 220.938 413.875C 220.5 413.812 220.125 414.062 220.062 414.438C 220 414.875 220.25 415.25 220.688 415.312L 220.688 415.312z"/>
<path fill="#bfbfbf" stroke="none" d="M 252.375 413.75C 269.375 415.625 286.438 415.562 303.562 414.688C 323.312 413.688 342.562 406.25 362.5 411.938C 363.5 412.25 364.75 412.438 365.562 411.25C 367.062 411.25 368.312 410.062 368.312 408.562C 368.312 407.062 367.125 405.875 365.625 405.875C 350.375 400.375 335.25 405.875 319.688 408.125C 296.938 411.438 274.938 413.188 252.438 412.25C 252.062 412.25 251.688 412.562 251.688 412.938C 251.625 413.375 251.938 413.688 252.375 413.75L 252.375 413.75z"/>
<path fill="#bfbfbf" stroke="none" d="M 216.375 508C 235.938 509.375 255.438 507.5 275 507.438C 305.375 507.312 336.125 500.375 366.25 505.938C 367.375 506.125 368.438 505.375 368.625 504.25C 368.812 503.188 368.062 502.125 366.938 501.938C 336.438 497.125 305.625 503.562 275 504.438C 255.438 505 236 507.5 216.438 506.812C 216.125 506.812 215.812 507.062 215.812 507.375C 215.812 507.688 216.062 508 216.375 508L 216.375 508z"/>
<path fill="#bfbfbf" stroke="none" d="M 305.625 511.75C 325.688 512.312 345.812 512 365.75 514.938C 366.812 515 367.75 514.25 367.875 513.188C 368 512.125 367.188 511.188 366.125 511.062C 346 508.625 325.812 509.938 305.625 510.25C 305.188 510.25 304.875 510.625 304.875 511C 304.875 511.375 305.188 511.75 305.625 511.75L 305.625 511.75z"/>
<path fill="#bfbfbf" stroke="none" d="M 119.812 410.875C 121.5 433.188 123.625 455.438 126.312 477.625C 126.375 478.5 127.125 479.188 128.062 479.188C 128.938 479.125 129.688 478.375 129.625 477.438C 127.125 455.125 123.125 433.062 121 410.75C 120.938 410.375 120.688 410.125 120.312 410.188C 120 410.25 119.75 410.562 119.812 410.875L 119.812 410.875z"/>
<path fill="#bfbfbf" stroke="none" d="M 115 496.625C 115.562 504.938 114.312 513.25 115.688 521.562C 115.688 521.938 116.062 522.25 116.438 522.188C 116.812 522.125 117.062 521.75 117.062 521.375C 116 513.125 116.875 504.812 116.25 496.562C 116.25 496.25 115.938 495.938 115.562 496C 115.25 496 114.938 496.25 115 496.625L 115 496.625z"/>
<path fill="#bfbfbf" stroke="none" d="M 132.125 403.5C 138.188 404.688 144.062 406.375 150.125 407.562C 150.562 407.688 150.938 407.375 151 407C 151.062 406.625 150.812 406.25 150.438 406.125C 144.312 405.438 138.375 403.5 132.312 402.5C 132 402.438 131.75 402.625 131.688 402.875C 131.625 403.188 131.812 403.438 132.125 403.5L 132.125 403.5z"/>
<path fill="#bfbfbf" stroke="none" d="M 139.5 420.938C 141.5 424.438 144 427.625 146 431.188C 146.25 431.562 146.812 431.688 147.25 431.438C 147.625 431.188 147.75 430.625 147.5 430.188C 145.25 426.812 142.75 423.625 140.5 420.25C 140.312 420 139.938 419.875 139.688 420.125C 139.375 420.312 139.312 420.688 139.5 420.938L 139.5 420.938z"/>
<path fill="#bfbfbf" stroke="none" d="M 119.188 621.812C 119.625 616.625 119.625 611.5 120 606.312C 120 605.688 119.5 605.188 118.875 605.188C 118.312 605.125 117.75 605.625 117.75 606.25C 117.75 611.438 117.438 616.562 117.625 621.75C 117.625 622.188 117.938 622.562 118.375 622.562C 118.812 622.562 119.188 622.25 119.188 621.812L 119.188 621.812z"/>
<path fill="#bfbfbf" stroke="none" d="M 119.312 577.688C 117.938 569.938 117.188 562.062 115.938 554.312C 115.688 553.5 114.812 553.062 114 553.312C 113.188 553.562 112.688 554.438 112.938 555.25C 114.875 562.75 115.812 570.438 117.875 577.938C 117.938 578.312 118.312 578.625 118.75 578.5C 119.125 578.438 119.375 578.062 119.312 577.688L 119.312 577.688z"/>
<path fill="#bfbfbf" stroke="none" d="M 121.875 573.938C 121.625 571.375 121.375 568.875 121.25 566.312C 121.188 565.875 120.812 565.562 120.375 565.562C 119.938 565.625 119.562 566 119.625 566.438C 119.875 569 120.188 571.5 120.562 574.062C 120.562 574.438 120.938 574.688 121.25 574.688C 121.625 574.625 121.938 574.312 121.875 573.938L 121.875 573.938z"/>
<path fill="#bfbfbf" stroke="none" d="M 122.875 548.5C 123.688 556.688 122.188 564.5 124.188 572.938C 125.062 576.688 122.75 580.25 123.812 584C 123.812 585.188 124.812 586.188 126 586.188C 127.188 586.188 128.188 585.188 128.188 584C 128.125 571.938 124.812 560.25 123.875 548.312C 123.875 548.062 123.625 547.875 123.312 547.875C 123.062 547.938 122.875 548.188 122.875 548.5L 122.875 548.5z"/>
<path fill="#3f3f3f" stroke="none" d="M 125.188 597.062C 125.125 608.562 125.5 619.688 128 631.375C 129.25 637.25 133.625 641.25 135 646.812C 135 647.375 135.5 647.75 136.062 647.75C 136.625 647.688 137.062 647.25 137 646.688C 137.125 640.5 138.562 634.375 137.875 628.312C 136.688 617 132.438 606.375 126.812 596.562C 126.625 596.125 126.188 595.875 125.75 596C 125.312 596.125 125.062 596.625 125.188 597.062L 125.188 597.062z"/>
<path fill="#3f3f3f" stroke="none" d="M 219.625 527.875C 222.75 529.625 226.312 530.312 229.75 531.062C 255.312 536.875 279.375 543.5 304.938 544C 306.625 544 308 542.688 308 541C 308 539.375 306.688 538 305 538C 276.375 537.438 247.75 533.75 220 526.938C 219.75 526.812 219.438 526.938 219.312 527.188C 219.25 527.5 219.375 527.75 219.625 527.875L 219.625 527.875z"/>
<path fill="#3f3f3f" stroke="none" d="M 221.625 537.375C 230.188 546.688 239.875 559.812 254.25 557.875C 255.812 557.875 257.125 556.562 257.125 555C 257.125 553.438 255.812 552.125 254.25 552.125C 241.75 551.938 231.438 544.438 222.375 536.625C 222.188 536.438 221.812 536.438 221.625 536.625C 221.438 536.812 221.438 537.188 221.625 537.375L 221.625 537.375z"/>
<path fill="#3f3f3f" stroke="none" d="M 211.25 545.438C 212.062 551 215.125 555.75 216.625 561.062C 216.875 561.75 217.562 562.062 218.25 561.875C 218.875 561.625 219.25 560.875 219 560.25C 217.125 555.062 214.312 550.25 212.75 544.938C 212.625 544.562 212.188 544.312 211.75 544.438C 211.312 544.562 211.125 545 211.25 545.438L 211.25 545.438z"/>
<path fill="#3f3f3f" stroke="none" d="M 240.188 508.375C 255.875 509.5 271.625 509.5 287.375 510.562C 288.25 510.562 288.938 509.875 288.938 509C 288.938 508.125 288.25 507.438 287.375 507.438C 271.688 507 255.938 508.125 240.25 507.188C 239.938 507.188 239.625 507.438 239.625 507.75C 239.562 508.062 239.812 508.375 240.188 508.375L 240.188 508.375z"/>
<path fill="#3f3f3f" stroke="none" d="M 317.75 516.062C 333.062 517.875 348.562 517.938 363.875 516.5C 365.188 516.188 366 514.938 365.688 513.625C 365.438 512.312 364.125 511.5 362.875 511.812C 348.125 514.938 332.938 515.375 317.875 514.75C 317.5 514.688 317.188 514.938 317.125 515.312C 317.125 515.688 317.375 516 317.75 516.062L 317.75 516.062z"/>
<path fill="#3f3f3f" stroke="none" d="M 216.688 441.688C 217.438 450.562 219.375 459.25 220.812 468C 221 468.625 221.562 469 222.188 468.875C 222.812 468.688 223.188 468.125 223.062 467.5C 220.375 459.062 218.812 450.312 217.75 441.562C 217.688 441.25 217.438 441.062 217.125 441.062C 216.812 441.125 216.625 441.375 216.688 441.688L 216.688 441.688z"/>
<path fill="#3f3f3f" stroke="none" d="M 270.625 419.562C 295.438 420 320.062 416.062 344.875 417.125C 346 417.125 346.938 416.125 346.938 415C 346.938 413.812 346 412.875 344.812 412.875C 320.062 414.625 295.438 417.938 270.625 418.438C 270.312 418.438 270.062 418.688 270.062 419C 270.062 419.312 270.312 419.562 270.625 419.562L 270.625 419.562z"/>
<path fill="#3f3f3f" stroke="none" d="M 446.375 415.312C 448.125 415.062 449.688 414.375 451.125 413.375C 451.5 413.188 451.625 412.75 451.375 412.375C 451.188 412 450.688 411.875 450.375 412.125C 449.062 413.125 447.688 413.938 446.062 414.25C 445.75 414.375 445.562 414.688 445.688 414.938C 445.75 415.25 446.062 415.438 446.375 415.312L 446.375 415.312z"/>
<path fill="#3f3f3f" stroke="none" d="M 412.625 520.75C 410.062 543.75 410.875 566.875 413.438 589.812C 413.5 590.25 413.938 590.562 414.375 590.562C 414.812 590.5 415.125 590.062 415.062 589.625C 412.625 566.812 411.5 543.812 413.75 520.875C 413.812 520.5 413.562 520.25 413.25 520.25C 412.938 520.188 412.625 520.438 412.625 520.75L 412.625 520.75z"/>
<path fill="#3f3f3f" stroke="none" d="M 411.875 498.375C 410.125 521.5 409.625 544.375 412.25 567.75C 413.938 582.375 418.125 596.312 417.562 611.062C 417.5 612.812 418 614.688 419.562 616C 420.375 617.875 422.625 618.688 424.438 617.812C 426.312 617 427.125 614.812 426.312 612.938C 427.25 590.75 418.375 570 416.125 547.75C 414.438 531.188 413 514.938 413.312 498.438C 413.312 498 413 497.688 412.625 497.688C 412.25 497.688 411.875 498 411.875 498.375L 411.875 498.375z"/>
<path fill="#3f3f3f" stroke="none" d="M 461.188 494.75C 460.375 501.625 459.625 508.562 458.75 515.438C 458.688 516.188 459.25 516.812 459.938 516.812C 460.625 516.875 461.25 516.375 461.312 515.625C 461.25 508.688 461.875 501.812 462.438 494.875C 462.5 494.5 462.188 494.188 461.875 494.188C 461.5 494.125 461.188 494.375 461.188 494.75L 461.188 494.75z"/>
<path fill="#3f3f3f" stroke="none" d="M 466.188 499.438C 464.812 505.688 463.062 511.812 462.688 518.25C 462.625 519.062 463.188 519.75 464 519.812C 464.75 519.875 465.438 519.25 465.5 518.438C 466.375 512.25 466.312 505.938 467.438 499.75C 467.5 499.375 467.312 499.062 466.938 498.938C 466.562 498.875 466.25 499.125 466.188 499.438L 466.188 499.438z"/>
<path fill="#3f3f3f" stroke="none" d="M 461.562 613.375C 461.562 613.75 461.875 614.062 462.188 614.062C 462.562 614.062 462.812 613.75 462.812 613.375C 462.812 613.062 462.562 612.75 462.188 612.75C 461.875 612.75 461.562 613.062 461.562 613.375L 461.562 613.375z"/>
<path fill="#3f3f3f" stroke="none" d="M 144 404.688C 147.25 406 150.625 406.875 153.688 408.562C 154 408.75 154.375 408.625 154.562 408.312C 154.688 407.938 154.562 407.562 154.25 407.438C 151.125 405.75 147.75 404.812 144.375 403.75C 144.125 403.625 143.812 403.75 143.75 404C 143.625 404.312 143.75 404.562 144 404.688L 144 404.688z"/>
<path fill="#3f3f3f" stroke="none" d="M 149.125 427.812C 149.125 428.062 149.312 428.312 149.625 428.312C 149.875 428.312 150.125 428.062 150.125 427.812C 150.125 427.5 149.875 427.312 149.625 427.312C 149.312 427.312 149.125 427.5 149.125 427.812L 149.125 427.812z"/>
<path fill="#3f3f3f" stroke="none" d="M 132.062 569.562C 136.375 587.562 139.938 605.625 143.188 623.875C 143.312 624.312 143.812 624.5 144.25 624.375C 144.688 624.188 144.938 623.688 144.75 623.25C 143.312 604.75 137.188 587.25 133.125 569.25C 133.062 568.938 132.75 568.812 132.438 568.875C 132.188 568.938 132 569.25 132.062 569.562L 132.062 569.562z"/>
<path fill="#3f3f3f" stroke="none" d="M 275.438 606.562C 295.438 605.875 315.688 606.688 335.5 603.188C 336 603.062 336.312 602.5 336.125 601.938C 336 601.438 335.438 601.125 334.875 601.312C 315.312 605.375 295.188 604.312 275.375 605.438C 275.062 605.438 274.812 605.688 274.812 606C 274.812 606.312 275.125 606.562 275.438 606.562L 275.438 606.562z"/>
<path fill="#3f3f3f" stroke="none" d="M 363.375 588.312C 369.875 586.75 376.25 584.5 383 583.812C 383.5 583.812 383.812 583.375 383.812 582.938C 383.75 582.5 383.375 582.125 382.875 582.188C 375.938 582.188 369.625 585.5 363.062 587.25C 362.75 587.375 362.562 587.688 362.688 587.938C 362.75 588.25 363.062 588.438 363.375 588.312L 363.375 588.312z"/>
<path fill="#3f3f3f" stroke="none" d="M 345.188 623.875C 359.625 612.75 375.188 603.188 388.812 591C 389.375 590.5 389.438 589.688 388.938 589.125C 388.5 588.562 387.625 588.5 387.062 589C 373.562 601.188 358.5 611.312 344.438 622.875C 344.125 623.125 344.062 623.5 344.312 623.75C 344.5 624.062 344.875 624.125 345.188 623.875L 345.188 623.875z"/>
<path fill="#3f3f3f" stroke="none" d="M 386.688 607.875C 386.75 611.25 386.875 614.688 386.625 618.062C 386.688 618.812 387.312 619.375 388 619.312C 388.75 619.312 389.312 618.688 389.25 617.938C 388.812 614.562 388.5 611.125 388.125 607.75C 388.062 607.375 387.75 607.062 387.375 607.062C 386.938 607.125 386.688 607.438 386.688 607.875L 386.688 607.875z"/>
<path fill="#3f3f3f" stroke="none" d="M 377.5 613.625C 377.5 614 377.812 614.312 378.188 614.312C 378.562 614.312 378.875 614 378.875 613.625C 378.875 613.25 378.562 612.938 378.188 612.938C 377.812 612.938 377.5 613.25 377.5 613.625L 377.5 613.625z"/>
</g>
<g>
<path fill="#bfdfff" stroke="none" d="M 145.5 711.5L 144 452L 103.5 450.5L 102 432.5L 162.333 432.333L 164.333 711.667L 145.5 711.5z"/>
<path fill="#bfdfff" stroke="none" d="M 145.667 585.333L 101.333 585.667L 102.333 596L 145.333 598L 145.667 585.333z"/>
<path fill="#bfdfff" stroke="none" d="M 114.667 650L 115.333 667.333L 477.333 668L 476.667 649L 114.667 650z"/>
<path fill="#bfdfff" stroke="none" d="M 490 436L 430 436L 430 708L 449 709L 449 603L 488 602L 487 591L 450 592L 448 455L 489 455L 490 436z"/>
<path fill="#7fbfff" stroke="none" d="M 154.5 478.062C 155.562 483.312 155.625 488.688 156.5 494C 156.5 494.25 156.75 494.5 157 494.438C 157.312 494.438 157.5 494.188 157.5 493.938C 156.688 488.625 156.625 483.188 155.5 477.938C 155.438 477.625 155.188 477.438 154.938 477.5C 154.625 477.562 154.438 477.812 154.5 478.062L 154.5 478.062z"/>
<path fill="#7fbfff" stroke="none" d="M 155.5 517.375C 153.688 544.125 156.688 570.688 156.875 597.5C 156.875 598.125 157.375 598.688 158 598.688C 158.625 598.688 159.125 598.125 159.125 597.5C 161.125 570.75 156.688 544.125 156.5 517.375C 156.5 517.125 156.25 516.875 156 516.875C 155.75 516.875 155.5 517.125 155.5 517.375L 155.5 517.375z"/>
<path fill="#7fbfff" stroke="none" d="M 154.812 619.062C 155.562 648.375 155 677.688 155 707C 155 708.125 155.875 709 157 709C 158.125 709 159 708.125 159 707C 158.875 677.625 159.625 648.188 156 618.938C 155.938 618.625 155.688 618.375 155.375 618.438C 155.062 618.438 154.812 618.75 154.812 619.062L 154.812 619.062z"/>
<path fill="#7fbfff" stroke="none" d="M 155.5 451C 155.438 454.438 155.312 457.812 156.25 461.188C 156.375 461.562 156.75 461.75 157.062 461.688C 157.438 461.562 157.625 461.25 157.562 460.875C 156.5 457.688 156.375 454.312 156.5 451C 156.5 450.75 156.25 450.5 156 450.5C 155.75 450.5 155.5 450.75 155.5 451L 155.5 451z"/>
<path fill="#7fbfff" stroke="none" d="M 113.062 591.25C 118.875 591.312 124.5 588.812 130.375 589.5C 131.188 589.438 131.875 588.812 131.812 588C 131.812 587.188 131.125 586.562 130.312 586.562C 124.25 586.125 118.875 589.688 112.938 589.938C 112.625 590 112.312 590.312 112.375 590.625C 112.375 591 112.688 591.25 113.062 591.25L 113.062 591.25z"/>
<path fill="#7fbfff" stroke="none" d="M 124 661.5C 129.688 662.312 135.562 661.625 141.062 663.75C 142.062 664.25 143.25 663.875 143.75 662.875C 144.25 661.938 143.875 660.688 142.875 660.25C 142.25 659.688 141.5 658.625 141 658.75C 135.188 659.625 129.625 659.875 124 660.5C 123.75 660.5 123.5 660.75 123.5 661C 123.5 661.25 123.75 661.5 124 661.5L 124 661.5z"/>
<path fill="#7fbfff" stroke="none" d="M 165.812 662.562C 175.438 663.125 184.938 665.375 194.5 665.438C 247 665.562 299.375 667.562 351.812 667.75C 365.438 667.812 379 665.625 392.75 666.688C 396.062 667 399.438 667.688 402.812 668C 409.875 668.75 416.938 668.938 424 668.312C 425.812 668.312 427.312 666.875 427.312 665C 427.312 663.188 425.812 661.688 424 661.688C 400.312 661.688 376.688 656.875 353.125 661.75C 304.188 663.188 255.25 661.5 206.25 662.625C 202.438 662.688 198.562 663.562 194.75 663.438C 185.062 663.188 175.5 661.625 165.812 661.438C 165.5 661.438 165.25 661.688 165.25 662C 165.25 662.312 165.5 662.562 165.812 662.562L 165.812 662.562z"/>
<path fill="#7fbfff" stroke="none" d="M 452.312 663.125C 458.312 664.125 463.938 666.5 469.75 668.188C 472.062 668.188 474 666.312 474 664C 474 661.688 472.125 659.812 469.812 659.812L 469.938 660.5C 464.062 659.938 458.25 661.312 452.438 661.688C 452.062 661.625 451.688 661.938 451.688 662.312C 451.625 662.75 451.938 663.125 452.312 663.125L 452.312 663.125z"/>
<path fill="#7fbfff" stroke="none" d="M 448.438 449C 461.562 455.5 477.25 454.125 491.25 452.625C 492.75 452.5 493.812 451.188 493.625 449.75C 493.5 448.25 492.188 447.188 490.688 447.375C 476.875 448.875 462.938 449.125 449.125 447.812C 448.812 447.625 448.375 447.75 448.188 448.062C 448 448.375 448.125 448.812 448.438 449L 448.438 449z"/>
<path fill="#7fbfff" stroke="none" d="M 439 457.75C 435 469.188 434.875 481.25 435.125 493.25C 435.125 494.375 434.062 496.25 436.562 496.25C 436.875 497 437.75 497.375 438.5 497.125C 439.25 496.812 439.625 495.938 439.312 495.188C 438.562 482.75 437.875 470.188 440.188 457.875C 440.25 457.562 440 457.25 439.688 457.188C 439.312 457.188 439.062 457.438 439 457.75L 439 457.75z"/>
<path fill="#7fbfff" stroke="none" d="M 438.312 527.625C 437.562 549.5 434.438 571.188 434.562 593.062C 434.562 593.875 435.188 594.5 436 594.5C 436.812 594.5 437.438 593.875 437.438 593.062C 439 571.25 440.375 549.5 439.688 527.625C 439.688 527.25 439.375 526.938 439 526.938C 438.625 526.938 438.312 527.25 438.312 527.625L 438.312 527.625z"/>
<path fill="#7fbfff" stroke="none" d="M 436.188 609.188C 435.938 614.5 434.75 619.75 435.312 625.125C 435.312 626.062 436.062 626.812 437 626.812C 437.938 626.812 438.688 626.062 438.688 625.125C 439.312 619.75 438.125 614.5 437.812 609.188C 437.812 608.75 437.438 608.375 437 608.375C 436.562 608.375 436.188 608.75 436.188 609.188L 436.188 609.188z"/>
<path fill="#7fbfff" stroke="none" d="M 435.688 646.062C 435.875 655.438 435.438 664.75 434.875 674.125C 434.375 682.625 436.938 690.688 435.312 699.438C 435.062 700.875 435.25 702.5 436.562 703.625C 436.938 704.438 437.875 704.75 438.625 704.375C 439.438 704 439.75 703.062 439.438 702.312C 439.875 683.438 438.938 664.688 437.125 645.938C 437.125 645.562 436.75 645.25 436.375 645.25C 435.938 645.312 435.625 645.625 435.688 646.062L 435.688 646.062z"/>
<path fill="#7fbfff" stroke="none" d="M 114.688 445.625C 124.375 444.688 133.938 446.188 143.562 446.562C 144.375 446.562 145.062 445.875 145.062 445C 145.062 444.125 144.375 443.438 143.562 443.438C 133.875 442.375 124.062 441.812 114.5 444.375C 114.188 444.438 113.938 444.75 114 445.062C 114 445.438 114.312 445.688 114.688 445.625L 114.688 445.625z"/>
<path fill="#ffffff" stroke="none" d="M 108.5 439.438C 120.938 444.125 134.812 442.312 147.688 440.688C 150.25 440.688 152.375 438.625 152.375 436C 152.375 433.375 150.25 431.312 147.625 431.312L 148.188 431.938C 147.438 431.438 146.688 430.625 145.938 430.688C 134.438 431.188 123.375 430.875 111.562 433.312C 109.938 433.625 108.562 434.438 107.375 435.5C 106.562 435.5 105.938 436.188 105.938 437C 105.938 437.812 106.562 438.5 107.375 438.5L 108.5 439.438z"/>
<path fill="#ffffff" stroke="none" d="M 111 590.625C 117.312 590.5 123.625 591.562 129.938 590.812C 130.625 590.75 131.125 590.125 131 589.438C 130.875 588.75 130.25 588.25 129.562 588.375C 123.438 589.5 117.188 589 111 589.375C 110.688 589.375 110.375 589.688 110.375 590C 110.375 590.312 110.688 590.625 111 590.625L 111 590.625z"/>
<path fill="#ffffff" stroke="none" d="M 148.438 478C 146.938 493.625 146.688 509.188 148.688 524.812C 148.75 525.5 149.312 526.062 150 526C 150.688 526 151.25 525.438 151.25 524.75C 150.188 509.125 150.125 493.625 149.562 478C 149.562 477.688 149.312 477.438 149 477.438C 148.688 477.438 148.438 477.688 148.438 478L 148.438 478z"/>
<path fill="#ffffff" stroke="none" d="M 147.75 605.25C 149.312 623.812 150.688 642.375 149.312 661C 149.062 662.125 149.75 663.25 150.875 663.562C 152 663.812 153.125 663.125 153.375 662C 156.938 642.812 152.188 623.938 149.062 605.188C 149.062 604.812 148.75 604.5 148.375 604.562C 148 604.562 147.688 604.875 147.75 605.25L 147.75 605.25z"/>
<path fill="#ffffff" stroke="none" d="M 191.938 652.5C 212.562 656.188 233.625 653.875 254.438 655.812C 254.938 655.875 255.438 655.438 255.438 654.938C 255.5 654.375 255.062 653.938 254.5 653.875C 233.688 651.125 212.688 655.812 192.062 651.5C 191.812 651.438 191.562 651.625 191.5 651.938C 191.438 652.188 191.625 652.438 191.938 652.5L 191.938 652.5z"/>
<path fill="#ffffff" stroke="none" d="M 322.625 660.625C 335.75 661.25 348.938 660.938 362.062 659.812C 371.25 659 380.438 659.812 389.625 659.875C 392.5 659.938 395.25 659.125 398.062 658.625C 399.312 658.438 400.188 657.375 400.062 656.125C 399.938 654.875 398.812 654 397.562 654.125C 385.938 654.25 374.5 653.438 362.812 655.125C 349.188 657.062 336.062 658.188 322.625 659.375C 322.25 659.375 321.938 659.625 321.938 660C 321.938 660.375 322.25 660.625 322.625 660.625L 322.625 660.625z"/>
<path fill="#ffffff" stroke="none" d="M 438.875 457.562C 438.25 478.562 436.312 499.688 440.312 520.5C 440.375 521.312 441.062 521.875 441.875 521.812C 442.625 521.812 443.25 521.125 443.188 520.312C 441.375 499.438 439.875 478.625 440.312 457.625C 440.312 457.25 440 456.938 439.625 456.875C 439.25 456.875 438.938 457.188 438.875 457.562L 438.875 457.562z"/>
<path fill="#ffffff" stroke="none" d="M 438.938 570.75C 438.375 581.625 437.75 592.5 438.188 603.375C 438.188 603.875 438.562 604.25 439 604.25C 439.438 604.25 439.812 603.875 439.812 603.438C 440.25 592.562 439.938 581.688 440.25 570.812C 440.25 570.5 440 570.188 439.625 570.188C 439.25 570.125 439 570.438 438.938 570.75L 438.938 570.75z"/>
<path fill="#ffffff" stroke="none" d="M 437.5 626.812C 437.5 627.062 437.75 627.312 438 627.312C 438.25 627.312 438.5 627.062 438.5 626.812C 438.5 626.5 438.25 626.312 438 626.312C 437.75 626.312 437.5 626.5 437.5 626.812L 437.5 626.812z"/>
<path fill="#ffffff" stroke="none" d="M 436.438 654.812C 437 665.25 437.25 675.688 436.25 686.125C 436.188 686.625 436.562 687.062 437.062 687.062C 437.562 687.125 438 686.75 438 686.25C 439.312 675.75 438.625 665.312 437.562 654.812C 437.562 654.5 437.312 654.25 437 654.25C 436.688 654.25 436.438 654.5 436.438 654.812L 436.438 654.812z"/>
<path fill="#ffffff" stroke="none" d="M 452.938 655.125C 456.625 656.75 460.5 657.562 464.562 657.75C 465.562 657.75 466.375 657 466.375 656C 466.438 655.062 465.625 654.25 464.688 654.188C 460.938 654.188 457.188 654.562 453.438 653.688C 453.062 653.562 452.625 653.75 452.5 654.188C 452.375 654.562 452.562 655 452.938 655.125L 452.938 655.125z"/>
<path fill="#ffffff" stroke="none" d="M 441.5 442.5C 446.312 443.125 450.75 444.438 455.25 446.062C 457.125 446.75 459.312 446.25 461.188 445.062L 462.5 446.312L 462.188 446.25L 463.5 446.625C 463.938 446.75 464.375 446.688 464.75 446.438L 466.312 445.625C 466.875 445.438 467.375 445.25 467.938 445.062L 470.375 446.062L 470 446.062L 472.875 446C 474.812 445.062 476.938 445 479 444.75C 479.938 444.75 480.688 443.875 480.688 442.938C 480.625 442 479.812 441.25 478.812 441.25C 477.062 441.062 475.375 441.312 473.688 441.688L 470.25 442.312L 471.312 442.75L 468.5 441.25C 468.438 441.25 468.312 441.312 468.25 441.312L 463 443.188L 464.312 443L 462.938 442.812L 463.938 443.375L 461.75 441.688C 455.188 444.438 448.562 440.812 441.688 441.125C 441.312 441.062 440.938 441.312 440.938 441.688C 440.875 442.062 441.125 442.438 441.5 442.5L 441.5 442.5z"/>
</g>
<g>
<path fill="none" stroke-width="6" stroke="#190000" d="M 164 648L 188 648L 188 411L 185 402L 178.985 395.839L 132 395L 120 399L 115 417L 116.127 431"/>
<path fill="none" stroke-width="6" stroke="#190000" d="M 115.929 452.006L 114.557 464.007L 113.538 572.004L 116.174 584.016L 116.165 585.004"/>
<path fill="none" stroke-width="6" stroke="#190000" d="M 116.055 596.673L 115.995 603.001L 113.16 612.002L 113 629L 117 647L 124 648L 144.667 648"/>
<path fill="none" stroke-width="6" stroke="#190000" d="M 468.333 435.333L 474 426L 474.333 407.333L 470.333 399.667L 460.333 396.333L 412.331 396.049L 405.333 401.333L 404.022 411.667L 404.333 630.667L 410.333 646"/>
<path fill="none" stroke-width="6" stroke="#190000" d="M 460.667 647.667L 472.333 641.333L 474 628.667L 474 611.667L 471.667 602.333"/>
<path fill="none" stroke-width="6" stroke="#190000" d="M 470 591.333L 474 578.667L 474 466L 470.667 456.333"/>
<path fill="none" stroke-width="6" stroke="#190000" d="M 188.167 633.667L 190.667 642.333L 196.667 648.5"/>
<path fill="none" stroke-width="6" stroke="#190000" d="M 393.75 647.5L 404 638.625"/>
<path fill="none" stroke-width="6" stroke="#190000" d="M 404.5 589.25L 401.75 579.75L 388 574L 205.75 574L 194.125 576.5L 188 591.125"/>
<path fill="none" stroke-width="6" stroke="#190000" d="M 385.375 574.25L 396.375 568.25L 402 560L 402 513L 398.5 503.5L 391 501.5L 202 502L 194 505L 189 511"/>
<path fill="none" stroke-width="6" stroke="#190000" d="M 390 496.5L 390 425.667L 384.333 408L 371.667 404L 220.5 404L 208.5 406L 206 415.5L 206 497"/>
<path fill="none" stroke-width="6" stroke="#190000" d="M 430 436L 490 436L 490 456L 448.667 456L 448.75 710L 430 710L 430 436z"/>
<path fill="none" stroke-width="6" stroke="#190000" d="M 449 603.364L 488 603.364L 488 592L 448.75 592"/>
<path fill="none" stroke-width="6" stroke="#190000" d="M 145.333 586L 102 586L 102 596.364L 145.667 596.364"/>
<path fill="none" stroke-width="6" stroke="#190000" d="M 163 432L 102 432L 102 451.643L 145 451.643L 146 712L 163.244 712L 163 432z"/>
<path fill="none" stroke-width="6" stroke="#190000" d="M 145 648L 114 648L 114 668L 146 668"/>
<path fill="none" stroke-width="6" stroke="#190000" d="M 163.333 668L 429.5 668"/>
<path fill="none" stroke-width="6" stroke="#190000" d="M 448.25 668L 476 668L 476 648L 448.75 648"/>
<path fill="none" stroke-width="6" stroke="#190000" d="M 429.5 648L 164 648"/>
<path fill="none" stroke-width="6" stroke="#190000" d="M 371.667 404L 412.331 396.049"/>
<path fill="none" stroke-width="6" stroke="#190000" d="M 178.985 395.839L 220.5 404"/>
<path fill="none" stroke-width="6" stroke="#190000" d="M 188.625 560.625L 200.5 573.75"/>
</g>
<g>
<path fill="#d89959" stroke="none" d="M 224.667 197.333C 224.667 197.333 210.667 223.333 218.667 241.333C 226.667 259.333 232 276 248 280.667C 264 285.333 280 287.333 294.667 282.667C 309.333 278 326 271.333 329.333 260C 332.667 248.667 321.333 199.333 321.333 199.333C 321.333 199.333 312.667 198.667 300 200.667C 287.333 202.667 267.333 205.333 256 204C 244.667 202.667 224.667 197.333 224.667 197.333z"/>
<path fill="#ff9f3f" stroke="none" d="M 193.729 155.958C 193.729 155.958 213.729 178.625 217.062 183.292C 220.396 187.958 223.062 195.958 223.062 195.958C 223.062 195.958 251.062 207.958 267.062 204.625C 283.062 201.292 298.396 197.292 311.062 197.958C 323.729 198.625 337.062 205.958 337.062 205.958C 337.062 205.958 342.396 183.292 346.396 177.958C 350.396 172.625 362.396 159.292 362.396 159.292C 362.396 159.292 329.729 160.625 321.729 155.958C 313.729 151.292 303.062 127.958 303.062 127.958C 303.062 127.958 280.396 141.958 271.729 139.958C 263.062 137.958 235.062 125.958 235.062 125.958C 235.062 125.958 235.062 143.292 229.062 147.292C 223.062 151.292 193.729 155.958 193.729 155.958z"/>
<path fill="#3f3f3f" stroke="none" d="M 221.062 185.958C 221.062 185.958 238.396 195.958 256.396 192.625C 274.396 189.292 297.062 187.292 309.729 186.625C 322.396 185.958 338.396 194.625 338.396 194.625L 336.396 203.958C 336.396 203.958 327.729 193.958 311.062 197.958C 294.396 201.958 275.729 205.292 259.062 203.958C 242.396 202.625 223.062 195.958 223.062 195.958L 221.062 185.958z"/>
<path fill="#ff0000" stroke-width="1" stroke="#7f0000" d="M 214.396 177.958C 214.396 177.958 241.062 179.958 260.396 180.625C 277.382 181.211 299.729 176.625 315.062 177.292C 324.599 177.706 341.729 186.625 341.729 186.625L 338.396 194.625C 338.396 194.625 324.396 184.625 315.729 187.292C 307.062 189.958 274.396 193.958 263.729 193.292C 253.062 192.625 217.062 185.292 217.062 185.292L 214.396 177.958z"/>
<path fill="#ff0000" stroke-width="1" stroke="#7f0000" d="M 244.396 148.625L 242.396 161.958L 253.062 171.292L 256.396 159.292L 244.396 148.625z"/>
<path fill="#ff0000" stroke-width="1" stroke="#7f0000" d="M 296.396 148.625L 285.729 158.625L 291.062 171.292L 299.729 162.625L 296.396 148.625z"/>
<path fill="#ff0000" stroke-width="1" stroke="#7f0000" d="M 352.396 167.292L 337.729 170.625L 342.396 180.625L 352.396 167.292z"/>
<path fill="#ff0000" stroke-width="1" stroke="#7f0000" d="M 204.396 162.625L 221.062 165.958L 211.729 175.292L 204.396 162.625z"/>
<path fill="#3f3f3f" stroke="none" d="M 236 220C 236 220 244 219.333 244.667 224.667C 245.333 230 250.667 236 244.667 238.667C 238.667 241.333 234 246 232 238.667C 230 231.333 236 220 236 220z"/>
<path fill="#3f3f3f" stroke="none" d="M 265.333 220L 279.333 224L 281.333 239.333L 268 235.333L 265.333 220z"/>
<path fill="#bfbf7f" stroke="none" d="M 235.667 231.128C 237.489 231.128 238.967 228.385 238.967 225C 238.967 221.615 237.489 218.872 235.667 218.872C 233.844 218.872 232.367 221.615 232.367 225C 232.367 228.385 233.844 231.128 235.667 231.128z"/>
<path fill="#bfbf7f" stroke="none" d="M 270.417 232.941C 272.239 232.941 273.716 230.197 273.716 226.812C 273.716 223.428 272.239 220.684 270.417 220.684C 268.594 220.684 267.117 223.428 267.117 226.812C 267.117 230.197 268.594 232.941 270.417 232.941z"/>
<path fill="#3f3f3f" stroke="none" d="M 248 280.667C 248 280.667 246 294 242 298C 238 302 233.333 303.333 233.333 303.333L 265.333 284.667L 248 280.667z"/>
<path fill="#3f3f3f" stroke="none" d="M 308.667 200.667C 308.667 200.667 311.333 232.667 324 240C 336.667 247.333 334.667 246 334.667 246L 330.667 262.667C 330.667 262.667 326 256 318.667 260.667C 311.333 265.333 303.333 263.333 305.333 272C 307.333 280.667 304 286.667 311.333 290C 318.667 293.333 332.667 290 337.333 288.667C 342 287.333 356 283.333 356 283.333C 356 283.333 366 269.333 366 261.333C 366 253.333 368.667 248 361.333 244C 354 240 346 224.667 346 224.667L 337.062 205.958C 337.062 205.958 320 196 317.333 197.333C 314.667 198.667 308.667 200.667 308.667 200.667z"/>
<path fill="none" stroke-width="1" stroke="#7f7f7f" d="M 316.75 211C 316.5 213 318.75 215.75 319.75 217.5C 320.75 218.5 326.75 227 327.5 228.25C 333.25 235.5 332.75 234 339.25 240.5C 343.917 245.167 348.25 251 351.25 256.75C 353.25 261 354.25 265 353.75 269.75"/>
<path fill="none" stroke-width="1" stroke="#7f7f7f" d="M 322.25 210C 322.25 211 328.75 221 331.25 224.5C 333.75 228 335.5 230 338.25 232.5C 341 235 346.5 243 348.75 246C 351 249 351.75 249.75 353.25 252.25C 354.75 254.75 356.25 257.75 356.75 263"/>
<path fill="none" stroke-width="1" stroke="#7f7f7f" d="M 357.5 250.75C 359.75 254 359 254.25 359.75 258C 360.25 260 360 262.75 360 264.75"/>
<path fill="none" stroke-width="1" stroke="#7f7f7f" d="M 329.5 213.75C 333.75 220 337.5 227.25 342.75 233C 344.25 235 353.5 245.5 355 247.25"/>
<path fill="#bfbfbf" stroke="none" d="M 344 253L 357.75 242.75L 364.25 251.5L 348.25 259.75L 344 253z"/>
<path fill="none" stroke-width="1" stroke="#bfbfbf" d="M 323 269.75C 321 269.5 319.75 271.5 319.25 273.25C 318.5 275 318 277.25 319.25 279C 320.5 281.25 323 282 325.5 282.75C 327.25 283.25 329 283.25 330.75 282.75C 333.5 282 336.5 280 337.5 277C 339 272.25 339 267.5 338.25 262.75C 338 261.75 337 260 335.75 259.25C 334.75 258.75 334 258.25 333.25 257.5"/>
<path fill="#007fff" stroke="none" d="M 198 329.333L 264 328.667C 264 328.667 250 345.333 247.333 356C 244.667 366.667 240.667 410.667 240.667 410.667C 240.667 410.667 244.667 417.333 246.667 424.667C 248.667 432 244.667 474 244.667 474L 242 494.667L 210 496.667L 214 429.333C 214 429.333 206 428 202 416.667C 198 405.333 190 374.667 191.333 364.667C 192.667 354.667 198 329.333 198 329.333z"/>
<path fill="#ffffff" stroke="none" d="M 198 329.333L 207.333 330.667C 207.333 330.667 200 366.667 202 378C 204 389.333 210 411.333 214 416C 218 420.667 219.333 421.333 220 426.667C 220.667 432 220 472.667 220 472.667L 218 495.333L 212.667 494.667L 212 427.333L 202 416.667C 202 416.667 192 389.333 191.333 383.333C 190.667 377.333 198 329.333 198 329.333z"/>
<path fill="#ffffff" stroke="none" d="M 261.333 331.333L 252.667 330C 252.667 330 237.333 348 234.667 360C 232 372 232 400 232 400L 233.333 417.333L 242.667 434.667C 242.667 434.667 244 442 242.667 448.667C 241.333 455.333 238 473.333 238 473.333L 235.333 492.667L 242 494.667L 250 433.333L 243.333 418.667L 243.333 383.333L 247.333 356L 261.333 331.333z"/>
<path fill="#ffffff" stroke="none" d="M 219.333 331.333L 220 346L 235.333 330L 219.333 331.333z"/>
<path fill="#ffffff" stroke="none" d="M 218 359.333L 210 374L 217.333 388.667L 226 374.667L 218 359.333z"/>
<path fill="#ffffff" stroke="none" d="M 220.667 401.333L 218 413.333L 229.333 424.667L 228.667 410.667L 220.667 401.333z"/>
<path fill="#ffffff" stroke="none" d="M 230.667 436.667L 224.667 450L 230 464L 238 451.333L 230.667 436.667z"/>
<path fill="#ffffff" stroke="none" d="M 227.333 478L 222 488L 226 496L 229.333 495.333L 231.333 488L 227.333 478z"/>
<path fill="#ffff00" stroke="none" d="M 243.333 370.667L 295.333 335.333L 343.333 340L 339.333 386L 316.667 386.667L 316.667 356L 296.667 353.333L 242.667 392L 243.333 370.667z"/>
<path fill="#007fff" stroke="none" d="M 316.667 386.667L 323.333 498L 358.667 500.667L 339.333 386L 316.667 386.667z"/>
<path fill="#007fff" stroke="none" d="M 327.312 380.333L 322.646 376.333L 327.979 372.667L 333.312 376.667L 327.312 380.333z"/>
<path fill="#007fff" stroke="none" d="M 330.646 342.667L 323.646 349.333L 329.312 356L 335.312 350L 330.646 342.667z"/>
<path fill="#007fff" stroke="none" d="M 308.979 344L 315.979 340.333L 320.646 345.667L 314.312 349.667L 308.979 344z"/>
<path fill="#007fff" stroke="none" d="M 293.646 343L 300.312 339L 305.646 343.667L 299.312 348.333L 293.646 343z"/>
<path fill="#007fff" stroke="none" d="M 249.979 369L 247.646 377.333L 255.979 377L 257.312 370L 249.979 369z"/>
<path fill="#007fff" stroke="none" d="M 263.312 359L 261.312 367.333L 270.646 365.667L 272.646 359L 263.312 359z"/>
<path fill="#007fff" stroke="none" d="M 279.979 347.667L 276.646 355L 284.979 355.333L 289.312 348.333L 279.979 347.667z"/>
<path fill="none" stroke-width="1" stroke="#007fff" d="M 319.021 369.688L 338.021 370.354"/>
<path fill="#007fff" stroke="none" d="M 328.312 367.667L 323.646 363.667L 328.979 360L 334.312 364L 328.312 367.667z"/>
<path fill="none" stroke-width="1" stroke="#007fff" d="M 320.021 357.021L 339.021 357.688"/>
<path fill="none" stroke-width="1" stroke="#007fff" d="M 319.979 354.667L 320.979 338.667"/>
<path fill="#ffffff" stroke="none" d="M 319.646 387.333L 323.312 387.333L 325.979 434.333C 325.979 434.333 327.646 459.333 328.646 468C 329.646 476.667 331.312 492.667 331.312 496.667C 331.312 500.667 323.979 501.333 323.979 501.333L 319.312 433L 316.646 387L 319.646 387.333z"/>
<path fill="#ffffff" stroke="none" d="M 337 388.667L 332.667 388.667L 353.333 499.333L 359 498.667L 337 388.667z"/>
<path fill="#ffffff" stroke="none" d="M 328.333 396L 326.333 403L 330.667 407.333L 333 402L 328.333 396z"/>
<path fill="#ffffff" stroke="none" d="M 331 417.667L 327.333 425.667L 333.333 433L 336.333 425L 331 417.667z"/>
<path fill="#ffffff" stroke="none" d="M 334.333 443L 330 453.667L 337.333 463.667L 341.667 453L 334.333 443z"/>
<path fill="#ffffff" stroke="none" d="M 338 474.333L 332.333 484L 341 495L 346.667 484.333L 338 473.333"/>
<path fill="#ff0000" stroke="none" d="M 208 618L 276 595L 242 494.667L 303 491L 238 473.333C 238 473.333 239 483 228 488C 217 493 201 498 201 498L 208 618z"/>
<path fill="#ffff00" stroke="none" d="M 207 602L 268 579L 272 596L 208 622L 207 602z"/>
<path fill="#ffff00" stroke="none" d="M 208 559C 208 559 234 556 241 561C 248 566 268 579 268 579L 262 557C 262 557 252 544 236 544C 220 544 206 543 206 543L 208 559z"/>
<path fill="none" stroke-width="6" stroke="#007fff" d="M 206 543C 206 543 228.948 540.134 239 544C 252 549 262 553 262 553"/>
<path fill="none" stroke-width="1" stroke="#007fff" d="M 207.5 556C 207.5 556 208 550 210 548C 212 546 214.5 545 214.5 545C 214.5 545 218 545 220 549C 222 553 223 556.5 223 556.5C 223 556.5 224.5 553 227.5 550.5C 230.5 548 236 546.5 236 546.5C 236 546.5 237 549 238.5 552C 240 555 239 558.5 239 558.5C 239 558.5 241 556.5 243.5 554.5C 246 552.5 251.5 552 251.5 552C 251.5 552 253.5 553 253.5 556.5C 253.5 560 253 564 253 564C 253 564 254.5 560 257 559.5C 259.5 559 263 558.5 263 558.5L 263.5 570"/>
<path fill="#ffffff" stroke="none" d="M 215 544.225C 216.172 544.225 217.121 543.117 217.121 541.75C 217.121 540.383 216.172 539.275 215 539.275C 213.828 539.275 212.879 540.383 212.879 541.75C 212.879 543.117 213.828 544.225 215 544.225z"/>
<path fill="#ffffff" stroke="none" d="M 237.5 545.5C 238.672 545.5 239.621 544.392 239.621 543.025C 239.621 541.658 238.672 540.55 237.5 540.55C 236.328 540.55 235.379 541.658 235.379 543.025C 235.379 544.392 236.328 545.5 237.5 545.5z"/>
<path fill="#ffffff" stroke="none" d="M 251.379 551.475C 252.55 551.475 253.5 550.367 253.5 549C 253.5 547.633 252.55 546.525 251.379 546.525C 250.207 546.525 249.257 547.633 249.257 549C 249.257 550.367 250.207 551.475 251.379 551.475z"/>
<path fill="#ff0000" stroke="none" d="M 242.667 392L 296.667 353.333L 316.667 356L 318 422L 324.667 494.667L 244.667 474C 244.667 474 253.333 435.333 250 430C 246.667 424.667 244.667 420.667 244 416.667C 243.333 412.667 242.667 392 242.667 392z"/>
<path fill="#007fff" stroke="none" d="M 260 336.667L 288.667 338L 246.667 368C 246.667 368 250 350.667 252.667 347.333C 255.333 344 260 336.667 260 336.667z"/>
<path fill="#ff0000" stroke="none" d="M 345.5 381.5L 344.5 437L 398.5 394.5L 443.5 381L 345.5 381.5z"/>
<path fill="#ffff00" stroke="none" d="M 345.5 381.5L 356.5 381.5L 356 426L 346 436L 345.5 381.5z"/>
<path fill="#ffff00" stroke="none" d="M 375.5 382.5L 372.5 400.5L 360.5 419L 375 412.5C 375 412.5 385.5 403.25 386.5 395.75C 387.5 388.25 388.5 380.75 388.5 380.75L 375.5 382.5z"/>
<path fill="none" stroke-width="6" stroke="#007fff" d="M 387.75 382.75C 387.75 382.75 388.75 388.75 386.75 394.75C 384.75 400.75 380.75 407.25 380.75 407.25"/>
<path fill="none" stroke-width="1" stroke="#007fff" d="M 376.25 383.5C 376.25 383.5 380.25 383.5 382 384.75C 383.75 386 384.75 389 384.75 389C 384.75 389 384.5 391.5 381.75 392C 379 392.5 376 393.25 376 393.25C 376 393.25 377.25 393.75 379.25 395.25C 381.25 396.75 381.75 399.75 381.75 399.75C 381.75 399.75 381.25 402.5 378.75 402.5C 376.25 402.5 374.5 402.25 374.5 402.25C 374.5 402.25 376.25 403.5 377 405.25C 377.75 407 378 409.5 378 409.5L 369.75 409.75L 372.75 415"/>
<path fill="none" stroke-width="4" stroke="#00ff00" d="M 393.5 384.5C 393.5 384.5 394 386.5 393.5 389.25C 393 392 392.5 395 392.5 395"/>
<path fill="#ffffff" stroke="none" d="M 388 390.966C 388.781 390.966 389.414 390.254 389.414 389.375C 389.414 388.496 388.781 387.784 388 387.784C 387.219 387.784 386.586 388.496 386.586 389.375C 386.586 390.254 387.219 390.966 388 390.966z"/>
<path fill="#ffffff" stroke="none" d="M 385.625 402.069C 386.504 402.069 387.216 401.199 387.216 400.125C 387.216 399.051 386.504 398.181 385.625 398.181C 384.746 398.181 384.034 399.051 384.034 400.125C 384.034 401.199 384.746 402.069 385.625 402.069z"/>
<path fill="#ffbf7f" stroke="none" d="M 326.5 427L 342 391L 343 452.5L 326.5 427z"/>
<path fill="#ff0000" stroke="none" d="M 54.5 286L 114 238.5L 149.5 340.5L 54.5 286z"/>
<path fill="#ffff00" stroke="none" d="M 56 284.5L 114 238.5L 117 245L 62.5 291.5L 56 284.5z"/>
<path fill="#ffff00" stroke="none" d="M 100.5 262C 100.5 262 108 277.5 107.5 287C 107 296.5 102.5 309.5 102.5 309.5L 118 320.5C 118 320.5 125 302.5 125 284.5C 125 266.5 114.5 251 114.5 251L 119 249.5L 100.5 262z"/>
<path fill="none" stroke-width="6" stroke="#007fff" d="M 116 249.5C 116 249.5 126.5 280 124.5 292C 122.5 304 118 320.5 118 320.5"/>
<path fill="none" stroke-width="1" stroke="#007fff" d="M 102.5 262C 102.5 262 108 260 111 260.5C 114 261 117.5 263 117.5 263C 117.5 263 117 270 114.5 271C 112 272 109.5 273.5 109.5 273.5C 109.5 273.5 113 275 115.5 276.5C 118 278 121 283.5 121 283.5C 121 283.5 121.5 285.5 118 286C 114.5 286.5 111.5 287.5 111.5 287.5C 111.5 287.5 113.5 288.5 116 290.5C 118.5 292.5 120 297.5 120 297.5C 120 297.5 119.5 299.5 116 300.5C 112.5 301.5 109 301.5 109 301.5C 109 301.5 113 303.5 114 305.5C 115 307.5 116.5 312 116.5 312C 116.5 312 115 314 112 314.5"/>
<path fill="#ffffff" stroke="none" d="M 121 265.725C 122.562 265.725 123.828 264.617 123.828 263.25C 123.828 261.883 122.562 260.775 121 260.775C 119.438 260.775 118.172 261.883 118.172 263.25C 118.172 264.617 119.438 265.725 121 265.725z"/>
<path fill="#ffffff" stroke="none" d="M 125.5 286.225C 126.672 286.225 127.621 285.117 127.621 283.75C 127.621 282.383 126.672 281.275 125.5 281.275C 124.328 281.275 123.379 282.383 123.379 283.75C 123.379 285.117 124.328 286.225 125.5 286.225z"/>
<path fill="#ffffff" stroke="none" d="M 123.25 300.018C 124.226 300.018 125.018 299.226 125.018 298.25C 125.018 297.274 124.226 296.482 123.25 296.482C 122.274 296.482 121.482 297.274 121.482 298.25C 121.482 299.226 122.274 300.018 123.25 300.018z"/>
<path fill="#ffffff" stroke="none" d="M 120.5 314.518C 121.672 314.518 122.621 313.726 122.621 312.75C 122.621 311.774 121.672 310.982 120.5 310.982C 119.328 310.982 118.379 311.774 118.379 312.75C 118.379 313.726 119.328 314.518 120.5 314.518z"/>
<path fill="none" stroke-width="6" stroke="#00ff00" d="M 130.5 288.5C 130.5 288.5 130.5 298 129 305C 127.5 312 125 321 125 321"/>
<path fill="none" stroke-width="6" stroke="#ffffff" d="M 260 482C 264 474 272 470 280 468C 288 464 292 452 286 448C 284 444 276 444 270 446C 270 448 270 452 270 456C 270 456 272 456 274 456"/>
<path fill="none" stroke-width="6" stroke="#ffffff" d="M 283.5 467C 287 461.5 292.5 457.5 298.5 455C 300 454.5 301.5 453 303 452C 305.5 451 309 450.5 311 452C 317 455.5 310.5 462 311 467.5C 310.5 467.5 310.5 467.5 310 467.5"/>
<path fill="none" stroke-width="6" stroke="#ffffff" d="M 280 479.5C 281.5 479.5 282.5 479 283.5 478.5"/>
<path fill="none" stroke-width="6" stroke="#ffffff" d="M 292.5 473C 294 472.5 295 471.5 296.5 470.5"/>
<path fill="none" stroke-width="6" stroke="#ffffff" d="M 303 465C 303.5 465 303.5 465 304 465"/>
<path fill="none" stroke-width="6" stroke="#ffffff" d="M 310 360.5C 310 364.5 311 369 309 373C 305 383 294 387 284.5 393C 277.5 397 274.5 404.5 268 409C 264 412 258.5 413.5 254 411.5C 251 410 251 404.5 252 401C 252 400 254 400.5 255.5 400.5"/>
<path fill="none" stroke-width="6" stroke="#ffffff" d="M 282 396.5C 279 404.5 274.5 415 282 421C 285 423.5 289.5 423.5 293.5 423C 293.5 423 293.5 422.5 293.5 422"/>
<path fill="none" stroke-width="6" stroke="#ffffff" d="M 266.5 394C 268 392.5 270.5 392 271.5 389.5"/>
<path fill="none" stroke-width="6" stroke="#ffffff" d="M 279.5 382C 280.5 380.5 282 379.5 283.5 378.5"/>
<path fill="none" stroke-width="6" stroke="#ffffff" d="M 291.5 370C 293.5 369 294.5 367 296.5 366.5"/>
<path fill="none" stroke-width="6" stroke="#ffffff" d="M 304.5 401.5C 305.5 400.5 306 399.5 307.5 399"/>
<path fill="none" stroke-width="6" stroke="#ffffff" d="M 256 465.5C 257.5 465 258 463 259.5 462.5"/>
</g>
<g>
<path fill="none" stroke-width="6" stroke="#000000" d="M 210 708C 208 638 202 498 202 498L 238 478"/>
<path fill="none" stroke-width="6" stroke="#000000" d="M 245.028 495.469L 304 492C 304 492 306 466 304 452C 298.212 415.346 296.147 387.996 296.008 352"/>
<path fill="none" stroke-width="6" stroke="#000000" d="M 294.353 331.809C 291.276 315.315 285.352 292.057 284 288"/>
<path fill="none" stroke-width="6" stroke="#000000" d="M 304 492C 304 492 250 478 238 474C 256 540 286 618 300 686"/>
<path fill="none" stroke-width="6" stroke="#000000" d="M 223.102 197.602C 221.197 201.927 219.826 206.351 219.062 210.625C 215.729 229.292 219.062 250.625 225.062 260.625C 237.062 276.625 243.062 277.292 261.062 283.292C 273.696 287.886 293.649 283.856 305.89 279.778"/>
<path fill="none" stroke-width="6" stroke="#000000" d="M 329.062 262.625C 331.562 258.125 333.062 253.625 333.906 249.125"/>
<path fill="none" stroke-width="6" stroke="#000000" d="M 249.729 280.625C 249.729 282.625 247.729 285.958 242.396 297.292C 237.062 308.625 219.062 305.958 215.729 299.292C 212.396 292.625 224.396 278.625 230.396 281.292C 236.396 283.958 235.062 289.292 229.729 295.292"/>
<path fill="none" stroke-width="6" stroke="#000000" d="M 308.396 199.958C 308.396 217.958 316.396 227.292 321.062 232.625C 325.729 237.958 341.062 251.958 345.062 258.625C 349.062 265.292 350.396 274.625 343.062 284.625C 335.729 294.625 313.062 294.625 309.062 290.625C 305.062 286.625 305.062 268.625 311.062 264.625C 317.062 260.625 325.729 259.292 329.062 262.625C 332.396 265.958 327.062 278.625 327.062 278.625"/>
<path fill="none" stroke-width="6" stroke="#000000" d="M 335.15 211.343C 342.056 223.357 350.399 234.818 361.062 243.958C 373.062 253.958 363.062 273.958 353.062 285.958"/>
<path fill="none" stroke-width="6" stroke="#000000" d="M 337.062 206.625C 341.062 186.625 347.062 170.625 363.062 158.625C 350.007 158.625 332.389 159.849 321.729 155.958C 312.792 152.696 306.711 143.218 303.062 128.625C 293.062 135.292 285.729 139.958 273.062 139.958C 260.396 139.958 239.729 129.292 233.062 126.625C 233.062 138.625 234.396 145.292 225.062 149.958C 214.632 155.174 204.396 153.958 192.396 153.958C 208.396 163.958 222.396 194.625 222.396 194.625C 222.396 194.625 249.062 205.292 267.729 204.625C 282.387 204.101 311.729 197.292 319.729 197.958C 327.729 198.625 337.062 206.625 337.062 206.625z"/>
<path fill="none" stroke-width="6" stroke="#000000" d="M 218.396 185.292C 218.396 185.292 249.729 194.625 264.396 193.292C 279.062 191.958 308.396 186.625 319.062 187.292C 329.729 187.958 339.062 195.958 339.062 195.958"/>
<path fill="none" stroke-width="6" stroke="#000000" d="M 242.396 303.292C 242.396 303.292 251.729 297.292 257.062 292.625C 262.396 287.958 266.396 284.625 266.396 284.625"/>
<path fill="none" stroke-width="6" stroke="#000000" d="M 267.062 221.958C 265.062 227.958 265.729 236.625 271.729 239.292C 274.396 240.625 278.396 240.625 279.729 239.292C 283.062 235.958 280.396 227.958 279.729 223.292L 281.062 228.625C 279.363 220.128 271.729 220.625 267.062 221.958z"/>
<path fill="none" stroke-width="6" stroke="#000000" d="M 237.062 219.292C 235.729 218.625 233.062 218.625 233.062 219.292C 229.729 225.292 230.396 233.292 232.396 239.292C 233.729 241.958 240.396 241.958 243.062 239.958C 247.729 237.292 246.396 229.292 245.062 223.958C 243.729 220.625 237.062 219.292 237.062 219.292z"/>
<path fill="none" stroke-width="6" stroke="#000000" d="M 240.396 265.292C 260.396 265.292 284.396 267.292 299.062 250.625"/>
<path fill="none" stroke-width="6" stroke="#000000" d="M 260.396 255.292C 260.396 253.292 262.396 252.625 263.729 252.625C 275.729 247.958 294.396 256.625 302.396 243.958C 303.729 241.958 302.396 237.292 300.396 235.958C 298.396 233.958 294.396 233.292 292.396 235.292C 291.729 236.625 291.729 239.292 292.396 241.292C 293.062 241.292 294.396 241.292 295.062 241.292"/>
<path fill="none" stroke-width="6" stroke="#000000" d="M 251.062 254.625C 245.062 253.292 239.062 252.625 233.062 253.958C 228.396 254.625 227.062 260.625 221.729 261.958C 217.729 262.625 213.062 263.292 211.062 261.292C 209.062 259.958 207.062 255.292 209.062 253.958C 210.396 252.625 213.729 252.625 216.396 253.292C 216.396 253.292 216.396 254.625 216.396 255.292"/>
<path fill="none" stroke-width="6" stroke="#000000" d="M 84 256"/>
<path fill="none" stroke-width="6" stroke="#000000" d="M 164 350"/>
<path fill="none" stroke-width="6" stroke="#000000" d="M 292 336C 281.79 336.444 271.579 336.395 261.347 336.16"/>
<path fill="none" stroke-width="6" stroke="#000000" d="M 193.994 335.131C 180.136 335.668 166.155 337.051 152 340C 152 342 152 346 152 348C 134 302 128 252 98 212"/>
<path fill="none" stroke-width="6" stroke="#000000" d="M 342.69 352.47C 378.694 356.867 413.816 364.007 446 378C 412 382 378 380 344 380C 346 408 341 427.5 345 455.5L 326 428.5L 344 381.5"/>
<path fill="#ff9f3f" stroke-width="4" stroke="#ff9f3f" d="M 94 116.26C 123.679 116.26 147.74 140.321 147.74 170C 147.74 199.679 123.679 223.74 94 223.74C 64.3206 223.74 40.2599 199.679 40.2599 170C 40.2599 140.321 64.3206 116.26 94 116.26z"/>
<path fill="#ffffff" stroke-width="1" stroke="#ffdfbf" d="M 103.396 123.188C 102.583 123.781 101.802 124.375 101.208 125.219C 98.6458 128.844 96.5208 132.219 94.5208 136C 92.6458 139.5 91.3958 143.188 89.6458 146.75C 88.2708 149.5 86.4271 151.938 85.0521 154.75C 78.0521 169.344 72.1146 184.031 64.3646 198.062C 63.3021 200.25 64.2083 202.906 66.3958 203.969C 68.6146 205.062 71.2708 204.156 72.3333 201.938L 72.1771 201.906C 75.6771 198.969 76.9896 194.094 78.6146 189.938C 82.8333 179.344 88.0833 169.375 92.0521 158.781C 98.3646 148.031 101.271 135.812 104.271 123.812C 104.458 123.562 104.396 123.219 104.146 123.062C 103.896 122.875 103.552 122.938 103.396 123.188L 103.396 123.188z"/>
<path fill="#ffffff" stroke-width="1" stroke="#ffffff" d="M 63.1771 202.656C 60.9896 203.688 59.2708 205.375 57.3333 206.75C 56.8958 208.938 58.3646 211.094 60.5833 211.5C 62.7708 211.938 64.9271 210.469 65.3333 208.25L 65.1146 209C 64.4271 207.531 63.5833 206.094 64.6771 204.156C 65.1146 203.75 65.1146 203.062 64.6771 202.656C 64.2708 202.219 63.5833 202.219 63.1771 202.656L 63.1771 202.656z"/>
<path fill="#ffffff" stroke-width="1" stroke="#ffdfbf" d="M 109.927 128.406C 111.333 126.969 112.24 125.188 114.177 124.375C 115.177 122.812 114.677 120.719 113.115 119.75C 111.521 118.781 109.458 119.25 108.458 120.844L 108.521 120.625C 108.615 123.188 105.458 124.562 106.958 127.656C 106.771 128.375 107.177 129.094 107.896 129.312C 108.615 129.5 109.365 129.062 109.552 128.344L 109.927 128.406z"/>
<path fill="#ffffff" stroke-width="4" stroke="#ffdfbf" d="M 130.896 138.75C 130.052 139.438 128.896 139.812 128.99 141.531C 129.021 142.781 130.052 143.75 131.271 143.719C 132.49 143.688 133.458 142.688 133.458 141.469L 133.302 141.25C 133.146 141.562 132.99 141.906 132.833 142.219C 132.24 141.406 133.021 140.531 132.74 139.719C 133.021 139.5 133.083 139.094 132.865 138.812C 132.646 138.5 132.24 138.469 131.927 138.688L 130.896 138.75z"/>
<path fill="#ffffff" stroke-width="1" stroke="#ffdfbf" d="M 133.24 147.25C 130.677 148.062 130.677 151.281 129.615 153.375C 129.177 154.188 128.521 154.844 128.365 155.75C 126.365 168.594 119.427 179.125 114.177 190.5L 113.49 191.188C 113.083 191.875 112.865 192.688 112.865 193.5L 112.865 194.031C 112.833 195.906 112.771 197.812 113.677 199.531L 113.365 198.75L 114.177 195.75L 113.677 196.438C 111.74 198.875 109.427 201.094 108.427 204.125L 107.958 206.125L 109.771 203.062L 108.74 203.875C 108.74 203.906 108.771 203.938 108.771 203.969C 106.865 205.219 106.302 207.781 107.552 209.719C 108.771 211.656 111.365 212.219 113.302 210.969L 112.615 211.062C 113.74 211 114.677 210.312 115.458 209.125L 114.896 210.219C 115.927 209.5 116.583 208.375 116.708 207.125L 117.208 206.031C 117.177 206.188 117.115 206.312 117.083 206.469C 118.24 204.906 119.615 203.531 120.771 202L 121.458 200.938C 122.083 200.094 122.365 199 122.271 197.938L 121.833 195.875C 121.833 195.906 121.865 195.969 121.865 196C 121.833 195.5 121.833 195.031 121.802 194.531L 121.802 193.5L 121.177 195.812L 121.802 194.781C 125.177 185.438 129.927 176.75 132.99 167.219C 134.615 162.125 135.021 156.719 134.958 151.469C 134.927 150.5 134.958 149.375 134.958 148.281C 135.177 147.656 134.896 146.969 134.271 146.719C 133.677 146.469 132.958 146.75 132.708 147.375L 133.24 147.25z"/>
<path fill="#ffffff" stroke-width="1" stroke="#ffdfbf" d="M 101.458 214.906C 98.2396 216.094 95.8646 219.125 96.1771 222.625C 96.1771 222.938 96.6146 223.219 96.8958 223.5C 96.8958 225.125 98.2083 226.438 99.8333 226.438C 101.458 226.438 102.771 225.125 102.771 223.5L 103.552 223.469C 103.333 221.375 104.458 219.656 105.083 217.75C 105.177 217.406 104.927 216.938 104.833 216.531C 105.24 215.469 104.708 214.25 103.646 213.844C 102.583 213.438 101.365 213.969 100.958 215.031L 101.458 214.906z"/>
<path fill="none" stroke-width="6" stroke="#000000" d="M 94 223.74C 123.679 223.74 147.74 199.679 147.74 170C 147.74 140.321 123.679 116.26 94 116.26C 64.3206 116.26 40.2599 140.321 40.2599 170C 40.2599 199.679 64.3206 223.74 94 223.74z"/>
<path fill="none" stroke-width="2" stroke="#ffdfbf" d="M 126.239 139.599C 133.724 147.534 138.312 158.231 138.312 170C 138.312 194.472 118.473 214.312 94 214.312C 82.3161 214.312 71.6882 209.79 63.7712 202.4"/>
<path fill="none" stroke-width="2" stroke="#ff7f00" d="M 63.7712 202.4C 55.1057 194.312 49.688 182.789 49.688 170C 49.688 145.528 69.5275 125.688 94 125.688C 106.704 125.688 118.159 131.034 126.239 139.599"/>
<path fill="none" stroke-width="4" stroke="#ffbf7f" d="M 94 138.245L 105.227 158.773"/>
<path fill="none" stroke-width="4" stroke="#ff7f00" d="M 105.227 158.773L 125.755 170"/>
<path fill="none" stroke-width="4" stroke="#ffdfbf" d="M 125.755 170L 105.227 181.227L 94 201.755"/>
<path fill="none" stroke-width="4" stroke="#ffbf7f" d="M 94 201.755L 82.7729 181.227"/>
<path fill="none" stroke-width="4" stroke="#ff7f00" d="M 82.7729 181.227L 62.245 170"/>
<path fill="none" stroke-width="4" stroke="#ff7f00" d="M 62.245 170L 82.7729 158.773L 94 138.245"/>
<path fill="none" stroke-width="4" stroke="#ff7f00" d="M 94 130.796L 107.861 156.139"/>
<path fill="none" stroke-width="4" stroke="#ffbf7f" d="M 107.861 156.139L 133.204 170"/>
<path fill="none" stroke-width="4" stroke="#ff7f00" d="M 133.204 170L 107.861 183.861L 94 209.204"/>
<path fill="none" stroke-width="4" stroke="#ffdfbf" d="M 94 209.204L 80.1392 183.861"/>
<path fill="none" stroke-width="4" stroke="#ffbf7f" d="M 80.1392 183.861L 54.7958 170"/>
<path fill="none" stroke-width="4" stroke="#ffdfbf" d="M 54.7958 170L 80.1392 156.139L 94 130.796"/>
<path fill="none" stroke-width="3" stroke="#ff9f3f" d="M 94 134.36L 106.601 157.399L 129.64 170L 106.601 182.601L 94 205.64L 81.3994 182.601L 58.36 170L 81.3993 157.399L 94 134.36z"/>
<path fill="none" stroke-width="6" stroke="#000000" d="M 244.667 472C 246.667 458.667 250 446 248.667 432.667C 248 430.667 248 428 247.333 426C 246 424 244 422 243.333 420C 239.333 412.667 241.333 402.667 242.667 394C 244 380 243.333 366 248.667 352.667C 252 344.667 263.333 330 263.333 330L 196 329.333C 196 329.333 191.333 366 192.667 384.667C 194 394 198 402.667 200.667 412C 202.667 416.667 206 420.667 210 424C 211.333 425.333 212 428 212 430C 212.667 451.333 214.667 473.333 211.333 494.667"/>
<path fill="none" stroke-width="6" stroke="#000000" d="M 246 369.333L 295.333 334L 342 340L 338 387.333L 317.333 386.667L 317.333 355.333L 295.333 352.667L 244 392"/>
<path fill="none" stroke-width="6" stroke="#000000" d="M 317.333 386.667C 317.333 386.667 316.667 422 320 438C 323.333 454 324 494 324 494"/>
<path fill="none" stroke-width="6" stroke="#000000" d="M 338 387.333L 356.667 495.333"/>
<path fill="none" stroke-width="6" stroke="#000000" d="M 208 621L 274 595"/>
<path fill="none" stroke-width="6" stroke="#000000" d="M 208 603L 269 580C 269 580 258 566 237 562C 216 558 204 560 204 560"/>
<path fill="none" stroke-width="6" stroke="#000000" d="M 346.5 438L 395.5 395L 453 379"/>
<path fill="none" stroke-width="6" stroke="#000000" d="M 357.5 381.5L 357.5 423C 357.5 423 374.5 402 374 391.5C 373.5 381 374 380 374 380"/>
<path fill="none" stroke-width="6" stroke="#000000" d="M 114 238L 54 286L 152 340"/>
<path fill="none" stroke-width="6" stroke="#000000" d="M 63 290.5L 116.5 247"/>
<path fill="none" stroke-width="6" stroke="#000000" d="M 100.5 262.5C 100.5 262.5 108.5 269.5 108.5 284.5C 108.5 299.5 102.5 310 102.5 310"/>
</g>
</svg>