<svg xmlns="http://www.w3.org/2000/svg"
	xmlns:xlink="http://www.w3.org/1999/xlink"
	viewBox="26.4 5.2 577 792"
	width="629.578" height="824.686">
<g>
<path style="stroke:#819CC9; stroke-width:1; fill:#4473B4" d="
M 603.445 797.241
L 603.445 5.24084
L 26.4451 5.24084
L 26.4451 797.241
L 603.445 797.241
z"/>
</g>
<g>
<path style="stroke:#819CC9; stroke-width:6; fill:#BFCBE3" d="M 75.4451 197.241C 95.4451 191.241 107.445 211.241 121.445 219.241C 149.445 233.241 177.445 239.241 211.445 231.241C 245.445 223.241 247.445 201.241 305.445 205.241C 363.445 209.241 411.445 233.241 479.445 229.241C 501.445 229.241 553.445 197.241 575.445 199.241L 591.445 779.241L 41.4451 775.241L 35.4451 211.241L 75.4451 197.241z"/>
<path style="stroke:#819CC9; stroke-width:6; fill:#BFCBE3" d="M 597.445 257.241C 543.445 245.241 491.445 239.241 459.445 239.241C 415.445 239.241 427.32 262.006 401.445 265.241C 369.445 269.241 359.445 259.241 351.445 257.241C 337.445 251.241 337.445 239.241 305.445 241.241C 277.216 243.005 267.445 257.241 255.445 257.241C 249.445 259.241 243.445 261.241 237.445 263.241C 223.445 265.241 235.445 249.241 205.445 249.241C 175.445 249.241 163.445 261.241 159.445 263.241C 141.445 265.241 125.445 253.241 107.445 257.241C 87.4451 263.241 91.4451 277.241 71.4451 273.241C 57.4451 271.241 51.4451 271.241 37.4451 271.241L 33.4451 785.241L 597.445 783.241L 597.445 257.241z"/>
<path style="stroke:#819CC9; stroke-width:6; fill:#BFCBE3" d="M 594.133 407.241C 590.133 417.241 578.133 421.241 568.133 423.241C 530.133 433.241 510.133 429.241 480.133 405.241C 458.133 387.241 446.133 357.241 422.133 347.241C 408.133 341.241 392.133 343.241 378.133 347.241C 308.133 367.241 303.445 389.241 231.445 405.241C 221.445 407.241 167.445 401.241 159.445 393.241C 141.445 375.241 143.445 357.241 119.445 347.241C 109.445 341.241 99.4451 335.241 89.4451 339.241C 75.4451 345.241 55.4451 349.241 47.4451 365.241L 43.4451 793.241L 598.133 789.241L 594.133 407.241z"/>
<path style="stroke:#819CC9; stroke-width:6; fill:#BFCBE3" d="M 583.445 547.241C 569.445 547.241 555.445 535.241 543.445 541.241C 523.445 551.241 485.445 567.241 465.445 571.241C 401.445 585.241 395.445 533.241 337.445 517.241C 323.445 513.241 307.445 511.241 295.445 519.241C 277.445 535.241 257.445 547.241 235.445 553.241C 219.445 557.241 201.445 559.241 185.445 551.241C 167.445 543.241 153.445 531.241 137.445 517.241C 119.445 499.241 91.4451 503.241 69.4451 511.241C 55.4451 515.241 37.4451 527.241 31.4451 545.241L 33.4451 785.241L 581.445 785.241L 583.445 547.241z"/>
<path style="stroke:#819CC9; stroke-width:6; fill:#BFCBE3" d="M 39.4451 671.241C 63.4451 653.241 95.4451 659.241 121.445 663.241C 167.445 675.241 207.445 693.241 255.445 685.241C 291.445 679.241 321.445 657.241 355.445 643.241C 381.445 633.241 409.445 633.241 435.445 639.241C 473.445 649.241 505.445 675.241 543.445 685.241C 557.445 689.241 585.445 683.241 595.445 671.241L 593.445 791.241L 33.4451 785.241L 37.4451 677.241L 39.4451 671.241z"/>
<path style="stroke:#819CC9; stroke-width:6; fill:#BFCBE3" d="M 587.445 767.241C 587.445 769.241 587.445 773.241 587.445 773.241C 579.445 775.241 569.445 775.241 567.445 767.241C 565.445 759.241 535.445 749.241 529.445 749.241C 461.445 739.241 435.445 785.241 369.445 787.241C 331.445 789.241 301.445 761.241 271.445 739.241C 229.445 737.241 187.445 737.241 151.445 763.241L 149.445 789.241L 593.445 791.241L 587.445 767.241z"/>
</g>
<g>
<path style="stroke:none; fill:#ffffff" d="M 124.445 299.241C 124.445 299.241 162.445 281.241 249.445 273.241C 318.883 266.856 404.445 287.241 404.445 287.241C 404.445 287.241 459.445 302.241 470.445 318.241C 481.445 334.241 475.445 351.241 475.445 351.241C 475.445 351.241 473.445 407.241 451.445 441.241C 429.445 475.241 387.445 517.241 329.445 527.241C 309.543 530.672 227.445 543.241 161.445 495.241C 129.89 472.292 86.4451 396.241 89.4451 351.241C 92.4451 306.241 124.445 299.241 124.445 299.241z"/>
<path style="stroke:none; fill:#bfbf7f" d="M 223.445 336.241C 223.445 336.241 252.445 327.241 284.445 329.241C 316.445 331.241 341.445 331.241 365.445 340.241C 389.445 349.241 418.445 365.241 418.445 365.241C 418.445 365.241 386.445 377.241 342.445 380.241C 298.445 383.241 264.445 383.241 230.445 379.241C 196.445 375.241 144.445 363.241 144.445 363.241C 144.445 363.241 157.445 353.241 172.445 347.241C 187.445 341.241 223.445 336.241 223.445 336.241z"/>
<path style="stroke:none; fill:#ffffff" d="M 478.445 359.241C 478.445 359.241 485.445 356.241 512.445 360.241C 539.445 364.241 546.445 366.241 552.445 383.241C 558.445 400.241 569.445 409.241 551.445 426.241C 533.445 443.241 515.445 454.241 487.445 463.241C 459.445 472.241 425.445 474.241 425.445 474.241L 452.445 445.241L 467.445 447.241L 511.445 432.241L 534.445 409.241L 530.445 388.241C 530.445 388.241 520.445 378.241 502.445 377.241C 484.445 376.241 474.445 379.241 474.445 379.241L 478.445 359.241z"/>
</g>
<g>
<path style="stroke:#000000; stroke-width:6; fill:none" d="M 108.842 332.745C 108.69 333.567 108.612 334.394 108.612 335.227C 108.612 361.863 187.55 383.456 284.922 383.456C 382.293 383.456 461.231 361.863 461.231 335.227C 461.231 334.981 461.224 334.735 461.211 334.49"/>
<path style="stroke:#ffbfff; stroke-width:6; fill:none" d="M 461.211 334.49C 459.772 308.194 381.394 286.997 284.922 286.997C 190.593 286.997 113.564 307.262 108.842 332.745"/>
<path style="stroke:#ffbfff; stroke-width:6; fill:none" d="M 94.8372 352.027C 116.563 379.146 192.654 399.171 283.184 399.171C 371.273 399.171 445.691 380.211 469.656 354.205"/>
<path style="stroke:#000000; stroke-width:6; fill:none" d="M 469.656 354.205C 474.925 348.487 477.755 342.428 477.755 336.156C 477.755 301.354 390.641 273.141 283.184 273.141C 175.727 273.141 88.6132 301.354 88.6132 336.156C 88.6132 341.638 90.7749 346.956 94.8372 352.027"/>
<path style="stroke:#000000; stroke-width:6; fill:none" d="M 89.7328 329.955C 89.1347 335.898 88.2759 342.25 88.2759 348.343C 88.2759 450.946 175.595 533.797 282.623 533.797C 389.652 533.797 477.158 452.695 477.158 350.092C 477.158 345.426 477.927 340.751 477.457 334.935"/>
<path style="stroke:#000000; stroke-width:6; fill:none" d="M 477.756 358.837C 482.715 357.856 492.717 357.088 498.086 357.088C 525.432 357.088 558.372 375.054 558.372 406.931C 558.372 432.201 529.776 448.03 488.519 462.021C 490.222 461.444 454.436 474.264 423.942 474.264"/>
<path style="stroke:#000000; stroke-width:6; fill:none" d="M 449.055 444.532C 466.415 449.61 472.684 447.984 487.921 441.618C 508.849 432.873 535.756 423.714 535.756 406.64C 535.756 389.565 520.52 376.326 493.9 376.326C 488.338 376.326 480.933 376.525 475.962 377.637"/>
<path style="stroke:#000000; stroke-width:6; fill:none" d="M 412.969 361.746C 385.384 342.522 336.366 329.734 280.493 329.734C 227.63 329.734 180.902 341.181 152.659 358.697"/>
<path style="stroke:#000000; stroke-width:6; fill:#ff0000" d="M 284.112 509.241C 301.112 488.741 304.78 491.053 325.78 485.053C 346.78 479.053 371.78 464.553 371.78 443.053C 371.78 421.553 351.78 412.553 325.78 415.053C 299.78 417.553 283.78 435.053 283.78 435.053L 283.32 435.178C 283.32 435.178 267.32 417.616 241.32 415.116C 215.32 412.616 195.32 421.616 195.32 443.116C 195.32 464.616 220.32 479.116 241.32 485.116C 262.32 491.116 267.112 488.741 284.112 509.241z"/>
</g>
</svg>
