<svg xmlns="http://www.w3.org/2000/svg"
	xmlns:xlink="http://www.w3.org/1999/xlink"
	viewBox="26.1 0 577 792"
	width="629.284" height="823.195">
<g id="scene">
    <set attributeName="opacity" to="1" 
		    fill="freeze" begin="btn1.click"/>
    <set attributeName="opacity" to="0" 
		    fill="freeze" begin="btn2.click"/>
    <set attributeName="opacity" to="0" 
		    fill="freeze" begin="scene.load"/>
<g>
<path fill="#7fbfff" stroke="none" d="M 603.142 792L 603.142 0L 26.142 0L 26.142 792L 603.142 792z"/>
</g>
<g>
<path fill="#9f9f3f" stroke="none" d="M 37.6421 587.5L 82.6421 583L 69.1421 616L 37.6421 587.5z"/>
<path fill="#ffccbf" stroke="none" d="M 147.809 242C 147.809 242 137.142 287.333 159.809 309.333C 182.475 331.333 210.475 337.333 226.475 336.667C 242.475 336 265.142 334 279.809 309.333C 294.475 284.667 305.142 264 306.475 249.333C 307.809 234.667 308.475 227.333 308.475 227.333L 294.475 220.667L 272.475 222L 262.475 203.333L 252.475 179.333L 237.142 187.333C 237.142 187.333 239.809 202 227.809 203.333C 215.809 204.667 203.142 200 196.475 206.667C 189.809 213.333 194.475 227.333 189.142 232.667C 183.809 238 149.142 236.667 149.142 236.667L 147.809 242z"/>
<path fill="#bf7fbf" stroke="none" d="M 245.142 176C 245.142 176 202.475 169.333 195.142 174C 187.809 178.667 165.809 196 162.475 201.333C 159.142 206.667 152.475 218 152.475 218C 152.475 218 125.809 220 119.142 228.667C 112.475 237.333 113.809 246.667 111.142 250C 108.475 253.333 98.4754 248.667 93.1421 254C 87.8088 259.333 84.4754 263.333 84.4754 263.333L 83.8088 292.667C 83.8088 292.667 96.4754 276 100.475 276.667C 104.475 277.333 115.809 290 115.809 290L 118.475 316.667C 118.475 316.667 105.809 312 101.809 323.333C 97.8088 334.667 105.809 352.667 105.142 359.333C 104.475 366 90.4754 357.333 84.4754 363.333C 78.4754 369.333 79.1421 388.667 79.8088 391.333C 80.4754 394 89.1421 378 93.1421 376C 97.1421 374 109.809 371.333 113.809 366C 117.809 360.667 113.809 347.333 115.142 341.333C 116.475 335.333 125.809 336 133.809 334C 141.809 332 163.142 330.667 157.142 340C 151.142 349.333 147.809 351.333 155.142 358.667C 162.475 366 167.809 371.333 163.809 377.333C 159.809 383.333 175.809 376 175.809 366.667C 175.809 357.333 167.142 353.333 171.809 349.333C 176.475 345.333 182.475 350 186.475 344.667C 190.475 339.333 191.142 330 191.142 330C 191.142 330 173.142 325.333 166.475 317.333C 159.809 309.333 153.142 296 149.809 286.667C 146.475 277.333 149.142 274 149.142 274L 149.142 236.667C 149.142 236.667 181.809 244.667 187.142 238.667C 192.475 232.667 187.809 218.667 192.475 211.333C 197.142 204 215.809 208.667 223.809 204.667C 231.809 200.667 237.142 187.333 237.142 187.333L 245.142 176z"/>
<path fill="#bf7fbf" stroke="none" d="M 253.142 176.667L 261.142 198C 261.142 198 259.809 215.333 269.809 219.333C 279.809 223.333 289.809 219.333 294.475 220.667C 299.142 222 308.475 227.333 308.475 227.333C 308.475 227.333 309.809 208.667 307.809 204.667C 305.809 200.667 273.142 176 273.142 176L 253.142 176.667z"/>
<path fill="#bf7fbf" stroke="none" d="M 236.475 189.333L 249.809 179.333L 260.475 201.333L 265.142 176.667L 232.475 173.333L 236.475 189.333z"/>
<path fill="#bf7fbf" stroke="none" d="M 309.142 230.667L 345.809 243.333C 345.809 243.333 345.809 253.333 345.142 261.333C 344.475 269.333 346.475 277.333 353.142 278C 359.809 278.667 372.475 266 372.475 266C 372.475 266 371.142 280 367.142 284C 363.142 288 348.475 290.667 343.142 290.667C 337.809 290.667 325.809 278.667 325.142 272.667C 324.475 266.667 317.142 259.333 313.809 256.667C 310.475 254 305.142 255.333 305.142 255.333L 309.142 230.667z"/>
<path fill="#ffccbf" stroke="none" d="M 411.142 372L 429.142 326L 475.142 378L 435.142 394"/>
<path fill="#ffffff" stroke="none" d="M 64.6421 614.5L 96.1421 745L 181.642 709L 64.6421 614.5z"/>
<path fill="#ffffff" stroke="none" d="M 252.142 722.5L 547.642 631L 393.142 790L 252.142 722.5z"/>
<path fill="#9f9f3f" stroke="none" d="M 540.142 598L 591.142 620.5L 547.642 631L 540.142 598z"/>
<path fill="#ffffff" stroke="none" d="M 75.1421 581.5L 387.142 542.5L 540.142 598L 547.642 631L 252.142 722.5L 181.642 709L 64.6421 614.5L 75.1421 581.5z"/>
</g>
<g>
<path fill="#ff9f3f" stroke-width="6" stroke="#7f0000" d="M 315.142 449C 291.142 451 243.142 464 243.142 464L 249.142 478C 249.142 478 288.142 476 311.142 478C 334.142 480 346.142 485 352.142 485"/>
<path fill="none" stroke-width="6" stroke="#3f3fff" d="M 249.142 176C 227.142 178 203.142 168 187.142 180C 169.142 194 151.142 212 147.142 236C 145.142 254 143.142 272 149.142 290C 155.142 308 169.142 322 187.142 328C 215.142 338 245.142 342 269.142 322C 303.142 290 311.142 246 307.142 202C 291.142 192 277.142 176 259.142 176"/>
<path fill="none" stroke-width="6" stroke="#3f3fff" d="M 177.142 286C 189.142 314 221.142 314 247.142 314"/>
<path fill="none" stroke-width="6" stroke="#3f3fff" d="M 223.142 242C 223.142 252 223.142 260 223.142 270"/>
<path fill="none" stroke-width="6" stroke="#3f3fff" d="M 261.142 250C 261.142 256 261.142 262 261.142 268"/>
<path fill="none" stroke-width="6" stroke="#3f3fff" d="M 237.142 184C 239.142 194 231.142 202 225.142 204C 215.142 208 201.142 202 193.142 210C 185.142 216 193.142 232 187.142 236C 177.142 242 161.142 240 147.142 236C 147.142 248 147.142 262 149.142 274C 137.142 274 123.142 272 119.142 280C 113.142 292 119.142 306 119.142 318C 111.142 318 101.142 320 99.1421 328C 95.1421 338 99.1421 346 103.142 354C 113.142 370 85.1421 358 81.1421 366C 77.1421 374 77.1421 386 81.1421 396"/>
<path fill="none" stroke-width="6" stroke="#3f3fff" d="M 263.142 198C 261.142 208 265.142 218 273.142 222C 283.142 224 295.142 218 301.142 224C 313.142 234 327.142 236 341.142 240C 353.142 246 337.142 268 351.142 278C 361.142 282 369.142 272 373.142 264"/>
<path fill="none" stroke-width="6" stroke="#3f3fff" d="M 85.1421 264C 85.1421 258 91.1421 256 93.1421 254C 99.1421 252 107.142 256 109.142 252C 113.142 250 109.142 240 113.142 236C 123.142 222 141.142 220 159.142 218C 167.142 218 175.142 206 177.142 196C 179.142 192 185.142 194 189.142 194"/>
<path fill="#ff9f3f" stroke-width="6" stroke="#7f0000" d="M 356.142 381C 372.142 381 379.142 378 393.142 384C 407.142 390 414.142 407 419.142 422C 424.142 437 427.142 449 419.142 464C 411.142 479 397.142 485 381.142 488C 365.142 491 332.142 476 318.142 463C 300.664 446.77 309.065 446.064 314.475 429.833L 356.142 381z"/>
<path fill="#ff9f3f" stroke-width="6" stroke="#7f0000" d="M 346.142 410.333C 336.695 422.234 321.345 432.409 315.809 428.833C 307.809 423.667 314.142 395.167 318.642 390.667C 323.142 386.167 351.142 381.833 355.142 384C 358.569 385.856 355.208 398.913 346.142 410.333z"/>
<path fill="none" stroke-width="6" stroke="#7f0000" d="M 387.142 378C 387.142 370 395.142 360 405.142 362"/>
<path fill="none" stroke-width="6" stroke="#3f3fff" d="M 409.142 372L 429.142 330L 477.142 378L 437.142 394L 409.142 372z"/>
<path fill="none" stroke-width="6" stroke="#3f3fff" d="M 196.475 332.667C 195.87 357.476 195.383 389.435 193.956 413.988"/>
<path fill="none" stroke-width="6" stroke="#3f3fff" d="M 193.355 424.074C 190.112 477.275 185.766 508.207 183.142 562"/>
<path fill="none" stroke-width="6" stroke="#3f3fff" d="M 193.142 374C 169.142 396 145.142 418 123.142 442C 181.142 430 237.142 414 293.142 396C 295.142 394 291.142 380 295.142 376C 297.142 372 305.142 374 311.142 374"/>
<path fill="#ff9f3f" stroke-width="6" stroke="#7f0000" d="M 321.142 382C 317.142 382 311.142 380 307.142 382C 305.142 384 305.142 392 307.142 392C 317.142 398 321.142 392 321.142 382z"/>
<path fill="none" stroke-width="6" stroke="#3f3fff" d="M 421.571 382.411C 417.343 386.856 417.458 387.652 413.142 392"/>
<path fill="none" stroke-width="6" stroke="#3f3fff" d="M 307.142 422C 297.949 417.821 280.023 411.547 261.248 405.658"/>
<path fill="none" stroke-width="6" stroke="#3f3fff" d="M 247.045 401.327C 225.695 395.006 202.82 388 196.142 388"/>
<path fill="none" stroke-width="6" stroke="#7f0000" d="M 449.142 390C 449.142 400 451.142 410 447.142 420C 445.142 428 437.142 438 427.142 442"/>
<path fill="none" stroke-width="6" stroke="#3f3fff" d="M 37.1421 588L 385.142 538L 591.142 620L 213.142 734L 37.1421 588z"/>
<path fill="#ff9f3f" stroke-width="6" stroke="#7f0000" d="M 214.142 627.385C 238.354 627.385 257.983 619.154 257.983 609C 257.983 598.846 238.354 590.615 214.142 590.615C 189.93 590.615 170.301 598.846 170.301 609C 170.301 619.154 189.93 627.385 214.142 627.385z"/>
<path fill="#ff9f3f" stroke-width="6" stroke="#7f0000" d="M 214.455 664.822C 238.667 664.822 258.295 656.591 258.295 646.438C 258.295 636.284 238.667 628.053 214.455 628.053C 190.243 628.053 170.614 636.284 170.614 646.438C 170.614 656.591 190.243 664.822 214.455 664.822z"/>
<path fill="#ff9f3f" stroke-width="6" stroke="#7f0000" d="M 264.33 696.635C 288.542 696.635 308.17 688.404 308.17 678.25C 308.17 668.096 288.542 659.865 264.33 659.865C 240.118 659.865 220.489 668.096 220.489 678.25C 220.489 688.404 240.118 696.635 264.33 696.635z"/>
<path fill="#ff9f3f" stroke-width="6" stroke="#7f0000" d="M 307.142 613.885C 331.354 613.885 350.983 605.654 350.983 595.5C 350.983 585.346 331.354 577.115 307.142 577.115C 282.93 577.115 263.302 585.346 263.302 595.5C 263.302 605.654 282.93 613.885 307.142 613.885z"/>
<path fill="#ff9f3f" stroke-width="6" stroke="#7f0000" d="M 401.809 627.218C 426.021 627.218 445.649 618.987 445.649 608.833C 445.649 598.68 426.021 590.449 401.809 590.449C 377.597 590.449 357.968 598.68 357.968 608.833C 357.968 618.987 377.597 627.218 401.809 627.218z"/>
<path fill="#ff9f3f" stroke-width="6" stroke="#7f0000" d="M 119.767 617.447C 143.979 617.447 163.608 609.216 163.608 599.062C 163.608 588.909 143.979 580.678 119.767 580.678C 95.555 580.678 75.9265 588.909 75.9265 599.062C 75.9265 609.216 95.555 617.447 119.767 617.447z"/>
<path fill="#ff9f3f" stroke-width="6" stroke="#7f0000" d="M 444.835 612.915C 445.948 611.295 446.545 609.583 446.545 607.812C 446.545 597.659 426.917 589.428 402.705 589.428C 378.493 589.428 358.864 597.659 358.864 607.812C 358.864 613.811 365.716 619.139 376.316 622.495"/>
<path fill="#ff9f3f" stroke-width="6" stroke="#7f0000" d="M 376.767 585.322C 400.979 585.322 420.608 577.091 420.608 566.938C 420.608 556.784 400.979 548.553 376.767 548.553C 352.555 548.553 332.927 556.784 332.927 566.938C 332.927 577.091 352.555 585.322 376.767 585.322z"/>
<path fill="#ff9f3f" stroke-width="6" stroke="#7f0000" d="M 321.142 660C 345.354 660 364.983 651.769 364.983 641.615C 364.983 631.462 345.354 623.23 321.142 623.23C 296.93 623.23 277.302 631.462 277.302 641.615C 277.302 651.769 296.93 660 321.142 660z"/>
<path fill="#ff9f3f" stroke-width="6" stroke="#7f0000" d="M 497.142 627.938C 521.354 627.938 540.983 619.706 540.983 609.553C 540.983 599.399 521.354 591.168 497.142 591.168C 472.93 591.168 453.302 599.399 453.302 609.553C 453.302 619.706 472.93 627.938 497.142 627.938z"/>
<path fill="none" stroke-width="6" stroke="#3f3fff" d="M 63.1421 610L 97.1421 744L 187.142 710L 245.142 722L 393.142 788L 551.142 630L 541.142 604"/>
<path fill="#9f9f3f" stroke-width="6" stroke="#3f3fff" d="M 187.142 710L 246.809 723.333L 212.142 734.667L 187.142 710z"/>
<path fill="none" stroke-width="6" stroke="#3f3fff" d="M 314.892 753.75L 314.642 791.75"/>
</g>
<g>
<g>
<path fill="#ff9f3f" stroke-width="6" stroke="#000000" d="M 249.17 581.002C 249.17 603.906 232.956 622.474 212.955 622.474C 192.954 622.474 176.739 603.906 176.739 581.002L 249.17 581.002z"/>
<path fill="none" stroke-width="6" stroke="#000000" d="M 247.698 592.915C 247.698 592.915 253.565 589.738 257.539 589.738C 261.513 589.738 262.081 594.305 261.892 598.673C 261.703 603.041 256.404 607.012 249.023 610.188C 241.642 613.365 235.775 613.564 235.775 613.564"/>
</g>
<path fill="#ffffff" stroke="none" d="M 213.611 594.981C 233.565 594.981 249.742 587.868 249.742 579.094C 249.742 570.32 233.565 563.207 213.611 563.207C 193.656 563.207 177.48 570.32 177.48 579.094C 177.48 587.868 193.656 594.981 213.611 594.981z"/>
<g>
<path fill="#ff9f3f" stroke-width="6" stroke="#000000" d="M 257.17 617.002C 257.17 639.906 240.956 658.474 220.955 658.474C 200.954 658.474 184.739 639.906 184.739 617.002L 257.17 617.002z"/>
<path fill="none" stroke-width="6" stroke="#000000" d="M 255.698 628.915C 255.698 628.915 261.565 625.738 265.539 625.738C 269.513 625.738 270.081 630.305 269.892 634.673C 269.703 639.041 264.404 643.012 257.023 646.188C 249.642 649.365 243.775 649.564 243.775 649.564"/>
</g>
<path fill="#ffffff" stroke="none" d="M 221.111 630.981C 241.065 630.981 257.242 623.868 257.242 615.094C 257.242 606.32 241.065 599.207 221.111 599.207C 201.156 599.207 184.98 606.32 184.98 615.094C 184.98 623.868 201.156 630.981 221.111 630.981z"/>
<path fill="#bfbf7f" stroke-width="4" stroke="#9f9f3f" d="M 194.115 626.6C 201.642 630.5 212.142 633.5 227.642 632.5C 245.556 631.344 245.142 630 251.508 623.75C 257.082 618.278 238.528 609.608 222.517 609.608C 206.506 609.608 193.526 615.94 193.526 623.75C 193.526 624.726 193.228 626.141 194.115 626.6z"/>
<g>
<path fill="#ff9f3f" stroke-width="6" stroke="#000000" d="M 158.232 567.815C 158.232 590.719 142.018 609.287 122.017 609.287C 102.016 609.287 85.8018 590.719 85.8018 567.815L 158.232 567.815z"/>
<path fill="none" stroke-width="6" stroke="#000000" d="M 156.76 579.727C 156.76 579.727 162.627 576.551 166.602 576.551C 170.576 576.551 171.144 581.117 170.954 585.485C 170.765 589.853 165.466 593.824 158.085 597.001C 150.704 600.178 144.837 600.376 144.837 600.376"/>
</g>
<path fill="#ffffff" stroke="none" d="M 122.173 581.793C 142.128 581.793 158.305 574.68 158.305 565.906C 158.305 557.132 142.128 550.019 122.173 550.019C 102.219 550.019 86.042 557.132 86.042 565.906C 86.042 574.68 102.219 581.793 122.173 581.793z"/>
<g>
<path fill="#ff9f3f" stroke-width="6" stroke="#000000" d="M 347.17 561.002C 347.17 583.906 330.956 602.474 310.955 602.474C 290.954 602.474 274.739 583.906 274.739 561.002L 347.17 561.002z"/>
<path fill="none" stroke-width="6" stroke="#000000" d="M 345.698 572.915C 345.698 572.915 351.565 569.738 355.539 569.738C 359.513 569.738 360.081 574.305 359.892 578.673C 359.703 583.041 354.404 587.012 347.023 590.188C 339.642 593.365 333.775 593.564 333.775 593.564"/>
</g>
<path fill="#ffffff" stroke-width="6" stroke="#000000" d="M 311.142 576C 331.097 576 347.274 568.887 347.274 560.113C 347.274 551.339 331.097 544.226 311.142 544.226C 291.188 544.226 275.011 551.339 275.011 560.113C 275.011 568.887 291.188 576 311.142 576z"/>
<g>
<path fill="#ff9f3f" stroke-width="6" stroke="#000000" d="M 419.357 533.264C 419.357 556.168 403.143 574.736 383.142 574.736C 363.141 574.736 346.927 556.168 346.927 533.264L 419.357 533.264z"/>
<path fill="none" stroke-width="6" stroke="#000000" d="M 417.885 545.177C 417.885 545.177 423.752 542 427.727 542C 431.701 542 432.269 546.567 432.079 550.935C 431.89 555.303 426.591 559.274 419.21 562.451C 411.829 565.627 405.962 565.826 405.962 565.826"/>
</g>
<path fill="#ffffff" stroke-width="6" stroke="#000000" d="M 383.33 548.262C 403.284 548.262 419.461 541.149 419.461 532.375C 419.461 523.601 403.284 516.488 383.33 516.488C 363.375 516.488 347.198 523.601 347.198 532.375C 347.198 541.149 363.375 548.262 383.33 548.262z"/>
<g>
<path fill="#ff9f3f" stroke-width="6" stroke="#000000" d="M 360.17 609.577C 360.17 632.481 343.955 651.049 323.955 651.049C 303.954 651.049 287.739 632.481 287.739 609.577L 360.17 609.577z"/>
<path fill="none" stroke-width="6" stroke="#000000" d="M 358.698 621.489C 358.698 621.489 364.565 618.313 368.539 618.313C 372.513 618.313 373.081 622.879 372.892 627.247C 372.703 631.615 367.403 635.586 360.023 638.763C 352.642 641.94 346.775 642.138 346.775 642.138"/>
</g>
<path fill="#ffffff" stroke-width="6" stroke="#000000" d="M 324.142 624.575C 344.097 624.575 360.273 617.461 360.273 608.688C 360.273 599.913 344.097 592.8 324.142 592.8C 304.188 592.8 288.011 599.913 288.011 608.688C 288.011 617.461 304.188 624.575 324.142 624.575z"/>
<g>
<path fill="#ff9f3f" stroke-width="6" stroke="#000000" d="M 445.17 583.002C 445.17 605.906 428.955 624.474 408.955 624.474C 388.954 624.474 372.739 605.906 372.739 583.002L 445.17 583.002z"/>
<path fill="none" stroke-width="6" stroke="#000000" d="M 443.698 594.915C 443.698 594.915 449.565 591.738 453.539 591.738C 457.513 591.738 458.081 596.305 457.892 600.673C 457.703 605.041 452.403 609.012 445.023 612.188C 437.642 615.365 431.775 615.564 431.775 615.564"/>
</g>
<path fill="#ffffff" stroke-width="6" stroke="#000000" d="M 409.142 598C 429.097 598 445.273 590.887 445.273 582.113C 445.273 573.339 429.097 566.226 409.142 566.226C 389.188 566.226 373.011 573.339 373.011 582.113C 373.011 590.887 389.188 598 409.142 598z"/>
<g>
<path fill="#ff9f3f" stroke-width="6" stroke="#000000" d="M 533.17 577.002C 533.17 599.906 516.955 618.474 496.955 618.474C 476.954 618.474 460.739 599.906 460.739 577.002L 533.17 577.002z"/>
<path fill="none" stroke-width="6" stroke="#000000" d="M 531.698 588.915C 531.698 588.915 537.565 585.738 541.539 585.738C 545.513 585.738 546.081 590.305 545.892 594.673C 545.703 599.041 540.403 603.012 533.022 606.188C 525.642 609.365 519.775 609.564 519.775 609.564"/>
</g>
<path fill="#ffffff" stroke-width="6" stroke="#000000" d="M 497.142 592C 517.097 592 533.273 584.887 533.273 576.113C 533.273 567.339 517.097 560.226 497.142 560.226C 477.188 560.226 461.011 567.339 461.011 576.113C 461.011 584.887 477.188 592 497.142 592z"/>
<path fill="none" stroke-width="6" stroke="#000000" d="M 221.142 632C 241.097 632 257.273 624.887 257.273 616.113C 257.273 607.339 241.097 600.226 221.142 600.226C 201.188 600.226 185.011 607.339 185.011 616.113C 185.011 624.887 201.188 632 221.142 632z"/>
<g>
<path fill="#ff9f3f" stroke-width="6" stroke="#000000" d="M 301.17 644.889C 301.17 667.793 284.955 686.361 264.955 686.361C 244.954 686.361 228.739 667.793 228.739 644.889L 301.17 644.889z"/>
<path fill="none" stroke-width="6" stroke="#000000" d="M 299.698 656.802C 299.698 656.802 305.565 653.625 309.539 653.625C 313.513 653.625 314.081 658.192 313.892 662.56C 313.703 666.928 308.403 670.899 301.023 674.076C 293.642 677.252 287.775 677.451 287.775 677.451"/>
</g>
<path fill="#ffffff" stroke-width="6" stroke="#000000" d="M 265.142 659.887C 285.097 659.887 301.273 652.774 301.273 644C 301.273 635.226 285.097 628.113 265.142 628.113C 245.188 628.113 229.011 635.226 229.011 644C 229.011 652.774 245.188 659.887 265.142 659.887z"/>
<path fill="#bfbf7f" stroke-width="4" stroke="#9f9f3f" d="M 214.392 597.021C 230.208 597.021 243.03 591.639 243.03 585C 243.03 578.361 230.208 572.979 214.392 572.979C 198.576 572.979 185.754 578.361 185.754 585C 185.754 591.639 198.576 597.021 214.392 597.021z"/>
<path fill="#bfbf7f" stroke-width="4" stroke="#9f9f3f" d="M 121.892 584.021C 137.708 584.021 150.53 578.639 150.53 572C 150.53 565.361 137.708 559.979 121.892 559.979C 106.076 559.979 93.2543 565.361 93.2543 572C 93.2543 578.639 106.076 584.021 121.892 584.021z"/>
<path fill="none" stroke-width="6" stroke="#000000" d="M 213.142 596C 233.097 596 249.273 588.887 249.273 580.113C 249.273 571.339 233.097 564.226 213.142 564.226C 193.188 564.226 177.011 571.339 177.011 580.113C 177.011 588.887 193.188 596 213.142 596z"/>
<path fill="none" stroke-width="6" stroke="#000000" d="M 122.205 582.812C 142.159 582.812 158.336 575.699 158.336 566.925C 158.336 558.151 142.159 551.038 122.205 551.038C 102.25 551.038 86.0732 558.151 86.0732 566.925C 86.0732 575.699 102.25 582.812 122.205 582.812z"/>
</g>
<g>
<path fill="#bfbf7f" stroke-width="4" stroke="#9f9f3f" d="M 239.642 619.75L 238.913 606.812L 238.038 609.438L 242.163 602.312C 243.163 594.062 239.288 585.812 244.163 577.438L 245.288 574.562C 245.538 573.812 245.538 573.062 245.288 572.438L 244.788 570.562C 244.663 570.062 244.538 569.562 244.163 569.188L 242.913 567.438L 243.538 569.312L 241.663 563.438C 241.538 563.688 241.288 563.938 241.163 564.188C 243.913 558.938 243.288 553.312 242.663 547.688L 241.163 542.312L 241.038 543.312L 242.663 541.688C 247.663 523.312 244.288 504.312 246.788 485.812L 246.413 483.562C 246.163 482.438 245.288 481.688 244.163 481.312L 243.413 481.188L 244.288 481.562L 243.038 478.938L 244.288 480.688L 244.038 479.812C 243.788 478.812 243.038 478.062 242.038 477.812L 241.788 477.812L 241.788 477.812L 241.288 477.812L 241.288 477.812L 240.538 477.688L 242.288 480.188L 244.288 475.938C 244.038 475.938 243.788 476.062 243.538 476.062C 243.413 474.188 242.288 472.188 244.413 470.688C 244.538 470.438 244.538 470.062 244.163 469.938C 243.913 469.812 243.538 469.812 243.413 470.188L 243.413 470.188C 241.288 472.062 239.913 474.312 238.913 476.938L 238.163 478.438C 237.913 478.812 237.788 479.062 237.663 479.438C 237.413 480.688 238.163 481.938 239.413 482.188L 240.163 482.562L 240.163 482.562L 240.663 482.688L 240.663 482.688L 240.913 482.812L 238.913 480.812L 239.038 481.688L 239.038 481.688L 239.788 484.812C 240.038 485.938 240.913 486.812 242.038 487.062L 242.788 487.312L 240.538 485.062L 240.788 485.812C 240.413 489.438 239.163 493.062 239.663 496.562C 240.288 501.062 240.788 505.062 239.163 510.688C 238.663 512.312 240.788 514.812 240.163 516.312C 237.038 523.438 238.413 530.188 238.663 537.562L 235.538 540.188C 235.038 540.812 234.788 541.438 234.788 542.188L 235.038 545.938C 239.538 552.562 234.038 559.438 235.163 566.312L 236.538 571.188C 236.663 571.438 236.788 571.562 236.913 571.812L 238.163 573.562L 237.538 572.312L 237.913 574.312L 238.038 572.188L 237.538 573.688C 231.663 582.188 234.413 592.688 233.788 602.312L 231.163 604.562C 230.663 605.312 230.538 606.188 230.538 606.938L 230.788 620.438C 230.469 622.283 230.012 621.375 229.892 623.25"/>
<path fill="#bfbf7f" stroke-width="4" stroke="#9f9f3f" d="M 246.746 491.312C 244.496 496.938 240.288 501.271 236.413 505.854L 235.413 507.396L 235.538 506.812L 235.455 507.104C 234.621 509.896 233.955 512.771 233.621 515.688C 233.33 517.229 234.33 518.646 235.83 518.938C 237.371 519.188 238.788 518.188 239.08 516.688C 239.621 514.312 240.288 512.021 240.746 509.646L 240.746 508.604L 238.83 510.396L 241.413 507.979C 244.371 502.729 248.08 497.979 248.038 491.688C 248.121 491.354 247.913 490.979 247.58 490.854C 247.205 490.771 246.83 490.938 246.746 491.312L 246.746 491.312z"/>
<path fill="#bfbf7f" stroke-width="4" stroke="#9f9f3f" d="M 243.58 543.438C 242.538 547.646 241.538 551.562 238.871 555.271C 236.663 558.354 233.08 559.229 230.955 562.104C 228.746 565.021 226.413 569.521 229.455 573.146C 230.205 574.604 231.996 575.146 233.496 574.396C 234.955 573.646 235.496 571.812 234.746 570.354C 234.038 568.688 234.705 566.938 235.705 566.104C 240.163 562.521 244.33 558.729 245.746 553.146C 246.538 549.854 245.038 546.812 245.038 543.604C 245.08 543.188 244.788 542.812 244.413 542.771C 243.996 542.729 243.621 543.021 243.58 543.438L 243.58 543.438z"/>
<path fill="#bfbf7f" stroke-width="4" stroke="#9f9f3f" d="M 234.392 621C 236.117 614.02 239.961 611.998 243.205 605.438C 244.538 602.771 243.788 599.896 243.621 597.062C 243.83 596.729 243.705 596.271 243.33 596.062C 242.996 595.854 242.538 595.979 242.33 596.354L 242.33 596.354C 240.871 597.396 240.455 599.229 239.663 600.729C 234.955 609.812 225.559 608.833 225.642 620"/>
</g>
<g>
<path fill="#ff9f3f" stroke-width="6" stroke="#7f0000" d="M 383.642 602C 383.642 602 407.855 591.123 412.999 592.061C 418.142 593 436.142 599.5 437.142 602C 438.142 604.5 438.642 627.5 436.642 636C 434.642 644.5 434.642 649.5 429.142 654C 423.642 658.5 417.642 661 407.642 658C 397.642 655 394.642 645 393.642 639C 392.642 633 395.642 622 393.642 615.5C 391.642 609 385.642 606.5 382.642 605.5C 379.642 604.5 383.642 602 383.642 602z"/>
<path fill="#ffffff" stroke-width="6" stroke="#7f0000" d="M 387.142 603.5L 387.142 598.5C 387.142 598.5 406.355 590.123 412.999 592.061C 419.642 594 438.142 598 437.142 602C 436.142 606 424.642 610.5 416.642 611.5C 408.642 612.5 390.142 606 387.642 606C 385.142 606 387.142 603.5 387.142 603.5z"/>
<path fill="none" stroke-width="6" stroke="#7f0000" d="M 380.281 603.059C 380.281 603.059 398.458 611.962 412.479 611.962C 426.501 611.962 439.484 603.059 439.484 603.059L 441.042 612.485C 441.042 612.485 451.169 605.677 453.766 611.962C 458.003 622.216 450.39 639.194 445.716 642.336C 441.042 645.478 433.253 648.62 433.253 648.62"/>
<path fill="none" stroke-width="6" stroke="#7f0000" d="M 380.281 603.059C 380.281 603.059 392.485 605.416 392.485 621.126C 392.485 636.837 391.773 644.604 399.237 653.071C 403.391 657.785 424.424 661.189 430.656 653.333C 436.888 645.478 439.484 603.059 439.484 603.059C 439.484 603.059 427.021 592.061 412.999 592.061C 398.977 592.061 380.281 603.059 380.281 603.059z"/>
</g>
</g>
<g>
    <animateTransform attributeName="transform" type="scale"
            additive="replace" fill="freeze" 
            values="1.0; 0.2" begin="btn1.click" dur="1"/>
    <animateTransform attributeName="transform" type="scale"
            additive="replace" fill="freeze" 
            values="0.2; 1.0" begin="btn2.click" dur="1"/>
<g>
<g>
<path fill="#ff9f3f" stroke-width="6" stroke="#000000" d="M 372.482 495.593C 372.482 553.272 415.319 600.032 468.16 600.032C 521.002 600.032 563.839 553.272 563.839 495.593L 372.482 495.593z"/>
<path fill="none" stroke-width="6" stroke="#000000" d="M 376.371 525.593C 376.371 525.593 360.871 517.593 350.371 517.593C 339.871 517.593 338.371 529.093 338.871 540.093C 339.371 551.093 353.371 561.093 372.871 569.093C 392.371 577.093 407.871 577.593 407.871 577.593"/>
</g>
<g>
<path fill="#ff9f3f" stroke-width="6" stroke="#000000" d="M 65.1391 495.593C 65.1391 553.272 107.977 600.032 160.818 600.032C 213.659 600.032 256.496 553.272 256.496 495.593L 65.1391 495.593z"/>
<path fill="none" stroke-width="6" stroke="#000000" d="M 69.0283 525.593C 69.0283 525.593 53.5283 517.593 43.0283 517.593C 32.5283 517.593 31.0283 529.093 31.5283 540.093C 32.0283 551.093 46.0283 561.093 65.5283 569.093C 85.0283 577.093 100.528 577.593 100.528 577.593"/>
</g>
</g>
<g>
<g>
<path fill="#ff9f3f" stroke-width="6" stroke="#000000" d="M 372.482 39.7806C 372.482 97.4598 415.319 144.22 468.16 144.22C 521.002 144.22 563.839 97.4598 563.839 39.7806L 372.482 39.7806z"/>
<path fill="none" stroke-width="6" stroke="#000000" d="M 376.371 69.7806C 376.371 69.7806 360.871 61.7806 350.371 61.7806C 339.871 61.7806 338.371 73.2806 338.871 84.2806C 339.371 95.2806 353.371 105.281 372.871 113.281C 392.371 121.281 407.871 121.781 407.871 121.781"/>
</g>
<g>
<path fill="#ff9f3f" stroke-width="6" stroke="#000000" d="M 65.1391 39.7806C 65.1391 97.4598 107.977 144.22 160.818 144.22C 213.659 144.22 256.496 97.4598 256.496 39.7806L 65.1391 39.7806z"/>
<path fill="none" stroke-width="6" stroke="#000000" d="M 69.0283 69.7806C 69.0283 69.7806 53.5283 61.7806 43.0283 61.7806C 32.5283 61.7806 31.0283 73.2806 31.5283 84.2806C 32.0283 95.2806 46.0283 105.281 65.5283 113.281C 85.0283 121.281 100.528 121.781 100.528 121.781"/>
</g>
</g>
<g>
<g>
<path fill="#ff9f3f" stroke-width="6" stroke="#000000" d="M 253.011 647.531C 253.011 705.21 210.173 751.969 157.332 751.969C 104.491 751.969 61.6536 705.21 61.6536 647.531L 253.011 647.531z"/>
<path fill="none" stroke-width="6" stroke="#000000" d="M 249.122 677.531C 249.122 677.531 264.622 669.531 275.122 669.531C 285.622 669.531 287.122 681.031 286.622 692.031C 286.122 703.031 272.122 713.031 252.622 721.031C 233.122 729.031 217.622 729.531 217.622 729.531"/>
</g>
<g>
<path fill="#ff9f3f" stroke-width="6" stroke="#000000" d="M 560.354 647.531C 560.354 705.21 517.516 751.969 464.675 751.969C 411.834 751.969 368.996 705.21 368.996 647.531L 560.354 647.531z"/>
<path fill="none" stroke-width="6" stroke="#000000" d="M 556.464 677.531C 556.464 677.531 571.964 669.531 582.464 669.531C 592.964 669.531 594.464 681.031 593.964 692.031C 593.464 703.031 579.464 713.031 559.964 721.031C 540.464 729.031 524.964 729.531 524.964 729.531"/>
</g>
</g>
<g>
<path fill="#ff9f3f" stroke-width="6" stroke="#000000" d="M 376.802 343.655C 376.802 401.335 333.965 448.095 281.124 448.095C 228.283 448.095 185.445 401.335 185.445 343.655L 376.802 343.655z"/>
<path fill="none" stroke-width="6" stroke="#000000" d="M 372.913 373.655C 372.913 373.655 388.413 365.655 398.913 365.655C 409.413 365.655 410.913 377.155 410.413 388.155C 409.913 399.155 395.913 409.155 376.413 417.155C 356.913 425.155 341.413 425.655 341.413 425.655"/>
</g>
<g>
<g>
<path fill="#ff9f3f" stroke-width="6" stroke="#000000" d="M 256.802 191.718C 256.802 249.397 213.965 296.157 161.124 296.157C 108.283 296.157 65.4451 249.397 65.4451 191.718L 256.802 191.718z"/>
<path fill="none" stroke-width="6" stroke="#000000" d="M 252.913 221.718C 252.913 221.718 268.413 213.718 278.913 213.718C 289.413 213.718 290.913 225.218 290.413 236.218C 289.913 247.218 275.913 257.218 256.413 265.218C 236.913 273.218 221.413 273.718 221.413 273.718"/>
</g>
<g>
<path fill="#ff9f3f" stroke-width="6" stroke="#000000" d="M 564.145 191.718C 564.145 249.397 521.308 296.157 468.467 296.157C 415.626 296.157 372.788 249.397 372.788 191.718L 564.145 191.718z"/>
<path fill="none" stroke-width="6" stroke="#000000" d="M 560.256 221.718C 560.256 221.718 575.756 213.718 586.256 213.718C 596.756 213.718 598.256 225.218 597.756 236.218C 597.256 247.218 583.256 257.218 563.756 265.218C 544.256 273.218 528.756 273.718 528.756 273.718"/>
</g>
</g>
</g>
</svg>