<svg xmlns="http://www.w3.org/2000/svg"
	xmlns:xlink="http://www.w3.org/1999/xlink"
	viewBox="30.4 21.7 577 792"
	width="635.39" height="837.157">
<g id="scene">
    <set attributeName="opacity" to="1" 
		    fill="freeze" begin="btn1.click"/>
    <set attributeName="opacity" to="0" 
		    fill="freeze" begin="btn2.click"/>
    <set attributeName="opacity" to="0" 
		    fill="freeze" begin="scene.load"/>
<g>
<path fill="#7fbfff" stroke="none" d="M 607.449 813.712L 607.449 21.7122L 30.4495 21.7122L 30.4495 813.712L 607.449 813.712z"/>
<path fill="#3f9fff" stroke-width="6" stroke="#bfdfff" d="M 475.044 607.076C 479.697 607.076 483.469 602.837 483.469 597.607L 483.469 237.818C 483.469 232.588 479.697 228.349 475.044 228.349L 154.886 228.349C 150.233 228.349 146.461 232.588 146.461 237.818L 146.461 597.607C 146.461 602.837 150.233 607.076 154.886 607.076L 475.044 607.076z"/>
</g>
<g>
<path fill="#7f7f7f" stroke="none" d="M 35.4451 475.712L 231.445 481.712L 340.445 474.712L 443.445 474.712L 435.445 618.462L 61.4451 616.462L 37.4451 657.712L 35.4451 475.712z"/>
<path fill="#bfbfbf" stroke="none" d="M 92.4451 393.212C 92.4451 393.212 62.4451 416.212 55.4451 435.712C 48.4451 455.212 43.4451 489.212 57.4451 508.712C 71.4451 528.212 103.945 542.712 124.445 546.212C 144.945 549.712 164.445 555.212 174.945 529.712C 185.445 504.212 206.445 466.212 196.445 445.212C 186.445 424.212 166.945 410.212 145.445 403.212C 123.945 396.212 107.945 390.712 92.4451 393.212z"/>
<path fill="#bfbfbf" stroke="none" d="M 176.945 287.712C 176.945 287.712 169.445 300.712 169.945 319.712C 170.445 338.712 171.445 355.212 171.445 355.212C 171.445 355.212 193.945 385.212 221.945 390.212C 249.945 395.212 277.945 395.212 284.445 383.712C 290.945 372.212 299.445 347.212 295.445 331.712C 291.445 316.212 276.279 285.221 268.445 278.212C 258.945 269.712 234.445 270.212 214.945 269.712C 195.445 269.212 179.445 276.712 176.945 287.712z"/>
<path fill="#bfbfbf" stroke="none" d="M 488.945 293.712C 488.945 293.712 472.445 300.712 467.445 314.712C 462.445 328.712 455.945 357.712 461.945 376.212C 467.945 394.712 474.945 412.212 491.945 418.212C 508.945 424.212 554.445 425.712 564.945 416.712C 575.445 407.712 589.945 382.212 592.445 362.212C 594.945 342.212 599.945 328.712 579.445 312.212C 558.945 295.712 533.945 281.712 514.945 285.212C 495.945 288.712 488.945 293.712 488.945 293.712z"/>
<path fill="#7f7f7f" stroke="none" d="M 585.945 484.712C 585.945 484.712 599.945 474.712 596.445 463.212C 592.945 451.712 590.945 453.212 580.445 452.212C 569.945 451.212 560.445 443.712 571.945 434.712C 583.445 425.712 583.445 417.712 582.445 406.712C 581.445 395.712 572.445 367.712 571.445 360.212C 570.445 352.712 573.945 354.712 563.945 344.712C 553.945 334.712 545.445 329.212 545.445 316.212C 545.445 303.212 547.945 302.212 531.945 307.712C 515.696 313.298 503.945 323.212 493.445 322.212C 482.945 321.212 487.945 292.712 484.445 301.212C 480.945 309.712 482.945 317.712 474.945 322.712C 466.945 327.712 464.445 327.212 449.445 329.212C 434.445 331.212 431.445 329.712 430.945 338.712C 430.445 347.712 433.945 355.712 428.945 362.212C 423.945 368.712 405.445 364.712 399.945 371.212C 394.445 377.712 393.445 390.212 393.445 390.212C 393.445 390.212 398.445 381.212 406.945 380.212C 415.445 379.212 448.445 380.712 448.445 380.712L 464.945 382.212C 464.945 382.212 460.445 355.712 460.945 343.212C 461.445 330.712 463.445 321.212 468.945 311.712C 474.445 302.212 498.945 283.212 517.445 284.712C 535.945 286.212 561.445 293.212 573.445 304.212C 585.445 315.212 596.945 324.212 595.945 340.212C 594.945 356.212 600.445 367.212 597.445 375.712C 594.445 384.212 600.945 395.712 600.945 406.212C 600.945 416.712 595.945 431.212 588.945 436.712C 581.945 442.212 579.445 438.712 577.445 444.712C 575.445 450.712 582.445 456.712 585.945 464.212C 589.445 471.712 585.945 484.712 585.945 484.712z"/>
<path fill="#7f7f7f" stroke="none" d="M 334.945 70.7122C 351.945 64.7122 379.445 61.7122 379.445 61.7122L 387.945 73.7122C 387.945 73.7122 420.945 71.2122 432.445 84.2122C 443.945 97.2122 455.445 121.712 453.445 142.712C 451.445 163.712 439.945 188.712 426.945 196.712C 413.945 204.712 364.945 209.212 347.945 201.212C 330.945 193.212 318.445 186.712 309.445 157.212C 300.445 127.712 302.445 116.212 309.445 103.712C 316.445 91.2122 334.945 70.7122 334.945 70.7122z"/>
<path fill="#3f3f3f" stroke="none" d="M 344.945 149.212C 364.547 141.991 375.843 140.434 390.945 153.212C 397.445 158.712 399.445 171.712 392.945 182.212C 386.445 192.712 369.945 201.712 356.445 196.712C 342.945 191.712 333.945 186.712 335.445 171.212C 336.945 155.712 344.945 149.212 344.945 149.212z"/>
<path fill="#bfbfbf" stroke="none" d="M 379.508 62.5247C 379.508 62.5247 371.508 48.0247 379.008 41.5247C 386.508 35.0247 398.008 30.5247 405.508 31.5247C 413.008 32.5247 426.508 34.5247 427.508 38.5247C 428.508 42.5247 417.008 44.5247 417.008 44.5247C 417.008 44.5247 419.733 41.4427 413.945 39.7122C 407.883 37.8997 403.945 40.2122 399.445 44.2122C 393.316 49.6604 399.805 55.9388 400.445 58.7122C 401.945 65.2122 403.008 69.5247 403.008 69.5247L 388.008 74.5247"/>
<path fill="#7f7f7f" stroke="none" d="M 199.445 279.712L 193.445 298.212C 193.445 298.212 212.945 293.712 213.945 299.212C 214.945 304.712 194.945 310.212 197.445 314.712C 199.945 319.212 213.445 315.712 213.445 315.712L 209.945 311.712C 209.945 311.712 226.945 307.212 225.445 299.712C 223.945 292.212 213.945 290.712 213.445 285.712C 212.945 280.712 217.945 279.212 229.945 278.212C 241.945 277.212 247.945 280.212 256.945 282.712C 265.945 285.212 281.445 289.712 281.445 289.712C 281.445 289.712 273.445 272.212 262.445 270.712C 251.445 269.212 224.445 260.212 205.945 265.712C 187.445 271.212 174.445 295.212 174.445 295.212L 193.945 288.712L 199.445 279.712z"/>
<path fill="#bfbfbf" stroke="none" d="M 33.4451 546.379L 79.4451 534.379L 96.7784 537.046L 185.445 541.046C 185.445 541.046 202.112 545.046 206.778 575.046C 211.445 605.046 204.778 621.712 197.445 644.379C 190.112 667.046 187.445 669.046 177.445 680.379C 167.445 691.712 144.778 709.046 124.778 716.379C 104.778 723.712 86.1118 729.046 86.1118 729.046C 86.1118 729.046 79.4451 737.712 65.4451 737.712C 51.4451 737.712 42.7784 737.712 38.7784 726.379C 34.7784 715.046 30.7784 703.712 30.7784 703.712L 33.4451 546.379z"/>
</g>
<g>
<path fill="#7f7f7f" stroke="none" d="M 305.445 755.712L 363.445 738.212L 371.945 750.712L 305.445 755.712z"/>
<path fill="none" stroke-width="6" stroke="#007f7f" d="M 97.5909 392.441C 77.5909 395.108 57.5909 427.775 51.5909 447.108C 45.5909 466.441 45.5909 503.108 69.5909 523.108C 79.5909 531.108 115.591 543.108 121.591 545.108C 123.252 545.662 167.763 548.221 173.591 535.108C 179.591 523.108 185.591 509.108 189.591 495.108C 195.591 473.108 202.258 451.775 190.258 430.441C 178.258 409.108 117.591 389.775 97.5909 392.441z"/>
<path fill="none" stroke-width="6" stroke="#007f7f" d="M 127.445 545.712C 147.445 593.712 191.445 619.712 235.445 641.712C 251.445 649.712 265.445 659.712 281.445 665.712C 323.445 679.712 367.445 687.712 411.445 679.712C 425.445 657.712 433.445 631.712 443.445 607.712C 445.445 599.712 445.445 593.712 447.445 585.712C 459.445 543.712 479.445 509.712 489.445 467.712C 489.445 467.712 495.445 465.712 497.445 469.712C 509.445 493.712 515.445 515.712 521.445 541.712C 525.445 561.712 527.445 579.712 529.445 599.712C 535.445 627.712 529.445 653.712 535.445 681.712C 549.445 679.712 557.445 665.712 569.445 659.712"/>
<path fill="none" stroke-width="6" stroke="#007f7f" d="M 153.445 595.712C 115.445 597.712 77.4451 599.712 39.4451 595.712C 39.4451 595.712 39.4451 589.712 39.4451 587.712C 49.4451 569.712 58.5701 549.212 72.5701 533.212"/>
<path fill="none" stroke-width="6" stroke="#007f7f" d="M 111.445 465.712C 111.445 469.712 111.445 473.712 113.445 477.712"/>
<path fill="none" stroke-width="6" stroke="#007f7f" d="M 163.445 455.712C 163.445 461.712 163.445 465.712 163.445 471.712"/>
<path fill="none" stroke-width="6" stroke="#007f7f" d="M 121.445 529.712C 133.445 519.712 147.445 507.712 163.445 511.712"/>
<path fill="none" stroke-width="6" stroke="#007f7f" d="M 203.445 457.712C 221.445 457.712 241.445 453.712 259.445 455.712C 253.445 489.712 241.445 521.712 223.445 553.712C 215.445 569.712 203.445 581.712 191.445 595.712"/>
<path fill="none" stroke-width="6" stroke="#007f7f" d="M 80.9451 402.212C 82.9451 424.212 71.9451 423.712 67.9451 445.712C 67.9451 453.712 58.4451 472.712 58.4451 482.712"/>
<path fill="none" stroke-width="6" stroke="#007f7f" d="M 88.9451 395.712C 88.9451 399.712 95.4451 399.712 91.4451 401.712C 95.4451 405.712 91.9451 417.212 91.9451 421.212C 89.9451 437.212 93.4451 453.712 83.4451 469.712"/>
<path fill="none" stroke-width="6" stroke="#007f7f" d="M 106.445 392.712C 104.445 406.712 109.445 429.712 103.445 443.712"/>
<path fill="none" stroke-width="6" stroke="#007f7f" d="M 117.945 394.712C 117.945 412.712 119.445 437.712 119.445 455.712"/>
<path fill="none" stroke-width="6" stroke="#007f7f" d="M 131.945 398.712C 137.945 412.712 141.445 431.712 141.445 445.712"/>
<path fill="none" stroke-width="6" stroke="#007f7f" d="M 156.945 407.712C 156.945 409.712 156.945 430.212 156.945 432.212"/>
<path fill="none" stroke-width="6" stroke="#007f7f" d="M 405.445 679.712C 395.445 637.712 381.445 599.712 373.445 557.712C 371.445 535.712 367.445 515.712 371.445 493.712C 371.445 491.712 379.445 493.712 383.445 495.712C 401.445 511.712 421.445 523.712 429.445 545.712"/>
<path fill="none" stroke-width="6" stroke="#007f7f" d="M 555.445 293.712C 534.892 284.904 513.445 283.712 495.445 289.712C 459.445 301.712 453.445 349.712 465.445 385.712C 471.445 401.712 483.445 419.712 503.445 421.712C 521.445 423.712 541.445 425.712 559.445 419.712C 577.445 413.712 581.445 393.712 587.445 377.712C 593.445 359.712 601.445 337.712 589.445 323.712C 581.445 311.712 569.445 299.712 555.445 293.712z"/>
<path fill="none" stroke-width="6" stroke="#007f7f" d="M 531.445 425.712C 533.445 453.712 529.445 483.712 515.445 509.712"/>
<path fill="none" stroke-width="6" stroke="#007f7f" d="M 505.445 533.712C 495.445 569.712 477.445 599.712 465.445 633.712C 464.779 635.598 451.445 633.712 443.445 631.712C 401.445 613.712 361.445 595.712 317.445 581.712C 315.445 607.712 321.445 631.712 313.445 657.712"/>
<path fill="none" stroke-width="6" stroke="#007f7f" d="M 311.445 679.712C 311.445 685.712 313.445 693.712 309.445 699.712C 307.445 701.712 301.445 699.712 295.445 699.712"/>
<path fill="none" stroke-width="6" stroke="#007f7f" d="M 511.445 355.712C 509.445 357.712 509.445 361.712 509.445 365.712"/>
<path fill="none" stroke-width="6" stroke="#007f7f" d="M 537.445 369.712C 537.445 373.712 537.445 375.712 537.445 379.712"/>
<path fill="none" stroke-width="6" stroke="#007f7f" d="M 501.445 405.712C 511.445 409.712 519.445 411.712 529.445 413.712"/>
<path fill="none" stroke-width="6" stroke="#007f7f" d="M 493.445 297.712C 491.445 297.712 487.445 297.712 485.445 297.712C 477.445 307.712 479.445 323.712 467.445 327.712C 455.445 333.712 439.445 323.712 431.445 333.712C 423.445 341.712 435.445 359.712 425.445 367.712C 419.445 373.712 401.445 365.712 395.445 373.712C 389.445 379.712 393.445 393.712 393.445 403.712C 393.445 403.712 395.445 403.712 397.445 403.712"/>
<path fill="none" stroke-width="6" stroke="#007f7f" d="M 575.445 387.712"/>
<path fill="none" stroke-width="6" stroke="#007f7f" d="M 561.445 345.712C 565.445 347.712 571.445 351.712 571.445 353.712C 571.445 379.712 587.445 401.712 581.445 427.712C 581.445 431.712 571.445 433.712 567.445 439.712C 565.445 441.712 565.445 447.712 567.445 449.712C 575.445 455.712 589.445 447.712 593.445 455.712C 597.445 461.712 597.445 471.712 593.445 477.712C 591.445 481.712 585.445 481.712 583.445 487.712"/>
<path fill="none" stroke-width="6" stroke="#007f7f" d="M 531.445 469.712C 549.445 481.712 563.445 499.712 579.445 515.712C 589.445 527.712 595.445 539.712 597.445 553.712C 605.445 595.712 607.445 637.712 595.445 679.712C 595.445 679.712 591.445 679.712 587.445 681.712"/>
<path fill="none" stroke-width="6" stroke="#007f7f" d="M 31.4451 547.712C 35.4451 549.712 39.4451 545.712 41.4451 549.712"/>
<path fill="none" stroke-width="6" stroke="#007f7f" d="M 55.4451 563.712C 55.4451 569.712 59.4451 573.712 61.4451 579.712"/>
<path fill="none" stroke-width="6" stroke="#007f7f" d="M 69.4451 601.712C 91.4451 637.712 95.4451 683.712 87.4451 725.712C 83.4451 739.712 61.4451 737.712 45.4451 735.712C 41.4451 733.712 39.4451 729.712 37.4451 725.712"/>
<path fill="none" stroke-width="6" stroke="#007f7f" d="M 87.4451 725.712C 87.4451 729.712 87.4451 729.712 87.4451 725.712C 89.4451 727.712 87.4451 727.712 87.4451 725.712C 127.445 717.712 165.445 701.712 187.445 667.712"/>
<path fill="none" stroke-width="6" stroke="#007f7f" d="M 395.445 379.712C 413.445 381.712 429.445 381.712 447.445 381.712"/>
<path fill="none" stroke-width="6" stroke="#007f7f" d="M 599.445 383.712L 601.445 383.712"/>
<path fill="none" stroke-width="6" stroke="#007f7f" d="M 349.445 363.712C 351.445 363.712 351.445 363.712 349.445 363.712"/>
<path fill="none" stroke-width="6" stroke="#007f7f" d="M 267.445 271.712C 241.445 267.712 213.445 269.712 187.445 269.712C 165.445 291.712 171.445 325.712 171.445 353.712C 195.445 383.712 231.445 399.712 269.445 389.712C 279.445 387.712 291.445 377.712 291.445 365.712C 295.445 347.712 297.445 327.712 291.445 309.712C 287.445 299.712 281.445 291.712 273.445 283.712"/>
<path fill="none" stroke-width="6" stroke="#007f7f" d="M 303.445 361.712C 297.445 371.712 287.445 381.712 295.445 389.712C 317.445 413.712 339.445 435.712 347.445 465.712C 307.445 467.712 273.445 443.712 237.445 431.712C 229.445 429.712 223.445 427.712 215.445 427.712"/>
<path fill="none" stroke-width="6" stroke="#007f7f" d="M 215.445 393.712C 215.445 411.712 215.445 427.712 213.445 445.712"/>
<path fill="none" stroke-width="6" stroke="#007f7f" d="M 233.445 371.712C 245.445 369.712 259.445 369.712 271.445 365.712"/>
<path fill="none" stroke-width="6" stroke="#007f7f" d="M 223.445 333.712C 225.445 333.712 227.445 333.712 227.445 333.712C 227.445 335.712 227.445 339.712 227.445 341.712"/>
<path fill="none" stroke-width="6" stroke="#007f7f" d="M 259.445 329.712C 259.445 333.712 259.445 337.712 259.445 341.712"/>
<path fill="none" stroke-width="6" stroke="#007f7f" d="M 195.445 287.712C 195.445 291.712 195.445 293.712 193.445 297.712C 201.445 297.712 211.445 295.712 213.445 299.712C 223.445 309.712 193.445 305.712 197.445 317.712C 199.445 319.712 211.445 313.712 217.445 319.712"/>
<path fill="none" stroke-width="6" stroke="#007f7f" d="M 249.445 273.712"/>
<path fill="none" stroke-width="6" stroke="#007f7f" d="M 445.445 475.712C 387.445 475.712 329.445 475.712 271.445 475.712C 265.445 475.712 261.445 481.712 255.445 479.712"/>
<path fill="none" stroke-width="6" stroke="#007f7f" d="M 235.445 483.712C 223.445 483.712 213.445 483.712 201.445 483.712"/>
<path fill="none" stroke-width="6" stroke="#007f7f" d="M 388.945 68.7122C 418.445 71.7122 433.445 77.7122 445.445 101.712C 449.445 109.712 461.445 135.712 447.445 165.712C 430.029 203.031 403.445 209.712 367.445 209.712C 343.445 199.712 317.445 189.712 311.445 163.712C 303.445 141.712 299.445 137.712 305.445 115.712C 309.445 101.712 325.445 73.7122 337.445 69.7122C 353.445 65.7122 377.445 62.2122 377.445 64.2122C 377.445 58.2122 375.445 45.7122 377.445 41.7122C 391.445 27.7122 415.445 29.7122 427.445 37.7122C 435.445 43.7122 417.445 45.7122 409.445 45.7122"/>
<path fill="none" stroke-width="6" stroke="#007f7f" d="M 365.445 215.712C 343.445 251.712 327.445 289.712 321.445 329.712"/>
<path fill="none" stroke-width="6" stroke="#007f7f" d="M 387.945 148.212C 375.296 141.888 361.445 141.712 347.445 147.712C 331.445 153.712 333.445 177.712 339.445 187.712C 347.445 201.712 369.445 199.712 385.445 191.712C 395.445 185.712 397.445 169.712 395.445 155.712C 395.445 155.712 392.945 150.712 387.945 148.212z"/>
<path fill="none" stroke-width="6" stroke="#007f7f" d="M 293.445 159.712C 275.445 183.712 263.445 209.712 247.445 235.712C 247.445 237.712 247.445 239.712 249.445 241.712C 263.445 245.712 275.445 253.712 287.445 259.712C 301.445 263.712 313.445 265.712 327.445 271.712"/>
<path fill="none" stroke-width="6" stroke="#007f7f" d="M 339.445 261.712C 419.445 269.712 499.445 261.712 579.445 267.712C 585.445 267.712 587.445 275.712 585.445 283.712"/>
<path fill="none" stroke-width="6" stroke="#007f7f" d="M 331.445 121.212C 337.445 113.212 345.445 115.712 355.445 115.712"/>
<path fill="none" stroke-width="6" stroke="#007f7f" d="M 403.445 125.712C 407.445 131.712 414.445 133.212 412.445 141.212"/>
<path fill="#bfbfbf" stroke-width="6" stroke="#7f7f7f" d="M 135.445 743.712L 237.445 685.712L 337.445 731.712L 239.445 805.712L 135.445 743.712z"/>
<path fill="#bfbfbf" stroke-width="6" stroke="#7f7f7f" d="M 421.445 747.712L 475.445 703.712L 499.445 713.712L 461.445 769.712L 421.445 747.712z"/>
<path fill="#bfbfbf" stroke-width="4" stroke="#7f7f7f" d="M 441.445 744.046L 445.112 746.046"/>
<path fill="#bfbfbf" stroke-width="4" stroke="#7f7f7f" d="M 451.778 749.379L 457.112 751.379"/>
<path fill="#bfbfbf" stroke-width="4" stroke="#7f7f7f" d="M 459.445 753.712L 463.112 755.379"/>
<path fill="#bfbfbf" stroke-width="4" stroke="#7f7f7f" d="M 454.112 732.712L 457.778 735.046"/>
<path fill="#bfbfbf" stroke-width="4" stroke="#7f7f7f" d="M 463.445 738.379L 467.445 740.712"/>
<path fill="#bfbfbf" stroke-width="4" stroke="#7f7f7f" d="M 470.778 743.046L 473.112 744.712"/>
<path fill="#bfbfbf" stroke-width="4" stroke="#7f7f7f" d="M 464.445 724.379C 465.445 725.046 467.445 726.046 468.445 726.712"/>
<path fill="#bfbfbf" stroke-width="4" stroke="#7f7f7f" d="M 473.445 729.712L 478.112 732.379"/>
<path fill="#bfbfbf" stroke-width="6" stroke="#7f7f7f" d="M 399.445 775.712L 279.445 761.712L 383.445 749.712L 399.445 775.712z"/>
<path fill="#bfbfbf" stroke-width="6" stroke="#7f7f7f" d="M 369.445 749.212L 366.605 738.093L 355.445 723.212L 283.445 761.212L 365.945 739.212"/>
</g>
</g>
<g>
<g>
<g>
<g>
<path fill="#ff9f3f" stroke-width="6" stroke="#000000" d="M 533.801 554.493C 533.801 612.172 490.964 658.932 438.122 658.932C 385.281 658.932 342.444 612.172 342.444 554.493L 533.801 554.493z"/>
<path fill="none" stroke-width="6" stroke="#000000" d="M 529.912 584.493C 529.912 584.493 545.412 576.493 555.912 576.493C 566.412 576.493 567.912 587.993 567.412 598.993C 566.912 609.993 552.912 619.993 533.412 627.993C 513.912 635.993 498.412 636.493 498.412 636.493"/>
</g>
<g>
<path fill="#ff9f3f" stroke-width="6" stroke="#000000" d="M 277.801 554.493C 277.801 612.172 234.964 658.932 182.122 658.932C 129.281 658.932 86.4439 612.172 86.4439 554.493L 277.801 554.493z"/>
<path fill="none" stroke-width="6" stroke="#000000" d="M 273.912 584.493C 273.912 584.493 289.412 576.493 299.912 576.493C 310.412 576.493 311.912 587.993 311.412 598.993C 310.912 609.993 296.912 619.993 277.412 627.993C 257.912 635.993 242.412 636.493 242.412 636.493"/>
</g>
</g>
<g>
<g>
<path fill="#ff9f3f" stroke-width="6" stroke="#000000" d="M 533.801 176.493C 533.801 234.172 490.964 280.932 438.122 280.932C 385.281 280.932 342.444 234.172 342.444 176.493L 533.801 176.493z"/>
<path fill="none" stroke-width="6" stroke="#000000" d="M 529.912 206.493C 529.912 206.493 545.412 198.493 555.912 198.493C 566.412 198.493 567.912 209.993 567.412 220.993C 566.912 231.993 552.912 241.993 533.412 249.993C 513.912 257.993 498.412 258.493 498.412 258.493"/>
</g>
<g>
<path fill="#ff9f3f" stroke-width="6" stroke="#000000" d="M 277.801 176.493C 277.801 234.172 234.964 280.932 182.122 280.932C 129.281 280.932 86.4439 234.172 86.4439 176.493L 277.801 176.493z"/>
<path fill="none" stroke-width="6" stroke="#000000" d="M 273.912 206.493C 273.912 206.493 289.412 198.493 299.912 198.493C 310.412 198.493 311.912 209.993 311.412 220.993C 310.912 231.993 296.912 241.993 277.412 249.993C 257.912 257.993 242.412 258.493 242.412 258.493"/>
</g>
</g>
</g>
</g>
</svg>