<svg xmlns="http://www.w3.org/2000/svg"
	xmlns:xlink="http://www.w3.org/1999/xlink"
	viewBox="22.4 0 577 792"
	width="625.152" height="792.8">
<g id="scene">
        <set attributeName="opacity" to="1" 
		        fill="freeze" begin="btn1.click"/>
        <set attributeName="opacity" to="0" 
		        fill="freeze" begin="btn2.click"/>
        <set attributeName="opacity" to="0" 
		        fill="freeze" begin="scene.load"/>

<g>
<path fill="#80D0E3" stroke="none" d="M 599.445 792L 599.445 0L 22.4451 0L 22.4451 792L 599.445 792z"/>
</g>
<g>
<path fill="#01947F" stroke="none" d="M 416.883 271L 406.883 325L 446.883 335L 484.883 331C 484.883 331 524.883 337 526.883 343C 528.883 349 564.883 361 564.883 361L 588.883 349L 582.883 265L 416.883 271z"/>
<path fill="#FEE0B3" stroke="none" d="M 238.466 204.458C 234.778 230 226.699 277.204 207.445 296C 179.445 323.333 131.329 323.821 99.4451 316C 64.1118 307.333 44.1118 268.667 46.7784 242C 49.4451 215.333 72.7784 175.333 72.7784 175.333L 98.1118 150.667L 131.445 136C 131.445 136 165.487 130.25 190.466 139.125C 215.445 148 238.466 204.458 238.466 204.458z"/>
<path fill="#FEC06F" stroke="none" d="M 86.1118 166C 86.1118 166 100.112 159.333 118.778 164.667C 137.445 170 184.112 198 184.112 198L 136.778 159.333L 99.4451 149.333L 86.1118 166z"/>
<path fill="#4473B4" stroke="none" d="M 85.4451 162.667L 99.4451 149.333L 126.778 132.667L 176.778 134.667L 226.112 170L 236.778 198L 217.445 179.333L 184.778 174.667L 200.112 205.333L 186.112 197.333L 153.445 172.667L 122.778 153.333L 103.445 150L 85.4451 162.667z"/>
<path fill="#FFFFFF" stroke="none" d="M 127.445 278C 127.445 278 139.445 272 165.445 266C 191.445 260 208.778 255.333 208.778 255.333C 208.778 255.333 211.445 274 187.445 286C 163.445 298 135.445 286 135.445 286L 127.445 278z"/>
<path fill="#F8023F" stroke="none" d="M 191.445 574L 227.445 638L 149.445 638L 59.4451 642C 59.4451 642 71.4451 618 83.4451 590C 95.4451 562 135.445 478 135.445 478"/>
<path fill="#0A50A1" stroke="none" d="M 473.445 488C 473.445 488 469.945 499.688 481.945 525.688C 493.945 551.688 517.445 652 517.445 652L 365.445 654L 425.945 533.688L 473.445 488z"/>
<path fill="#FEE0B3" stroke="none" d="M 303.445 420L 335.445 430L 337.445 460L 301.445 450L 303.445 420z"/>
<path fill="#FEE0B3" stroke="none" d="M 455.445 134L 521.445 136C 521.445 136 561.445 122 571.445 172C 581.445 222 584.445 272 554.445 296C 524.445 320 495.445 323 454.445 314C 417.742 305.944 417.445 284 405.445 248C 393.445 212 387.445 178 415.445 158C 443.445 138 455.445 134 455.445 134z"/>
<path fill="#41B194" stroke="none" d="M 485.445 198C 485.445 198 497.445 180 505.445 188C 513.445 196 521.445 210 521.445 210L 549.445 218L 573.445 238C 573.445 238 582.445 263 580.445 297C 578.445 331 573.445 344 573.445 344L 555.445 357L 586.445 373L 595.445 306L 589.445 230L 577.445 180C 577.445 180 581.445 146 533.445 136C 485.445 126 479.445 128 455.445 134C 431.445 140 423.445 145 406.445 162C 390.634 177.811 369.445 276 369.445 276L 381.445 320L 357.445 336C 357.445 336 345.445 340 351.445 352C 357.445 364 363.445 344 363.445 344L 391.445 338L 409.445 320L 441.445 320L 439.445 308C 439.445 308 425.445 310 415.445 288C 405.445 266 401.445 248 399.445 242C 397.445 236 427.445 220 427.445 220L 452.445 192L 485.445 198z"/>
</g>
<g>
<path fill="none" stroke-width="6" stroke="#808080" d="M 190.78 200.333C 160.376 184.762 137.863 145.436 99.5385 149.671C 81.5084 167.578 61.4597 185.499 53.6 213.203C 49.7163 232.979 47.708 256.33 54.0766 274.415C 60.4451 292.5 75.3908 305.882 86.6679 311.691C 97.9451 317.5 93.8737 315.536 119.029 319.349C 154.112 324.667 184.112 321.333 204.112 300.667C 220.372 283.865 228.132 276.294 231.538 249.397C 234.945 222.5 242.254 208.81 235.099 188.155C 227.945 167.5 206.499 144.925 180.195 137.222C 159.977 133.423 137.786 135.563 117.599 135.714"/>
<path fill="none" stroke-width="6" stroke="#808080" d="M 141.507 324.169C 138.907 375.174 141.507 426.179 133.707 477.184C 131.971 488.536 131.974 499.888 132.361 511.149"/>
<path fill="none" stroke-width="6" stroke="#808080" d="M 71.4451 654C 69.7918 658.712 57.0571 691.172 55.7128 695.777C 47.9133 717.636 42.7137 739.495 42.7137 761.355"/>
<path fill="none" stroke-width="6" stroke="#808080" d="M 279.32 738.362C 274.12 728.646 271.52 718.931 263.721 709.216C 242.922 684.928 237.936 646.737 221.445 622C 197.445 586 190.903 579.194 180.504 562.192C 167.505 545.19 159.705 518.474 133.707 499.043C 125.337 492.787 115.509 523.331 97.3099 562.192C 94.71 588.909 81.711 608.34 68.7119 632.628C 63.5122 639.914 64.8453 637.571 67.4451 640C 139.392 644.482 177.445 644 244.049 646.381"/>
<path fill="none" stroke-width="6" stroke="#808080" d="M 141.445 366C 170.043 363.571 186.459 390.694 213.445 400C 287.827 425.649 315.488 467.459 337.445 460C 334.845 447.856 333.445 439.715 333.445 430C 317.846 432.429 311.844 409.856 301.445 422C 296.245 426.858 299.445 450 299.445 459.715"/>
<path fill="none" stroke-width="6" stroke="#808080" d="M 130.445 375L 86.4451 433L 58.4451 527"/>
<path fill="none" stroke-width="6" stroke="#808080" d="M 115.509 278.021C 149.445 272 175.445 267.333 208.778 255.333C 208.778 260.191 206.502 268.306 203.902 270.735C 171.873 304.932 155.896 297.433 127.445 282.667"/>
<path fill="none" stroke-width="6" stroke="#808080" d="M 119.028 223.153C 124.228 223.153 131.378 219.655 132.028 223.153C 132.966 228.208 132.966 232.779 132.966 235.208"/>
<path fill="none" stroke-width="6" stroke="#808080" d="M 181.445 219.65C 197.381 219.65 187.496 212.83 194.987 226.562"/>
<path fill="none" stroke-width="6" stroke="#808080" d="M 467.445 136C 451.445 136 449.445 134 435.445 142C 426.112 147.333 412.445 157.667 405.445 174C 397.445 194 393.445 224 399.445 244C 409.445 268 411.445 288 433.445 304C 455.445 320 487.445 320 521.445 314C 537.445 312 559.445 296 569.445 276C 579.445 256 579.445 244 579.445 224C 581.445 202 577.445 180 565.445 162C 553.445 144 547.445 140 517.445 132C 487.445 124 475.445 130 455.445 130"/>
<path fill="none" stroke-width="6" stroke="#808080" d="M 501.445 316C 497.445 376 493.945 407.688 479.945 467.688C 475.945 479.688 467.945 485.688 459.945 493.688C 417.829 529.995 374.611 662.252 307.445 732"/>
<path fill="none" stroke-width="6" stroke="#808080" d="M 475.945 481.688C 471.945 491.688 479.445 520 483.445 530C 503.445 604 535.445 686 561.445 758"/>
<path fill="none" stroke-width="6" stroke="#808080" d="M 365.445 640C 365.445 663.451 406.768 643.918 427.445 650C 461.445 660 471.445 644 513.445 654"/>
<path fill="none" stroke-width="6" stroke="#808080" d="M 497.445 368C 518.703 389.258 534.162 399.736 547.445 418C 563.445 436 561.445 476 561.445 500"/>
<path fill="none" stroke-width="6" stroke="#808080" d="M 333.445 444C 357.488 435.772 423.445 372 445.445 364C 459.445 358 479.445 352 493.445 350"/>
<path fill="none" stroke-width="6" stroke="#808080" d="M 465.445 232C 465.445 238 465.445 242 465.445 248"/>
<path fill="none" stroke-width="6" stroke="#808080" d="M 511.445 236C 511.445 242 511.445 246 511.445 252"/>
<path fill="none" stroke-width="6" stroke="#808080" d="M 447.445 273.312C 449.445 275.312 467.445 281 469.445 281C 491.445 283 504.445 281.688 522.445 280C 524.445 288 521.445 293.688 510.445 299C 497.71 305.15 477.445 303.312 471.445 287.312"/>
<path fill="none" stroke-width="6" stroke="#808080" d="M 487.445 196C 489.445 186 505.445 188 511.445 192C 519.445 196 513.445 214 525.445 214C 545.445 216 569.445 216 573.445 236C 581.445 274 589.445 310 581.445 348C 581.445 352 579.445 360 575.445 362C 569.445 364 563.445 364 557.445 362C 549.445 358 551.445 350 551.445 342"/>
<path fill="none" stroke-width="6" stroke="#808080" d="M 481.445 196C 467.445 174 439.445 162 413.445 170C 409.445 186 413.445 204 409.445 220C 405.445 240 379.445 242 373.445 260C 369.445 272 371.445 286 377.445 298C 381.445 306 381.445 318 379.445 326C 375.445 336 357.445 330 353.445 336C 349.445 340 349.445 348 353.445 354"/>
<path fill="none" stroke-width="6" stroke="#808080" d="M 443.445 156C 421.445 148 393.445 154 389.445 178C 385.445 192 387.445 210 371.445 212C 359.445 216 343.445 212 337.445 224C 333.445 234 333.445 246 337.445 258"/>
<path fill="none" stroke-width="6" stroke="#808080" d="M 519.445 168C 525.445 164 531.445 164 537.445 166C 549.445 174 557.445 182 573.445 182C 577.445 180 581.445 188 581.445 192C 585.445 208 595.445 220 593.445 236"/>
<path fill="none" stroke-width="6" stroke="#808080" d="M 489.445 162C 483.445 158 479.445 154 473.445 150"/>
</g>
<g>
<path fill="#41D8D4" stroke-width="6" stroke="#C0E8F1" d="M 33.4451 596L 589.445 596"/>
<path fill="#41D8D4" stroke-width="6" stroke="#C0E8F1" d="M 31.4451 298L 587.445 298"/>
</g>
</g>
<g>
<path fill="#FEA033" stroke-width="6" stroke="#000000" d="M 404.096 185.781C 404.096 243.46 361.258 290.219 308.417 290.219C 255.576 290.219 212.739 243.46 212.739 185.781L 404.096 185.781z"/>
<path fill="none" stroke-width="6" stroke="#000000" d="M 400.207 215.781C 400.207 215.781 415.707 207.781 426.207 207.781C 436.707 207.781 438.207 219.281 437.707 230.281C 437.207 241.281 423.207 251.281 403.707 259.281C 384.207 267.281 368.707 267.781 368.707 267.781"/>
<path fill="#FEA033" stroke-width="6" stroke="#000000" d="M 404.096 487.78C 404.096 545.46 361.258 592.219 308.417 592.219C 255.576 592.219 212.739 545.46 212.739 487.78L 404.096 487.78z"/>
<path fill="none" stroke-width="6" stroke="#000000" d="M 400.207 517.781C 400.207 517.781 415.707 509.78 426.207 509.78C 436.707 509.78 438.207 521.281 437.707 532.281C 437.207 543.281 423.207 553.281 403.707 561.281C 384.207 569.281 368.707 569.781 368.707 569.781"/>
</g>
</svg>
