<svg xmlns="http://www.w3.org/2000/svg"
	xmlns:xlink="http://www.w3.org/1999/xlink"
	viewBox="20.8 18.4 577 792"
	width="619.223" height="833.828">
<g id="scene">
    <set attributeName="opacity" to="1" 
		    fill="freeze" begin="btn1.click"/>
    <set attributeName="opacity" to="0" 
		    fill="freeze" begin="btn2.click"/>
    <set attributeName="opacity" to="0" 
		    fill="freeze" begin="scene.load"/>
<g>
<path fill="#3f9fff" stroke="none" d="M 597.778 810.383L 597.778 18.3826L 20.7776 18.3826L 20.7776 810.383L 597.778 810.383z"/>
</g>
<g>
<path fill="#bfffff" stroke="none" d="M 240.778 560.883L 255.778 586.883L 258.778 573.883L 289.778 563.883L 292.778 571.883L 322.778 550.883L 325.778 534.883L 351.778 522.883L 374.778 538.883L 418.778 540.883L 430.778 530.883L 442.778 478.883L 482.778 466.883L 518.778 481.883L 534.778 476.883L 541.778 453.883L 569.778 425.883L 597.778 415.883L 599.778 171.883L 597.778 16.8826L 150.778 16.8826L 152.778 48.8826L 92.7784 108.883L 52.7784 112.883L 40.7784 132.883L 42.7784 167.883L 56.7784 186.883L 56.7784 198.883L 82.7784 188.883L 95.7784 197.883L 123.778 229.883L 168.778 241.883L 172.778 262.883L 146.778 296.883L 76.7784 302.883L 74.7784 316.883L 99.7784 365.883L 102.778 396.883L 139.778 394.883L 140.778 423.883L 165.778 432.883L 160.778 445.883L 151.778 457.883L 154.778 467.883L 201.778 482.883L 202.778 506.883L 230.778 519.883L 232.778 532.883L 214.778 555.883"/>
<path fill="#ffdfbf" stroke="none" d="M 269.278 84.3826L 306.778 83.3826L 329.278 97.8826C 329.278 97.8826 330.778 119.883 330.778 132.383C 330.778 144.883 329.278 155.383 323.778 166.383C 318.278 177.383 310.278 187.883 294.778 188.383C 279.278 188.883 257.778 184.883 251.778 175.383C 245.778 165.883 241.278 137.383 243.778 126.383C 246.278 115.383 255.278 89.3826 259.278 85.8826C 263.278 82.3826 269.278 84.3826 269.278 84.3826z"/>
<path fill="none" stroke-width="6" stroke="#7f7f7f" d="M 139.778 396.445C 139.778 405.445 133.778 417.445 141.778 424.445C 148.778 430.445 158.778 426.445 163.778 432.445C 165.778 433.445 165.778 438.445 164.778 441.445C 161.778 447.445 154.778 450.445 152.778 456.445C 150.778 461.445 150.778 468.445 152.778 470.445C 167.778 478.445 185.778 481.445 202.778 483.445C 206.778 493.445 197.778 507.445 207.778 512.445C 215.778 517.445 227.778 517.445 230.778 524.445C 234.778 534.445 225.778 542.445 219.778 549.445C 218.778 550.445 216.778 553.445 215.778 554.445C 209.778 561.445 217.778 571.445 219.778 579.445C 219.778 579.445 221.778 579.445 222.778 579.445C 224.778 582.445 223.778 586.445 223.778 590.445C 222.778 594.445 217.778 596.445 220.778 601.445C 222.778 605.445 224.778 608.445 224.778 613.445"/>
<path fill="none" stroke-width="6" stroke="#7f7f7f" d="M 255.778 587.445C 249.778 567.445 275.778 571.445 289.778 567.445C 289.778 569.445 289.778 571.445 291.778 571.445C 305.778 569.445 311.778 557.445 323.778 549.445C 325.778 547.445 321.778 539.445 325.778 535.445C 335.778 527.445 347.778 519.445 357.778 525.445C 367.778 531.445 375.778 539.445 385.778 539.445C 401.778 541.445 423.778 549.445 429.778 533.445C 437.778 515.445 427.778 477.445 457.778 471.445C 469.778 469.445 483.778 467.445 495.778 473.445C 505.778 477.445 517.778 483.445 529.778 481.445C 531.778 479.445 535.778 477.445 537.778 475.445C 541.778 467.445 537.778 457.445 541.778 453.445C 553.778 439.445 569.778 425.445 587.778 417.445"/>
<path fill="none" stroke-width="6" stroke="#7f7f7f" d="M 117.778 399.445C 111.778 399.445 103.778 401.445 101.778 397.445C 95.7784 387.445 99.7784 375.445 97.7784 363.445C 91.7784 347.445 79.7784 333.445 73.7784 317.445C 73.7784 313.445 69.7784 305.445 75.7784 303.445C 93.7784 297.445 113.778 305.445 133.778 299.445C 147.778 295.445 159.778 283.445 167.778 271.445C 171.778 265.445 175.778 245.445 163.778 239.445C 147.778 233.445 127.778 237.445 115.778 225.445C 103.778 217.445 99.7784 199.445 87.7784 193.445C 77.7784 187.445 65.7784 197.445 55.7784 199.445C 55.7784 195.445 57.7784 189.445 55.7784 187.445C 37.7784 169.445 37.7784 143.445 43.7784 121.445C 49.7784 103.445 79.7784 117.445 91.7784 109.445C 115.778 93.4451 129.778 71.4451 147.778 49.4451C 151.778 47.4451 153.778 37.4451 145.778 31.4451"/>
<path fill="#ff9f3f" stroke="none" d="M 247.112 128.383L 257.778 128.383C 257.778 128.383 261.778 117.716 263.778 105.049C 265.778 92.3826 285.778 93.7159 285.778 93.7159L 321.112 99.0493L 331.112 95.0493L 331.112 115.716L 339.778 121.049L 343.112 107.049L 339.778 97.7159L 351.112 99.0493L 350.445 86.3826L 339.112 82.3826L 339.112 67.7159L 326.445 75.0493L 305.778 72.3826L 306.445 57.0493L 299.112 46.3826L 293.778 58.3826L 278.445 59.0493L 279.112 49.0493L 273.112 45.7159L 272.445 59.0493L 257.112 65.0493L 251.778 57.7159L 240.445 69.7159L 239.112 81.7159L 227.112 73.7159L 228.445 86.3826L 238.445 97.7159L 236.445 113.716L 224.445 109.049L 228.445 125.049L 236.445 134.383L 246.445 134.383L 247.112 128.383z"/>
</g>
<g>
<path fill="none" stroke-width="6" stroke="#7f0000" d="M 238.153 191.32C 250.153 191.32 259.153 192.32 269.153 196.32"/>
<path fill="none" stroke-width="6" stroke="#7f0000" d="M 244.028 132.883C 243.778 143.383 245.278 153.883 248.278 163.883C 252.278 175.883 270.278 181.883 284.278 183.883C 304.278 187.883 326.278 171.883 328.278 151.883C 332.278 131.883 330.278 111.883 330.278 91.8826"/>
<path fill="none" stroke-width="6" stroke="#7f0000" d="M 265.278 153.383C 266.278 157.883 270.778 160.883 274.778 161.383C 280.778 162.383 286.278 162.383 291.778 162.883C 298.278 163.883 304.278 162.883 310.778 161.883C 312.278 161.883 314.278 159.883 315.278 158.383"/>
<path fill="none" stroke-width="6" stroke="#7f0000" d="M 288.778 123.883C 290.778 127.883 289.778 132.383 290.778 136.383"/>
<path fill="none" stroke-width="6" stroke="#7f0000" d="M 314.778 122.883C 314.778 126.383 315.278 130.383 316.278 133.883"/>
<path fill="none" stroke-width="6" stroke="#7f00ff" d="M 285.528 323.758L 285.528 287.758C 285.528 287.758 291.674 259.8 301.528 225.758C 307.028 206.758 328.528 210.758 328.528 210.758C 322.528 210.258 320.528 217.258 319.028 222.758C 318.028 227.258 318.528 231.258 318.528 235.758C 328.061 237.764 337.543 245.883 347.778 245.883C 349.278 241.883 351.528 234.758 352.528 230.758C 354.528 223.758 356.028 214.758 349.028 210.758C 343.528 207.758 332.028 208.758 332.028 208.758L 339.028 198.258L 341.528 208.258L 349.028 210.758L 359.028 205.758L 353.028 216.758"/>
<path fill="none" stroke-width="6" stroke="#7f00ff" d="M 292.528 261.258C 294.028 268.758 296.028 275.258 298.028 282.758C 298.528 286.258 299.028 289.258 299.528 292.758C 302.528 302.758 305.028 312.258 307.028 322.258"/>
<path fill="none" stroke-width="6" stroke="#7f00ff" d="M 301.028 230.258C 304.028 241.258 306.028 252.258 311.028 262.258"/>
<path fill="none" stroke-width="6" stroke="#00ff00" d="M 208.153 484.32L 255.436 370.436"/>
<path fill="none" stroke-width="6" stroke="#00ff00" d="M 325.782 200.999L 394.153 36.3201"/>
<path fill="none" stroke-width="6" stroke="#00ff00" d="M 140.153 464.32L 227.289 285.9"/>
<path fill="none" stroke-width="6" stroke="#00ff00" d="M 232.984 274.238L 246.923 245.696"/>
<path fill="none" stroke-width="6" stroke="#00ff00" d="M 252.609 234.053L 259.285 220.384"/>
<path fill="none" stroke-width="6" stroke="#00ff00" d="M 265.172 208.329L 275.763 186.643"/>
<path fill="none" stroke-width="6" stroke="#00ff00" d="M 333.665 68.0814L 350.153 34.3201"/>
<path fill="#ffdfbf" stroke-width="6" stroke="#ff007f" d="M 430.466 270.445C 416.466 268.445 400.466 264.445 390.466 270.445C 366.466 288.445 364.466 318.445 368.466 348.445C 370.466 356.445 376.466 362.445 382.466 366.445C 400.466 376.445 424.466 370.445 438.466 354.445C 456.466 334.445 456.466 306.445 450.466 280.445C 450.466 278.445 444.466 282.445 444.466 278.445"/>
<path fill="none" stroke-width="6" stroke="#00ff00" d="M 332.466 356.445C 332.466 358.445 332.466 362.445 332.466 364.445C 348.466 382.445 362.466 398.445 382.466 410.445"/>
<path fill="none" stroke-width="6" stroke="#00ff00" d="M 340.466 338.445C 350.466 362.445 374.466 378.445 386.466 400.445"/>
<path fill="none" stroke-width="6" stroke="#ff007f" d="M 424.466 280.445C 430.466 280.445 438.466 282.445 444.466 278.445C 444.466 290.445 440.466 306.445 446.466 314.445C 450.466 320.445 468.466 312.445 474.466 318.445C 480.466 322.445 472.466 340.445 478.466 344.445C 486.466 350.445 502.466 334.445 510.466 340.445C 516.466 346.445 512.466 362.445 510.466 374.445C 518.466 364.445 528.466 358.445 540.466 362.445C 540.466 362.445 540.466 366.445 540.466 368.445"/>
<path fill="none" stroke-width="6" stroke="#ff007f" d="M 422.466 272.445C 428.466 268.445 434.466 268.445 440.466 264.445C 442.466 264.445 448.466 262.445 450.466 266.445C 450.466 270.445 454.466 276.445 450.466 280.445C 458.466 276.445 468.466 272.445 474.466 264.445C 478.466 276.445 476.466 292.445 484.466 300.445C 490.466 308.445 494.466 288.445 506.466 286.445C 508.466 296.445 508.466 308.445 514.466 316.445C 516.466 318.445 526.466 316.445 528.466 308.445"/>
<path fill="none" stroke-width="6" stroke="#ff007f" d="M 412.466 268.445C 406.466 266.445 406.466 256.445 402.466 254.445C 394.466 252.445 386.466 254.445 378.466 254.445C 378.466 248.445 380.466 238.445 376.466 236.445C 364.466 230.445 358.466 252.445 350.466 260.445"/>
<path fill="none" stroke-width="6" stroke="#00ff00" d="M 397.778 296.383C 395.778 300.383 393.778 304.383 391.778 308.383"/>
<path fill="none" stroke-width="6" stroke="#00ff00" d="M 409.778 318.383C 407.778 322.383 407.778 326.383 405.778 330.383"/>
<path fill="none" stroke-width="6" stroke="#00ff00" d="M 341.153 62.3201L 381.153 69.3201"/>
<path fill="none" stroke-width="6" stroke="#00ff00" d="M 349.153 111.32L 362.153 113.32"/>
<path fill="none" stroke-width="6" stroke="#00ff00" d="M 337.153 154.32L 343.153 156.32"/>
<path fill="none" stroke-width="6" stroke="#00ff00" d="M 229.153 288.32L 265.153 300.32"/>
<path fill="none" stroke-width="6" stroke="#00ff00" d="M 275.153 302.32L 279.153 305.32"/>
<path fill="none" stroke-width="6" stroke="#00ff00" d="M 204.153 334.32L 238.153 350.32"/>
<path fill="none" stroke-width="6" stroke="#00ff00" d="M 181.153 381.32L 239.153 410.32"/>
<path fill="none" stroke-width="6" stroke="#00ff00" d="M 160.153 422.32L 221.153 452.32"/>
<path fill="none" stroke-width="6" stroke="#7f0000" d="M 280.153 198.32L 295.153 201.32"/>
<path fill="#ffff00" stroke-width="4" stroke="#00ff00" d="M 330.153 232.427C 334.84 232.427 338.639 227.678 338.639 221.82C 338.639 215.962 334.84 211.213 330.153 211.213C 325.467 211.213 321.668 215.962 321.668 221.82C 321.668 227.678 325.467 232.427 330.153 232.427z"/>
<path fill="#ffff00" stroke-width="4" stroke="#00ff00" d="M 346.153 235.32C 350.84 235.32 354.639 230.571 354.639 224.713C 354.639 218.856 350.84 214.107 346.153 214.107C 341.467 214.107 337.668 218.856 337.668 224.713C 337.668 230.571 341.467 235.32 346.153 235.32z"/>
<path fill="none" stroke-width="4" stroke="#00ff00" d="M 332.653 220.07L 332.653 230.82"/>
<path fill="none" stroke-width="4" stroke="#00ff00" d="M 347.653 223.82L 348.653 233.07"/>
<path fill="none" stroke-width="6" stroke="#7f0000" d="M 238.153 200.32C 240.153 204.32 274.153 236.32 274.153 236.32L 300.153 236.32"/>
<path fill="none" stroke-width="6" stroke="#7f0000" d="M 250.278 175.883C 232.278 197.883 226.278 225.883 212.278 249.883C 223.768 230.185 260.278 251.883 278.278 261.883C 282.278 263.883 280.278 283.883 280.278 283.883L 260.278 355.883L 286.278 357.883"/>
<path fill="none" stroke-width="6" stroke="#7f0000" d="M 212.278 249.883C 222.153 282.32 240.153 306.32 246.153 336.32C 252.153 358.32 260.153 376.32 258.153 398.32C 266.153 396.32 274.153 402.32 280.153 394.32"/>
<path fill="#ff7fbf" stroke-width="6" stroke="#cc007f" d="M 264.778 253.383C 264.778 253.383 258.778 292.383 248.778 302.383C 238.778 312.383 225.778 327.383 225.778 327.383L 223.778 275.383L 213.778 253.383L 213.778 245.383L 238.778 241.383L 264.778 253.383z"/>
<path fill="none" stroke-width="6" stroke="#00ff00" d="M 400.466 380.445C 394.466 386.445 386.466 400.445 386.466 400.445L 346.466 476.445L 346.466 484.445L 321.778 522.383"/>
<path fill="none" stroke-width="6" stroke="#00ff00" d="M 353.778 470.383L 375.778 530.383"/>
<path fill="none" stroke-width="6" stroke="#ff7f00" d="M 241.112 133.049C 237.112 133.049 232.445 133.716 229.778 129.716C 226.445 123.716 229.112 117.716 226.445 111.716C 226.445 110.383 224.445 108.383 222.445 107.716C 225.112 107.049 227.112 109.049 229.112 109.716C 231.112 111.049 233.112 113.716 232.445 116.383C 233.112 116.383 233.778 116.383 234.445 116.383C 238.445 110.383 237.778 103.716 236.445 97.0493C 235.112 91.7159 228.445 89.7159 226.445 85.0493C 224.445 81.0493 225.778 76.3826 225.778 71.7159C 227.778 77.0493 232.445 80.3826 237.778 81.7159C 237.778 78.3826 237.112 75.0493 237.778 71.7159C 239.112 65.7159 245.112 63.7159 249.112 59.7159C 249.778 58.3826 249.112 56.3826 249.112 55.0493C 254.445 56.3826 253.778 62.3826 253.778 66.3826C 260.445 65.0493 267.778 61.7159 271.112 56.3826C 273.778 53.0493 272.445 48.3826 272.445 44.3826C 277.112 47.7159 281.778 53.7159 279.112 59.7159C 285.778 59.0493 292.445 59.0493 296.445 53.0493C 298.445 51.0493 297.112 47.7159 297.112 44.3826C 300.445 49.0493 304.445 53.0493 305.778 59.0493C 306.445 63.7159 304.445 69.0493 306.445 71.7159C 308.445 73.7159 314.445 71.0493 318.445 71.7159C 322.445 73.0493 325.778 75.7159 329.778 74.3826C 332.445 73.0493 337.112 71.0493 337.112 67.0493C 341.112 68.3826 339.778 74.3826 339.778 77.7159C 339.778 79.7159 337.112 82.3826 339.112 83.0493C 343.112 85.0493 349.778 84.3826 350.445 89.7159C 350.445 94.3826 351.778 99.0493 348.445 103.049C 347.778 98.3826 342.445 98.3826 339.112 98.3826C 346.445 105.049 339.778 115.049 340.445 123.049C 336.445 122.383 337.112 115.716 332.445 117.049"/>
</g>
<g>
<path fill="#ffdfbf" stroke="none" d="M 70.2784 470.133C 70.2784 470.133 86.2784 469.633 95.2784 470.633C 104.278 471.633 120.778 473.133 125.778 480.133C 130.778 487.133 136.278 492.133 137.278 500.133C 138.278 508.133 132.778 542.133 129.778 551.633C 126.778 561.133 124.778 571.133 118.778 573.133C 112.778 575.133 98.2784 574.633 88.2784 572.633C 78.2784 570.633 62.7784 569.633 54.7784 560.133C 46.7784 550.633 47.2784 542.133 45.7784 529.633C 44.2784 517.133 43.2784 493.633 48.2784 486.633C 53.2784 479.633 70.2784 470.133 70.2784 470.133z"/>
<path fill="#ffdfbf" stroke="none" d="M 404.778 480.383L 443.778 488.383C 443.778 488.383 461.778 490.383 463.778 499.383C 465.778 508.383 474.778 536.383 466.778 551.383C 458.778 566.383 449.778 582.383 420.778 582.383C 391.778 582.383 382.778 586.383 370.778 564.383C 358.778 542.383 358.778 519.383 368.778 503.383C 378.778 487.383 404.778 480.383 404.778 480.383z"/>
<path fill="#ffbf7f" stroke="none" d="M 51.1117 518.383C 51.1117 518.383 52.1117 504.716 57.7784 498.049C 63.4451 491.383 68.7784 492.716 78.7784 491.383C 88.7784 490.049 96.7784 489.716 105.112 491.716C 113.445 493.716 120.778 496.716 126.778 494.716C 132.778 492.716 134.445 488.383 135.445 492.716C 136.445 497.049 136.445 508.049 136.445 508.049L 144.445 508.049L 156.112 495.716L 149.112 493.716L 146.445 485.383L 155.445 476.716L 154.112 472.716C 154.112 472.716 143.445 473.716 142.778 472.716C 142.112 471.716 144.445 464.383 144.445 464.383L 151.112 460.383L 142.445 456.049L 129.778 458.716L 122.112 443.383L 110.112 455.049L 105.778 443.383L 96.1117 438.716L 93.1117 449.383L 87.1117 453.716L 85.1117 441.716L 68.4451 449.383L 54.7784 462.716L 49.7784 459.049L 47.4451 471.049L 39.1117 469.049L 44.1117 498.049L 39.7784 503.049L 33.1117 501.383L 41.1117 513.383L 34.1117 519.383L 36.7784 524.383L 46.4451 524.383L 51.1117 518.383z"/>
<path fill="#ffff00" stroke="none" d="M 396.778 657.383L 418.778 708.383L 453.778 747.383L 415.778 744.383L 345.778 738.383L 370.778 696.383L 396.778 657.383z"/>
<path fill="#ffff00" stroke="none" d="M 485.778 198.383"/>
</g>
<g>
<path fill="none" stroke-width="6" stroke="#7f00ff" d="M 48.7144 521.06C 48.1421 535.893 48.5619 549.923 54.7784 557.383C 64.7784 569.383 106.778 582.383 120.778 573.383C 130.403 567.195 139.556 531.23 138.812 506.432"/>
<path fill="none" stroke-width="6" stroke="#7f00ff" d="M 79.7784 547.383C 79.7784 547.383 82.7784 561.383 99.7784 560.383C 116.778 559.383 124.778 554.383 124.778 554.383"/>
<path fill="none" stroke-width="6" stroke="#7f00ff" d="M 88.7784 515.383L 89.7784 530.383"/>
<path fill="none" stroke-width="6" stroke="#7f00ff" d="M 119.778 516.383L 119.778 531.383"/>
<path fill="none" stroke-width="6" stroke="#7f00ff" d="M 95.1117 580.383C 91.7784 590.383 88.4451 601.049 85.1117 611.049C 81.7784 621.716 80.4451 631.716 78.4451 643.049C 77.7784 651.049 74.4451 658.383 73.1117 666.383C 71.7784 673.049 69.1117 678.383 69.1117 685.049"/>
<path fill="none" stroke-width="6" stroke="#7f00ff" d="M 67.7784 689.716C 59.7784 703.049 59.1117 714.383 59.1117 714.383L 43.7784 749.716L 37.7784 767.049"/>
<path fill="none" stroke-width="6" stroke="#7f00ff" d="M 74.4451 677.716C 76.4451 686.383 81.7784 693.716 84.4451 702.383C 86.4451 707.716 98.4451 705.716 98.4451 705.716C 98.4451 705.716 109.778 726.383 114.445 734.383C 119.112 743.716 129.112 764.383 129.112 764.383"/>
<path fill="none" stroke-width="6" stroke="#7f00ff" d="M 46.4451 601.716C 53.1117 604.383 57.1117 610.383 63.1117 614.383C 69.7784 618.383 76.4451 621.049 82.4451 625.049"/>
<path fill="none" stroke-width="6" stroke="#7f00ff" d="M 85.1117 611.049C 105.112 607.049 121.112 599.049 140.445 595.716C 145.112 595.049 148.445 591.716 152.445 590.383C 155.778 589.716 159.778 589.716 163.112 588.383"/>
<path fill="none" stroke-width="6" stroke="#7f00ff" d="M 429.778 478.383C 415.778 478.383 402.778 477.383 390.778 483.383C 376.778 489.383 367.778 502.383 363.778 518.383C 361.778 532.383 359.778 546.383 365.778 558.383C 369.778 566.383 377.778 576.383 387.778 580.383C 401.778 584.383 418.778 586.383 434.778 582.383C 468.778 572.383 475.778 536.383 465.778 504.383C 461.778 488.383 445.778 490.383 429.778 488.383"/>
<path fill="none" stroke-width="6" stroke="#7f00ff" d="M 410.778 586.383C 404.778 618.383 397.778 637.383 393.778 669.383"/>
<path fill="none" stroke-width="6" stroke="#7f00ff" d="M 393.778 669.383C 375.778 689.383 353.778 715.383 345.778 739.383C 384.705 741.431 412.304 748.383 451.778 748.383C 451.778 748.383 430.778 730.383 416.778 707.383C 402.778 684.383 396.778 660.383 396.778 660.383"/>
<path fill="none" stroke-width="6" stroke="#7f00ff" d="M 367.778 742.383C 365.778 756.383 362.778 780.383 360.778 794.383L 341.778 796.383"/>
<path fill="none" stroke-width="6" stroke="#7f00ff" d="M 423.778 748.383C 423.778 758.383 454.778 787.383 454.778 787.383L 444.778 802.383"/>
<path fill="none" stroke-width="6" stroke="#7f00ff" d="M 331.778 622.383C 355.778 620.383 379.778 612.383 403.778 612.383"/>
<path fill="none" stroke-width="6" stroke="#7f00ff" d="M 331.778 696.383C 349.778 688.383 369.778 680.383 387.778 672.383"/>
<path fill="#bfffff" stroke-width="6" stroke="#3fffff" d="M 253.74 674.294C 247.019 677.246 243.038 680.911 243.038 684.883C 243.038 694.646 267.099 702.56 296.778 702.56C 326.458 702.56 350.518 694.646 350.518 684.883C 350.518 681.157 347.014 677.7 341.031 674.85"/>
<path fill="#ffbfff" stroke-width="6" stroke="#ff7fff" d="M 335.962 637.383L 333.778 683.383C 333.778 683.383 312.778 686.383 289.778 687.383C 266.778 688.383 259.778 681.383 259.778 681.383L 259.595 637.383"/>
<path fill="none" stroke-width="6" stroke="#ff0000" d="M 262.778 658.383C 262.778 658.383 266.778 666.383 285.778 666.383C 304.778 666.383 321.778 663.383 321.778 663.383L 333.778 656.383L 324.778 662.383L 320.778 670.383L 309.778 665.383"/>
<path fill="#ff7fff" stroke-width="6" stroke="#ff3fff" d="M 260.778 648.383C 260.778 648.383 267.778 649.383 272.778 652.383C 277.778 655.383 282.778 655.383 285.778 653.383C 288.778 651.383 301.778 649.383 303.778 652.383C 305.778 655.383 316.778 659.383 319.778 655.383C 322.778 651.383 329.778 646.383 329.778 646.383L 335.778 642.383"/>
<path fill="#ff7fff" stroke-width="6" stroke="#ff3fff" d="M 297.778 647.282C 318.866 647.282 335.962 642.85 335.962 637.383C 335.962 631.915 318.866 627.483 297.778 627.483C 276.69 627.483 259.595 631.915 259.595 637.383C 259.595 642.85 276.69 647.282 297.778 647.282z"/>
<path fill="none" stroke-width="4" stroke="#7f00ff" d="M 383.778 558.383C 401.778 560.383 423.778 570.383 439.778 556.383"/>
<path fill="none" stroke-width="4" stroke="#7f00ff" d="M 394.778 521.383L 392.778 533.383"/>
<path fill="none" stroke-width="4" stroke="#7f00ff" d="M 418.778 532.383L 416.778 542.383"/>
<path fill="none" stroke-width="6" stroke="#ff0000" d="M 438.778 515.383C 438.778 513.383 438.778 511.383 440.778 510.383C 443.778 510.383 446.778 508.383 448.778 511.383C 449.778 515.383 446.778 521.383 449.778 525.383C 450.778 525.383 452.778 525.383 453.778 525.383C 458.778 521.383 465.778 517.383 469.778 521.383C 472.778 524.383 468.778 532.383 471.778 537.383C 472.778 538.383 475.778 537.383 476.778 537.383C 481.778 534.383 489.778 530.383 492.778 535.383C 495.778 540.383 489.778 547.383 494.778 550.383C 498.778 553.383 506.778 546.383 509.778 549.383C 512.778 551.383 507.778 557.383 505.778 561.383C 513.778 565.383 523.778 565.383 531.778 569.383C 535.778 570.383 533.778 576.383 533.778 581.383"/>
<path fill="none" stroke-width="6" stroke="#ff0000" d="M 444.778 500.383C 443.778 497.383 445.778 494.383 446.778 494.383C 452.778 490.383 454.778 495.383 458.778 500.383C 459.778 502.383 461.778 501.383 462.778 501.383C 468.778 500.383 472.778 492.383 478.778 496.383C 482.778 499.383 484.778 505.383 489.778 509.383C 490.778 509.383 492.778 509.383 493.778 509.383C 498.778 507.383 502.778 500.383 507.778 504.383C 511.778 506.383 509.778 514.383 514.778 518.383C 515.778 518.383 516.778 518.383 517.778 518.383C 521.778 516.383 523.778 510.383 528.778 512.383C 532.778 514.383 533.778 518.383 534.778 522.383"/>
<path fill="none" stroke-width="6" stroke="#ff0000" d="M 345.778 530.383C 345.778 525.383 345.778 519.383 345.778 514.383C 348.778 515.383 351.778 519.383 352.778 517.383C 354.778 513.383 353.778 506.383 356.778 504.383C 360.778 501.383 367.778 504.383 373.778 502.383C 378.778 501.383 377.778 492.383 381.778 490.383C 388.778 486.383 390.778 493.383 395.778 496.383C 399.778 499.383 402.778 496.383 405.778 493.383C 408.778 491.383 413.778 493.383 413.778 498.383"/>
<path fill="none" stroke-width="6" stroke="#ff0000" d="M 414.778 484.383C 416.778 479.383 418.778 472.383 423.778 471.383C 435.778 467.383 446.778 460.383 459.778 461.383C 462.778 468.383 456.778 477.383 462.778 484.383C 463.778 484.383 465.778 484.383 466.778 484.383C 472.778 480.383 475.778 470.383 480.778 475.383C 483.778 479.383 486.778 485.383 492.778 483.383"/>
<path fill="none" stroke-width="6" stroke="#ff7f00" d="M 48.7784 525.383C 43.1117 525.716 36.1117 526.049 33.1117 520.716C 32.4451 519.383 33.7784 519.049 34.7784 518.716C 37.1117 518.049 39.4451 517.716 41.4451 517.049C 41.4451 516.716 41.7784 515.716 41.4451 515.383C 39.7784 513.383 37.7784 512.049 36.1117 510.049C 34.1117 506.716 32.7784 503.383 31.4451 499.716C 34.7784 502.716 39.4451 504.049 43.4451 502.716C 43.7784 502.716 43.7784 500.716 43.4451 499.716C 41.7784 494.716 39.4451 490.383 38.4451 485.383C 37.7784 481.049 37.7784 477.049 38.1117 473.049C 38.4451 470.716 39.4451 469.049 40.7784 467.049C 40.1117 471.383 43.7784 475.049 47.7784 475.383C 47.7784 473.716 47.7784 472.383 47.7784 470.716C 48.4451 465.716 49.7784 460.716 49.4451 455.716C 49.7784 458.716 52.7784 459.383 53.7784 461.716C 54.4451 463.383 55.7784 465.049 56.4451 466.716C 55.5023 464.359 56.4451 461.716 58.1117 460.049C 63.7784 454.716 68.7784 449.383 75.4451 444.716C 78.4451 442.383 82.7784 442.716 86.4451 441.716C 84.1117 446.049 84.1117 451.049 85.1117 456.049C 85.4451 456.049 86.1117 456.049 86.4451 456.049C 90.1117 453.049 93.4451 450.049 94.7784 445.716C 95.7784 443.383 96.1117 440.716 95.7784 438.383C 100.112 439.383 104.445 441.049 107.445 444.716C 110.112 448.716 109.112 453.716 107.112 457.716C 111.778 453.049 117.112 449.383 121.445 444.049C 121.778 443.383 121.112 442.383 121.445 441.716C 121.445 441.716 122.112 441.716 122.445 441.716C 124.445 444.716 127.112 447.049 128.445 450.049C 130.112 454.049 129.112 458.383 128.778 462.383C 129.778 460.383 131.778 458.716 133.445 458.049C 137.112 456.383 141.112 456.716 145.112 457.383C 145.778 457.383 146.445 458.716 147.112 458.716C 148.445 459.049 149.445 459.383 150.778 459.716C 149.445 462.383 145.778 461.716 144.112 463.716C 142.112 466.716 141.778 470.383 142.112 473.716C 145.778 473.383 149.778 474.383 153.445 473.383C 153.445 473.383 153.445 473.049 153.445 472.716C 153.778 475.383 154.778 478.383 153.778 481.049C 152.445 484.049 148.778 485.716 145.112 485.716C 144.445 488.716 146.445 491.383 148.778 493.383C 150.778 494.716 154.112 494.716 155.778 492.716C 155.112 497.716 154.112 503.383 149.778 506.716C 146.778 508.716 143.112 509.049 139.778 509.383"/>
<path fill="#ff3f3f" stroke-width="6" stroke="#ff0000" d="M 82.4451 644.383L 75.1117 644.383L 42.4451 715.049L 55.7784 721.716C 55.7784 721.716 76.7915 724.511 87.1117 720.383C 97.1117 716.383 121.112 712.383 121.112 712.383L 101.778 681.716L 82.4451 644.383z"/>
</g>
</g>
<g>
<g>
<g>
<path fill="#ff9f3f" stroke-width="6" stroke="#000000" d="M 539.781 583.663C 539.781 641.342 496.943 688.102 444.102 688.102C 391.261 688.102 348.423 641.342 348.423 583.663L 539.781 583.663z"/>
<path fill="none" stroke-width="6" stroke="#000000" d="M 535.891 613.663C 535.891 613.663 551.391 605.663 561.891 605.663C 572.391 605.663 573.891 617.163 573.391 628.163C 572.891 639.163 558.891 649.163 539.391 657.163C 519.891 665.163 504.391 665.663 504.391 665.663"/>
</g>
<g>
<path fill="#ff9f3f" stroke-width="6" stroke="#000000" d="M 78.7746 583.663C 78.7746 641.342 121.612 688.102 174.453 688.102C 227.294 688.102 270.132 641.342 270.132 583.663L 78.7746 583.663z"/>
<path fill="none" stroke-width="6" stroke="#000000" d="M 82.6638 613.663C 82.6638 613.663 67.1638 605.663 56.6638 605.663C 46.1638 605.663 44.6638 617.163 45.1638 628.163C 45.6638 639.163 59.6638 649.163 79.1638 657.163C 98.6638 665.163 114.164 665.663 114.164 665.663"/>
</g>
<g>
<path fill="#ff9f3f" stroke-width="6" stroke="#000000" d="M 267.78 362.163C 267.78 419.842 224.942 466.602 172.101 466.602C 119.26 466.602 76.4224 419.842 76.4224 362.163L 267.78 362.163z"/>
<path fill="none" stroke-width="6" stroke="#000000" d="M 263.89 392.163C 263.89 392.163 279.39 384.163 289.89 384.163C 300.39 384.163 301.89 395.663 301.39 406.663C 300.89 417.663 286.89 427.663 267.39 435.663C 247.89 443.663 232.39 444.163 232.39 444.163"/>
</g>
<g>
<path fill="#ff9f3f" stroke-width="6" stroke="#000000" d="M 350.775 362.163C 350.775 419.842 393.613 466.602 446.454 466.602C 499.295 466.602 542.133 419.842 542.133 362.163L 350.775 362.163z"/>
<path fill="none" stroke-width="6" stroke="#000000" d="M 354.665 392.163C 354.665 392.163 339.165 384.163 328.665 384.163C 318.165 384.163 316.665 395.663 317.165 406.663C 317.665 417.663 331.665 427.663 351.165 435.663C 370.665 443.663 386.165 444.163 386.165 444.163"/>
</g>
<g>
<path fill="#ff9f3f" stroke-width="6" stroke="#000000" d="M 539.781 140.663C 539.781 198.342 496.943 245.102 444.102 245.102C 391.261 245.102 348.423 198.342 348.423 140.663L 539.781 140.663z"/>
<path fill="none" stroke-width="6" stroke="#000000" d="M 535.891 170.663C 535.891 170.663 551.391 162.663 561.891 162.663C 572.391 162.663 573.891 174.163 573.391 185.163C 572.891 196.163 558.891 206.163 539.391 214.163C 519.891 222.163 504.391 222.663 504.391 222.663"/>
</g>
<g>
<path fill="#ff9f3f" stroke-width="6" stroke="#000000" d="M 78.7746 140.663C 78.7746 198.342 121.612 245.102 174.453 245.102C 227.294 245.102 270.132 198.342 270.132 140.663L 78.7746 140.663z"/>
<path fill="none" stroke-width="6" stroke="#000000" d="M 82.6638 170.663C 82.6638 170.663 67.1638 162.663 56.6638 162.663C 46.1638 162.663 44.6638 174.163 45.1638 185.163C 45.6638 196.163 59.6638 206.163 79.1638 214.163C 98.6638 222.163 114.164 222.663 114.164 222.663"/>
</g>
</g>
    <animateTransform attributeName="transform" type="scale"
            additive="replace" fill="freeze" 
            values="1.0; 0.2" begin="btn1.click" dur="5"/>
    <animateTransform attributeName="transform" type="scale"
            additive="replace" fill="freeze" 
            values="0.2; 1.0" begin="btn2.click" dur="1"/>
</g>
</svg>