<svg xmlns="http://www.w3.org/2000/svg"
	xmlns:xlink="http://www.w3.org/1999/xlink"
	width="637.89" height="851.852"
	viewBox="30.4 29.4 577 792">
<g>
<path style="stroke:none; fill:#E0F3BC" d="
M 607.445 821.445
L 607.445 29.4451
L 30.4451 29.4451
L 30.4451 821.445
L 607.445 821.445z"/>
</g>
<g>
    <path style="stroke:none; fill:#BC75B8" d="M 607.445 669.444L 607.445 29.4451L 30.4451 29.4451L 30.4451 669.444L 607.445 669.444z"/>
    <path style="stroke:#dfbfdf; stroke-width:6; stroke-linejoin:bevel; fill:none" d="M 37.4451 603.445C 225.445 603.445 413.445 603.445 601.445 603.445"/>
</g>
<g>
    <path style="stroke:none; fill:#f4b275" d="M 296.945 162.445C 296.945 162.445 256.445 169.945 235.445 195.445C 214.445 220.945 197.945 237.445 193.445 267.445C 188.945 297.445 188.945 364.945 188.945 364.945L 191.945 432.445L 191.945 475.945C 191.945 475.945 182.945 456.445 163.445 468.445C 143.945 480.445 125.945 493.945 139.445 510.445C 152.945 526.945 163.445 529.945 163.445 529.945L 170.945 570.445L 161.945 615.445L 361.445 612.445C 361.445 612.445 352.445 591.445 359.945 570.445C 367.445 549.445 371.945 532.945 371.945 532.945C 371.945 532.945 385.445 547.945 395.945 532.945C 406.445 517.945 418.445 490.945 400.445 483.445C 382.445 475.945 373.445 475.945 373.445 475.945C 373.445 475.945 376.445 403.945 377.945 378.445C 379.445 352.945 386.945 289.945 377.945 256.945C 368.945 223.945 344.945 190.945 328.445 177.445C 311.945 163.945 296.945 162.445 296.945 162.445z"/>
    <path style="stroke:none; fill:#ffffff" d="M 178.445 442.445L 194.445 443.445L 189.445 454.445L 181.445 452.445L 178.445 442.445z"/>
    <path opacity="0.5" style="stroke:none; fill:#FFFFFF" d="M 186.945 474.522C 201.394 474.522 213.108 462.175 213.108 446.945C 213.108 431.715 201.394 419.368 186.945 419.368C 172.496 419.368 160.782 431.715 160.782 446.945C 160.782 462.175 172.496 474.522 186.945 474.522z"/>
    <path style="stroke:none; fill:#FF8000" d="M 239.945 531.445C 239.945 531.445 224.945 471.445 230.945 439.945C 236.945 408.445 263.945 358.945 263.945 358.945C 263.945 358.945 280.445 316.945 304.445 360.445C 328.445 403.945 334.445 406.945 334.445 442.945C 334.445 478.945 326.945 481.945 326.945 481.945L 328.445 528.445L 239.945 531.445z"/>
    <path style="stroke:none; fill:#81027E" d="M 291.445 524.445C 291.445 524.445 300.445 510.445 309.445 509.445C 318.445 508.445 328.445 517.445 328.445 517.445L 328.445 528.445L 290.445 533.445L 291.445 524.445z"/>
    <path style="stroke:none; fill:#81027E" d="M 209.445 508.445L 226.445 508.445L 211.445 526.445L 205.445 523.445L 209.445 508.445z"/>

    <g stroke="#FFD700" stroke-width="4" fill="none">
        <path d="M 339.445 573.445C 329.445 565.445 329.445 550.445 334.445 539.445C 334.445 544.445 340.445 546.445 341.445 550.445C 342.445 556.445 344.445 562.445 341.445 568.445"/>
        <path d="M 340.445 583.445C 341.445 578.445 339.445 574.445 341.445 568.445C 340.445 565.445 340.445 560.445 338.445 556.445"/>
        <path d="M 327.445 610.445C 325.445 590.445 348.445 583.445 357.445 568.445"/>
        <path d="M 332.445 591.445C 326.445 583.445 316.445 583.445 307.445 584.445"/>
        <path d="M 320.445 576.445C 312.445 573.445 304.445 581.445 296.445 583.445C 296.445 584.445 294.445 585.445 295.445 587.445C 299.445 595.445 312.445 596.445 317.445 587.445"/>
        <path d="M 329.445 607.445C 338.445 608.445 342.445 600.445 349.445 596.445"/>
        <path d="M 342.445 602.445C 340.445 594.445 348.445 588.445 355.445 587.445"/>
        <path d="M 342.445 607.445C 346.445 607.445 350.445 608.445 353.445 606.445C 353.445 606.445 353.445 605.445 353.445 604.445"/>
        <path d="M 319.445 568.445C 319.445 559.445 319.445 551.445 319.445 542.445C 314.445 542.445 308.445 540.445 306.445 544.445C 304.445 546.445 303.445 556.445 310.445 554.445C 311.445 554.445 309.445 552.445 311.445 552.445"/>
        <path d="M 354.445 544.445C 354.445 541.445 355.445 538.445 354.445 536.445C 352.445 533.445 349.445 531.445 346.445 529.445C 340.445 522.445 341.445 511.445 344.445 505.445C 346.445 501.445 348.445 507.445 349.445 510.445C 351.445 516.445 350.445 523.445 350.445 529.445"/>
        <path d="M 350.445 537.445C 338.445 539.445 338.445 525.445 339.445 517.445C 340.2 511.409 339.445 505.445 339.445 499.445"/>
        <path d="M 357.445 509.445C 357.445 503.445 359.445 498.445 359.445 492.445"/>
        <path d="M 358.445 499.445C 353.445 493.445 351.445 482.445 358.445 478.445C 355.699 480.014 351.445 477.445 348.445 479.445C 345.445 481.445 342.445 487.445 346.445 489.445C 350.445 492.445 356.445 494.445 359.445 492.445C 360.445 489.445 357.445 478.445 358.445 478.445"/>
        <path d="M 364.445 477.445C 363.445 484.445 367.445 491.445 364.445 498.445"/>
        <path d="M 380.445 491.445C 382.445 489.445 387.445 487.445 389.445 490.445C 390.445 492.445 390.445 494.445 389.445 496.445C 388.445 496.445 386.445 496.445 385.445 496.445"/>
        <path d="M 391.445 504.445C 391.445 507.445 395.445 511.445 393.445 514.445C 391.445 516.445 390.445 518.445 388.445 519.445C 382.445 520.445 373.445 521.445 375.445 512.445"/>
        <path d="M 171.445 510.445C 163.004 517.479 169.886 525.411 152.445 515.445C 151.445 514.445 150.875 507.241 150.445 504.445C 148.445 491.445 153.445 485.445 161.445 483.445C 166.445 481.445 179.445 484.445 184.445 487.445C 196.445 494.445 194.445 511.445 195.445 523.445"/>
        <path d="M 216.445 610.445C 217.445 603.445 213.445 598.445 211.445 592.445C 207.445 584.445 200.445 578.445 193.445 574.445C 188.445 571.445 182.445 569.445 180.445 565.445C 178.445 560.445 175.445 553.445 180.445 549.445C 184.445 544.445 192.445 549.445 191.445 556.445"/>
        <path d="M 211.445 592.445C 210.445 588.445 214.445 585.445 217.445 584.445C 222.445 582.445 228.445 582.445 231.445 577.445"/>
        <path d="M 225.445 580.445C 225.445 576.445 223.445 571.445 226.445 568.445C 229.445 566.445 231.445 564.445 235.445 565.445C 230.445 572.445 232.445 581.445 224.445 586.445C 228.445 586.445 234.445 588.445 236.445 585.445C 242.445 579.445 240.445 570.445 240.445 563.445"/>
        <path d="M 202.445 579.445C 202.445 573.445 200.445 566.445 203.445 560.445C 204.445 557.445 207.445 549.445 212.445 553.445C 214.445 555.445 214.445 560.445 213.445 563.445C 211.445 566.445 208.445 568.445 205.445 572.445C 204.445 574.445 201.445 570.445 201.445 568.445C 200.445 563.445 196.445 556.445 200.445 553.445C 204.445 549.445 211.445 549.445 214.445 544.445"/>
        <path d="M 172.445 587.445C 177.445 585.445 182.445 585.445 187.445 587.445C 190.445 588.445 192.445 593.445 190.445 596.445C 186.893 601.773 181.445 598.445 177.445 597.445C 175.445 597.445 171.445 596.445 171.445 592.445"/>
        <path d="M 180.445 591.445C 190.445 599.445 203.445 593.445 214.445 599.445"/>
        <path d="M 245.445 609.445C 253.445 596.445 247.445 575.445 256.445 562.445C 257.445 561.445 276.445 570.445 276.445 571.445C 279.445 575.445 280.445 579.445 284.445 577.445C 287.445 575.445 287.445 559.445 287.445 556.445"/>
        <path d="M 284.445 616.445C 279.445 611.445 275.445 605.445 270.445 600.445C 266.445 596.445 267.445 588.445 267.445 582.445C 278.445 582.445 280.445 597.445 279.445 606.445"/>
        <path d="M 267.445 582.445C 262.445 592.445 263.445 602.445 265.445 610.445C 266.445 613.445 273.445 613.445 278.445 611.445"/>
        <path d="M 354.445 471.445C 354.445 468.445 353.445 465.445 354.445 462.445C 356.445 458.445 362.445 456.445 363.445 452.445C 364.445 447.445 365.445 442.445 359.445 440.445C 354.445 439.445 349.445 439.445 345.445 441.445C 343.445 442.445 344.445 447.445 344.445 451.445C 348.445 450.445 352.445 453.445 356.445 450.445C 356.445 449.445 356.445 448.445 356.445 447.445C 356.445 447.445 355.445 447.445 354.445 447.445"/>
        <path d="M 364.445 429.445C 360.445 429.445 354.445 430.445 352.445 428.445C 346.445 420.445 350.445 407.445 361.445 403.445C 364.445 402.445 367.445 402.445 370.445 403.445C 374.445 406.445 371.445 412.445 372.445 417.445C 370.445 417.445 369.445 417.445 367.445 417.445"/>
        <path d="M 339.445 424.445C 335.445 422.445 329.445 421.445 325.445 423.445C 321.445 425.445 322.445 432.445 324.445 436.445C 326.445 442.445 337.445 447.445 341.445 440.445C 346.445 432.445 338.445 427.445 330.445 429.445C 330.445 429.445 330.445 431.445 330.445 432.445C 330.445 432.445 331.445 432.445 332.445 432.445"/>
        <path d="M 321.445 417.445C 325.445 418.445 328.445 413.445 330.445 410.445C 331.445 408.445 331.445 405.445 332.445 403.445C 330.445 396.445 320.445 394.445 314.445 397.445C 310.445 399.445 311.445 406.445 311.445 410.445C 313.445 414.445 319.445 414.445 323.445 413.445C 325.445 412.445 324.445 408.445 324.445 406.445L 323.445 406.445"/>
        <path d="M 305.445 425.445C 304.445 422.445 307.445 419.445 309.445 418.445C 311.445 418.445 316.445 416.445 317.445 419.445C 318.445 423.445 318.445 429.445 317.445 433.445C 316.445 433.445 313.445 434.445 312.445 433.445C 311.445 431.445 312.445 428.445 312.445 426.445"/>
        <path d="M 302.445 402.445C 295.445 401.445 297.445 411.445 297.445 415.445C 300.445 415.445 303.445 415.445 306.445 415.445C 305.445 415.445 305.445 414.445 305.445 413.445"/>
        <path d="M 307.445 464.445C 305.445 461.445 305.445 457.445 307.445 455.445C 308.445 452.445 313.445 450.445 316.445 453.445C 321.445 457.445 322.445 466.445 317.445 471.445C 317.445 472.445 312.445 474.445 310.445 471.445C 309.445 468.445 309.445 464.445 310.445 461.445C 312.445 459.445 315.445 460.445 318.445 460.445"/>
        <path d="M 326.945 481.945C 322.445 480.445 317.445 480.445 313.445 482.445C 309.445 484.445 310.445 491.445 312.445 495.445C 314.445 501.445 321.445 505.445 328.445 503.445C 331.445 502.445 332.445 496.445 329.445 493.445C 326.445 491.445 322.445 491.445 319.445 492.445C 319.445 492.445 319.445 493.445 319.445 494.445"/>
        <path d="M 296.445 490.445C 300.445 491.445 294.445 495.445 298.445 496.445"/>
        <path d="M 296.445 482.445C 296.445 478.445 297.445 474.445 296.445 470.445C 295.445 467.445 291.445 468.445 289.445 466.445"/>
        <path d="M 355.445 368.445C 349.445 371.445 344.445 376.445 348.445 382.445C 351.445 387.445 360.445 386.445 366.445 384.445C 368.445 384.445 370.445 379.445 367.445 377.445C 364.445 376.445 361.445 377.445 358.445 377.445"/>
        <path d="M 343.445 363.445C 355.445 360.445 351.445 345.445 352.445 336.445C 350.445 338.445 348.445 341.445 346.445 341.445C 340.445 342.445 334.445 336.445 338.445 332.445C 343.445 325.445 354.445 323.445 362.445 328.445C 368.445 331.445 366.445 340.445 366.445 347.445"/>
        <path d="M 374.445 360.445C 369.445 361.445 362.445 356.445 359.445 361.445C 354.445 367.445 363.445 374.445 370.445 370.445C 372.445 369.445 369.445 366.445 366.445 367.445"/>
        <path d="M 329.445 348.445C 329.445 341.445 332.445 331.445 325.445 327.445C 321.445 326.445 314.445 325.445 312.445 328.445C 305.445 336.445 313.445 348.445 324.445 343.445C 324.445 343.445 324.445 340.445 324.445 338.445"/>
        <path d="M 198.445 410.445C 206.445 413.445 214.445 405.445 212.445 396.445L 209.445 396.445C 208.445 390.445 203.445 385.445 207.445 379.445C 209.445 375.445 219.445 375.445 222.445 379.445C 226.445 382.445 226.445 389.445 223.445 393.445C 222.445 394.445 217.445 394.445 215.445 392.445C 214.445 392.445 215.445 388.445 215.445 386.445"/>
        <path d="M 228.445 408.445C 218.445 405.445 217.445 420.445 220.445 424.445C 223.445 428.445 232.445 430.445 235.445 425.445C 237.445 422.445 240.445 414.445 236.445 411.445C 231.445 407.445 228.445 413.445 229.445 418.445"/>
        <path d="M 253.445 407.445C 245.445 410.445 247.445 420.445 249.445 425.445C 251.445 429.445 260.445 428.445 262.445 426.445C 267.445 422.445 271.445 414.445 267.445 407.445C 267.445 406.445 263.445 404.445 261.445 407.445C 260.445 410.445 258.445 413.445 259.445 417.445"/>
        <path d="M 224.445 441.445C 224.445 440.445 228.445 433.445 228.445 432.445C 229.445 432.445 226.445 437.445 228.445 438.445C 232.445 440.445 235.445 446.445 232.445 448.445C 229.445 450.445 224.445 450.445 221.445 448.445C 220.445 447.445 219.445 443.445 220.445 441.445C 225.445 437.445 234.445 430.445 239.445 436.445C 245.445 441.445 244.445 449.445 243.445 457.445C 242.445 460.445 238.445 462.445 236.445 463.445C 232.445 464.445 227.445 464.445 223.445 462.445C 220.445 461.445 216.445 458.445 214.445 455.445C 212.445 449.445 211.445 442.445 214.445 437.445C 216.445 434.445 220.445 430.445 225.445 429.445L 225.445 430.445"/>
        <path d="M 209.445 354.445C 209.445 355.445 209.445 357.445 209.445 357.445C 211.445 358.445 215.445 358.445 215.445 357.445C 217.445 355.445 216.445 351.445 216.445 348.445C 212.445 348.445 207.445 345.445 205.445 348.445C 203.445 353.445 204.445 359.445 204.445 364.445C 210.445 363.445 217.445 368.445 220.445 363.445C 224.445 358.445 225.445 349.445 222.445 344.445C 218.445 338.445 209.445 340.445 202.445 340.445C 199.445 350.445 191.445 368.445 204.445 373.445"/>
        <path d="M 227.445 319.445C 223.445 321.445 226.445 326.445 225.445 330.445C 232.445 330.445 237.445 319.445 234.445 313.445C 232.445 308.445 224.445 310.445 221.445 313.445C 215.445 317.445 216.445 328.445 220.445 333.445C 224.445 337.445 233.445 336.445 237.445 332.445C 244.445 327.445 246.445 317.445 242.445 311.445C 236.445 303.445 224.445 302.445 215.445 305.445C 209.445 307.445 211.445 317.445 211.445 323.445"/>
        <path d="M 344.445 299.445C 344.445 301.445 343.445 304.445 344.445 304.445C 351.445 308.445 352.445 297.445 349.445 295.445C 345.445 291.445 341.445 299.445 337.445 303.445C 336.445 304.445 336.445 308.445 337.445 308.445C 343.445 311.445 351.445 312.445 355.445 309.445C 359.445 305.445 360.445 295.445 355.445 290.445C 352.445 285.445 343.445 285.445 339.445 288.445C 330.445 293.445 330.445 305.445 331.445 315.445C 334.445 315.445 338.445 317.445 341.445 316.445"/>
        <path d="M 376.445 307.445C 371.445 309.445 371.445 315.445 372.445 319.445C 373.445 319.445 375.445 319.445 377.445 319.445C 376.445 312.445 380.445 294.445 371.445 299.445C 362.445 304.445 365.445 316.445 365.445 325.445C 366.445 327.445 367.445 329.445 370.445 329.445"/>
        <path d="M 194.445 327.445C 196.445 313.445 197.445 300.445 199.445 286.445C 199.445 286.445 203.445 286.445 203.445 287.445C 206.445 302.445 207.445 318.445 200.445 332.445"/>
        <path d="M 220.445 274.445C 219.445 277.445 218.445 280.445 219.445 281.445C 226.445 286.445 229.445 277.445 226.445 271.445C 224.445 268.445 217.445 269.445 215.445 271.445C 211.445 274.445 212.445 281.445 215.445 284.445C 218.445 289.445 228.445 291.445 231.445 286.445C 234.445 282.445 234.445 274.445 231.445 268.445C 228.445 262.445 219.445 265.445 213.445 266.445C 208.445 266.445 207.445 272.445 208.445 276.445"/>
        <path d="M 244.445 246.445C 241.445 247.445 242.445 251.445 242.445 254.445C 245.445 254.445 249.445 256.445 250.445 253.445C 252.445 249.445 252.445 244.445 250.445 241.445C 248.445 239.445 243.445 239.445 239.445 240.445C 235.445 242.445 231.445 254.445 233.445 256.445C 240.028 264.674 243.362 263.216 254.445 260.445C 254.445 260.445 254.445 259.445 254.445 258.445C 255.445 258.445 256.445 259.445 257.445 259.445C 257.445 253.445 257.445 247.445 257.445 241.445"/>
        <path d="M 212.445 240.445C 218.445 238.445 222.445 245.445 217.445 248.445C 215.445 250.445 210.445 252.445 208.445 249.445C 206.445 245.445 205.445 241.445 206.445 237.445C 210.445 230.445 221.445 231.445 225.445 234.445C 230.445 238.445 228.445 247.445 226.445 253.445C 225.445 256.445 221.445 259.445 217.445 260.445C 213.445 260.445 208.445 263.445 204.445 258.445"/>
        <path d="M 240.445 215.445C 238.445 220.445 245.445 222.445 248.445 219.445C 249.445 218.445 249.445 214.445 248.445 213.445C 245.445 211.445 240.445 209.445 238.445 212.445C 234.445 215.445 226.445 222.445 233.445 226.445C 238.445 230.445 247.445 232.445 252.445 228.445C 257.445 224.445 253.445 214.445 254.445 207.445C 246.445 205.445 235.445 202.445 230.445 210.445"/>
        <path d="M 271.445 200.445C 271.445 202.445 269.445 200.445 269.445 201.445C 268.445 205.445 266.445 210.445 269.445 212.445C 276.445 216.445 277.445 205.445 282.445 201.445C 283.445 199.445 283.445 195.445 281.445 193.445C 276.445 191.445 269.445 190.445 264.445 193.445C 257.445 197.445 261.445 208.445 260.445 216.445C 268.445 220.445 282.445 222.445 287.445 214.445C 288.445 215.445 289.445 215.445 290.112 215.966C 290.445 209.445 290.445 203.445 290.445 196.445"/>
        <path d="M 267.445 175.445C 271.445 175.445 275.445 174.445 278.445 176.445C 279.445 176.445 279.445 181.445 278.445 181.445C 272.445 185.445 265.445 184.445 259.445 183.445C 259.445 183.445 259.445 181.445 259.445 180.445"/>
        <path d="M 248.445 188.445C 248.445 189.445 248.445 191.445 248.445 192.445C 247.445 192.445 246.445 192.445 245.445 192.445"/>
        <path d="M 223.445 216.445C 223.445 215.445 223.445 214.445 223.445 213.445"/>
        <path d="M 310.445 198.445C 310.445 197.445 310.445 196.445 311.445 196.445C 314.445 196.445 317.445 196.445 320.445 196.445C 319.445 199.445 322.445 204.445 319.445 206.445C 315.445 208.445 309.445 209.445 306.445 206.445C 304.445 205.445 302.445 199.445 305.445 197.445C 310.445 191.445 318.445 187.445 325.445 191.445C 331.445 194.445 330.445 205.445 328.445 211.445C 327.445 214.445 321.445 216.445 316.445 215.445"/>
        <path d="M 306.445 173.445C 307.445 177.445 309.445 184.445 312.445 180.445C 314.445 178.445 315.445 171.445 312.445 169.445C 307.445 166.445 299.445 164.445 296.445 169.445C 293.445 172.445 294.445 178.445 295.445 183.445C 296.445 187.445 300.445 186.445 303.445 188.445"/>
        <path d="M 339.445 222.445C 338.445 222.445 336.445 222.445 336.445 223.445C 336.445 226.445 336.445 229.445 336.445 232.445C 340.445 231.445 345.445 234.445 347.445 231.445C 351.445 225.445 346.445 219.445 341.445 216.445C 339.445 215.445 337.445 215.445 335.445 216.445C 330.445 221.445 329.445 229.445 332.445 235.445C 334.445 238.445 340.445 235.445 345.445 236.445"/>
        <path d="M 345.445 249.445C 349.445 246.445 353.445 247.445 357.445 247.445C 357.445 249.445 358.445 252.445 357.445 254.445C 353.445 258.445 347.445 259.445 343.445 256.445C 341.445 255.445 341.445 250.445 342.445 247.445C 346.445 241.445 355.445 243.445 361.445 243.445C 361.445 250.445 366.445 258.445 361.445 265.445C 357.445 270.445 349.445 265.445 343.445 268.445"/>
        <path d="M 326.445 264.445C 334.445 264.445 330.445 255.445 331.445 250.445C 329.445 250.445 328.445 250.445 326.445 250.445"/>
        <path d="M 359.445 215.445C 359.445 223.445 358.445 233.445 367.445 235.445C 367.445 232.445 368.445 228.445 367.445 225.445C 363.445 220.445 361.445 213.445 354.445 211.445C 354.445 215.445 354.445 218.445 354.445 222.445"/>
        <path d="M 372.445 281.445C 371.445 281.445 370.445 281.445 369.445 281.445C 368.445 282.445 370.445 284.445 368.445 284.445C 368.445 279.445 368.445 275.445 368.445 270.445C 368.445 270.445 369.445 270.445 370.445 270.445"/>
        <path d="M 191.445 526.445C 190.445 526.445 189.445 526.445 189.445 526.445C 185.445 533.445 192.445 540.445 197.445 536.445C 200.445 534.445 200.445 528.445 199.445 523.445C 194.445 524.445 189.445 519.445 185.445 522.445C 179.445 526.445 181.445 535.445 183.445 542.445"/>
        <path d="M 303.445 608.445C 303.445 607.445 303.445 605.445 303.445 604.445C 304.445 603.445 307.445 603.445 308.445 604.445C 310.445 606.445 309.445 610.445 309.445 613.445C 304.445 610.445 295.445 606.445 299.445 601.445C 301.445 597.445 307.445 596.445 311.445 599.445C 316.445 601.445 314.445 607.445 314.445 612.445"/>
    </g>
    

    <path style="stroke:none; fill:#ffffff" d="M 295.445 202.445C 295.445 202.445 264.445 231.445 257.445 259.445C 250.445 287.445 243.445 324.445 243.445 324.445L 319.445 332.445L 325.445 327.445C 325.445 327.445 333.445 291.445 328.445 270.445C 323.445 249.445 314.445 223.445 314.445 223.445L 305.445 235.445L 295.445 202.445z"/>
    <path style="stroke:none; fill:#9f9f3f" d="M 240.445 329.445L 230.445 334.445L 229.445 351.445L 222.445 356.445L 225.445 369.445L 215.445 380.445L 218.445 396.445L 206.445 403.445L 209.445 421.445L 220.445 413.445L 241.445 404.445L 251.445 414.445L 279.445 398.445L 311.445 410.445L 332.445 403.445L 356.445 406.445L 344.445 395.445L 350.445 379.445L 336.445 370.445L 330.445 352.445L 322.445 349.445L 319.445 332.445L 240.445 329.445z"/>
    <path style="stroke:none; fill:#ffff3f" d="M 240.445 329.445C 240.445 329.445 237.445 347.445 241.445 359.445C 245.445 371.445 252.445 385.445 271.445 386.445C 290.445 387.445 312.445 379.445 317.445 364.445C 322.445 349.445 319.445 332.445 319.445 332.445L 240.445 329.445z"/>
    <path style="stroke:#FF8000; stroke-width:4; fill:none" d="M 278.112 315.299C 278.112 309.299 279.445 303.299 277.445 297.299C 275.445 291.299 266.112 289.966 261.445 293.299C 258.112 295.966 258.112 302.633 260.112 305.299C 262.112 308.633 268.112 309.966 271.445 307.299C 272.778 306.633 272.112 303.299 272.112 300.633C 270.112 300.633 268.112 298.633 266.112 300.633"/>
    <path style="stroke:#FF8000; stroke-width:4; fill:none" d="M 287.445 313.966C 288.112 307.966 285.445 301.299 289.445 295.299C 293.445 289.966 300.778 290.633 304.778 292.633C 308.778 294.633 308.778 301.966 306.778 306.633C 305.445 309.299 300.778 309.299 298.112 307.966C 296.112 307.299 298.112 303.966 297.445 301.299"/>
    <path style="stroke:#81027E; stroke-width:4; fill:none" d="M 276.362 267.549C 283.028 267.549 290.362 269.549 294.362 263.549C 297.695 258.883 297.028 250.216 291.695 247.549C 287.028 245.549 279.695 245.549 274.362 249.549C 274.362 258.883 274.362 267.549 274.362 276.883C 274.362 278.883 274.362 281.549 274.362 283.549"/>
    <path style="stroke:#FF8000; stroke-width:4; fill:none" d="M 290.112 215.966C 290.112 222.633 292.112 229.966 289.445 235.299C 288.778 236.633 283.445 237.299 281.445 235.299C 279.445 234.633 281.445 232.633 282.778 230.633"/>
    <path style="stroke:#FEA033; stroke-width:4; fill:none" d="M 125.445 415.445"/>
    <path style="stroke:none; fill:#9E3999" d="M 156.778 804.778C 142.889 795.617 132.954 746.85 140.112 731.445C 148.013 714.44 146.384 717.282 153.445 705.445C 155.636 701.772 118.445 703.945 118.445 703.945L 122.945 675.445L 133.445 676.945L 133.445 643.945L 152.945 643.945L 154.445 619.945L 361.445 612.445L 362.945 634.945L 386.945 639.445L 386.945 666.445L 406.445 669.445L 404.945 700.945C 404.945 700.945 398.945 714.445 409.445 720.445C 449.324 743.233 343.651 766.208 341.445 779.445C 338.445 797.445 383.945 820.945 383.945 820.945L 217.445 819.445C 217.445 819.445 188.112 825.445 156.778 804.778z"/>
    <path style="stroke:none; fill:#ffffff" d="M 215.695 461.695L 235.445 458.445L 281.195 403.695L 273.945 433.445L 231.945 475.445L 196.195 470.695L 194.695 476.695L 197.695 461.695L 215.695 461.695z"/>
    <path style="stroke:none; fill:#ffffff" d="M 275.445 414.445L 288.445 414.445L 290.445 426.445L 356.445 470.945L 327.945 478.945L 320.383 468.57L 333.945 465.945L 290.445 441.445L 295.445 518.445L 287.445 524.445L 305.445 557.445L 206.445 546.445L 218.445 515.445L 248.445 500.445L 253.445 471.445L 274.445 452.445L 275.445 414.445z"/>
    <path style="stroke:#FF8000; stroke-width:4; fill:none" d="M 217.445 542.195C 217.112 539.862 216.445 535.112 217.112 532.778C 217.445 531.778 218.445 530.445 219.445 529.445C 223.112 527.112 227.445 526.778 230.778 528.112C 235.778 530.445 235.195 537.195 233.778 542.445C 231.112 544.445 227.778 543.112 224.778 543.445C 222.195 541.695 223.445 538.445 223.778 535.778C 224.112 535.445 227.528 534.695 228.195 534.695"/>
    <path style="stroke:#FF8000; stroke-width:4; fill:none" d="M 239.945 538.195C 239.278 535.862 241.778 533.112 243.445 531.778C 246.112 530.112 249.445 529.445 251.778 530.778C 256.112 533.112 256.445 539.112 255.445 543.778C 254.778 547.445 250.112 547.778 247.445 546.445C 244.778 545.445 245.445 541.445 246.112 538.778C 246.445 538.112 248.695 537.362 249.695 537.695"/>
    <path style="stroke:#FF8000; stroke-width:4; fill:none" d="M 261.695 542.445C 261.362 540.778 264.778 535.112 266.445 534.445C 269.112 533.112 272.695 532.445 276.195 533.695C 279.695 537.695 279.945 539.695 279.112 544.445C 278.881 545.758 278.195 549.612 277.195 549.945C 274.862 550.945 269.612 548.695 266.945 548.695C 266.278 548.695 266.695 544.528 266.695 544.195C 266.695 541.862 271.362 541.695 272.695 539.695"/>
    <path style="stroke:#FF8000; stroke-width:4; fill:none" d="M 284.695 543.195C 284.028 541.528 285.778 539.112 287.112 538.445C 288.778 537.778 290.445 537.778 292.112 538.445C 293.112 538.445 294.112 539.778 294.445 540.778C 296.445 544.112 296.445 548.112 295.445 551.445C 294.778 554.112 291.112 554.112 288.778 553.112C 287.445 552.778 285.612 550.112 285.945 548.445C 286.278 546.778 287.695 544.695 289.778 544.445"/>
    <path style="stroke:#FEA033; stroke-width:4; fill:#ffffff" d="M 270.778 462.778C 270.445 462.112 271.112 461.778 271.445 461.445C 271.445 461.445 271.778 461.445 272.112 461.445"/>
    <path style="stroke:#FEA033; stroke-width:4; fill:#ffffff" d="M 264.112 468.778C 263.778 469.445 263.445 470.445 263.112 471.112"/>
    <path style="stroke:#FEA033; stroke-width:4; fill:#ffffff" d="M 259.112 478.112C 259.112 479.112 259.112 479.778 259.112 480.778"/>
    <path style="stroke:#FEA033; stroke-width:4; fill:#ffffff" d="M 255.778 489.112C 255.778 490.112 255.778 491.112 255.778 492.112"/>
    <path style="stroke:#FEA033; stroke-width:4; fill:#ffffff" d="M 253.778 497.778C 253.778 498.778 253.778 500.112 253.778 501.112"/>
    <path style="stroke:#FEA033; stroke-width:4; fill:#ffffff" d="M 279.445 447.445C 279.445 446.112 279.445 445.112 279.445 443.778"/>
    <path style="stroke:#FEA033; stroke-width:4; fill:#ffffff" d="M 278.778 438.445C 278.778 437.445 278.778 436.778 278.778 435.778"/>
    <path style="stroke:#FEA033; stroke-width:4; fill:#ffffff" d="M 278.445 429.445C 278.445 428.778 278.445 427.778 278.445 427.112"/>
    <path style="stroke:#13017C; stroke-width:6; fill:none" d="M 287.445 795.445C 295.445 795.445 301.445 795.445 309.445 795.445"/>
    <path style="stroke:#13017C; stroke-width:6; fill:none" d="M 207.445 771.445C 239.445 773.445 273.445 771.445 305.445 767.445"/>
    <path style="stroke:#13017C; stroke-width:6; fill:none" d="M 281.445 725.445C 291.445 725.445 303.445 725.445 313.445 725.445"/>
</g>
<g stroke="#000000" stroke-width="6" fill="none">
    <path d="M 243.445 323.445C 238.778 335.445 237.445 349.445 240.112 361.445C 241.445 368.778 246.778 377.445 253.445 381.445C 262.112 386.778 274.778 388.112 284.112 386.778C 301.44 384.612 308.778 381.445 314.778 372.778C 324.112 362.778 320.112 344.778 318.778 332.112C 318.778 329.445 313.445 325.445 313.445 323.445C 313.445 283.395 313.445 243.445 297.445 205.445C 297.445 205.445 293.445 201.445 291.445 203.445C 251.445 231.445 243.445 323.445 243.445 323.445C 243.445 323.445 285.445 323.445 307.445 323.445"/>
    <path d="M 308.112 232.112C 310.112 228.778 310.778 225.445 313.445 222.778C 328.778 256.112 328.778 293.445 325.445 329.445C 325.445 329.445 320.778 329.445 318.112 329.445"/>
    <path d="M 238.778 332.112C 236.112 331.445 233.445 332.778 232.778 336.112C 231.445 342.112 233.445 347.445 231.445 352.778C 230.778 355.445 225.445 355.445 224.778 357.445C 221.928 366.946 229.749 365.02 226.112 374.112C 226.112 375.445 215.445 380.112 215.445 381.445C 214.112 385.445 214.778 388.778 217.445 392.112C 220.112 394.112 220.112 398.778 218.112 400.778C 216.112 403.445 210.112 400.778 207.445 404.778C 206.112 407.445 206.112 410.778 207.445 412.778C 209.445 416.112 212.112 420.778 210.112 424.778"/>
    <path d="M 321.445 341.445C 320.778 346.112 323.445 351.445 328.778 350.112C 328.778 351.445 330.778 350.112 330.778 351.445C 332.112 357.445 330.112 364.112 332.112 369.445C 334.112 372.778 340.778 370.778 344.112 372.778C 349.445 375.445 348.778 383.445 346.112 388.112C 344.112 391.445 342.778 396.778 344.778 398.778C 346.778 401.445 351.445 401.445 354.778 403.445C 355.445 403.445 356.778 405.445 356.778 407.445"/>
    <path d="M 257.445 347.445C 260.778 344.778 267.445 344.112 270.778 347.445"/>
    <path d="M 289.445 349.445C 293.445 346.778 297.445 346.778 302.112 347.445C 302.778 347.445 304.695 350.945 304.695 350.945"/>
    <path stroke-linejoin="round" d="M 258.778 370.778C 267.445 381.445 281.445 378.112 293.445 377.445C 295.445 377.445 301.195 372.945 303.195 370.945"/>
    <path stroke-linejoin="bevel" d="M 245.445 326.778C 246.112 331.445 251.445 332.112 255.445 330.778C 256.112 330.778 258.112 329.445 257.445 327.445C 258.112 327.445 258.778 327.445 258.778 327.445C 260.112 332.112 266.778 332.112 270.112 330.778C 272.112 330.112 274.112 327.445 274.112 324.112C 274.112 331.445 280.112 332.195 285.445 330.195C 286.778 330.195 288.112 327.445 288.112 326.112C 290.112 329.445 293.445 330.778 296.778 332.112C 300.112 333.445 302.778 330.778 302.778 327.445C 304.778 331.445 310.778 332.778 314.778 330.778C 314.778 330.112 314.778 329.445 315.445 328.778"/>
    <path d="M 281.445 391.445C 281.445 418.445 287.945 447.445 287.945 474.445"/>
    <path d="M 278.945 407.445C 277.945 411.445 268.945 418.945 265.945 421.945C 258.945 427.945 253.015 434.326 247.945 442.945C 242.945 451.445 240.445 459.445 233.445 463.445C 222.445 468.445 195.445 463.445 195.445 463.445C 195.445 463.445 195.945 456.945 194.445 455.445C 192.945 453.945 181.445 453.445 178.445 456.445C 175.445 459.445 174.778 468.612 174.778 468.612"/>
    <path d="M 184.445 453.445L 179.945 443.945L 193.112 444.445L 187.778 453.778"/>
    <path d="M 284.945 420.945C 295.945 429.945 298.445 431.945 310.445 439.945C 314.445 441.945 331.445 451.445 333.445 454.445C 340.445 459.445 342.445 462.445 350.445 466.445C 344.445 466.445 338.445 465.445 332.445 467.445C 328.445 468.445 322.445 466.445 321.445 469.445C 318.445 473.445 320.445 480.445 320.445 486.445"/>
    <path d="M 280.445 453.445C 268.445 451.445 258.445 461.445 253.445 470.445C 248.445 480.445 249.445 491.445 249.445 501.445C 226.445 502.445 208.445 525.445 206.445 546.445C 239.445 551.445 273.445 553.445 306.445 558.445C 306.445 548.445 287.945 538.445 287.945 528.445C 287.945 516.445 297.445 526.945 295.445 514.945C 294.435 507.874 293.945 495.445 291.445 476.445C 290.684 470.664 288.445 466.445 286.445 461.445"/>
    <path d="M 221.445 551.445C 221.445 567.445 212.445 582.445 212.445 598.445C 203.445 597.445 193.445 601.445 185.445 596.445"/>
    <path d="M 185.445 596.445"/>
    <path d="M 334.445 477.445C 352.445 477.445 371.945 474.445 389.945 478.945C 404.945 483.445 407.945 507.445 403.445 522.445C 398.945 534.445 380.945 532.945 371.945 528.445C 362.945 523.945 362.945 508.945 367.445 502.945C 368.945 499.945 380.945 499.945 383.945 505.945C 383.945 508.945 385.445 511.945 382.445 514.945"/>
    <path d="M 292.445 525.445C 291.445 522.445 293.445 519.445 295.445 517.445C 304.445 512.445 315.445 506.445 323.445 514.445C 326.445 516.445 326.445 525.445 324.445 526.445C 317.445 530.445 308.445 530.445 299.445 529.445C 298.445 529.445 297.445 531.445 296.445 531.445C 303.945 531.445 320.945 529.945 328.445 531.445C 328.445 514.945 331.445 498.445 329.945 481.945"/>
    <path d="M 158.945 510.445C 157.445 504.445 170.945 490.945 173.945 496.945C 177.33 503.714 200.06 510.676 175.445 525.445C 167.945 529.945 143.945 528.445 140.945 519.445C 136.445 504.445 136.445 483.445 151.445 474.445C 158.945 469.945 167.945 471.445 177.445 473.445C 178.445 472.945 178.445 477.445 179.945 477.445C 188.945 478.945 199.445 478.945 202.445 486.445C 208.445 498.445 205.445 511.945 205.445 525.445C 205.445 521.445 204.445 516.445 206.445 512.445C 208.445 506.445 216.445 508.445 222.445 508.445C 222.445 509.445 222.445 511.445 222.445 512.445C 216.445 517.445 213.445 523.445 205.445 525.445"/>
    <path d="M 163.445 531.445C 169.445 553.945 175.445 576.445 169.445 598.945C 167.945 604.945 166.445 610.945 163.445 616.945"/>
    <path d="M 371.945 528.445C 364.445 558.445 355.445 585.445 358.445 613.945"/>
    <path d="M 242.945 556.945C 242.945 558.445 242.945 561.445 242.945 562.945C 253.445 573.445 256.445 586.945 268.445 595.945C 269.945 597.445 269.945 601.945 268.445 603.445C 259.445 607.945 253.445 616.945 242.945 616.945"/>
    <path d="M 374.945 453.445C 373.457 377.554 386.508 309.97 368.945 226.945C 364.445 207.445 320.945 166.945 298.445 160.945C 298.445 160.945 242.945 169.945 211.445 223.945C 179.945 277.945 194.945 325.945 191.945 357.445C 187.445 388.945 191.945 402.445 191.945 433.945"/>
    <path d="M 158.945 459.778C 159.278 459.112 159.778 458.945 160.278 458.778C 165.112 456.945 170.278 456.945 175.445 457.778C 175.778 457.778 176.278 457.778 176.445 458.278"/>
    <path d="M 367.445 615.445C 295.445 621.445 225.445 613.445 153.445 619.445C 153.445 619.445 155.445 637.445 151.445 643.445C 149.445 647.445 139.445 645.445 133.445 645.445C 133.445 655.445 135.445 667.445 131.445 677.445C 131.445 679.445 121.445 675.445 121.445 677.445C 117.445 685.445 119.445 695.445 119.445 703.445"/>
    <path d="M 369.445 621.445C 369.445 627.445 367.445 635.445 371.445 637.445C 373.445 641.445 383.445 637.445 385.445 639.445C 391.445 647.445 383.445 661.445 389.445 667.445C 391.445 671.445 403.445 667.445 405.445 669.445C 411.445 679.445 407.445 691.445 407.445 703.445"/>
    <path d="M 141.445 643.445C 149.445 641.445 157.445 647.445 165.445 647.445C 221.445 653.445 279.445 655.445 335.445 655.445"/>
    <path d="M 215.445 676.445C 245.445 674.445 286.445 676.445 314.445 680.445C 334.905 682.15 354.18 676.445 386.445 676.445"/>
</g>
<g>
    <path style="stroke:none; fill:#000000" d="M 31.1951 67.9451L 70.2993 83.0196C 70.2993 83.0196 98.3625 71.9012 115.902 66.6068C 133.441 61.3123 144.687 66.4438 148.195 84.4451C 151.703 102.446 153.08 98.9733 148.695 116.445C 144.31 133.917 125.987 139.67 125.987 139.67L 118.945 152.195L 107.695 196.945L 105.748 404.394L 105.748 580.171C 105.748 580.171 103.186 660.647 101.432 671.236C 99.678 681.825 96.1701 692.414 96.1701 692.414L 115.463 715.709L 134.757 781.361L 99.678 811.01L 55.8293 817.363L 29.3122 819.761L 31.1951 67.9451z"/>
    <path style="stroke:none; fill:#ffffff" d="M 399.445 93.4451C 399.445 93.4451 411.445 63.4451 439.445 71.4451C 467.445 79.4451 467.445 105.445 499.445 101.445C 531.445 97.4451 529.445 71.4451 551.445 73.4451C 573.445 75.4451 597.445 83.4451 587.445 113.445C 577.445 143.445 571.445 117.445 563.445 151.445C 555.445 185.445 555.445 195.445 555.445 195.445L 567.445 201.445L 561.445 215.445L 553.445 219.445C 553.445 219.445 559.445 239.445 559.445 277.445C 559.445 315.445 553.445 333.445 553.445 333.445C 553.445 333.445 559.445 351.445 561.445 397.445C 563.445 443.445 557.445 477.445 557.445 477.445C 557.445 477.445 571.445 535.445 567.445 591.445C 563.445 647.445 563.445 703.445 563.445 703.445C 563.445 703.445 567.445 705.445 569.445 711.445C 571.445 717.445 569.445 735.445 569.445 735.445L 581.445 735.445C 581.445 735.445 603.445 781.445 577.445 803.445C 551.445 825.445 449.445 819.445 427.445 809.445C 405.445 799.445 407.445 791.445 407.445 791.445C 407.445 791.445 419.445 719.445 427.445 707.445C 435.445 695.445 433.445 631.445 433.445 593.445C 433.445 555.445 443.445 479.445 443.445 479.445L 439.445 471.445L 439.445 341.445L 455.445 329.445L 439.445 329.445L 441.445 215.445L 431.445 213.445C 431.445 213.445 427.445 195.445 437.445 195.445C 447.445 195.445 451.445 183.445 451.445 183.445L 433.445 165.445L 441.445 161.445L 431.445 149.445C 431.445 149.445 413.445 153.445 403.445 127.445C 393.445 101.445 399.445 93.4451 399.445 93.4451z"/>
    <path style="stroke:none; fill:#FFFFC0" d="M 30.9451 29.7784L 30.9451 65.4451C 30.9451 65.4451 52.4451 85.9451 80.9451 78.4451C 109.445 70.9451 106.445 63.4451 124.445 64.9451C 142.445 66.4451 143.945 72.4451 143.945 72.4451C 143.945 72.4451 194.945 40.9451 241.445 39.4451C 287.945 37.9451 323.945 24.4451 361.445 39.4451C 398.945 54.4451 419.945 70.9451 419.945 70.9451L 448.445 73.9451C 448.445 73.9451 448.445 79.4451 473.945 90.4451C 499.445 101.445 495.445 104.445 523.445 88.9451C 551.445 73.4451 566.945 79.9451 575.945 84.4451C 584.945 88.9451 605.945 78.4451 605.945 78.4451L 606.445 30.1951L 30.9451 29.7784z"/>
</g>
<g stroke-width="6" fill="none">
    <path style="stroke:#B8037E" d="M 37.5463 68.5258C 55.0858 79.1147 76.1332 87.586 95.4267 76.9969C 109.458 70.6436 126.998 60.0547 139.275 68.5258C 156.815 81.2325 155.061 117.235 141.029 134.177C 135.767 142.648 111.048 143.443 104.032 139.207C 93.4352 132.81 91.5899 95.5276 104.032 94.7335C 109.571 94.3799 121.736 96.0571 126.998 102.41C 128.752 108.764 129.793 117.5 126.998 121.471C 124.202 125.441 115.871 125.971 112.802 124.383C 109.732 122.794 111.048 114.323 111.048 114.323"/>
    <path style="stroke:#B8037E" d="M 35.628 137.089C 42.6437 137.089 44.3977 128.618 46.1517 124.383C 47.9056 115.911 47.9056 107.44 46.1517 98.9691C 46.1517 98.9691 42.6437 98.9691 40.8898 98.9691"/>
    <path style="stroke:#B8037E" d="M 34.1951 154.195C 40.9451 156.195 43.9451 188.695 43.9451 188.695C 43.9451 188.695 47.9056 168.327 49.6595 156.149C 57.9908 163.562 60.1951 187.695 60.1951 187.695C 60.1951 187.695 62.1872 162.696 65.6951 153.695C 71.3954 150.518 77.6951 188.945 77.6951 188.945C 77.6951 188.945 79.9152 162.503 84.7385 158.267C 89.5619 154.032 97.0162 151.914 97.0162 151.914L 95.6951 189.445C 95.6951 189.445 97.0162 177.327 97.0162 175.209C 95.2622 162.503 100.842 156.741 108.945 153.695C 108.945 162.166 108.695 192.195 108.695 192.195C 108.695 192.195 111.048 158.267 121.571 151.914"/>
    <path style="stroke:#B8037E" d="M 39.1358 200.623C 61.9372 198.505 84.7385 198.505 107.54 198.505"/>
    <path style="stroke:#B8037E" d="M 107.54 209.094C 107.54 249.58 107.632 285.168 107.778 317.778"/>
    <path style="stroke:#B8037E" d="M 39.1358 717.364C 61.9372 717.364 84.7385 721.599 107.54 715.246C 109.294 715.246 109.294 702.539 105.786 696.186C 105.786 694.068 95.2622 702.539 98.7701 691.95C 100.227 687.553 100.524 691.95 98.7701 691.95C 77.7227 691.95 56.6754 700.421 35.628 698.304"/>
    <path style="stroke:#B8037E" d="M 107.54 715.246C 132.095 721.599 132.095 757.602 135.603 780.897C 118.064 802.075 93.5083 816.9 67.199 816.9"/>
    <path style="stroke:#B8037E" d="M 33.1951 479.445C 54.2425 481.563 80.4451 480.445 108.445 478.445C 108.722 525.415 109.294 565.06 109.294 628.417C 109.294 651.712 107.54 675.008 100.524 698.304"/>
    <path style="stroke:#B8037E" d="M 35.3233 316.938C 56.3707 319.056 79.8977 317.73 100.945 315.612"/>
    <path style="stroke:#B8037E" d="M 89.4451 499.445C 91.2132 563.484 95.6754 625.512 92.1471 691.552"/>
    <path style="stroke:#B8037E" d="M 65.8629 503.467C 72.8786 547.941 72.8787 644.971 74.6326 689.445"/>

    <path style="stroke:#FCC1DF" d="M 566.445 146.633C 560.445 150.633 558.445 157.633 555.445 164.633"/>
    <path style="stroke:#FCC1DF" d="M 435.637 111.528C 435.637 107.528 435.076 104.195 436.758 102.195C 438.44 100.195 446.288 98.8618 447.97 100.862C 451.334 106.862 453.576 121.195 450.213 123.195C 445.167 129.195 430.031 129.195 424.985 123.195C 422.252 121.57 413.002 103.32 423.864 96.8618C 430.591 88.8618 448.531 86.1951 456.94 96.1951C 465.349 104.195 467.592 120.195 462.546 130.195C 460.864 132.195 467.872 144.195 441.804 146.195C 415.735 148.195 409.849 144.195 402.281 122.195C 394.713 100.195 399.758 90.1951 411.531 83.1951C 432.184 70.9149 436.758 69.1951 456.94 76.1951C 465.173 79.0506 468.713 88.1951 475.44 94.1951C 493.94 108.195 509.637 102.195 509.637 102.195C 509.637 102.195 542.713 73.1951 559.531 77.1951C 566.259 79.1951 587.562 85.5284 586.44 120.862C 585.983 135.274 557.289 155.528 538.789 141.528C 525.985 131.839 528.071 100.509 549.44 94.8618C 564.577 90.8618 572.663 109.237 571.304 117.528C 569.945 125.82 570.743 134.195 559.531 132.862C 548.319 131.528 547.478 128.862 547.198 117.528C 546.918 106.195 544.955 106.528 552.243 104.862C 559.531 103.195 563.456 111.528 563.456 111.528"/>
    <path style="stroke:#FCC1DF" d="M 448.531 191.195C 448.531 183.195 446.008 176.195 440.963 171.195C 437.599 169.195 434.235 167.195 430.031 167.195C 430.872 166.195 428.349 165.195 429.19 164.195C 439.281 162.195 449.372 161.195 459.463 165.195C 467.031 168.195 468.713 180.195 468.713 189.195C 468.713 169.751 472.917 177.195 464.508 152.195C 480.486 155.195 480.486 158.195 484.69 168.195C 488.054 175.195 488.895 182.195 489.736 190.195"/>
    <path style="stroke:#FCC1DF" d="M 447.69 194.195C 443.485 194.195 438.44 192.195 435.917 196.195C 434.235 198.195 433.394 211.195 433.394 211.195C 476.012 217.158 520.91 215.191 563.736 212.195C 566.259 211.195 566.259 203.195 564.577 198.195C 563.736 196.195 556.168 198.195 556.168 196.195C 556.168 183.042 557.849 171.195 565.418 161.195C 557.009 160.195 547.759 161.195 541.872 169.195C 538.508 174.195 537.668 180.195 534.304 186.195C 533.463 189.195 532.622 192.195 532.622 196.195C 532.622 182.195 531.781 171.195 532.622 157.195C 517.486 162.195 511.55 178.192 510.758 194.195C 511.477 179.669 509.917 169.195 501.508 151.195C 500.931 149.959 493.099 158.195 492.258 159.195C 484.69 172.195 489.736 179.195 489.736 193.195"/>
    <path style="stroke:#FCC1DF" d="M 430.15 148.133C 433.514 151.133 435.196 156.133 438.559 160.133C 440.241 163.133 441.082 167.133 442.764 171.133"/>
    <path style="stroke:#FCC1DF" d="M 464.508 110.195C 471.236 119.195 469.554 118.195 477.122 126.195C 484.69 134.195 483.849 130.133 495.622 132.133C 508.967 134.4 509.077 134.133 518.327 127.133C 525.733 121.527 524.213 116.195 533.463 114.195"/>
    <path style="stroke:#FCC1DF" d="M 499.018 224.289C 496.163 246.12 494.871 290.949 493.945 333.195"/>
    <path style="stroke:#FCC1DF" d="M 492.195 330.945C 492.18 331.616 497.917 327.945 496.695 333.445"/>
    <path style="stroke:#FCC1DF" d="M 493.128 355.449C 493.088 357.818 493.05 360.152 493.015 362.446"/>
    <path style="stroke:#FCC1DF" d="M 493.015 362.446C 492.745 380.135 492.626 395.419 492.626 405.414C 492.626 434.207 492.286 458.347 491.844 479.571"/>
    <path style="stroke:#FCC1DF" d="M 491.602 490.571C 489.782 569.015 487.081 608.297 497.42 709.445"/>
    <path style="stroke:#FCC1DF" d="M 437.945 217.82C 437.945 254.476 437.945 293.289 437.945 329.945C 477.895 329.945 516.247 329.945 556.196 329.945C 553 293.289 560.99 254.476 553 217.82"/>
    <path style="stroke:#FCC1DF" d="M 556.196 329.945C 521.041 329.945 489.081 334.258 455.523 329.945C 452.327 329.945 437.945 342.883 437.945 342.883C 437.945 342.883 439.543 357.976 439.543 377.383C 439.543 379.539 439.543 394.633 439.543 396.789C 437.945 422.664 437.945 474.414 437.945 474.414L 562.588 470.101C 562.588 470.101 567.382 388.164 556.196 329.945C 556.597 332.032 562.588 329.945 562.588 329.945C 562.588 329.945 562.588 252.32 559.392 213.508"/>
    <path style="stroke:#FCC1DF" d="M 455.523 235.07C 455.523 267.414 455.523 297.601 455.523 329.945"/>
    <path style="stroke:#FCC1DF" d="M 450.929 480.815C 487.994 480.815 526.034 470.034 562.788 476.503C 567.582 554.128 567.582 629.596 561.19 707.221C 561.19 709.378 550.004 713.69 542.014 715.846C 505.26 718.003 470.105 715.846 434.949 700.753C 433.351 629.596 436.547 560.596 439.743 489.44C 439.743 485.128 446.135 480.815 450.929 480.815z"/>
    <path style="stroke:#FCC1DF" d="M 434.949 700.753C 433.151 702.976 429.955 702.976 429.955 702.976C 425.161 715.914 426.759 728.851 426.759 741.789C 473.101 756.883 521.041 743.945 568.98 748.258C 575.372 737.476 573.774 722.383 573.774 709.445C 570.578 709.445 568.98 705.133 565.784 707.289"/>
    <path style="stroke:#FCC1DF" d="M 425.161 731.008C 423.563 731.008 420.367 731.008 418.769 731.008C 413.975 752.57 405.985 776.289 407.583 800.008C 460.317 815.101 514.649 828.039 570.578 815.101C 576.97 815.101 578.568 802.164 583.362 795.695C 579.839 802.827 585.288 765.563 581.764 741.789C 581.764 737.476 583.362 731.008 578.568 733.164"/>
    <path style="stroke:#FCC1DF" d="M 523.445 349.445C 523.445 387.445 523.445 423.445 523.445 461.445"/>
    <path style="stroke:#FCC1DF" d="M 527.445 227.445C 527.445 245.445 527.445 265.445 527.445 283.445"/>
    <path style="stroke:#FCC1DF" d="M 531.445 493.445C 531.445 567.445 531.445 641.445 531.445 715.445"/>
    <path style="stroke:#FCC1DF" d="M 471.445 551.445C 471.445 585.445 471.445 621.445 471.445 655.445"/>

    <path style="stroke:#B8037E; fill:#9E3999" d="M 65.4451 331.445C 62.7379 369.348 69.4451 423.334 69.4451 441.445C 69.4451 449.445 73.4451 457.445 73.4451 465.445"/>
    <path style="stroke:#FCC1DF" d="M 96.682 746.487C 94.0154 755.153 88.0154 766.487 85.0154 775.153C 80.3487 779.82 75.682 782.153 68.682 785.82C 61.682 789.487 57.3487 790.82 53.3487 787.153C 49.3487 783.487 48.682 784.487 46.682 778.82C 44.682 773.153 44.4581 770.502 44.682 768.487C 45.682 759.487 44.682 756.82 51.0154 753.153C 54.3487 751.153 58.3487 750.487 62.0154 750.82C 67.3487 751.82 72.682 751.487 77.0154 754.82C 83.3487 759.487 82.0154 761.82 88.3487 767.153C 85.5081 764.628 87.4616 773.132 97.0154 779.82C 99.0154 781.153 101.015 785.82 103.349 786.153"/>
    <path style="stroke:#81027E" d="M 92.4451 741.258C 89.7784 749.924 83.7784 761.258 80.7784 769.924C 76.1118 774.591 71.4451 776.924 64.4451 780.591C 57.4451 784.258 53.1118 785.591 49.1118 781.924C 45.1118 778.258 44.4451 779.258 42.4451 773.591C 40.4451 767.924 40.2212 765.273 40.4451 763.258C 41.4451 754.258 40.4451 751.591 46.7784 747.924C 50.1118 745.924 54.1118 745.258 57.7784 745.591C 63.1118 746.591 68.4451 746.258 72.7784 749.591C 79.1118 754.258 77.7784 756.591 84.1118 761.924C 81.2712 759.399 83.2247 767.903 92.7784 774.591C 94.7784 775.924 96.7784 780.591 99.1118 780.924"/>
    <path style="stroke:#FCC1DF" d="M 476.445 771.258C 471.945 770.258 469.445 775.258 468.445 778.258C 465.945 784.258 465.445 790.758 467.445 795.758C 470.445 802.758 479.945 801.758 486.945 801.758C 489.445 796.258 495.445 793.258 496.945 786.758C 497.945 790.258 499.445 793.758 501.445 797.258C 504.945 803.758 513.445 801.758 520.445 802.258C 524.945 794.758 527.445 785.258 525.445 776.758C 524.445 773.758 519.945 771.258 516.445 769.258"/>
    <path style="stroke:#81027E" d="M 471.945 764.945C 467.445 763.945 464.945 768.945 463.945 771.945C 461.445 777.945 460.945 784.445 462.945 789.445C 465.945 796.445 475.445 795.445 482.445 795.445C 484.945 789.945 490.945 786.945 492.445 780.445C 493.445 783.945 494.945 787.445 496.945 790.945C 500.445 797.445 508.945 795.445 515.945 795.945C 520.445 788.445 522.945 778.945 520.945 770.445C 519.945 767.445 515.445 764.945 511.945 762.945"/>

    <path style="stroke:#B8037E" d="M 33.9451 471.695C 55.9451 469.695 86.7996 470.695 108.8 468.695C 108.522 421.752 108.185 377.23 107.945 323.612"/>
    <path style="stroke:#B8037E; fill:#9E3999" d="M 87.4451 219.445C 87.4451 239.445 89.4451 293.445 89.4451 313.445"/>
    <path style="stroke:#B8037E; fill:#9E3999" d="M 85.4451 337.445C 85.4451 373.445 85.4451 427.445 87.4451 463.445"/>
    <path style="stroke:#B8037E; fill:#9E3999" d="M 69.4451 221.445C 69.4451 233.445 71.4451 301.445 71.4451 313.445"/>
    <path style="stroke:#B8037E; fill:#9E3999" d="M 55.4451 223.445C 55.4451 228.772 53.4451 310.118 53.4451 315.445"/>
    <path style="stroke:#B8037E; fill:#9E3999" d="M 49.4451 375.445C 49.4451 393.445 51.4451 451.445 51.4451 469.445"/>
    <path style="stroke:#B8037E; fill:#9E3999" d="M 49.4451 599.445C 49.4451 617.445 49.4451 635.445 49.4451 653.445"/>

    <!-- bottom of arch -->
    <path stroke="#13017C" d="M 152.945 72.4451C 184.445 55.9451 178.374 52.5248 221.445 45.4451C 257.945 39.4451 321.575 37.771 359.945 45.4451C 377.945 49.4451 399.445 62.4451 415.445 72.4451"/>
    <path stroke="#13017C" d="M 581.695 87.6951C 593.695 85.6951 596.445 81.6951 606.445 77.6951"/>

</g>
<g stroke="#FFFF3F" stroke-width="24" fill="none"
        stroke-linecap="round" opacity="0.25">
    <path d="M 86.4451 65.4451L 86.4451 140.445"/>
    <path d="M 126.445 65.4451L 126.445 140.445"/>
</g><g stroke="#3fffff" stroke-width="8" fill="none">
    <path d="M 86.4451 65.4451L 86.4451 140.445"/>
    <path d="M 126.445 65.4451L 126.445 140.445"/>
</g>
</svg>
