<svg xmlns="http://www.w3.org/2000/svg"
	xmlns:xlink="http://www.w3.org/1999/xlink"
	viewBox="31.4 0 577 792"
	width="633.64" height="827.427">
<g id="scene">
    <set attributeName="opacity" to="1" 
		    fill="freeze" begin="btn1.click"/>
    <set attributeName="opacity" to="0" 
		    fill="freeze" begin="btn2.click"/>
    <set attributeName="opacity" to="0" 
		    fill="freeze" begin="scene.load"/><g>
<path fill="#7fffff" stroke="none" d="M 608.445 792L 608.445 0L 31.4451 0L 31.4451 792L 608.445 792z"/>
</g>
<g>
<path fill="none" stroke-width="4" stroke="#9999cc" d="M 205.418 321.331"/>
<path fill="#bfdfff" stroke="none" d="M 215.445 294C 215.445 294 200.221 284.103 189.445 288C 178.669 291.897 170.445 291 167.445 307C 164.445 323 164.445 357 171.445 365C 178.445 373 202.074 372.84 202.074 372.84L 208.445 358L 215.445 294z"/>
<path fill="#7fbfff" stroke="none" d="M 248.445 323C 259.445 317 273.962 287.298 273.962 287.298C 273.962 287.298 287.445 327 290.445 343C 293.445 359 297.603 391.228 294.024 404.114C 290.445 417 280.649 435.388 280.649 435.388C 280.649 435.388 263.445 440 249.445 429C 235.445 418 226.445 407 219.445 381C 212.445 355 205.418 321.331 205.418 321.331L 245.541 323.17L 248.445 323z"/>
<path fill="#dbcec1" stroke="none" d="M 214.445 198C 214.445 198 198.445 224.667 200.445 240.667C 202.445 256.667 209.778 278.667 223.778 280C 237.778 281.333 254.445 275.333 260.445 266C 266.445 256.667 274.445 244.667 273.778 228.667C 273.112 212.667 277.112 195.333 267.778 191.333C 258.445 187.333 250.445 190.667 242.445 189.333C 234.445 188 214.445 198 214.445 198z"/>
<path fill="#dbcec1" stroke="none" d="M 283.993 320.411L 294.024 325.01L 300.711 301.095L 286.501 301.095L 283.993 320.411z"/>
<path fill="#3fff3f" stroke="none" d="M 209.112 216.667L 209.778 185.333L 215.112 196L 220.445 186L 225.778 190.667L 230.445 178.667L 234.445 188L 242.445 189.333L 242.445 185.333L 247.778 188.667L 250.445 184L 258.445 187.333L 269.778 192.667L 274.445 191.333L 277.112 211.333L 269.112 215.333L 261.778 198L 259.112 211.333L 251.112 196L 247.112 206L 242.445 199.333L 237.112 206L 233.112 197.333L 227.112 206L 221.778 202.667L 218.445 210L 213.112 210L 209.112 216.667z"/>
<path fill="#7fbfff" stroke="none" d="M 56.9451 304.5C 56.9451 304.5 71.9451 322.5 82.9451 323.5C 93.9451 324.5 119.945 324.5 119.945 324.5C 119.945 324.5 105.445 371.5 101.445 386C 97.4451 400.5 86.9451 420 78.9451 429.5C 70.9451 439 42.9451 459 42.9451 459C 42.9451 459 37.9451 415.5 37.9451 400.5C 37.9451 385.5 42.4451 354 45.4451 341.5C 48.4451 329 56.9451 304.5 56.9451 304.5z"/>
<path fill="#a5a572" stroke="none" d="M 66.4451 200.5C 66.4451 200.5 64.9451 234 65.9451 243.5C 66.9451 253 67.9451 272 74.4451 276.5C 80.9451 281 99.4451 281.5 107.945 278.5C 116.445 275.5 127.445 268.5 128.445 261C 129.445 253.5 130.945 231.5 129.945 223C 128.945 214.5 131.445 205.5 121.445 202C 111.445 198.5 90.4451 191.5 82.9451 193.5C 75.4451 195.5 66.4451 200.5 66.4451 200.5z"/>
<path fill="#9f9f3f" stroke="none" d="M 66.4451 189L 70.4451 199L 75.9451 192.5L 76.4451 198.5L 90.9451 187.5L 91.9451 198L 99.4451 197L 106.945 191L 105.945 200L 120.445 197L 129.445 195.5L 120.445 204L 131.445 208.5L 138.945 210L 129.445 216.5C 129.445 216.5 125.445 213 118.445 211.5C 111.445 210 101.945 202.5 94.4451 205.5C 86.9451 208.5 77.9451 209.5 73.9451 213C 69.9451 216.5 65.9451 228.5 65.9451 228.5L 66.4451 189z"/>
<path fill="#a5a572" stroke="none" d="M 117.945 373L 140.445 368L 144.445 379L 139.445 380L 140.945 384.5L 124.945 387.5L 117.945 373z"/>
<path fill="#d89999" stroke="none" d="M 442.445 58C 442.445 58 424.445 57 417.445 70C 410.445 83 403.445 100 407.445 113C 411.445 126 428.445 141 443.445 141C 458.445 141 476.445 136 479.445 124C 482.445 112 488.445 89 485.445 76C 482.445 63 481.445 62.5 467.445 60C 452.679 57.3631 442.445 58 442.445 58z"/>
<path fill="#ff7f7f" stroke="none" d="M 463.445 58C 463.445 58 460.445 50.5 462.945 49C 465.445 47.5 474.445 43 474.445 43L 458.945 42.5L 457.945 33L 447.445 43.5L 436.945 43.5L 434.945 49L 405.445 52.5L 407.945 59L 392.945 63L 400.445 68.5L 395.945 79.5L 397.945 113L 390.945 124.5L 396.945 122L 390.445 154.5L 401.445 153L 396.445 172.5L 376.945 182.5L 385.945 186.5L 403.445 182L 405.945 198L 424.445 159L 426.945 182.5L 440.445 162L 441.945 142C 441.945 142 427.445 139.5 419.945 131.5C 412.445 123.5 404.945 115.5 408.945 98C 412.945 80.5 412.945 71 422.945 65.5C 432.945 60 440.945 57.5 442.445 58C 443.945 58.5 445.445 63.5 445.445 63.5L 453.445 69L 456.445 63.5L 461.445 67L 463.445 58z"/>
<path fill="none" stroke-width="4" stroke="#ff7f7f" d="M 427.445 64C 427.445 64 425.945 61 432.445 66C 438.945 71 440.445 75 440.445 75"/>
<path fill="none" stroke-width="4" stroke="#ff7f7f" d="M 420.445 70.5C 420.445 70.5 424.945 73 426.945 75C 428.945 77 430.945 80.5 430.945 80.5"/>
<path fill="none" stroke-width="4" stroke="#ff7f7f" d="M 414.945 79.5L 424.945 87"/>
<path fill="none" stroke-width="4" stroke="#ff7f7f" d="M 411.945 87L 420.445 93.5"/>
<path fill="none" stroke-width="4" stroke="#ff7f7f" d="M 410.445 96L 416.445 99"/>
<path fill="none" stroke-width="4" stroke="#ff7f7f" d="M 468.945 61.5C 468.945 61.5 471.445 63 471.945 66.5C 472.445 70 473.445 72 473.445 72"/>
<path fill="#7fbfff" stroke="none" d="M 473.945 177.5C 473.945 177.5 491.945 192 504.945 193.5C 517.945 195 521.945 193.5 525.445 192.5C 528.945 191.5 533.945 184 533.945 184L 530.945 237C 530.945 237 529.445 275.5 522.445 285C 515.445 294.5 489.945 322 489.945 322L 466.945 298L 463.945 266L 473.945 177.5z"/>
<path fill="#d89999" stroke="none" d="M 529.945 144L 539.945 145.5L 536.445 151.5L 543.945 154.5L 536.945 169L 520.945 162.5L 529.945 144z"/>
<path fill="#bfffff" stroke="none" d="M 548.445 74.5L 563.445 74L 569.945 84L 573.945 42L 548.445 74.5z"/>
<path fill="#bfffff" stroke="none" d="M 309.445 174.667C 309.445 174.667 334.445 128.667 335.112 130C 335.778 131.333 334.778 182 334.778 182L 322.778 175.667L 309.445 174.667z"/>
<path fill="#bfffff" stroke="none" d="M 310.112 345L 313.778 357.333L 312.778 370L 349.445 355.333L 310.112 345z"/>
</g>
<g>
<path fill="none" stroke-width="4" stroke="#9999cc" d="M 257.419 269.763C 276.168 251.206 277.977 217.583 268.947 194.396C 265.603 185.198 248.885 190.717 238.854 188.877C 222.281 185.838 205.418 203.594 203.746 220.151C 200.402 234.868 198.731 249.585 205.418 262.463C 213.777 279.019 235.51 286.378 250.557 275.34"/>
<path fill="none" stroke-width="4" stroke="#9999cc" d="M 222.136 280.859C 215.449 290.057 217.956 307.534 214.613 318.571"/>
<path fill="none" stroke-width="4" stroke="#9999cc" d="M 202.91 401.355C 204.582 375.6 210.433 371.001 210.433 345.246"/>
<path fill="none" stroke-width="4" stroke="#9999cc" d="M 205.418 402.274C 213.777 437.227 227.151 470.341 237.182 505.294"/>
<path fill="none" stroke-width="4" stroke="#9999cc" d="M 198.731 409.633C 198.731 426.19 203.746 442.746 195.387 457.463C 183.684 477.699 175.325 499.775 158.607 514.492"/>
<path fill="none" stroke-width="4" stroke="#9999cc" d="M 273.962 287.298C 265.603 300.175 257.244 317.651 245.541 323.17C 233.839 328.689 205.418 321.331 205.418 321.331C 205.418 321.331 218.792 382.958 227.987 400.435C 237.182 417.911 242.198 426.19 254.736 430.789C 267.275 435.388 280.649 435.388 280.649 435.388C 280.649 435.388 292.305 422.086 294.024 404.114C 295.696 386.638 295.696 371.921 292.352 351.685C 289.008 331.449 273.962 287.298 273.962 287.298z"/>
<path fill="none" stroke-width="4" stroke="#9999cc" d="M 215.449 302.934C 213.777 299.255 217.12 291.897 213.777 291.897C 202.074 288.217 187.028 286.378 178.669 291.897C 160.279 306.614 166.966 336.048 170.31 359.963C 173.653 378.359 190.371 372.84 202.074 372.84C 202.074 369.161 205.418 365.482 203.746 361.803"/>
<path fill="none" stroke-width="4" stroke="#9999cc" d="M 225.48 365.482"/>
<path fill="none" stroke-width="4" stroke="#9999cc" d="M 210.433 345.246"/>
<path fill="none" stroke-width="4" stroke="#9999cc" d="M 215.449 308.453C 227.151 308.453 248.049 308.453 259.752 308.453"/>
<path fill="none" stroke-width="4" stroke="#9999cc" d="M 260.527 437.211C 257.751 449.932 254.99 462.796 252.229 475.86C 250.557 481.379 252.229 488.737 252.229 494.256"/>
<path fill="none" stroke-width="4" stroke="#9999cc" d="M 286.501 301.095L 300.711 301.095L 294.024 325.01L 283.993 320.411L 286.501 301.095z"/>
<path fill="none" stroke-width="4" stroke="#9999cc" d="M 233.839 235.788C 233.839 239.467 233.839 244.066 233.839 247.745"/>
<path fill="none" stroke-width="4" stroke="#9999cc" d="M 251.393 235.788C 251.393 239.467 251.393 243.146 251.393 246.826"/>
<path fill="none" stroke-width="4" stroke="#9999cc" d="M 217.12 232.109C 229.659 217.392 250.557 216.472 266.439 224.75"/>
<path fill="none" stroke-width="4" stroke="#9999cc" d="M 234.675 270.741C 240.526 271.661 246.935 266.142 252.786 266.142"/>
<path fill="none" stroke-width="4" stroke="#9999cc" d="M 247.213 269.821L 256.408 281.779"/>
<path fill="none" stroke-width="4" stroke="#9999cc" d="M 262.259 278.099C 266.439 271.661 275.634 272.581 278.142 266.142C 279.814 261.543 278.142 256.024 278.978 251.425C 279.814 245.906 287.337 245.906 288.173 242.227C 289.844 235.788 288.173 229.349 289.008 222.911C 289.844 221.991 290.68 220.151 292.352 219.231"/>
<path fill="none" stroke-width="4" stroke="#9999cc" d="M 209.597 217.392C 209.597 206.354 209.597 183.358 209.597 183.358C 209.597 183.358 213.777 201.755 217.12 210.953C 217.12 202.675 221.3 186.118 221.3 186.118C 221.3 186.118 223.808 198.995 226.315 204.514C 229.659 196.236 230.495 177.84 230.495 177.84C 230.495 177.84 234.675 196.236 238.018 205.434C 243.87 200.835 243.034 185.198 243.034 185.198C 243.034 185.198 245.541 198.076 247.213 204.514C 250.557 198.076 250.557 184.278 250.557 184.278C 250.557 184.278 254.736 201.755 258.916 210.033C 260.588 201.755 260.588 186.118 260.588 186.118C 260.588 186.118 263.931 205.434 269.783 213.712C 270.619 205.434 273.962 189.797 273.962 189.797C 273.962 189.797 274.798 205.434 278.142 212.792"/>
<path fill="none" stroke-width="4" stroke="#9999cc" d="M 293.532 295.68C 297.47 279.865 301.525 263.926 305.727 247.745C 310.742 223.83 315.758 199.915 322.445 176L 308.445 176L 335.445 131L 334.445 183L 322.445 176"/>
<path fill="none" stroke-width="4" stroke="#9999cc" d="M 66.4451 188C 65.2816 205.452 64.795 231.364 66.9538 250.972"/>
<path fill="none" stroke-width="4" stroke="#9999cc" d="M 67.4102 254.721C 68.3611 261.809 69.7096 267.855 71.5623 272.059"/>
<path fill="none" stroke-width="4" stroke="#9999cc" d="M 73.7883 275.876C 74.6004 276.879 75.4843 277.6 76.4451 278C 88.4451 283 120.445 282 128.445 262C 132.445 248 130.445 232 130.445 216"/>
<path fill="none" stroke-width="4" stroke="#9999cc" d="M 76.4451 198C 76.4451 196 76.4451 194 76.4451 192"/>
<path fill="none" stroke-width="4" stroke="#9999cc" d="M 86.4451 198C 86.4451 194 90.4451 192 92.4451 188"/>
<path fill="none" stroke-width="4" stroke="#9999cc" d="M 98.4451 202C 96.4451 196 104.445 196 106.445 192"/>
<path fill="none" stroke-width="4" stroke="#9999cc" d="M 112.445 204C 116.445 198 124.445 194 130.445 196"/>
<path fill="none" stroke-width="4" stroke="#9999cc" d="M 124.445 210C 130.445 210 134.445 210 140.445 210"/>
<path fill="none" stroke-width="4" stroke="#9999cc" d="M 91.4451 281.5C 90.9451 283 89.9451 285 89.9451 286.5C 89.4451 296.5 88.4451 306 86.9451 316C 86.7626 317.369 86.5467 318.721 86.3189 320.063"/>
<path fill="none" stroke-width="4" stroke="#9999cc" d="M 93.8282 412.717C 101.043 416.618 110.164 420.859 116.445 424C 114.445 448 124.445 470 122.445 492"/>
<path fill="none" stroke-width="4" stroke="#9999cc" d="M 81.851 432.516C 80.737 461.5 78.4451 488.75 78.4451 516"/>
<path fill="none" stroke-width="4" stroke="#9999cc" d="M 38.4451 431C 36.9216 418.051 37.82 379.459 39.4451 367C 42.4451 344 54.4451 303 56.4451 303C 72.4451 329 96.4451 324 120.445 324C 120.445 328 110.445 356 102.445 386C 95.7458 411.122 76.848 435.478 67.4451 443C 57.4451 451 42.4451 460 42.4451 460C 42.4451 460 40.4451 448 38.4451 431z"/>
<path fill="none" stroke-width="4" stroke="#9999cc" d="M 106.001 380.483L 130.112 377.667"/>
<path fill="none" stroke-width="4" stroke="#9999cc" d="M 143.778 375.333L 170.591 372.296"/>
<path fill="none" stroke-width="4" stroke="#9999cc" d="M 87.4451 310L 94.4031 321.332"/>
<path fill="none" stroke-width="4" stroke="#9999cc" d="M 112.212 350.335L 122.445 367L 129.778 368.667L 139.778 367.333L 144.445 379L 134.112 380.667"/>
<path fill="none" stroke-width="4" stroke="#9999cc" d="M 129.278 371.667L 119.112 372.667L 125.445 387.667L 142.112 385.667L 140.112 380"/>
<path fill="none" stroke-width="4" stroke="#9999cc" d="M 298.535 357.802L 314.445 356L 309.445 344L 348.445 355L 312.445 371L 314.445 356"/>
<path fill="none" stroke-width="4" stroke="#9999cc" d="M 90.4451 235L 90.4451 247"/>
<path fill="none" stroke-width="4" stroke="#9999cc" d="M 110.445 235L 111.445 246"/>
<path fill="none" stroke-width="4" stroke="#9999cc" d="M 91.4451 268C 91.4451 268 103.445 268 106.445 268"/>
<path fill="none" stroke-width="3" stroke="#9999cc" d="M 67.4451 278.521C 72.9124 278.521 77.3446 273.139 77.3446 266.5C 77.3446 259.861 72.9124 254.479 67.4451 254.479C 61.9778 254.479 57.5456 259.861 57.5456 266.5C 57.5456 273.139 61.9778 278.521 67.4451 278.521z"/>
<path fill="none" stroke-width="3" stroke="#9999cc" d="M 116.021 275.295C 117.765 278.719 120.886 281 124.445 281C 129.912 281 134.345 275.618 134.345 268.979C 134.345 264.141 131.991 259.971 128.598 258.064"/>
<path fill="none" stroke-width="4" stroke="#9999cc" d="M 444.445 58C 430.445 56 418.445 68 414.445 76C 410.445 92 402.445 114 414.445 126C 426.445 138 446.445 146 464.445 138C 472.445 136 478.445 128 480.445 120C 488.445 102 488.445 82 482.445 64C 480.445 60 466.445 62 462.445 56C 456.445 50 470.445 44 478.445 42C 472.445 42 464.445 44 458.445 42C 456.445 40 460.445 34 456.445 32C 456.445 44 446.445 46 436.445 44C 436.445 46 436.445 48 436.445 48C 426.445 52 412.445 50 402.445 54C 404.445 54 404.445 54 406.445 54C 404.445 56 410.445 58 408.445 60C 402.445 60 398.445 62 392.445 64C 394.445 68 398.445 66 400.445 70C 400.445 74 398.445 76 396.445 80C 394.445 96 404.445 114 390.445 126C 392.445 124 398.445 126 396.445 120C 396.445 132 396.445 144 390.445 156C 390.445 156 388.445 156 386.445 156C 392.445 158 396.445 154 400.445 150C 404.445 170 390.445 184 370.445 182C 370.445 184 370.445 184 370.445 186C 382.445 184 396.445 190 404.445 180C 402.445 188 408.445 202 398.445 204C 400.445 204 404.445 204 404.445 204C 408.445 186 420.445 174 424.445 156C 428.445 166 426.445 176 426.445 186C 434.445 174 440.445 160 440.445 146C 440.445 180 436.445 248 436.445 248C 436.445 248 439.445 275 457.445 297C 465.445 309 470.445 329 477.445 342"/>
<path fill="none" stroke-width="4" stroke="#9999cc" d="M 440.445 88C 440.445 92 440.445 94 440.445 98"/>
<path fill="none" stroke-width="4" stroke="#9999cc" d="M 456.445 88C 456.445 90 456.445 100 456.445 102"/>
<path fill="none" stroke-width="4" stroke="#9999cc" d="M 434.445 124C 444.445 124 452.445 124 462.445 124"/>
<path fill="none" stroke-width="4" stroke="#9999cc" d="M 384.445 342C 400.445 314 418.445 276 436.445 248"/>
<path fill="none" stroke-width="4" stroke="#9999cc" d="M 436.445 192C 446.445 190 459.445 200 469.445 200"/>
<path fill="none" stroke-width="4" stroke="#9999cc" d="M 534.445 176C 534.445 176 539.445 191 515.445 195C 505.386 196.677 472.445 182 474.445 174C 469.973 191.888 470.445 214 466.445 234C 464.445 258 464.445 291 468.445 299C 472.445 307 490.445 322 490.445 322C 490.445 322 510.445 306 520.445 288C 530.445 270 534.445 176 534.445 176z"/>
<path fill="none" stroke-width="4" stroke="#9999cc" d="M 443.445 172C 445.445 178 491.445 174 496.445 182C 500.445 182 520.945 155.167 524.945 155.167"/>
<path fill="none" stroke-width="4" stroke="#9999cc" d="M 513.445 192C 515.532 187.26 521.603 176.799 526.384 167.722"/>
<path fill="none" stroke-width="4" stroke="#9999cc" d="M 537.788 141.237C 546.238 120.136 555.03 98.2186 561.942 76.5092"/>
<path fill="none" stroke-width="4" stroke="#9999cc" d="M 536.445 156L 539.445 146L 530.445 145L 521.445 163L 537.445 169L 544.445 154L 536.445 152"/>
<path fill="none" stroke-width="4" stroke="#9999cc" d="M 562.445 74L 548.445 75L 574.445 42L 570.445 84L 562.445 74z"/>
</g>
<g>
<path fill="#bfbfff" stroke="none" d="M 253.112 501.333L 280.445 506.667L 270.445 592.667C 270.445 592.667 253.112 592.667 245.112 592.667C 237.112 592.667 229.112 589.333 225.112 575.333C 221.112 561.333 217.908 536.944 221.778 525.333C 228.445 505.333 253.112 501.333 253.112 501.333z"/>
<path fill="#bfbf7f" stroke="none" d="M 30.4451 383.333C 30.4451 383.333 51.7784 382.667 58.4451 388.667C 65.1118 394.667 72.4451 398 72.4451 409.333C 72.4451 420.667 71.1118 454 62.4451 462.667C 53.7784 471.333 31.1118 466.667 31.1118 466.667L 30.4451 383.333z"/>
<path fill="#00ff00" stroke="none" d="M 32.4451 381.333L 37.7784 362.667L 43.7784 372.667L 47.7784 378.667L 49.7784 353.333C 49.7784 353.333 55.1118 360.667 57.1118 372.667C 58.7883 382.726 56.4451 386.667 56.4451 386.667L 58.4451 388.667L 67.1118 366.667C 67.1118 366.667 68.4451 377.333 67.7784 385.333C 67.1118 393.333 69.7784 393.333 69.7784 393.333L 77.7784 384C 77.7784 384 77.1118 393.333 74.4451 400.667C 71.7784 408 63.1118 406 63.1118 406L 65.1118 400L 63.7784 395.333L 51.1118 400.667L 49.7784 394L 37.1118 398.667L 37.7784 390.667L 31.1118 396L 32.4451 381.333z"/>
<path fill="#bfbf7f" stroke="none" d="M 69.1118 486L 78.4451 486.667L 77.7784 493.333L 85.1118 493.333L 77.1118 516L 64.4451 511.333L 69.1118 486z"/>
<path fill="#7f7fff" stroke="none" d="M 31.7784 510L 57.7784 510C 57.7784 510 61.7784 572 58.4451 586C 55.1118 600 30.4451 622 30.4451 622L 31.7784 510z"/>
<path fill="#7f7fff" stroke="none" d="M 93.7784 500.667C 93.7784 500.667 124.445 496.667 138.445 496.667C 152.445 496.667 183.778 488.667 183.778 488.667C 183.778 488.667 185.112 539.333 185.112 570.667C 185.112 602 149.112 634.667 149.112 634.667C 149.112 634.667 115.778 624 107.112 611.333C 98.4451 598.667 93.7784 500.667 93.7784 500.667z"/>
<path fill="#7f7fff" stroke="none" d="M 270.445 538C 270.445 538 313.112 548 321.778 539.333C 330.445 530.667 349.778 502 349.778 502C 349.778 502 371.112 550 374.445 575.333C 377.778 600.667 373.112 640.667 369.112 648C 365.112 655.333 358.445 661.333 358.445 661.333C 358.445 661.333 333.778 661.333 319.778 652.667C 305.778 644 290.445 612 285.112 598.667C 279.778 585.333 270.445 538 270.445 538z"/>
<path fill="#ffdfbf" stroke="none" d="M 143.778 370C 143.778 370 165.112 370.667 175.112 371.333C 185.112 372 200.445 372.667 203.778 379.333C 207.112 386 215.778 420.667 213.112 432.667C 210.445 444.667 209.112 458 189.112 462C 169.112 466 164.445 470.667 151.112 466.667C 137.778 462.667 119.112 457.333 117.112 436.667C 115.112 416 117.778 386 125.112 378.667C 132.445 371.333 143.778 370 143.778 370z"/>
<path fill="#bf7f7f" stroke="none" d="M 118.445 400L 133.112 394L 137.112 401.333L 155.778 395.333L 163.778 404.667L 183.778 392L 196.445 390L 205.112 382L 189.112 374.667L 163.112 370L 129.778 372.667L 119.778 388L 118.445 400z"/>
<path fill="#ffdfbf" stroke="none" d="M 207.778 485.333L 229.112 487.333L 219.112 516.667L 205.112 514L 207.778 485.333z"/>
<path fill="#f2d8b2" stroke="none" d="M 267.778 420.667C 267.778 420.667 256.445 449.333 264.445 464.667C 272.445 480 290.445 496.667 302.445 494.667C 314.445 492.667 329.778 484.667 336.445 475.333C 343.112 466 355.112 448.667 353.112 432C 351.112 415.333 348.445 398.667 341.112 394.667C 333.778 390.667 321.112 395.333 312.445 394C 303.778 392.667 292.445 393.333 285.778 398.667C 279.112 404 267.778 420.667 267.778 420.667z"/>
<path fill="#f2d8b2" stroke="none" d="M 368.445 516L 381.778 515.333L 375.778 538L 363.778 534L 368.445 516z"/>
<path fill="#bfffff" stroke="none" d="M 85.4451 328L 115.445 286L 115.445 334L 102.445 327L 85.4451 328z"/>
<path fill="#bfffff" stroke="none" d="M 222.445 346L 252.445 304L 253.445 356L 239.445 347L 222.445 346z"/>
<path fill="#ff7fff" stroke="none" d="M 131.445 430.333C 138.445 433.333 147.112 435.667 147.112 435.667L 128.778 438C 128.778 438 132.778 445 137.112 446.667C 141.445 448.333 119.112 442.667 119.112 442.667L 115.445 419.667L 131.445 430.333z"/>
</g>
<g>
<path fill="none" stroke-width="6" stroke="#7f7fbf" d="M 168.445 372C 152.015 367.306 128.445 368 122.445 384C 114.445 406 112.445 432 122.445 450C 136.445 474 170.445 468 190.445 462C 220.445 452 214.445 410 206.445 384C 202.445 370 182.445 376 168.445 372z"/>
<path fill="none" stroke-width="6" stroke="#7f7fbf" d="M 152.445 469C 151.383 474.665 150.404 484.232 149.445 490"/>
<path fill="none" stroke-width="6" stroke="#7f7fbf" d="M 157.445 634C 168.999 658.089 185.355 694.184 192.445 719"/>
<path fill="none" stroke-width="6" stroke="#7f7fbf" d="M 135.445 636C 132.194 640.343 131.131 647.514 130.445 653C 128.445 669 129.445 673 124.445 678C 110.303 692.142 100.445 705 94.4451 723"/>
<path fill="none" stroke-width="6" stroke="#7f7fbf" d="M 96.4451 500C 128.068 500 156.445 498 184.445 490C 184.445 520 187.445 554 185.445 572C 183.445 590 172.445 618 150.445 634C 148.445 634 110.445 616 106.445 608C 102.445 598 99.4451 599 96.4451 574C 93.4451 549 94.4451 526 92.4451 502C 92.4451 502 94.4451 500 96.4451 500z"/>
<path fill="none" stroke-width="6" stroke="#7f7fbf" d="M 34.6326 385.688C 50.6326 381.688 66.4451 389 71.4451 404C 76.544 419.297 72.6326 452.688 62.4451 463C 52.2576 473.312 46.6326 467.688 32.6326 467.688"/>
<path fill="none" stroke-width="6" stroke="#7f7fbf" d="M 31.4451 510C 39.4451 510 50.4451 510 58.4451 510C 56.4451 548 72.4451 598 32.4451 622"/>
<path fill="none" stroke-width="6" stroke="#7f7fbf" d="M 156.445 404C 156.445 404 160.445 418 178.445 414C 196.445 410 204.445 402 204.445 402"/>
<path fill="none" stroke-width="6" stroke="#7f7fbf" d="M 172.445 420L 170.445 434"/>
<path fill="none" stroke-width="6" stroke="#7f7fbf" d="M 198.445 416L 198.445 428"/>
<path fill="none" stroke-width="6" stroke="#7f7fbf" d="M 158.445 458L 186.445 450"/>
<path fill="none" stroke-width="6" stroke="#7f7fbf" d="M 206.445 499L 188.778 521.667"/>
<path fill="none" stroke-width="6" stroke="#7f7fbf" d="M 239.445 352C 239.445 353.323 228.552 413.195 216.375 479.714"/>
<path fill="none" stroke-width="6" stroke="#7f7fbf" d="M 209.778 518.333C 196.759 589.318 181.445 667 181.445 667"/>
<path fill="none" stroke-width="6" stroke="#7f7fbf" d="M 179.445 678L 172.445 711"/>
<path fill="none" stroke-width="6" stroke="#7f7fbf" d="M 207.445 484L 229.445 487L 219.445 521L 204.445 515L 207.445 484z"/>
<path fill="none" stroke-width="6" stroke="#7f7fbf" d="M 200.445 485"/>
<path fill="none" stroke-width="6" stroke="#7f7fbf" d="M 216.778 485.333L 217.112 499.667"/>
<path fill="none" stroke-width="6" stroke="#7f7fbf" d="M 222.445 350L 241.445 348L 254.445 356L 252.445 305L 222.445 350z"/>
<path fill="none" stroke-width="6" stroke="#7f7fbf" d="M 85.2576 330.25L 104.258 328.25L 117.258 336.25L 115.258 285.25L 85.2576 330.25z"/>
<path fill="none" stroke-width="6" stroke="#7f7fbf" d="M 176.445 376C 176.445 376 180.445 379 167.445 388C 154.445 397 138.445 402 138.445 402"/>
<path fill="none" stroke-width="6" stroke="#7f7fbf" d="M 192.445 376C 192.445 376 195.445 382 185.445 391C 175.445 400 168.445 403 168.445 403"/>
<path fill="none" stroke-width="6" stroke="#7f7fbf" d="M 159.445 372C 159.445 372 152.445 382 143.445 388C 134.445 394 123.445 399 123.445 399"/>
<path fill="none" stroke-width="6" stroke="#7f7fbf" d="M 75.4451 501L 78.4451 488L 68.4451 486L 64.4451 512L 77.4451 517L 85.4451 494L 78.4451 492"/>
<path fill="none" stroke-width="6" stroke="#7f7fbf" d="M 102.445 332L 77.2333 481.134"/>
<path fill="none" stroke-width="6" stroke="#7f7fbf" d="M 70.6568 520.036L 43.4451 681"/>
<path fill="none" stroke-width="6" stroke="#7f7fbf" d="M 34.9451 470L 33.4451 507.333L 34.7784 489.333L 44.2784 510"/>
<path fill="none" stroke-width="6" stroke="#7f7fbf" d="M 46.4451 422L 46.4451 436"/>
<path fill="none" stroke-width="6" stroke="#7f7fbf" d="M 64.4451 420L 63.4451 436"/>
<path fill="none" stroke-width="6" stroke="#7f7fbf" d="M 38.4451 460L 50.4451 458"/>
<path fill="none" stroke-width="6" stroke="#7f7fbf" d="M 36.4451 402C 36.4451 402 48.4451 388 49.4451 377C 50.4451 366 49.4451 350 49.4451 350"/>
<path fill="none" stroke-width="6" stroke="#7f7fbf" d="M 51.4451 402C 51.4451 402 59.4451 396 62.4451 386C 65.4451 376 66.4451 365 66.4451 365"/>
<path fill="none" stroke-width="6" stroke="#7f7fbf" d="M 63.4451 403C 63.4451 403 70.4451 395 72.4451 391C 74.4451 387 76.4451 378 76.4451 378"/>
<path fill="none" stroke-width="6" stroke="#7f7fbf" d="M 32.4451 389C 32.4451 389 38.4451 377 37.4451 372C 36.4451 367 35.4451 357 35.4451 357"/>
<path fill="none" stroke-width="6" stroke="#7f7fbf" d="M 32.4451 637L 52.4451 677L 56.4451 699"/>
<path fill="none" stroke-width="6" stroke="#7f7fbf" d="M 331.092 481.624C 353.521 461.45 355.686 424.895 344.883 399.688C 340.883 389.688 320.883 395.688 308.883 393.688C 289.056 390.383 268.883 409.688 266.883 427.688C 262.883 443.688 260.883 459.688 268.883 473.688C 278.883 491.688 304.883 499.688 322.883 487.688"/>
<path fill="none" stroke-width="6" stroke="#7f7fbf" d="M 288.883 493.688C 280.883 503.688 283.883 522.688 279.883 534.688"/>
<path fill="none" stroke-width="6" stroke="#7f7fbf" d="M 265.883 624.688C 267.883 596.688 274.883 591.688 274.883 563.688"/>
<path fill="none" stroke-width="6" stroke="#7f7fbf" d="M 268.883 625.688C 278.883 663.688 294.883 699.688 306.883 737.688"/>
<path fill="none" stroke-width="6" stroke="#7f7fbf" d="M 260.883 633.688C 260.883 651.688 266.883 669.688 256.883 685.688C 242.883 707.688 232.883 731.688 212.883 747.688"/>
<path fill="none" stroke-width="6" stroke="#7f7fbf" d="M 350.883 500.688C 340.883 514.688 330.883 533.688 316.883 539.688C 302.883 545.688 268.883 537.688 268.883 537.688C 268.883 537.688 284.883 604.688 295.883 623.688C 306.883 642.688 312.883 651.688 327.883 656.688C 342.883 661.688 358.883 661.688 358.883 661.688C 358.883 661.688 372.826 647.226 374.883 627.688C 376.883 608.688 376.883 592.688 372.883 570.688C 368.883 548.688 350.883 500.688 350.883 500.688z"/>
<path fill="none" stroke-width="6" stroke="#7f7fbf" d="M 280.883 517.688C 278.883 513.688 282.883 505.688 278.883 505.688C 264.883 501.688 246.883 499.688 236.883 505.688C 214.883 521.688 222.883 553.688 226.883 579.688C 230.883 599.688 250.883 593.688 264.883 593.688C 264.883 589.688 268.883 585.688 266.883 581.688"/>
<path fill="none" stroke-width="6" stroke="#3f9f9f" d="M 292.883 585.688"/>
<path fill="none" stroke-width="6" stroke="#3f9f9f" d="M 274.883 563.688"/>
<path fill="none" stroke-width="6" stroke="#7f7fbf" d="M 280.883 523.688C 294.883 523.688 319.883 523.688 333.883 523.688"/>
<path fill="none" stroke-width="6" stroke="#7f7fbf" d="M 408.883 379.688C 400.883 405.688 394.883 431.688 388.883 457.688C 383.856 475.279 379.006 492.607 374.294 509.801"/>
<path fill="none" stroke-width="6" stroke="#7f7fbf" d="M 334.81 663.67C 331.489 677.5 328.186 691.484 324.883 705.688C 322.883 711.688 324.883 719.688 324.883 725.688"/>
<path fill="none" stroke-width="6" stroke="#7f7fbf" d="M 365.883 515.688L 382.883 515.688L 374.883 541.688L 362.883 536.688L 365.883 515.688z"/>
<path fill="none" stroke-width="6" stroke="#7f7fbf" d="M 302.883 444.688C 302.883 448.688 302.883 453.688 302.883 457.688"/>
<path fill="none" stroke-width="6" stroke="#7f7fbf" d="M 323.883 444.688C 323.883 448.688 323.883 452.688 323.883 456.688"/>
<path fill="none" stroke-width="6" stroke="#7f7fbf" d="M 282.883 440.688C 297.883 424.688 322.883 423.688 341.883 432.688"/>
<path fill="none" stroke-width="6" stroke="#7f7fbf" d="M 303.883 482.688C 310.883 483.688 318.549 477.688 325.549 477.688"/>
<path fill="none" stroke-width="6" stroke="#7f7fbf" d="M 318.883 481.688L 329.883 494.688"/>
<path fill="none" stroke-width="6" stroke="#7f7fbf" d="M 336.883 490.688C 341.883 483.688 352.883 484.688 355.883 477.688C 357.883 472.688 355.883 466.688 356.883 461.688C 357.883 455.688 366.883 455.688 367.883 451.688C 369.883 444.688 367.883 437.688 368.883 430.688C 369.883 429.688 370.883 427.688 372.883 426.688"/>
<path fill="none" stroke-width="6" stroke="#7f7fbf" d="M 273.883 424.688C 273.883 412.688 273.883 387.688 273.883 387.688C 273.883 387.688 278.883 407.688 282.883 417.688C 282.883 408.688 287.883 390.688 287.883 390.688C 287.883 390.688 290.883 404.688 293.883 410.688C 297.883 401.688 298.883 381.688 298.883 381.688C 298.883 381.688 303.883 401.688 307.883 411.688C 314.883 406.688 313.883 389.688 313.883 389.688C 313.883 389.688 316.883 403.688 318.883 410.688C 322.883 403.688 322.883 388.688 322.883 388.688C 322.883 388.688 327.883 407.688 332.883 416.688C 334.883 407.688 334.883 390.688 334.883 390.688C 334.883 390.688 338.883 411.688 345.883 420.688C 346.883 411.688 350.883 394.688 350.883 394.688C 350.883 394.688 351.883 411.688 355.883 419.688"/>
</g>
<g>
<path fill="#bfbf7f" stroke-width="1" stroke="#9f9f3f" d="M 288.945 792L 292.945 632L 300.945 508L 298.445 427L 298.445 334C 298.445 334 329.945 338.5 346.445 332.5C 362.945 326.5 368.945 326.5 370.445 316C 371.945 305.5 368.945 298 382.445 295C 395.945 292 424.445 290.5 424.445 290.5C 424.445 290.5 419.945 322 428.945 332.5C 437.945 343 448.445 340 461.945 340C 475.445 340 479.945 349 494.945 349C 509.945 349 542.945 346 542.945 346C 542.945 346 541.445 362.5 551.945 371.5C 562.445 380.5 568.445 376 583.445 379C 598.445 382 608.945 383.5 608.945 383.5L 608.945 791.5L 288.945 792z"/>
<path fill="#9f9f3f" stroke-width="8" stroke="#9f9f3f" d="M 404.648 433.415C 398.216 455.453 401.371 480.534 408.82 498.625C 421.02 529.125 476.82 530.625 487.07 520.25C 506.635 500.446 511.906 475.755 510.611 454.248"/>
<path fill="#9f9f3f" stroke-width="8" stroke="#9f9f3f" d="M 438.82 528.625C 430.82 558.625 434.82 560.625 428.82 592.625C 426.941 602.648 432.82 626.625 430.82 636.625C 428.82 642.625 424.82 668.625 424.82 676.625"/>
<path fill="#9f9f3f" stroke-width="8" stroke="#9f9f3f" d="M 424.82 676.625C 434.813 719.095 473.414 759.482 474.945 785.5"/>
<path fill="#9f9f3f" stroke-width="8" stroke="#9f9f3f" d="M 424.82 676.625C 400.82 706.625 354.445 747.5 344.445 785.5"/>
<path fill="#9f9f3f" stroke-width="8" stroke="#9f9f3f" d="M 501.445 601.5C 493.445 581.5 453.57 580.875 447.945 566.5C 445.64 560.61 434.82 558.625 432.82 552.625"/>
<path fill="#9f9f3f" stroke-width="8" stroke="#9f9f3f" d="M 328.945 589C 348.945 573 400.82 558.625 424.82 554.625"/>
<path fill="#9f9f3f" stroke-width="8" stroke="#9f9f3f" d="M 426.82 444.625C 424.82 442.625 428.82 438.625 428.82 438.625C 434.82 436.625 440.82 438.625 446.82 438.625"/>
<path fill="#9f9f3f" stroke-width="8" stroke="#9f9f3f" d="M 462.82 452.625C 462.82 450.625 462.82 446.625 462.82 444.625C 466.82 442.625 472.82 444.625 478.82 444.625"/>
<path fill="#9f9f3f" stroke-width="8" stroke="#9f9f3f" d="M 462.82 460.625C 462.82 462.625 462.82 466.625 462.82 468.625"/>
<path fill="#9f9f3f" stroke-width="8" stroke="#9f9f3f" d="M 426.82 456.625C 426.82 460.625 426.82 462.625 426.82 466.625"/>
<path fill="#9f9f3f" stroke-width="8" stroke="#9f9f3f" d="M 452.82 504.625C 458.82 506.625 462.82 506.625 468.82 506.625"/>
<path fill="#9f9f3f" stroke-width="8" stroke="#9f9f3f" d="M 406.57 429.75C 402.07 426.75 397.57 416.25 397.57 416.25L 404.07 415.75C 404.07 409.75 400.57 402.75 400.57 396.75C 406.57 398.25 412.57 411.75 415.57 404.25C 418.57 396.75 414.07 380.25 414.07 380.25C 414.07 380.25 421.57 390.75 426.07 386.25C 430.57 383.25 427.57 374.25 427.57 368.25C 429.07 375.75 432.07 383.25 436.57 390.75C 436.57 392.25 440.07 381.75 440.07 381.75C 440.07 381.75 442.07 392.75 445.07 391.25C 449.57 385.25 448.57 372.75 448.57 372.75C 448.57 372.75 451.57 380.25 451.57 384.75C 453.07 389.25 460.57 393.75 465.07 390.75C 469.57 384.75 472.57 371.25 472.57 371.25C 472.57 371.25 472.57 386.25 478.57 390.75C 486.07 399.75 498.07 381.75 498.07 381.75C 498.07 381.75 495.07 395.25 498.07 398.25C 499.57 402.75 510.07 393.75 510.07 393.75C 510.07 393.75 505.57 402.75 507.07 408.75C 510.07 407.25 516.07 407.25 516.07 407.25L 510.57 419.25L 522.07 423.75C 522.07 423.75 511.57 434.25 514.57 440.25C 514.57 441.75 522.07 440.25 522.07 440.25C 522.07 440.25 513.07 447.75 513.07 453.75"/>
<path fill="#ffdfbf" stroke-width="1" stroke="#9f9f3f" d="M 389.445 430C 389.445 430 398.445 397 419.445 391C 440.445 385 461.445 391 476.445 404.5C 491.445 418 501.945 448 495.945 470.5C 489.945 493 489.945 509.5 468.945 517C 447.945 524.5 449.445 526 428.445 520C 407.445 514 393.945 500.5 389.445 476.5C 384.945 452.5 389.445 430 389.445 430z"/>
<path fill="#ff7fbf" stroke-width="1" stroke="#9f9f3f" d="M 391.945 425L 386.445 411.5L 391.445 411L 390.445 394L 402.945 401L 405.445 378L 414.445 383L 416.945 371.5L 420.945 382L 426.945 379.5L 430.945 386L 436.945 373L 442.945 384.5L 452.945 386.5L 458.945 373.5L 468.445 388.5L 484.445 382L 486.445 395L 494.945 393L 493.945 404.5L 501.945 404.5L 497.945 414.5L 508.945 420L 500.945 435L 506.945 437.5L 501.445 443.5L 498.445 450L 496.445 464.5C 496.445 464.5 494.445 481 493.445 459.5C 492.445 438 500.945 440.5 488.445 430C 475.945 419.5 463.445 410.5 457.945 410.5C 452.445 410.5 449.445 417.5 443.445 418C 437.445 418.5 434.445 409.5 424.945 412C 415.445 414.5 408.445 414.5 404.945 419C 401.445 423.5 391.945 429 391.945 429L 391.945 425z"/>
<path fill="#dfdfbf" stroke-width="1" stroke="#9f9f3f" d="M 408.945 301C 408.945 301 396.445 300 388.445 310C 380.445 320 390.445 334 390.445 334L 372.445 344L 326.445 346L 314.445 626L 308.445 790L 288.945 792L 294.612 647.5L 302.612 506.167L 298.278 374L 299.112 334.333C 299.112 334.333 338.945 334 349.445 331.5C 359.945 329 367.445 327 368.945 321.5C 370.445 316 366.445 305 374.445 300C 382.445 295 413.445 289 421.445 290.5C 429.445 292 408.945 301 408.945 301z"/>
<path fill="#dfdfbf" stroke="none" d="M 476.445 344L 504.445 364L 542.445 360L 542.945 346L 508.445 346L 476.445 344z"/>
<path fill="#dfdfbf" stroke="none" d="M 570.445 382L 608.945 383.5L 606.445 396L 574.445 388L 570.445 382z"/>
<path fill="none" stroke-width="4" stroke="#dfdfbf" d="M 322.445 400C 336.445 400 348.445 400 362.445 400"/>
<path fill="none" stroke-width="4" stroke="#dfdfbf" d="M 312.445 478C 332.445 476 352.445 482 372.445 476"/>
<path fill="none" stroke-width="4" stroke="#dfdfbf" d="M 314.445 546C 322.445 546 330.445 546 338.445 546"/>
<path fill="none" stroke-width="4" stroke="#dfdfbf" d="M 308.445 618C 332.445 618 358.445 618 382.445 618"/>
<path fill="none" stroke-width="4" stroke="#dfdfbf" d="M 308.445 698C 328.445 698 346.445 698 366.445 698"/>
<path fill="none" stroke-width="4" stroke="#dfdfbf" d="M 302.445 764C 312.445 764 322.445 764 332.445 764"/>
<path fill="none" stroke-width="4" stroke="#dfdfbf" d="M 366.445 428C 366.445 438 366.445 450 366.445 460"/>
<path fill="none" stroke-width="4" stroke="#dfdfbf" d="M 366.445 582C 366.445 590 366.445 596 366.445 604"/>
<path fill="none" stroke-width="4" stroke="#dfdfbf" d="M 362.445 710"/>
<path fill="none" stroke-width="4" stroke="#dfdfbf" d="M 380.445 340C 386.445 340 392.445 340 398.445 340"/>
<path fill="none" stroke-width="4" stroke="#dfdfbf" d="M 540.445 404C 548.445 404 556.445 404 564.445 404"/>
<path fill="none" stroke-width="4" stroke="#dfdfbf" d="M 400.445 532C 400.445 528 400.445 524 400.445 520C 400.445 516 400.445 512 400.445 508"/>
<path fill="none" stroke-width="4" stroke="#dfdfbf" d="M 364.445 704C 364.445 706 364.445 708 362.445 710"/>
<path fill="none" stroke-width="4" stroke="#dfdfbf" d="M 410.445 768C 410.445 774 410.445 780 410.445 786"/>
<path fill="none" stroke-width="4" stroke="#dfdfbf" d="M 424.445 768C 428.445 768 432.445 768 436.445 768"/>
<path fill="none" stroke-width="4" stroke="#dfdfbf" d="M 376.445 766C 380.445 766 386.445 766 390.445 766"/>
</g>
<g>
<path fill="none" stroke-width="6" stroke="#7f7fbf" d="M 392.023 429.165C 385.591 451.203 388.746 476.284 396.195 494.375C 408.395 524.875 464.195 526.375 474.445 516C 494.01 496.196 499.281 471.505 497.986 449.998"/>
<path fill="none" stroke-width="6" stroke="#7f7fbf" d="M 426.195 524.375C 418.195 554.375 422.195 556.375 416.195 588.375C 414.316 598.398 420.195 622.375 418.195 632.375C 416.195 638.375 412.195 664.375 412.195 672.375"/>
<path fill="none" stroke-width="6" stroke="#7f7fbf" d="M 412.195 672.375C 424.945 713.5 466.445 765.5 471.945 791.5"/>
<path fill="none" stroke-width="6" stroke="#7f7fbf" d="M 412.195 672.375C 388.195 702.375 345.945 753 335.945 791"/>
<path fill="none" stroke-width="6" stroke="#7f7fbf" d="M 502.195 602.375C 494.195 582.375 442.195 584.375 436.195 564.375C 434.378 558.317 422.195 554.375 420.195 548.375"/>
<path fill="none" stroke-width="6" stroke="#7f7fbf" d="M 326.195 590.375C 346.195 574.375 388.195 554.375 412.195 550.375"/>
<path fill="none" stroke-width="6" stroke="#7f7fbf" d="M 290.195 784.375C 294.195 702.375 290.195 622.375 300.195 540.375C 306.195 484.375 296.195 430.375 298.195 374.375C 298.695 360.384 298.195 348.375 298.195 334.375C 322.195 334.375 348.195 338.375 366.195 324.375C 374.195 320.375 368.195 302.375 376.195 298.375C 392.195 288.375 410.195 290.375 426.195 290.375C 426.195 306.375 422.195 324.375 430.195 336.375C 440.195 348.375 462.195 338.375 476.195 344.375C 496.195 352.375 520.195 346.375 544.195 346.375C 542.195 358.375 546.195 370.375 556.195 376.375C 568.195 384.375 586.195 378.375 602.195 384.375"/>
<path fill="none" stroke-width="6" stroke="#7f7fbf" d="M 414.195 440.375C 412.195 438.375 416.195 434.375 416.195 434.375C 422.195 432.375 428.195 434.375 434.195 434.375"/>
<path fill="none" stroke-width="6" stroke="#7f7fbf" d="M 450.195 448.375C 450.195 446.375 450.195 442.375 450.195 440.375C 454.195 438.375 460.195 440.375 466.195 440.375"/>
<path fill="none" stroke-width="6" stroke="#7f7fbf" d="M 450.195 456.375C 450.195 458.375 450.195 462.375 450.195 464.375"/>
<path fill="none" stroke-width="6" stroke="#7f7fbf" d="M 414.195 452.375C 414.195 456.375 414.195 458.375 414.195 462.375"/>
<path fill="none" stroke-width="6" stroke="#7f7fbf" d="M 440.195 500.375C 446.195 502.375 450.195 502.375 456.195 502.375"/>
<path fill="none" stroke-width="6" stroke="#ff0000" d="M 393.945 425.5C 389.445 422.5 384.945 412 384.945 412L 391.445 411.5C 391.445 405.5 387.945 398.5 387.945 392.5C 393.945 394 399.945 407.5 402.945 400C 405.945 392.5 401.445 376 401.445 376C 401.445 376 408.945 386.5 413.445 382C 417.945 379 414.945 370 414.945 364C 416.445 371.5 419.445 379 423.945 386.5C 423.945 388 427.445 377.5 427.445 377.5C 427.445 377.5 429.445 388.5 432.445 387C 436.945 381 435.945 368.5 435.945 368.5C 435.945 368.5 438.945 376 438.945 380.5C 440.445 385 447.945 389.5 452.445 386.5C 456.945 380.5 459.945 367 459.945 367C 459.945 367 459.945 382 465.945 386.5C 473.445 395.5 485.445 377.5 485.445 377.5C 485.445 377.5 482.445 391 485.445 394C 486.945 398.5 497.445 389.5 497.445 389.5C 497.445 389.5 492.945 398.5 494.445 404.5C 497.445 403 503.445 403 503.445 403L 497.945 415L 509.445 419.5C 509.445 419.5 498.945 430 501.945 436C 501.945 437.5 509.445 436 509.445 436C 509.445 436 500.445 443.5 500.445 449.5"/>
</g>
</g>
<g stroke="black">
    <animateTransform attributeName="transform" type="scale"
            additive="replace" fill="freeze" 
            values="1.0; 0.2" begin="btn1.click" dur="1"/>
    <animateTransform attributeName="transform" type="scale"
            additive="replace" fill="freeze" 
            values="0.2; 1.0" begin="btn2.click" dur="1"/>
<g>
<path fill="#9f3f3f" stroke-width="6" d="M 110.163 268.142L 64.3158 236.912L 77.2314 217.951L 123.078 249.182"/>
<path fill="#ffffff" stroke-width="6" d="M 139.536 260.392L 398.161 436.563L 423.702 467.285L 385.245 455.524L 126.915 279.553"/>
<path fill="#ff7f7f" stroke-width="6" d="M 154.476 238.099L 111.242 301.569L 95.1198 290.587L 138.354 227.117L 154.476 238.099z"/>
</g>
<g>
<path fill="#9f3f3f" stroke-width="6" d="M 529.727 629.858L 575.574 661.088L 562.659 680.049L 516.812 648.818"/>
<path fill="#ffffff" stroke-width="6" d="M 500.354 637.608L 241.729 461.437L 216.188 430.715L 254.645 442.476L 512.975 618.447"/>
<path fill="#ff7f7f" stroke-width="6" d="M 485.414 659.901L 528.648 596.431L 544.77 607.413L 501.536 670.883L 485.414 659.901z"/>
</g>
<g>
<path fill="#9f3f3f" stroke-width="6" d="M 110.163 162.142L 64.3158 130.912L 77.2314 111.951L 123.078 143.182"/>
<path fill="#ffffff" stroke-width="6" d="M 139.536 154.392L 398.161 330.563L 423.702 361.285L 385.245 349.524L 126.915 173.553"/>
<path fill="#ff7f7f" stroke-width="6" d="M 154.476 132.099L 111.242 195.569L 95.1198 184.587L 138.354 121.117L 154.476 132.099z"/>
</g>
<g>
<path fill="#ffffff" stroke-width="6" d="M 500.354 260.392L 241.729 436.563L 216.188 467.285L 254.645 455.524L 512.975 279.553"/>
<path fill="#9f3f3f" stroke-width="6" d="M 529.727 268.142L 575.574 236.912L 562.659 217.951L 516.812 249.182"/>
<path fill="#ff7f7f" stroke-width="6" d="M 485.414 238.099L 528.648 301.569L 544.77 290.587L 501.536 227.117L 485.414 238.099z"/>
</g>
<g>
<path fill="#9f3f3f" stroke-width="6" d="M 331.284 220.124L 331.061 164.651L 308.12 164.743L 308.343 220.216"/>
<path fill="#ffffff" stroke-width="6" d="M 308.423 240.13L 309.68 553.055L 320.846 591.415L 332.621 552.963L 331.365 240.393"/>
<path fill="#ff7f7f" stroke-width="6" d="M 281.586 240.034L 358.382 239.726L 358.304 220.219L 281.508 220.528L 281.586 240.034z"/>
</g>
<g>
<path fill="#9f3f3f" stroke-width="6" d="M 529.727 162.142L 575.574 130.912L 562.659 111.951L 516.812 143.182"/>
<path fill="#ffffff" stroke-width="6" d="M 500.354 154.392L 241.729 330.563L 216.188 361.285L 254.645 349.524L 512.975 173.553"/>
<path fill="#ff7f7f" stroke-width="6" d="M 485.414 132.099L 528.648 195.569L 544.77 184.587L 501.536 121.117L 485.414 132.099z"/>
</g>
<path fill="#9f3f3f" stroke-width="6" d="M 110.163 629.858L 64.3158 661.088L 77.2314 680.049L 123.078 648.818"/>
<path fill="#ffffff" stroke-width="6" d="M 139.536 637.608L 398.161 461.437L 423.702 430.715L 385.245 442.476L 126.915 618.447"/>
<path fill="#ff7f7f" stroke-width="6" d="M 154.476 659.901L 111.242 596.431L 95.1198 607.413L 138.354 670.883L 154.476 659.901z"/>
</g>
</svg>