<svg xmlns="http://www.w3.org/2000/svg"
	xmlns:xlink="http://www.w3.org/1999/xlink"
	viewBox="61.8 1.4 577 792"
	width="577" height="792">
<g>
<path fill="#bfffff" stroke="none" d="M 638.836 793.444L 638.836 1.44354L 61.8386 1.44354L 61.8386 793.444L 638.836 793.444z"/>
</g>
<g>
<path fill="#9fff3f" stroke="none" d="M 639.34 793.445L 639.34 669.445L 60.8397 669.445L 60.8397 793.445L 639.34 793.445z"/>
<path fill="#dfbfff" stroke-width="1" stroke="#ff7fbf" d="M 302.999 455.708C 302.999 456.045 303.336 456.383 303.674 456.383C 304.124 456.383 304.461 456.045 304.461 455.708C 304.461 455.258 304.124 454.92 303.674 454.92C 303.336 454.92 302.999 455.258 302.999 455.708L 302.999 455.708z"/>
<path fill="#bfffdf" stroke-width="1" stroke="#ff7fbf" d="M 562.84 189.445L 596.84 205.445L 596.84 239.445C 596.84 239.445 548.84 209.445 508.84 207.445C 468.84 205.445 408.84 239.445 408.84 239.445L 410.84 199.445L 440.84 189.445L 440.84 87.4451L 410.84 77.4451L 408.84 37.4451C 408.84 37.4451 468.84 71.4451 508.84 69.4451C 548.84 67.4451 596.84 37.4451 596.84 37.4451L 596.84 71.4451L 562.84 87.4451L 562.84 189.445z"/>
<path fill="#bfffff" stroke-width="1" stroke="#ff7fbf" d="M 472.84 94.7784C 472.84 94.7784 495.506 99.4451 506.173 98.7784C 516.84 98.1118 532.84 94.7784 532.84 94.7784L 530.173 182.112C 530.173 182.112 510.173 178.778 501.506 179.445C 492.84 180.112 470.173 182.778 470.173 182.778L 472.84 94.7784z"/>
<path fill="#bfffdf" stroke-width="1" stroke="#ff7fbf" d="M 396.84 362.445L 442.84 361.445C 442.84 361.445 443.84 331.445 465.84 307.445C 476.454 295.865 493.365 294.445 503.84 294.445C 527.84 294.445 541.706 301.205 551.84 319.445C 561.84 337.445 561.84 370.445 561.84 370.445L 605.84 370.445L 597.84 404.445L 528.84 402.445C 528.84 402.445 525.779 387.31 526.84 363.445C 527.901 339.58 515.84 327.445 503.84 326.445C 492.88 325.532 474.482 341.679 473.84 357.445C 473.197 373.211 469.874 401.78 469.874 401.78L 391.84 399.445L 396.84 362.445z"/>
<path fill="#bfffdf" stroke-width="1" stroke="#ff7fbf" d="M 392.652 444.758L 600.277 451.508L 593.277 485.008L 385.652 481.258L 392.652 444.758z"/>
<path fill="#bfffdf" stroke-width="1" stroke="#ff7fbf" d="M 383.84 617.679C 383.84 613.248 422.84 582.968 422.84 582.968L 451.84 622.849L 485.84 584.445L 516.84 625.065L 548.84 584.445L 579.84 625.065L 613.84 589.615L 613.84 627.28L 576.84 663.469L 546.84 631.712L 512.84 664.207L 484.84 628.757L 448.84 664.946L 416.84 620.634L 384.84 653.868L 383.84 617.679z"/>
<path fill="#bfffdf" stroke-width="1" stroke="#ff7fbf" d="M 383.84 713.679C 383.84 709.248 422.84 678.968 422.84 678.968L 451.84 718.849L 485.84 680.445L 516.84 721.065L 548.84 680.445L 579.84 721.065L 613.84 685.615L 613.84 723.28L 576.84 759.469L 546.84 727.712L 512.84 760.207L 484.84 724.757L 448.84 760.946L 416.84 716.634L 384.84 749.868L 383.84 713.679z"/>
</g>
<g>
<path fill="#dfbfff" stroke="none" d="M 212.399 553.245L 371.998 556.245C 371.998 556.245 337.198 573.645 325.798 576.645C 314.398 579.645 287.399 584.445 271.799 584.445C 256.199 584.445 207.599 582.045 202.799 573.645C 197.999 565.245 205.799 550.845 205.799 550.845L 212.399 553.245z"/>
<path fill="#dfbfff" stroke="none" d="M 343.798 340.845C 343.798 340.845 331.198 366.045 332.398 382.245C 333.598 398.445 332.398 443.445 339.598 451.245C 346.798 459.045 356.998 471.645 355.798 481.845C 354.598 492.045 352.798 550.845 352.798 550.845L 365.998 552.045C 365.998 552.045 369.598 514.245 367.798 498.045C 365.998 481.845 362.998 463.245 353.398 449.445C 343.798 435.645 340.798 412.245 341.398 397.845C 341.998 383.445 338.998 355.845 349.198 348.645C 359.398 341.445 388.198 343.845 404.398 348.045C 420.598 352.245 439.198 356.445 454.198 351.045C 469.198 345.645 476.998 339.645 485.398 343.245C 493.798 346.845 492.598 367.245 487.798 378.645C 482.998 390.045 466.798 436.245 466.798 436.245L 479.398 437.445C 479.398 437.445 494.998 396.045 499.798 382.845C 504.598 369.645 509.998 362.445 503.398 347.445C 496.798 332.445 483.598 324.045 449.398 324.045C 415.198 324.045 403.198 320.445 389.398 323.445C 375.598 326.445 343.798 340.845 343.798 340.845z"/>
<path fill="#dfbfff" stroke="none" d="M 461.998 481.845L 461.398 568.845L 460.198 580.845C 460.198 580.845 465.598 588.045 460.198 591.045C 454.798 594.045 439.198 594.645 439.198 594.645C 439.198 594.645 468.598 600.645 470.998 593.445C 473.398 586.245 473.998 555.045 473.998 555.045L 474.598 498.045L 461.998 481.845z"/>
<path fill="#bf7fff" stroke="none" d="M 334.798 573.645C 334.798 573.645 355.198 569.445 374.398 568.845C 393.598 568.245 417.598 567.045 417.598 567.045L 457.798 568.245C 457.798 568.245 447.598 550.845 432.598 547.245C 417.598 543.645 409.198 540.045 395.998 546.645C 382.798 553.245 356.998 564.645 355.198 565.845C 353.398 567.045 334.798 573.645 334.798 573.645z"/>
<path fill="#bf7fff" stroke="none" d="M 343.198 574.845L 460.198 580.845L 461.998 585.045L 331.798 578.445L 343.198 574.845z"/>
<path fill="#bf7fff" stroke="none" d="M 418.798 559.245C 418.798 559.245 422.998 572.445 418.198 577.845C 413.398 583.245 401.998 588.645 401.998 588.645L 416.398 586.245L 426.598 572.445L 430.798 560.445L 418.798 559.245z"/>
<path fill="#dfbfff" stroke="none" d="M 392.998 546.645L 418.798 546.045L 418.798 557.445L 415.798 576.645L 404.398 590.445L 423.598 579.645L 428.998 563.445L 431.398 549.645L 445.198 558.045L 456.598 563.445C 456.598 563.445 444.598 551.445 437.398 547.245C 430.198 543.045 416.998 536.445 410.398 539.445C 403.798 542.445 392.998 546.645 392.998 546.645z"/>
<path fill="#dfbfff" stroke="none" d="M 317.398 625.845C 317.398 625.845 341.998 624.045 354.598 627.045C 367.198 630.045 375.598 629.445 375.598 636.045C 375.598 642.645 375.598 659.444 370.798 666.044C 365.998 672.644 371.398 673.244 355.798 673.244C 340.198 673.244 327.598 676.844 323.999 669.044C 320.398 661.244 314.999 639.645 314.999 639.645L 317.398 625.845z"/>
<path fill="#bf7fff" stroke="none" d="M 260.999 624.045L 269.399 621.045L 317.398 625.845C 317.398 625.845 312.598 633.045 314.999 642.645C 317.398 652.244 323.999 669.044 323.999 669.044L 272.999 668.444C 272.999 668.444 253.799 642.045 256.199 636.045C 258.599 630.045 260.999 624.045 260.999 624.045z"/>
<path fill="#bf7fff" stroke="none" d="M 209.399 550.245C 209.399 550.245 226.199 535.245 239.999 533.445C 253.799 531.645 265.199 528.045 277.799 531.645C 290.399 535.245 325.198 550.245 325.198 550.245L 209.399 550.245z"/>
<path fill="#bf7fff" stroke="none" d="M 208.199 553.245C 208.199 553.245 199.199 564.645 203.399 570.045C 207.599 575.445 218.999 577.845 229.199 579.045C 239.399 580.245 274.199 582.645 281.399 582.645C 288.599 582.645 318.598 577.845 318.598 577.845L 337.798 570.645C 337.798 570.645 288.599 589.245 272.999 589.845C 257.399 590.445 225.599 585.045 214.199 581.445C 202.799 577.845 193.199 569.445 194.399 564.045C 195.599 558.645 209.399 550.245 209.399 550.245L 208.199 553.245z"/>
<path fill="#dfbfff" stroke="none" d="M 304.198 463.845C 304.198 463.845 309.598 475.845 318.598 478.845C 327.598 481.845 353.998 484.845 353.998 484.845L 352.798 504.645C 352.798 504.645 313.798 492.045 305.398 488.445C 296.999 484.845 284.399 463.845 284.399 463.845L 304.198 463.845z"/>
<path fill="#dfbfff" stroke="none" d="M 314.999 445.845L 316.798 458.445L 289.199 460.845L 253.199 457.845L 232.199 459.045L 208.799 466.845L 202.799 454.245L 220.199 438.645L 254.999 437.445L 298.799 442.845L 314.999 445.845z"/>
<path fill="#bf7fff" stroke="none" d="M 190.199 443.445L 220.199 438.645C 220.199 438.645 211.199 442.845 206.999 449.445C 202.799 456.045 203.999 463.845 203.999 463.845L 184.199 463.845C 184.199 463.845 182.399 454.845 183.599 451.845C 184.799 448.845 190.199 443.445 190.199 443.445z"/>
<path fill="#bf7fff" stroke="none" d="M 230.999 753.044L 241.799 751.244L 248.999 760.244L 239.999 771.944L 228.299 763.844L 230.999 753.044z"/>
<path fill="#bf7fff" stroke="none" d="M 309.298 745.844L 314.698 758.444L 308.398 762.944L 293.999 761.144L 294.899 746.744L 309.298 745.844z"/>
<path fill="#bf7fff" stroke="none" d="M 370.498 755.744L 380.398 756.644L 383.098 767.444L 374.998 776.444L 363.298 769.244L 370.498 755.744z"/>
<path fill="#bf7fff" stroke="none" d="M 419.998 744.944L 428.098 750.344L 427.198 762.044L 414.598 763.844L 409.198 752.144L 419.998 744.944z"/>
<path fill="#bf7fff" stroke="none" d="M 500.998 751.244L 509.098 756.644L 507.298 769.244L 496.498 770.144L 490.198 761.144L 500.998 751.244z"/>
</g>
<g>
<path fill="none" stroke-width="4" stroke="#9f3fff" d="M 433.498 353.445C 433.498 353.445 416.398 400.245 415.198 418.845C 413.998 437.445 413.998 448.245 416.398 463.845C 418.798 479.445 421.198 517.845 419.998 526.245C 418.798 534.645 419.398 540.645 419.398 540.645"/>
<path fill="none" stroke-width="4" stroke="#9f3fff" d="M 469.798 347.445C 469.798 347.445 444.598 390.645 440.998 411.045C 437.398 431.445 433.198 453.645 434.998 464.445C 436.798 475.245 437.998 477.045 437.998 477.045C 437.998 477.045 442.198 499.845 442.198 516.045C 442.198 532.245 442.198 550.245 442.198 550.245"/>
<path fill="none" stroke-width="4" stroke="#9f3fff" d="M 425.398 353.445C 425.398 353.445 405.598 404.745 405.598 427.245C 405.598 449.745 410.998 470.445 410.998 470.445C 410.998 470.445 413.998 508.845 413.998 519.645C 413.998 530.445 412.198 540.045 412.198 540.045"/>
<path fill="none" stroke-width="4" stroke="#9f3fff" d="M 384.598 346.845C 384.598 346.845 368.998 400.845 371.398 415.845C 373.798 430.845 382.798 465.045 385.798 470.445C 388.798 475.845 391.874 493.716 392.398 505.245C 392.998 518.445 391.198 547.245 391.198 547.245"/>
<path fill="none" stroke-width="4" stroke="#9f3fff" d="M 490.198 345.345C 490.198 345.345 463.798 390.645 459.598 406.245C 455.398 421.845 445.198 453.045 446.998 463.845C 448.798 474.645 449.398 502.845 450.598 513.645C 451.798 524.445 451.798 556.245 451.798 556.245"/>
<path fill="none" stroke-width="4" stroke="#9f3fff" d="M 404.998 349.845C 404.998 349.845 386.998 396.645 386.998 409.845C 386.998 423.045 395.398 456.045 398.398 470.445C 401.398 484.845 403.798 503.445 402.598 514.845C 401.398 526.245 401.998 541.245 401.998 541.245"/>
<path fill="none" stroke-width="4" stroke="#9f3fff" d="M 365.398 345.645C 365.398 345.645 352.198 401.445 356.998 419.445C 361.798 437.445 372.598 459.045 376.198 471.645C 379.798 484.245 380.398 504.045 379.198 517.845C 377.998 531.645 379.798 549.045 379.798 549.045"/>
<path fill="none" stroke-width="4" stroke="#9f3fff" d="M 449.998 353.445C 449.998 353.445 428.398 394.845 427.198 417.645C 425.998 440.445 419.998 446.445 423.598 462.645C 427.198 478.845 428.998 498.045 428.398 512.445C 427.798 526.845 428.998 542.445 428.998 542.445"/>
<path fill="none" stroke-width="4" stroke="#9f3fff" d="M 415.798 353.445C 415.798 353.445 400.798 382.845 398.398 400.245C 395.998 417.645 398.398 438.045 401.398 451.245C 404.398 464.445 405.598 480.045 406.798 493.845C 407.998 507.645 406.798 536.445 406.798 538.245"/>
<path fill="none" stroke-width="4" stroke="#9f3fff" d="M 356.998 346.245C 356.998 346.245 348.598 385.845 348.598 400.245C 348.598 414.645 348.598 422.445 353.398 434.445C 358.198 446.445 366.598 463.845 369.598 471.645C 372.598 479.445 371.998 480.045 371.998 480.045C 371.998 480.045 374.398 502.845 373.798 520.845C 373.198 538.845 371.998 550.245 371.998 550.245"/>
<path fill="none" stroke-width="4" stroke="#9f3fff" d="M 374.998 345.045C 374.998 345.045 364.798 384.645 364.198 399.645C 363.598 414.645 368.398 436.845 372.598 447.645C 376.798 458.445 382.798 476.445 382.798 476.445C 382.798 476.445 383.998 477.045 384.598 497.445C 385.198 517.845 384.598 542.445 383.998 545.445"/>
<path fill="none" stroke-width="4" stroke="#9f3fff" d="M 430.798 475.845C 430.798 475.845 436.198 496.845 435.598 507.645C 434.998 518.445 435.598 543.645 435.598 543.645"/>
<path fill="none" stroke-width="4" stroke="#9f3fff" d="M 394.798 349.845C 394.798 349.845 380.998 384.645 380.398 399.645C 379.798 414.645 380.398 429.045 385.198 445.245C 389.998 461.445 392.998 472.845 392.998 472.845"/>
<path fill="none" stroke-width="4" stroke="#9f3fff" d="M 481.198 346.845C 481.198 346.845 460.798 379.845 454.798 398.445C 448.798 417.045 440.398 427.845 441.598 448.245C 442.798 468.645 442.798 478.245 442.798 478.245"/>
<path fill="none" stroke-width="4" stroke="#9f3fff" d="M 488.998 369.045C 488.998 369.045 477.598 382.845 470.398 404.445C 463.198 426.045 456.598 436.845 456.598 450.045C 456.598 463.245 454.198 481.845 454.198 481.845"/>
<path fill="none" stroke-width="6" stroke="#7f00ff" d="M 353.848 547.845C 353.848 547.845 356.998 501.045 355.198 484.845C 353.398 468.645 348.898 465.945 339.898 453.345C 330.898 440.745 325.822 348.889 346.198 337.245C 358.798 330.045 385.798 319.245 427.198 322.845C 468.598 326.445 495.598 319.245 502.798 346.245C 507.915 365.433 490.305 403.712 479.686 435.239"/>
<path fill="none" stroke-width="6" stroke="#7f00ff" d="M 473.011 498.322C 473.951 519.272 475.221 539.721 473.998 556.845C 472.198 582.045 475.798 585.645 470.398 594.645C 464.998 603.645 418.961 589.393 402.448 591.045C 388.948 592.395 376.798 604.545 370.048 612.645C 359.481 625.325 359.248 639.645 359.248 639.645L 344.398 639.645"/>
<path fill="none" stroke-width="6" stroke="#7f00ff" d="M 253.949 632.895L 246.299 633.345C 246.299 633.345 251.849 597.345 269.699 595.545C 294.058 593.089 300.749 599.595 334.948 597.795C 369.148 595.995 364.198 587.445 365.998 578.445"/>
<path fill="none" stroke-width="6" stroke="#7f00ff" d="M 381.298 553.582L 211.199 552.232C 207.599 555.045 203.099 558.645 203.099 564.945"/>
<path fill="none" stroke-width="6" stroke="#7f00ff" d="M 321.448 546.495C 321.448 546.495 290.436 531.645 266.099 531.645C 245.399 531.645 232.799 537.945 217.499 545.145C 205.475 550.803 191.399 557.745 196.799 572.145C 200.846 582.936 245.277 587.497 272.399 588.345C 301.199 589.245 334.948 574.845 357.898 564.045C 380.848 553.245 396.906 539.409 417.298 540.645C 446.998 542.445 457.798 567.645 457.798 567.645L 430.793 567.317"/>
<path fill="none" stroke-width="6" stroke="#7f00ff" d="M 413.682 567.11L 371.398 566.145"/>
<path fill="none" stroke-width="6" stroke="#7f00ff" d="M 424.723 563.861C 428.414 563.861 431.405 560.015 431.405 555.27C 431.405 550.525 428.414 546.678 424.723 546.678C 421.033 546.678 418.041 550.525 418.041 555.27C 418.041 560.015 421.033 563.861 424.723 563.861z"/>
<path fill="none" stroke-width="6" stroke="#7f00ff" d="M 417.298 561.345C 417.298 561.345 421.348 570.795 414.598 578.895C 407.848 586.995 397.048 589.695 397.048 589.695"/>
<path fill="none" stroke-width="6" stroke="#7f00ff" d="M 429.448 561.345C 429.448 561.345 432.148 573.495 424.048 580.245C 415.948 586.995 407.848 589.695 407.848 589.695"/>
<path fill="none" stroke-width="6" stroke="#7f00ff" d="M 343.723 651.379C 348.468 651.379 352.315 645.823 352.315 638.97C 352.315 632.116 348.468 626.56 343.723 626.56C 338.979 626.56 335.132 632.116 335.132 638.97C 335.132 645.823 338.979 651.379 343.723 651.379z"/>
<path fill="none" stroke-width="6" stroke="#7f00ff" d="M 324.148 667.994C 324.148 667.994 311.999 642.345 313.348 631.545C 314.698 620.745 326.848 626.145 326.848 626.145C 326.848 626.145 372.748 627.495 375.448 635.595C 378.148 643.695 374.098 669.344 364.648 672.044C 355.198 674.744 334.948 670.694 334.948 670.694C 334.948 670.694 274.049 669.794 270.149 666.644C 266.249 663.494 258.299 650.895 256.649 645.045C 253.805 634.961 258.793 624.328 264.749 622.095C 270.749 619.845 314.698 624.795 314.698 624.795"/>
<path fill="none" stroke-width="6" stroke="#7f00ff" d="M 463.198 562.245C 463.198 562.245 460.119 520.453 460.726 484.849"/>
<path fill="none" stroke-width="6" stroke="#7f00ff" d="M 467.533 434.092C 477.923 401.724 500.336 353.144 490.198 345.345C 478.498 336.345 462.298 355.245 433.498 353.445C 395.615 351.078 359.698 334.545 349.798 348.945C 339.898 363.345 338.807 422.687 347.998 441.645C 357.598 461.445 367.798 475.845 367.798 497.445C 367.798 519.045 365.998 545.145 365.998 545.145"/>
<path fill="none" stroke-width="6" stroke="#7f00ff" d="M 244.303 438.045C 265.414 438.045 276.93 439.845 293.243 442.545C 309.557 445.245 316.274 444.345 316.274 453.345C 316.274 462.345 317.234 458.745 302.84 461.445C 288.445 464.145 270.213 456.045 251.98 456.945C 233.747 457.845 210.716 465.045 210.716 465.045L 184.806 463.245C 184.806 463.245 178.089 451.545 187.685 444.345C 197.281 437.145 244.303 438.045 244.303 438.045z"/>
<path fill="none" stroke-width="4" stroke="#7f00ff" d="M 224.151 439.845C 224.151 439.845 208.797 444.345 204.958 449.745C 199.937 456.81 202.08 459.645 203.999 464.145"/>
<path fill="none" stroke-width="6" stroke="#7f00ff" d="M 302.84 461.445C 302.84 461.445 302.999 472.245 319.198 477.645C 335.398 483.045 355.198 484.845 355.198 484.845"/>
<path fill="none" stroke-width="6" stroke="#7f00ff" d="M 284.999 463.245C 284.999 463.245 285.138 472.85 297.599 483.045C 317.398 499.245 355.198 502.845 355.198 502.845"/>
<path fill="none" stroke-width="6" stroke="#7f00ff" d="M 343.198 576.345L 409.193 577.654"/>
<path fill="none" stroke-width="6" stroke="#7f00ff" d="M 427.192 578.563L 460.498 580.245"/>
<path fill="none" stroke-width="4" stroke="#7f00ff" d="M 342.598 659.444C 342.598 659.444 375.898 663.044 385.798 649.544C 395.698 636.045 411.898 600.945 421.798 598.245"/>
<path fill="none" stroke-width="4" stroke="#7f00ff" d="M 338.998 620.745C 338.998 620.745 357.898 592.845 370.498 588.345C 383.098 583.845 384.898 582.945 397.498 582.045"/>
<path fill="none" stroke-width="6" stroke="#7f00ff" d="M 377.698 479.445C 377.698 479.445 387.598 473.145 405.598 472.245C 423.598 471.345 451.498 481.245 451.498 481.245"/>
<path fill="none" stroke-width="6" stroke="#7f00ff" d="M 354.298 704.444L 352.498 675.644"/>
<path fill="none" stroke-width="6" stroke="#7f00ff" d="M 234.599 746.744L 356.998 708.944L 500.098 750.344"/>
<path fill="none" stroke-width="6" stroke="#7f00ff" d="M 302.999 744.044L 356.998 708.944L 419.098 741.344"/>
<path fill="none" stroke-width="6" stroke="#7f00ff" d="M 356.998 708.944L 374.998 759.344"/>
<path fill="none" stroke-width="6" stroke="#7f00ff" d="M 238.199 771.326C 243.822 771.326 248.381 766.768 248.381 761.144C 248.381 755.521 243.822 750.962 238.199 750.962C 232.575 750.962 228.016 755.521 228.016 761.144C 228.016 766.768 232.575 771.326 238.199 771.326z"/>
<path fill="none" stroke-width="6" stroke="#7f00ff" d="M 499.704 771.326C 505.328 771.326 509.887 766.768 509.887 761.144C 509.887 755.521 505.328 750.962 499.704 750.962C 494.081 750.962 489.522 755.521 489.522 761.144C 489.522 766.768 494.081 771.326 499.704 771.326z"/>
<path fill="none" stroke-width="6" stroke="#7f00ff" d="M 373.817 775.714C 379.44 775.714 383.999 771.155 383.999 765.532C 383.999 759.908 379.44 755.349 373.817 755.349C 368.194 755.349 363.635 759.908 363.635 765.532C 363.635 771.155 368.194 775.714 373.817 775.714z"/>
<path fill="none" stroke-width="6" stroke="#7f00ff" d="M 304.405 765.139C 310.028 765.139 314.587 760.58 314.587 754.957C 314.587 749.333 310.028 744.774 304.405 744.774C 298.781 744.774 294.223 749.333 294.223 754.957C 294.223 760.58 298.781 765.139 304.405 765.139z"/>
<path fill="none" stroke-width="6" stroke="#7f00ff" d="M 419.773 765.139C 425.397 765.139 429.956 760.58 429.956 754.957C 429.956 749.333 425.397 744.774 419.773 744.774C 414.15 744.774 409.591 749.333 409.591 754.957C 409.591 760.58 414.15 765.139 419.773 765.139z"/>
</g>
<g>
<path fill="#00ff00" stroke="none" d="M 418.84 381.112L 388.84 358.445L 384.173 426.112L 381.173 548.112C 381.173 548.112 387.506 544.112 392.506 542.778C 397.506 541.445 405.506 538.445 405.506 538.445L 409.84 468.778L 418.84 381.112z"/>
<path fill="#ba7f59" stroke="none" d="M 315.34 213.945C 315.34 213.945 307.34 243.445 308.84 255.945C 310.34 268.445 310.34 289.945 310.34 289.945L 313.84 301.445L 333.84 300.445L 373.34 310.945L 380.84 312.945L 404.84 296.445L 399.34 218.945L 315.34 213.945z"/>
<path fill="#ff9f3f" stroke="none" d="M 439.506 170.112L 418.84 218.778L 311.84 211.778L 299.506 163.112C 299.506 163.112 320.506 168.778 327.173 166.445C 333.84 164.112 354.173 151.778 354.173 151.778C 354.173 151.778 386.173 170.445 394.84 171.778C 403.506 173.112 439.506 170.112 439.506 170.112z"/>
<path fill="#ffdfbf" stroke="none" d="M 355.506 153.445C 354.736 156.945 358.506 163.487 360.506 166.633C 361.215 167.737 362.111 168.57 363.256 169.174C 367.111 171.174 370.569 173.466 374.465 175.341C 380.465 178.216 386.902 179.778 393.486 179.778C 397.902 179.799 408.84 177.862 408.84 173.445C 408.84 169.008 398.256 170.445 393.84 170.445L 385.506 168.112C 382.381 167.487 383.256 166.133 380.173 165.112C 376.131 163.758 375.423 163.091 371.173 162.112C 369.902 161.82 369.923 157.403 368.548 158.341C 368.506 158.383 368.694 158.716 368.798 158.945C 367.694 158.466 366.631 158.174 365.256 158.008C 363.527 157.799 362.173 156.237 360.423 155.653C 360.194 155.195 359.652 155.028 359.215 155.237C 358.777 155.466 358.59 156.008 358.819 156.445L 355.506 153.445z"/>
<path fill="#ffffff" stroke="none" d="M 434.277 172.278C 430.048 172.091 427.006 175.674 423.569 177.591C 422.048 179.987 419.256 181.299 418.298 184.07C 418.444 183.674 418.569 183.258 418.715 182.862C 417.465 184.82 415.923 186.528 414.923 188.653C 414.59 189.383 414.506 190.174 414.069 190.883C 411.59 194.945 409.902 199.049 407.861 203.153C 408.048 202.778 408.236 202.424 408.423 202.049C 406.736 205.153 404.09 208.008 403.986 211.737C 403.652 216.258 407.048 220.195 411.569 220.528C 416.111 220.862 420.048 217.466 420.381 212.924L 420.381 213.008C 420.131 213.82 419.861 214.633 419.256 215.278C 420.111 213.945 420.548 212.403 421.402 211.07C 421.152 211.383 420.902 211.674 420.652 211.987C 422.986 209.112 423.527 205.403 424.673 201.987C 424.506 202.299 424.319 202.591 424.152 202.903C 425.486 199.716 427.173 196.653 428.048 193.278C 427.777 193.716 427.506 194.174 427.236 194.612C 428.527 192.716 429.131 190.445 430.402 188.528C 430.215 188.695 430.048 188.883 429.861 189.049C 430.34 188.008 431.006 187.091 431.444 186.028C 431.527 185.862 431.319 185.57 431.381 185.362C 432.402 181.278 434.861 177.903 435.527 173.82C 435.965 173.466 436.027 172.841 435.673 172.424C 435.319 171.987 434.694 171.924 434.277 172.278L 434.277 172.278z"/>
<path fill="#ff0000" stroke="none" d="M 308.84 190.778L 410.173 199.112L 406.173 206.112L 311.173 200.778L 308.84 190.778z"/>
<path fill="#ffbfbf" stroke="none" d="M 410.173 199.112L 407.173 205.778L 423.506 207.778L 425.173 201.112L 410.173 199.112z"/>
<path fill="#3f3f3f" stroke="none" d="M 311.173 200.778L 404.506 208.445L 404.84 216.778L 311.84 211.112L 311.173 200.778z"/>
<path fill="#7f7f7f" stroke="none" d="M 404.506 208.445L 404.84 216.778L 418.84 218.778L 421.84 209.778L 404.506 208.445z"/>
<path fill="#3f3f3f" stroke="none" d="M 388.84 219.445C 388.84 219.445 388.34 251.445 389.84 263.445C 391.34 275.445 383.84 287.945 401.84 297.445C 419.84 306.945 441.84 310.945 450.34 306.445C 458.84 301.945 466.84 292.445 462.34 284.945C 457.84 277.445 448.84 272.945 444.34 277.445C 439.84 281.945 433.34 290.445 433.34 290.445C 433.34 290.445 430.34 281.445 428.84 265.445C 427.34 249.445 426.34 229.945 422.34 225.945C 418.34 221.945 413.34 219.445 413.34 219.445L 388.84 219.445z"/>
<path fill="#3f3f3f" stroke="none" d="M 313.34 295.945L 312.34 288.445L 301.34 287.945L 302.34 301.945L 316.34 306.445L 326.84 302.945L 340.34 313.945L 369.84 318.945L 380.34 306.945L 374.34 297.945L 361.34 299.445L 358.34 305.945C 358.34 305.945 348.34 305.945 343.34 303.445C 338.34 300.945 330.84 293.945 330.84 293.945L 325.34 291.445C 325.34 291.445 325.84 296.945 320.84 298.445C 315.84 299.945 313.34 295.945 313.34 295.945z"/>
<path fill="#7f7f00" stroke="none" d="M 317.84 231.945L 328.34 232.445L 327.34 246.945L 318.84 248.945L 317.84 231.945z"/>
<path fill="#7f7f00" stroke="none" d="M 346.84 238.945L 354.34 238.945L 354.84 255.445L 343.34 252.945L 346.84 238.945z"/>
<path fill="#333300" stroke="none" d="M 322.84 242.726C 324.011 242.726 324.961 241.341 324.961 239.633C 324.961 237.924 324.011 236.539 322.84 236.539C 321.668 236.539 320.718 237.924 320.718 239.633C 320.718 241.341 321.668 242.726 322.84 242.726z"/>
<path fill="#333300" stroke="none" d="M 349.34 251.476C 350.511 251.476 351.461 250.091 351.461 248.383C 351.461 246.674 350.511 245.289 349.34 245.289C 348.168 245.289 347.218 246.674 347.218 248.383C 347.218 250.091 348.168 251.476 349.34 251.476z"/>
<path fill="#ffffff" stroke="none" d="M 322.215 238.873C 322.996 238.873 323.629 237.646 323.629 236.133C 323.629 234.619 322.996 233.393 322.215 233.393C 321.434 233.393 320.8 234.619 320.8 236.133C 320.8 237.646 321.434 238.873 322.215 238.873z"/>
<path fill="#ffffff" stroke="none" d="M 349.027 247.2C 349.759 247.2 350.353 245.855 350.353 244.195C 350.353 242.535 349.759 241.19 349.027 241.19C 348.295 241.19 347.701 242.535 347.701 244.195C 347.701 245.855 348.295 247.2 349.027 247.2z"/>
<path fill="#ba7f59" stroke="none" d="M 146.84 306.445L 182.84 292.445L 183.84 302.445L 193.84 304.445L 187.84 320.445L 191.84 340.445L 151.84 343.445L 146.84 306.445z"/>
<path fill="#bfdfff" stroke="none" d="M 166.84 31.4451L 153.84 57.4451L 152.84 280.445L 181.84 279.445L 181.84 57.4451L 166.84 31.4451z"/>
<path fill="#ff9f3f" stroke="none" d="M 123.84 281.445L 213.84 281.445L 210.84 295.445L 120.84 295.445L 123.84 281.445z"/>
<path fill="#ff3f9f" stroke="none" d="M 162.84 351.445L 178.84 350.445L 177.84 366.445L 160.84 366.445L 162.84 351.445z"/>
<path fill="#ffffff" stroke="none" d="M 167.84 37.4451L 167.84 118.112L 180.84 107.445L 181.84 57.4451L 167.84 37.4451z"/>
<path fill="#3f9fff" stroke="none" d="M 153.84 129.445L 164.84 118.445L 164.84 161.445L 153.84 171.445L 153.84 129.445z"/>
<path fill="#3f9fff" stroke="none" d="M 155.173 181.445L 164.506 174.778L 164.506 191.445L 154.84 196.778L 155.173 181.445z"/>
<path fill="#ffffff" stroke="none" d="M 168.84 194.445L 180.84 187.445L 181.84 279.445L 167.84 278.445L 168.84 194.445z"/>
<path fill="#ffffff" stroke="none" d="M 123.84 281.445L 202.84 287.445L 210.84 295.445L 213.84 281.445L 123.84 281.445z"/>
<path fill="#7f7f7f" stroke="none" d="M 446.84 288.07C 448.777 288.914 447.902 291.133 448.058 292.726L 448.027 293.32L 448.371 292.101L 448.152 292.476C 447.402 292.976 446.527 293.726 445.777 293.351C 443.777 292.351 441.183 292.164 440.027 290.258C 439.152 288.82 439.871 286.726 438.84 285.101C 439.308 284.133 438.902 282.976 437.933 282.508C 436.965 282.039 435.808 282.445 435.34 283.414C 434.215 283.82 433.402 284.883 433.371 286.008C 433.277 289.758 433.527 294.351 437.246 296.445C 441.746 299.008 447.965 300.258 451.59 295.633L 452.308 294.508C 452.527 294.164 452.652 293.726 452.652 293.32L 452.652 292.07C 452.715 289.976 452.433 287.445 450.246 286.508C 448.996 285.945 447.777 285.476 446.84 286.82C 446.496 286.82 446.215 287.101 446.215 287.445C 446.215 287.789 446.496 288.07 446.84 288.07L 446.84 288.07z"/>
<path fill="#7f7f7f" stroke="none" d="M 414.527 231.383C 415.183 233.508 415.59 235.695 415.84 237.883C 417.215 250.289 416.777 262.508 417.121 274.82C 417.34 281.789 417.621 290.664 424.246 294.914C 424.621 295.226 425.183 295.133 425.496 294.758C 425.808 294.383 425.746 293.82 425.34 293.508C 423.621 292.601 422.527 291.039 421.902 289.351C 415.84 272.633 420.496 255.195 417.371 237.508C 416.965 235.258 416.371 233.195 415.558 231.101C 415.465 230.82 415.183 230.633 414.902 230.726C 414.59 230.82 414.433 231.101 414.527 231.383L 414.527 231.383z"/>
<path fill="#7f7f7f" stroke="none" d="M 398.808 247.633C 398.215 265.258 395.371 289.351 414.027 298.914C 414.558 299.226 415.215 299.101 415.558 298.57C 415.871 298.07 415.746 297.383 415.215 297.07C 397.84 287.133 400.621 264.695 399.871 247.633C 399.871 247.351 399.621 247.101 399.34 247.101C 399.058 247.101 398.808 247.351 398.808 247.633L 398.808 247.633z"/>
<path fill="#7f7f7f" stroke="none" d="M 335.715 298.445C 336.808 303.414 339.027 309.008 343.996 311.195C 344.465 311.476 345.09 311.32 345.34 310.851C 345.621 310.383 345.465 309.789 345.027 309.508C 341.121 306.789 337.965 302.976 336.777 298.258C 336.715 297.945 336.433 297.758 336.152 297.82C 335.84 297.883 335.652 298.164 335.715 298.445L 335.715 298.445z"/>
<path fill="#7f7f7f" stroke="none" d="M 344.746 304.976C 347.246 309.383 351.402 312.601 355.683 315.133C 356.34 315.445 357.152 315.195 357.496 314.508C 357.808 313.851 357.527 313.039 356.871 312.695C 352.996 310.164 348.465 308.226 345.746 304.32C 345.558 304.039 345.183 303.976 344.933 304.133C 344.652 304.32 344.558 304.695 344.746 304.976L 344.746 304.976z"/>
<path fill="#7f7f7f" stroke="none" d="M 339.152 270.789C 343.277 269.164 347.59 270.383 351.683 271.539C 355.058 272.476 356.777 276.101 360.308 277.07C 361.527 277.414 362.808 277.726 364.152 276.851C 364.84 276.695 365.246 276.008 365.09 275.351C 364.933 274.664 364.277 274.258 363.59 274.414C 362.84 274.508 362.09 274.664 361.402 274.445C 357.933 273.445 356.246 269.851 352.871 268.851C 348.183 267.539 342.871 266.476 338.715 269.695C 338.433 269.82 338.277 270.164 338.402 270.445C 338.527 270.758 338.84 270.914 339.152 270.789L 339.152 270.789z"/>
<path fill="#7f7f7f" stroke="none" d="M 302.527 268.789C 304.246 269.289 306.121 269.101 307.715 268.476C 310.965 267.195 314.215 265.851 317.59 265.883C 320.433 265.914 322.746 268.508 325.683 269.133C 326.465 269.476 327.371 269.164 327.715 268.414C 328.058 267.664 327.746 266.758 326.996 266.383C 324.34 263.601 320.558 261.539 316.808 262.539C 313.246 263.508 309.777 263.82 306.558 266.164C 305.371 267.008 304.058 267.664 302.527 267.508C 302.183 267.508 301.902 267.789 301.902 268.133C 301.902 268.508 302.183 268.789 302.527 268.789L 302.527 268.789z"/>
<path fill="#7f7f7f" stroke="none" d="M 401.817 223.022C 403.804 228.709 404.853 234.623 405.639 240.58C 405.737 241.046 406.221 241.334 406.687 241.236C 407.152 241.137 407.44 240.653 407.342 240.188C 406.569 234.169 405.127 228.305 402.908 222.667C 402.809 222.36 402.46 222.195 402.154 222.293C 401.878 222.397 401.719 222.716 401.817 223.022L 401.817 223.022z"/>
<path fill="#7f7f7f" stroke="none" d="M 406.777 224.633C 406.777 224.945 407.027 225.195 407.34 225.195C 407.652 225.195 407.902 224.945 407.902 224.633C 407.902 224.32 407.652 224.07 407.34 224.07C 407.027 224.07 406.777 224.32 406.777 224.633L 406.777 224.633z"/>
<path fill="#ff0000" stroke="none" d="M 266.84 394.112L 332.173 368.778L 330.84 382.112L 312.173 455.445C 312.173 455.445 274.173 449.445 268.84 435.445C 263.506 421.445 266.84 394.112 266.84 394.112z"/>
<path fill="#00ff00" stroke="none" d="M 332.173 368.778L 348.84 365.445L 330.84 464.778L 321.506 537.445L 306.84 542.112L 312.173 455.445L 330.84 382.112L 332.173 368.778z"/>
<path fill="#ffff00" stroke="none" d="M 278.173 391.445C 278.173 391.445 271.506 406.778 278.84 421.445C 285.638 435.042 297.506 440.112 303.506 442.112C 309.506 444.112 312.84 443.778 312.84 443.778L 312.173 455.445C 312.173 455.445 276.173 450.112 268.84 435.445C 261.506 420.778 264.173 396.112 264.173 396.112L 278.173 391.445z"/>
<path fill="none" stroke-width="1" stroke="#ffffff" d="M 285.506 388.778C 285.506 388.778 279.506 398.778 282.84 410.778C 286.173 422.778 290.173 426.112 298.173 430.112C 306.173 434.112 314.173 435.445 314.173 435.445"/>
<path fill="#007fff" stroke-width="1" stroke="#ff007f" d="M 280.173 423.778C 280.173 423.778 277.84 424.112 274.506 422.445C 271.173 420.778 269.911 417.564 271.506 412.778C 272.84 408.778 275.84 405.445 275.84 405.445C 275.84 405.445 271.945 400.304 271.506 398.112C 270.506 393.112 273.506 392.112 273.506 392.112L 278.84 390.112C 278.84 390.112 281.173 390.445 278.84 392.778C 276.506 395.112 276.84 400.445 277.506 404.778C 278.173 409.112 277.173 415.112 277.173 415.112C 277.173 415.112 278.84 419.778 280.84 422.778C 282.84 425.778 285.506 430.778 285.506 430.778C 285.506 430.778 290.84 434.445 294.506 436.445C 298.173 438.445 304.506 441.778 304.506 441.778C 304.506 441.778 307.84 439.112 311.506 440.112C 315.173 441.112 313.84 444.778 313.84 444.778C 313.84 444.778 317.84 448.445 314.84 447.778C 311.84 447.112 310.173 444.112 310.173 444.112C 310.173 444.112 305.84 448.445 301.506 446.778C 297.173 445.112 294.506 436.445 294.506 436.445C 294.506 436.445 282.173 437.445 279.84 433.778C 277.506 430.112 280.173 423.778 280.173 423.778z"/>
<path fill="none" stroke-width="1" stroke="#ffffff" d="M 289.506 387.778L 291.173 391.445L 287.506 395.778L 291.84 399.445L 287.173 405.112L 293.506 408.445L 291.506 416.445L 298.84 418.112L 298.506 424.778L 304.506 424.112L 305.506 430.112L 312.506 427.778L 315.173 433.112"/>
<path fill="none" stroke-width="1" stroke="#ffffff" d="M 296.506 389.445C 306.506 385.112 316.84 379.445 328.506 375.778C 329.653 375.418 328.84 377.112 329.506 375.778"/>
<path fill="none" stroke-width="1" stroke="#ffffff" d="M 297.506 396.112C 307.173 390.778 320.84 387.112 330.84 382.112"/>
<path fill="none" stroke-width="1" stroke="#ffffff" d="M 297.84 406.112C 306.173 403.445 319.506 395.445 327.506 391.112"/>
<path fill="none" stroke-width="1" stroke="#ffffff" d="M 303.506 413.778C 314.087 406.976 322.311 400.057 320.506 400.778"/>
<path fill="none" stroke-width="1" stroke="#ffffff" d="M 309.84 418.778C 314.506 417.112 320.506 405.112 324.84 402.778"/>
<path fill="none" stroke-width="1" stroke="#ffffff" d="M 314.84 423.445C 318.173 419.778 321.173 413.112 324.84 409.445"/>
<path fill="none" stroke-width="1" stroke="#ffff00" d="M 336.173 372.445C 336.173 372.445 342.506 376.778 340.84 381.445C 339.173 386.112 334.506 389.445 333.84 393.445C 333.173 397.445 337.173 403.778 335.173 408.112C 333.173 412.445 326.506 417.445 325.506 422.445C 324.506 427.445 330.84 431.778 329.173 436.445C 327.506 441.112 319.506 447.112 318.506 451.112C 317.506 455.112 325.173 463.778 324.173 467.445C 323.173 471.112 316.506 476.112 315.506 482.112C 314.506 488.112 321.173 496.112 320.173 501.445C 319.173 506.778 313.173 508.445 312.506 513.112C 311.84 517.778 317.84 524.445 317.173 528.778C 316.506 533.112 311.173 539.445 311.173 540.445"/>
<path fill="none" stroke-width="1" stroke="#ffff00" d="M 317.84 515.778C 318.295 515.778 318.665 515.409 318.665 514.953C 318.665 514.498 318.295 514.128 317.84 514.128C 317.384 514.128 317.015 514.498 317.015 514.953C 317.015 515.409 317.384 515.778 317.84 515.778z"/>
<path fill="none" stroke-width="1" stroke="#ffff00" d="M 321.173 483.778C 321.629 483.778 321.998 483.409 321.998 482.953C 321.998 482.498 321.629 482.128 321.173 482.128C 320.717 482.128 320.348 482.498 320.348 482.953C 320.348 483.409 320.717 483.778 321.173 483.778z"/>
<path fill="none" stroke-width="1" stroke="#ffff00" d="M 395.173 512.778C 395.629 512.778 395.998 512.409 395.998 511.953C 395.998 511.498 395.629 511.128 395.173 511.128C 394.717 511.128 394.348 511.498 394.348 511.953C 394.348 512.409 394.717 512.778 395.173 512.778z"/>
<path fill="none" stroke-width="1" stroke="#ffff00" d="M 400.173 494.445C 400.629 494.445 400.998 494.076 400.998 493.62C 400.998 493.164 400.629 492.795 400.173 492.795C 399.717 492.795 399.348 493.164 399.348 493.62C 399.348 494.076 399.717 494.445 400.173 494.445z"/>
<path fill="none" stroke-width="1" stroke="#ffff00" d="M 395.173 512.778C 395.629 512.778 395.998 512.409 395.998 511.953C 395.998 511.498 395.629 511.128 395.173 511.128C 394.717 511.128 394.348 511.498 394.348 511.953C 394.348 512.409 394.717 512.778 395.173 512.778z"/>
<path fill="none" stroke-width="1" stroke="#ffff00" d="M 400.173 437.112C 400.629 437.112 400.998 436.742 400.998 436.287C 400.998 435.831 400.629 435.462 400.173 435.462C 399.717 435.462 399.348 435.831 399.348 436.287C 399.348 436.742 399.717 437.112 400.173 437.112z"/>
<path fill="none" stroke-width="1" stroke="#ffff00" d="M 407.506 421.112C 407.962 421.112 408.331 420.742 408.331 420.287C 408.331 419.831 407.962 419.462 407.506 419.462C 407.051 419.462 406.681 419.831 406.681 420.287C 406.681 420.742 407.051 421.112 407.506 421.112z"/>
<path fill="none" stroke-width="1" stroke="#ffff00" d="M 401.84 403.778C 402.295 403.778 402.665 403.409 402.665 402.953C 402.665 402.498 402.295 402.128 401.84 402.128C 401.384 402.128 401.015 402.498 401.015 402.953C 401.015 403.409 401.384 403.778 401.84 403.778z"/>
<path fill="none" stroke-width="1" stroke="#ffff00" d="M 408.84 387.778C 409.295 387.778 409.665 387.409 409.665 386.953C 409.665 386.498 409.295 386.128 408.84 386.128C 408.384 386.128 408.015 386.498 408.015 386.953C 408.015 387.409 408.384 387.778 408.84 387.778z"/>
<path fill="none" stroke-width="1" stroke="#ffff00" d="M 404.506 373.112C 404.962 373.112 405.331 372.742 405.331 372.287C 405.331 371.831 404.962 371.462 404.506 371.462C 404.051 371.462 403.681 371.831 403.681 372.287C 403.681 372.742 404.051 373.112 404.506 373.112z"/>
<path fill="none" stroke-width="1" stroke="#ffff00" d="M 400.173 531.112C 400.629 531.112 400.998 530.742 400.998 530.287C 400.998 529.831 400.629 529.462 400.173 529.462C 399.717 529.462 399.348 529.831 399.348 530.287C 399.348 530.742 399.717 531.112 400.173 531.112z"/>
<path fill="none" stroke-width="1" stroke="#ffff00" d="M 397.84 477.112C 398.295 477.112 398.665 476.742 398.665 476.287C 398.665 475.831 398.295 475.462 397.84 475.462C 397.384 475.462 397.015 475.831 397.015 476.287C 397.015 476.742 397.384 477.112 397.84 477.112z"/>
<path fill="none" stroke-width="1" stroke="#ffff00" d="M 325.506 452.445C 325.962 452.445 326.331 452.076 326.331 451.62C 326.331 451.164 325.962 450.795 325.506 450.795C 325.051 450.795 324.681 451.164 324.681 451.62C 324.681 452.076 325.051 452.445 325.506 452.445z"/>
<path fill="none" stroke-width="1" stroke="#ffff00" d="M 332.173 422.445C 332.629 422.445 332.998 422.076 332.998 421.62C 332.998 421.164 332.629 420.795 332.173 420.795C 331.717 420.795 331.348 421.164 331.348 421.62C 331.348 422.076 331.717 422.445 332.173 422.445z"/>
<path fill="none" stroke-width="1" stroke="#ffff00" d="M 331.173 406.112C 331.629 406.112 331.998 405.742 331.998 405.287C 331.998 404.831 331.629 404.462 331.173 404.462C 330.717 404.462 330.348 404.831 330.348 405.287C 330.348 405.742 330.717 406.112 331.173 406.112z"/>
<path fill="none" stroke-width="1" stroke="#ffff00" d="M 338.84 393.778C 339.295 393.778 339.665 393.409 339.665 392.953C 339.665 392.498 339.295 392.128 338.84 392.128C 338.384 392.128 338.015 392.498 338.015 392.953C 338.015 393.409 338.384 393.778 338.84 393.778z"/>
<path fill="none" stroke-width="1" stroke="#ffff00" d="M 335.84 380.445C 336.295 380.445 336.665 380.076 336.665 379.62C 336.665 379.164 336.295 378.795 335.84 378.795C 335.384 378.795 335.015 379.164 335.015 379.62C 335.015 380.076 335.384 380.445 335.84 380.445z"/>
<path fill="none" stroke-width="1" stroke="#ffff00" d="M 323.506 436.112C 323.962 436.112 324.331 435.742 324.331 435.287C 324.331 434.831 323.962 434.462 323.506 434.462C 323.051 434.462 322.681 434.831 322.681 435.287C 322.681 435.742 323.051 436.112 323.506 436.112z"/>
<path fill="none" stroke-width="1" stroke="#ffff00" d="M 318.015 468.27C 318.47 468.27 318.84 467.901 318.84 467.445C 318.84 466.989 318.47 466.62 318.015 466.62C 317.559 466.62 317.19 466.989 317.19 467.445C 317.19 467.901 317.559 468.27 318.015 468.27z"/>
<path fill="none" stroke-width="1" stroke="#ffff00" d="M 314.506 500.112C 314.962 500.112 315.331 499.742 315.331 499.287C 315.331 498.831 314.962 498.462 314.506 498.462C 314.051 498.462 313.681 498.831 313.681 499.287C 313.681 499.742 314.051 500.112 314.506 500.112z"/>
<path fill="none" stroke-width="1" stroke="#ffff00" d="M 312.84 529.112C 313.295 529.112 313.665 528.742 313.665 528.287C 313.665 527.831 313.295 527.462 312.84 527.462C 312.384 527.462 312.015 527.831 312.015 528.287C 312.015 528.742 312.384 529.112 312.84 529.112z"/>
<path fill="#ba7f59" stroke="none" d="M 363.673 421.883L 373.673 424.216L 368.527 473.778L 355.861 472.112L 353.527 461.778L 363.673 421.883z"/>
<path fill="#ff0000" stroke="none" d="M 418.34 384.112L 434.006 397.778L 432.673 435.445L 422.673 468.445L 418.673 539.445L 405.006 540.445L 408.673 468.778L 418.34 384.112z"/>
<path fill="none" stroke-width="1" stroke="#ffff00" d="M 412.84 376.445C 412.84 376.445 403.506 377.778 402.173 384.778C 400.84 391.778 410.173 395.778 409.173 403.112C 408.173 410.445 398.506 415.778 398.506 421.112C 398.506 426.445 408.84 432.445 408.506 437.112C 408.173 441.778 397.173 449.778 397.506 455.445C 397.84 461.112 403.173 471.778 402.173 479.112C 401.173 486.445 394.84 486.445 394.506 493.778C 394.173 501.112 402.173 504.778 401.506 511.445C 400.84 518.112 393.173 524.778 392.84 530.778C 392.506 536.778 399.506 536.445 399.506 540.112"/>
<path fill="#007fff" stroke="none" d="M 389.84 356.445L 396.173 363.112L 393.84 427.445L 391.506 476.112L 387.506 544.778L 381.173 548.112L 383.173 472.445L 386.84 354.445L 389.84 356.445z"/>
<path fill="none" stroke-width="1" stroke="#ffff00" d="M 387.506 544.778C 387.506 544.778 388.84 528.445 389.506 519.778C 390.173 511.112 390.506 487.778 391.506 479.112C 392.506 470.445 393.84 439.778 393.84 434.778C 393.84 429.778 394.173 405.445 395.173 394.112C 396.173 382.778 397.173 363.445 397.173 363.445"/>
<path fill="none" stroke-width="1" stroke="#ffffff" d="M 422.84 430.112C 424.173 425.445 426.173 420.778 423.506 417.445C 420.84 413.445 418.84 408.112 420.84 404.778C 422.173 402.778 426.173 401.445 427.506 403.445C 428.84 404.112 428.84 407.445 428.173 409.445C 427.506 409.445 425.506 410.112 424.84 409.445C 424.84 408.778 424.84 407.445 424.84 406.778"/>
<path fill="none" stroke-width="1" stroke="#ffffff" d="M 422.84 402.112C 426.173 399.445 428.173 396.112 426.173 392.112C 426.173 391.445 424.173 391.445 422.84 392.112C 422.84 392.778 422.84 394.112 422.84 394.778"/>
<path fill="none" stroke-width="1" stroke="#ffffff" d="M 417.09 492.445C 415.578 487.331 411.84 476.695 413.84 473.195C 415.84 469.695 417.59 470.695 418.34 472.695C 419.09 474.695 417.09 481.195 416.09 477.195"/>
<path fill="none" stroke-width="1" stroke="#ffffff" d="M 416.84 496.445C 418.84 495.778 415.09 497.695 412.59 495.695C 412.264 495.435 410.165 492.622 411.84 490.445C 414.34 487.195 415.59 489.445 414.59 492.945"/>
<path fill="none" stroke-width="1" stroke="#ffffff" d="M 417.09 492.445C 417.756 495.778 416.84 498.945 416.09 501.695C 415.213 504.911 410.423 510.112 411.09 513.445C 410.423 513.445 410.012 505.607 410.09 504.945C 410.59 500.695 412.173 500.278 412.84 502.945"/>
<path fill="none" stroke-width="1" stroke="#ffffff" d="M 414.34 537.195C 413.625 529.328 409.697 521.102 411.09 513.445C 415.756 512.112 416.84 518.112 416.84 521.445C 416.173 522.778 414.84 523.445 413.506 522.778C 413.506 522.778 413.59 516.862 413.59 516.195"/>
<path fill="none" stroke-width="1" stroke="#ffffff" d="M 410.173 531.445C 410.84 528.778 409.506 523.445 406.173 526.112C 405.506 526.112 406.173 528.778 406.173 530.778C 408.84 530.112 412.256 537.028 413.59 533.695"/>
<path fill="#7f7f7f" stroke="none" d="M 448.715 289.987C 446.944 288.695 447.319 286.278 448.402 284.633L 448.548 284.133L 447.506 285.153L 447.652 285.174L 447.652 285.174L 447.777 285.174L 447.777 285.174L 447.84 285.195C 448.048 285.195 448.236 285.133 448.402 285.028L 448.756 284.82L 448.444 284.945L 448.819 284.862L 448.048 284.758L 448.631 285.049C 450.84 285.716 452.381 287.278 453.465 289.278C 454.111 290.466 452.902 291.549 453.34 292.716C 453.298 293.362 453.798 293.903 454.444 293.945C 455.09 293.966 455.652 293.466 455.673 292.82C 457.465 288.82 453.902 284.57 450.131 283.403L 449.111 282.862C 448.861 282.716 448.59 282.695 448.319 282.758L 447.923 282.841C 447.819 282.883 447.715 282.924 447.611 282.966L 447.277 283.195L 447.84 283.028L 447.756 283.049L 447.756 283.049L 447.631 283.049L 447.631 283.049L 447.506 283.07C 446.923 283.07 446.465 283.528 446.465 284.091L 446.361 284.091C 445.819 285.633 445.131 287.341 445.777 288.862C 446.194 289.841 446.923 290.758 448.298 290.903C 448.548 291.028 448.861 290.924 448.965 290.653C 449.09 290.403 448.986 290.091 448.715 289.987L 448.715 289.987z"/>
<path fill="#7f7f7f" stroke="none" d="M 445.402 294.612C 446.361 294.528 447.236 294.195 448.131 293.862L 448.652 293.633C 448.756 293.549 448.84 293.466 448.902 293.362L 449.027 293.133C 449.215 292.487 449.34 291.841 449.298 291.153L 449.319 291.112L 448.194 292.258L 448.465 292.258L 448.444 292.258L 448.506 292.278C 449.152 292.278 449.673 291.758 449.673 291.112L 449.673 290.799C 449.673 290.195 449.194 289.674 448.569 289.633L 448.048 289.612C 447.923 289.612 447.819 289.612 447.694 289.612L 447.319 289.612L 448.423 290.466L 448.069 289.591C 447.09 288.07 447.09 286.153 447.694 284.362L 447.465 285.008C 447.777 284.82 447.986 284.508 448.027 284.133L 448.048 283.966L 448.048 283.987L 448.069 283.945L 446.902 285.028L 447.131 285.028C 447.402 285.008 447.652 284.903 447.861 284.716L 448.173 284.466L 447.923 284.633L 448.027 284.591L 447.548 284.716L 447.777 284.716L 447.006 284.487L 447.923 284.966C 449.256 285.383 449.798 286.695 450.756 287.528C 451.194 288.028 451.965 288.091 452.465 287.653C 452.986 287.216 453.048 286.445 452.611 285.924C 451.59 284.653 450.569 283.278 449.027 282.57L 448.423 282.403C 448.194 282.258 447.923 282.174 447.652 282.195L 447.402 282.216C 447.236 282.216 447.069 282.258 446.923 282.341L 446.798 282.403C 446.715 282.445 446.631 282.508 446.548 282.57L 446.236 282.841L 446.986 282.549L 446.756 282.57C 446.173 282.591 445.694 283.049 445.611 283.633L 445.611 283.674L 445.611 283.674L 445.611 283.841L 445.652 283.612L 445.277 284.237C 445.298 284.195 445.298 284.153 445.319 284.112C 444.756 286.174 444.881 288.445 445.736 290.403L 446.194 291.091C 446.34 291.591 446.798 291.945 447.319 291.945L 448.048 291.945L 447.986 291.945L 448.444 291.966L 447.34 290.799L 447.34 291.112L 448.506 289.945L 448.423 289.966C 448.423 289.966 448.423 289.966 448.402 289.966L 448.152 289.987C 447.527 289.987 447.027 290.487 447.027 291.112L 447.006 292.57L 447.152 291.987L 447.027 292.216L 447.881 291.695L 447.152 292.07C 446.423 292.612 445.652 293.049 444.944 293.612C 444.673 293.737 444.548 294.07 444.673 294.341C 444.798 294.612 445.131 294.737 445.402 294.612L 445.402 294.612z"/>
<path fill="#7f7f7f" stroke="none" d="M 415.34 223.237C 415.361 223.487 415.381 223.716 415.402 223.966L 415.277 223.945C 415.277 224.174 415.402 224.362 415.59 224.445L 415.715 224.528L 415.715 224.528L 415.798 224.591L 415.486 224.216L 415.798 224.716C 418.319 227.695 420.006 231.341 420.736 235.278C 420.923 236.362 420.611 237.466 420.798 238.57C 422.361 248.258 422.777 257.695 422.215 267.237C 423.402 274.799 423.986 282.57 427.569 289.591C 428.09 290.57 429.111 290.903 429.861 291.633C 430.527 292.258 430.652 293.278 431.548 293.737C 432.048 294.237 432.819 294.237 433.319 293.758C 433.798 293.258 433.798 292.487 433.319 291.987C 432.673 290.445 431.569 289.091 430.069 288.341C 426.402 281.903 426.131 274.362 424.798 267.237C 425.319 255.716 424.069 244.195 422.423 232.82C 420.84 229.778 419.59 226.403 417.069 224.049L 416.611 223.883C 416.569 223.716 416.465 223.591 416.319 223.528L 416.215 223.487L 416.215 223.487L 416.09 223.445L 416.402 223.945L 415.84 223.237C 416.006 223.237 416.173 223.237 416.34 223.237C 416.34 222.966 416.131 222.737 415.84 222.737C 415.548 222.737 415.34 222.966 415.34 223.237L 415.34 223.237z"/>
<path fill="#7f7f7f" stroke="none" d="M 430.861 294.028C 431.944 295.758 432.569 297.841 434.319 299.112C 437.819 301.612 441.715 302.362 445.84 302.008L 446.611 302.008C 446.84 302.008 447.069 301.945 447.277 301.82L 450.173 299.945C 452.173 298.508 455.111 297.778 455.673 294.924C 455.694 294.799 455.527 294.653 455.423 294.508C 455.652 293.987 455.402 293.403 454.881 293.195C 454.381 292.987 453.798 293.216 453.59 293.737C 452.756 294.924 451.965 296.133 450.548 296.737L 445.944 299.737L 446.611 299.549L 445.84 299.549C 440.319 300.341 434.798 298.049 431.736 293.403C 431.569 293.153 431.236 293.091 430.986 293.278C 430.756 293.445 430.694 293.778 430.861 294.028L 430.861 294.028z"/>
<path fill="#7f7f7f" stroke="none" d="M 438.965 285.862C 441.902 283.008 445.923 280.549 450.111 280.278C 452.402 281.445 455.215 281.653 457.173 283.424C 456.923 289.403 456.756 295.987 452.361 300.549C 447.194 303.153 441.652 304.737 436.027 305.966C 435.319 306.091 434.861 306.778 435.006 307.487C 435.152 308.174 435.84 308.633 436.527 308.487C 442.652 307.466 448.715 306.216 453.986 302.445C 456.319 300.758 457.84 298.341 458.527 295.487C 459.527 291.299 460.194 287.237 459.694 282.987C 459.631 282.403 459.319 281.778 458.861 281.362C 456.444 279.133 452.986 279.091 450.069 277.945C 445.298 278.32 440.256 281.112 438.048 285.424C 437.923 285.674 438.027 285.987 438.277 286.112C 438.527 286.237 438.84 286.133 438.965 285.862L 438.965 285.862z"/>
<path fill="#7f7f7f" stroke="none" d="M 365.548 307.195C 365.361 306.445 365.486 305.674 365.548 304.924L 365.861 304.57C 365.861 304.008 365.402 303.549 364.84 303.549C 364.277 303.549 363.819 304.008 363.819 304.57L 363.819 304.799C 363.798 304.903 363.798 305.028 363.777 305.133L 363.756 305.466L 364.111 304.674L 363.881 304.883C 363.84 304.924 363.798 304.966 363.756 305.028L 363.381 305.612L 363.84 305.258L 363.548 305.362L 363.798 305.278L 362.694 305.299L 363.652 305.549L 363.798 305.841C 363.194 304.716 363.486 304.028 364.236 303.07L 364.84 302.695L 364.006 303.07L 364.506 303.028C 367.861 303.091 371.215 303.633 373.611 306.174L 373.652 306.07C 373.652 306.112 373.673 306.153 373.694 306.195L 373.902 306.57L 373.756 306.133L 373.798 307.674L 374.069 306.653L 373.631 307.258C 371.673 310.028 369.819 313.091 366.465 314.278C 363.84 315.216 361.048 314.633 358.319 314.716C 357.694 314.549 357.069 314.924 356.902 315.528C 356.736 316.153 357.111 316.778 357.715 316.945C 360.194 318.237 363.152 317.633 365.798 317.341C 370.256 316.862 373.09 312.903 375.465 309.445L 376.277 308.341C 376.465 308.112 376.569 307.799 376.569 307.508L 376.569 306.612C 376.569 306.591 376.548 306.549 376.548 306.528L 376.152 304.945C 376.006 304.674 375.777 304.445 375.506 304.32L 375.256 303.987C 373.548 302.653 371.881 301.028 369.652 300.883C 368.194 300.778 366.777 300.508 365.319 300.508L 363.881 300.549C 363.631 300.57 363.402 300.653 363.215 300.799L 362.569 301.278C 361.173 302.758 360.402 305.091 361.798 306.841L 362.152 307.341C 362.361 307.508 362.631 307.612 362.902 307.612L 363.423 307.591C 363.756 307.508 364.09 307.424 364.423 307.341L 364.694 307.278C 364.944 307.174 365.131 306.987 365.256 306.758L 365.611 306.153L 365.361 306.466L 365.569 306.258C 365.798 306.049 365.923 305.758 365.923 305.466L 365.923 304.924C 365.215 304.924 364.486 304.924 363.777 304.924L 363.819 305.174C 364.652 305.737 363.986 306.778 364.527 307.424C 364.59 307.695 364.881 307.883 365.152 307.82C 365.423 307.758 365.611 307.487 365.548 307.195L 365.548 307.195z"/>
<path fill="#7f7f7f" stroke="none" d="M 307.361 299.112C 309.444 297.57 310.506 294.903 309.548 292.258L 309.465 291.466C 309.402 291.237 309.277 291.028 309.069 290.883L 308.944 290.778C 307.756 289.987 306.256 289.32 304.819 289.924L 303.756 290.028C 303.569 290.07 303.402 290.133 303.256 290.258L 302.756 290.716C 301.152 293.403 302.861 296.633 303.006 299.528C 303.069 301.028 303.861 302.591 305.236 303.403C 309.027 305.674 313.694 306.612 317.819 304.82C 318.548 304.612 318.944 303.862 318.756 303.133C 318.548 302.424 317.798 302.008 317.09 302.216C 313.777 303.799 310.09 302.862 306.861 301.528C 304.631 299.133 305.173 295.653 304.298 292.716L 304.694 291.966L 304.006 292.216L 304.944 292.153C 305.715 291.758 306.59 291.903 307.381 292.195L 307.965 292.487L 307.548 291.716L 307.673 292.487C 308.152 293.112 308.34 293.841 308.215 294.549C 308.131 294.945 308.048 295.32 307.965 295.862C 307.84 296.82 307.048 297.57 306.569 298.445C 306.402 298.674 306.423 298.987 306.652 299.174C 306.861 299.362 307.194 299.32 307.361 299.112L 307.361 299.112z"/>
</g>
<g>
<path fill="none" stroke-width="6" stroke="#000000" d="M 315.34 212.945C 304.703 232.791 308.92 266.521 310.199 286.845"/>
<path fill="none" stroke-width="6" stroke="#000000" d="M 381.426 313.283C 382.456 313.02 383.483 312.722 384.508 312.388C 390.389 309.895 397.649 305.21 403.058 299.191"/>
<path fill="none" stroke-width="6" stroke="#000000" d="M 364.198 315.645C 358.798 369.645 356.998 389.445 349.798 443.445C 349.798 445.245 338.998 547.845 338.998 547.845L 242.84 575.445C 242.84 575.445 266.84 755.645 266.84 775.445L 228.84 787.445"/>
<path fill="none" stroke-width="6" stroke="#000000" d="M 364.198 344.445C 371.347 350.842 378.496 357.238 385.645 363.634"/>
<path fill="none" stroke-width="6" stroke="#000000" d="M 260.213 422.896C 240.45 429.819 225.599 434.445 225.599 434.445C 225.599 434.445 183.34 356.345 178.84 342.445"/>
<path fill="none" stroke-width="6" stroke="#000000" d="M 146.84 307.945C 155.84 307.945 182.34 294.445 182.34 294.445L 193.34 340.445L 151.84 344.945C 151.84 332.345 146.84 320.545 146.84 307.945z"/>
<path fill="none" stroke-width="6" stroke="#000000" d="M 180.599 280.971L 180.599 57.4587L 166.84 31.4451L 153.599 57.4587L 153.599 280.971L 180.599 280.971z"/>
<path fill="none" stroke-width="6" stroke="#000000" d="M 211.199 295.846L 211.199 281.446L 121.199 281.446L 121.199 295.846L 211.199 295.846z"/>
<path fill="none" stroke-width="6" stroke="#000000" d="M 166.199 339.945L 166.199 351.645L 175.199 351.645L 175.199 339.445"/>
<path fill="none" stroke-width="6" stroke="#000000" d="M 178.799 367.845L 178.799 351.645L 160.799 351.645L 160.799 367.845L 178.799 367.845z"/>
<path fill="none" stroke-width="6" stroke="#000000" d="M 185.84 302.945L 194.34 304.445L 190.34 321.445"/>
<path fill="none" stroke-width="6" stroke="#000000" d="M 338.998 547.845L 146.84 559.445L 122.84 745.445L 82.8397 719.445"/>
<path fill="none" stroke-width="6" stroke="#000000" d="M 310.34 212.445L 418.34 219.945C 418.34 219.945 423.84 202.445 428.34 190.445C 432.347 179.759 439.84 168.945 439.84 168.945C 439.84 168.945 415.34 173.945 401.34 172.445C 388.262 171.044 354.34 152.945 354.34 152.945C 354.34 152.945 341.34 161.945 330.84 165.945C 320.34 169.945 298.84 162.945 298.84 162.945C 298.84 162.945 304.34 179.945 306.84 189.945C 309.34 199.945 310.34 212.445 310.34 212.445z"/>
<path fill="none" stroke-width="6" stroke="#000000" d="M 386.84 217.945C 393.84 238.945 387.34 260.445 391.84 282.945C 393.34 291.445 399.34 297.945 406.84 301.945C 420.34 309.945 436.84 307.445 451.84 306.445C 460.84 301.445 463.34 290.445 461.34 280.945C 460.84 279.445 455.34 277.445 451.84 276.445C 448.34 275.445 438.84 279.445 436.34 283.945C 433.84 288.445 433.34 290.445 436.84 293.945C 440.34 297.445 448.34 297.945 449.84 296.445C 451.34 294.945 452.34 290.945 451.84 288.945C 451.34 286.945 446.84 286.445 446.84 286.445"/>
<path fill="none" stroke-width="6" stroke="#000000" d="M 417.84 221.945C 421.34 223.945 423.84 226.945 424.34 230.445C 427.84 248.445 425.84 264.945 429.34 282.945C 429.84 283.945 430.84 286.445 432.84 286.945"/>
<path fill="none" stroke-width="6" stroke="#000000" d="M 310.84 201.945L 420.84 208.945"/>
<path fill="none" stroke-width="4" stroke="#000000" d="M 308.84 191.945L 424.34 199.445"/>
<path fill="none" stroke-width="6" stroke="#000000" d="M 318.84 232.945C 317.34 236.445 317.34 242.445 318.84 246.945C 319.84 248.945 325.34 248.945 326.84 246.945C 329.34 242.945 328.84 237.445 327.34 233.445C 326.84 232.445 320.34 229.445 318.84 232.945z"/>
<path fill="none" stroke-width="6" stroke="#000000" d="M 344.84 241.445C 344.34 246.445 342.84 251.445 345.34 254.945C 346.84 257.445 350.84 258.445 353.84 255.945C 356.84 253.445 355.34 240.445 352.34 238.945C 349.34 237.445 344.84 238.445 344.84 241.445z"/>
<path fill="none" stroke-width="6" stroke="#000000" d="M 326.84 291.445C 325.84 293.945 325.84 299.445 323.34 303.945C 322.854 304.819 318.84 305.945 317.34 306.445C 313.84 306.945 310.34 306.945 306.84 305.945C 299.34 303.445 300.34 294.445 300.84 287.445C 301.34 286.445 310.84 287.945 310.84 288.445C 314.34 292.945 312.84 294.945 309.84 298.945C 309.34 298.945 311.34 300.445 310.84 300.445"/>
<path fill="none" stroke-width="6" stroke="#000000" d="M 326.84 291.445C 326.84 294.445 327.84 303.945 329.84 306.445C 331.84 307.945 335.34 311.445 337.34 312.445C 343.34 314.945 345.34 315.445 351.84 316.945C 356.84 317.945 363.173 319.294 367.84 318.445C 373.34 317.445 376.84 311.945 379.34 306.445C 378.34 297.945 366.34 296.945 360.84 298.945C 359.34 299.445 357.84 306.445 359.84 307.945C 361.34 309.445 365.84 311.445 368.34 309.445C 368.84 308.945 367.84 304.945 367.84 303.945"/>
<path fill="none" stroke-width="6" stroke="#000000" d="M 316.34 278.945C 318.34 279.945 322.84 282.445 324.84 282.945C 335.84 284.445 350.34 287.445 361.84 285.445"/>
<path fill="none" stroke-width="6" stroke="#000000" d="M 336.84 274.945C 342.84 270.945 351.34 271.945 357.34 275.945C 360.34 277.945 363.84 278.445 366.84 276.945C 369.34 275.945 368.84 272.445 367.84 269.945C 366.84 267.445 363.34 268.445 360.84 268.445C 360.84 269.445 360.84 269.945 360.84 270.945"/>
<path fill="none" stroke-width="6" stroke="#000000" d="M 327.84 271.945C 320.34 264.445 303.84 272.945 300.84 271.445C 297.84 269.945 297.34 260.445 299.34 258.945C 301.34 257.445 302.84 260.945 302.84 260.945"/>
<path fill="#000000" stroke="none" d="M 355.617 166.413C 355.617 166.413 349.359 175.061 349.408 178.209C 349.445 180.657 351.063 181.456 352.408 180.571C 353.753 179.686 354.761 179.022 354.761 179.022C 354.761 179.022 355.662 181.416 354.424 183.195C 353.185 184.974 353.185 184.974 353.185 184.974L 357.538 184.999C 357.538 184.999 357.538 184.999 356.432 183.318C 355.326 181.637 356.018 179.23 356.018 179.23C 356.018 179.23 356.744 179.729 358.029 180.473C 359.729 181.458 361.207 181.3 361.017 178.278C 360.87 175.942 355.617 166.413 355.617 166.413z"/>
<path fill="#000000" stroke="none" d="M 430.792 177.885C 430.792 177.885 423.066 182.293 422.018 184.699C 421.204 186.569 422.157 187.733 423.482 187.524C 424.807 187.315 425.801 187.159 425.801 187.159C 425.801 187.159 425.661 189.286 424.108 190.209C 422.556 191.133 422.556 191.133 422.556 191.133L 425.851 192.651C 425.851 192.651 425.851 192.651 425.59 190.995C 425.329 189.338 426.684 187.75 426.684 187.75C 426.684 187.75 427.063 188.378 427.781 189.385C 428.732 190.718 429.909 191.107 430.805 188.748C 431.497 186.925 430.792 177.885 430.792 177.885z"/>
<path fill="#000000" stroke="none" d="M 304.052 169.563C 304.052 169.563 301.478 178.078 302.373 180.544C 303.069 182.462 304.561 182.651 305.379 181.587C 306.197 180.524 306.811 179.727 306.811 179.727C 306.811 179.727 308.173 181.367 307.682 183.105C 307.19 184.843 307.19 184.843 307.19 184.843L 310.626 183.678C 310.626 183.678 310.626 183.678 309.297 182.656C 307.968 181.633 307.858 179.549 307.858 179.549C 307.858 179.549 308.565 179.743 309.78 179.98C 311.387 180.293 312.508 179.766 311.535 177.437C 310.784 175.638 304.052 169.563 304.052 169.563z"/>
<path fill="none" stroke-width="6" stroke="#000000" d="M 327.506 371.445L 349.34 365.445C 340.34 405.945 341.006 406.112 332.173 449.445C 328.528 467.326 323.84 519.945 320.84 537.945C 320.84 537.945 307.673 542.778 306.173 542.778C 308.173 490.778 310.84 435.445 330.84 387.445C 332.84 383.445 330.84 377.445 330.84 373.445C 330.84 372.738 325.34 371.445 322.34 372.945C 304.34 381.945 283.34 386.445 265.34 395.445C 265.34 407.445 262.34 420.945 266.84 431.445C 274.34 446.445 295.34 455.445 313.34 455.445"/>
<path fill="none" stroke-width="6" stroke="#000000" d="M 384.84 424.445C 384.84 465.445 379.84 505.445 380.84 546.445"/>
<path fill="none" stroke-width="6" stroke="#000000" d="M 413.506 424.112C 413.506 408.352 417.84 379.945 417.84 379.945L 387.34 353.945L 384.173 420.112"/>
<path fill="none" stroke-width="6" stroke="#000000" d="M 412.506 433.112C 411.506 445.112 411.84 457.445 409.84 470.445C 405.84 492.445 406.84 518.445 404.84 539.445"/>
<path fill="none" stroke-width="6" stroke="#000000" d="M 419.09 380.945L 434.84 394.445C 434.84 394.445 434.84 415.445 432.84 427.445"/>
<path fill="none" stroke-width="6" stroke="#000000" d="M 422.84 462.445C 422.84 485.445 418.506 513.112 419.506 536.112"/>
<path fill="none" stroke-width="6" stroke="#000000" d="M 436.98 409.566C 446.919 418.459 456.859 427.352 466.798 436.245C 454.198 436.245 441.598 438.045 430.798 434.445C 410.998 429.045 392.998 429.045 373.198 423.645C 372.045 436.328 369.84 461.445 369.84 461.445L 369.84 471.695L 374.34 482.195"/>
<path fill="none" stroke-width="6" stroke="#000000" d="M 373.198 423.645L 362.34 420.945L 353.84 458.695L 355.84 470.945L 360.09 476.695"/>
</g>
<g>
<path fill="#dfbfff" stroke="none" d="M 392.398 443.445C 392.398 443.445 420.598 437.445 443.398 437.445C 466.198 437.445 502.798 439.245 506.398 445.245C 509.998 451.245 514.198 456.045 508.198 458.445C 502.198 460.845 487.798 461.445 475.798 459.645C 463.798 457.845 448.798 454.845 434.398 458.445C 419.998 462.045 409.798 462.645 401.398 463.245C 392.998 463.845 385.198 462.045 385.198 462.045L 384.598 448.245L 392.398 443.445z"/>
<path fill="#bf7fff" stroke="none" d="M 419.998 439.845C 419.998 439.845 404.398 442.845 403.798 449.445C 403.198 456.045 403.198 464.445 403.198 464.445L 385.198 462.045C 385.198 462.045 378.598 452.445 384.598 448.245C 390.598 444.045 398.998 439.845 398.998 439.845L 419.998 439.845z"/>
<path fill="#bf7fff" stroke="none" d="M 459.598 459.045L 470.998 460.245C 470.998 460.245 467.998 475.845 474.598 483.645C 481.198 491.445 488.998 498.645 488.998 498.645L 474.598 498.045L 459.598 478.845L 459.598 459.045z"/>
<path fill="#dfbfff" stroke="none" d="M 470.998 460.245L 479.998 462.045C 479.998 462.045 477.598 472.845 483.598 476.445C 489.598 480.045 494.398 484.845 494.398 484.845L 488.998 498.645C 488.998 498.645 479.998 491.445 474.598 483.645C 469.198 475.845 470.998 460.245 470.998 460.245z"/>
</g>
<g>
<path fill="none" stroke-width="6" stroke="#7f00ff" d="M 441.767 437.933C 461.567 437.933 472.367 439.733 487.667 442.433C 502.967 445.133 509.267 444.233 509.267 453.233C 509.267 462.233 510.167 458.633 496.667 461.333C 483.167 464.033 466.067 455.933 448.967 456.833C 431.867 457.733 410.267 464.933 410.267 464.933L 385.967 463.133C 385.967 463.133 379.667 451.433 388.667 444.233C 397.667 437.033 441.767 437.933 441.767 437.933z"/>
<path fill="none" stroke-width="4" stroke="#7f00ff" d="M 422.867 439.733C 422.867 439.733 408.467 444.233 404.867 449.633C 400.157 456.697 402.167 459.533 403.967 464.033"/>
<path fill="none" stroke-width="6" stroke="#7f00ff" d="M 480.467 461.333C 480.467 461.333 476.16 470.12 484.067 477.533C 488.867 482.032 494.867 482.932 494.867 482.932L 490.367 500.932L 475.067 497.332C 475.067 497.332 462.167 484.732 459.767 476.333C 457.528 468.496 457.667 457.733 457.667 457.733L 468.467 459.533C 468.467 459.533 469.067 476.633 473.867 483.832C 478.103 490.187 490.367 500.932 490.367 500.932"/>
</g>
<g>
<path fill="#ffffff" stroke="none" d="M 176.777 191.32L 353.553 16.5428L 178.777 193.32L 353.554 370.096L 176.777 195.32L 0.000900269 370.097L 174.777 193.32L 0 16.5438L 176.777 191.32z"/>
</g>
</svg>