<svg xmlns="http://www.w3.org/2000/svg"
	xmlns:xlink="http://www.w3.org/1999/xlink"
	viewBox="0 15.7 577 792"
	width="600.113" height="823.322">
<g id="scene">
    <set attributeName="opacity" to="1" 
		    fill="freeze" begin="btn1.click"/>
    <set attributeName="opacity" to="0" 
		    fill="freeze" begin="btn2.click"/>
    <set attributeName="opacity" to="0" 
		    fill="freeze" begin="scene.load"/>
<g>
<path fill="#7f7fbf" stroke="none" d="M 577 807.661L 577 15.6608L 0 15.6608L 0 807.661L 577 807.661z"/>
</g>
<g>
<path fill="#bfbfff" stroke="none" d="M 143 531.661C 143 531.661 177 509.661 205 515.661C 233 521.661 293 521.661 313 521.661C 333 521.661 357 525.911 357 525.911L 345 537.661L 267 537.661L 187 559.661L 163 555.661L 143 531.661z"/>
<path fill="#7f7fff" stroke="none" d="M 249 593.661L 329.5 607.161L 423 629.661L 565 653.661L 511 711.661L 347 699.661L 181 679.661L 217 667.661L 229 623.661L 249 593.661z"/>
<path fill="#0000ff" stroke="none" d="M 359 77.6614L 241 349.661L 55 339.661L 53 79.6614L 359 77.6614z"/>
<path fill="#7f7fbf" stroke="none" d="M 55 73.6614"/>
<path fill="#ffff7f" stroke="none" d="M 162 141.661L 121 142.661C 121 142.661 105 151.661 99 175.661C 93 199.661 95 218.661 109 234.661C 123 250.661 151 257.661 169 259.661C 187 261.661 206 250.661 209 245.661C 212 240.661 204 244.661 192 241.661C 180 238.661 161 217.661 156 203.661C 151 189.661 149 161.661 153 154.661C 157 147.661 162 141.661 162 141.661z"/>
<path fill="#7f7fff" stroke="none" d="M 179.375 330.911C 168.5 327.161 157.125 321.786 145.125 326.911C 142.375 328.036 139.25 325.661 136.375 325.286C 124.875 323.911 112.75 327.161 103 320.536C 101.25 319.411 102.875 314.411 103.75 310.911L 104.5 310.161L 102.5 312.036L 107.25 309.536C 112.125 304.786 119.125 307.536 124.125 309.786L 127.125 310.411C 128 310.536 129 310.411 129.875 310.161L 133 308.911C 141.625 304.411 149.75 302.036 159.625 302.036C 169.625 302.036 177.25 292.411 187.625 290.536C 196.25 288.911 202.125 294.661 209.5 299.036C 222.875 306.911 236.75 302.036 250.75 299.286C 253.125 299.786 255.5 298.286 256 295.911C 256.625 293.536 255.125 291.161 252.625 290.536C 251.125 289.536 249.625 287.786 248.375 288.036C 231.125 291.161 216.625 291.786 200.875 281.911C 187.125 273.286 173.25 284.661 160 291.411C 156.5 293.161 151.5 291.036 147.125 291.286C 141.75 291.411 137.125 294.536 132.875 297.786L 126.125 300.161L 128.875 299.911L 123.25 298.036C 118.25 296.036 113.125 296.161 108 297.536L 98 302.661C 97.125 303.036 96.375 303.661 95.875 304.411L 92.875 311.036C 90.625 317.911 92.5 326.036 100.125 330.661C 110.5 336.911 123 333.536 134.75 333.411C 137.875 333.411 141.25 335.661 144.375 334.786C 153.75 331.911 162.125 330.786 171.75 333.036C 174.375 333.536 176.875 333.286 179.375 332.411C 179.875 332.411 180.25 332.161 180.25 331.661C 180.25 331.161 179.875 330.911 179.375 330.911L 179.375 330.911z"/>
<path fill="#7f7fff" stroke="none" d="M 144.875 109.161C 167.125 112.161 189.375 112.661 211.875 111.036C 240.625 109.036 269.125 112.411 297.75 113.161C 303.375 113.286 309 110.786 314.625 109.536L 315.75 109.661C 317 109.661 318.25 109.161 319.25 108.411L 321 107.036C 327.375 103.661 330.375 97.0364 334.5 91.5364C 336.375 90.6614 337.25 88.4114 336.375 86.5364C 335.5 84.6614 333.375 83.9114 331.5 84.6614C 323.875 83.5364 320.125 90.2864 316.375 95.5364L 311.875 98.9114L 315.5 97.6614L 309 98.1614C 306 99.4114 302.875 101.411 300 101.161C 247.625 96.7864 196.875 106.661 145.125 107.786C 144.75 107.786 144.375 108.036 144.375 108.411C 144.25 108.786 144.5 109.161 144.875 109.161L 144.875 109.161z"/>
<path fill="#bfbfff" stroke="none" d="M 60.125 566.411C 66.25 564.911 72.75 564.286 78.75 566.536L 80.875 566.911C 83.5 566.911 85.625 564.911 86 562.286L 84.875 564.161C 89.25 557.036 88 548.411 90.875 540.911C 93 535.411 97.75 531.161 100 525.411L 100.5 522.786L 89.375 521.786L 90.125 526.786C 94.25 536.036 99.125 546.161 109 550.786L 112.875 551.661L 110.75 550.786L 112.75 552.161C 113.375 552.536 114 552.786 114.625 553.036L 116.875 553.536C 118.5 554.036 120.125 553.786 121.625 552.911L 124.875 550.286C 124.25 550.536 123.75 550.786 123.125 551.036C 127.625 547.036 129.25 541.536 130.875 536.161L 128.25 539.536L 126 540.036L 128.375 539.911L 124.125 538.411L 125.25 539.286C 134.75 560.411 158.875 564.036 177.25 573.911L 180.75 574.536C 182.625 574.536 184.375 573.911 185.625 572.536L 188.25 570.161C 193.625 565.286 197.875 558.911 197.75 551.286L 197.875 546.536L 192.5 553.161L 195.375 552.411L 193.75 552.661L 196.125 552.661L 192.375 551.536L 194.5 552.911C 198.375 555.536 202.875 557.286 207.125 556.161C 222.75 552.161 236.25 544.786 252.125 541.036C 260.125 539.161 268.25 542.411 276.25 539.411C 279.375 539.411 282 536.786 282 533.661C 282 530.536 279.375 527.911 276.25 527.911C 252.875 522.911 229.25 531.786 208.5 542.411C 207.375 543.036 205.625 542.536 204.125 542.411L 199.75 539.786C 198.75 539.036 197.375 538.661 196.125 538.661L 193.75 538.661C 193.25 538.661 192.625 538.786 192.125 538.911L 189.375 539.536C 186.375 540.286 184.125 542.911 184 546.036L 183.875 550.286L 183.875 550.161C 183.875 551.786 183.75 553.411 183.75 555.036L 176.125 562.786L 181 560.786L 179.5 560.286C 164.625 551.661 144.375 550.536 136.5 533.286L 132.125 528.911C 131 527.911 129.375 527.411 127.875 527.411L 125.5 527.536C 124.75 527.536 124 527.661 123.25 528.036L 117.75 535.786C 117.625 536.036 117.5 536.161 117.375 536.411L 115.25 542.036L 120 541.411L 117.75 540.911L 119.5 541.661L 117.5 540.411C 116.625 539.786 115.5 539.411 114.375 539.411L 112.25 538.911C 107 535.786 103.875 530.411 101.75 524.786L 100.625 521.786C 100.625 519.036 98.625 516.661 95.875 516.286C 92.875 515.661 90 517.786 89.375 520.786L 88.5 524.286C 82.125 532.911 78 543.161 77.625 554.036L 75.625 561.036L 80.875 556.411L 76.75 556.411C 71 559.036 65.5 562.286 59.5 564.161C 58.875 564.286 58.5 564.911 58.75 565.536C 58.875 566.161 59.5 566.536 60.125 566.411L 60.125 566.411z"/>
<path fill="#bfbfff" stroke="none" d="M 357 525.911C 356.75 521.536 357.125 516.911 359.25 513.286C 363.625 506.036 368.625 499.161 371.25 491.161L 372 488.911C 372.375 487.911 372.375 486.786 372.125 485.661L 371.5 483.161C 369.875 478.286 373.375 475.036 375.875 472.161C 382.125 465.036 387.125 458.161 393.25 451.036C 416.375 424.161 455.375 428.911 482.875 446.036L 486.875 447.036L 482.5 444.536L 486.625 448.661C 487.625 449.411 488.75 450.286 489.75 451.036C 492 453.661 496 453.911 498.625 451.661C 501.125 449.411 501.5 445.536 499.25 442.911C 498.625 441.286 498.125 439.661 497.5 438.036L 493.875 434.786C 492.75 433.411 491.125 432.536 489.375 432.286L 484.625 430.661C 453.375 410.161 409.5 412.286 383.75 440.536C 376.75 448.161 371.625 456.411 365 464.911C 360.625 470.536 360.125 477.536 359.75 484.411L 360.875 488.286L 361 485.161L 359 490.411C 359.125 489.911 359.375 489.536 359.5 489.036C 355 500.786 346.625 514.161 355.375 526.286C 355.5 526.661 356 526.911 356.375 526.786C 356.875 526.786 357.125 526.286 357 525.911L 357 525.911z"/>
<path fill="#bfbfff" stroke="none" d="M 451.75 666.536C 456.625 669.286 461.75 667.411 465.25 665.161C 488.75 649.911 511.125 638.411 537.875 631.661C 545.5 629.786 553.875 629.161 559 620.786C 561.375 619.661 562.5 616.911 561.375 614.411C 560.25 612.036 557.5 610.911 555 612.036C 541.125 613.411 529.625 621.286 515.75 624.661C 500 628.786 486.125 635.786 473.25 646.286C 465.75 652.411 460.875 661.036 451.75 664.786C 451.25 664.786 450.875 665.161 450.875 665.661C 450.875 666.161 451.25 666.536 451.75 666.536L 451.75 666.536z"/>
<path fill="#bfbfff" stroke="none" d="M 245.125 605.661C 252.5 607.911 257.625 614.411 264.625 616.411C 286 623.036 307.875 616.411 329.75 617.661C 335.25 618.036 340.25 621.911 345.75 622.286C 386 624.661 423.625 637.286 463.875 642.036C 465.125 642.161 466.5 641.161 467.75 640.536C 470.875 640.036 473.125 637.161 472.625 634.036C 472.25 630.911 469.25 628.786 466.25 629.161L 465.875 629.536C 439.25 626.536 414.25 619.536 387.25 615.161C 367.375 611.911 349.125 610.036 329.5 607.161C 309.75 604.286 290.5 610.036 270.625 608.411C 265.5 608.036 261.375 603.911 256.25 603.161C 252.5 602.661 248.125 598.661 244.875 604.036C 244.5 604.036 244.125 604.536 244.125 604.911C 244.25 605.411 244.625 605.661 245.125 605.661L 245.125 605.661z"/>
</g>
<g>
<path fill="none" stroke-width="4" stroke="#3f3f9f" d="M 153 141.661C 139 141.661 125 137.661 115 147.661C 97 165.661 93 193.661 101 217.661C 105 231.661 117 247.661 133 251.661C 159 257.661 193 269.661 211 241.661C 185 245.661 161 227.661 157 203.661C 153 183.661 145 155.661 163 141.661C 159 141.661 157 141.661 153 141.661z"/>
<path fill="none" stroke-width="6" stroke="#3f3f9f" d="M 493 441.661C 477 413.661 437 409.661 411 417.661C 367 435.661 347 487.661 357 535.661C 359 545.661 365 553.661 373 559.661C 397 585.661 435 577.661 469 577.661C 507 545.661 515 497.661 509 451.661C 507 447.661 503 447.661 499 445.661"/>
<path fill="none" stroke-width="6" stroke="#3f3f9f" d="M 381 467.661C 393 465.661 407 461.661 415 467.661C 441 487.661 471 477.661 499 481.661C 499 481.661 499 485.661 499 487.661"/>
<path fill="none" stroke-width="6" stroke="#3f3f9f" d="M 377 485.661C 389 483.661 403 479.661 413 485.661C 437 497.661 467 491.661 493 493.661C 493 497.661 497 495.661 497 499.661"/>
<path fill="none" stroke-width="6" stroke="#3f3f9f" d="M 415 497.661C 415 503.661 415 507.661 415 513.661C 415 515.661 417 515.661 419 515.661"/>
<path fill="none" stroke-width="6" stroke="#3f3f9f" d="M 465 509.661C 465 513.661 465 519.661 465 523.661"/>
<path fill="none" stroke-width="6" stroke="#3f3f9f" d="M 457 563.661C 455 559.661 455 553.661 453 553.661C 435 549.661 415 551.661 397 551.661"/>
<path fill="none" stroke-width="6" stroke="#3f3f9f" d="M 357 535.661C 325 545.661 297 535.661 269 543.661C 253 547.661 237 549.661 221 557.661C 213 559.661 207 567.661 199 573.661C 193 577.661 187 577.661 181 579.661C 177 583.661 173 589.661 171 595.661"/>
<path fill="none" stroke-width="6" stroke="#3f3f9f" d="M 319 541.661C 319 575.661 327 609.661 333 643.661C 351 653.661 357 675.661 373 683.661C 379 687.661 381 697.661 391 695.661"/>
<path fill="none" stroke-width="6" stroke="#3f3f9f" d="M 345 543.661C 343 553.661 349 561.661 353 569.661C 371 595.661 381 621.661 401 647.661C 407 653.661 413 659.661 419 667.661C 423 673.661 427 679.661 429 685.661"/>
<path fill="none" stroke-width="6" stroke="#3f3f9f" d="M 261 553.661C 251 561.661 253 575.661 249 585.661C 245 595.661 239 603.661 235 613.661C 231 619.661 231 629.661 227 635.661C 221 647.661 227 669.661 213 673.661C 175 681.661 139 683.661 101 673.661C 83 669.661 61 673.661 41 671.661C 41 633.661 41 597.661 41 559.661C 53 557.661 69 565.661 75 555.661C 81 543.661 83 525.661 93 513.661C 93 511.661 97 507.661 95 503.661C 109 509.661 103 533.661 119 533.661C 123 533.661 121 523.661 125 519.661C 127 519.661 129 519.661 131 519.661C 143 533.661 151 549.661 165 559.661C 171 565.661 185 561.661 195 561.661"/>
<path fill="none" stroke-width="6" stroke="#3f3f9f" d="M 145 535.661C 143 527.661 151 527.661 155 525.661C 215 509.661 277 529.661 337 525.661"/>
<path fill="none" stroke-width="6" stroke="#3f3f9f" d="M 253 597.661C 267 617.661 291 633.661 299 657.661C 277 657.661 257 657.661 235 657.661"/>
<path fill="none" stroke-width="6" stroke="#3f3f9f" d="M 445 667.661C 443 663.661 447 659.661 449 657.661C 487 635.661 527 617.661 567 603.661C 575 635.661 553 659.661 527 671.661C 519 675.661 509 675.661 501 675.661C 483 679.661 467 677.661 449 677.661"/>
<path fill="none" stroke-width="6" stroke="#3f3f9f" d="M 479 667.661C 493 667.661 505 669.661 519 667.661C 527 665.661 531 655.661 539 651.661"/>
<path fill="none" stroke-width="6" stroke="#3f3f9f" d="M 185 681.661C 209 683.661 233 681.661 259 685.661C 345 699.661 427 711.661 513 715.661C 523 689.661 547 673.661 565 653.661C 563 653.661 563 653.661 561 653.661"/>
<path fill="none" stroke-width="6" stroke="#3f3f9f" d="M 469 631.661C 441 633.661 411 631.661 385 617.661"/>
<path fill="none" stroke-width="6" stroke="#3f3f9f" d="M 361 611.661C 349 609.661 337 615.661 329 607.661"/>
<path fill="none" stroke-width="6" stroke="#3f3f9f" d="M 313 601.661C 295 601.661 277 601.661 259 595.661C 259 595.661 259 593.661 259 591.661"/>
<path fill="none" stroke-width="6" stroke="#3f3f9f" d="M 101 673.661C 121 691.661 143 705.661 169 715.661C 169 705.661 167 693.661 175 683.661"/>
<path fill="none" stroke-width="6" stroke="#3f3f9f" d="M 491 715.661C 487 741.661 499 765.661 497 789.661"/>
<path fill="none" stroke-width="6" stroke="#3f3f9f" d="M 553 667.661C 555 689.661 557 709.661 559 731.661"/>
<path fill="none" stroke-width="6" stroke="#3f3f9f" d="M 69 675.661C 69 693.661 69 713.661 69 731.661"/>
<path fill="none" stroke-width="6" stroke="#3f3f9f" d="M 169 691.661C 165 699.661 175 707.661 169 715.661C 169 719.661 175 723.661 177 729.661"/>
<path fill="none" stroke-width="6" stroke="#3f3f9f" d="M 55 113.661C 55 189.767 53 265.661 53 341.661C 117 351.661 183 351.661 247 351.661C 287 259.661 321 165.661 361 75.6614C 259 75.6614 157 75.6614 55 77.6614C 53 89.6614 55 101.661 55 113.661z"/>
<path fill="none" stroke-width="6" stroke="#3f3f9f" d="M 199 81.6614C 195 87.6614 193 93.6614 193 99.6614C 189 121.661 185 141.661 181 163.661C 181 171.661 177 179.661 177 187.661C 171 241.661 153 291.661 149 345.661C 145 345.661 145 349.661 143 351.661"/>
<path fill="none" stroke-width="6" stroke="#3f3f9f" d="M 49 207.661C 129 217.661 209 225.661 289 229.661"/>
</g>
</g>
<g>
    <animateTransform attributeName="transform" type="scale"
            additive="replace" fill="freeze" 
            values="1.0; 0.2" begin="btn1.click" dur="1"/>
    <animateTransform attributeName="transform" type="scale"
            additive="replace" fill="freeze" 
            values="0.2; 1.0" begin="btn2.click" dur="1"/>
<g>
<g>
<path fill="#9f3f3f" stroke-width="6" stroke="#3f3f3f" d="M 341.785 85.9485L 382.518 48.2905L 366.944 31.4451L 326.211 69.1031"/>
<path fill="#ffffff" stroke-width="6" stroke="#3f3f3f" d="M 311.589 82.6214L 81.8161 295.052L 61.0919 329.209L 97.39 311.897L 326.902 99.7082"/>
<path fill="#ff7f7f" stroke-width="6" stroke="#3f3f3f" d="M 293.521 62.7787L 345.655 119.168L 359.978 105.926L 307.845 49.5365L 293.521 62.7787z"/>
</g>
<g>
<path fill="#9f3f3f" stroke-width="6" stroke="#3f3f3f" d="M 232.663 85.9485L 191.931 48.2905L 207.505 31.4451L 248.237 69.1031"/>
<path fill="#ffffff" stroke-width="6" stroke="#3f3f3f" d="M 262.859 82.6214L 492.632 295.052L 513.357 329.209L 477.059 311.897L 247.546 99.7082"/>
<path fill="#ff7f7f" stroke-width="6" stroke="#3f3f3f" d="M 280.927 62.7787L 228.794 119.168L 214.471 105.926L 266.604 49.5365L 280.927 62.7787z"/>
</g>
</g>
<g>
<g>
<path fill="#9f3f3f" stroke-width="6" stroke="#3f3f3f" d="M 341.785 737.373L 382.518 775.031L 366.944 791.876L 326.211 754.218"/>
<path fill="#ffffff" stroke-width="6" stroke="#3f3f3f" d="M 311.589 740.7L 81.8161 528.27L 61.0919 494.113L 97.39 511.424L 326.902 723.613"/>
<path fill="#ff7f7f" stroke-width="6" stroke="#3f3f3f" d="M 293.521 760.543L 345.655 704.153L 359.978 717.396L 307.845 773.785L 293.521 760.543z"/>
</g>
<g>
<path fill="#9f3f3f" stroke-width="6" stroke="#3f3f3f" d="M 232.663 737.373L 191.931 775.031L 207.505 791.876L 248.237 754.218"/>
<path fill="#ffffff" stroke-width="6" stroke="#3f3f3f" d="M 262.859 740.7L 492.632 528.27L 513.357 494.113L 477.059 511.424L 247.546 723.613"/>
<path fill="#ff7f7f" stroke-width="6" stroke="#3f3f3f" d="M 280.927 760.543L 228.794 704.153L 214.471 717.396L 266.604 773.785L 280.927 760.543z"/>
</g>
</g>
<g>
<g>
<path fill="#9f3f3f" stroke-width="6" stroke="#3f3f3f" d="M 83.5069 200.917L 42.7743 163.259L 58.3482 146.414L 99.0808 184.072"/>
<path fill="#ffffff" stroke-width="6" stroke="#3f3f3f" d="M 113.703 197.59L 343.476 410.021L 364.2 444.177L 327.902 426.866L 98.3899 214.677"/>
<path fill="#ff7f7f" stroke-width="6" stroke="#3f3f3f" d="M 131.771 177.747L 79.6377 234.137L 65.3143 220.895L 117.447 164.505L 131.771 177.747z"/>
</g>
<g>
<path fill="#9f3f3f" stroke-width="6" stroke="#3f3f3f" d="M 490.942 200.917L 531.674 163.259L 516.1 146.414L 475.368 184.072"/>
<path fill="#ffffff" stroke-width="6" stroke="#3f3f3f" d="M 460.746 197.59L 230.972 410.021L 210.248 444.177L 246.546 426.866L 476.059 214.677"/>
<path fill="#ff7f7f" stroke-width="6" stroke="#3f3f3f" d="M 442.677 177.747L 494.811 234.137L 509.134 220.895L 457.001 164.505L 442.677 177.747z"/>
</g>
</g>
<g>
<g>
<path fill="#9f3f3f" stroke-width="6" stroke="#3f3f3f" d="M 490.942 622.404L 531.674 660.062L 516.1 676.908L 475.368 639.25"/>
<path fill="#ffffff" stroke-width="6" stroke="#3f3f3f" d="M 460.746 625.731L 230.972 413.301L 210.248 379.144L 246.546 396.456L 476.059 608.645"/>
<path fill="#ff7f7f" stroke-width="6" stroke="#3f3f3f" d="M 442.677 645.574L 494.811 589.185L 509.134 602.427L 457.001 658.816L 442.677 645.574z"/>
</g>
<g>
<path fill="#9f3f3f" stroke-width="6" stroke="#3f3f3f" d="M 83.5069 622.404L 42.7743 660.062L 58.3482 676.908L 99.0808 639.25"/>
<path fill="#ffffff" stroke-width="6" stroke="#3f3f3f" d="M 113.703 625.731L 343.476 413.301L 364.2 379.144L 327.902 396.456L 98.3899 608.645"/>
<path fill="#ff7f7f" stroke-width="6" stroke="#3f3f3f" d="M 131.771 645.574L 79.6377 589.185L 65.3143 602.427L 117.447 658.816L 131.771 645.574z"/>
</g>
</g>
<g>
<path fill="#9f3f3f" stroke-width="6" stroke="#3f3f3f" d="M 298.563 250.016L 298.341 194.543L 275.399 194.635L 275.622 250.108"/>
<path fill="#ffffff" stroke-width="6" stroke="#3f3f3f" d="M 275.702 270.021L 276.959 582.947L 288.125 621.307L 299.901 582.855L 298.645 270.285"/>
<path fill="#ff7f7f" stroke-width="6" stroke="#3f3f3f" d="M 248.865 269.926L 325.661 269.617L 325.583 250.11L 248.787 250.419L 248.865 269.926z"/>
</g>
</g>
</svg>