<svg xmlns="http://www.w3.org/2000/svg"
	xmlns:xlink="http://www.w3.org/1999/xlink"
	viewBox="18.0 19.0 577 792"
	width="611.927" height="829.927">
<g>
<path fill="#FFFFFF" stroke="none" d="M 594.963 811.963L 594.963 18.9634L 17.9634 18.9634L 17.9634 811.963L 594.963 811.963z"/>
</g>
<g>
<path fill="#FFFFFF" stroke="none" d="M 590.963 618.963C 590.963 618.963 570.963 592.963 550.963 572.963C 530.963 552.963 498.963 510.963 454.963 466.963C 410.963 422.963 416.963 382.963 422.963 326.963C 428.963 270.963 420.963 240.963 368.963 180.963C 316.963 120.963 244.963 20.9634 244.963 20.9634L 588.963 22.9634L 590.963 618.963z"/>
<path fill="#FFFFFF" stroke-width="4" stroke="#F4439F" d="M 22.9634 694.963C 22.9634 694.963 68.9634 679.463 100.963 606.963C 132.963 534.463 204.963 440.963 196.963 388.963C 188.963 336.963 230.963 302.963 186.963 242.963C 142.963 182.963 120.963 146.963 88.9634 118.963C 56.9634 90.9634 20.9634 54.9634 20.9634 54.9634"/>
<path fill="none" stroke-width="4" stroke="#F4439F" d="M 244.963 20.9634C 244.963 20.9634 316.963 120.963 368.963 180.963C 420.963 240.963 428.963 270.963 422.963 326.963C 416.963 382.963 410.963 422.963 454.963 466.963C 498.963 510.963 530.963 552.963 550.963 572.963C 570.963 592.963 590.963 618.963 590.963 618.963"/>
<path fill="#FFFFFF" stroke-width="4" stroke="#F4439F" d="M 194.963 808.963C 194.963 808.963 254.963 794.963 280.963 726.963C 306.963 658.963 326.963 608.963 326.963 608.963C 326.963 608.963 316.963 554.963 356.963 626.963C 396.963 698.963 420.963 708.963 416.963 730.963C 412.963 752.963 414.963 794.963 396.963 806.963"/>
</g>
<g>
<path fill="#FFFFFF" stroke="none" d="M 365.463 261.463L 343.463 324.463L 351.463 325.963L 351.963 333.963L 369.463 311.963L 405.963 272.963C 405.963 272.963 386.963 277.963 380.463 273.463C 373.963 268.963 365.463 261.463 365.463 261.463z"/>
<path opacity="0.5" fill="#FFFFC0" stroke="none" d="M 248.963 137.63C 248.963 137.63 241.63 154.297 244.963 169.63C 248.297 184.963 266.297 203.63 283.63 206.297C 300.963 208.963 322.963 207.63 332.297 194.963C 341.63 182.297 348.297 165.63 344.963 152.963C 341.63 140.297 340.297 135.63 340.297 135.63L 248.963 137.63z"/>
<path fill="#13017C" stroke="none" d="M 242.963 70.9634C 242.963 70.9634 274.635 55.725 287.963 54.9634C 305.463 53.9634 336.463 63.4634 336.463 63.4634L 338.219 135.136C 338.219 135.136 306.963 137.63 290.963 138.297C 274.963 138.963 248.13 137.963 248.13 137.963L 242.963 70.9634z"/>
<path fill="#8169B0" stroke="none" d="M 261.63 136.963L 258.297 77.6301L 275.63 77.6301L 279.63 137.63L 261.63 136.963z"/>
</g>
<g>
<path fill="none" stroke-width="6" stroke-linecap="round" stroke="#000000" stroke-linejoin="round" d="M 292.297 212.297C 292.297 252.297 287.963 309.963 272.963 350.963C 262.963 372.963 218.963 420.963 218.963 420.963"/>
<path fill="none" stroke-width="6" stroke-linecap="round" stroke="#000000" stroke-linejoin="round" d="M 281.963 325.963C 313.963 345.963 360.963 416.963 360.963 416.963"/>
<path fill="none" stroke-width="6" stroke-linecap="round" stroke="#000000" stroke-linejoin="round" d="M 288.963 232.963C 280.963 232.963 276.963 230.963 268.963 234.963C 250.963 242.963 224.963 256.963 224.963 280.963"/>
<path fill="none" stroke-width="6" stroke-linecap="round" stroke="#000000" stroke-linejoin="round" d="M 290.963 245.963C 310.963 259.963 340.963 274.963 352.963 296.963"/>
<path fill="none" stroke-width="6" stroke-linecap="round" stroke="#000000" stroke-linejoin="round" d="M 226.924 135.136C 233.818 136.17 240.712 136.86 247.607 137.895C 255.486 139.274 264.35 138.24 272.23 138.584C 287.004 139.274 301.777 139.619 315.566 138.24C 323.445 137.205 331.325 136.515 338.219 135.136C 345.114 133.757 352.539 130.688 357.463 128.963"/>
<path fill="none" stroke-width="6" stroke-linecap="round" stroke="#000000" stroke-linejoin="round" d="M 248.463 135.963C 248.463 125.974 247.713 114.952 246.963 104.463C 246.213 93.9517 243.463 82.4634 241.963 72.4634C 251.963 61.4634 265.963 55.9634 287.963 54.9634C 309.963 53.9634 326.963 55.9634 337.963 63.9634C 337.963 74.4634 335.118 87.2401 335.963 100.463C 337.056 117.555 339.963 132.963 339.963 132.963"/>
<path fill="none" stroke-width="6" stroke-linecap="round" stroke="#000000" stroke-linejoin="round" d="M 246.277 143.407C 243.3 153.26 243.196 162.894 245.963 173.963C 249.963 189.963 254.297 197.63 264.297 201.63C 275.532 206.623 300.963 212.297 320.963 204.963C 326.64 202.882 334.74 195.41 338.963 186.963C 345.75 171.693 348.219 152.824 342.095 138.905"/>
<path fill="none" stroke-width="6" stroke-linecap="round" stroke="#000000" stroke-linejoin="round" d="M 263.963 152.963C 263.463 150.963 265.463 149.463 267.463 148.963C 272.963 145.963 278.963 146.963 284.463 147.963C 285.463 148.463 288.463 148.963 288.463 150.963"/>
<path fill="none" stroke-width="6" stroke-linecap="round" stroke="#000000" stroke-linejoin="round" d="M 277.463 160.963C 277.463 164.463 278.463 167.463 279.463 170.463"/>
<path fill="none" stroke-width="6" stroke-linecap="round" stroke="#000000" stroke-linejoin="round" d="M 317.963 159.963C 317.963 163.463 317.963 167.463 317.963 170.963"/>
<path fill="none" stroke-width="6" stroke-linecap="round" stroke="#000000" stroke-linejoin="round" d="M 307.963 160.963C 315.963 161.963 320.963 153.463 327.963 150.963"/>
<path fill="none" stroke-width="6" stroke-linecap="round" stroke="#000000" stroke-linejoin="round" d="M 288.963 188.963C 298.963 190.463 309.463 190.963 318.463 185.963"/>
<path fill="none" stroke-width="6" stroke-linecap="round" stroke="#000000" stroke-linejoin="round" d="M 344.463 326.463C 343.615 325.332 343.463 323.463 343.963 321.963C 345.963 318.463 347.463 315.463 348.463 311.963C 354.963 292.963 359.963 273.963 367.463 255.463C 366.963 257.963 367.963 260.463 368.963 262.463C 370.463 265.963 372.963 269.463 375.963 270.963C 377.963 271.963 378.963 273.963 380.463 273.963C 388.463 275.963 395.963 275.463 403.463 274.463C 404.963 274.463 405.463 271.463 406.963 270.463C 399.963 286.463 387.463 298.963 372.463 309.463C 367.963 312.963 364.463 316.963 361.963 321.463C 358.963 326.463 354.463 329.963 351.463 334.963C 351.463 331.963 352.463 328.963 350.963 326.963C 349.963 324.963 345.963 328.463 344.463 326.463z"/>
<path fill="#FFFFFF" stroke-width="4" stroke-linecap="round" stroke="#FF0000" stroke-linejoin="round" d="M 378.463 253.963C 376.963 254.463 374.463 255.963 373.963 254.463C 372.963 252.463 372.463 249.463 373.963 248.463C 376.963 246.463 380.463 244.963 383.463 246.963C 383.963 247.463 384.463 248.463 384.963 248.963C 384.963 252.463 386.463 257.963 383.463 259.463C 379.963 261.963 373.963 261.963 370.463 259.963C 365.463 256.963 366.463 249.963 367.963 244.963C 368.963 241.963 373.463 242.963 376.463 242.963"/>
<path fill="#FFFFFF" stroke-width="4" stroke-linecap="round" stroke="#FF0000" stroke-linejoin="round" d="M 393.963 258.963C 392.963 255.463 397.963 254.463 399.463 255.963C 400.963 256.963 400.963 259.963 399.963 261.963C 398.463 264.963 393.963 265.463 390.963 263.963C 387.463 262.463 389.463 257.463 388.963 253.963C 393.963 252.463 398.963 250.463 403.963 250.963C 404.963 256.463 407.963 264.963 401.463 267.963C 396.963 269.963 391.963 269.963 387.463 268.963C 386.463 268.963 385.463 266.963 384.963 265.463"/>
<path fill="#FFFFFF" stroke-width="4" stroke-linecap="round" stroke="#FF0000" stroke-linejoin="round" d="M 397.963 239.463C 396.463 240.963 394.463 241.963 391.963 241.463C 392.463 239.963 390.963 237.963 392.463 236.963C 395.463 235.963 399.463 234.463 401.463 236.963C 402.963 237.963 402.963 241.463 401.463 242.963C 400.463 244.963 397.463 247.463 394.963 246.963C 391.963 245.963 388.963 246.463 386.963 244.463C 385.963 243.963 386.963 235.963 387.963 234.463C 393.463 230.463 400.963 228.963 406.463 231.463C 408.463 232.463 407.463 236.463 407.463 239.463"/>
</g>
<g>
<path fill="#E17803" stroke="none" d="M 314.63 572.63C 314.63 572.63 318.63 576.963 315.963 582.297C 313.297 587.63 308.963 597.63 308.963 597.63C 308.963 597.63 315.963 595.963 318.63 589.963C 321.297 583.963 323.63 576.63 323.63 576.63C 323.63 576.63 326.297 574.297 325.963 581.963C 325.63 589.63 325.63 596.63 325.63 596.63L 332.963 579.63L 334.297 592.63L 335.63 598.63L 339.63 591.63L 338.297 586.297L 340.297 581.963L 343.63 601.297L 348.963 582.963L 361.401 600.318L 362.068 583.318L 368.297 586.963L 368.63 599.63L 373.297 592.963L 375.63 582.63L 376.63 595.297L 382.963 592.297L 387.297 579.63L 388.63 593.297L 391.963 583.963L 397.297 590.963L 400.297 583.63L 404.297 589.297L 407.63 563.963C 407.63 563.963 397.63 572.297 392.297 574.63C 386.963 576.963 381.963 578.63 374.963 580.297C 367.963 581.963 341.963 581.297 335.63 579.297C 329.297 577.297 314.63 572.63 314.63 572.63z"/>
<path fill="#41B194" stroke="none" d="M 425.963 474.963C 425.963 474.963 411.963 476.963 410.963 465.963C 409.963 454.963 408.963 453.963 415.963 450.963C 422.963 447.963 434.963 444.963 434.963 444.963L 436.963 385.963C 436.963 385.963 444.963 370.963 461.963 368.963C 478.963 366.963 496.963 370.963 496.963 370.963L 526.963 434.963C 526.963 434.963 545.963 433.963 551.963 435.963C 557.963 437.963 565.963 440.963 563.963 449.963C 561.963 458.963 542.963 464.963 542.963 464.963L 425.963 474.963z"/>
<path fill="#01947F" stroke="none" d="M 447.963 476.963C 447.963 476.963 437.963 481.963 425.963 474.963C 413.963 467.963 406.963 467.963 410.963 457.963C 414.963 447.963 416.963 449.963 429.963 445.963C 442.963 441.963 512.963 435.963 526.963 434.963C 540.963 433.963 547.963 427.963 555.963 438.963C 563.963 449.963 571.963 455.963 561.963 458.963C 551.963 461.963 528.963 466.963 528.963 466.963L 447.963 476.963z"/>
<path fill="#80620D" stroke="none" d="M 541.963 481.963C 541.963 481.963 535.963 496.963 546.963 503.963C 557.963 510.963 562.963 502.963 566.963 513.963C 570.963 524.963 578.963 533.963 570.963 536.963C 562.963 539.963 564.963 544.963 564.963 544.963C 564.963 544.963 574.963 540.963 573.963 550.963C 572.963 560.963 562.963 565.963 562.963 565.963C 562.963 565.963 547.963 571.963 542.963 563.963C 537.963 555.963 537.963 551.963 540.963 545.963C 543.963 539.963 545.963 528.963 545.963 528.963C 545.963 528.963 541.963 520.963 538.963 520.963C 535.963 520.963 519.963 529.963 519.963 529.963L 517.963 522.963L 515.963 479.963L 541.963 481.963z"/>
<path fill="#01947F" stroke="none" d="M 310.963 565.963C 310.963 565.963 309.963 548.963 324.963 537.963C 339.963 526.963 344.963 522.963 362.963 515.963C 380.963 508.963 389.963 507.963 403.963 506.963C 417.963 505.963 424.963 510.963 424.963 510.963L 421.963 556.963L 380.963 579.963C 380.963 579.963 359.963 582.963 337.963 578.963C 315.963 574.963 309.963 569.963 309.963 569.963L 310.963 565.963z"/>
<path fill="#80620D" stroke="none" d="M 425.963 477.963C 425.963 477.963 426.963 498.963 421.963 509.963C 416.963 520.963 413.963 515.963 403.963 524.963C 393.963 533.963 393.963 528.963 396.963 539.963C 399.963 550.963 409.963 547.963 408.963 552.963C 407.963 557.963 405.963 563.963 405.963 563.963L 396.963 563.963L 396.963 578.963L 411.963 583.963C 411.963 583.963 419.963 585.963 420.963 577.963C 421.963 569.963 432.963 575.963 429.963 564.963C 426.963 553.963 425.963 548.963 425.963 548.963C 425.963 548.963 433.963 551.963 438.963 547.963C 443.963 543.963 441.963 538.963 441.963 538.963L 448.963 533.963L 454.963 526.963L 425.963 477.963z"/>
<path fill="#41B194" stroke="none" d="M 310.963 554.963C 310.963 554.963 309.963 525.963 320.963 509.963C 331.963 493.963 368.963 478.963 368.963 478.963C 368.963 478.963 382.963 471.963 398.963 478.963C 414.963 485.963 439.63 496.63 439.63 496.63L 427.963 511.63C 427.963 511.63 386.963 505.963 367.963 513.963C 348.963 521.963 344.963 522.297 333.963 529.963C 323.457 537.286 310.963 554.963 310.963 554.963z"/>
<path fill="#9F853A" stroke="none" d="M 437.963 439.963C 437.963 439.963 459.963 423.963 479.963 425.963C 499.963 427.963 526.963 428.963 532.963 439.963C 538.963 450.963 544.963 467.963 540.963 487.963C 536.963 507.963 534.963 519.963 520.963 523.963C 506.963 527.963 491.963 532.963 475.963 531.963C 459.963 530.963 435.963 528.963 429.963 515.963C 423.963 502.963 423.963 485.963 427.963 470.963C 431.963 455.963 437.963 439.963 437.963 439.963z"/>
<path fill="#41B194" stroke="none" d="M 400.963 762.963C 400.963 762.963 429.963 731.963 441.963 712.963C 453.963 693.963 488.963 641.963 488.963 641.963C 488.963 641.963 487.963 674.963 496.963 690.963C 505.963 706.963 504.963 714.963 511.963 726.963C 518.963 738.963 542.963 769.963 542.963 769.963L 492.963 769.963L 436.963 770.963L 400.963 762.963z"/>
<path fill="#E17803" stroke="none" d="M 416.63 510.297L 409.297 516.963L 405.63 508.63L 399.963 523.297L 397.963 508.297L 393.297 507.63L 391.963 522.963L 386.63 531.63L 383.297 509.963C 383.297 509.963 378.63 536.297 377.63 536.297C 376.63 536.297 370.963 514.63 370.963 514.63L 363.963 532.63L 360.963 516.963L 353.963 542.63L 349.963 522.63L 342.297 549.963L 340.297 526.963L 328.63 550.297L 327.297 536.963L 343.63 523.297L 377.963 509.963L 409.63 506.963L 416.63 510.297z"/>
</g>
<g>
<path fill="none" stroke-width="6" stroke-linecap="round" stroke="#000000" stroke-linejoin="round" d="M 431.463 457.963C 425.732 475.158 420.963 496.963 426.963 514.963C 426.963 517.963 434.463 520.963 437.463 522.463C 455.463 531.463 474.963 532.963 494.463 529.963C 506.463 528.463 519.963 526.963 527.463 517.963C 543.963 496.963 540.963 471.463 536.463 447.463C 533.463 439.963 522.963 433.963 512.463 430.963C 510.963 430.963 509.463 429.463 507.963 427.963C 494.463 423.463 480.963 426.463 467.463 426.463C 459.963 427.963 452.463 433.963 444.963 436.963C 438.963 439.963 434.463 448.963 431.463 457.963z"/>
<path fill="none" stroke-width="6" stroke-linecap="round" stroke="#000000" stroke-linejoin="round" d="M 486.963 646.963C 462.963 688.963 399.963 765.463 399.963 765.463C 399.963 765.463 467.463 774.463 500.463 769.963C 509.463 769.963 545.463 771.463 545.463 771.463C 545.463 771.463 535.526 760.026 527.963 752.963C 520.401 745.901 514.463 735.963 510.463 727.963C 506.463 719.963 499.463 700.463 497.463 690.463C 495.463 680.463 491.463 667.963 489.963 655.963C 482.463 613.963 479.463 573.463 477.963 532.963"/>
<path fill="none" stroke-width="6" stroke-linecap="round" stroke="#000000" stroke-linejoin="round" d="M 434.463 517.963C 419.463 519.463 416.463 535.963 422.463 543.463C 425.463 549.463 437.463 550.963 441.963 546.463C 447.963 541.963 438.963 535.963 431.463 537.463"/>
<path fill="none" stroke-width="6" stroke-linecap="round" stroke="#000000" stroke-linejoin="round" d="M 471.963 472.963C 473.463 480.463 468.963 487.963 473.463 495.463"/>
<path fill="none" stroke-width="6" stroke-linecap="round" stroke="#000000" stroke-linejoin="round" d="M 503.463 474.463C 503.463 480.463 503.463 487.963 503.463 493.963"/>
<path fill="none" stroke-width="6" stroke-linecap="round" stroke="#000000" stroke-linejoin="round" d="M 468.963 516.463C 483.963 516.463 497.463 516.463 512.463 513.463"/>
<path fill="none" stroke-width="6" stroke-linecap="round" stroke="#000000" stroke-linejoin="round" d="M 422.463 493.963C 423.963 505.963 422.463 517.963 410.463 523.963C 399.963 528.463 389.463 535.963 396.963 544.963C 402.963 553.963 416.463 549.463 420.963 559.963C 422.463 565.963 422.463 573.463 420.963 579.463C 417.963 586.963 405.963 585.463 399.963 582.463C 393.963 580.963 398.463 571.963 396.963 565.963C 399.963 565.963 402.963 565.963 405.963 565.963"/>
<path fill="none" stroke-width="6" stroke-linecap="round" stroke="#000000" stroke-linejoin="round" d="M 539.463 489.463C 537.963 502.963 548.463 511.963 561.963 513.463C 566.463 513.463 569.463 517.963 570.963 522.463C 570.963 528.463 573.963 537.463 567.963 540.463C 558.963 541.963 545.463 535.963 540.963 543.463C 537.963 547.963 537.963 555.463 539.463 561.463C 543.963 570.463 555.963 568.963 564.963 567.463C 569.463 565.963 570.963 556.963 566.463 553.963C 563.463 552.463 560.463 553.963 557.463 553.963"/>
<path fill="none" stroke-width="6" stroke-linecap="round" stroke="#000000" stroke-linejoin="round" d="M 420.963 472.963C 420.963 472.963 413.463 469.963 411.963 466.963C 410.463 462.463 411.963 454.963 416.463 451.963C 422.463 448.963 435.963 444.463 435.963 444.463C 435.963 444.463 435.963 409.963 437.463 384.463C 452.463 367.963 479.463 358.963 497.463 369.463C 510.963 394.963 528.963 433.963 528.963 433.963C 528.963 433.963 552.963 432.463 558.963 441.463C 563.463 445.963 564.963 454.963 560.463 460.963C 554.463 465.463 539.463 466.963 539.463 466.963"/>
<path fill="none" stroke-width="6" stroke-linecap="round" stroke="#000000" stroke-linejoin="round" d="M 381.963 618.463C 381.963 615.463 384.963 615.463 386.463 613.963C 414.963 607.963 441.963 603.463 470.463 598.963C 471.963 598.963 473.463 595.963 474.963 594.463"/>
<path fill="none" stroke-width="6" stroke-linecap="round" stroke="#000000" stroke-linejoin="round" d="M 415.963 487.463C 402.463 481.963 393.053 475.611 364.963 481.463C 340.963 486.463 321.463 501.963 315.963 522.463C 311.777 538.067 308.463 553.963 309.963 570.463C 323.963 576.963 346.463 584.463 372.963 581.963"/>
<path fill="none" stroke-width="6" stroke-linecap="round" stroke="#000000" stroke-linejoin="round" d="M 431.463 565.963"/>
<path fill="none" stroke-width="6" stroke-linecap="round" stroke="#000000" stroke-linejoin="round" d="M 309.963 570.463C 311.324 562.302 312.428 558.731 314.963 551.463C 322.463 529.963 372.963 504.463 410.463 508.963"/>
<path fill="none" stroke-width="6" stroke-linecap="round" stroke="#000000" stroke-linejoin="round" d="M 368.463 523.963C 371.463 558.463 381.963 589.963 389.463 624.463C 390.963 631.963 390.963 639.463 387.963 646.963C 386.463 651.463 378.963 649.963 374.463 649.963C 375.963 646.963 371.463 642.463 375.963 639.463"/>
<path fill="none" stroke-width="6" stroke-linecap="round" stroke="#000000" stroke-linejoin="round" d="M 482.463 582.463C 503.463 582.463 524.463 582.463 545.463 585.463C 543.963 586.963 548.463 588.463 546.963 589.963"/>
<path fill="none" stroke-width="6" stroke-linecap="round" stroke="#000000" stroke-linejoin="round" d="M 366.963 478.963L 363.963 459.463"/>
<path fill="none" stroke-width="3" stroke-linecap="round" stroke="#000000" stroke-linejoin="round" d="M 408.463 516.463L 404.963 509.963L 400.463 522.963C 400.463 522.963 397.463 524.463 398.463 515.963C 399.463 507.463 392.963 507.963 392.963 507.963C 392.963 507.963 393.463 513.463 392.463 519.963C 391.463 526.463 386.963 532.463 386.963 532.463C 386.963 532.463 386.463 527.963 386.463 520.463C 386.463 512.963 381.963 508.963 381.963 508.963C 381.963 508.963 380.463 511.963 380.963 517.463C 381.463 522.963 376.463 539.963 376.463 539.963C 376.463 539.963 374.963 530.463 374.963 523.963C 374.963 517.463 369.463 514.463 369.463 514.463L 361.963 539.963C 361.963 539.963 363.963 532.963 362.963 524.963C 361.963 516.963 359.963 515.463 359.963 515.463C 359.963 515.463 358.463 521.463 357.963 528.963C 357.463 536.463 351.463 547.963 351.463 547.963C 351.463 547.963 351.963 542.963 352.463 533.463C 352.963 523.963 347.463 522.463 347.463 522.463L 347.963 531.463L 339.963 557.963C 339.963 557.963 339.963 551.963 342.463 542.963C 344.963 533.963 338.463 526.963 338.463 526.963L 323.463 561.963C 323.463 561.963 325.963 558.963 327.463 548.463C 328.963 537.963 326.463 537.463 326.463 537.463L 316.463 556.963L 315.963 562.963"/>
<path fill="none" stroke-width="3" stroke-linecap="round" stroke="#000000" stroke-linejoin="round" d="M 312.963 572.963C 312.963 572.963 318.463 577.463 314.963 584.463C 311.463 591.463 308.463 598.463 308.463 598.463C 308.463 598.463 315.463 597.463 317.963 590.963C 320.463 584.463 322.463 578.963 322.463 578.963C 322.463 578.963 327.463 580.963 325.463 587.463C 323.463 593.963 324.963 598.463 324.963 598.463C 324.963 598.463 331.463 588.963 330.963 586.463C 330.463 583.963 331.963 581.463 331.963 581.463L 334.963 600.463C 334.963 600.463 340.463 593.963 338.963 589.963C 337.463 585.963 339.463 582.463 339.463 582.463C 339.463 582.463 343.463 585.463 343.463 592.463C 343.463 599.463 344.463 607.463 344.463 607.463C 344.463 607.463 345.963 601.963 347.463 594.963C 348.963 587.963 347.963 583.463 347.963 583.463C 347.963 583.463 350.963 581.463 353.963 587.963C 356.963 594.463 359.963 596.463 359.463 599.963C 358.963 603.463 364.963 595.463 362.463 591.463C 359.963 587.463 361.463 584.963 361.463 584.963C 361.463 584.963 366.963 583.963 367.963 587.963C 368.963 591.963 368.463 600.463 368.463 600.463C 368.463 600.463 373.463 597.963 372.963 592.463C 372.463 586.963 374.463 584.463 374.463 584.463"/>
<path fill="none" stroke-width="3" stroke-linecap="round" stroke="#000000" stroke-linejoin="round" d="M 386.963 580.463C 386.963 585.463 388.463 590.463 387.963 595.463C 388.463 595.463 389.463 595.963 389.963 594.963C 391.463 591.963 391.463 588.463 391.463 584.963C 394.463 586.963 394.963 590.463 396.463 592.963C 396.463 591.963 396.463 590.463 396.463 589.463"/>
</g>
<g>
<path fill="#FDC0A7" stroke="none" d="M 93.9634 471.963C 93.9634 471.963 115.963 451.963 134.963 452.963C 153.963 453.963 179.963 453.963 187.963 462.963C 195.963 471.963 200.963 476.963 200.963 476.963C 200.963 476.963 200.963 505.963 190.963 522.963C 180.963 539.963 167.963 546.963 146.963 545.963C 125.963 544.963 100.963 534.963 93.9634 516.963C 86.9634 498.963 93.9634 471.963 93.9634 471.963z"/>
<path fill="#BFCBE3" stroke="none" d="M 196.963 471.963C 196.963 471.963 203.963 448.963 197.963 430.963C 191.963 412.963 189.963 408.963 173.963 405.963C 157.963 402.963 146.963 405.963 146.963 405.963C 146.963 405.963 152.963 400.963 136.963 404.963C 120.963 408.963 114.963 409.963 104.963 420.963C 94.9634 431.963 92.9634 434.963 90.9634 448.963C 88.9634 462.963 90.9634 470.963 90.9634 470.963C 90.9634 470.963 106.963 459.963 123.963 455.963C 140.963 451.963 149.963 450.963 163.963 452.963C 177.963 454.963 196.963 471.963 196.963 471.963z"/>
<path fill="#BFCBE3" stroke="none" d="M 89.9634 473.963L 79.9634 474.963C 79.9634 474.963 76.9634 494.963 80.9634 501.963C 84.9634 508.963 91.9634 509.963 91.9634 509.963L 89.9634 473.963z"/>
<path fill="#BFCBE3" stroke="none" d="M 104.963 541.963L 110.963 561.963L 137.963 550.963L 145.963 557.963L 162.963 558.963L 167.963 551.963L 189.963 564.963L 190.963 540.963L 161.963 547.963L 137.963 545.963L 104.963 541.963z"/>
<path fill="#BFCBE3" stroke="none" d="M 148.963 614.963C 148.963 614.963 140.963 616.963 152.963 636.963C 164.963 656.963 180.963 672.963 194.963 692.963C 208.963 712.963 232.963 732.963 236.963 748.963C 240.963 764.963 238.963 768.963 238.963 768.963C 238.963 768.963 220.963 786.963 197.963 794.963C 174.963 802.963 148.963 792.963 121.963 789.963C 94.9634 786.963 66.9634 768.963 66.9634 768.963L 75.9634 754.963C 75.9634 754.963 104.963 737.963 113.963 717.963C 122.963 697.963 137.963 653.963 137.963 653.963L 148.963 614.963z"/>
<path fill="#BFCBE3" stroke="none" d="M 35.6301 722.797C 35.6301 722.797 38.6301 718.797 51.6301 717.797C 64.6301 716.797 72.6301 716.797 72.6301 716.797C 72.6301 716.797 79.6301 723.797 73.6301 735.797C 67.6301 747.797 64.6301 751.797 46.6301 749.797C 28.6301 747.797 35.6301 722.797 35.6301 722.797z"/>
<path fill="#BFCBE3" stroke="none" d="M 221.963 545.963L 227.963 614.963L 292.963 611.963L 283.963 572.963L 274.963 573.963L 271.963 555.963L 248.963 554.963L 247.963 542.963L 221.963 545.963z"/>
<path fill="#FEC06F" stroke="none" d="M 227.963 614.963C 227.963 614.963 219.963 612.963 216.963 620.963C 213.963 628.963 221.963 630.963 221.963 630.963L 229.963 622.963L 227.963 614.963z"/>
<path fill="#819CC9" stroke="none" d="M 248.963 554.963L 229.963 611.963L 267.963 558.963L 248.963 554.963L 248.963 554.963z"/>
<path fill="#819CC9" stroke="none" d="M 231.963 614.963L 274.963 573.963L 283.963 572.963L 231.963 614.963z"/>
<path fill="#819CC9" stroke="none" d="M 224.963 546.963L 234.963 545.963L 229.963 611.963L 224.963 546.963z"/>
<path fill="#819CC9" stroke="none" d="M 238.963 611.963C 238.963 611.963 289.963 582.963 287.963 585.963C 285.963 588.963 289.963 599.963 289.963 599.963L 238.963 611.963z"/>
<path fill="#819CC9" stroke="none" d="M 109.963 549.963L 118.963 550.963L 107.963 555.963L 106.963 547.963L 118.963 550.963L 109.963 549.963z"/>
<path fill="#819CC9" stroke="none" d="M 178.963 549.963L 191.963 543.963L 190.963 552.963L 178.963 549.963z"/>
<path fill="none" stroke-width="1" stroke="#FFFFFF" d="M 238.963 756.463C 239.463 759.963 237.963 765.463 234.963 765.963C 231.963 766.463 228.463 765.963 227.463 761.963C 226.463 757.963 227.463 755.963 229.463 754.463C 231.463 752.963 233.963 754.463 234.463 757.963C 234.963 761.463 232.463 769.963 229.463 771.463C 226.463 772.963 218.463 773.463 216.463 768.463C 214.966 764.721 214.963 762.963 218.463 760.963C 221.963 758.963 223.963 760.963 225.463 765.463C 226.963 769.963 217.463 779.963 213.463 780.963C 209.463 781.963 204.228 779.758 202.963 775.963C 201.963 772.963 202.963 769.463 208.463 766.963C 212.782 765.001 211.963 769.963 212.463 772.963C 212.963 775.963 207.963 783.463 203.463 785.463C 198.963 787.463 187.963 784.463 187.463 779.963C 187.022 775.988 190.463 771.463 193.463 771.463C 196.463 771.463 196.919 774.471 197.463 777.463C 198.463 782.963 189.816 789.958 186.463 790.963C 181.463 792.463 171.963 784.963 171.963 780.963C 171.963 776.963 173.463 773.963 176.963 773.463C 180.463 772.963 181.963 776.463 181.963 780.463C 181.963 784.463 172.073 791.463 167.463 791.463C 161.963 791.463 154.963 783.963 155.463 779.963C 155.963 775.963 156.536 771.478 161.463 772.463C 166.463 773.463 165.963 777.463 164.963 781.463C 163.993 785.344 157.963 789.963 153.963 789.963C 147.463 789.963 140.463 782.963 140.963 778.963C 141.463 774.963 143.457 771.018 147.463 771.463C 151.963 771.963 150.463 776.963 149.963 779.963C 149.463 782.963 143.072 788.306 138.963 787.963C 132.963 787.463 125.963 779.463 125.963 775.963C 125.963 772.463 130.463 768.463 134.463 768.463C 138.463 768.463 136.963 772.963 135.963 777.463C 134.963 781.963 125.948 785.337 121.463 784.963C 115.463 784.463 110.345 775.818 111.463 772.463C 112.463 769.463 116.963 766.463 119.963 766.963C 122.963 767.463 122.177 770.894 121.463 774.463C 120.463 779.463 106.844 781.933 102.963 780.963C 96.9634 779.463 96.4634 769.963 98.4634 766.463C 100.463 762.963 102.463 761.963 106.463 762.963C 110.463 763.963 107.963 767.963 106.463 770.963C 105.049 773.792 92.1883 776.076 88.9634 774.463C 84.9634 772.463 80.7063 763.323 83.4634 759.463C 85.9634 755.963 89.9634 754.463 92.4634 755.963C 94.9634 757.463 95.5204 761.128 92.9634 764.963C 89.9634 769.463 77.4634 768.463 77.4634 768.463C 72.9634 766.463 72.9634 757.963 75.9634 754.963C 78.9634 751.963 78.4634 747.963 80.4634 750.463C 82.4634 752.963 82.9634 753.463 80.4634 757.963C 77.9634 762.463 74.4634 761.963 71.4634 762.463"/>
<path fill="none" stroke-width="1" stroke="#FFFFFF" d="M 33.9634 725.13C 38.6301 725.13 44.5044 728.458 44.7967 730.797C 45.1301 733.463 44.7967 735.297 41.6301 735.63C 37.4369 736.071 36.4634 734.63 36.4634 731.963C 36.4634 729.297 41.2967 724.463 45.9634 723.797C 50.6301 723.13 57.7967 726.63 57.9634 729.13C 58.1895 732.522 57.2967 734.463 53.9634 734.797C 49.9283 735.2 48.4634 731.963 48.4634 729.963C 48.4634 727.963 55.2967 722.13 59.2967 721.797C 62.6185 721.52 69.4634 724.463 70.1301 727.797C 70.7967 731.13 69.7967 733.13 66.9634 733.463C 64.315 733.775 62.6003 731.695 62.2967 728.963C 61.9634 725.963 69.2967 720.63 72.6301 720.63"/>
</g>
<g>
<path fill="none" stroke-width="6" stroke-linecap="round" stroke="#000000" stroke-linejoin="round" d="M 92.4774 474.647C 87.8045 489.202 86.6655 503.942 92.9634 514.963C 106.963 538.963 138.963 554.963 166.963 544.963C 178.963 540.963 188.478 529.435 195.463 515.463C 203.963 498.463 200.963 478.963 196.963 462.963"/>
<path fill="none" stroke-width="6" stroke-linecap="round" stroke="#000000" stroke-linejoin="round" d="M 89.4634 484.463C 89.9634 473.963 87.9634 463.463 90.4634 452.963C 91.9634 446.963 91.9634 440.463 95.4634 434.963C 99.4634 428.463 102.963 422.463 109.463 417.463C 115.463 412.963 121.463 410.463 128.463 408.463C 133.963 406.963 139.463 405.463 144.963 406.463C 157.963 407.963 170.463 403.963 182.963 408.463C 190.963 416.963 197.963 426.963 199.463 438.963C 200.463 449.963 198.463 460.463 198.463 470.963"/>
<path fill="none" stroke-width="6" stroke-linecap="round" stroke="#000000" stroke-linejoin="round" d="M 88.4634 473.963C 85.9634 473.963 82.9634 473.963 80.4634 473.963C 79.4634 482.963 78.9634 491.463 81.4634 500.463C 82.4634 504.463 85.4634 508.463 89.9634 509.963"/>
<path fill="none" stroke-width="6" stroke-linecap="round" stroke="#000000" stroke-linejoin="round" d="M 134.463 484.963C 134.463 489.963 134.463 494.463 134.463 499.463"/>
<path fill="none" stroke-width="6" stroke-linecap="round" stroke="#000000" stroke-linejoin="round" d="M 172.963 487.963C 173.463 492.463 171.963 496.963 171.463 501.463"/>
<path fill="none" stroke-width="6" stroke-linecap="round" stroke="#000000" stroke-linejoin="round" d="M 130.963 524.463C 139.463 530.963 150.463 532.463 161.463 530.463C 165.463 529.963 169.463 527.463 171.963 523.463"/>
<path fill="none" stroke-width="4" stroke-linecap="round" stroke="#DFD5B0" stroke-linejoin="round" d="M 105.463 429.463L 110.963 450.463"/>
<path fill="none" stroke-width="4" stroke-linecap="round" stroke="#DFD5B0" stroke-linejoin="round" d="M 130.463 416.963L 132.963 451.463"/>
<path fill="none" stroke-width="4" stroke-linecap="round" stroke="#DFD5B0" stroke-linejoin="round" d="M 161.963 415.463L 158.463 453.463"/>
<path fill="none" stroke-width="4" stroke-linecap="round" stroke="#DFD5B0" stroke-linejoin="round" d="M 192.463 429.963L 181.463 458.463"/>
<path fill="none" stroke-width="6" stroke-linecap="round" stroke="#000000" stroke-linejoin="round" d="M 140.963 547.963L 105.463 539.963L 109.963 561.963L 140.963 552.963L 143.463 558.463L 163.963 558.463L 166.963 552.463L 190.963 564.963L 193.463 538.463L 169.463 544.463"/>
<path fill="none" stroke-width="6" stroke-linecap="round" stroke="#000000" stroke-linejoin="round" d="M 151.963 563.463C 150.463 614.463 138.463 665.463 117.463 710.463C 108.463 729.963 87.4634 740.463 75.4634 758.463"/>
<path fill="none" stroke-width="6" stroke-linecap="round" stroke="#000000" stroke-linejoin="round" d="M 150.463 617.463C 148.963 627.963 150.463 638.463 156.463 647.463C 175.963 668.463 192.463 690.963 210.463 713.463C 219.463 723.963 228.463 735.963 235.963 747.963C 240.463 755.463 241.963 765.963 237.463 770.463C 217.963 797.463 181.963 801.963 150.463 795.963C 121.963 791.463 93.4634 788.463 67.9634 770.463C 66.4634 768.963 67.9634 765.963 67.9634 762.963"/>
<path fill="none" stroke-width="6" stroke-linecap="round" stroke="#000000" stroke-linejoin="round" d="M 151.963 594.963C 172.963 609.963 201.463 611.463 226.963 608.463"/>
<path fill="none" stroke-width="6" stroke-linecap="round" stroke="#000000" stroke-linejoin="round" d="M 228.463 612.963C 228.463 590.264 229.963 567.963 222.463 545.463C 231.463 545.463 238.963 545.463 247.963 543.963C 247.963 548.463 246.463 554.463 250.963 555.963C 258.463 558.963 267.463 554.463 271.963 558.963C 274.963 560.463 271.963 569.463 274.963 573.963C 274.963 575.463 282.463 572.463 282.463 573.963C 289.963 584.463 289.963 597.963 292.963 609.963C 270.463 620.463 246.463 609.963 223.963 615.963C 219.463 617.463 211.963 624.963 216.463 629.463C 217.963 632.463 225.463 632.463 226.963 629.463C 231.463 626.463 228.463 618.963 228.463 612.963z"/>
<path fill="none" stroke-width="6" stroke-linecap="round" stroke="#000000" stroke-linejoin="round" d="M 64.9634 657.963C 66.4634 639.963 87.4634 629.463 102.463 620.463C 114.463 612.963 127.963 605.463 142.963 606.963"/>
<path fill="none" stroke-width="6" stroke-linecap="round" stroke="#000000" stroke-linejoin="round" d="M 48.4634 717.963C 57.3939 716.847 64.9634 716.463 73.9634 716.463C 73.9634 723.963 75.4634 732.963 72.4634 740.463C 67.9634 752.463 51.4634 752.463 42.4634 747.963C 34.9634 743.463 34.9634 731.463 33.4634 720.963C 37.9634 719.797 43.1301 718.63 48.4634 717.963z"/>
<path fill="none" stroke-width="6" stroke-linecap="round" stroke="#000000" stroke-linejoin="round" d="M 40.9634 719.463C 40.9634 701.463 37.9634 683.463 42.4634 665.463C 43.9634 657.963 57.4634 653.463 64.9634 657.963C 78.4634 671.463 66.4634 693.963 69.4634 711.963"/>
<path fill="none" stroke-width="6" stroke-linecap="round" stroke="#000000" stroke-linejoin="round" d="M 90.9634 471.963C 91.4634 471.963 97.4634 469.463 97.9634 469.463C 117.463 450.963 144.963 450.963 169.463 453.963C 172.963 453.963 175.963 455.463 179.463 456.963C 186.463 460.463 190.963 466.463 196.463 471.963"/>
</g>
<g>
<path fill="#FFFFC0" stroke="none" d="M 436.963 65.9634C 431.963 65.9634 427.463 66.9634 422.963 68.9634C 415.963 72.9634 416.963 81.4634 415.963 88.4634C 415.463 91.4634 410.963 91.4634 408.463 92.9634C 407.463 93.9634 406.463 93.9634 405.463 94.9634C 403.463 97.4634 401.463 99.9634 400.463 102.963C 399.463 106.963 399.463 110.463 397.963 113.963C 395.963 117.463 390.963 116.963 389.463 119.463C 387.963 122.963 388.463 127.463 390.463 130.463C 393.463 133.963 398.963 134.963 401.463 138.463C 402.963 140.963 402.963 144.963 404.463 147.963C 405.463 149.463 406.463 150.463 407.463 150.963C 408.963 151.963 410.963 151.463 412.463 151.463C 412.463 150.963 411.963 150.463 411.963 149.963C 411.963 150.463 412.963 150.963 412.463 151.463C 416.963 151.463 421.963 149.963 424.963 151.963C 428.463 154.463 429.463 159.463 431.963 162.963C 436.463 169.963 445.463 171.963 452.963 174.963C 455.463 175.963 458.463 173.963 459.463 172.463C 460.963 168.963 458.963 165.463 459.463 161.463C 459.463 160.963 460.463 160.463 460.463 159.963C 462.463 157.963 466.963 158.963 467.963 155.963C 468.463 151.963 466.963 147.963 468.463 143.963C 468.963 142.463 470.463 141.463 471.963 141.463C 474.963 140.463 478.963 139.963 479.963 142.963C 481.463 147.463 481.463 153.463 477.463 156.463C 476.463 156.963 475.963 157.963 475.463 158.463C 471.463 167.463 467.963 175.963 465.463 185.463C 462.963 195.963 474.463 200.963 480.963 207.463C 482.963 208.963 482.463 211.963 482.963 214.463C 483.463 217.963 485.963 221.463 489.463 221.963C 496.963 223.463 506.963 225.463 512.463 218.963C 524.963 218.963 537.463 218.963 549.963 219.463C 549.963 216.963 548.963 213.963 550.963 212.463C 553.963 209.963 557.963 212.463 561.463 213.463C 567.463 215.463 574.463 212.463 576.463 206.963C 577.963 202.963 577.463 197.963 572.963 194.963C 572.463 194.963 572.963 192.463 573.963 191.463C 574.963 187.963 573.963 184.463 569.963 183.963C 565.963 182.963 561.963 182.963 557.963 183.963C 552.963 184.963 548.963 187.963 543.963 188.963C 539.963 189.463 535.963 189.463 531.963 188.463C 528.463 187.463 529.463 182.963 529.463 179.963C 529.463 178.963 528.963 177.963 528.963 177.463C 527.963 172.463 527.463 167.963 529.463 163.463C 530.963 161.463 533.463 160.963 535.963 160.963C 538.463 160.963 541.463 160.463 542.463 157.963C 543.463 152.463 539.963 144.463 545.463 141.963C 550.463 139.963 556.463 142.963 562.463 140.963C 563.963 135.463 561.463 129.463 563.463 124.463C 565.963 117.963 574.963 117.463 580.963 112.963C 581.463 112.463 581.463 110.463 580.963 109.463C 579.463 106.963 577.463 103.963 576.963 101.463C 575.963 98.4634 575.463 95.4634 577.463 92.4634C 580.963 88.4634 585.963 86.4634 588.463 81.9634C 589.463 79.4634 589.963 76.4634 588.463 74.9634C 585.463 70.4634 588.463 64.9634 585.463 61.4634C 582.463 57.4634 576.463 61.9634 572.463 58.9634C 571.463 58.4634 573.463 55.4634 571.963 54.9634C 567.463 53.4634 562.463 55.9634 558.463 53.4634C 557.963 53.4634 557.963 50.9634 558.463 49.9634C 562.463 46.4634 567.463 42.9634 565.963 37.4634C 563.963 31.4634 556.463 34.4634 551.963 32.9634C 548.963 31.4634 544.963 31.9634 541.463 32.4634C 540.463 32.4634 539.463 33.4634 538.463 33.9634C 533.963 35.4634 529.963 30.4634 525.963 32.4634C 519.963 34.9634 519.463 42.9634 517.963 48.9634C 516.463 53.4634 513.963 53.4634 510.963 49.4634C 509.463 47.9634 507.963 43.4634 507.463 40.9634L 485.463 39.4634L 458.963 34.9634C 458.963 34.9634 448.42 37.8534 441.463 52.4634C 441.248 52.9148 438.963 57.9634 437.463 59.9634C 436.963 61.9634 437.963 65.9634 436.963 65.9634z"/>
<path fill="#FDC0A7" stroke="none" d="M 454.297 54.9634C 454.297 54.9634 454.297 45.6301 468.297 45.6301C 482.297 45.6301 490.297 42.9634 496.963 49.6301C 503.63 56.2967 508.297 68.2967 504.963 76.9634C 501.63 85.6301 506.963 90.2967 492.963 95.6301C 478.963 100.963 471.63 101.63 462.297 93.6301C 452.963 85.6301 448.963 75.6301 449.63 67.6301C 450.297 59.6301 454.297 54.9634 454.297 54.9634z"/>
<path fill="#FFFFFF" stroke="none" d="M 506.297 80.9634C 506.297 80.9634 512.297 63.6301 522.963 54.9634C 533.63 46.2967 543.63 39.6301 548.297 41.6301C 552.963 43.6301 555.63 44.2967 550.963 53.6301C 546.297 62.9634 541.63 71.6301 539.63 72.9634C 537.63 74.2967 538.297 77.6301 538.297 77.6301C 538.297 77.6301 547.63 71.6301 560.297 71.6301C 572.963 71.6301 586.297 68.9634 580.963 74.9634C 575.63 80.9634 578.297 85.6301 567.63 88.9634C 556.963 92.2967 551.63 96.9634 551.63 96.9634C 551.63 96.9634 565.63 90.9634 566.963 98.9634C 568.297 106.963 574.297 108.297 562.963 110.297C 551.63 112.297 545.63 110.963 541.63 112.297C 537.63 113.63 545.63 116.963 544.297 122.963C 542.963 128.963 548.963 129.63 540.297 129.63C 531.63 129.63 528.963 128.963 525.63 126.963C 522.297 124.963 538.297 132.297 530.963 135.63C 523.63 138.963 514.297 137.63 514.297 137.63L 502.963 125.63L 499.63 130.963L 492.297 127.63L 490.963 98.9634L 506.297 80.9634z"/>
</g>
<g>
<path fill="none" stroke-width="6" stroke="#FF0000" d="M 488.963 97.9634C 489.963 110.963 485.963 121.963 491.963 132.963C 499.963 145.963 513.963 150.963 527.963 153.963C 518.948 152.032 518.963 168.963 519.463 181.963C 519.78 190.203 519.963 198.463 521.963 206.963C 534.963 208.963 546.963 200.963 558.963 196.963C 558.963 199.963 560.963 200.963 560.963 203.963"/>
<path fill="none" stroke-width="6" stroke="#FF0000" d="M 523.463 153.463C 521.463 152.463 508.463 154.463 506.463 154.463C 505.463 155.463 496.963 157.963 495.963 158.963C 486.963 161.963 479.963 170.963 479.963 170.963C 479.963 170.963 478.963 180.463 485.463 189.463C 491.728 198.138 500.963 206.963 500.963 206.963L 496.963 210.963"/>
<path fill="none" stroke-width="6" stroke="#FF0000" d="M 426.963 119.963C 445.963 119.963 465.963 119.963 484.963 119.963"/>
<path fill="none" stroke-width="6" stroke="#FF0000" d="M 461.463 69.9634C 461.463 71.9634 461.463 75.4634 461.463 77.4634"/>
<path fill="none" stroke-width="4" stroke="#FF0000" d="M 470.963 75.9634C 475.707 75.9634 478.099 74.4634 484.463 74.4634"/>
<path fill="none" stroke-width="4" stroke="#FF0000" d="M 465.463 90.9634C 472.463 90.9634 478.297 95.4634 482.463 82.9634"/>
<path fill="none" stroke-width="6" stroke="#BE735F" d="M 436.963 77.9634C 436.963 77.9634 422.963 94.4634 426.963 119.963C 430.963 145.463 449.963 163.963 449.963 163.963"/>
<path fill="none" stroke-width="6" stroke="#FF0000" d="M 431.463 103.463"/>
<path fill="none" stroke-width="6" stroke="#FF8000" d="M 411.963 113.963L 405.463 128.463L 418.963 132.963"/>
<path fill="#FFFFFF" stroke-width="6" stroke="#FA818F" d="M 513.963 89.9634C 533.963 78.9634 554.963 65.9634 578.963 71.4634C 579.963 71.4634 580.463 75.9634 578.963 77.9634C 576.963 81.4634 573.463 84.4634 569.963 87.4634C 560.463 93.4634 550.963 97.4634 540.463 98.4634C 548.463 97.9634 555.963 97.4634 563.963 97.9634C 565.463 98.4634 567.463 99.4634 567.463 100.963C 567.963 103.463 569.463 106.963 566.963 107.963C 556.463 114.463 543.963 113.463 531.963 113.463C 538.963 113.463 542.463 120.463 546.463 125.463C 548.463 126.963 545.963 128.463 543.963 128.463C 536.463 129.963 527.963 131.463 521.463 125.963C 524.463 125.963 527.463 127.963 528.463 130.463C 529.463 132.463 529.963 136.463 526.963 136.963C 522.963 137.463 518.963 137.963 515.463 136.463C 509.463 133.963 503.963 129.463 500.963 123.463C 500.963 126.463 500.463 129.463 499.463 132.463"/>
<path fill="none" stroke-width="4" stroke="#FA818F" d="M 512.963 72.9634C 515.463 61.9634 523.463 53.4634 532.463 46.9634C 537.963 42.9634 543.963 39.9634 550.963 41.4634C 552.963 45.4634 552.463 49.9634 551.463 54.4634C 550.463 60.4634 544.963 64.4634 540.963 68.9634"/>
<path fill="none" stroke-width="6" stroke="#FF0000" d="M 504.933 90.8301C 505.235 91.0152 505.576 91.2251 505.963 91.4634C 519.328 99.6877 523.463 106.963 523.463 106.963C 523.463 106.963 500.963 106.463 489.963 106.463"/>
<path fill="none" stroke-width="6" stroke="#FF0000" d="M 473.963 45.9634C 454.021 44.1506 443.963 65.9634 449.963 81.9634C 452.963 88.9634 460.963 93.9634 468.963 97.9634C 474.963 99.9634 482.963 99.9634 488.963 97.9634C 505.963 92.9634 508.963 70.9634 503.963 56.9634C 499.963 45.9634 484.963 46.9634 473.963 45.9634z"/>
<path fill="none" stroke-width="6" stroke="#FF8000" d="M 409.463 126.463L 467.546 98.1305"/>
<path fill="none" stroke-width="3" stroke="#BFAC6F" d="M 433.963 81.9634L 493.463 86.9634L 446.963 160.463"/>
<path fill="none" stroke-width="6" stroke="#FF8000" d="M 467.546 98.1305L 491.463 86.4634"/>
<path fill="none" stroke-width="6" stroke="#FF0000" d="M 491.463 86.4634C 505.1 91.1656 500.163 87.908 504.933 90.8301"/>
</g>
<g>
<path fill="none" stroke-width="8" stroke="#13017C" stroke-linejoin="bevel" d="M 154.886 56.9347L 114.866 129.892L 73.4405 56.9347"/>
<path fill="none" stroke-width="8" stroke="#13017C" stroke-linejoin="bevel" d="M 173.963 54.9634L 173.963 130.961"/>
</g>
</svg>