<svg xmlns="http://www.w3.org/2000/svg"
	xmlns:xlink="http://www.w3.org/1999/xlink"
	viewBox="29.9 0 577 792"
	width="606.892" height="821.755">
<g>
<path fill="#3fffff" stroke="none" d="M 606.892 792L 606.892 0L 29.8918 0L 29.8918 792L 606.892 792z"/>
</g>
<g>
<path fill="#ffff3f" stroke="none" d="M 606.612 679.604C 587.219 720.529 562.048 758.182 532.152 791.51L 29.8918 791.75L 30.1418 39.25C 77.9615 22.7104 131.198 13.3095 184.642 13.3095C 370.887 13.3095 531.654 122.413 606.515 280.191L 606.612 679.604z"/>
<path fill="#ff7f00" stroke="none" d="M 31.4869 750.556L 84.8918 716L 143.086 790.608L 183.597 791.032L 230.892 734L 376.892 764L 392.892 640L 518.892 566L 442.892 456L 534.892 338L 404.892 324L 418.892 200L 298.892 232L 276.892 122L 178.892 204L 80.8918 128L 48.8918 220L 32.2536 217.782"/>
<path fill="#ffff00" stroke-width="6" stroke="#ff0000" d="M 31.4451 309.875C 72.0621 273.216 125.871 250.897 184.892 250.897C 311.42 250.897 413.994 353.472 413.994 480C 413.994 606.528 311.42 709.103 184.892 709.103C 126.388 709.103 73.0061 687.173 32.5166 651.086"/>
<path fill="none" stroke-width="6" stroke="#ff0000" d="M 31.4869 750.556L 84.8918 716L 142.511 789.871"/>
<path fill="none" stroke-width="6" stroke="#ff0000" d="M 184.196 790.31L 244.892 730L 376.892 764L 392.892 640L 518.892 566L 442.892 456L 534.892 338L 404.892 324L 418.892 200L 298.892 232L 276.892 122L 178.892 204L 80.8918 128L 48.8918 220L 32.2537 217.782"/>
</g>
<g>
<path fill="none" stroke-width="1" stroke-linecap="round" stroke="#ffbfbf" stroke-linejoin="round" d="M 360.892 416"/>
<path fill="#ffffff" stroke="none" d="M 368.892 393.333C 376.225 387.333 382.225 384.667 393.558 386.667C 404.892 388.667 426.225 388.667 434.225 386C 442.225 383.333 467.558 366 474.892 370C 482.225 374 494.892 388.667 497.558 399.333C 500.225 410 504.225 426.667 500.892 432C 497.558 437.333 496.225 443.333 482.225 442.667C 468.225 442 422.892 434.667 408.225 438.667C 393.558 442.667 392.892 453.333 377.558 451.333C 362.225 449.333 357.558 424 359.558 413.333C 361.558 402.667 368.892 393.333 368.892 393.333z"/>
<path fill="#ffffff" stroke="none" d="M 502.225 342.667C 502.225 342.667 502.892 329.333 506.225 322.667C 509.558 316 515.558 304.667 515.558 304.667L 520.892 323.333L 535.558 327.333L 554.892 318.667L 546.892 332.667L 551.558 354L 568.225 373.333L 547.558 382L 538.892 368L 532.892 370.667L 507.558 368.667L 502.225 342.667z"/>
</g>
<g>
<path fill="none" stroke-width="6" stroke-linecap="round" stroke="#000000" stroke-linejoin="round" d="M 418.892 388C 402.892 388 382.892 384 370.892 392C 364.988 394.53 361.747 401.238 360.951 408.637"/>
<path fill="none" stroke-width="6" stroke-linecap="round" stroke="#000000" stroke-linejoin="round" d="M 495.286 435.56C 497.035 435.092 498.268 434.572 498.892 434C 500.848 432.207 499.41 419.023 496.972 405.652"/>
<path fill="none" stroke-width="6" stroke-linecap="round" stroke="#000000" stroke-linejoin="round" d="M 468.934 372.201C 455.759 374.922 444.084 386.629 424.892 388"/>
<path fill="none" stroke-width="6" stroke-linecap="round" stroke="#000000" stroke-linejoin="round" d="M 494.892 382C 496.892 374 504.892 376 508.892 370"/>
<path fill="none" stroke-width="6" stroke-linecap="round" stroke="#000000" stroke-linejoin="round" d="M 538.225 368.667C 543.558 370.667 543.558 378 546.892 381.333C 548.225 382.667 551.558 382.667 554.225 382C 558.225 380 562.225 378.667 565.558 376C 566.892 375.333 569.558 373.333 568.225 372.667C 562.892 366.667 552.892 356.667 550.892 348.667C 549.558 343.333 547.6 337.042 544.933 333.042C 540.267 325.708 534.933 329.042 527.6 327.042C 519.52 324.838 509.903 327.855 504.483 333.597"/>
<path fill="none" stroke-width="6" stroke-linecap="round" stroke="#000000" stroke-linejoin="round" d="M 505.558 331.333C 504.892 326.667 505.558 322 508.225 318C 510.225 314.667 511.558 310.667 513.558 306.667C 514.225 306.667 514.892 305.333 515.558 306C 518.225 311.333 520.225 317.333 521.558 323.333"/>
<path fill="none" stroke-width="6" stroke-linecap="round" stroke="#000000" stroke-linejoin="round" d="M 537.558 326.667C 542.892 322.667 550.225 320 556.892 318.667C 553.558 322.667 550.892 327.333 547.558 331.333"/>
<path fill="none" stroke-width="6" stroke-linecap="round" stroke="#000000" stroke-linejoin="round" d="M 538.225 341.333C 538.225 344 538.225 347.333 538.225 350"/>
<path fill="none" stroke-width="6" stroke-linecap="round" stroke="#000000" stroke-linejoin="round" d="M 526.892 370C 532.225 371.333 534.225 376.667 537.558 380"/>
<path fill="none" stroke-width="6" stroke-linecap="round" stroke="#000000" stroke-linejoin="round" d="M 499.558 418C 508.892 415.333 517.558 411.333 526.892 410C 536.225 408 545.558 405.333 554.892 406.667C 554.892 413.333 555.558 419.333 554.225 426C 550.892 441.333 548.225 455.333 542.225 469.333C 540.892 472 540.892 474.667 539.558 476.667C 538.892 476.667 538.892 478 537.558 478"/>
<path fill="none" stroke-width="6" stroke-linecap="round" stroke="#000000" stroke-linejoin="round" d="M 498.892 434C 513.558 428.667 529.892 423.667 544.558 423.667C 544.558 431.667 536.892 447.333 532.225 454.667C 530.656 457.412 528.626 459.696 526.406 462.197"/>
<path fill="none" stroke-width="6" stroke-linecap="round" stroke="#000000" stroke-linejoin="round" d="M 518.838 471.285C 512.64 478.276 505.263 483.717 498.892 490.667"/>
<path fill="none" stroke-width="6" stroke-linecap="round" stroke="#000000" stroke-linejoin="round" d="M 364.892 393.333C 364.892 393.333 362.892 384 352.892 384C 342.892 384 330.892 382 324.892 392C 318.892 402 321.558 410 314.225 414.667C 306.892 419.333 301.558 414.667 301.558 414.667L 306.225 423.333L 301.558 430.667L 316.225 427.333"/>
<path fill="none" stroke-width="6" stroke-linecap="round" stroke="#000000" stroke-linejoin="round" d="M 362.225 398C 362.225 398 350.892 395.333 343.558 398C 336.225 400.667 335.558 404 334.225 408C 332.892 412 331.558 415.333 331.558 415.333"/>
<path fill="none" stroke-width="4" stroke-linecap="round" stroke="#000000" stroke-linejoin="round" d="M 540.892 323.667L 542.225 312L 532.892 320L 537.225 300.333L 526.892 316L 524.892 306.333L 519.892 315"/>
<path fill="none" stroke-width="4" stroke-linecap="round" stroke="#000000" stroke-linejoin="round" d="M 504.225 324.667L 495.225 316C 495.225 316 495.225 325.667 494.558 324.667C 493.892 323.667 483.225 320.667 483.558 321.667C 483.892 322.667 486.558 331.333 486.558 331.333L 478.558 333L 482.892 338.667"/>
</g>
<g>
<path fill="#1f5f9f" stroke="none" d="M 346.892 422C 362.892 412.667 367.558 419.333 383.558 416.667C 399.558 414 426.225 392 440.892 390.667C 440.892 390.667 468.225 388.667 476.892 398.667C 485.558 408.667 486.892 414 488.892 432C 491.623 456.583 483.351 446.194 454.225 451.333C 431.558 455.333 413.558 461.333 396.225 465.333C 378.892 469.333 357.558 469.333 346.892 461.333C 334.48 452.024 346.892 422 346.892 422z"/>
<path fill="#1f5f9f" stroke="none" d="M 476.225 364L 482.225 348.667L 490.892 328L 502.225 345.333L 508.892 348L 520.225 335.333L 522.892 351.333C 522.892 351.333 530.225 356.667 530.892 362.667C 531.558 368.667 540.225 378.667 541.558 388C 542.892 397.333 543.558 403.333 537.558 404C 531.558 404.667 525.558 404 525.558 404L 522.892 386.667C 522.892 386.667 510.892 379.333 506.892 383.333C 502.892 387.333 510.892 400 510.892 400L 504.225 402.667C 504.225 402.667 498.892 388 490.225 384C 481.558 380 476.225 379.333 474.892 373.333C 473.558 367.333 476.225 364 476.225 364z"/>
<path fill="#ffbfbf" stroke="none" d="M 486.892 346L 491.558 336L 497.558 346.667L 486.892 346z"/>
<path fill="#1f5f9f" stroke="none" d="M 480.225 344L 470.892 345.333L 474.225 352.667L 464.225 354L 466.892 363.333L 461.558 364.667L 466.892 370L 459.558 371.333L 460.225 381.333L 452.225 371.333L 448.225 385.333L 439.558 382.667L 438.225 391.333L 452.225 400L 469.954 395.667L 484.621 381L 492.892 352L 480.225 344z"/>
<path fill="#1f5f9f" stroke="none" d="M 340.225 419.333C 340.225 419.333 320.225 425.333 317.558 433.333C 314.892 441.333 311.558 453.333 312.892 463.333C 314.225 473.333 313.558 493.333 308.225 494.667C 302.892 496 313.558 503.333 318.225 496C 322.892 488.667 326.225 478.667 325.558 466C 324.892 453.333 329.558 440 334.225 433.333C 338.892 426.667 350.225 420 350.225 420L 340.225 419.333z"/>
</g>
<g>
<path fill="none" stroke-width="6" stroke-linecap="round" stroke="#000000" stroke-linejoin="round" d="M 524.975 404C 525.975 406.667 536.308 405.333 536.308 405.333C 542.301 404.417 542.01 391.772 541.975 391.667C 538.975 382.667 531.522 375.515 531.267 370.146C 530.933 363.146 529.642 353.667 521.975 351.667C 508.291 348.097 481.308 344 478.308 353.667C 475.265 363.474 473.308 373 481.642 378C 491.34 383.819 495.458 388.335 498.308 393C 501.975 399 503.642 404.333 507.642 403.667C 507.642 403.667 513.684 402.561 511.642 400C 507.751 395.119 505.221 390.933 504.975 387C 504.642 381.667 510.521 381.9 518.642 383.333C 524.308 384.333 524.084 401.623 524.975 404z"/>
<path fill="none" stroke-width="6" stroke-linecap="round" stroke="#000000" stroke-linejoin="round" d="M 469.704 398.375C 475.704 392.375 481.121 389.646 485.121 381.646"/>
<path fill="none" stroke-width="6" stroke-linecap="round" stroke="#000000" stroke-linejoin="round" d="M 485.642 443.667C 496.642 444.667 519.642 433.667 524.642 436.667C 529.642 439.667 522.642 494.667 527.642 499.667"/>
<path fill="none" stroke-width="6" stroke-linecap="round" stroke="#000000" stroke-linejoin="round" d="M 473.642 449.667C 473.642 456.667 487.642 491.667 484.642 497.667C 481.642 503.667 460.642 526.667 460.642 538.667"/>
<path fill="none" stroke-width="6" stroke-linecap="round" stroke="#000000" stroke-linejoin="round" d="M 345.642 464C 345.642 479 362.642 486 353.642 499C 348.642 507 334.642 503 325.642 507C 318.642 511 304.642 532 299.642 538"/>
<path fill="none" stroke-width="6" stroke-linecap="round" stroke="#000000" stroke-linejoin="round" d="M 369.642 468C 371.642 483 390.642 475 394.642 488C 397.642 499 384.642 515 392.642 535"/>
<path fill="none" stroke-width="6" stroke-linecap="round" stroke="#000000" stroke-linejoin="round" d="M 347.642 419C 338.947 419 329.726 422.675 323.785 428.885"/>
<path fill="none" stroke-width="6" stroke-linecap="round" stroke="#000000" stroke-linejoin="round" d="M 482.308 347C 482.308 345 482.706 341.694 485.308 335.333C 488.308 328 490.975 327.333 492.642 327C 494.308 326.667 499.975 338 501.975 346"/>
<path fill="none" stroke-width="6" stroke-linecap="round" stroke="#000000" stroke-linejoin="round" d="M 502.642 351.667"/>
<path fill="none" stroke-width="6" stroke-linecap="round" stroke="#000000" stroke-linejoin="round" d="M 510.308 345C 511.975 342.333 518.308 335.333 519.642 335.667C 520.975 336 525.308 340.667 523.642 349"/>
<path fill="none" stroke-width="6" stroke-linecap="round" stroke="#000000" stroke-linejoin="round" d="M 502.642 360.688L 503.642 366.688"/>
<path fill="none" stroke-width="6" stroke-linecap="round" stroke="#000000" stroke-linejoin="round" d="M 516.996 360.708L 516.975 367"/>
<path fill="none" stroke-width="6" stroke-linecap="round" stroke="#000000" stroke-linejoin="round" d="M 341.558 434.667C 339.24 443.122 341.642 450.386 341.642 460C 361.642 466 383.642 470 401.642 464C 431.642 454 447.642 452.667 479.642 448.667C 483.642 448.667 485.642 442.667 487.642 440.667C 489.642 430.667 484.225 422.667 483.558 413.333C 483.045 406.141 480.225 401.333 474.225 395.333C 465.17 386.278 445.642 388.667 435.642 392.667C 417.642 402.667 411.642 408 393.642 414C 381.642 420 365.642 412 353.642 418C 350.409 419.617 347.992 421.642 346.194 423.976"/>
<path fill="none" stroke-width="6" stroke-linecap="round" stroke="#000000" stroke-linejoin="round" d="M 328.225 439.333C 328.225 439.333 324.892 453.333 324.892 462.667C 324.892 472 326.225 475.333 323.558 485.333C 320.892 495.333 317.558 497.333 312.225 498C 306.892 498.667 302.642 497 302.642 497C 309.642 498 312.025 489.997 312.225 484C 312.892 464 309.892 458.333 314.892 441.333"/>
<path fill="none" stroke-width="6" stroke-linecap="round" stroke="#000000" stroke-linejoin="round" d="M 335.558 428L 343.558 423.333"/>
<path fill="none" stroke-width="4" stroke-linecap="round" stroke="#000000" stroke-linejoin="round" d="M 482.225 343.333L 470.225 344L 476.892 352.667L 465.558 354L 468.225 362.667L 460.892 364.667L 465.558 372L 459.558 372L 461.558 380.667L 450.225 372L 448.225 382.667L 439.558 382.667L 443.558 388.667"/>
</g>
<g>
<path fill="#ffdfbf" stroke="none" d="M 147.892 300L 195.892 302C 195.892 302 201.892 321 194.892 330C 187.892 339 183.892 342 170.892 342C 157.892 342 144.892 331 144.892 320C 144.892 309 147.892 300 147.892 300z"/>
<path fill="#bfdfff" stroke="none" d="M 192.892 285C 198.892 293 195.892 302 195.892 302L 168.892 300L 167.892 316L 157.892 316L 155.892 299C 155.892 299 140.892 300 140.892 286C 140.892 272 157.892 280 157.892 280L 157.892 270L 130.892 271L 131.892 249L 168.892 250L 169.892 278L 192.892 285z"/>
<path fill="#bfdfff" stroke="none" d="M 206.892 346C 206.892 346 226.892 347 229.892 358C 232.892 369 236.892 383 228.892 394C 220.892 405 222.892 410 209.892 415C 196.892 420 204.892 418 192.892 411C 176.503 401.44 175.892 379 180.892 368C 185.892 357 198.892 345 206.892 346z"/>
<path fill="#ffdfbf" stroke="none" d="M 94.8918 357L 111.892 351L 113.892 374L 95.8918 376L 94.8918 357z"/>
<path fill="#ff9f3f" stroke="none" d="M 59.5585 463.333C 59.5585 463.333 137.892 458 162.892 452C 187.892 446 215.892 448 228.892 431C 241.892 414 263.892 349 263.892 349L 290.892 350L 278.225 494L 58.8918 494L 59.5585 463.333z"/>
<path fill="#ffffff" stroke="none" d="M 196.125 395.799C 190.657 395.799 186.225 386.935 186.225 376C 186.225 365.065 190.657 356.201 196.125 356.201C 201.592 356.201 206.024 365.065 206.024 376C 206.024 386.935 201.592 395.799 196.125 395.799z"/>
<path fill="#ff9f3f" stroke="none" d="M 218.892 408.56C 222.797 408.56 225.963 402.018 225.963 393.947C 225.963 385.876 222.797 379.333 218.892 379.333C 214.987 379.333 211.821 385.876 211.821 393.947C 211.821 402.018 214.987 408.56 218.892 408.56z"/>
<path fill="none" stroke-width="1" stroke-linecap="round" stroke="#ffffff" stroke-linejoin="round" d="M 205.986 391.874C 212.527 391.874 217.83 386.334 217.83 379.5C 217.83 372.666 212.527 367.126 205.986 367.126C 199.445 367.126 194.142 372.666 194.142 379.5C 194.142 386.334 199.445 391.874 205.986 391.874z"/>
<path fill="none" stroke-width="1" stroke-linecap="round" stroke="#7fbfff" stroke-linejoin="round" d="M 207.517 392.874C 214.058 392.874 219.361 387.334 219.361 380.5C 219.361 373.666 214.058 368.126 207.517 368.126C 200.976 368.126 195.673 373.666 195.673 380.5C 195.673 387.334 200.976 392.874 207.517 392.874z"/>
<path fill="none" stroke-width="1" stroke-linecap="round" stroke="#ffffff" stroke-linejoin="round" d="M 208.517 350.625L 203.017 358.375L 209.517 358.625L 206.392 367.001"/>
<path fill="none" stroke-width="1" stroke-linecap="round" stroke="#ffffff" stroke-linejoin="round" d="M 208.017 392.125L 202.017 398.875L 209.767 399.625L 205.017 410.875"/>
<path fill="none" stroke-width="1" stroke-linecap="round" stroke="#ffffff" stroke-linejoin="round" d="M 218.236 379.375L 224.017 376.375L 224.017 382.625L 230.767 378.625"/>
<path fill="none" stroke-width="1" stroke-linecap="round" stroke="#ffffff" stroke-linejoin="round" d="M 189.517 384.125L 194.017 379.625"/>
<path fill="none" stroke-width="1" stroke-linecap="round" stroke="#7fbfff" stroke-linejoin="round" d="M 209.642 351.75L 204.142 359.5L 210.642 359.75L 207.517 368.126"/>
<path fill="none" stroke-width="1" stroke-linecap="round" stroke="#7fbfff" stroke-linejoin="round" d="M 209.142 393.25L 203.142 400L 210.892 400.75L 206.142 412"/>
<path fill="none" stroke-width="1" stroke-linecap="round" stroke="#7fbfff" stroke-linejoin="round" d="M 219.361 380.5L 225.142 377.5L 225.142 383.75L 231.892 379.75"/>
<path fill="none" stroke-width="1" stroke-linecap="round" stroke="#7fbfff" stroke-linejoin="round" d="M 181.642 380.5L 190.392 377.75L 190.642 385.25L 195.142 380.75"/>
<g>
<path fill="none" stroke-width="1" stroke-linecap="round" stroke="#7fbfff" stroke-linejoin="round" d="M 195.549 358.633C 195.874 359.01 196.355 359.25 196.892 359.25C 197.868 359.25 198.66 358.458 198.66 357.482C 198.66 356.994 198.462 356.552 198.142 356.232"/>
<path fill="none" stroke-width="1" stroke-linecap="round" stroke="#ffffff" stroke-linejoin="round" d="M 198.142 356.232C 197.822 355.912 197.38 355.715 196.892 355.715C 195.915 355.715 195.124 356.506 195.124 357.482C 195.124 357.922 195.284 358.323 195.549 358.633"/>
</g>
<g>
<path fill="none" stroke-width="1" stroke-linecap="round" stroke="#7fbfff" stroke-linejoin="round" d="M 190.032 364.9C 190.356 365.278 190.837 365.518 191.374 365.518C 192.35 365.518 193.142 364.726 193.142 363.75C 193.142 363.262 192.944 362.82 192.624 362.5"/>
<path fill="none" stroke-width="1" stroke-linecap="round" stroke="#ffffff" stroke-linejoin="round" d="M 192.624 362.5C 192.304 362.18 191.862 361.982 191.374 361.982C 190.398 361.982 189.606 362.774 189.606 363.75C 189.606 364.189 189.766 364.591 190.032 364.9"/>
</g>
<g>
<path fill="none" stroke-width="1" stroke-linecap="round" stroke="#7fbfff" stroke-linejoin="round" d="M 186.299 371.633C 186.624 372.01 187.105 372.25 187.642 372.25C 188.618 372.25 189.41 371.458 189.41 370.482C 189.41 369.994 189.212 369.552 188.892 369.232"/>
<path fill="none" stroke-width="1" stroke-linecap="round" stroke="#ffffff" stroke-linejoin="round" d="M 188.892 369.232C 188.572 368.912 188.13 368.715 187.642 368.715C 186.665 368.715 185.874 369.506 185.874 370.482C 185.874 370.922 186.034 371.323 186.299 371.633"/>
</g>
<g>
<path fill="none" stroke-width="1" stroke-linecap="round" stroke="#7fbfff" stroke-linejoin="round" d="M 216.049 359.883C 216.374 360.26 216.855 360.5 217.392 360.5C 218.368 360.5 219.16 359.708 219.16 358.732C 219.16 358.244 218.962 357.802 218.642 357.482"/>
<path fill="none" stroke-width="1" stroke-linecap="round" stroke="#ffffff" stroke-linejoin="round" d="M 218.642 357.482C 218.322 357.162 217.88 356.965 217.392 356.965C 216.415 356.965 215.624 357.756 215.624 358.732C 215.624 359.172 215.784 359.573 216.049 359.883"/>
</g>
<g>
<path fill="none" stroke-width="1" stroke-linecap="round" stroke="#7fbfff" stroke-linejoin="round" d="M 222.549 365.383C 222.874 365.76 223.355 366 223.892 366C 224.868 366 225.66 365.208 225.66 364.232C 225.66 363.744 225.462 363.302 225.142 362.982"/>
<path fill="none" stroke-width="1" stroke-linecap="round" stroke="#ffffff" stroke-linejoin="round" d="M 225.142 362.982C 224.822 362.662 224.38 362.465 223.892 362.465C 222.915 362.465 222.124 363.256 222.124 364.232C 222.124 364.672 222.284 365.073 222.549 365.383"/>
</g>
<g>
<path fill="none" stroke-width="1" stroke-linecap="round" stroke="#7fbfff" stroke-linejoin="round" d="M 224.487 371.588C 224.811 371.966 225.292 372.205 225.829 372.205C 226.806 372.205 227.597 371.414 227.597 370.438C 227.597 369.949 227.399 369.507 227.079 369.188"/>
<path fill="none" stroke-width="1" stroke-linecap="round" stroke="#ffffff" stroke-linejoin="round" d="M 227.079 369.188C 226.759 368.868 226.317 368.67 225.829 368.67C 224.853 368.67 224.061 369.461 224.061 370.438C 224.061 370.877 224.222 371.279 224.487 371.588"/>
</g>
<g>
<path fill="none" stroke-width="1" stroke-linecap="round" stroke="#7fbfff" stroke-linejoin="round" d="M 222.549 390.383C 222.874 390.76 223.355 391 223.892 391C 224.868 391 225.66 390.208 225.66 389.232C 225.66 388.744 225.462 388.302 225.142 387.982"/>
<path fill="none" stroke-width="1" stroke-linecap="round" stroke="#ffffff" stroke-linejoin="round" d="M 225.142 387.982C 224.822 387.662 224.38 387.465 223.892 387.465C 222.915 387.465 222.124 388.256 222.124 389.232C 222.124 389.672 222.284 390.073 222.549 390.383"/>
</g>
<g>
<path fill="none" stroke-width="1" stroke-linecap="round" stroke="#7fbfff" stroke-linejoin="round" d="M 219.049 397.133C 219.374 397.51 219.855 397.75 220.392 397.75C 221.368 397.75 222.16 396.958 222.16 395.982C 222.16 395.494 221.962 395.052 221.642 394.732"/>
<path fill="none" stroke-width="1" stroke-linecap="round" stroke="#ffffff" stroke-linejoin="round" d="M 221.642 394.732C 221.322 394.412 220.88 394.215 220.392 394.215C 219.415 394.215 218.624 395.006 218.624 395.982C 218.624 396.422 218.784 396.823 219.049 397.133"/>
</g>
<g>
<path fill="none" stroke-width="1" stroke-linecap="round" stroke="#7fbfff" stroke-linejoin="round" d="M 213.862 402.963C 214.186 403.341 214.667 403.58 215.204 403.58C 216.181 403.58 216.972 402.789 216.972 401.812C 216.972 401.324 216.774 400.882 216.454 400.562"/>
<path fill="none" stroke-width="1" stroke-linecap="round" stroke="#ffffff" stroke-linejoin="round" d="M 216.454 400.562C 216.134 400.243 215.692 400.045 215.204 400.045C 214.228 400.045 213.436 400.836 213.436 401.812C 213.436 402.252 213.597 402.654 213.862 402.963"/>
</g>
<g>
<path fill="none" stroke-width="1" stroke-linecap="round" stroke="#7fbfff" stroke-linejoin="round" d="M 187.799 390.883C 188.124 391.26 188.605 391.5 189.142 391.5C 190.118 391.5 190.91 390.708 190.91 389.732C 190.91 389.244 190.712 388.802 190.392 388.482"/>
<path fill="none" stroke-width="1" stroke-linecap="round" stroke="#ffffff" stroke-linejoin="round" d="M 190.392 388.482C 190.072 388.162 189.63 387.965 189.142 387.965C 188.165 387.965 187.374 388.756 187.374 389.732C 187.374 390.172 187.534 390.573 187.799 390.883"/>
</g>
<g>
<path fill="none" stroke-width="1" stroke-linecap="round" stroke="#7fbfff" stroke-linejoin="round" d="M 191.237 398.588C 191.561 398.966 192.042 399.205 192.579 399.205C 193.556 399.205 194.347 398.414 194.347 397.438C 194.347 396.949 194.149 396.507 193.829 396.188"/>
<path fill="none" stroke-width="1" stroke-linecap="round" stroke="#ffffff" stroke-linejoin="round" d="M 193.829 396.188C 193.509 395.868 193.067 395.67 192.579 395.67C 191.603 395.67 190.811 396.461 190.811 397.438C 190.811 397.877 190.972 398.279 191.237 398.588"/>
</g>
<g>
<path fill="none" stroke-width="1" stroke-linecap="round" stroke="#7fbfff" stroke-linejoin="round" d="M 195.987 404.088C 196.311 404.466 196.792 404.705 197.329 404.705C 198.306 404.705 199.097 403.914 199.097 402.938C 199.097 402.449 198.899 402.007 198.579 401.688"/>
<path fill="none" stroke-width="1" stroke-linecap="round" stroke="#ffffff" stroke-linejoin="round" d="M 198.579 401.688C 198.259 401.368 197.817 401.17 197.329 401.17C 196.353 401.17 195.561 401.961 195.561 402.938C 195.561 403.377 195.722 403.779 195.987 404.088"/>
</g>
<g>
<path fill="none" stroke-width="1" stroke-linecap="round" stroke="#ffffff" stroke-linejoin="round" d="M 133.225 255.333L 158.892 257"/>
<path fill="none" stroke-width="1" stroke-linecap="round" stroke="#7fbfff" stroke-linejoin="round" d="M 133.6 255.938L 159.267 257.604"/>
</g>
<g>
<path fill="none" stroke-width="1" stroke-linecap="round" stroke="#ffffff" stroke-linejoin="round" d="M 133.558 259.906L 159.225 261.573"/>
<path fill="none" stroke-width="1" stroke-linecap="round" stroke="#7fbfff" stroke-linejoin="round" d="M 133.933 260.51L 159.6 262.177"/>
</g>
<g>
<path fill="none" stroke-width="1" stroke-linecap="round" stroke="#ffffff" stroke-linejoin="round" d="M 133.281 265.029L 159.001 265.167"/>
<path fill="none" stroke-width="1" stroke-linecap="round" stroke="#7fbfff" stroke-linejoin="round" d="M 133.691 265.609L 159.411 265.748"/>
</g>
<g>
<path fill="none" stroke-width="1" stroke-linecap="round" stroke="#7fbfff" stroke-linejoin="round" d="M 157.448 292.15C 157.773 292.528 158.254 292.768 158.791 292.768C 159.767 292.768 160.558 291.976 160.558 291C 160.558 290.512 160.361 290.07 160.041 289.75"/>
<path fill="none" stroke-width="1" stroke-linecap="round" stroke="#ffffff" stroke-linejoin="round" d="M 160.041 289.75C 159.721 289.43 159.279 289.232 158.791 289.232C 157.814 289.232 157.023 290.024 157.023 291C 157.023 291.439 157.183 291.841 157.448 292.15"/>
</g>
<g>
<path fill="none" stroke-width="1" stroke-linecap="round" stroke="#7fbfff" stroke-linejoin="round" d="M 175.782 296.817C 176.106 297.195 176.587 297.434 177.124 297.434C 178.1 297.434 178.892 296.643 178.892 295.667C 178.892 295.179 178.694 294.737 178.374 294.417"/>
<path fill="none" stroke-width="1" stroke-linecap="round" stroke="#ffffff" stroke-linejoin="round" d="M 178.374 294.417C 178.054 294.097 177.612 293.899 177.124 293.899C 176.148 293.899 175.356 294.69 175.356 295.667C 175.356 296.106 175.516 296.508 175.782 296.817"/>
</g>
<g>
<path fill="none" stroke-width="1" stroke-linecap="round" stroke="#7fbfff" stroke-linejoin="round" d="M 183.115 296.817C 183.439 297.195 183.92 297.434 184.457 297.434C 185.434 297.434 186.225 296.643 186.225 295.667C 186.225 295.179 186.027 294.737 185.707 294.417"/>
<path fill="none" stroke-width="1" stroke-linecap="round" stroke="#ffffff" stroke-linejoin="round" d="M 185.707 294.417C 185.387 294.097 184.945 293.899 184.457 293.899C 183.481 293.899 182.69 294.69 182.69 295.667C 182.69 296.106 182.85 296.508 183.115 296.817"/>
</g>
<g>
<path fill="none" stroke-width="1" stroke-linecap="round" stroke="#7fbfff" stroke-linejoin="round" d="M 189.448 296.817C 189.773 297.195 190.254 297.434 190.791 297.434C 191.767 297.434 192.558 296.643 192.558 295.667C 192.558 295.179 192.361 294.737 192.041 294.417"/>
<path fill="none" stroke-width="1" stroke-linecap="round" stroke="#ffffff" stroke-linejoin="round" d="M 192.041 294.417C 191.721 294.097 191.279 293.899 190.791 293.899C 189.814 293.899 189.023 294.69 189.023 295.667C 189.023 296.106 189.183 296.508 189.448 296.817"/>
</g>
<path fill="none" stroke-width="1" stroke-linecap="round" stroke="#ffffff" stroke-linejoin="round" d="M 155.121 279.062L 156.121 285.062L 149.121 282.729L 153.121 286.729L 146.121 289.062L 153.121 289.396L 151.121 293.396L 155.121 292.396L 154.788 297.062"/>
<path fill="none" stroke-width="1" stroke-linecap="round" stroke="#7fbfff" stroke-linejoin="round" d="M 156.225 281L 157.225 287L 150.225 284.667L 154.225 288.667L 147.225 291L 154.225 291.333L 152.225 295.333L 156.225 294.333L 155.892 299"/>
<path fill="none" stroke-width="1" stroke-linecap="round" stroke="#ffbfbf" stroke-linejoin="round" d="M 285.198 398.615C 277.804 397.999 270.694 410.909 269.318 427.449C 267.942 443.988 272.82 457.895 280.214 458.51"/>
<path fill="none" stroke-width="1" stroke-linecap="round" stroke="#ff7f00" stroke-linejoin="round" d="M 284.446 397.24C 277.052 396.624 269.942 409.534 268.566 426.073C 267.19 442.613 272.068 456.52 279.463 457.135"/>
<path fill="none" stroke-width="1" stroke-linecap="round" stroke="#ffbfbf" stroke-linejoin="round" d="M 286.392 372.771L 280.392 389.771L 275.058 381.104L 270.058 398.104L 262.058 396.104L 264.058 410.771L 253.392 419.438L 261.725 433.438L 256.725 448.771L 265.392 451.438L 264.392 468.104L 272.392 460.771L 275.058 475.771"/>
<path fill="none" stroke-width="1" stroke-linecap="round" stroke="#ff7f00" stroke-linejoin="round" d="M 287.558 374.667L 281.558 391.667L 276.225 383L 271.225 400L 263.225 398L 265.225 412.667L 254.558 421.333L 262.892 435.333L 257.892 450.667L 266.558 453.333L 265.558 470L 273.558 462.667L 276.225 477.667"/>
<path fill="none" stroke-width="2" stroke="#ffdfbf" d="M 262.892 359.333L 290.225 359.333"/>
<path fill="none" stroke-width="2" stroke="#ff7f00" d="M 261.267 362.042L 288.6 362.042"/>
<path fill="none" stroke-width="1" stroke="#ff7f00" d="M 61.7876 485.417L 275.788 485.417"/>
<path fill="none" stroke-width="1" stroke="#ff7f00" d="M 276.454 481.771L 63.7876 481.771"/>
<path fill="none" stroke-width="1" stroke="#ffdfbf" d="M 275.267 486.667L 62.6001 486.667"/>
<path fill="none" stroke-width="1" stroke="#ffdfbf" d="M 275.808 483.125L 63.1418 483.125"/>
<path fill="none" stroke-width="1" stroke="#ff7f00" d="M 62.6418 477.5L 86.8918 477.5"/>
<path fill="none" stroke-width="1" stroke="#ffdfbf" d="M 62.3918 479L 86.6418 479"/>
<path fill="none" stroke-width="1" stroke="#ff7f00" d="M 62.6418 472.5L 86.8918 472.5"/>
<path fill="none" stroke-width="1" stroke="#ffdfbf" d="M 62.3918 474L 86.6418 474"/>
<path fill="none" stroke-width="1" stroke="#ff7f00" d="M 62.6418 468L 86.8918 468"/>
<path fill="none" stroke-width="1" stroke="#ffdfbf" d="M 62.3918 469.5L 86.6418 469.5"/>
</g>
<g>
<path fill="none" stroke-width="6" stroke-linecap="round" stroke="#000000" stroke-linejoin="round" d="M 147.38 306.069C 144.808 313.146 144.808 321.167 146.892 328.667C 148.892 333.333 154.225 337.333 158.892 339.333C 166.225 343.333 175.558 344 182.892 341.333C 196.047 336.071 199.234 320.84 196.059 307.116"/>
<path fill="none" stroke-width="6" stroke-linecap="round" stroke="#000000" stroke-linejoin="round" d="M 164.225 344C 159.541 366.017 154.856 388.035 148.784 409.821"/>
<path fill="none" stroke-width="6" stroke-linecap="round" stroke="#000000" stroke-linejoin="round" d="M 144.262 425.117C 142.98 429.199 141.638 433.272 140.225 437.333C 139.554 439.459 138.882 441.566 138.208 443.661"/>
<path fill="none" stroke-width="6" stroke-linecap="round" stroke="#000000" stroke-linejoin="round" d="M 135.556 451.777C 134.925 453.678 134.287 455.577 133.642 457.476"/>
<path fill="none" stroke-width="6" stroke-linecap="round" stroke="#000000" stroke-linejoin="round" d="M 151.558 406.667C 151.698 407.364 151.866 408.046 152.062 408.714"/>
<path fill="none" stroke-width="6" stroke-linecap="round" stroke="#000000" stroke-linejoin="round" d="M 157.124 418.143C 158.474 419.804 159.978 421.312 161.558 422.667C 166.192 427.687 171.945 431.365 177.52 435.385"/>
<path fill="none" stroke-width="6" stroke-linecap="round" stroke="#000000" stroke-linejoin="round" d="M 185.974 442.251C 186.984 443.224 187.961 444.247 188.892 445.333C 190.479 447.287 190.267 446.859 191.558 449"/>
<path fill="none" stroke-width="6" stroke-linecap="round" stroke="#000000" stroke-linejoin="round" d="M 156.225 365.333C 146.892 363.333 138.225 365.333 128.892 364.667C 123.558 364 117.558 362.667 112.225 364.667C 113.621 364.143 111.558 353.333 111.558 353.333L 101.558 353.333C 101.558 353.333 104.225 362 103.558 367.333L 103.558 366.667"/>
<path fill="none" stroke-width="6" stroke-linecap="round" stroke="#000000" stroke-linejoin="round" d="M 95.5585 286.667C 95.5585 293.239 97.8694 318.122 100.804 347.943"/>
<path fill="none" stroke-width="6" stroke-linecap="round" stroke="#000000" stroke-linejoin="round" d="M 103.592 375.997C 106.448 404.581 109.398 433.895 111.189 454.032"/>
<path fill="none" stroke-width="6" stroke-linecap="round" stroke="#000000" stroke-linejoin="round" d="M 94.8918 359.333C 94.2251 359.333 93.5585 359.333 93.5585 359.333C 92.8918 365.333 96.2251 376.667 96.2251 376.667C 96.2251 376.667 111.558 377.333 114.225 375.333C 116.892 373.333 113.558 368.667 114.225 364.667"/>
<path fill="none" stroke-width="6" stroke-linecap="round" stroke="#000000" stroke-linejoin="round" d="M 176.225 310.667C 176.225 313.333 174.892 316.667 175.558 319.333"/>
<path fill="none" stroke-width="6" stroke-linecap="round" stroke="#000000" stroke-linejoin="round" d="M 185.558 313.333C 185.558 316 185.558 318 185.558 320.667"/>
<path fill="none" stroke-width="4" stroke-linecap="round" stroke="#000000" stroke-linejoin="round" d="M 162.892 328C 162.892 330.667 166.892 334 168.225 334C 173.558 334.667 178.225 336 183.558 334"/>
<path fill="none" stroke-width="6" stroke-linecap="round" stroke="#000000" stroke-linejoin="round" d="M 82.8501 307.021C 88.1835 303.021 93.5168 284.354 91.5168 291.021C 89.5168 297.688 94.2251 280.667 94.8501 267.021C 96.8918 278.667 99.5168 283.021 103.517 288.354C 107.517 293.688 108.85 297.021 116.183 299.021"/>
<path fill="none" stroke-width="6" stroke-linecap="round" stroke="#000000" stroke-linejoin="round" d="M 217.955 409.204C 219.935 407.621 222.413 405.187 224.892 402C 233.32 391.164 236.225 375.333 231.558 361.333C 229.375 354.783 215.247 346.065 206.225 346.667C 196.912 347.288 188.892 352.667 184.225 359.333C 178.225 366.667 179.558 377.333 180.892 386.667C 181.373 389.557 183.367 397.198 185.944 401.972"/>
<path fill="none" stroke-width="6" stroke-linecap="round" stroke="#000000" stroke-linejoin="round" d="M 158.892 378.667C 164.892 378.667 170.225 378.667 176.225 378.667"/>
<path fill="none" stroke-width="6" stroke-linecap="round" stroke="#000000" stroke-linejoin="round" d="M 131.225 272.667C 131.225 265.333 130.892 249.333 130.892 249.333C 130.892 249.333 136.558 250 139.225 250C 148.897 250 167.892 251.333 167.892 251.333C 167.892 251.333 170.558 266.333 170.225 274C 170.225 284.667 168.225 316.667 168.225 316.667L 156.892 317.667L 157.225 301C 157.225 301 147.225 300.667 144.892 299C 142.008 296.94 141.225 294.694 141.225 290.667C 141.225 286 141.225 285 145.892 281C 146.892 280.333 157.225 279 158.558 279.333C 158.558 278.667 157.892 272.333 157.892 271.667L 131.225 272.667z"/>
<path fill="none" stroke-width="6" stroke-linecap="round" stroke="#000000" stroke-linejoin="round" d="M 170.892 279.667C 181.558 279.333 181.971 280.146 186.892 282.333C 189.892 283.667 191.558 284.667 193.225 287.667C 196.143 292.92 197.779 296.015 197.225 302.667C 190.558 304.667 172.225 302.333 172.225 302.333"/>
</g>
<g>
<path fill="none" stroke-width="6" stroke-linecap="round" stroke="#000000" stroke-linejoin="round" d="M 206.616 444.136C 210.84 442.655 214.532 441.058 217.558 439.333C 245.601 423.352 251.558 388.667 262.892 350L 290.892 350L 276.892 492L 254.225 492"/>
<path fill="none" stroke-width="6" stroke-linecap="round" stroke="#000000" stroke-linejoin="round" d="M 243.558 492L 219.558 492"/>
<path fill="none" stroke-width="6" stroke-linecap="round" stroke="#000000" stroke-linejoin="round" d="M 202.225 492L 191.558 492"/>
<path fill="none" stroke-width="6" stroke-linecap="round" stroke="#000000" stroke-linejoin="round" d="M 168.892 492L 166.225 492"/>
<path fill="none" stroke-width="6" stroke-linecap="round" stroke="#000000" stroke-linejoin="round" d="M 147.558 492L 117.558 492"/>
<path fill="none" stroke-width="6" stroke-linecap="round" stroke="#000000" stroke-linejoin="round" d="M 107.558 492L 60.8918 492L 60.8918 464C 69.5697 463.062 87.6955 461.917 108.897 460.059"/>
<path fill="none" stroke-width="6" stroke-linecap="round" stroke="#000000" stroke-linejoin="round" d="M 119.942 459.047C 127.609 458.311 134.012 457.95 141.892 457"/>
<path fill="none" stroke-width="6" stroke-linecap="round" stroke="#000000" stroke-linejoin="round" d="M 153.392 455.5C 157.095 455.009 159.331 454.437 162.95 453.887"/>
<path fill="none" stroke-width="6" stroke-linecap="round" stroke="#000000" stroke-linejoin="round" d="M 170.392 452.5C 173.223 452.033 174.66 451.968 177.384 451.459"/>
<path fill="none" stroke-width="6" stroke-linecap="round" stroke="#000000" stroke-linejoin="round" d="M 186.392 450C 190.108 449.219 191.791 448.443 195.168 447.568"/>
<path fill="none" stroke-width="6" stroke-linecap="round" stroke="#000000" stroke-linejoin="round" d="M 278.892 448L 449.558 409.333"/>
</g>
<g>
<path fill="none" stroke-width="6" stroke-linecap="round" stroke="#000000" stroke-linejoin="round" d="M 185.192 549.596C 223.463 549.596 254.488 518.571 254.488 480.3C 254.488 442.029 223.463 411.004 185.192 411.004C 146.921 411.004 115.895 442.029 115.895 480.3C 115.895 518.571 146.921 549.596 185.192 549.596z"/>
<path fill="none" stroke-width="4" stroke-linecap="round" stroke="#000000" stroke-linejoin="round" d="M 185.188 419.967L 185.188 540.633"/>
<path fill="none" stroke-width="4" stroke-linecap="round" stroke="#000000" stroke-linejoin="round" d="M 155.023 428.05L 215.354 532.55"/>
<path fill="none" stroke-width="4" stroke-linecap="round" stroke="#000000" stroke-linejoin="round" d="M 132.94 450.132L 237.437 510.468"/>
<path fill="none" stroke-width="4" stroke-linecap="round" stroke="#000000" stroke-linejoin="round" d="M 124.856 480.297L 245.521 480.303"/>
<path fill="none" stroke-width="4" stroke-linecap="round" stroke="#000000" stroke-linejoin="round" d="M 132.938 510.463L 237.439 450.137"/>
<path fill="none" stroke-width="4" stroke-linecap="round" stroke="#000000" stroke-linejoin="round" d="M 155.019 532.547L 215.358 428.053"/>
</g>
<g>
<path fill="none" stroke-width="8" stroke="#0000ff" stroke-linejoin="bevel" d="M 166.816 37.9727L 126.796 110.93L 85.3703 37.9727"/>
<path fill="none" stroke-width="8" stroke="#0000ff" stroke-linejoin="bevel" d="M 185.893 36.0014L 185.893 111.999"/>
<path fill="none" stroke-width="8" stroke="#0000ff" stroke-linejoin="bevel" d="M 225.892 36.0014L 225.892 111.999"/>
</g>
</svg>