<svg xmlns="http://www.w3.org/2000/svg"
	xmlns:xlink="http://www.w3.org/1999/xlink"
	viewBox="0.5 0.13 577 792"
	width="579.5" height="792.625">
<g id="scene">
    <set attributeName="opacity" to="1" 
		    fill="freeze" begin="btn1.click"/>
    <set attributeName="opacity" to="0" 
		    fill="freeze" begin="btn2.click"/>
    <set attributeName="opacity" to="0" 
		    fill="freeze" begin="scene.load"/>
<g>
<path fill="#ff7f00" stroke="none" d="M 577.5 792.125L 577.5 0.125L 0.5 0.125L 0.5 792.125L 577.5 792.125z"/>
</g>
<g>
<path fill="#bfffff" stroke="none" d="M 0.375 0L 489.125 0L 540 47.875L 541.75 69.625L 502.381 139.472L 489.581 193.998L 467.5 188.125L 435.5 204.125L 435.5 222.125L 410.375 279.375L 382.75 285.625L 329.625 352.125L 335.5 376.125L 315.5 442.125L 312.25 468.125L 292.625 465.625L 287.5 491.375L 255.5 496.125L 214.875 549.375L 194.875 547.5L 173.125 575.375L 172.25 588L 155.5 596.125L 139.5 654.125L 115.5 682.125L 111.5 736.125L 97.5 760.125L 83.5 792.125L 0 792.625L 0.375 0z"/>
<path fill="#ffffff" stroke="none" d="M 75.375 70.125C 75.375 70.125 51.5 96.125 55.5 122.125C 59.5 148.125 83.375 188.875 83.375 188.875C 83.375 188.875 125.5 194.125 159.5 192.125C 193.5 190.125 193.5 188.125 223.5 188.125C 253.5 188.125 261.5 190.125 289.5 186.125C 317.5 182.125 377.5 172.125 403.5 172.125C 429.5 172.125 453.5 156.125 459.5 158.125C 465.5 160.125 417.5 162.125 417.5 162.125L 361.5 170.125L 312 167.75L 311.375 159.125L 282.5 158.5L 274.75 144.875L 174.375 129.5C 174.375 129.5 177.5 105.125 171.5 101.625C 165.5 98.125 151.875 97 151.875 97C 151.875 97 164 73.375 148.75 73.75C 133.5 74.125 103.5 82.25 103.5 82.25C 103.5 82.25 103.25 64.625 94.375 64.375C 85.5 64.125 75.375 70.125 75.375 70.125z"/>
<path fill="#ffbfff" stroke="none" d="M 71.125 164.875C 50.125 138.25 53.625 95.5 75.375 70.125C 79.75 64.875 87.375 63.25 94.375 64.375C 100.5 65.25 102.875 72.25 103.5 78L 103.5 82.25L 104.125 80.75L 100.875 84.5C 100.25 85.125 100 86 100.375 86.875C 100.75 88 102 88.5 103.125 88.125L 104.875 87.375C 116 81.625 127 76 139.75 75.125C 150.375 74.25 151.875 86.375 153 94.375L 151.875 97L 152.625 96L 151.5 96.875L 151.5 96.875L 150.25 98C 149.375 98.75 149.125 100.125 149.75 101.125C 150.5 102.25 152 102.625 153.125 101.875L 154.875 100.75C 160.5 98.625 166 100 171.5 101.625L 176 103L 174.25 101.75L 176 104.875C 177.625 109.875 176.5 115.125 174.75 119.875L 172.25 124.25C 172.125 124.625 172.125 125 172.125 125.375L 172.625 127.625C 172.75 128.625 173.5 129.25 174.375 129.5L 177.25 130.25C 180.5 130.625 183.75 130.375 187.125 130.75C 192.25 131.25 195.625 136.5 201.125 136.25C 226 135.375 250.375 138.125 274.75 144.875C 280.5 146.625 279.375 154.125 282.5 158.5L 283.125 159.625L 284.625 155.375L 282.125 156.25L 282 156.25L 279.75 157C 279.125 157.25 278.5 157.75 278.25 158.375L 277.25 160.25C 277.125 160.5 277 160.75 277 161.125C 276.75 162.625 277.75 164.125 279.25 164.375L 281.875 164.875C 292 164.625 301.625 160.875 311.75 160.5L 313.75 160.75L 311.375 159.125L 312.375 161.25L 312.125 159.75L 311.75 162.625L 311.75 162.125L 311 164.625C 310.625 165.75 311 167 312 167.75L 314.625 169.75C 315.125 170.125 315.5 170.375 316 170.375L 319.125 170.75C 340.5 171.25 361.875 172.125 383.375 170.375C 401.5 168.75 419.25 167.375 437.5 166.5C 440.125 166.375 441.875 163.375 441.625 160.125C 442.125 159 441.5 157.625 440.375 157.125C 439.125 156.75 437.875 157.25 437.375 158.375C 435.75 159.375 434.125 160.875 432.5 161C 416 161.25 399.75 163.25 383.375 164.625C 362.875 166.375 342.5 165.375 322 165.125L 316.75 164.75L 318.125 165.25L 315.5 163.25L 316.375 166.375L 317.25 163.875C 317.25 163.75 317.25 163.625 317.375 163.5L 317.75 160.625C 317.875 160.125 317.75 159.5 317.625 159L 316.625 156.875C 316.25 155.875 315.375 155.25 314.25 155.125L 306.375 155.5C 300.25 155.5 294.625 158.25 288.625 158.5L 280.25 158.875L 282.25 162.875L 283.25 161L 281.625 162.375L 283.875 161.625L 283.875 161.625L 286.375 160.875C 286.625 160.75 286.75 160.625 287 160.5C 288.375 159.75 288.75 158 287.875 156.625L 285.625 152.5C 284.5 147.125 281.625 141.25 276.25 139.75C 251.625 132.875 227.25 131.375 202.25 131C 194.75 130.875 189.25 123.5 181.125 125.5L 175.625 124.75L 177.5 126.625L 177 124.5L 176.375 126.625L 179.375 121.625C 181.125 116.5 182.25 111.25 181.125 105.875L 178.625 99.5C 178.375 99 177.875 98.625 177.5 98.5L 172.875 97L 173 97C 168.375 94.625 163.25 95.25 158.375 94.625L 150.5 97.75L 153.5 101.625L 154.75 100.5L 154.75 100.5L 155.75 99.625C 156.125 99.25 156.375 98.875 156.5 98.375L 157.75 93.875C 156.875 86.125 155.375 77.875 148.75 73.75C 134.875 64.875 118.375 75.375 105.75 82.75L 101.625 84.125L 102.5 84L 105.75 85C 105.875 84.625 106.125 84.375 106.25 84L 106.875 83.625C 107.375 83.25 107.5 82.75 107.5 82.25L 107.5 77.375C 106.5 71.75 105.125 66.375 99.875 63.125C 88 55.75 73.375 63.25 67.25 74.125C 51.75 101.875 47.625 141 70.25 165.75C 70.5 165.875 70.875 165.875 71.125 165.75C 71.25 165.5 71.25 165.125 71.125 164.875L 71.125 164.875z"/>
<path fill="#ffbfff" stroke="none" d="M 83.375 188.875C 121.625 192 159.875 197.25 198.75 192.625C 232.625 188.5 265.875 191.625 299.75 189C 300.75 188.875 301.625 187.375 302.625 186.5C 303.875 186 304.375 184.625 303.875 183.5C 303.375 182.25 302.125 181.75 300.875 182.25C 266.75 186.125 232 183.5 197.5 186C 192 186.375 186.75 188.625 181.375 188.875C 148.625 191 116.25 188.125 83.625 187.375C 83.125 187.375 82.875 187.625 82.75 188C 82.75 188.5 83 188.75 83.375 188.875L 83.375 188.875z"/>
</g>
<g>
<path fill="#ffff3f" stroke="none" d="M 513.5 24.125L 561.5 52.125L 571.5 72.125L 557.5 84.125L 565.5 114.125L 553.5 122.125L 531.5 126.125L 549.5 114.125L 535.5 76.125L 543.5 70.125L 537.5 48.125L 513.5 24.125z"/>
<path fill="#ffff3f" stroke="none" d="M 529.833 130.458L 529.167 193.125L 487.5 202.125L 469.833 196.792L 451.5 206.125L 421.5 274.125L 445.5 274.688L 391.625 280.125L 335.625 353.562L 399.5 352.125L 377.5 380.125L 344 385.812L 324 435.812L 355.5 442.125L 351.5 478.125L 321.5 504.125L 317.5 450.125L 323.5 414.125L 337.5 382.125L 329.5 352.125L 359.5 314.125L 375.5 284.125L 399.5 276.125L 413.5 274.125L 421.5 246.125L 435.5 220.125L 438.5 202.792L 470.167 187.792L 487.5 188.125L 499.5 156.125L 498.167 141.125L 529.833 130.458z"/>
<path fill="#ffff3f" stroke="none" d="M 173.5 574.125L 211.5 580.125L 197.5 594.125L 169.5 588.125L 173.5 574.125z"/>
<path fill="#ffbf7f" stroke="none" d="M 231.688 531.188L 267.688 537.188L 262.812 558.062L 212.812 544.062L 179.5 578.125L 173.5 568.125L 191.5 542.125L 211.5 548.125L 231.688 531.188z"/>
<path fill="#ffff3f" stroke="none" d="M 147.5 612.125L 175.5 624.125L 167.5 656.125L 145.5 654.125C 145.5 654.125 123.5 682.125 121.5 690.125C 119.5 698.125 119.5 708.125 119.5 708.125L 139.5 710.125L 113.5 738.125C 113.5 738.125 103.5 710.125 109.5 696.125C 115.5 682.125 137.5 658.125 137.5 658.125L 147.5 612.125z"/>
<path fill="#ffbf7f" stroke="none" d="M 361.5 522.125L 383.5 526.125L 381.5 544.125L 349.5 562.125L 353.5 540.125L 361.5 522.125z"/>
<path fill="#ffff3f" stroke="none" d="M 329.5 516.125L 365.5 478.125L 369.5 490.125L 387.5 478.125L 391.5 496.125L 391.5 508.125L 497.5 550.125L 553.5 546.125L 579.5 514.125L 579.5 422.125C 579.5 422.125 569.5 430.125 529.5 430.125C 489.5 430.125 431.5 424.125 411.5 418.125C 391.5 412.125 375.5 402.125 369.5 406.125C 363.5 410.125 353.5 404.125 353.5 414.125C 353.5 424.125 351.5 478.125 351.5 478.125L 327.5 502.125L 329.5 516.125z"/>
<path fill="#ffff3f" stroke="none" d="M 393.5 370.125C 393.5 370.125 429.5 356.125 455.5 364.125C 481.5 372.125 529.5 382.125 537.5 378.125C 545.5 374.125 553.5 342.125 553.5 342.125C 553.5 342.125 531.5 330.125 497.5 334.125C 463.5 338.125 411.5 334.125 411.5 334.125L 399.5 352.125L 393.5 370.125z"/>
<path fill="#ffff3f" stroke="none" d="M 533.5 186.125L 537.5 152.125L 575.5 140.125L 575.5 182.125L 533.5 186.125z"/>
<path fill="#ffff3f" stroke="none" d="M 493.5 2.125L 573.5 0.125L 575.5 32.125L 537.5 48.125L 493.5 2.125z"/>
<path fill="#ffff3f" stroke="none" d="M 436.5 215.125L 481 220.125L 487.125 231.188L 438.125 224.188L 436.5 215.125z"/>
<path fill="#ffff3f" stroke="none" d="M 416 264.625L 450 266.125L 433.5 278.125L 408.5 276.625L 416 264.625z"/>
<path fill="#ffff3f" stroke="none" d="M 291.5 470.125L 327.5 484.125L 321.5 510.125L 287.5 490.125L 291.5 470.125z"/>
<path fill="#ffff3f" stroke="none" d="M 175.5 624.125L 195.5 620.125L 177.5 656.125L 161.5 652.125L 175.5 624.125z"/>
<path fill="#ffff3f" stroke="none" d="M 155.5 718.125L 161.5 702.125L 287.5 696.125L 273.5 744.125L 155.5 718.125z"/>
<path fill="#ffff3f" stroke="none" d="M 85.5 790.125L 95.5 760.125L 213.5 792.125L 85.5 790.125z"/>
<path fill="#ffff3f" stroke="none" d="M 289.5 712.125C 289.5 712.125 371.5 736.125 415.5 734.125C 459.5 732.125 543.5 732.125 555.5 736.125C 567.5 740.125 577.5 750.125 577.5 750.125L 577.5 792.125L 329.5 792.125C 329.5 792.125 307.5 782.125 289.5 774.125C 271.5 766.125 263.5 760.125 263.5 760.125C 263.5 760.125 273.5 746.125 275.5 734.125C 277.5 722.125 289.5 712.125 289.5 712.125z"/>
<path fill="#ffff3f" stroke="none" d="M 351.5 590.125L 355.5 578.125C 355.5 578.125 369.5 570.125 383.5 572.125C 397.5 574.125 413.5 592.125 413.5 592.125L 351.5 590.125z"/>
</g>
<g>
<path fill="#7f0000" stroke="none" d="M 85.75 786.375C 95.375 757.5 120.875 740.875 141.75 720.625C 154.125 689.5 175.125 665.375 194.125 636.375C 197.625 630.875 198.75 625.125 202.125 619.625C 209.75 607.375 220.25 599.875 231.625 592.25C 232.625 591.5 232.875 590.125 232.125 589.125C 231.375 588.125 230 587.875 229 588.625C 209.5 596.125 197.625 613.875 187.875 632.25C 172.125 661.625 148 684.875 137.25 716.5C 127.125 727.875 114.875 736.375 104.125 747.5C 93.625 758.375 89.5 772.375 84.375 785.875C 84.25 786.25 84.5 786.625 84.875 786.75C 85.25 787 85.625 786.75 85.75 786.375L 85.75 786.375z"/>
<path fill="#7f0000" stroke="none" d="M 230 614.25C 240.375 587.125 266.5 567.75 269.125 538L 269.5 535.75L 268.625 536.875L 268.875 536.625C 272.375 534.875 276.25 535 280.125 534.25C 286.875 533.125 289 524.875 295.25 523.25C 301 521.75 307.125 523.5 313.125 522.625C 315.375 522.25 317.875 521.125 319.375 519.25C 330.625 505 339.625 489.875 355.875 481.75C 360.75 461.375 359.5 440.375 357.5 419.625C 357 414 358.25 407 361.25 402.125C 371.25 386.375 389.25 381 400.125 364.875C 406.625 355.25 405.75 344.125 411.875 334.875C 424.375 316.125 434.625 299.5 446.5 280.5C 456.375 264.75 471 256.125 484 243.875C 514.845 214.498 519.107 206.509 547.125 186.625C 548.375 185.625 548.5 183.75 547.5 182.5C 546.5 181.25 544.75 181 543.5 182C 518.755 199.449 538.415 180.69 515.625 204.5C 492.625 228.5 467 246.375 445.5 272.125C 434.625 285.25 428.625 299.625 419 314.125C 415.125 320 410 324 406.625 330.125C 400.375 341.5 401.375 354.875 392.5 365.125C 381.375 378 365.125 383.75 356.5 398.375C 352.25 405.875 349.875 415 351.875 423.375C 356.125 441.875 350.625 458.625 353 476.375C 336.5 485.625 327.25 501.875 314.5 515.25C 308.875 521 297 514.125 290.75 520.5C 283.875 527.5 277.125 529.5 268.5 532.5L 266.25 533.125C 265.625 533.5 265.25 534.125 265.25 534.875L 264.75 537.625C 262.5 542.25 264.5 547.5 262.625 551.875C 253.5 573.875 235.875 591.125 229 614C 228.875 614.25 229 614.5 229.375 614.625C 229.625 614.75 229.875 614.625 230 614.25L 230 614.25z"/>
<path fill="#7f0000" stroke="none" d="M 321 498.625C 323.5 476 316.25 454.125 320.75 431.125C 324.125 413.375 334.25 399.25 338.875 382C 341.375 372.625 333.75 364.625 334.625 355.375C 335.125 350.625 337.625 345.875 341.125 342.25C 358 324.875 370 305.5 382.75 285.625C 392.75 285.875 400.25 277.5 410.375 279.375L 412.375 279.25C 413.25 279.25 414.25 278.875 414.75 278.125L 417.25 274.5C 420.125 247 437.25 239.75 439.5 212.125C 439.75 209 440.625 205.875 442.625 203.375C 448.625 195.875 468.939 189.944 479.27 190.963L 483.846 195.367C 484.68 195.732 485.547 195.849 486.357 195.454L 489.581 193.998C 501.696 178.104 503.634 158.184 502.381 139.472C 511.352 121.639 523.467 105.745 532.191 87.8779C 532.854 86.7062 532.543 85.2766 531.371 84.6136C 530.323 83.9673 528.894 84.2785 528.231 85.4502C 516.437 101.766 507.201 119.69 496.563 136.793C 498.107 154.283 494.087 170.011 488.926 186.719L 484.088 189.849L 487.185 190.268L 483.071 186.18C 465.776 180.687 432.75 197 432.625 215.625C 432.5 240.375 412 245.125 411.875 270L 409.875 274.25L 412.25 273L 406.625 273.125C 388 275 371.5 284 364.25 302.625C 356.75 321.75 336.375 332.125 329.625 352.125C 326.25 362.25 335.375 370.625 333.375 380.5C 329.875 398.75 317.75 412.75 315.5 431C 312.625 453.875 317.375 475.875 319.625 498.375C 319.5 498.75 319.75 499.125 320.125 499.25C 320.5 499.25 320.875 499 321 498.625L 321 498.625z"/>
<path fill="#7f0000" stroke="none" d="M 495 4.625C 489.125 9.625 538.019 41.9954 537.02 50.3115C 536.139 57.7606 542.693 64.3234 539.887 72.0165L 539.82 72.512L 540.657 70.9854L 539.656 71.8591L 540.623 71.2332L 536.12 71.8854C 535.856 71.9758 535.715 72.0829 535.575 72.19L 533.201 73.8871C 532.779 74.2084 532.481 74.5465 532.29 75.0253L 531.211 77.4021C 530.88 77.988 530.903 78.748 531.067 79.4008L 531.931 81.4097C 535.99 92.4283 539.622 102.884 545.589 113.783C 546.091 114.733 544.434 117.663 542.847 118.205C 536.64 120.266 529.528 124.35 530.026 131.859C 529.718 133.205 530.665 134.595 532.028 134.779C 533.373 135.087 534.763 134.14 534.947 132.777C 535.396 131.324 535.631 129.59 536.648 128.593C 542.177 123.16 553.627 122.438 551.207 113.281C 548.681 103.984 542.873 95.6298 539.198 86.4292L 536.481 77.6104L 536.337 79.6091L 537.415 77.2322L 536.364 78.4775L 538.738 76.7804L 536.903 77.2891L 540.967 77.0821C 541.389 76.7607 541.687 76.4226 542.109 76.1013L 544.416 74.8997C 544.855 74.4544 545.186 73.8686 545.27 73.2493L 545.907 68.5422C 546.581 61.6957 540.281 56.0503 542.351 49.1405C 544.196 42.9571 495.125 11.75 496 5.25C 496.25 5 496.125 4.625 495.875 4.375C 495.5 4.25 495.125 4.25 495 4.625L 495 4.625z"/>
<path fill="#7f0000" stroke="none" d="M 114.125 723.875C 105.125 698.875 122.75 676.375 139.125 659.375C 144.625 644 144.75 627.5 150.625 612C 155 600.625 163.5 595.875 172.25 588C 173.75 586.625 173.75 583.75 174.375 581.375L 173.125 575.375L 172.625 578L 182 565.125C 186.375 559.25 190.625 553.375 194.875 547.5L 196 546L 191.875 546.75L 193.125 547.625C 199.625 551.375 208.375 553.5 214.875 549.375C 241.25 532.75 247.125 493.375 281.375 492.5L 287.5 491.375L 284.375 490.25L 286.625 493L 286 491.5L 286.375 493.875L 290.375 490.25L 288.25 489.625L 289.875 490.625L 288 488.5L 288.75 490.5L 288.5 488.875C 291.125 483 289.75 476.375 291.875 470.375L 292.625 465.625L 289.5 468.125L 290.75 467.75C 296.375 471 303.125 471.875 309.5 470.875C 311 470.875 312.25 469.625 312.25 468.125C 312.25 466.625 311 465.375 309.5 465.375C 306.125 465.125 302.625 464.875 299.25 464.625L 289.5 461.875C 287.875 461.875 286.5 463.125 286.375 464.75L 285.875 468.375C 283.375 473.75 284.875 479.625 283.125 485.125L 282.375 490.625C 282.375 491.375 282.625 492.125 283.125 492.625L 285 494.75C 285.375 495.25 286 495.625 286.5 495.75L 288.625 496.375C 289 496.5 289.5 496.5 290 496.5C 291.75 496.125 292.875 494.5 292.625 492.75L 292.25 490.5C 292.125 489.875 291.875 489.375 291.5 489L 289.375 486.25C 288.625 485.375 287.5 484.875 286.375 485.125L 280 486.375C 270.25 489.625 259.125 488.125 251.125 497C 237.5 512.125 228.875 529.875 213.375 543.375C 209.5 546.75 204.125 544.625 199.375 544.125L 195.125 541.5C 193.75 540.5 191.875 540.875 191 542.25L 187.875 546.375C 186.875 549.5 184.375 551.375 182.625 553.875L 167.625 574.375C 167.125 575.125 167 576.125 167.25 577L 168.125 583.125C 168.25 582.875 168.375 582.75 168.5 582.5C 167.875 583.75 167.625 585.5 166.625 586C 140.25 598.5 141.5 632 135 656.25C 118.75 673.75 97.625 700.125 112.875 724.375C 113 724.75 113.375 724.875 113.75 724.75C 114.125 724.625 114.25 724.25 114.125 723.875L 114.125 723.875z"/>
<path fill="#7f0000" stroke="none" d="M 344.125 589.125C 342.875 584.5 342.75 580 344.125 575.375L 344.625 573.5L 344 574.625L 346.75 572.625C 356.125 564.625 365.375 556.625 377.25 552.125C 380.375 551 383.125 548.625 384.875 545.75C 388 540.625 385.375 534.375 387.875 529C 391.75 520.875 396.875 512.75 396 503.625C 395.375 497 393 490.625 394.5 483.875L 394.625 479C 394.625 477.625 393.75 476.5 392.625 476L 390.625 475.25C 390.25 475.125 389.875 475.125 389.5 475.125L 387.625 475.125C 386.625 475.125 385.625 475.625 385.125 476.5L 384.25 478.375C 367.5 490.625 355.25 508.75 350.25 528.875C 347.375 540.875 341.5 557.25 353.375 566.375C 354 567.125 355.125 567.25 355.875 566.625C 356.75 566 356.875 564.875 356.25 564.125C 345.625 536.875 363.5 506.5 382.75 487.25L 390.25 479.75L 387.625 481.125L 389.5 481.25L 388.375 481L 390.375 481.75L 388.375 478.875L 388.375 483.375C 388.375 483.25 388.375 483.25 388.375 483.125C 386.875 489.5 388.125 494.875 389.625 501.25C 392.375 512.5 383.125 521 380.625 532C 380 535.25 381.5 539.5 380.125 541.25C 370.75 552.625 355.5 555.5 346.625 567.5L 341.625 571.625C 341.25 571.875 341 572.25 341 572.625L 339.625 577.125C 339.75 577 339.875 576.75 340 576.625C 340.25 581.125 340.875 585.375 342.875 589.5C 343 589.875 343.375 590.125 343.625 590C 344 589.875 344.25 589.5 344.125 589.125L 344.125 589.125z"/>
<path fill="#7f0000" stroke="none" d="M 302.75 697.5C 299.625 696.75 296.5 697 293.5 697.875L 289.25 698.125C 288.875 698.25 288.625 698.375 288.375 698.625L 287.5 699.375C 271.75 724 274.625 762.5 242.375 774.625C 239.25 775.75 237.125 779.375 235.5 782.75C 234.75 783.75 235 785.375 236.125 786.125C 237.125 786.875 238.75 786.625 239.5 785.5C 241.75 783.875 243.125 780.875 245.25 779.875C 275.625 766 279.625 731 289 703.375L 291.125 701.625L 290 702.125L 294.5 701.375C 296.625 698.75 300 699.625 302.75 698.75C 303 698.75 303.375 698.5 303.375 698.125C 303.375 697.75 303 697.5 302.75 697.5L 302.75 697.5z"/>
<path fill="#bfffff" stroke="none" d="M 527.5 34.125"/>
</g>
<g>
<path fill="#ffdfbf" stroke="none" d="M 217.5 223.625L 246 220.625L 277.5 226.625L 285 268.625L 283.5 307.625L 255 313.625L 226.5 307.625C 226.5 307.625 208.5 289.625 207 276.125C 205.5 262.625 217.5 223.625 217.5 223.625z"/>
<path fill="#3f9f9f" stroke="none" d="M 201.167 363.125L 246.167 364.792C 246.167 364.792 240.5 402.125 234.167 413.125C 227.833 424.125 219.167 441.458 206.833 441.125C 194.5 440.792 184.833 439.458 185.167 424.125C 185.5 408.792 201.167 363.125 201.167 363.125z"/>
</g>
<g>
<path fill="none" stroke-width="6" stroke="#007f7f" d="M 261.427 220.292C 245.076 218.143 231.623 223.715 215.5 223.554C 204.101 247.007 205.081 273.066 213.781 296.224C 224.695 321.142 259.775 311.073 283.619 308.335C 292.802 283.122 283.646 255.99 280.679 230.159C 279.995 224.198 270.516 229.313 268.073 225.568"/>
<path fill="none" stroke-width="6" stroke="#007f7f" d="M 248.538 318.403C 251.21 324.136 259.5 312.125 261.5 316.125C 263.5 332.125 263.5 332.125 259.5 348.125C 257.5 360.125 249.5 368.125 247.5 380.125C 237.5 418.125 229.5 452.125 219.5 488.125C 213.911 508.244 217.5 532.125 209.5 552.125C 199.5 574.125 189.5 596.125 179.5 618.125C 177.5 624.125 173.5 630.125 175.5 636.125C 179.5 640.125 187.5 638.125 193.5 640.125"/>
<path fill="none" stroke-width="6" stroke="#007f7f" d="M 265.5 332.125C 277.5 330.125 289.5 334.125 301.5 330.125C 323.5 324.125 360.5 322.125 382.5 316.125"/>
<path fill="none" stroke-width="6" stroke="#007f7f" d="M 259.5 348.125C 281.5 352.125 313.5 384.625 331.5 386.625"/>
<path fill="none" stroke-width="6" stroke="#007f7f" d="M 231.5 456.125C 259.5 450.125 287.5 442.125 315.5 436.125C 315.5 440.125 317.5 446.125 315.5 450.125C 303.5 470.125 301.5 490.125 293.5 512.125C 293.5 514.125 295.5 514.125 297.5 516.125"/>
<path fill="none" stroke-width="6" stroke="#007f7f" d="M 247.5 365.625C 231 365.625 216 362.625 199.5 364.125C 192 388.125 177 412.125 189 434.625C 193.5 442.125 205.5 442.125 214.5 437.625C 220.5 434.625 226.5 427.125 231 421.125C 238.5 406.125 241.5 388.125 240 371.625"/>
<path fill="none" stroke-width="6" stroke="#007f7f" d="M 223.5 370.125C 219 377.625 220.5 397.125 208.5 392.625C 204 391.125 201 386.625 195 386.625"/>
<path fill="none" stroke-width="4" stroke="#007f7f" d="M 195 425.625C 193.5 424.125 190.5 427.125 190.5 427.125C 189 436.125 184.5 445.125 181.5 454.125C 178.5 470.625 177 485.625 181.5 502.125C 181.5 502.125 190.5 503.625 190.5 500.625C 198 482.625 201 461.625 196.5 442.125C 196.5 440.625 195 433.125 189 434.625C 186 436.125 183 437.625 181.5 439.125C 175.5 457.125 177 476.625 177 494.625C 178.5 494.625 181.5 494.625 181.5 494.625C 189 475.125 186 454.125 189 434.625C 186 436.125 181.5 434.625 178.5 436.125C 163.5 446.625 162 464.625 160.5 481.125"/>
<path fill="none" stroke-width="4" stroke="#007f7f" d="M 247.833 248.792C 247.833 249.792 248.833 250.125 249.167 250.792C 250.167 254.792 251.5 258.792 253.167 262.458"/>
<path fill="none" stroke-width="4" stroke="#007f7f" d="M 268.5 241.792C 268.5 242.458 268.167 243.125 268.5 243.792C 270.5 246.792 272.167 249.792 272.833 253.458"/>
<path fill="none" stroke-width="4" stroke="#007f7f" d="M 259.5 294.458C 261.167 289.125 265.833 285.792 269.5 281.792C 272.167 279.458 274.833 277.125 277.833 275.125C 278.833 274.792 280.167 275.125 281.167 275.125C 281.167 275.125 281.167 275.458 281.167 275.792"/>
<path fill="none" stroke-width="4" stroke="#007f7f" d="M 233.833 246.125C 236.167 245.792 238.5 245.125 241.167 244.458C 245.167 243.792 249.167 244.792 253.167 245.125"/>
<path fill="none" stroke-width="4" stroke="#007f7f" d="M 262.833 244.458C 264.5 240.125 267.833 237.125 270.5 233.458"/>
<path fill="none" stroke-width="4" stroke="#7f007f" d="M 252.167 226.792C 250.167 221.458 244.833 218.792 239.5 218.458C 232.833 217.792 226.167 217.125 219.833 218.792C 211.833 221.125 204.167 225.125 199.167 232.125"/>
<path fill="none" stroke-width="4" stroke="#7f007f" d="M 233.167 228.458C 229.5 226.792 225.5 227.458 221.5 227.458C 218.5 227.792 216.167 229.458 213.833 231.125C 211.5 233.125 209.167 234.792 207.167 237.125C 205.833 238.792 204.833 240.458 203.5 242.125C 201.167 246.125 198.167 249.792 197.167 254.458C 196.833 256.458 197.167 258.792 197.167 260.792"/>
<path fill="none" stroke-width="4" stroke="#7f007f" d="M 219.5 246.125C 216.833 246.458 214.5 247.792 212.833 249.792C 203.5 259.792 194.5 272.458 198.5 286.458"/>
<path fill="none" stroke-width="4" stroke="#7f007f" d="M 215.167 265.792C 210.167 272.792 206.167 280.125 204.167 288.792C 203.167 294.125 203.5 299.125 203.5 304.125C 203.5 304.792 204.167 305.458 204.5 306.125C 204.833 306.125 205.167 306.125 205.5 306.125"/>
<path fill="none" stroke-width="4" stroke="#7f007f" d="M 215.833 293.125C 214.5 300.125 214.5 307.458 215.167 314.458"/>
</g>
</g>
<g>
    <animateTransform attributeName="transform" type="scale"
            additive="replace" fill="freeze" 
            values="1.0; 0.2" begin="btn1.click" dur="1"/>
    <animateTransform attributeName="transform" type="scale"
            additive="replace" fill="freeze" 
            values="0.2; 1.0" begin="btn2.click" dur="1"/>
<path fill="#7f7f00" stroke-width="6" stroke="#000000" d="M 290.675 541.292C 296.198 541.292 300.675 532.897 300.675 522.542L 300.675 260.042C 300.675 249.688 296.198 241.292 290.675 241.292L 290.675 241.292C 285.153 241.292 280.676 249.688 280.676 260.042L 280.676 522.542C 280.676 532.897 285.153 541.292 290.675 541.292L 290.675 541.292z"/>
<g>
<path fill="#7f7f00" stroke-width="6" stroke="#000000" d="M 52.0816 347.767C 57.6043 347.767 62.0816 339.371 62.0816 329.017L 62.0816 66.5168C 62.0816 56.1623 57.6043 47.7668 52.0816 47.7668L 52.0816 47.7668C 46.559 47.7668 42.0818 56.1623 42.0818 66.5168L 42.0818 329.017C 42.0818 339.371 46.559 347.767 52.0816 347.767L 52.0816 347.767z"/>
<path fill="#7f7f00" stroke-width="6" stroke="#000000" d="M 470.207 308.33C 474.99 305.569 474.669 296.06 469.492 287.092L 338.242 59.7655C 333.065 50.7984 324.99 45.7665 320.207 48.5278L 320.207 48.5278C 315.425 51.2891 315.745 60.7983 320.922 69.7654L 452.172 297.092C 457.349 306.059 465.424 311.091 470.207 308.33L 470.207 308.33z"/>
<path fill="#7f7f00" stroke-width="6" stroke="#000000" d="M 261.146 48.5287C 256.363 45.7673 248.288 50.7989 243.111 59.7659L 111.858 287.088C 106.681 296.055 106.36 305.564 111.143 308.325L 111.143 308.325C 115.925 311.086 124 306.055 129.178 297.088L 260.43 69.7659C 265.608 60.799 265.928 51.29 261.146 48.5287L 261.146 48.5287z"/>
<path fill="#7f7f00" stroke-width="6" stroke="#000000" d="M 529.269 347.767C 534.792 347.767 539.269 339.371 539.269 329.017L 539.269 66.5168C 539.269 56.1622 534.792 47.7668 529.269 47.7668L 529.269 47.7668C 523.746 47.7668 519.269 56.1622 519.269 66.5168L 519.269 329.017C 519.269 339.371 523.746 347.767 529.269 347.767L 529.269 347.767z"/>
</g>
<g>
<path fill="#7f7f00" stroke-width="6" stroke="#000000" d="M 470.207 474.255C 474.99 477.016 474.669 486.525 469.492 495.492L 338.242 722.819C 333.065 731.786 324.99 736.818 320.207 734.057L 320.207 734.057C 315.425 731.296 315.745 721.786 320.922 712.819L 452.172 485.492C 457.349 476.525 465.424 471.493 470.207 474.255L 470.207 474.255z"/>
<path fill="#7f7f00" stroke-width="6" stroke="#000000" d="M 261.146 734.056C 256.363 736.818 248.288 731.786 243.111 722.819L 111.858 495.497C 106.681 486.53 106.36 477.021 111.143 474.26L 111.143 474.26C 115.925 471.498 124 476.53 129.178 485.497L 260.43 712.819C 265.608 721.786 265.928 731.295 261.146 734.056L 261.146 734.056z"/>
<path fill="#7f7f00" stroke-width="6" stroke="#000000" d="M 52.0816 734.818C 57.6043 734.818 62.0816 726.422 62.0816 716.068L 62.0816 453.568C 62.0816 443.213 57.6043 434.818 52.0816 434.818L 52.0816 434.818C 46.559 434.818 42.0818 443.213 42.0818 453.568L 42.0818 716.068C 42.0818 726.422 46.559 734.818 52.0816 734.818L 52.0816 734.818z"/>
<path fill="#7f7f00" stroke-width="6" stroke="#000000" d="M 529.269 734.818C 534.792 734.818 539.269 726.422 539.269 716.068L 539.269 453.568C 539.269 443.213 534.792 434.818 529.269 434.818L 529.269 434.818C 523.746 434.818 519.269 443.213 519.269 453.568L 519.269 716.068C 519.269 726.422 523.746 734.818 529.269 734.818L 529.269 734.818z"/>
</g>
</g>
</svg>