<svg xmlns="http://www.w3.org/2000/svg"
	xmlns:xlink="http://www.w3.org/1999/xlink"
	viewBox="25.7 0 577 792"
	width="625.677" height="792">
<g>
<path style="stroke:none; fill:#FC815F" d="
M 603.112 791.667
L 603.112 0.333374
L 25.7784 0
L 25.7784 792
L 603.112 791.667z"/>
<path style="stroke:#ff3f3f; stroke-width:6; fill:#ffbfbf" d="M 450.445 177.667C 450.445 171.667 450.445 163.667 450.445 157.667C 452.445 167.667 462.445 175.667 466.445 185.667C 472.445 201.667 476.445 219.667 478.445 235.667C 478.445 263.667 482.445 293.667 474.445 321.667C 470.445 329.667 466.445 339.667 458.445 343.667C 436.445 353.667 416.445 363.667 400.445 381.667C 420.376 359.244 390.445 321.667 406.445 293.667C 430.445 259.667 456.445 225.667 450.445 183.667"/>
<path style="stroke:#F8023F; stroke-width:6; fill:#FEA033" d="M 134.445 305.667C 134.445 297.667 132.445 289.667 130.445 281.667C 130.445 257.667 124.445 231.667 134.445 207.667C 142.445 189.667 156.445 173.667 172.445 159.667C 186.445 145.667 206.445 143.667 218.445 129.667C 222.445 123.667 222.445 93.6667 220.445 85.6667C 222.445 85.6667 226.445 105.667 228.445 107.667C 234.445 125.667 236.445 143.667 230.445 159.667C 220.445 189.667 210.445 221.667 216.445 253.667C 218.445 265.667 232.445 271.667 240.445 281.667C 234.445 269.667 234.445 257.667 234.445 243.667C 236.445 235.667 240.445 229.667 244.445 221.667C 248.445 217.667 250.445 213.667 254.445 209.667C 260.445 205.667 270.445 203.667 272.445 195.667C 276.445 183.667 274.445 169.667 274.445 157.667C 292.445 161.667 306.445 177.667 318.445 191.667C 322.445 197.667 326.445 205.667 330.445 209.667C 348.445 233.667 366.445 255.667 370.445 285.667C 374.445 333.667 380.445 381.667 380.445 429.667C 382.445 413.667 394.445 403.667 406.445 393.667C 424.445 381.667 442.445 371.667 460.445 359.667C 482.445 341.667 500.445 319.667 506.445 291.667C 512.445 267.667 516.445 243.667 506.445 219.667C 518.445 221.667 522.445 235.667 532.445 239.667C 542.445 245.667 544.445 255.667 548.445 263.667C 564.445 297.667 570.445 333.667 562.445 371.667C 556.445 387.667 540.445 397.667 532.445 411.667C 528.445 419.667 530.445 431.667 526.445 439.667C 518.445 457.667 494.445 467.667 484.445 487.667C 506.445 485.667 538.445 491.667 550.445 465.667C 546.445 507.667 526.445 551.667 488.445 569.667C 460.445 583.667 432.445 593.667 402.445 597.667C 372.445 599.667 342.445 601.667 312.445 595.667C 270.445 585.667 240.445 553.667 210.445 525.667C 180.445 495.667 170.445 453.667 146.445 419.667C 136.445 437.667 128.445 457.667 110.445 469.667C 104.445 473.667 92.4451 473.667 90.4451 469.667C 66.4451 431.667 42.4451 395.667 34.4451 351.667C 30.4451 333.667 30.4451 313.667 34.4451 295.667C 50.4451 309.667 52.4451 333.667 74.4451 341.667C 92.4451 347.667 110.445 359.667 130.445 359.667C 124.445 347.667 116.445 337.667 114.445 323.667C 110.445 309.667 110.445 283.667 110.445 269.667C 120.445 275.667 128.445 295.667 134.445 305.667z"/>
<path style="stroke:#F8023F; stroke-width:6; fill:#ffff00" d="M 84.4451 651.667C 41.5128 683.866 32.4451 567.667 40.4451 521.667C 46.4451 489.667 74.4451 467.667 80.4451 435.667C 82.4451 413.667 92.6913 389.735 82.4451 367.667C 56.4451 311.667 86.4451 271.667 86.4451 271.667C 86.4451 271.667 80.4451 319.667 96.4451 331.667C 117.245 347.267 116.445 343.667 136.445 351.667C 146.445 355.667 168.445 327.667 168.445 327.667C 168.445 327.667 182.445 433.667 186.445 473.667C 184.445 453.667 195.383 441.167 201.383 421.167C 207.383 405.167 208.445 385.667 214.445 369.667C 220.445 349.667 218.445 329.667 214.445 309.667C 212.445 293.667 204.445 277.667 190.445 267.667C 178.445 259.667 164.445 263.667 152.445 263.667C 152.445 261.667 152.445 259.667 152.445 257.667C 176.445 239.667 206.445 235.667 234.445 243.667C 258.445 251.667 272.445 281.667 268.445 307.667C 266.445 271.667 256.445 227.667 292.445 205.667C 314.445 193.667 342.445 195.667 364.445 179.667C 380.445 167.667 376.445 145.667 376.445 125.667C 390.445 139.667 400.445 159.667 400.445 177.667C 404.445 209.667 408.445 241.667 398.445 273.667C 398.445 277.667 392.445 281.667 386.445 281.667C 388.445 283.667 382.445 285.667 384.445 287.667C 408.445 289.667 430.445 275.667 450.445 261.667C 462.445 253.667 466.445 237.667 464.445 221.667C 476.445 235.667 490.445 249.667 500.445 267.667C 514.445 291.667 520.445 317.667 512.445 341.667C 496.445 389.667 464.445 429.667 446.445 477.667C 446.445 475.667 446.445 471.667 446.445 469.667C 470.445 447.667 504.445 445.667 528.445 423.667C 550.445 401.667 578.445 377.667 570.445 343.667C 570.445 349.667 568.445 355.667 570.445 359.667C 578.445 379.667 584.445 401.667 590.445 421.667C 596.445 453.667 594.445 485.667 590.445 517.667C 588.445 533.667 578.445 545.667 568.445 559.667C 556.445 571.667 546.445 587.667 530.445 589.667C 546.445 591.667 562.445 581.667 578.445 577.667C 576.445 603.667 584.445 631.667 572.445 657.667C 556.445 687.667 530.445 707.667 502.445 719.667C 454.445 739.667 400.445 739.667 348.445 733.667C 332.445 731.667 318.445 721.667 306.445 711.667C 288.445 695.667 290.445 673.667 286.445 651.667C 290.445 669.667 284.445 685.667 270.445 699.667C 240.445 723.667 204.445 737.667 166.445 727.667C 154.445 725.667 144.445 715.667 142.445 703.667C 138.445 683.667 140.445 663.667 146.445 645.667C 152.445 631.667 156.445 613.667 152.445 597.667C 150.445 585.667 142.445 573.667 128.445 569.667C 130.445 583.667 134.445 599.667 126.445 611.667C 116.445 627.667 100.445 639.667 84.4451 651.667z"/>
<path style="stroke:#ff3f3f; stroke-width:6; fill:#ffff00" d="M 144.445 215.667C 126.445 219.667 108.445 209.667 106.445 191.667C 96.4451 149.667 104.445 109.667 104.445 69.6667C 120.445 91.6667 144.445 109.667 146.445 139.667C 148.445 167.667 146.445 195.667 146.445 223.667"/>
<path style="stroke:#ff3f3f; stroke-width:6; fill:#ffff00" d="M 526.445 267.667C 524.445 251.667 528.445 223.667 534.445 209.667C 538.445 195.667 548.445 185.667 556.445 173.667C 558.445 169.667 558.445 143.667 558.445 139.667C 560.445 137.667 566.445 163.667 568.445 165.667C 572.445 185.667 572.445 203.667 568.445 223.667C 566.445 235.667 556.445 249.667 540.445 249.667C 540.445 253.667 526.445 263.667 526.445 267.667z"/>
<path style="stroke:#ff3f3f; stroke-width:6; fill:#ffff00" d="M 168.445 647.667C 136.445 647.667 114.445 619.667 110.445 591.667C 104.445 557.667 114.445 525.667 104.445 491.667C 104.445 487.667 102.445 481.667 96.4451 479.667C 108.445 473.667 122.445 475.667 134.445 479.667C 160.445 487.667 184.445 509.667 186.445 537.667C 192.445 577.667 184.445 617.667 190.445 657.667C 184.445 657.667 180.445 657.667 174.445 657.667L 174.445 653.667L 170.445 653.667C 168.445 651.667 168.445 647.667 168.445 647.667z"/>
</g>
<g>
</g>
<g>
</g>
<g>
<path style="stroke:none; fill:#BFAC6F" d="M 294.445 229.667L 300.445 343.667L 300.445 457.667L 304.445 625.667L 312.445 683.667L 344.445 681.667L 342.445 593.667L 342.445 497.667L 342.445 383.667L 334.445 293.667L 336.445 161.667L 338.133 138.354L 296.133 150.354"/>
<path style="stroke:none; fill:#DFD5B0" d="M 302.445 145.667L 306.445 165.667L 304.445 213.667L 304.445 263.667L 298.445 283.667L 292.445 211.667L 294.445 167.667L 302.445 145.667z"/>
<path style="stroke:none; fill:#DFD5B0" d="M 302.445 333.667L 312.445 361.667L 314.445 409.667L 306.445 451.667L 302.445 413.667L 302.445 333.667z"/>
<path style="stroke:none; fill:#DFD5B0" d="M 306.445 451.667L 308.445 587.667L 312.445 643.667L 312.445 683.667L 306.445 675.667L 300.445 513.667L 300.445 449.667L 306.445 451.667z"/>
<path style="stroke:none; fill:#008837" d="M 363.653 614.854C 363.653 614.854 359.153 610.688 360.153 603.688C 361.153 596.688 370.153 594.521 370.153 594.521L 376.653 600.021L 372.487 616.354L 389.82 608.354L 400.32 611.354L 396.32 624.021L 370.987 617.021L 385.487 636.521L 376.653 643.188L 367.32 631.354L 367.487 618.521L 363.653 614.854z"/>
<path style="stroke:none; fill:#bfff7f" d="M 372.653 596.521C 372.653 596.521 368.32 600.521 366.32 606.854C 364.32 613.188 361.653 612.188 361.653 612.188L 363.32 599.021L 372.653 596.521z"/>
<path style="stroke:none; fill:#bfff7f" d="M 379.653 613.021L 393.362 610.375L 397.32 613.854L 383.653 616.521L 375.653 617.688L 379.653 613.021z"/>
<path style="stroke:none; fill:#bfff7f" d="M 369.549 620.729L 377.987 632.188L 375.32 642.354L 368.549 630.729L 369.549 620.729z"/>
</g>
<g>
<path style="stroke:#000000; stroke-width:6; fill:none" d="M 298.445 263.667C 295.709 227.549 290.445 191.667 296.445 155.667C 300.445 139.667 322.445 143.667 338.445 143.667C 338.445 203.667 328.445 263.667 336.445 325.667C 338.445 345.667 340.445 363.667 342.445 383.667C 348.445 483.667 342.445 581.667 344.445 681.667C 334.445 681.667 320.445 691.667 312.445 683.667C 308.445 677.667 308.445 667.667 308.445 659.667C 298.445 527.667 308.445 395.667 298.445 263.667z"/>
<path style="stroke:#000000; stroke-width:6; fill:none" d="M 320.445 181.667C 320.445 221.667 320.445 263.667 320.445 303.667"/>
<path style="stroke:#000000; stroke-width:6; fill:none" d="M 321.633 435.042C 319.633 493.042 323.633 553.042 323.633 611.042"/>
<path style="stroke:#000000; stroke-width:6; fill:none" d="M 309.778 201.667C 311.112 201.667 317.112 202.333 318.445 202.333C 319.112 202.333 320.445 202.333 321.112 202.333"/>
<path style="stroke:#000000; stroke-width:6; fill:none" d="M 309.862 229.708C 312.528 229.708 314.528 229.708 317.195 229.708"/>
<path style="stroke:#000000; stroke-width:6; fill:none" d="M 309.153 242.354C 311.153 242.354 315.153 242.354 317.153 242.354"/>
<path style="stroke:#000000; stroke-width:6; fill:none" d="M 313.112 256.333C 315.112 256.333 316.445 256.333 318.445 256.333"/>
<path style="stroke:#000000; stroke-width:6; fill:none" d="M 313.778 275.667C 315.112 275.667 315.778 275.667 317.112 275.667"/>
<path style="stroke:#000000; stroke-width:6; fill:none" d="M 315.778 294.333C 316.445 294.333 317.778 294.333 318.445 294.333"/>
<path style="stroke:#000000; stroke-width:6; fill:none" d="M 317.778 311C 319.112 311 319.778 311 321.112 311"/>
<path style="stroke:#000000; stroke-width:6; fill:none" d="M 319.112 328.333C 320.445 328.333 321.112 328.333 322.445 328.333"/>
<path style="stroke:#000000; stroke-width:6; fill:none" d="M 301.153 213.688C 306.487 213.688 311.82 213.688 317.153 213.688"/>
<path style="stroke:#000000; stroke-width:6; fill:none" d="M 311.778 189C 313.778 189 316.445 189 318.445 189"/>
<path style="stroke:#000000; stroke-width:6; fill:none" d="M 317.778 176.333C 317.112 176.333 315.778 176.333 315.112 176.333C 317.112 176.333 319.778 176.333 321.778 176.333"/>
<path style="stroke:#000000; stroke-width:6; fill:none" d="M 317.112 166.333C 317.778 166.333 319.112 166.333 319.778 166.333"/>
<path style="stroke:#000000; stroke-width:6; fill:none" d="M 315.778 443.667C 316.445 443.667 317.778 443.667 318.445 443.667"/>
<path style="stroke:#000000; stroke-width:6; fill:none" d="M 313.112 457C 315.112 457 317.112 457 319.112 457"/>
<path style="stroke:#000000; stroke-width:6; fill:none" d="M 312.445 472.333C 314.445 472.333 315.778 472.333 317.778 472.333"/>
<path style="stroke:#000000; stroke-width:6; fill:none" d="M 313.778 488.333C 315.112 488.333 317.112 488.333 318.445 488.333"/>
<path style="stroke:#000000; stroke-width:6; fill:none" d="M 314.445 502.333C 315.778 502.333 316.445 502.333 317.778 502.333"/>
<path style="stroke:#000000; stroke-width:6; fill:none" d="M 312.445 516.333C 314.445 516.333 317.112 516.333 319.112 516.333"/>
<path style="stroke:#000000; stroke-width:6; fill:none" d="M 314.445 528.333C 315.778 528.333 317.778 528.333 319.112 528.333"/>
<path style="stroke:#000000; stroke-width:6; fill:none" d="M 315.112 541.667C 316.445 541.667 317.112 541.667 318.445 541.667"/>
<path style="stroke:#000000; stroke-width:6; fill:none" d="M 316.445 554.333C 317.112 554.333 318.445 554.333 319.112 554.333"/>
<path style="stroke:#000000; stroke-width:6; fill:none" d="M 317.112 567.667C 317.778 567.667 317.778 567.667 318.445 567.667"/>
<path style="stroke:#000000; stroke-width:6; fill:none" d="M 313.778 581.667C 316.445 581.667 319.112 581.667 321.778 581.667"/>
<path style="stroke:#000000; stroke-width:6; fill:none" d="M 315.778 593C 317.778 593 319.112 593 321.112 593"/>
<path style="stroke:#000000; stroke-width:6; fill:none" d="M 317.778 604.333C 318.445 604.333 319.112 604.333 319.778 604.333"/>
<path style="stroke:#000000; stroke-width:6; fill:none" d="M 321.112 621C 321.778 621 322.445 621 323.112 621"/>
<path style="stroke:#000000; stroke-width:6; fill:none" d="M 323.778 634.333"/>
<path style="stroke:#000000; stroke-width:6; fill:none" d="M 332.945 686.167C 332.945 675.667 332.945 666.667 332.945 656.167"/>
<path style="stroke:#000000; stroke-width:6; fill:none" d="M 320.945 684.667C 320.945 681.667 320.945 678.667 320.945 675.667"/>
<path style="stroke:#000000; stroke-width:6; fill:#9f9f3f" d="M 326.945 146.167C 326.945 147.667 326.945 150.667 326.945 152.167"/>
<path style="stroke:#000000; stroke-width:4; fill:none" d="M 345.695 665.5C 343.695 646.167 353.028 624.833 369.695 614.833C 367.139 616.367 364.237 615.812 361.695 612.167C 359.153 608.521 358.737 604.312 362.362 599.5C 365.987 594.688 371.07 592.812 374.362 596.167C 377.653 599.521 376.362 610.833 369.695 614.833"/>
<path style="stroke:#000000; stroke-width:4; fill:none" d="M 374.653 616.521C 374.653 616.521 388.987 607.521 395.32 609.021C 402.167 610.642 401.374 619.511 394.82 623.188C 387.835 627.106 374.653 616.521 374.653 616.521z"/>
<path style="stroke:#000000; stroke-width:4; fill:none" d="M 380.528 626.125C 383.862 630.458 387.153 637.958 380.758 641.792C 374.362 645.625 369.528 636.792 368.362 631.792C 367.195 626.792 368.362 619.625 368.362 619.625C 368.362 619.625 377.195 621.792 380.528 626.125z"/>
</g>
</svg>
