<svg xmlns="http://www.w3.org/2000/svg"
	xmlns:xlink="http://www.w3.org/1999/xlink"
	viewBox="0 13.4 577 792"
	width="601.504" height="805.445">
<g id="scene">
        <set attributeName="opacity" to="1" 
		        fill="freeze" begin="btn1.click"/>
        <set attributeName="opacity" to="0" 
		        fill="freeze" begin="btn2.click"/>
        <set attributeName="opacity" to="0" 
		        fill="freeze" begin="scene.load"/>

<g>
<path fill="#ffbf7f" stroke="none" d="M 577 805.445L 577 13.4451L 0 13.4451L 0 805.445L 577 805.445z"/>
</g>
<g>
<path fill="#ffffbf" stroke="none" d="M 432.059 441.445L 454.059 407.445L 474.059 347.445L 456.059 309.445L 470.059 285.445L 456.059 249.445L 460.059 205.445L 502.059 217.445L 512.059 233.445L 512.059 259.445C 512.059 259.445 514.059 247.445 538.059 245.445C 562.059 243.445 578.059 249.445 578.059 263.445C 578.059 277.445 592.059 311.445 576.059 323.445C 560.059 335.445 540.059 343.445 534.059 325.445C 528.059 307.445 518.059 307.445 518.059 307.445L 494.059 351.445L 492.059 385.445C 492.059 385.445 506.059 385.445 514.059 403.445C 522.059 421.445 530.059 431.445 510.059 435.445C 490.059 439.445 482.059 429.445 488.059 421.445C 494.059 413.445 486.059 407.445 486.059 407.445L 464.059 421.445L 438.559 459.945L 420.059 491.445L 410.059 481.445L 432.059 441.445z"/>
<path fill="none" stroke-width="6" stroke="#7f7f7f" d="M 227.392 68.1118"/>
<path fill="#ffffff" stroke="none" d="M 308.059 51.4451L 378.059 33.4451L 400.059 31.4451L 414.059 139.445L 412.059 227.445L 321.559 248.445L 224.059 251.445L 225.559 156.945L 227.392 68.1118L 308.059 51.4451z"/>
<path fill="#bf7f7f" stroke="none" d="M 149.059 287.445C 149.059 287.445 177.559 287.445 201.559 302.445C 225.559 317.445 236.059 341.445 231.559 384.945C 227.059 428.445 228.559 444.945 198.559 459.945C 168.559 474.945 146.059 476.445 120.559 464.445C 95.0588 452.445 81.5588 455.445 66.5588 432.945C 51.5588 410.445 44.0588 386.445 50.0588 362.445C 56.0588 338.445 63.5588 330.945 84.5588 311.445C 105.559 291.945 149.059 287.445 149.059 287.445z"/>
<path fill="#ffffff" stroke="none" d="M 114.559 429.945L 159.559 411.945L 197.059 395.445C 197.059 395.445 204.559 410.445 195.559 428.445C 186.559 446.445 186.586 445.173 162.559 447.945C 123.559 452.445 114.559 429.945 114.559 429.945z"/>
<path fill="#008837" stroke="none" d="M 429.059 446.07L 444.059 455.07C 444.059 455.07 432.559 474.778 425.392 498.778C 418.046 523.381 428.059 546.945 422.059 570.945C 416.059 594.945 392.059 642.945 392.059 642.945C 392.059 642.945 372.559 651.945 354.559 641.445C 336.559 630.945 321.559 614.445 321.559 614.445C 321.559 614.445 333.559 572.445 347.059 554.445C 360.559 536.445 374.059 533.445 390.559 513.945C 407.059 494.445 429.059 446.07 429.059 446.07z"/>
<path fill="#00441B" stroke="none" d="M 405.559 581.144C 412.588 581.144 418.287 567.847 418.287 551.445C 418.287 535.043 412.588 521.747 405.559 521.747C 398.53 521.747 392.831 535.043 392.831 551.445C 392.831 567.847 398.53 581.144 405.559 581.144z"/>
<path fill="#bfffff" stroke="none" d="M 351.559 617.916C 358.588 617.916 364.287 610.318 364.287 600.945C 364.287 591.573 358.588 583.974 351.559 583.974C 344.53 583.974 338.831 591.573 338.831 600.945C 338.831 610.318 344.53 617.916 351.559 617.916z"/>
<path fill="#dfdfbf" stroke="none" d="M 382.059 556.778L 406.725 569.445L 415.392 592.112L 397.392 629.445C 397.392 629.445 391.524 636.668 374.059 632.112C 358.725 628.112 349.597 621.753 348.059 599.445C 346.725 580.112 350.059 574.778 361.392 564.778C 372.972 554.561 382.059 556.778 382.059 556.778z"/>
<path fill="#bfffff" stroke="none" d="M 44.0588 516.945L 68.0588 518.445C 68.0588 518.445 80.0588 536.445 77.0588 552.945C 74.0588 569.445 65.0588 575.445 65.0588 575.445C 65.0588 575.445 44.0588 569.445 41.0588 549.945C 38.0588 530.445 44.0588 516.945 44.0588 516.945z"/>
<path fill="#bfbf7f" stroke="none" d="M 519.559 204.945C 519.559 204.945 532.059 201.778 534.725 203.945C 537.392 206.112 543.725 212.112 541.225 217.112C 538.725 222.112 536.392 224.278 536.392 224.278L 531.225 222.445L 521.892 241.612L 512.225 237.612L 520.892 217.612L 515.892 214.778L 519.559 204.945z"/>
</g>
<g>
<path fill="none" stroke-width="4" stroke="#7f7fff" d="M 399.559 629.445C 386.292 634.343 351.243 640.413 347.855 595.546C 346.447 579.483 360.123 559.359 378.839 556.972C 390.432 555.707 403.079 563.946 407.902 570.362C 412.725 576.778 414.059 588.112 414.059 588.112"/>
<path fill="none" stroke-width="6" stroke="#7f7f7f" d="M 124.059 287.445C 91.9964 287.445 78.0588 319.445 60.0588 341.445C 46.0588 359.445 48.0588 385.445 54.0588 407.445C 58.0588 421.445 66.0588 437.445 78.0588 443.445C 110.059 459.445 146.059 477.445 182.059 467.445C 202.059 463.445 218.059 447.445 224.059 427.445C 236.059 395.445 230.059 363.445 222.059 329.445C 220.059 315.445 208.059 307.445 196.059 299.445C 174.059 287.445 148.059 287.445 124.059 287.445z"/>
<path fill="none" stroke-width="6" stroke="#7f7f7f" d="M 146.059 473.445C 146.059 479.445 144.059 487.445 146.059 493.445C 174.059 553.445 190.059 615.445 210.059 677.445C 216.059 697.445 222.059 719.445 228.059 739.445"/>
<path fill="none" stroke-width="6" stroke="#3fff3f" d="M 439.725 458.112C 434.392 470.112 432.725 467.778 423.784 507.214C 413.845 551.045 426.184 531.578 421.454 574.404C 420.066 586.976 396.491 633.368 391.469 644.266C 373.721 638.792 363.311 643.24 352.059 637.445C 343.849 633.217 335.35 619.487 322.444 612.465C 330.437 591.93 340.044 572.139 350.323 552.658C 359.379 535.495 388.602 522.423 398.059 505.445C 410.078 483.867 415.754 473.812 426.059 451.445C 426.059 451.445 422.392 446.445 423.725 444.778C 425.059 443.112 431.392 444.112 431.392 444.112C 431.392 444.112 433.392 445.445 436.725 447.778C 440.059 450.112 444.725 451.445 444.725 451.445C 444.725 451.445 449.888 452.039 448.392 455.778C 446.392 460.778 439.725 458.112 439.725 458.112z"/>
<path fill="none" stroke-width="6" stroke="#9f9f3f" d="M 536.358 224.461C 540.591 218.933 542.823 217.436 539.144 208.353C 537.027 203.126 532.413 200.173 526.156 201.905C 516.519 204.574 516.12 210.879 515.985 215.649L 521.358 217.944L 512.097 237.35L 521.873 241.645L 530.015 221.87L 536.358 224.461z"/>
<path fill="none" stroke-width="6" stroke="#ffffff" d="M 440.059 431.445C 440.059 427.445 438.059 423.445 440.059 421.445C 452.059 409.445 460.059 393.445 466.059 379.445C 478.059 351.445 480.059 319.445 472.059 291.445C 470.059 287.445 454.059 283.445 444.059 289.445C 432.059 295.445 430.059 313.445 432.059 327.445C 440.059 325.445 456.059 333.445 456.059 319.445"/>
<path fill="none" stroke-width="6" stroke="#ffffff" d="M 494.059 355.445C 496.059 337.445 510.059 323.445 518.059 305.445C 524.059 291.445 546.059 283.445 560.059 291.445C 570.059 297.445 566.059 313.445 570.059 325.445C 558.059 327.445 544.059 331.445 536.059 325.445C 530.059 321.445 534.059 307.445 546.059 311.445"/>
<path fill="none" stroke-width="6" stroke="#ffffff" d="M 500.059 259.445C 500.059 245.445 504.059 227.445 498.059 215.445C 492.059 205.445 476.059 209.445 462.059 209.445C 464.059 221.445 456.059 235.445 466.059 241.445C 468.059 245.445 478.059 247.445 482.059 241.445C 482.059 239.445 484.059 233.445 480.059 231.445"/>
<path fill="none" stroke-width="6" stroke="#ffffff" d="M 458.059 423.445C 460.059 413.445 468.059 403.445 476.059 401.445C 488.059 397.445 504.059 395.445 512.059 401.445C 518.059 405.445 522.059 423.445 512.059 429.445C 510.059 433.445 502.059 437.445 496.059 435.445C 494.059 433.445 496.059 427.445 496.059 423.445"/>
<path fill="none" stroke-width="6" stroke="#7f7f7f" d="M 206.059 391.445C 174.059 405.445 142.059 421.445 108.059 431.445C 115.97 429.118 124.059 451.445 140.059 449.445C 152.059 449.445 164.059 451.445 176.059 447.445C 194.059 443.445 200.059 419.445 198.059 401.445"/>
<path fill="none" stroke-width="6" stroke="#7f7f7f" d="M 154.059 359.445C 152.059 365.445 156.059 373.445 156.059 379.445"/>
<path fill="none" stroke-width="6" stroke="#7f7f7f" d="M 184.059 359.445C 184.059 363.445 184.059 369.445 184.059 373.445"/>
<path fill="none" stroke-width="6" stroke="#ff7f7f" d="M 58.0588 377.445C 56.0588 351.445 62.0588 327.445 68.0588 303.445C 72.0588 319.445 72.0588 335.445 78.0588 349.445C 78.0588 325.445 80.0588 303.445 84.0588 279.445C 92.0588 295.445 88.0588 313.445 98.0588 329.445C 98.0588 309.445 98.0588 291.445 100.059 271.445C 112.059 287.445 110.059 305.445 116.059 323.445C 120.059 305.445 124.059 285.445 124.059 267.445C 134.059 285.445 134.059 307.445 146.059 323.445C 156.059 303.445 152.059 279.445 164.059 259.445C 166.059 279.445 168.059 299.445 180.059 315.445C 188.059 305.445 186.059 291.445 192.059 279.445C 194.059 277.445 196.059 279.445 196.059 281.445C 196.059 287.445 200.059 291.445 196.059 299.445C 196.059 307.445 208.059 315.445 208.059 325.445C 214.059 309.445 216.059 293.445 218.059 277.445"/>
<path fill="none" stroke-width="6" stroke="#7f7f7f" d="M 228.059 79.4451C 228.059 135.588 226.059 193.445 226.059 249.445C 258.059 249.445 288.059 253.445 320.059 247.445C 352.059 241.445 382.059 233.445 414.059 229.445C 416.059 163.445 418.059 97.4451 402.059 31.4451C 402.059 34.2316 391.38 30.1659 378.059 33.4451C 334.725 44.1118 306.724 53.0422 267.392 59.4451C 238.725 64.1118 255.392 61.4451 227.392 68.1118C 225.447 68.575 228.059 77.4451 228.059 79.4451z"/>
<path fill="none" stroke-width="6" stroke="#ff7f7f" d="M 290.059 93.4451C 320.059 87.4451 352.059 83.4451 382.059 77.4451"/>
<path fill="none" stroke-width="6" stroke="#ff7f7f" d="M 290.059 129.445C 318.059 125.445 348.059 119.445 376.059 115.445"/>
<path fill="none" stroke-width="6" stroke="#ff7f7f" d="M 292.059 163.445C 324.059 153.445 356.059 157.445 388.059 149.445"/>
<path fill="none" stroke-width="6" stroke="#ff7f7f" d="M 290.059 193.445C 322.059 193.445 354.059 189.445 386.059 183.445"/>
<path fill="none" stroke-width="6" stroke="#ff7f7f" d="M 240.059 91.4451C 250.059 91.4451 266.059 91.4451 266.059 91.4451L 268.059 111.445L 244.059 113.445C 244.059 113.445 244.059 103.445 244.059 97.4451"/>
<path fill="none" stroke-width="6" stroke="#ff7f7f" d="M 242.059 129.445C 252.059 129.445 268.059 131.445 268.059 131.445L 268.059 151.445L 244.059 151.445C 244.059 151.445 244.059 141.445 244.059 135.445"/>
<path fill="none" stroke-width="6" stroke="#ff7f7f" d="M 248.059 171.445L 268.059 171.445L 268.059 193.445C 268.059 193.445 254.059 195.445 246.059 195.445C 246.059 187.445 248.059 171.445 248.059 171.445z"/>
<path fill="none" stroke-width="6" stroke="#ff7f7f" d="M 254.059 213.445L 270.059 211.445L 268.059 235.445L 248.059 235.445C 248.059 235.445 246.059 223.445 246.059 217.445"/>
<path fill="none" stroke-width="6" stroke="#ff3f3f" d="M 252.059 97.4451L 266.059 103.445L 271.392 93.4451C 271.392 93.4451 276.059 85.4451 280.059 81.4451"/>
<path fill="none" stroke-width="6" stroke="#7f7f7f" d="M 42.0588 513.445C 42.0588 527.445 38.0588 541.445 44.0588 553.445C 48.0588 563.445 58.0588 583.445 68.0588 573.445C 80.0588 559.445 78.0588 533.445 66.0588 515.445"/>
<path fill="none" stroke-width="6" stroke="#7f7f7f" d="M 68.0588 573.445C 64.0588 593.445 76.0588 607.445 76.0588 623.445"/>
<path fill="none" stroke-width="6" stroke="#7f7f7f" d="M 64.0588 629.445C 72.0588 629.445 80.0588 631.445 88.0588 625.445"/>
<path fill="none" stroke-width="6" stroke="#7f7f7f" d="M 164.059 521.445C 233.533 525.101 259.377 532.641 284.059 527.445C 284.059 527.445 294.059 527.445 294.059 525.445C 316.059 505.445 322.059 507.445 354.059 491.445C 370.551 483.199 388.059 479.445 398.059 465.445C 404.059 457.445 396.059 447.445 402.059 439.445C 404.059 437.445 410.059 439.445 414.059 441.445C 416.059 429.445 426.059 415.445 418.059 403.445C 416.059 401.445 412.059 403.445 408.059 403.445"/>
<path fill="none" stroke-width="6" stroke="#7f7f7f" d="M 382.059 509.445C 380.059 523.445 392.059 531.445 392.059 543.445"/>
<path fill="none" stroke-width="6" stroke="#7f7f7f" d="M 390.059 505.445C 390.059 507.445 390.059 509.445 390.059 511.445C 396.059 519.445 408.059 529.445 408.059 539.445"/>
<path fill="none" stroke-width="6" stroke="#7f7f7f" d="M 168.059 535.445C 212.059 549.445 214.059 551.445 288.059 565.445C 299.517 567.613 372.059 519.445 382.059 509.445C 387.716 503.788 390.059 505.445 398.059 505.445C 410.059 507.445 414.059 521.445 418.059 533.445"/>
</g>
</g>
<g>
<path fill="#7f7f00" stroke-width="6" stroke="#000000" d="M 288.5 721.445C 294.023 721.445 298.5 713.05 298.5 702.695L 298.5 440.195C 298.5 429.84 294.023 421.445 288.5 421.445L 288.5 421.445C 282.977 421.445 278.5 429.84 278.5 440.195L 278.5 702.695C 278.5 713.05 282.977 721.445 288.5 721.445L 288.5 721.445z"/>
<g>
<path fill="#7f7f00" stroke-width="6" stroke="#000000" d="M 126.281 398.445C 131.804 398.445 136.281 390.05 136.281 379.695L 136.281 117.195C 136.281 106.841 131.804 98.4451 126.281 98.4451L 126.281 98.4451C 120.759 98.4451 116.281 106.841 116.281 117.195L 116.281 379.695C 116.281 390.05 120.759 398.445 126.281 398.445L 126.281 398.445z"/>
<path fill="#7f7f00" stroke-width="6" stroke="#000000" d="M 450.719 398.445C 456.241 398.445 460.719 390.05 460.719 379.695L 460.719 117.195C 460.719 106.84 456.241 98.4451 450.719 98.4451L 450.719 98.4451C 445.196 98.4451 440.719 106.84 440.719 117.195L 440.719 379.695C 440.719 390.05 445.196 398.445 450.719 398.445L 450.719 398.445z"/>
</g>
</g>
</svg>