<svg xmlns="http://www.w3.org/2000/svg"
	xmlns:xlink="http://www.w3.org/1999/xlink"
	viewBox="17.0 0 577 792"
	width="606.927" height="796.962">
<g id="scene">
    <set attributeName="opacity" to="1" 
		    fill="freeze" begin="btn1.click"/>
    <set attributeName="opacity" to="0" 
		    fill="freeze" begin="btn2.click"/>
    <set attributeName="opacity" to="0" 
		    fill="freeze" begin="scene.load"/>
<g>
<path fill="#ff9f3f" stroke="none" d="M 593.962 791.998L 593.962 0L 16.9647 0L 16.9647 791.998L 593.962 791.998z"/>
</g>
<g>
<path fill="#ffdfbf" stroke="none" d="M 520.963 141.999C 532.963 136.999 552.963 139.999 552.963 139.999C 552.963 139.999 571.322 144.716 575.963 153.999C 580.152 162.375 579.63 202.999 572.963 209.999C 563.161 220.291 551.297 219.332 535.297 214.666C 520.118 210.238 513.63 208.666 508.963 200.999C 504.833 194.213 507.63 175.999 509.963 165.666C 513.031 152.079 520.963 141.999 520.963 141.999z"/>
<path fill="#7fff7f" stroke="none" d="M 521.297 142.999C 521.297 142.999 522.63 159.999 525.297 161.999C 527.963 163.999 540.63 165.332 547.63 165.666C 554.63 165.999 564.963 166.999 566.963 164.666C 568.963 162.332 571.963 159.999 572.297 156.332C 572.63 152.666 572.963 149.332 570.963 147.332C 563.797 140.166 561.019 139.055 546.63 136.999C 541.963 136.332 521.297 142.999 521.297 142.999z"/>
<path fill="#ffff3f" stroke="none" d="M 398.963 270.999C 409.75 268.057 434.963 266.999 446.963 278.999C 458.963 290.999 464.963 309.999 461.963 323.999C 458.963 337.999 458.963 348.999 438.963 353.999C 418.963 358.999 407.963 357.999 395.963 347.999C 383.963 337.999 379.963 324.999 379.963 307.999C 379.963 290.999 387.963 273.999 398.963 270.999z"/>
<path fill="#dfd8bf" stroke="none" d="M 237.963 403.999C 237.963 403.999 270.963 399.999 278.963 413.999C 286.963 427.999 296.963 442.999 289.963 461.999C 282.963 480.999 275.963 487.999 252.963 488.999C 239.734 489.574 224.527 480.591 219.963 473.999C 210.963 460.999 205.963 439.999 213.963 427.999C 221.963 415.999 237.963 403.999 237.963 403.999z"/>
<path fill="#bf7fbf" stroke="none" d="M 217.63 634.666L 258.63 565.666L 282.963 602.999L 317.63 644.666L 282.63 646.666L 217.63 634.666z"/>
<path fill="#7fffbf" stroke="none" d="M 54.4634 408.999C 63.9634 399.499 70.9634 395.999 80.9634 394.499C 90.9634 392.999 106.463 396.499 114.463 400.499C 122.463 404.499 127.463 415.499 128.963 432.499C 130.463 449.499 128.463 467.499 122.963 475.999C 117.463 484.499 102.963 495.999 90.4634 494.499C 77.9634 492.999 63.4634 492.499 53.9634 475.999C 44.4634 459.499 39.9634 444.999 42.9634 432.499C 45.9634 419.999 54.4634 408.999 54.4634 408.999z"/>
<path fill="#7fbf7f" stroke="none" d="M 42.4634 351.499L 45.4634 353.999L 58.4634 353.499L 59.4634 363.499L 46.4634 368.999L 44.4634 384.499L 53.4634 390.499L 72.9634 380.999L 89.4634 374.999L 98.4634 386.999L 92.9634 400.499L 66.4634 410.499C 66.4634 410.499 81.9634 404.499 82.4634 399.999C 82.9634 395.499 83.9634 390.499 78.9634 390.999C 70.3749 391.858 68.9634 393.499 59.9634 396.499C 53.3226 398.713 41.4634 397.999 38.9634 393.499C 36.4634 388.999 34.4634 379.499 37.4634 372.999C 40.4634 366.499 41.4634 363.999 44.9634 362.499C 48.4634 360.999 51.4634 357.999 51.4634 357.999L 48.9634 354.499L 42.4634 351.499z"/>
<path fill="#ffffff" stroke="none" d="M 75.9634 470.999L 89.9634 469.999L 101.963 465.999C 101.963 465.999 95.4634 479.999 89.9634 480.999C 85.7316 481.768 75.9634 470.999 75.9634 470.999z"/>
<path fill="#7fbf7f" stroke="none" d="M 69.4634 418.499L 66.4634 408.999L 81.9634 407.499L 84.9634 416.499L 69.4634 418.499z"/>
<path fill="#ffffff" stroke="none" d="M 247.463 460.499L 251.963 461.499L 254.463 468.999L 249.463 475.499L 243.963 469.999L 247.463 460.499z"/>
<path fill="#ffff00" stroke="none" d="M 260.963 401.999C 260.963 401.999 283.463 405.999 288.963 413.999C 294.463 421.999 299.963 458.499 299.963 470.499C 299.963 482.499 297.963 518.499 301.463 523.499C 304.963 528.499 310.963 528.999 312.463 527.499C 313.963 525.999 306.443 531.452 301.463 530.999C 295.963 530.499 290.963 519.999 290.463 514.499C 290.036 509.801 290.963 498.279 290.963 490.999C 290.963 485.499 289.463 479.999 288.963 473.999C 288.463 467.999 288.963 437.999 285.963 429.499C 282.963 420.999 279.963 412.499 276.463 410.499C 272.963 408.499 260.963 401.999 260.963 401.999z"/>
<path fill="#ffff00" stroke="none" d="M 251.963 403.999C 251.963 403.999 249.963 413.999 259.463 422.499C 268.963 430.999 274.963 434.499 280.463 435.999C 285.963 437.499 288.463 435.999 288.463 435.999C 288.463 435.999 287.963 417.499 279.963 411.999C 271.963 406.499 251.963 403.999 251.963 403.999z"/>
<path fill="#ffff00" stroke="none" d="M 248.463 402.999C 243.463 414.499 245.463 418.499 238.463 423.999C 231.463 429.499 218.963 435.999 215.463 436.499C 211.963 436.999 208.463 434.499 215.463 424.499C 222.463 414.499 224.963 407.499 232.963 404.999C 240.963 402.499 248.463 402.999 248.463 402.999z"/>
<path fill="#ff7fbf" stroke="none" d="M 443.297 446.666C 443.297 446.666 468.63 433.999 480.63 438.332C 492.63 442.666 504.963 446.332 508.63 452.999C 512.297 459.666 514.297 487.999 510.297 497.332C 506.297 506.666 499.63 520.332 489.63 523.666C 479.63 526.999 468.297 527.332 455.63 522.999C 442.963 518.666 432.297 515.332 427.963 503.999C 423.63 492.666 425.963 470.666 430.297 463.332C 434.63 455.999 443.297 446.666 443.297 446.666z"/>
<path fill="#7fffbf" stroke="none" d="M 453.297 474.666L 457.63 477.332L 457.63 484.332L 453.297 486.666L 449.963 483.332L 449.963 477.999L 452.297 474.999L 453.297 474.666z"/>
<path fill="#7fffbf" stroke="none" d="M 482.63 474.332L 487.297 476.999L 486.963 483.332L 483.963 485.666L 479.963 481.666L 480.297 476.666L 482.63 474.332z"/>
<path fill="#dfbfff" stroke="none" d="M 521.463 568.999C 527.463 566.999 546.963 562.999 546.963 562.999C 546.963 562.999 558.463 559.999 563.963 562.999C 569.463 565.999 585.963 582.999 582.463 597.999C 578.963 612.999 579.463 626.499 566.963 632.499C 554.463 638.499 546.963 639.999 536.963 636.999C 526.963 633.999 516.963 623.499 514.963 611.999C 512.963 600.499 521.463 568.999 521.463 568.999z"/>
</g>
<g>
<path fill="none" stroke-width="4" stroke="#bf7f7f" d="M 84.9634 393.999C 75.4634 395.499 70.4634 395.999 61.9634 401.999C 40.6596 417.037 40.9634 445.999 46.9634 461.999C 62.2169 501.658 109.21 505.506 124.963 473.999C 132.963 455.999 130.963 432.999 124.963 410.999C 120.963 400.999 105.963 395.499 94.4634 393.999"/>
<path fill="none" stroke-width="4" stroke="#bf7f7f" d="M 89.9634 494.999C 91.9634 506.999 91.9634 509.999 93.9634 517.999C 97.9634 543.999 103.963 595.999 103.963 595.999C 103.963 595.999 93.9634 675.999 83.9634 715.999"/>
<path fill="none" stroke-width="4" stroke="#bf7f7f" d="M 107.963 603.999C 129.963 625.999 145.963 653.999 163.963 679.999C 167.963 685.999 167.963 693.999 171.963 699.999"/>
<path fill="none" stroke-width="4" stroke="#bf7f7f" d="M 94.9634 522.999C 113.963 510.999 137.963 492.999 151.963 478.999"/>
<path fill="none" stroke-width="4" stroke="#bf7f7f" d="M 95.9634 538.999C 73.9634 540.999 42.9634 536.999 20.9634 532.999"/>
<path fill="none" stroke-width="4" stroke="#bf7f7f" d="M 253.724 401.19C 239.376 401.19 227.078 408.424 218.879 420.479C 208.631 434.945 210.68 456.644 218.879 471.111C 233.227 490.399 256.483 492.75 276.271 483.166C 287.886 477.54 291.734 460.497 289.936 446.598C 289.722 444.945 289.47 443.224 289.175 441.463"/>
<path fill="none" stroke-width="4" stroke="#bf7f7f" d="M 253.963 487.999C 253.963 515.999 257.963 565.999 257.963 565.999L 217.963 633.999C 217.963 633.999 255.963 639.999 273.963 643.999C 287.963 647.999 317.963 645.999 317.963 645.999C 317.963 645.999 275.963 593.999 257.963 565.999"/>
<path fill="none" stroke-width="4" stroke="#bf7f7f" d="M 205.963 717.999C 217.963 691.999 225.963 665.999 239.963 641.999"/>
<path fill="none" stroke-width="4" stroke="#bf7f7f" d="M 317.963 717.999C 311.963 695.999 297.963 675.999 291.963 651.999"/>
<path fill="none" stroke-width="4" stroke="#bf7f7f" d="M 256.963 515.999C 272.963 525.999 299.963 543.999 313.963 555.999"/>
<path fill="none" stroke-width="4" stroke="#bf7f7f" d="M 193.963 524.999C 208.963 513.999 239.963 510.999 251.963 504.999"/>
<path fill="none" stroke-width="4" stroke="#bf7f7f" d="M 68.4634 420.499C 68.4634 416.499 68.4634 413.499 64.4634 409.499C 82.4634 409.499 110.026 393.562 94.0259 377.562C 86.0259 369.562 63.0884 387.124 58.0259 389.562C 52.9634 391.999 45.9634 390.999 43.9634 384.499C 41.9634 377.999 43.5884 373.124 46.0259 369.562C 48.4634 365.999 58.0259 365.562 60.0259 361.562C 64.0259 349.562 48.0259 355.562 42.0259 353.562C 42.0259 353.562 42.0259 351.562 42.0259 349.562"/>
<path fill="none" stroke-width="4" stroke="#bf7f7f" d="M 79.9634 433.999C 79.9634 437.999 79.9634 441.999 79.9634 445.999"/>
<path fill="none" stroke-width="4" stroke="#bf7f7f" d="M 99.9634 431.999C 99.9634 436.499 99.9634 439.499 99.9634 443.499"/>
<path fill="none" stroke-width="4" stroke="#bf7f7f" d="M 74.4634 470.999C 84.4634 470.999 92.4634 468.999 101.963 466.499C 99.4634 480.999 88.4634 481.499 81.9634 476.499"/>
<path fill="none" stroke-width="4" stroke="#bf7f7f" d="M 237.327 432.534C 237.327 437.356 237.327 439.767 237.327 444.589"/>
<path fill="none" stroke-width="4" stroke="#bf7f7f" d="M 261.923 434.945C 261.923 437.356 261.923 442.178 261.923 444.589"/>
<path fill="none" stroke-width="4" stroke="#bf7f7f" d="M 311.116 509.687C 317.265 514.509 315.216 523.752 313.166 526.565C 311.116 529.377 302.917 528.172 300.868 521.742C 298.818 515.313 299.501 455.841 298.818 444.589C 298.135 433.338 292.963 405.999 270.963 404.499L 255.463 403.999"/>
<path fill="none" stroke-width="4" stroke="#bf7f7f" d="M 511.963 466.112C 515.125 487.65 511.468 510.703 491.963 523.159C 479.963 530.822 441.963 524.862 431.963 509.536C 421.963 495.913 423.963 477.181 431.963 460.152C 439.963 439.718 470.963 432.906 489.963 441.421C 508.963 449.935 509.963 452.489 511.963 466.112z"/>
<path fill="none" stroke-width="4" stroke="#bf7f7f" d="M 458.963 525.999C 448.963 565.999 441.963 591.999 425.963 633.999"/>
<path fill="none" stroke-width="4" stroke="#bf7f7f" d="M 369.963 741.999C 383.963 705.999 401.963 667.999 425.963 633.999C 427.963 633.999 423.963 631.999 425.963 633.999C 453.963 663.999 459.963 703.999 471.963 739.999"/>
<path fill="none" stroke-width="4" stroke="#bf7f7f" d="M 455.963 545.999C 465.963 561.999 481.963 589.999 491.963 607.999"/>
<path fill="none" stroke-width="4" stroke="#bf7f7f" d="M 373.963 594.999C 395.963 590.999 430.963 575.999 448.963 561.999"/>
<path fill="none" stroke-width="4" stroke="#bf7f7f" d="M 417.963 269.999C 405.963 267.999 393.963 271.999 385.963 281.999C 379.963 293.999 378.526 318.937 382.526 328.937C 392.526 352.937 424.526 362.937 446.526 352.937C 462.526 346.937 465.963 309.999 459.963 293.999C 453.963 281.999 441.963 267.999 425.963 269.999"/>
<path fill="none" stroke-width="4" stroke="#bf7f7f" d="M 414.526 354.937C 414.526 364.937 411.963 367.999 409.963 377.999C 401.963 403.999 389.963 447.999 389.963 447.999C 389.963 447.999 395.963 519.999 403.963 547.999"/>
<path fill="none" stroke-width="4" stroke="#bf7f7f" d="M 409.963 377.999C 417.963 379.999 443.963 391.999 443.963 391.999L 463.963 415.999"/>
<path fill="none" stroke-width="4" stroke="#bf7f7f" d="M 409.963 295.999C 409.963 299.999 407.963 308.666 407.963 312.666"/>
<path fill="none" stroke-width="4" stroke="#bf7f7f" d="M 432.63 301.332C 432.63 305.332 430.63 311.332 430.63 315.332"/>
<path fill="none" stroke-width="4" stroke="#bf7f7f" d="M 249.262 474.874C 252.292 474.874 254.749 471.693 254.749 467.77C 254.749 463.847 252.292 460.667 249.262 460.667C 246.231 460.667 243.775 463.847 243.775 467.77C 243.775 471.693 246.231 474.874 249.262 474.874z"/>
<path fill="none" stroke-width="4" stroke="#bf7f7f" d="M 453.963 486.547C 456.195 486.547 458.005 483.874 458.005 480.577C 458.005 477.279 456.195 474.606 453.963 474.606C 451.731 474.606 449.922 477.279 449.922 480.577C 449.922 483.874 451.731 486.547 453.963 486.547z"/>
<path fill="none" stroke-width="4" stroke="#bf7f7f" d="M 483.963 485.695C 486.195 485.695 488.005 483.022 488.005 479.725C 488.005 476.428 486.195 473.755 483.963 473.755C 481.731 473.755 479.922 476.428 479.922 479.725C 479.922 483.022 481.731 485.695 483.963 485.695z"/>
<path fill="none" stroke-width="4" stroke="#bf7f7f" d="M 446.963 505.279C 446.963 505.279 455.713 512.516 466.213 512.729C 476.713 512.942 487.963 507.833 487.963 507.833"/>
<path fill="none" stroke-width="4" stroke="#bf7f7f" d="M 443.963 468.667C 447.963 461.855 458.963 465.261 465.963 464.409L 465.963 465.261"/>
<path fill="none" stroke-width="4" stroke="#bf7f7f" d="M 477.963 467.815C 483.963 465.261 493.963 463.558 495.963 470.37"/>
<path fill="none" stroke-width="4" stroke="#bf7f7f" d="M 547.963 562.609C 537.963 566.879 519.963 562.609 517.963 577.554C 513.963 592.499 511.963 609.578 517.963 622.388C 525.963 637.333 545.963 641.602 561.963 635.198C 567.963 633.063 573.963 624.523 577.963 618.118C 583.963 603.173 583.963 586.094 577.963 575.419C 569.963 562.609 549.963 560.474 537.963 547.665C 535.963 543.395 535.963 536.99 537.963 532.72C 539.963 530.585 545.963 530.585 549.963 532.72C 549.963 532.72 549.963 536.99 549.963 539.125"/>
<path fill="none" stroke-width="4" stroke="#bf7f7f" d="M 551.963 639.999C 553.963 679.999 541.963 757.999 541.963 757.999C 541.963 757.999 511.963 727.999 491.963 717.999C 491.963 737.999 487.963 775.999 487.963 775.999"/>
<path fill="none" stroke-width="4" stroke="#bf7f7f" d="M 542.63 759.999C 528.63 759.999 516.63 759.999 502.63 755.999C 500.055 755.355 495.269 754.09 489.962 752.669"/>
<path fill="none" stroke-width="4" stroke="#bf7f7f" d="M 483.865 751.032"/>
<path fill="none" stroke-width="4" stroke="#bf7f7f" d="M 483.865 751.032C 474.412 748.485 465.297 745.999 465.297 745.999L 399.963 770.666C 399.963 770.666 392.63 761.999 392.63 759.999"/>
<path fill="none" stroke-width="4" stroke="#bf7f7f" d="M 553.963 665.999L 575.963 715.999L 585.963 751.999"/>
<path fill="none" stroke-width="4" stroke="#bf7f7f" d="M 489.963 669.999L 493.963 675.999L 511.963 687.999C 511.963 687.999 536.63 690.666 548.63 694.666"/>
<path fill="none" stroke-width="4" stroke="#bf7f7f" d="M 531.963 592.707C 531.963 596.707 531.963 598.707 531.963 602.707"/>
<path fill="none" stroke-width="4" stroke="#bf7f7f" d="M 545.297 597.374C 545.297 601.374 545.297 605.374 545.297 609.374"/>
<path fill="none" stroke-width="4" stroke="#bf7f7f" d="M 535.297 624.666C 541.963 627.332 549.963 625.332 556.63 621.332"/>
<path fill="none" stroke-width="4" stroke="#bf7f7f" d="M 327.963 525.999C 343.963 495.999 363.963 469.999 389.963 447.999"/>
<path fill="none" stroke-width="4" stroke="#bf7f7f" d="M 323.963 395.332C 327.297 395.332 331.297 395.999 334.63 395.332C 338.63 394.666 341.963 393.332 345.963 393.332C 366.63 390.666 386.63 388.666 406.63 384.666"/>
<path fill="none" stroke-width="4" stroke="#bf7f7f" d="M 403.963 337.332C 414.63 340.666 425.963 341.999 437.297 341.332C 438.63 340.666 441.297 339.999 441.297 337.332"/>
<path fill="none" stroke-width="4" stroke="#bf7f7f" d="M 380.63 275.999C 382.63 279.999 387.297 281.999 388.63 286.666"/>
<path fill="none" stroke-width="4" stroke="#bf7f7f" d="M 391.963 261.332C 392.63 267.999 395.963 273.332 398.63 279.332"/>
<path fill="none" stroke-width="4" stroke="#bf7f7f" d="M 403.963 252.666C 405.963 260.666 407.963 269.332 410.63 277.332"/>
<path fill="none" stroke-width="4" stroke="#bf7f7f" d="M 429.297 277.332C 429.297 268.666 429.297 259.332 429.297 250.666"/>
<path fill="none" stroke-width="4" stroke="#bf7f7f" d="M 439.297 281.999C 439.963 275.999 439.963 269.999 441.297 263.332C 441.297 263.332 441.963 263.332 442.63 263.332"/>
<path fill="none" stroke-width="4" stroke="#bf7f7f" d="M 448.63 291.332C 452.63 284.666 453.297 276.666 455.963 269.332"/>
<path fill="none" stroke-width="4" stroke="#bf7f7f" d="M 455.297 301.332C 455.963 298.666 458.63 295.999 459.963 293.999C 463.963 291.332 465.963 287.332 468.63 283.999"/>
<path fill="none" stroke-width="4" stroke="#bf7f7f" d="M 459.297 311.999C 463.297 311.332 464.63 307.332 467.963 305.999"/>
<path fill="none" stroke-width="4" stroke="#bf7f7f" d="M 376.63 291.999C 380.63 293.332 381.963 297.332 385.297 299.332"/>
<path fill="none" stroke-width="4" stroke="#bf7f7f" d="M 375.963 307.999C 376.63 307.999 377.963 307.999 378.63 307.999"/>
<path fill="none" stroke-width="4" stroke="#bf7f7f" d="M 463.297 320.666C 463.963 320.666 464.63 320.666 465.297 320.666"/>
<path fill="none" stroke-width="4" stroke="#bf7f7f" d="M 553.963 137.999C 541.963 137.999 531.963 135.999 521.963 141.999C 505.963 157.999 504.63 195.332 509.963 201.999C 518.356 212.49 560.238 223.564 571.963 210.666C 578.63 203.332 581.963 159.999 576.63 153.332C 571.297 146.666 565.963 143.999 557.963 143.999"/>
<path fill="none" stroke-width="4" stroke="#bf7f7f" d="M 535.297 214.666C 535.297 214.666 530.176 241.434 524.335 269.938"/>
<path fill="none" stroke-width="4" stroke="#bf7f7f" d="M 522.539 278.648C 519.029 295.545 515.423 312.161 512.63 323.332C 510.528 331.74 522.63 354.666 525.297 368.666C 527.963 382.666 531.963 401.332 537.297 417.332"/>
<path fill="none" stroke-width="4" stroke="#bf7f7f" d="M 533.297 235.999C 540.63 249.332 559.963 268.666 564.63 285.332C 544.63 287.332 505.963 269.999 487.963 261.999C 487.963 263.999 476.63 273.332 476.63 273.332"/>
<path fill="none" stroke-width="4" stroke="#bf7f7f" d="M 531.297 243.999L 502.764 262.855"/>
<path fill="none" stroke-width="4" stroke="#bf7f7f" d="M 497.783 266.414L 480.63 278.666L 521.297 276.666"/>
<path fill="none" stroke-width="4" stroke="#bf7f7f" d="M 533.297 275.999L 549.297 271.999L 557.297 259.332"/>
<path fill="none" stroke-width="4" stroke="#bf7f7f" d="M 577.172 255.082"/>
<path fill="none" stroke-width="4" stroke="#bf7f7f" d="M 567.838 268.416"/>
<path fill="none" stroke-width="4" stroke="#bf7f7f" d="M 519.297 175.999C 524.63 170.666 532.63 170.666 539.297 173.332C 539.963 173.332 541.297 175.999 541.297 177.999"/>
<path fill="none" stroke-width="4" stroke="#bf7f7f" d="M 551.963 181.332C 551.297 179.332 553.297 177.999 554.63 177.999C 558.63 176.666 562.63 176.666 566.63 177.999C 569.963 179.332 569.963 183.999 569.963 187.332"/>
<path fill="none" stroke-width="4" stroke="#bf7f7f" d="M 531.963 197.332C 533.297 200.666 537.297 201.332 539.963 201.999C 546.63 203.332 553.963 203.332 560.63 201.999C 561.963 201.999 563.297 200.666 563.297 198.666"/>
<path fill="none" stroke-width="4" stroke="#bf7f7f" d="M 545.963 139.332C 541.963 139.332 537.297 137.999 535.297 141.999C 532.63 146.666 533.297 151.999 534.63 155.999C 538.63 165.999 552.63 166.666 562.63 163.332C 562.63 163.332 563.297 160.666 562.63 159.332C 559.963 155.999 556.63 153.332 553.297 151.999C 549.963 149.999 543.963 149.999 541.963 151.999C 539.297 154.666 547.297 155.999 550.63 156.666"/>
<path fill="none" stroke-width="4" stroke="#bf7f7f" d="M 524.63 141.332C 523.963 141.332 523.297 141.332 521.963 141.999C 522.63 142.666 522.63 141.999 521.963 141.999C 522.63 147.999 519.963 154.666 523.297 160.666"/>
<path fill="none" stroke-width="4" stroke="#bf7f7f" d="M 563.297 146.666C 564.63 151.332 569.297 153.999 567.963 159.332"/>
<path fill="none" stroke-width="4" stroke="#bf7f7f" d="M 455.297 394.666C 460.63 389.999 463.963 383.999 468.63 379.332C 482.63 363.999 491.297 347.332 503.297 330.666C 505.297 328.666 507.297 327.332 509.297 325.332"/>
<path fill="none" stroke-width="4" stroke="#bf7f7f" d="M 251.463 402.999C 251.463 402.999 251.463 416.499 257.963 422.499C 264.463 428.499 266.821 431.142 271.463 432.999C 276.463 434.999 286.963 436.999 286.963 436.999"/>
<path fill="none" stroke-width="4" stroke="#bf7f7f" d="M 212.963 435.999C 212.963 435.999 217.963 435.499 223.463 432.999C 228.963 430.499 235.963 428.499 238.463 424.499C 240.963 420.499 244.963 414.499 245.963 410.499C 246.963 406.499 248.963 401.999 248.963 401.999"/>
<path fill="none" stroke-width="4" stroke="#bf7f7f" d="M 218.879 471.111C 218.879 471.111 222.463 484.499 220.463 493.999C 218.463 503.499 215.463 510.999 209.463 510.499C 203.463 509.999 199.463 503.499 199.463 503.499"/>
</g>
<g>
<path fill="#ffffff" stroke="none" d="M 319.297 421.332L 347.297 409.999L 357.963 430.666L 330.63 445.332L 319.297 421.332z"/>
<path fill="#7fff00" stroke="none" d="M 349.297 409.999L 373.963 395.999L 383.963 415.332L 359.963 429.332L 349.297 409.999z"/>
<path fill="#ffff00" stroke="none" d="M 375.963 395.999L 383.963 415.332L 412.63 398.666L 402.63 379.332L 375.963 395.999z"/>
<path fill="#ffff00" stroke="none" d="M 332.63 445.999L 359.963 429.332L 369.963 453.332L 343.297 466.666L 332.63 445.999z"/>
<path fill="#ffff00" stroke="none" d="M 343.297 468.666L 370.63 455.999L 382.63 478.666L 352.63 495.999L 343.297 468.666z"/>
<path fill="#ffff00" stroke="none" d="M 321.297 429.332L 319.297 449.332C 319.297 449.332 328.63 463.332 327.963 461.332C 327.297 459.332 330.63 445.332 330.63 445.332L 321.297 429.332z"/>
<path fill="#ff0000" stroke="none" d="M 329.963 463.332L 332.63 448.666L 353.297 493.332L 349.963 507.332L 329.963 463.332z"/>
<path fill="#007fff" stroke="none" d="M 360.63 431.999L 412.63 401.999L 427.297 423.999L 370.63 455.999L 360.63 431.999z"/>
<path fill="#7fff00" stroke="none" d="M 370.63 455.999L 382.63 478.666L 411.963 469.332L 397.297 443.332L 370.63 455.999z"/>
<path fill="#007fff" stroke="none" d="M 382.63 478.666L 381.963 493.332L 407.297 481.999L 409.963 469.332L 382.63 478.666z"/>
<path fill="#0000ff" stroke="none" d="M 355.963 492.666L 380.63 482.666L 377.963 495.999L 350.63 509.332L 355.963 492.666z"/>
<path fill="#ff0000" stroke="none" d="M 399.297 441.332L 426.63 426.666L 443.297 453.999L 411.297 465.332L 399.297 441.332z"/>
<path fill="#ffffff" stroke="none" d="M 413.963 467.332L 410.63 480.666L 439.963 473.999L 440.63 455.999L 413.963 467.332z"/>
<path fill="#7f7f7f" stroke="none" d="M 432.63 423.332L 463.297 433.332L 445.963 464.666L 443.297 453.999L 427.297 421.999L 432.63 423.332z"/>
<path fill="#7f7f7f" stroke="none" d="M 374.63 497.999L 439.963 473.999L 426.63 513.999L 371.297 499.999L 374.63 497.999z"/>
<path fill="#00ff00" stroke="none" d="M 368.63 499.332L 395.963 508.666L 395.297 528.666L 363.963 518.666L 368.63 499.332z"/>
<path fill="#ffff00" stroke="none" d="M 437.297 487.999L 437.297 509.999L 448.63 489.332L 447.963 463.332L 437.297 487.999z"/>
<path fill="#ffff00" stroke="none" d="M 426.63 513.999L 424.63 535.332L 436.63 513.332L 436.63 490.666L 426.63 513.999z"/>
<path fill="#ff00ff" stroke="none" d="M 395.963 508.666L 426.63 513.999L 421.963 537.332L 395.297 528.666L 395.963 508.666z"/>
<path fill="#ff00ff" stroke="none" d="M 395.963 530.666L 395.297 551.332L 422.63 561.999L 421.963 537.332L 395.963 530.666z"/>
<path fill="#ff0000" stroke="none" d="M 423.963 537.999L 435.297 518.666L 441.297 537.999L 425.963 560.666L 423.963 537.999z"/>
<path fill="#00ff00" stroke="none" d="M 441.297 537.999L 436.63 515.999L 462.63 463.332L 464.63 483.332L 441.297 537.999z"/>
<path fill="#ffffff" stroke="none" d="M 447.963 463.332C 447.963 463.332 449.297 484.666 450.63 482.666C 451.963 480.666 461.963 459.332 461.963 459.332L 459.963 439.332L 447.963 463.332z"/>
<path fill="#ffffff" stroke="none" d="M 338.63 513.999L 363.963 518.666L 364.63 539.999L 340.63 535.332L 338.63 513.999z"/>
<path fill="#ffff00" stroke="none" d="M 366.63 540.666L 363.963 518.666L 395.297 528.666L 395.297 551.332L 366.63 540.666z"/>
<path fill="#ff0000" stroke="none" d="M 330.63 487.999L 343.297 490.666L 350.63 509.332L 365.297 504.666L 363.963 518.666L 335.963 512.666L 330.63 487.999z"/>
<path fill="#ffb299" stroke="none" d="M 131.963 216.999C 131.963 216.999 122.963 255.999 140.963 290.499C 158.963 324.999 184.463 339.999 217.463 342.999C 250.463 345.999 292.463 341.499 313.463 302.499C 334.463 263.499 340.463 275.499 337.463 240.999C 334.463 206.499 307.463 161.499 307.463 161.499L 235.463 140.499L 134.963 167.499L 131.963 216.999z"/>
<path fill="#7fff00" stroke="none" d="M 156.963 315.999C 156.963 315.999 152.963 325.999 154.963 336.999C 156.963 347.999 156.963 359.999 156.963 359.999C 156.963 359.999 143.963 362.999 134.963 351.999C 125.963 340.999 129.963 307.999 129.963 307.999C 129.963 307.999 112.963 311.999 101.963 306.999C 90.9634 301.999 77.9634 287.999 77.9634 287.999C 77.9634 287.999 108.963 288.999 107.963 279.999C 106.963 270.999 95.9634 275.999 83.9634 269.999C 71.9634 263.999 60.9634 250.999 64.9634 237.999C 68.9634 224.999 71.9634 242.999 71.9634 242.999C 71.9634 242.999 83.9634 253.999 101.963 245.999C 119.963 237.999 120.963 225.999 121.963 213.999C 122.963 201.999 130.963 183.999 132.963 178.999C 134.963 173.999 131.963 209.999 131.963 216.999C 131.963 223.999 131.963 258.999 136.963 275.999C 141.963 292.999 156.963 315.999 156.963 315.999z"/>
<path fill="#00ff7f" stroke="none" d="M 122.963 202.999L 140.963 167.999L 158.963 173.999L 161.963 177.999L 165.963 173.999L 165.963 145.999L 137.963 143.999C 137.963 143.999 141.963 157.999 128.963 160.999C 115.963 163.999 105.963 144.999 105.963 144.999C 105.963 144.999 104.963 158.999 108.963 165.999C 112.963 172.999 117.963 179.999 117.963 179.999L 100.963 180.999C 100.963 180.999 103.963 190.999 109.963 194.999C 115.963 198.999 122.963 202.999 122.963 202.999z"/>
<path fill="#9f3fff" stroke="none" d="M 187.963 180.999C 187.963 180.999 181.963 193.999 187.963 200.999C 193.963 207.999 201.963 212.999 201.963 212.999C 201.963 212.999 199.963 182.999 206.963 176.999C 213.963 170.999 221.963 165.999 223.963 172.999C 225.963 179.999 224.963 185.999 224.963 185.999C 224.963 185.999 243.963 173.999 245.963 177.999C 247.963 181.999 246.963 200.999 246.963 200.999C 246.963 200.999 259.963 192.999 260.963 187.999C 261.963 182.999 262.963 169.999 262.963 169.999C 262.963 169.999 281.963 176.999 282.963 182.999C 283.963 188.999 286.963 205.999 286.963 205.999C 286.963 205.999 296.963 186.999 296.963 181.999C 296.963 176.999 296.963 164.999 296.963 164.999C 296.963 164.999 312.963 158.999 307.963 156.999C 302.963 154.999 292.963 151.999 293.963 146.999C 294.963 141.999 318.963 134.999 322.963 139.999C 326.963 144.999 329.963 148.999 329.963 148.999L 326.963 125.999L 281.963 125.999C 281.963 125.999 277.963 96.9991 290.963 94.9991C 303.963 92.9991 326.963 94.9991 326.963 94.9991C 326.963 94.9991 308.963 68.9991 283.963 77.9991C 258.963 86.9991 239.963 107.999 239.963 107.999C 239.963 107.999 223.963 89.9991 205.963 87.9991C 187.963 85.9991 165.963 87.9991 165.963 87.9991C 165.963 87.9991 187.963 94.9991 193.963 101.999C 199.963 108.999 201.963 124.999 201.963 124.999C 201.963 124.999 193.963 125.999 176.963 124.999C 159.963 123.999 145.963 123.999 143.963 131.999C 141.963 139.999 139.963 146.999 139.963 146.999L 165.963 145.999L 165.963 165.999L 161.963 177.999L 140.963 167.999L 133.963 184.999C 133.963 184.999 127.963 188.999 135.963 203.999C 143.963 218.999 144.963 219.999 150.963 203.999C 156.963 187.999 168.963 184.999 171.963 184.999C 174.963 184.999 187.963 180.999 187.963 180.999z"/>
<path fill="#ff007f" stroke="none" d="M 144.963 103.999L 148.963 127.999L 176.963 124.999L 190.963 123.999L 179.963 105.999L 179.963 118.999C 179.963 118.999 170.963 114.999 165.963 111.999C 160.963 108.999 156.963 97.9991 156.963 97.9991L 154.963 108.999L 144.963 103.999z"/>
<path fill="#7f7fbf" stroke="none" d="M 288.963 124.999C 288.963 124.999 344.079 104.218 356.963 110.999C 375.963 120.999 374.963 146.999 374.963 146.999L 355.963 143.999C 355.963 143.999 369.963 154.999 371.963 163.999C 373.963 172.999 373.963 183.999 373.963 183.999C 373.963 183.999 358.963 168.999 358.963 177.999C 358.963 186.999 360.963 196.999 368.963 198.999C 376.963 200.999 388.963 204.999 388.963 204.999C 388.963 204.999 382.963 213.999 371.963 212.999C 360.963 211.999 351.963 207.999 351.963 207.999C 351.963 207.999 355.963 217.999 361.963 223.999C 367.963 229.999 374.963 232.999 374.963 232.999L 340.963 237.999C 340.963 237.999 337.963 214.999 330.963 202.999C 323.963 190.999 312.463 162.499 309.963 161.999C 307.463 161.499 305.963 151.999 305.963 151.999L 292.963 141.999L 305.963 137.999L 329.963 148.999L 326.963 125.999L 288.963 124.999z"/>
<path fill="#ff3f9f" stroke="none" d="M 202.963 309.999L 220.963 319.999C 220.963 319.999 208.963 331.999 201.963 331.999C 194.963 331.999 188.963 326.999 190.963 322.999C 192.963 318.999 202.963 309.999 202.963 309.999z"/>
<path fill="#bfbfff" stroke="none" d="M 231.963 256.999L 238.963 256.999L 243.963 283.999L 234.963 288.999L 231.963 256.999z"/>
<path fill="#bfbfff" stroke="none" d="M 285.963 248.999L 294.963 251.999L 289.963 281.999L 283.963 280.999L 285.963 248.999z"/>
<path fill="#ffffff" stroke="none" d="M 235.963 256.666L 236.63 269.999L 230.63 269.999L 231.963 256.999L 235.963 256.666z"/>
<path fill="#ffffff" stroke="none" d="M 285.297 253.999L 289.297 262.666L 286.63 280.666L 283.297 275.332L 285.297 253.999z"/>
<path fill="#ffbfff" stroke="none" d="M 199.713 319.999C 199.713 319.999 196.713 323.374 196.463 324.249C 196.213 325.124 196.213 325.374 196.588 326.124C 196.963 326.874 198.338 327.874 198.338 327.874C 198.338 327.874 198.213 326.624 198.088 325.749C 197.963 324.874 198.713 322.874 198.963 322.249C 199.213 321.624 199.713 319.999 199.713 319.999z"/>
</g>
<g>
<path fill="none" stroke-width="6" stroke="#7f0000" d="M 130.59 215.045C 128.491 243.349 135.957 293.191 151.963 313.999C 171.963 339.999 229.297 345.332 254.63 343.999C 276.69 342.838 301.297 327.332 309.297 315.332C 329.297 281.332 345.963 255.999 335.963 217.999C 331.963 204.999 326.963 191.999 320.213 179.999"/>
<path fill="none" stroke-width="6" stroke="#7f0000" d="M 199.963 339.999C 187.963 397.999 167.963 521.999 153.963 581.999C 139.963 639.999 129.963 669.999 129.963 669.999C 129.963 669.999 85.9634 753.999 81.9634 763.999"/>
<path fill="none" stroke-width="6" stroke="#7f0000" d="M 153.963 581.999C 162.963 591.999 253.213 661.249 253.213 661.249C 253.213 661.249 327.963 738.999 345.963 757.999"/>
<path fill="none" stroke-width="6" stroke="#7f0000" d="M 183.963 437.999C 195.963 437.999 325.963 507.999 337.963 517.999"/>
<path fill="none" stroke-width="6" stroke="#7f0000" d="M 195.963 371.999C 257.963 371.999 325.963 387.999 387.963 387.999"/>
<path fill="none" stroke-width="6" stroke="#7f0000" d="M 195.297 232.666C 208.63 221.332 226.63 208.666 237.963 211.332C 244.453 212.859 251.963 226.666 251.963 226.666"/>
<path fill="none" stroke-width="6" stroke="#7f0000" d="M 279.297 249.332C 296.63 247.332 301.297 233.332 313.297 231.332"/>
<path fill="none" stroke-width="6" stroke="#7f0000" d="M 242.165 287.419C 244.3 283.848 240.782 260.2 239.234 258.749C 237.686 257.299 233.107 254.946 231.238 259.009C 229.369 263.071 233.54 283.697 235.66 287.38C 237.781 291.063 240.03 290.99 242.165 287.419z"/>
<path fill="none" stroke-width="6" stroke="#7f0000" d="M 263.963 319.999C 247.297 323.999 237.963 324.666 222.63 321.999C 211.397 320.045 207.297 314.666 198.963 303.999"/>
<path fill="none" stroke-width="6" stroke="#7f0000" d="M 321.963 419.999C 351.963 411.999 401.963 379.999 401.963 379.999L 443.963 453.999C 443.963 453.999 384.63 479.332 353.963 495.999C 345.963 471.999 331.963 449.999 319.963 427.999"/>
<path fill="none" stroke-width="6" stroke="#7f0000" d="M 422.63 417.999C 438.63 429.332 449.963 428.666 463.963 433.999C 453.297 445.999 427.963 513.999 427.963 513.999C 427.963 513.999 385.963 507.999 373.963 501.999"/>
<path fill="none" stroke-width="6" stroke="#7f0000" d="M 341.297 489.332L 329.963 482.666L 333.963 469.999"/>
<path fill="none" stroke-width="6" stroke="#7f0000" d="M 329.297 480.666L 342.63 534.666C 342.63 534.666 417.963 557.332 424.63 562.666C 431.297 567.999 463.963 481.332 463.963 481.332C 463.963 481.332 461.297 453.999 463.297 435.999"/>
<path fill="none" stroke-width="4" stroke="#7f0000" d="M 339.297 512.666C 339.297 512.666 395.297 525.332 424.63 539.332C 443.297 500.666 449.297 487.332 461.297 463.999"/>
<path fill="none" stroke-width="4" stroke="#7f0000" d="M 427.963 513.999C 427.963 513.999 425.297 522.666 423.963 537.332C 422.515 553.267 424.63 562.666 424.63 562.666"/>
<path fill="none" stroke-width="6" stroke="#7f0000" d="M 319.963 429.999L 319.297 449.332C 319.297 449.332 321.963 453.332 331.297 468.666C 340.63 483.999 349.963 510.666 349.963 510.666C 349.963 510.666 373.963 498.666 392.63 489.999C 411.297 481.332 441.297 473.332 441.297 473.332L 443.963 453.999"/>
<path fill="none" stroke-width="4" stroke="#7f0000" d="M 347.963 409.332L 383.297 478.666L 379.297 493.999"/>
<path fill="none" stroke-width="4" stroke="#7f0000" d="M 374.63 398.666L 412.63 467.332L 409.297 481.332"/>
<path fill="none" stroke-width="4" stroke="#7f0000" d="M 412.63 401.332L 330.63 445.999L 328.63 461.999"/>
<path fill="none" stroke-width="4" stroke="#7f0000" d="M 426.63 425.999L 343.963 467.332L 340.63 486.666"/>
<path fill="none" stroke-width="4" stroke="#7f0000" d="M 395.963 509.999L 395.297 549.999"/>
<path fill="none" stroke-width="4" stroke="#7f0000" d="M 365.297 502.666L 364.63 540.666"/>
<path fill="none" stroke-width="4" stroke="#7f0000" d="M 449.963 465.999L 447.963 491.332L 451.297 508.666"/>
<path fill="none" stroke-width="4" stroke="#7f0000" d="M 439.297 487.999C 439.297 487.999 435.963 501.999 436.63 513.332C 437.297 524.666 439.297 539.332 439.297 539.332"/>
<path fill="none" stroke-width="6" stroke="#7f0000" d="M 290.1 282.063C 293.138 279.22 296.287 255.52 295.2 253.699C 294.113 251.877 290.362 248.351 287.443 251.74C 284.525 255.128 282.838 276.104 283.859 280.229C 284.88 284.354 287.061 284.905 290.1 282.063z"/>
<path fill="none" stroke-width="6" stroke="#7f0000" d="M 203.963 311.999C 203.963 311.999 193.297 319.332 191.963 324.666C 190.63 329.999 200.63 335.332 204.63 333.999C 208.63 332.666 220.63 322.666 220.63 322.666"/>
<path fill="none" stroke-width="4" stroke="#7f0000" d="M 213.297 318.666L 205.963 322.666"/>
<path fill="none" stroke-width="6" stroke="#7f0000" d="M 153.963 323.999C 151.963 335.999 155.963 347.999 155.963 359.999C 141.963 359.999 129.963 347.999 125.963 335.999C 123.963 325.999 127.963 315.999 129.963 305.999C 111.963 305.999 87.9634 309.999 77.9634 289.999C 89.9634 291.999 113.963 281.999 105.963 273.999C 97.9634 265.999 71.9634 273.999 67.9634 259.999C 63.9634 247.999 63.9634 235.999 67.9634 223.999C 67.9634 231.999 65.9634 241.999 73.9634 243.999C 93.9634 251.999 119.963 245.999 121.963 221.999C 123.963 201.999 127.963 183.999 141.963 167.999C 143.963 165.999 151.963 171.999 157.963 171.999C 159.963 173.999 163.963 179.999 163.963 177.999C 167.963 167.999 165.963 155.999 165.963 145.999C 157.963 147.999 139.963 139.999 139.963 153.999C 137.963 139.999 145.963 127.999 155.963 125.999C 169.963 119.999 185.963 127.999 201.963 125.999C 203.963 105.999 181.963 89.9991 163.963 89.9991C 193.963 75.9991 221.963 93.9991 243.963 113.999C 234.487 105.385 255.963 89.9991 265.963 85.9991C 285.963 75.9991 315.963 73.9991 327.963 95.9991C 313.963 97.9991 295.963 89.9991 285.963 99.9991C 277.963 105.999 281.963 117.999 281.963 127.999C 297.963 123.999 311.963 125.999 327.963 125.999C 327.963 135.999 331.963 143.999 329.963 153.999C 329.963 145.999 323.963 141.999 317.963 139.999C 309.963 139.999 301.963 135.999 293.963 141.999C 293.963 143.999 293.963 145.999 293.963 147.999C 299.963 153.999 309.963 151.999 305.963 161.999"/>
<path fill="none" stroke-width="6" stroke="#7f0000" d="M 323.963 115.999C 333.963 107.999 347.963 109.999 357.963 113.999C 371.963 117.999 375.963 137.999 373.963 153.999C 373.963 141.999 357.963 147.999 351.963 145.999C 373.963 143.999 373.963 173.999 373.963 189.999C 373.963 181.999 363.963 169.999 359.963 175.999C 347.963 191.999 371.963 207.999 389.963 203.999C 385.963 219.999 363.963 213.999 351.963 211.999C 353.963 207.999 347.963 207.999 349.963 203.999C 355.963 215.999 361.963 235.999 377.963 231.999C 367.963 239.999 355.963 237.999 343.963 237.999"/>
<path fill="none" stroke-width="6" stroke="#7f0000" d="M 185.963 177.999C 183.963 191.999 185.963 209.999 201.963 213.999C 201.963 203.999 199.963 191.999 203.963 181.999C 205.963 173.999 217.963 165.999 221.963 171.999C 225.963 173.999 223.963 181.999 223.963 187.999C 231.963 185.999 237.963 175.999 245.963 179.999C 251.963 185.999 245.963 193.999 247.963 201.999C 245.963 199.999 245.963 205.999 243.963 203.999C 257.963 203.999 265.963 183.999 263.963 171.999C 287.963 167.999 281.963 195.999 285.963 209.999C 293.963 195.999 297.963 181.999 295.963 165.999C 299.963 165.999 303.963 163.999 305.963 161.999C 303.963 167.999 307.963 171.999 307.963 177.999"/>
<path fill="none" stroke-width="6" stroke="#7f0000" d="M 138.963 144.999C 136.963 144.999 134.963 144.999 133.963 145.999C 132.963 151.999 132.963 158.999 125.963 160.999C 121.963 161.999 116.963 161.999 113.963 159.999C 109.963 156.999 109.963 150.999 107.963 145.999C 106.963 144.999 106.963 147.999 105.963 146.999C 105.963 152.999 104.963 159.999 106.963 165.999C 107.963 170.999 112.963 173.999 117.963 177.999C 118.963 178.999 117.963 181.999 115.963 182.999C 110.963 183.999 106.963 182.999 101.963 182.999C 101.963 192.999 113.963 199.999 123.963 200.999"/>
<path fill="none" stroke-width="6" stroke="#7f0000" d="M 150.963 126.999C 139.963 121.999 144.963 108.999 143.963 99.9991C 141.963 106.999 150.963 111.999 155.963 108.999C 156.963 108.999 155.963 103.999 155.963 100.999C 160.963 102.999 160.963 109.999 165.963 112.999C 169.963 114.999 174.963 116.999 178.963 118.999C 179.963 113.999 178.963 108.999 173.963 105.999C 182.963 105.999 187.963 116.999 190.963 124.999"/>
</g>
</g>
<g>
    <animateTransform attributeName="transform" type="scale"
            additive="replace" fill="freeze" 
            values="1.0; 0.2" begin="btn1.click" dur="1"/>
    <animateTransform attributeName="transform" type="scale"
            additive="replace" fill="freeze" 
            values="0.2; 1.0" begin="btn2.click" dur="1"/>
<g>
<path fill="#7f7f00" stroke-width="6" stroke="#000000" d="M 103.245 542.506C 108.767 542.506 113.245 534.11 113.245 523.756L 113.245 261.256C 113.245 250.901 108.767 242.506 103.245 242.506L 103.245 242.506C 97.722 242.506 93.2448 250.901 93.2448 261.256L 93.2448 523.756C 93.2448 534.11 97.722 542.506 103.245 542.506L 103.245 542.506z"/>
<path fill="#7f7f00" stroke-width="6" stroke="#000000" d="M 505.964 542.509C 511.487 542.509 515.964 534.114 515.964 523.759L 515.964 261.259C 515.964 250.904 511.487 242.509 505.964 242.509L 505.964 242.509C 500.441 242.509 495.964 250.904 495.964 261.259L 495.964 523.759C 495.964 534.114 500.441 542.509 505.964 542.509L 505.964 542.509z"/>
<path fill="#7f7f00" stroke-width="6" stroke="#000000" d="M 304.604 242.496C 310.127 242.496 314.604 250.891 314.604 261.246L 314.604 523.746C 314.604 534.1 310.127 542.496 304.604 542.496L 304.604 542.496C 299.082 542.496 294.605 534.1 294.605 523.746L 294.605 261.246C 294.605 250.891 299.082 242.496 304.604 242.496L 304.604 242.496z"/>
</g>
<g>
<path fill="#7f7f00" stroke-width="6" stroke="#000000" d="M 203.924 32.5091C 209.447 32.5091 213.924 40.9045 213.924 51.2591L 213.924 313.759C 213.924 324.113 209.447 332.509 203.924 332.509L 203.924 332.509C 198.402 332.509 193.925 324.113 193.925 313.759L 193.925 51.2591C 193.925 40.9045 198.402 32.5091 203.924 32.5091L 203.924 32.5091z"/>
<path fill="#7f7f00" stroke-width="6" stroke="#000000" d="M 405.284 32.5124C 410.807 32.5124 415.284 40.9078 415.284 51.2624L 415.284 313.762C 415.284 324.117 410.807 332.512 405.284 332.512L 405.284 332.512C 399.762 332.512 395.284 324.117 395.284 313.762L 395.284 51.2624C 395.284 40.9078 399.762 32.5124 405.284 32.5124L 405.284 32.5124z"/>
</g>
<g>
<path fill="#7f7f00" stroke-width="6" stroke="#000000" d="M 203.924 452.509C 209.447 452.509 213.924 460.904 213.924 471.259L 213.924 733.759C 213.924 744.113 209.447 752.509 203.924 752.509L 203.924 752.509C 198.402 752.509 193.925 744.113 193.925 733.759L 193.925 471.259C 193.925 460.904 198.402 452.509 203.924 452.509L 203.924 452.509z"/>
<path fill="#7f7f00" stroke-width="6" stroke="#000000" d="M 405.284 452.512C 410.807 452.512 415.284 460.908 415.284 471.262L 415.284 733.762C 415.284 744.117 410.807 752.512 405.284 752.512L 405.284 752.512C 399.762 752.512 395.284 744.117 395.284 733.762L 395.284 471.262C 395.284 460.908 399.762 452.512 405.284 452.512L 405.284 452.512z"/>
</g>
</g>
</svg>