<svg xmlns="http://www.w3.org/2000/svg"
	xmlns:xlink="http://www.w3.org/1999/xlink"
	viewBox="26.4 0 577 792"
	width="632.89" height="792">
<g id="scene">
        <set attributeName="opacity" to="1" 
		        fill="freeze" begin="btn1.click"/>
        <set attributeName="opacity" to="0" 
		        fill="freeze" begin="btn2.click"/>
        <set attributeName="opacity" to="0" 
		        fill="freeze" begin="scene.load"/>

<g>
<path fill="#FFFF80" stroke="none" d="M 603.445 792L 603.445 0L 26.4451 0L 26.4451 792L 603.445 792z"/>
</g>
<g>
<path fill="#A0D54A" stroke="none" d="M 28.7784 201.333C 28.7784 201.333 112.778 170.667 213.445 160C 301.158 150.706 397.445 150 459.445 164C 521.445 178 519.445 168 519.445 168C 519.445 168 536.778 160.667 561.445 156C 594.91 149.669 600.924 156.042 600.924 156.042L 598.924 786.042L 28.7784 790.667L 28.7784 201.333z"/>
<path fill="#FFFFC0" stroke="none" d="M 28.7784 436C 28.7784 436 77.4451 416 111.445 412C 145.445 408 252.778 380.667 252.778 380.667C 252.778 380.667 253.181 374.522 285.445 356C 302.605 346.149 331.432 334.019 352.778 321.333C 376.215 307.405 391.445 293.333 391.445 293.333L 454.778 269.333L 543.445 238L 585.445 198L 599.403 206.708L 601.403 326.708C 601.403 326.708 571.445 340 555.445 358C 539.445 376 543.445 390 553.445 410C 563.445 430 578.112 433.333 585.445 442.667C 589.352 447.64 600.112 465.333 600.112 465.333L 597.445 756C 597.445 756 579.445 722 561.445 688C 543.445 654 530.913 653.471 492.778 614.667C 454.778 576 454.112 508 427.445 484C 403.475 462.427 380.778 474.667 328.778 488.667C 276.778 502.667 248.778 510 195.445 532C 147.232 551.888 137.445 570 97.4451 616C 57.4451 662 28.7784 708 28.7784 708L 28.7784 436z"/>
<path fill="#80C41B" stroke-width="4" stroke="#80C41B" d="M 189.445 530C 169.445 572 127.445 614 105.445 654C 97.4451 670 87.4451 686 81.4451 704C 85.4451 704 97.4451 711.562 99.4451 709.562C 137.445 653.562 171.445 586 203.445 530"/>
<path fill="#80C41B" stroke-width="4" stroke="#80C41B" d="M 437.445 528C 411.445 590 381.445 662 359.445 736C 361.445 736 383.445 740 385.445 740C 419.445 678 421.445 592 451.445 530"/>
</g>
<g>
<path fill="none" stroke-width="6" stroke="#008837" d="M 31.4451 202C 43.4451 190 59.4451 186 75.4451 184C 129.445 172 181.445 160 235.445 158C 307.445 156 377.445 148 449.445 160C 499.445 170 549.445 178 593.445 204"/>
<path fill="none" stroke-width="6" stroke="#008837" d="M 513.445 176C 539.445 158 571.445 154 601.445 156"/>
<path fill="none" stroke-width="6" stroke="#BFAC6F" d="M 581.445 202C 561.445 230 531.445 246 495.445 252C 471.445 256 451.445 272 427.445 282C 415.445 286 403.445 286 393.445 292C 383.445 296 377.445 306 369.445 312C 357.445 320 347.445 324 335.445 332C 319.445 340 303.445 344 289.445 352C 277.445 360 265.445 368 255.445 378C 251.445 382 245.445 384 239.445 386C 229.445 388 221.445 384 211.445 386C 183.445 394 157.445 406 129.445 408C 113.445 412 97.4451 412 81.4451 416C 65.4451 422 45.4451 424 31.4451 434"/>
<path fill="none" stroke-width="6" stroke="#BFAC6F" d="M 31.4451 716C 31.4451 698 41.4451 686 51.4451 672C 83.4451 628 119.445 594 157.445 558C 169.445 548 183.445 542 197.445 532C 211.445 524 223.445 518 237.445 516C 281.445 506 319.445 486 363.445 480C 385.445 476 415.445 468 429.445 486C 453.445 518 451.445 560 477.445 596C 497.445 624 523.445 642 547.445 668C 569.445 696 577.445 730 597.445 758"/>
<path fill="none" stroke-width="6" stroke="#BFAC6F" d="M 599.445 314C 599.445 318 601.445 322 599.445 326C 583.445 346 549.445 350 549.445 376C 549.445 384.944 549.445 404 555.445 412C 567.445 426 583.445 436 593.445 452C 593.445 454 595.445 458 595.445 462"/>
<path fill="#FFFFC0" stroke-width="4" stroke="#FCC1DF" d="M 487.445 38C 475.28 38 475.445 48 471.445 50C 453.445 56 431.445 66 443.445 80C 457.445 98 487.445 92 511.445 88L 511.445 82C 523.445 80 535.445 86 547.445 78C 555.445 72 561.445 66 559.445 56C 565.445 56 573.445 58 575.445 50C 553.445 54 531.445 58 507.445 56C 507.445 56 507.445 52 507.445 50C 505.445 46 499.445 46 495.445 44C 495.445 44 495.445 42 495.445 40C 493.445 40 489.445 38 487.445 38z"/>
<path fill="#FFFFC0" stroke-width="4" stroke="#FCC1DF" d="M 181.445 60C 169.445 60 161.445 68 157.445 78C 151.445 92 129.445 92 119.445 106C 119.445 108 117.445 112 121.445 112C 125.445 112 127.445 112 131.445 112C 131.445 120 117.445 136 121.445 138C 115.462 135.184 242.762 119.482 233.445 120C 247.445 120 261.445 120 255.445 104C 253.445 98 245.445 98 239.445 98C 245.445 94 255.445 94 261.445 86C 265.445 78 257.445 72 249.445 72C 253.445 60 271.445 56 261.445 46C 251.445 30 227.445 32 213.445 38C 209.445 40 207.445 54 201.445 58C 195.445 62 187.445 60 181.445 60z"/>
</g>
<g>
<path fill="#FEA033" stroke="none" d="M 407.445 130L 406.445 103L 394.445 104L 391.445 95L 394.445 87L 384.445 77L 371.445 79L 375.445 91L 370.445 97L 358.445 88L 334.445 95L 331.445 125L 407.445 130z"/>
<path fill="#DFD5B0" stroke="none" d="M 327.445 141.5C 327.599 160.25 338.014 169.134 357.225 171.684C 372.91 173.766 388.596 171.684 397.462 156.416C 406.327 141.148 399.507 116.858 389.96 112.694C 380.412 108.53 374.019 102.978 354.369 108.183C 334.72 113.388 327.317 125.885 327.445 141.5z"/>
<path fill="#DFD5B0" stroke="none" d="M 331.445 94L 336.445 101.5L 333.445 108L 320.945 107.5L 319.445 101L 331.445 94z"/>
<path fill="#FEA033" stroke="none" d="M 331.445 109.5L 325.445 111.5L 329.945 122.5L 336.445 114L 331.445 109.5z"/>
<path fill="none" stroke-width="4" stroke="#BFAC6F" d="M 307.445 356C 311.445 370 321.445 388 325.445 402C 327.445 402 331.445 402 333.445 402C 351.445 390 383.445 366 403.445 356"/>
<path fill="none" stroke-width="4" stroke="#BFAC6F" d="M 325.445 402C 325.445 414 313.445 424 313.445 436C 313.445 434 359.445 424 371.445 418"/>
<path fill="#BFAC6F" stroke-width="4" stroke="#BFAC6F" d="M 293.445 446C 279.445 446 276.112 447.333 263.445 456C 251.542 464.144 246.551 485.964 260.778 489.333C 286.112 495.333 294.778 496 317.445 486C 328.115 481.293 334.64 458.219 323.445 452C 317.445 448.667 301.691 446 293.445 446z"/>
<path fill="none" stroke-width="4" stroke="#BFAC6F" d="M 308.112 431.333C 296.112 431.333 245.445 440 245.445 440C 245.445 440 227.445 482 251.445 498C 251.445 498 261.445 506 265.445 504"/>
<path fill="none" stroke-width="4" stroke="#BFAC6F" d="M 313.445 436L 308.778 449.333"/>
</g>
<g>
<path fill="none" stroke-width="6" stroke="#80620D" d="M 349.445 107C 347.021 107.209 333.49 113.418 330.445 125C 328.945 133.56 326.945 141.44 328.445 150C 329.945 157.133 335.43 162.778 339.931 167.058C 353.435 177.045 371.439 178.471 386.443 172.765C 393.945 169.911 392.444 169.911 401.446 154.931C 402.191 153.693 405.074 127.807 395.445 117.125C 386.443 107.138 365.949 105.573 349.445 107z"/>
<path fill="none" stroke-width="6" stroke="#80620D" d="M 366.445 177C 366.445 225 363.306 269.25 363.306 269.25C 363.306 269.25 399.306 340.25 405.306 354.25"/>
<path fill="none" stroke-width="6" stroke="#80620D" d="M 363.306 269.25C 345.306 289.25 321.306 333.25 305.306 355.25"/>
<path fill="none" stroke-width="6" stroke="#80620D" d="M 320.445 101.625C 320.445 103.625 320.445 107.625 320.445 107.625C 324.445 109.625 330.445 109.625 334.445 107.625C 336.445 105.625 336.445 97.625 334.445 95.625C 332.445 93.625 326.476 93.656 324.445 95.625C 291.445 127.625 301.445 164 301.445 164C 301.445 164 339.445 195 363.445 204"/>
<path fill="none" stroke-width="6" stroke="#80620D" d="M 334.445 101.625C 336.445 89.625 342.445 91.625 348.445 91.625C 348.445 93.625 348.445 97.625 348.445 99.625"/>
<path fill="none" stroke-width="6" stroke="#80620D" d="M 369.445 197C 384.445 210 400.445 211 412.445 227"/>
<path fill="none" stroke-width="6" stroke="#80620D" d="M 381.445 90C 378.445 91 373.445 90 372.445 88C 370.445 86 370.445 80 372.445 79C 378.445 76 389.445 77 392.445 83C 395.445 89 394.445 97 389.445 100C 386.445 102 381.445 102 377.445 104"/>
<path fill="none" stroke-width="6" stroke="#80620D" d="M 397.445 112C 402.445 111 407.445 110 405.445 104C 405.445 104 404.445 104 403.445 104"/>
<path fill="none" stroke-width="6" stroke="#80620D" d="M 356.445 106C 359.445 106 363.445 107 364.445 104C 365.445 98 365.445 88 357.445 91C 357.445 91 357.445 93 357.445 94"/>
<path fill="none" stroke-width="6" stroke="#80620D" d="M 352.445 135C 352.445 138 352.445 141 352.445 144"/>
<path fill="none" stroke-width="6" stroke="#80620D" d="M 378.445 134C 378.445 137 378.445 140 378.445 143"/>
<path fill="none" stroke-width="6" stroke="#80620D" d="M 361.945 163C 365.945 163 374.445 160.5 379.445 161.5"/>
</g>
</g>
<g>
<path fill="#80620D" stroke-width="6" stroke="#000000" d="M 199.507 529.625C 205.03 529.625 209.507 521.23 209.507 510.875L 209.507 248.375C 209.507 238.02 205.03 229.625 199.507 229.625L 199.507 229.625C 193.985 229.625 189.508 238.02 189.508 248.375L 189.508 510.875C 189.508 521.23 193.985 529.625 199.507 529.625L 199.507 529.625z"/>
<path fill="#80620D" stroke-width="6" stroke="#000000" d="M 447.57 529.625C 453.093 529.625 457.57 521.23 457.57 510.875L 457.57 248.375C 457.57 238.02 453.093 229.625 447.57 229.625L 447.57 229.625C 442.047 229.625 437.57 238.02 437.57 248.375L 437.57 510.875C 437.57 521.23 442.047 529.625 447.57 529.625L 447.57 529.625z"/>
</g>
</svg>
