<svg xmlns="http://www.w3.org/2000/svg"
	xmlns:xlink="http://www.w3.org/1999/xlink"
	viewBox="56.9 0 577 792"
	width="690.899" height="848.889">
<g id="scene">
    <set attributeName="opacity" to="1" 
		    fill="freeze" begin="btn1.click"/>
    <set attributeName="opacity" to="0" 
		    fill="freeze" begin="btn2.click"/>
    <set attributeName="opacity" to="0" 
		    fill="freeze" begin="scene.load"/>
<g>
<path fill="#ff7fbf" stroke="none" d="M 633.95 792L 633.95 0L 56.9496 0L 56.9496 792L 633.95 792z"/>
<path fill="#ff9f3f" stroke-width="12" stroke="#ffbf7f" d="M 545.249 595.8L 545.249 196.201L 145.65 196.201L 145.65 595.8L 545.249 595.8z"/>
<path fill="#ffff3f" stroke-width="12" stroke="#ffff7f" d="M 628.009 396L 345.45 113.441L 62.8901 396L 345.45 678.56L 628.009 396z"/>
</g>
<g>
<path fill="#ffdfbf" stroke="none" d="M 358.615 62.666C 358.615 62.666 334.615 77.9993 329.948 99.3326C 325.281 120.666 315.948 152.666 322.615 167.999C 329.281 183.333 352.615 205.333 369.281 211.999C 385.948 218.666 428.615 211.999 443.281 209.333C 457.948 206.666 462.615 201.333 462.615 201.333C 462.615 201.333 479.281 179.999 483.281 151.999C 487.281 123.999 487.948 86.666 487.948 86.666C 487.948 86.666 461.948 67.9993 445.281 63.9993C 428.615 59.9993 381.281 55.3326 381.281 55.3326L 358.615 62.666z"/>
<path fill="#ffffff" stroke="none" d="M 342.615 154.666L 353.281 182.666C 353.281 182.666 371.948 196.666 387.281 199.999C 402.615 203.333 422.615 205.333 435.948 197.333C 449.281 189.333 458.615 171.333 458.615 171.333C 458.615 171.333 425.948 170.666 409.948 171.333C 393.948 171.999 373.281 163.333 364.615 159.999C 355.948 156.666 342.615 154.666 342.615 154.666z"/>
<path fill="none" stroke-width="6" stroke="#00cc00" d="M 341.948 104.666C 341.948 104.666 331.948 49.9993 335.281 54.666C 338.615 59.3326 355.281 89.3326 355.281 89.3326L 359.948 45.9993L 381.281 77.3326L 394.615 35.3326L 405.281 78.666L 425.281 38.666L 425.948 92.666C 425.948 92.666 466.615 46.666 465.948 49.9993C 465.281 53.3326 449.948 92.666 449.948 92.666L 489.948 65.3326L 471.948 105.333L 510.615 87.3326L 473.281 121.999C 473.281 121.999 497.948 118.666 495.948 119.999C 493.948 121.333 479.281 128.666 479.281 128.666"/>
<path fill="none" stroke-width="12" stroke="#ffffff" d="M 325.948 567.999C 279.948 597.999 251.948 643.999 239.948 697.999C 231.948 727.999 237.948 755.999 235.948 785.999"/>
</g>
<g>
<path fill="none" stroke-width="9" stroke="#7f0000" d="M 133.948 731.999C 131.948 707.999 133.948 683.999 141.948 661.999C 157.948 615.999 175.948 571.999 207.948 533.999C 245.948 487.999 293.948 453.999 335.948 411.999"/>
<path fill="none" stroke-width="9" stroke="#7f0000" d="M 347.948 419.999C 361.948 445.999 387.948 457.999 409.948 473.999C 433.948 493.999 451.948 515.999 467.948 539.999C 423.948 543.999 379.948 547.999 335.948 541.999C 335.948 553.999 337.948 565.999 341.948 577.999"/>
<path fill="none" stroke-width="9" stroke="#7f0000" d="M 109.948 741.999C 117.948 741.999 123.948 741.999 131.948 739.999"/>
<path fill="none" stroke-width="9" stroke="#7f0000" d="M 341.948 413.999C 351.948 377.999 367.948 343.999 375.948 305.999C 379.948 275.999 393.948 249.999 393.948 219.999"/>
<path fill="none" stroke-width="9" stroke="#7f0000" d="M 391.948 251.562C 409.948 249.562 427.948 255.562 445.948 257.562C 477.948 261.562 511.948 259.562 543.948 259.562C 573.948 205.562 571.948 145.562 569.948 87.5618"/>
<path fill="none" stroke-width="9" stroke="#7f0000" d="M 385.948 264.499C 331.948 252.499 277.948 240.499 221.948 244.499C 205.948 264.499 193.948 286.499 185.948 310.499C 179.948 336.499 185.948 364.499 181.948 390.499"/>
<path fill="none" stroke-width="9" stroke="#7f0000" d="M 430.635 59.8743C 406.635 59.8743 382.635 51.8743 360.635 59.8743C 330.635 71.8743 328.635 109.874 322.635 139.874C 318.635 161.874 324.635 179.874 342.635 193.874C 354.635 201.874 364.635 211.874 376.635 215.874C 404.635 221.874 430.635 209.874 458.635 207.874C 482.635 171.874 488.635 129.874 486.635 87.8743C 470.635 77.8743 456.635 61.8743 436.635 65.8743"/>
<path fill="none" stroke-width="9" stroke="#7f0000" d="M 462.635 169.874C 434.635 175.874 418.635 173.874 390.635 169.874C 384.635 167.874 344.635 155.874 342.635 143.874C 344.312 153.934 346.635 171.874 348.635 179.874C 366.635 199.874 404.635 207.874 428.635 199.874C 438.635 195.874 448.635 189.874 456.635 179.874"/>
<path fill="none" stroke-width="9" stroke="#7f0000" d="M 372.635 109.874C 372.635 107.874 372.635 103.874 372.635 101.874C 372.635 111.874 372.635 121.874 372.635 131.874"/>
<path fill="none" stroke-width="9" stroke="#7f0000" d="M 434.635 147.874C 434.635 137.874 434.635 129.874 434.635 119.874"/>
</g>
</g>
<g>
    <animateTransform attributeName="transform" type="scale"
            additive="replace" fill="freeze" 
            values="1.0; 0.2" begin="btn1.click" dur="1"/>
    <animateTransform attributeName="transform" type="scale"
            additive="replace" fill="freeze" 
            values="0.2; 1.0" begin="btn2.click" dur="1"/>
<g>
<path fill="#7f7f00" stroke-width="6" stroke="#000000" d="M 106.856 357.307C 112.379 357.307 116.856 348.912 116.856 338.557L 116.856 76.0571C 116.856 65.7026 112.379 57.3071 106.856 57.3071L 106.856 57.3071C 101.333 57.3071 96.856 65.7026 96.856 76.0571L 96.856 338.557C 96.856 348.912 101.333 357.307 106.856 357.307L 106.856 357.307z"/>
<path fill="#7f7f00" stroke-width="6" stroke="#000000" d="M 476.279 348.261C 481.468 346.372 482.805 336.952 479.263 327.222L 389.491 80.553C 385.95 70.8229 378.871 64.465 373.682 66.3537L 373.682 66.3537C 368.492 68.2424 367.156 77.6627 370.697 87.3928L 460.47 334.061C 464.011 343.791 471.089 350.149 476.279 348.261L 476.279 348.261z"/>
<path fill="#7f7f00" stroke-width="6" stroke="#000000" d="M 106.856 734.693C 112.379 734.693 116.856 726.298 116.856 715.943L 116.856 453.443C 116.856 443.088 112.379 434.693 106.856 434.693L 106.856 434.693C 101.333 434.693 96.856 443.088 96.856 453.443L 96.856 715.943C 96.856 726.298 101.333 734.693 106.856 734.693L 106.856 734.693z"/>
<path fill="#7f7f00" stroke-width="6" stroke="#000000" d="M 373.683 725.644C 378.873 727.533 385.951 721.175 389.492 711.445L 479.265 464.777C 482.806 455.047 481.47 445.626 476.28 443.738L 476.28 443.738C 471.091 441.849 464.012 448.207 460.471 457.937L 370.699 704.605C 367.158 714.336 368.493 723.756 373.683 725.644L 373.683 725.644z"/>
<path fill="#7f7f00" stroke-width="6" stroke="#000000" d="M 214.618 348.262C 219.807 350.151 226.886 343.793 230.427 334.063L 320.203 87.3975C 323.744 77.6675 322.408 68.2473 317.219 66.3585L 317.219 66.3585C 312.029 64.4697 304.951 70.8276 301.41 80.5576L 211.634 327.223C 208.093 336.953 209.428 346.374 214.618 348.262L 214.618 348.262z"/>
<path fill="#7f7f00" stroke-width="6" stroke="#000000" d="M 584.043 357.307C 589.566 357.307 594.043 348.912 594.043 338.557L 594.043 76.0571C 594.043 65.7025 589.566 57.3071 584.043 57.3071L 584.043 57.3071C 578.521 57.3071 574.043 65.7025 574.043 76.0571L 574.043 338.557C 574.043 348.912 578.521 357.307 584.043 357.307L 584.043 357.307z"/>
<path fill="#7f7f00" stroke-width="6" stroke="#000000" d="M 317.219 725.638C 322.408 723.749 323.744 714.329 320.203 704.599L 230.427 457.933C 226.886 448.203 219.807 441.845 214.618 443.734L 214.618 443.734C 209.428 445.623 208.092 455.043 211.634 464.773L 301.409 711.439C 304.951 721.169 312.029 727.527 317.219 725.638L 317.219 725.638z"/>
<path fill="#7f7f00" stroke-width="6" stroke="#000000" d="M 584.043 734.693C 589.566 734.693 594.043 726.298 594.043 715.943L 594.043 453.443C 594.043 443.088 589.566 434.693 584.043 434.693L 584.043 434.693C 578.521 434.693 574.043 443.088 574.043 453.443L 574.043 715.943C 574.043 726.298 578.521 734.693 584.043 734.693L 584.043 734.693z"/>
</g>
</g>
</svg>