<svg xmlns="http://www.w3.org/2000/svg"
	xmlns:xlink="http://www.w3.org/1999/xlink"
	viewBox="31.1 15.8 577 792"
	width="577" height="792">
<g id="scene">
    <set attributeName="opacity" to="1" 
		    fill="freeze" begin="btn1.click"/>
    <set attributeName="opacity" to="0" 
		    fill="freeze" begin="btn2.click"/>
    <set attributeName="opacity" to="0" 
		    fill="freeze" begin="scene.load"/>
<g>
<path fill="#FF8000" stroke="none" d="M 608.065 807.809L 608.065 15.8091L 31.0647 15.8091L 31.0647 807.809L 608.065 807.809z"/>
</g>
<g>
<path fill="#C0E8F1" stroke="none" d="M 31.4185 15.7433L 608.064 15.8058L 608.064 169.806L 30.4185 159.743L 31.4185 15.7433z"/>
<path fill="#008837" stroke="none" d="M 31.3143 103.306L 120.064 79.8058L 200.064 107.806L 286.064 89.8058L 482.064 99.8058L 608.064 110.806L 608.064 273.806L 31.0643 287.806L 31.3143 103.306z"/>
<path fill="#A0D54A" stroke-width="3" stroke="#80C41B" d="M 606.814 273.556C 566.814 271.556 522.064 265.806 482.064 261.806C 376.064 247.806 272.064 241.806 166.064 241.806C 152.064 243.806 138.064 245.806 122.064 249.806C 92.0643 255.806 62.5643 249.473 32.5643 251.473L 32.8976 498.306L 606.064 523.806L 606.814 273.556z"/>
<path fill="#BFAC6F" stroke-width="3" stroke="#9F853A" d="M 607.922 460.293L 606.439 462.306C 604.564 441.181 582.564 420.806 560.939 428.181L 554.189 431.181L 562.689 429.681L 559.939 429.431L 572.189 442.806L 571.939 438.181C 563.939 363.181 571.689 286.056 552.939 212.431C 553.064 211.556 552.439 210.681 551.564 210.556C 550.689 210.431 549.814 211.056 549.689 211.931L 549.689 211.931C 538.189 231.431 537.814 254.806 537.814 276.556C 537.689 331.931 542.314 387.306 543.939 442.681L 543.939 444.056C 544.189 450.931 549.314 456.556 556.064 457.431L 558.814 457.806C 561.814 458.306 564.814 457.806 567.439 456.306L 568.064 455.806C 578.814 453.431 577.814 473.431 586.814 478.556C 591.939 484.431 600.939 485.056 606.814 479.931"/>
<path fill="#BFAC6F" stroke-width="3" stroke="#9F853A" d="M 553.939 32.3058C 549.439 41.8058 545.314 51.3058 543.314 61.9308C 535.439 104.556 523.564 143.056 518.939 185.056C 515.439 216.431 523.564 247.431 522.814 278.806C 515.314 297.806 512.564 318.306 515.814 338.431C 521.314 373.306 519.814 406.181 521.314 440.431C 521.689 448.181 519.939 456.931 528.064 463.556C 530.689 469.306 537.314 471.806 543.064 469.306C 548.814 466.681 551.314 460.056 548.814 454.306L 547.939 455.931C 549.189 434.681 547.314 413.556 548.439 392.181C 549.314 374.806 544.939 358.181 542.064 340.556C 538.689 319.431 543.439 298.931 549.314 278.806C 548.439 248.431 543.689 218.306 542.439 187.931C 550.564 152.306 556.189 116.556 558.564 80.0558C 559.564 64.4308 557.689 48.6808 556.689 32.9308C 556.814 32.1808 556.314 31.4308 555.564 31.1808C 554.814 31.0558 554.064 31.5558 553.939 32.3058L 553.939 32.3058z"/>
<path fill="#BFAC6F" stroke-width="3" stroke="#9F853A" d="M 520.814 49.8058C 517.189 59.8058 518.439 70.6808 517.564 80.9308C 511.814 144.056 497.189 205.181 489.064 267.556C 493.564 298.306 503.189 328.056 505.314 359.181C 496.189 401.556 480.064 450.931 505.814 490.681C 509.814 496.556 517.689 498.181 523.689 494.181C 529.564 490.306 531.189 482.306 527.189 476.306C 508.064 440.681 524.064 399.181 530.939 362.056C 529.314 330.056 516.064 299.431 516.189 267.556C 516.314 205.806 532.439 145.556 536.314 83.6808C 537.064 71.3058 528.064 60.6808 521.814 49.8058C 521.689 49.4308 521.439 49.3058 521.189 49.3058C 520.939 49.3058 520.689 49.5558 520.814 49.8058L 520.814 49.8058z"/>
<path fill="#80CA7F" stroke-width="3" stroke="#008837" d="M 87.5643 394.306C 92.1893 436.806 106.064 477.181 117.564 518.181C 117.939 519.556 119.189 520.306 120.564 520.056C 121.939 519.806 122.814 518.431 122.439 517.056C 119.939 499.056 111.814 482.806 106.064 465.681C 98.0643 442.181 92.0643 418.556 88.5643 394.181C 88.5643 393.806 88.3143 393.681 87.9393 393.681C 87.6893 393.681 87.5643 394.056 87.5643 394.306L 87.5643 394.306z"/>
<path fill="#80CA7F" stroke-width="3" stroke="#008837" d="M 115.439 347.306C 108.189 398.056 99.5643 453.056 122.064 501.556C 122.439 502.556 123.689 503.056 124.814 502.681C 125.939 502.181 126.439 500.931 125.939 499.931C 106.189 451.431 111.689 398.431 116.689 347.556C 116.814 347.181 116.564 346.806 116.189 346.806C 115.814 346.681 115.439 346.931 115.439 347.306L 115.439 347.306z"/>
<path fill="#80CA7F" stroke-width="3" stroke="#008837" d="M 133.689 376.806C 125.189 421.181 120.814 467.556 125.189 512.806C 125.314 513.931 126.439 514.806 127.689 514.556C 128.814 514.431 129.689 513.306 129.439 512.181C 128.439 467.181 129.564 421.931 135.189 377.181C 135.314 376.806 135.064 376.431 134.689 376.306C 134.314 376.181 133.814 376.431 133.689 376.806L 133.689 376.806z"/>
<path fill="#80CA7F" stroke-width="3" stroke="#008837" d="M 157.064 404.806C 144.689 442.556 133.064 480.556 122.564 518.806C 122.314 519.931 123.064 521.056 124.189 521.431C 125.314 521.681 126.439 520.931 126.814 519.806C 141.189 483.056 147.314 443.181 158.314 405.181C 158.314 404.806 158.189 404.431 157.814 404.431C 157.439 404.306 157.189 404.556 157.064 404.806L 157.064 404.806z"/>
<path fill="#80CA7F" stroke-width="3" stroke="#008837" d="M 78.3143 440.431C 86.3143 466.306 88.8143 493.431 96.4393 519.431C 97.0643 520.681 98.5643 521.306 99.9393 520.681C 101.189 520.056 101.814 518.556 101.189 517.306C 93.1893 491.806 87.9393 465.431 79.4393 440.056C 79.4393 439.681 79.0643 439.556 78.6893 439.556C 78.3143 439.681 78.1893 440.056 78.3143 440.431L 78.3143 440.431z"/>
<path fill="#80CA7F" stroke-width="3" stroke="#008837" d="M 190.064 459.806C 189.689 472.181 192.064 484.181 193.814 496.306C 193.939 497.181 194.814 497.806 195.689 497.681C 196.564 497.556 197.189 496.681 197.064 495.806C 195.064 483.806 191.689 472.056 191.689 459.806C 191.564 459.306 191.314 459.056 190.814 459.056C 190.439 459.056 190.064 459.431 190.064 459.806L 190.064 459.806z"/>
<path fill="#80CA7F" stroke-width="3" stroke="#008837" d="M 206.939 416.556C 203.064 446.306 201.564 476.181 199.314 506.056C 199.314 507.556 200.564 508.806 202.064 508.806C 203.564 508.931 204.939 507.681 204.939 506.056C 206.689 476.306 205.439 446.431 208.439 416.681C 208.439 416.306 208.189 415.806 207.689 415.806C 207.314 415.806 206.939 416.056 206.939 416.556L 206.939 416.556z"/>
<path fill="#80CA7F" stroke-width="3" stroke="#008837" d="M 224.939 412.431C 220.814 441.056 212.064 468.556 206.439 496.806C 206.189 498.306 207.314 499.681 208.814 499.806C 210.314 500.056 211.689 498.931 211.814 497.431C 216.814 469.181 224.314 441.431 226.439 412.681C 226.564 412.306 226.189 411.931 225.814 411.806C 225.314 411.806 224.939 412.056 224.939 412.431L 224.939 412.431z"/>
<path fill="#80CA7F" stroke-width="3" stroke="#008837" d="M 45.5643 393.931C 49.0643 427.806 61.6893 459.681 71.9393 491.806C 72.3143 492.931 73.6893 493.681 74.8143 493.306C 76.0643 492.931 76.6893 491.681 76.3143 490.431C 65.8143 458.431 51.6893 427.306 46.5643 393.681C 46.5643 393.431 46.3143 393.306 45.9393 393.306C 45.6893 393.306 45.5643 393.556 45.5643 393.931L 45.5643 393.931z"/>
<path fill="#80CA7F" stroke-width="3" stroke="#008837" d="M 562.939 447.931C 553.064 477.431 542.564 506.931 538.564 538.056C 538.439 539.181 539.314 540.181 540.314 540.306C 541.439 540.431 542.439 539.681 542.564 538.556C 546.064 507.681 555.689 478.181 564.314 448.431C 564.439 448.056 564.314 447.681 563.939 447.556C 563.564 447.431 563.064 447.556 562.939 447.931L 562.939 447.931z"/>
<path fill="#80CA7F" stroke-width="3" stroke="#008837" d="M 576.939 478.556C 576.939 479.056 577.314 479.306 577.689 479.306C 578.064 479.306 578.439 479.056 578.439 478.556C 578.439 478.181 578.064 477.806 577.689 477.806C 577.314 477.806 576.939 478.181 576.939 478.556L 576.939 478.556z"/>
<path fill="#80CA7F" stroke-width="3" stroke="#008837" d="M 542.564 419.556C 534.439 448.181 525.814 476.681 521.814 506.306C 521.689 507.556 522.564 508.806 523.939 508.931C 525.189 509.056 526.439 508.181 526.564 506.931C 530.064 477.431 538.564 449.056 543.939 420.056C 544.064 419.681 543.814 419.306 543.439 419.181C 543.064 419.056 542.689 419.181 542.564 419.556L 542.564 419.556z"/>
<path fill="#80CA7F" stroke-width="3" stroke="#008837" d="M 592.939 423.056C 576.689 460.181 554.939 495.556 545.689 535.431C 545.314 536.931 546.314 538.431 547.814 538.681C 549.314 539.056 550.814 538.056 551.064 536.556C 559.939 497.056 580.314 461.431 594.439 423.681C 594.564 423.306 594.439 422.806 593.939 422.681C 593.564 422.431 593.064 422.681 592.939 423.056L 592.939 423.056z"/>
<path fill="#80CA7F" stroke-width="3" stroke="#008837" d="M 511.564 471.431C 509.689 495.056 511.064 518.556 513.189 542.181C 513.314 543.681 514.564 544.806 516.064 544.806C 517.564 544.681 518.689 543.431 518.564 541.931C 516.564 518.431 512.189 495.181 513.314 471.431C 513.314 470.931 512.939 470.556 512.439 470.556C 512.064 470.556 511.689 470.931 511.564 471.431L 511.564 471.431z"/>
<path fill="#80CA7F" stroke-width="3" stroke="#008837" d="M 526.439 475.431C 526.439 475.931 526.814 476.306 527.314 476.306C 527.689 476.306 528.189 475.931 528.189 475.431C 528.189 474.931 527.689 474.556 527.314 474.556C 526.814 474.556 526.439 474.931 526.439 475.431L 526.439 475.431z"/>
<path fill="#80CA7F" stroke-width="3" stroke="#008837" d="M 520.439 434.556C 519.189 477.556 520.564 521.806 535.439 562.556C 535.939 563.931 537.439 564.556 538.814 564.056C 540.189 563.556 540.814 562.056 540.314 560.806C 528.814 519.806 523.189 477.306 522.064 434.681C 522.064 434.181 521.814 433.806 521.314 433.806C 520.814 433.806 520.439 434.056 520.439 434.556L 520.439 434.556z"/>
<path fill="#80CA7F" stroke-width="3" stroke="#008837" d="M 538.939 469.681C 532.939 497.556 531.314 526.806 534.564 555.181C 534.939 556.931 536.689 557.931 538.314 557.556C 540.064 557.181 541.189 555.556 540.814 553.806C 537.814 525.931 537.064 497.681 540.439 469.931C 540.564 469.556 540.189 469.056 539.814 469.056C 539.314 468.931 538.939 469.306 538.939 469.681L 538.939 469.681z"/>
<path fill="#80CA7F" stroke-width="3" stroke="#008837" d="M 571.314 498.556C 559.314 516.556 545.064 534.181 539.939 555.681C 539.564 557.181 540.439 558.806 542.064 559.181C 543.564 559.431 545.189 558.556 545.564 556.931C 551.189 536.056 563.314 518.431 572.814 499.431C 572.939 499.056 572.814 498.556 572.439 498.306C 572.064 498.056 571.564 498.181 571.314 498.556L 571.314 498.556z"/>
<path fill="#80CA7F" stroke-width="3" stroke="#008837" d="M 593.064 488.556C 581.064 508.681 561.814 523.681 552.189 545.306C 551.564 546.806 552.314 548.431 553.814 549.056C 555.189 549.681 556.939 549.056 557.564 547.556C 566.564 526.181 584.939 510.556 594.314 489.431C 594.564 489.056 594.439 488.556 594.064 488.431C 593.689 488.181 593.189 488.306 593.064 488.556L 593.064 488.556z"/>
<path fill="#80CA7F" stroke-width="3" stroke="#008837" d="M 572.564 536.931C 567.814 541.556 564.064 547.556 563.689 554.431C 563.564 555.806 564.564 557.056 565.939 557.181C 567.189 557.306 568.439 556.306 568.564 554.931C 569.189 548.806 571.814 543.431 573.939 537.806C 574.189 537.431 574.064 536.931 573.689 536.681C 573.314 536.431 572.814 536.556 572.564 536.931L 572.564 536.931z"/>
<path fill="#80CA7F" stroke-width="3" stroke="#008837" d="M 49.8143 482.931C 57.4393 498.431 68.8143 511.806 75.1893 528.056C 75.9393 529.556 77.6893 530.306 79.0643 529.556C 80.5643 528.931 81.3143 527.181 80.6893 525.681C 72.4393 510.056 60.9393 496.806 51.0643 482.181C 50.9393 481.931 50.4393 481.806 50.0643 481.931C 49.6893 482.181 49.5643 482.681 49.8143 482.931L 49.8143 482.931z"/>
<path fill="#80CA7F" stroke-width="3" stroke="#008837" d="M 54.6893 465.806C 68.8143 491.181 88.4393 513.056 101.439 539.181C 101.689 540.556 103.064 541.556 104.439 541.306C 105.939 541.181 106.814 539.806 106.689 538.306C 106.564 536.556 106.814 534.556 105.939 533.056C 91.6893 507.806 71.8143 488.181 55.8143 465.056C 55.5643 464.681 55.1893 464.556 54.8143 464.806C 54.5643 465.056 54.4393 465.556 54.6893 465.806L 54.6893 465.806z"/>
<path fill="#BFAC6F" stroke-width="3" stroke="#9F853A" d="M 94.1893 471.681C 97.8143 489.806 105.064 506.806 109.689 524.681C 109.939 525.806 111.064 526.431 112.189 526.181C 113.189 525.931 113.939 524.806 113.564 523.681C 111.314 505.056 101.689 488.681 95.5643 471.181C 95.4393 470.806 95.0643 470.556 94.6893 470.681C 94.3143 470.806 94.0643 471.306 94.1893 471.681L 94.1893 471.681z"/>
<path fill="#BFAC6F" stroke-width="3" stroke="#9F853A" d="M 388.689 59.3058C 391.814 72.4308 390.189 85.9308 397.814 97.9308C 427.814 145.181 459.814 182.306 491.314 229.181C 493.314 232.181 496.189 233.806 499.064 235.556C 501.064 238.806 505.314 239.681 508.564 237.681C 511.689 235.681 512.689 231.431 510.564 228.181C 510.939 226.181 512.189 223.681 511.439 222.306C 485.939 180.806 456.314 148.556 426.439 110.181C 421.064 103.181 414.064 98.0558 408.064 91.3058C 399.564 81.6808 397.439 69.3058 390.689 58.6808C 390.439 58.1808 389.814 57.8058 389.314 58.0558C 388.814 58.1808 388.564 58.8058 388.689 59.3058L 388.689 59.3058z"/>
<path fill="#BFAC6F" stroke-width="3" stroke="#9F853A" d="M 488.564 186.931C 480.064 229.931 469.689 272.056 464.689 315.931C 461.814 340.306 467.689 364.556 465.314 389.181C 463.689 405.431 454.439 419.181 447.064 433.431C 443.439 440.056 445.939 448.181 452.439 451.681C 459.064 455.306 467.189 452.806 470.689 446.306C 482.439 430.056 492.564 412.181 494.064 391.806C 495.939 366.806 490.314 342.056 491.814 317.431C 494.564 274.681 508.564 229.431 493.814 187.806C 493.189 185.806 491.189 184.556 489.064 185.056C 487.064 185.681 485.814 187.806 486.314 189.806L 488.564 186.931z"/>
<path fill="#BFAC6F" stroke-width="3" stroke="#9F853A" d="M 462.314 441.681C 439.689 464.806 405.939 465.431 376.064 474.056C 365.689 477.056 357.064 486.931 356.564 498.431C 353.814 502.681 355.189 508.431 359.564 511.181C 363.814 513.806 369.564 512.556 372.314 508.181C 377.939 505.806 381.314 499.931 387.439 498.681C 421.439 492.556 456.814 480.181 464.939 443.556C 465.439 442.806 465.314 441.806 464.564 441.306C 463.814 440.806 462.814 440.931 462.314 441.681L 462.314 441.681z"/>
<path fill="#BFAC6F" stroke-width="3" stroke="#9F853A" d="M 318.689 48.4308C 335.814 76.6808 368.189 86.9308 391.814 108.431C 395.689 112.931 402.439 113.306 406.939 109.431C 411.314 105.556 411.814 98.6808 407.939 94.3058C 405.939 91.0558 404.064 87.5558 400.689 86.1808C 372.939 74.9308 344.564 64.1808 320.689 46.4308C 320.189 45.8058 319.189 45.8058 318.689 46.4308C 318.064 46.9308 318.064 47.9308 318.689 48.4308L 318.689 48.4308z"/>
<path fill="#BFAC6F" stroke-width="3" stroke="#9F853A" d="M 277.689 37.4308C 284.439 52.0558 288.564 68.8058 301.814 79.3058C 304.689 81.5558 308.564 83.9308 312.689 86.0558C 331.189 95.4308 352.064 90.8058 371.564 94.6808C 375.439 94.8058 378.564 91.9308 378.814 88.0558C 378.939 84.3058 376.064 81.0558 372.189 80.9308C 347.564 82.4308 322.939 80.5558 301.939 65.5558C 291.564 58.1808 286.939 46.1808 279.189 36.5558C 278.939 36.1808 278.439 35.9308 278.064 36.1808C 277.564 36.4308 277.439 37.0558 277.689 37.4308L 277.689 37.4308z"/>
<path fill="#BFAC6F" stroke-width="3" stroke="#9F853A" d="M 329.064 88.3058C 309.439 90.5558 290.314 95.9308 272.314 104.306C 268.064 106.681 266.439 112.181 268.939 116.431C 271.314 120.806 276.814 122.306 281.189 119.931L 278.689 118.806C 284.314 118.681 289.314 116.306 294.064 113.681C 300.939 109.806 307.564 107.056 315.064 104.681C 322.064 102.431 326.814 96.6808 330.189 90.4308C 330.814 90.1808 331.064 89.4308 330.689 88.8058C 330.439 88.1808 329.689 88.0558 329.064 88.3058L 329.064 88.3058z"/>
<path fill="#BFAC6F" stroke-width="3" stroke="#9F853A" d="M 479.439 23.8058C 472.314 79.8058 485.564 135.931 499.939 189.681C 497.064 207.431 497.189 225.681 493.439 243.306C 492.189 249.931 496.564 256.181 503.064 257.431C 509.689 258.681 515.939 254.431 517.189 247.806C 521.439 226.181 521.814 204.181 522.064 182.181C 506.314 135.681 500.814 87.5558 488.064 38.9308C 486.564 33.4308 482.689 29.1808 480.689 23.8058C 480.689 23.4308 480.439 23.1808 480.064 23.1808C 479.689 23.1808 479.439 23.4308 479.439 23.8058L 479.439 23.8058z"/>
<path fill="#BFAC6F" stroke-width="3" stroke="#9F853A" d="M 489.439 302.806C 480.814 351.556 483.439 399.931 472.189 449.681C 469.814 460.306 462.689 468.806 456.814 477.931L 455.564 480.306C 454.189 482.681 453.564 485.306 453.814 487.931L 454.564 492.931C 455.939 497.931 456.564 503.181 458.814 507.931C 460.189 514.431 466.564 518.806 473.064 517.431C 479.689 516.181 483.939 509.806 482.689 503.181C 482.189 498.556 481.439 494.056 480.689 489.431L 479.814 485.556L 478.064 493.181L 482.064 486.181C 481.939 486.556 481.689 486.931 481.564 487.306C 488.439 477.806 494.939 468.056 497.564 456.431C 509.314 404.181 504.439 353.431 493.064 303.181C 493.064 302.181 492.439 301.306 491.439 301.181C 490.439 301.181 489.564 301.931 489.439 302.806L 489.439 302.806z"/>
<path fill="#BFAC6F" stroke-width="3" stroke="#9F853A" d="M 608.159 114.107C 607.206 112.867 606.002 111.782 604.564 110.931C 598.564 107.306 590.814 109.306 587.189 115.306L 587.314 115.431C 565.689 143.806 525.689 180.181 550.439 218.181C 550.439 219.056 551.189 219.806 552.064 219.806C 552.939 219.806 553.689 219.056 553.689 218.181L 553.689 218.181C 561.189 206.431 562.064 192.556 570.064 180.306C 582.058 161.703 595.969 146.815 608.161 129.541"/>
<path fill="#BFAC6F" stroke-width="3" stroke="#9F853A" d="M 553.939 203.931C 570.564 205.681 585.814 194.806 600.064 186.556C 602.439 185.306 602.939 181.306 603.314 178.056C 604.814 174.931 603.314 171.056 600.189 169.681C 596.939 168.181 593.189 169.556 591.689 172.681C 576.939 178.931 562.814 187.056 552.814 199.681C 551.314 200.681 550.814 202.681 551.689 204.306C 552.689 205.806 554.689 206.431 556.314 205.431L 553.939 203.931z"/>
<path fill="#BFAC6F" stroke-width="3" stroke="#9F853A" d="M 510.939 219.806C 503.939 249.306 512.439 278.181 517.314 307.056C 517.564 314.056 523.439 319.681 530.564 319.306C 537.564 319.056 543.064 313.181 542.814 306.056L 542.314 306.806C 543.439 301.681 542.814 296.556 540.564 292.056C 528.439 268.681 518.189 245.431 513.189 219.806C 513.189 219.181 512.689 218.681 512.064 218.681C 511.439 218.681 510.939 219.181 510.939 219.806L 510.939 219.806z"/>
<path fill="#A0D54A" stroke-width="3" stroke="#80C41B" d="M 277.064 100.431C 282.814 107.181 289.689 112.431 297.439 116.681C 303.564 116.806 308.439 111.931 308.564 105.931C 308.564 99.9308 303.689 94.9308 297.689 94.9308C 292.814 98.6808 287.064 99.4308 279.814 95.9308C 278.564 95.1808 276.939 95.5558 276.189 96.8058C 275.439 98.0558 275.814 99.6808 277.064 100.431L 277.064 100.431z"/>
<path fill="#A0D54A" stroke-width="3" stroke="#80C41B" d="M 287.689 146.306C 292.814 142.681 300.939 139.306 300.564 131.931C 303.814 127.431 302.939 121.181 298.439 117.931C 294.064 114.681 287.814 115.681 284.564 120.056C 279.314 123.431 276.689 128.806 277.189 135.056C 274.939 139.681 276.814 145.056 281.314 147.306C 285.939 149.431 291.314 147.556 293.564 143.056L 287.689 146.306z"/>
<path fill="#A0D54A" stroke-width="3" stroke="#80C41B" d="M 254.564 96.1808C 254.564 97.0558 255.189 97.6808 256.064 97.6808C 256.939 97.6808 257.564 97.0558 257.564 96.1808C 257.564 95.4308 256.939 94.6808 256.064 94.6808C 255.189 94.6808 254.564 95.4308 254.564 96.1808L 254.564 96.1808z"/>
<path fill="#A0D54A" stroke-width="3" stroke="#80C41B" d="M 306.689 118.806C 314.564 121.181 318.064 130.931 327.064 130.931C 333.314 131.181 338.439 126.431 338.689 120.306C 338.939 114.056 334.189 108.931 328.064 108.681L 328.439 110.681C 320.939 109.556 313.439 109.806 306.189 114.431C 305.064 114.556 304.189 115.556 304.314 116.806C 304.439 118.056 305.439 118.931 306.689 118.806L 306.689 118.806z"/>
<path fill="#A0D54A" stroke-width="3" stroke="#80C41B" d="M 277.064 62.5558C 280.314 70.0558 286.814 75.0558 291.689 81.3058C 296.814 84.6808 303.564 83.3058 306.939 78.1808C 310.189 73.1808 308.814 66.3058 303.814 63.0558L 307.189 64.8058C 298.564 60.6808 288.939 56.9308 279.064 58.6808C 277.939 58.1808 276.689 58.5558 276.189 59.6808C 275.564 60.6808 276.064 61.9308 277.064 62.5558L 277.064 62.5558z"/>
<path fill="#A0D54A" stroke-width="3" stroke="#80C41B" d="M 251.189 45.8058C 253.689 47.0558 255.689 47.8058 256.439 53.0558C 256.689 54.3058 258.939 55.1808 260.439 56.1808C 260.439 55.9308 260.564 55.5558 260.564 55.3058C 264.814 58.4308 270.564 57.4308 273.689 53.3058C 276.689 49.0558 275.689 43.3058 271.564 40.1808C 267.689 32.8058 256.439 31.8058 249.314 35.5558C 246.939 35.5558 245.064 37.4308 245.064 39.8058C 245.064 42.1808 246.939 44.0558 249.314 44.0558L 251.189 45.8058z"/>
<path fill="#A0D54A" stroke-width="3" stroke="#80C41B" d="M 247.314 120.931C 250.314 124.681 252.189 129.681 256.689 131.431C 257.564 131.806 259.189 130.431 260.439 129.806C 264.814 131.806 270.064 129.806 272.064 125.431C 274.064 121.056 272.064 115.806 267.689 113.806L 268.939 111.056C 262.814 108.556 256.564 110.306 250.439 110.681C 247.689 109.806 244.564 111.306 243.689 114.181C 242.814 117.056 244.439 120.056 247.314 120.931L 247.314 120.931z"/>
<path fill="#A0D54A" stroke-width="3" stroke="#80C41B" d="M 305.939 39.4308C 309.939 44.1808 314.814 48.0558 321.314 47.4308C 326.689 47.8058 331.189 43.8058 331.564 38.4308C 331.939 33.0558 327.939 28.5558 322.564 28.1808L 323.814 26.5558C 321.689 25.9308 319.189 24.3058 317.689 25.0558C 315.564 26.0558 314.064 28.8058 309.939 28.4308C 306.064 27.9308 302.689 30.6808 302.189 34.5558C 301.814 38.3058 304.564 41.8058 308.314 42.1808L 305.939 39.4308z"/>
<path fill="#A0D54A" stroke-width="3" stroke="#80C41B" d="M 340.314 42.3058C 340.814 50.9308 345.814 57.4308 348.689 65.4308C 351.939 70.5558 358.689 72.1808 363.814 68.9308C 368.939 65.8058 370.564 59.0558 367.439 53.9308L 368.439 51.0558C 362.814 42.6808 353.314 36.4308 342.939 38.9308C 342.064 38.1808 340.689 38.4308 340.064 39.3058C 339.314 40.1808 339.439 41.5558 340.314 42.3058L 340.314 42.3058z"/>
<path fill="#A0D54A" stroke-width="3" stroke="#80C41B" d="M 352.689 113.306C 358.689 120.806 366.939 125.431 374.314 131.181C 380.189 134.806 387.814 133.056 391.439 127.181C 395.064 121.306 393.314 113.556 387.439 109.931C 377.939 102.806 365.064 101.806 354.189 105.806C 353.314 105.056 351.939 105.181 351.189 106.056C 350.439 106.931 350.689 108.306 351.564 109.056L 352.689 113.306z"/>
<path fill="#A0D54A" stroke-width="3" stroke="#80C41B" d="M 329.189 104.181C 330.814 111.431 335.314 117.056 341.189 121.181C 346.439 124.181 353.064 122.306 356.064 117.056C 359.064 111.806 357.189 105.056 351.939 102.181C 346.439 98.0558 338.939 99.6808 332.439 100.431C 330.939 99.5558 329.064 100.056 328.189 101.556C 327.439 102.931 327.814 104.806 329.314 105.681L 329.189 104.181z"/>
<path fill="#A0D54A" stroke-width="3" stroke="#80C41B" d="M 386.064 45.0558C 386.064 52.4308 386.439 59.8058 394.189 65.1808C 398.689 69.0558 405.314 68.4308 409.064 64.0558C 412.814 59.6808 412.314 53.0558 407.814 49.3058C 404.689 43.4308 397.439 43.3058 391.689 42.0558C 390.314 40.3058 387.939 40.0558 386.314 41.3058C 384.564 42.6808 384.314 45.0558 385.564 46.6808L 386.064 45.0558z"/>
<path fill="#A0D54A" stroke-width="3" stroke="#80C41B" d="M 370.189 33.8058C 372.814 39.3058 378.189 43.5558 384.564 43.1808C 389.314 44.3058 394.064 41.4308 395.314 36.6808C 396.439 31.9308 393.564 27.1808 388.814 25.9308C 384.689 22.6808 379.689 23.6808 375.064 23.3058C 372.689 21.5558 369.314 22.0558 367.564 24.4308C 365.814 26.8058 366.314 30.1808 368.689 31.9308L 370.189 33.8058z"/>
<path fill="#A0D54A" stroke-width="3" stroke="#80C41B" d="M 403.689 88.0558C 410.189 93.1808 416.814 99.0558 425.564 99.3058C 424.939 99.4308 424.189 99.5558 423.564 99.6808C 429.689 100.931 435.689 97.0558 436.939 90.9308C 438.189 84.8058 434.314 78.8058 428.189 77.5558C 419.939 74.6808 411.564 81.4308 403.689 83.5558C 402.439 83.5558 401.439 84.5558 401.439 85.8058C 401.439 87.0558 402.439 88.0558 403.689 88.0558L 403.689 88.0558z"/>
<path fill="#A0D54A" stroke-width="3" stroke="#80C41B" d="M 456.314 43.4308C 458.939 49.5558 460.939 55.9308 466.189 60.4308C 470.314 65.1808 477.439 65.6808 482.189 61.5558C 486.939 57.4308 487.439 50.3058 483.314 45.5558C 478.439 37.4308 468.314 34.1808 459.314 34.3058C 457.689 33.1808 455.564 33.5558 454.564 35.1808C 453.439 36.6808 453.814 38.8058 455.439 39.9308L 456.314 43.4308z"/>
<path fill="#A0D54A" stroke-width="3" stroke="#80C41B" d="M 452.814 75.0558C 452.939 82.6808 457.689 90.8058 465.564 93.3058C 471.064 96.3058 478.064 94.3058 481.064 88.6808C 484.189 83.1808 482.064 76.1808 476.439 73.1808C 473.439 73.1808 471.189 71.6808 468.189 69.0558C 465.439 66.6808 461.564 66.5558 457.814 66.5558C 456.439 65.1808 454.189 65.1808 452.814 66.5558C 451.439 67.9308 451.439 70.1808 452.814 71.5558L 452.814 75.0558z"/>
<path fill="#A0D54A" stroke-width="3" stroke="#80C41B" d="M 496.939 39.8058C 494.814 46.4308 497.064 52.8058 498.064 59.1808C 501.189 64.9308 508.314 67.0558 513.939 64.0558C 519.689 61.0558 521.939 53.9308 518.814 48.1808C 515.814 41.8058 509.689 37.9308 502.689 38.0558C 501.689 36.1808 499.314 35.4308 497.439 36.5558C 495.564 37.5558 494.939 39.9308 495.939 41.8058L 496.939 39.8058z"/>
<path fill="#A0D54A" stroke-width="3" stroke="#80C41B" d="M 355.689 143.556C 356.689 153.431 361.439 162.431 367.939 169.556C 367.689 169.681 367.314 169.681 367.064 169.806C 371.064 175.556 379.064 176.806 384.689 172.681C 390.439 168.556 391.689 160.681 387.564 155.056C 381.814 145.181 369.064 144.806 359.564 140.806C 358.814 139.681 357.314 139.431 356.314 140.306C 355.189 141.056 354.939 142.556 355.689 143.556L 355.689 143.556z"/>
<path fill="#A0D54A" stroke-width="3" stroke="#80C41B" d="M 269.564 82.0558C 273.814 88.5558 277.189 95.5558 283.314 100.681C 289.314 102.181 295.314 98.4308 296.814 92.3058C 298.189 86.3058 294.439 80.3058 288.439 78.9308C 283.564 80.4308 278.939 82.8058 272.939 78.3058C 271.939 77.4308 270.314 77.5558 269.439 78.5558C 268.564 79.5558 268.564 81.1808 269.564 82.0558L 269.564 82.0558z"/>
<path fill="#A0D54A" stroke-width="3" stroke="#80C41B" d="M 218.689 66.1808C 222.064 77.4308 227.064 90.3058 238.689 95.0558C 244.939 98.6808 252.939 96.5558 256.564 90.3058C 260.314 84.0558 258.064 76.0558 251.814 72.3058C 242.564 66.6808 232.189 63.6808 221.439 63.0558C 220.564 62.3058 219.189 62.3058 218.439 63.1808C 217.689 64.0558 217.814 65.4308 218.689 66.1808L 218.689 66.1808z"/>
<path fill="#A0D54A" stroke-width="3" stroke="#80C41B" d="M 232.814 53.0558C 229.939 60.0558 233.564 68.3058 243.689 71.4308C 248.064 73.9308 253.439 72.4308 255.939 68.0558C 258.314 63.8058 256.814 58.3058 252.439 55.8058C 249.939 53.1808 247.439 50.8058 244.439 48.8058C 242.689 45.1808 238.314 43.8058 234.689 45.6808C 231.064 47.4308 229.564 51.9308 231.439 55.4308L 232.814 53.0558z"/>
<path fill="#A0D54A" stroke-width="3" stroke="#80C41B" d="M 284.439 36.9308C 285.939 40.6808 289.314 42.9308 291.689 45.9308C 296.564 48.6808 302.814 47.0558 305.564 42.1808C 308.439 37.3058 306.814 31.1808 301.939 28.3058C 298.189 25.0558 292.939 25.9308 288.439 26.9308C 286.064 25.8058 283.189 26.9308 282.064 29.3058C 280.939 31.8058 281.939 34.6808 284.439 35.8058L 284.439 36.9308z"/>
<path fill="#A0D54A" stroke-width="3" stroke="#80C41B" d="M 412.189 140.306C 405.939 151.306 414.689 160.306 423.064 166.306C 422.439 166.056 421.939 165.681 421.314 165.431C 426.189 170.056 433.814 169.806 438.439 164.931C 443.064 160.056 442.814 152.306 437.939 147.681C 432.689 141.306 424.564 141.681 417.189 139.681C 416.689 137.931 414.814 136.931 413.064 137.431C 411.439 138.056 410.439 139.806 410.939 141.556L 412.189 140.306z"/>
<path fill="#A0D54A" stroke-width="3" stroke="#80C41B" d="M 315.939 152.681C 315.939 152.681 315.939 152.681 313.939 151.681C 313.939 151.681 314.439 153.181 315.189 154.306C 316.314 155.306 316.314 155.306 319.689 157.556C 319.689 157.556 319.439 164.556 327.939 167.556C 333.314 170.556 333.314 170.431 333.439 170.306C 333.439 170.181 339.314 173.181 346.564 170.806C 349.439 164.931 352.439 158.931 350.064 151.806C 344.189 148.806 340.314 145.431 335.439 145.306C 330.689 144.431 330.689 144.431 326.314 143.681C 326.314 143.681 326.314 143.681 328.689 147.181C 328.689 147.181 328.689 147.181 320.064 143.806C 320.064 143.806 320.689 143.681 321.439 143.556C 322.064 143.431 321.814 142.306 320.814 141.556C 319.689 141.806 318.564 142.056 317.814 143.056C 318.064 144.181 315.939 152.681 315.939 152.681z"/>
<path fill="#A0D54A" stroke-width="3" stroke="#80C41B" d="M 566.939 124.056C 563.564 132.056 565.689 141.056 570.814 147.681C 574.564 151.181 580.314 151.181 583.939 147.431C 587.439 143.806 587.314 137.931 583.689 134.431C 578.314 131.431 572.939 128.681 569.189 123.556C 569.064 122.931 568.439 122.556 567.814 122.681C 567.189 122.806 566.814 123.431 566.939 124.056L 566.939 124.056z"/>
<path fill="#A0D54A" stroke-width="3" stroke="#80C41B" d="M 575.314 198.556C 576.939 206.306 582.064 213.306 589.189 216.556C 595.439 219.056 602.564 216.056 605.064 209.806C 607.689 203.556 604.689 196.431 598.314 193.806C 593.314 193.431 588.439 192.306 583.689 190.806C 581.189 188.431 577.189 188.431 574.814 191.056C 572.439 193.556 572.564 197.431 575.064 199.931L 575.314 198.556z"/>
<path fill="#A0D54A" stroke-width="3" stroke="#80C41B" d="M 417.689 33.5558C 422.689 40.3058 429.439 45.6808 434.814 52.0558L 437.689 55.6808L 434.314 49.8058L 434.564 50.8058C 435.189 52.0558 435.814 53.3058 436.439 54.5558C 436.564 59.8058 440.939 64.0558 446.189 64.0558C 451.564 63.9308 455.689 59.5558 455.689 54.3058C 457.314 51.0558 458.189 47.6808 455.939 43.3058L 456.564 44.5558C 456.064 42.4308 455.064 40.5558 453.439 39.0558L 450.439 36.1808C 442.189 31.5558 434.314 25.8058 424.564 24.4308C 421.189 23.0558 417.439 24.5558 416.064 27.9308C 414.689 31.1808 416.314 34.9308 419.564 36.3058L 417.689 33.5558z"/>
<path fill="#A0D54A" stroke-width="3" stroke="#80C41B" d="M 555.564 21.0558C 549.439 23.3058 546.564 30.1808 545.314 36.1808L 544.064 41.3058C 544.064 43.6808 544.814 46.0558 546.439 47.8058L 547.189 48.8058C 546.564 48.4308 546.064 48.1808 545.439 47.8058C 547.189 50.3058 548.689 52.8058 550.189 55.4308C 554.689 60.1808 562.064 60.4308 566.689 56.0558C 571.439 51.6808 571.689 44.3058 567.314 39.5558L 566.064 38.0558C 566.064 38.0558 566.064 38.0558 561.814 35.0558C 561.814 35.0558 561.814 35.0558 564.064 41.5558C 564.064 41.5558 564.064 41.5558 564.189 36.5558C 564.189 36.5558 561.189 32.4308 560.314 27.8058C 559.689 22.9308 560.314 21.3058 559.439 19.5558C 557.939 18.9308 556.314 18.3058 554.439 19.0558C 553.814 20.6808 555.564 21.0558 555.564 21.0558z"/>
<path fill="#A0D54A" stroke-width="3" stroke="#80C41B" d="M 453.814 31.1808C 453.689 37.0558 452.814 43.0558 456.439 48.4308C 459.314 53.5558 465.814 55.1808 470.939 52.1808C 475.939 49.3058 477.689 42.8058 474.689 37.6808C 470.939 32.9308 466.939 28.3058 462.189 24.5558C 461.064 22.3058 458.314 21.4308 456.064 22.4308C 453.814 23.5558 452.814 26.3058 453.939 28.5558L 453.814 31.1808z"/>
<path fill="#A0D54A" stroke-width="3" stroke="#80C41B" d="M 475.481 15.8058C 472.106 26.0558 471.814 39.5558 481.189 46.8058C 484.689 51.0558 490.939 51.6808 495.314 48.1808C 499.564 44.6808 500.064 38.3058 496.564 34.0558C 490.767 29.0247 484.648 17.1392 484.398 15.8892"/>
<path fill="#A0D54A" stroke-width="3" stroke="#80C41B" d="M 608.296 79.6255C 605.933 76.5934 601.628 75.9232 598.439 77.9308C 594.939 80.1808 593.939 84.8058 596.189 88.1808L 596.314 89.8058C 595.939 93.0558 597.189 95.8058 599.189 98.3058C 601.186 101.467 604.621 103.078 608.059 102.881"/>
<path fill="#A0D54A" stroke-width="3" stroke="#80C41B" d="M 530.689 20.9308C 531.564 30.4308 528.939 40.1808 536.064 49.1808C 537.814 53.1808 542.439 54.9308 546.314 53.1808C 550.314 51.4308 552.189 46.8058 550.439 42.9308C 550.939 33.5558 539.814 27.3058 535.064 19.4308C 534.689 18.1808 533.314 17.5558 532.064 17.9308C 530.939 18.4308 530.189 19.6808 530.689 20.9308L 530.689 20.9308z"/>
<path fill="#A0D54A" stroke-width="3" stroke="#80C41B" d="M 564.773 15.7225C 566.023 23.0975 560.523 30.3475 563.898 37.8475C 564.148 43.4725 568.898 47.9725 574.648 47.8475C 580.273 47.5975 584.773 42.8475 584.523 37.0975C 589.023 31.1912 587.687 22.6835 584.048 16.0565"/>
<path fill="#A0D54A" stroke-width="3" stroke="#80C41B" d="M 510.439 81.4308C 502.189 74.4308 513.689 68.4308 512.689 60.5558C 514.439 57.4308 513.189 53.4308 509.939 51.8058C 506.814 50.1808 502.814 51.4308 501.189 54.5558C 495.939 55.9308 495.564 61.3058 494.564 65.8058C 492.439 75.5558 500.189 81.8058 508.064 84.5558C 508.939 85.1808 510.189 85.0558 510.814 84.1808C 511.439 83.3058 511.314 82.1808 510.439 81.4308L 510.439 81.4308z"/>
<path fill="#A0D54A" stroke-width="3" stroke="#80C41B" d="M 494.231 15.8058C 491.876 26.1826 503.307 33.4 511.439 37.9308C 511.939 38.5558 512.814 38.5558 513.439 38.0558C 514.064 37.5558 514.064 36.6808 513.564 36.0558L 513.564 36.0558C 511.189 30.8058 508.814 28.5558 509.814 22.5558C 509.939 21.8058 511.481 19.9308 512.231 19.3058C 512.442 18.652 511.981 17.4725 511.814 15.8309"/>
<path fill="#A0D54A" stroke-width="3" stroke="#80C41B" d="M 519.814 19.8058C 518.064 25.4308 515.689 30.8058 513.564 36.3058C 512.689 40.5558 515.439 44.6808 519.689 45.5558C 523.939 46.4308 528.064 43.6808 528.939 39.4308C 529.814 32.3058 525.939 26.3058 524.314 19.8058C 524.314 18.5558 523.314 17.5558 522.064 17.5558C 520.814 17.5558 519.814 18.5558 519.814 19.8058L 519.814 19.8058z"/>
<path fill="#A0D54A" stroke-width="3" stroke="#80C41B" d="M 559.814 104.681C 555.314 111.931 549.689 118.431 552.189 129.431C 552.564 132.931 555.689 135.431 559.064 135.056C 562.564 134.681 565.064 131.556 564.689 128.056C 562.689 120.806 561.689 113.556 563.564 106.181C 563.939 105.056 563.439 103.931 562.439 103.556C 561.314 103.056 560.189 103.681 559.814 104.681L 559.814 104.681z"/>
<path fill="#A0D54A" stroke-width="3" stroke="#80C41B" d="M 514.564 118.056C 513.939 127.931 515.189 137.681 518.439 146.931C 517.939 146.931 517.314 147.056 516.814 147.056C 517.689 153.056 523.314 157.181 529.439 156.181C 535.439 155.306 539.564 149.681 538.689 143.681C 538.189 141.556 538.064 139.306 536.814 137.556C 531.189 129.806 523.189 125.431 519.189 116.806C 518.814 115.556 517.564 114.806 516.314 115.056C 514.939 115.431 514.189 116.681 514.564 118.056L 514.564 118.056z"/>
<path fill="#A0D54A" stroke-width="3" stroke="#80C41B" d="M 395.648 15.8892C 395.731 17.4725 395.45 18.991 395.564 20.9308C 387.939 38.6808 409.564 44.5558 418.939 54.8058C 419.439 55.6808 420.564 55.9308 421.439 55.3058C 422.314 54.8058 422.564 53.6808 422.064 52.8058L 422.064 52.8058C 419.814 44.5558 412.439 38.6808 410.939 30.4308C 410.439 27.8058 414.564 25.1808 410.814 20.0558C 410.72 18.4622 410.481 17.2225 410.398 15.8892"/>
<path fill="#A0D54A" stroke-width="3" stroke="#80C41B" d="M 434.398 15.8058C 434.398 16.8892 434.061 16.975 435.189 17.5558L 435.189 17.5558C 437.064 23.0558 436.189 29.3058 439.939 34.3058C 440.439 36.4308 442.689 37.5558 444.814 36.9308C 446.939 36.3058 448.064 34.1808 447.439 32.0558C 448.564 24.8058 442.144 21.9487 441.314 15.7225"/>
<path fill="#A0D54A" stroke-width="3" stroke="#80C41B" d="M 462.189 129.056C 459.064 137.431 458.439 146.556 463.314 155.181C 465.689 159.681 471.189 161.306 475.689 159.056C 480.064 156.681 481.814 151.181 479.439 146.681C 476.439 139.681 468.814 136.181 465.939 129.056C 465.939 127.931 465.064 127.056 464.064 127.056C 463.064 127.056 462.189 127.931 462.189 129.056L 462.189 129.056z"/>
<path fill="#A0D54A" stroke-width="3" stroke="#80C41B" d="M 573.939 75.0975C 587.939 69.0975 595.939 50.8475 589.689 36.8475C 589.814 32.5975 586.439 29.0975 582.189 28.9725C 577.939 28.9725 574.439 32.2225 574.439 36.4725C 567.814 46.7225 574.189 61.0975 570.939 72.9725C 570.314 73.8475 570.564 74.9725 571.439 75.5975C 572.189 76.2225 573.439 75.9725 573.939 75.0975L 573.939 75.0975z"/>
<path fill="#A0D54A" stroke-width="3" stroke="#80C41B" d="M 442.748 15.7349C 443.648 20.8058 447.148 26.5558 451.898 29.7225C 452.828 30.3427 453.523 31.2225 454.648 30.7225C 455.648 30.3475 456.148 29.0975 455.648 28.0975L 455.648 28.0975C 454.336 23.8347 457.231 20.0558 456.898 15.8892"/>
<path fill="#A0D54A" stroke-width="3" stroke="#80C41B" d="M 516.439 100.806C 516.314 91.6808 517.939 82.6808 517.064 73.5558C 516.814 67.5558 511.689 62.8058 505.689 62.9308C 499.564 63.1808 494.814 68.3058 495.064 74.3058C 493.814 86.3058 501.314 100.931 514.189 102.806C 514.689 103.431 515.564 103.431 516.189 102.931C 516.814 102.431 516.939 101.431 516.439 100.806L 516.439 100.806z"/>
<path fill="#A0D54A" stroke-width="3" stroke="#80C41B" d="M 538.064 97.0558C 541.314 84.9308 545.064 72.8058 547.189 60.4308C 547.189 54.3058 542.189 49.4308 536.064 49.4308C 529.939 49.4308 524.939 54.3058 524.939 60.4308L 524.314 58.1808C 526.689 71.3058 530.689 84.0558 534.064 97.0558C 534.064 98.0558 534.939 99.0558 536.064 99.0558C 537.189 99.0558 538.064 98.0558 538.064 97.0558L 538.064 97.0558z"/>
<path fill="#A0D54A" stroke-width="3" stroke="#80C41B" d="M 503.064 125.306C 506.939 117.681 514.814 113.431 518.939 106.056C 521.439 100.681 519.064 94.3058 513.564 91.9308C 508.189 89.4308 501.939 91.9308 499.439 97.3058L 501.939 96.6808C 495.064 104.431 496.064 115.806 498.689 124.806C 498.564 125.931 499.439 127.056 500.564 127.181C 501.814 127.306 502.939 126.431 503.064 125.306L 503.064 125.306z"/>
<path fill="#A0D54A" stroke-width="3" stroke="#80C41B" d="M 530.252 15.8683C 527.658 22.2463 528.956 29.9537 533.064 35.4308C 534.189 38.8058 537.939 40.6808 541.439 39.5558C 544.814 38.3058 546.689 34.5558 545.564 31.1808C 545.918 25.8784 544.427 21.0458 542.439 15.8683"/>
<path fill="#A0D54A" stroke-width="3" stroke="#80C41B" d="M 41.6893 99.4308C 41.6893 99.8058 42.0643 100.181 42.4393 100.181C 42.9393 100.181 43.3143 99.8058 43.3143 99.4308C 43.3143 98.9308 42.9393 98.5558 42.4393 98.5558C 42.0643 98.5558 41.6893 98.9308 41.6893 99.4308L 41.6893 99.4308z"/>
<path fill="#A0D54A" stroke-width="3" stroke="#80C41B" d="M 45.3143 110.056C 44.6893 96.8058 52.0643 83.4308 47.4393 70.4308C 47.3143 67.5558 44.9393 65.1808 42.0643 65.1808C 39.0643 65.1808 36.8143 67.5558 36.8143 70.5558C 31.9393 83.4308 40.5643 97.0558 41.1893 110.306C 41.3143 111.431 42.1893 112.306 43.3143 112.181C 44.4393 112.181 45.3143 111.181 45.3143 110.056L 45.3143 110.056z"/>
<path fill="#008837" stroke="none" d="M 69.4393 55.6808C 65.8143 74.0558 55.9393 91.9308 59.3143 110.931C 59.8143 116.681 64.9393 120.931 70.6893 120.431C 76.4393 120.056 80.8143 114.931 80.3143 109.181C 76.3143 91.6808 73.0643 74.0558 73.0643 55.9308C 73.0643 54.9308 72.3143 54.0558 71.3143 54.0558C 70.4393 53.9308 69.5643 54.6808 69.4393 55.6808L 69.4393 55.6808z"/>
<path fill="#008837" stroke="none" d="M 90.1893 53.9308C 78.0643 67.3058 79.0643 85.4308 79.4393 102.431L 79.3143 107.556C 79.3143 110.056 80.3143 112.556 81.8143 114.556L 82.5643 115.681C 82.1893 115.181 81.9393 114.806 81.5643 114.306L 83.3143 117.556C 87.6893 123.431 95.8143 124.681 101.689 120.431L 103.689 119.056L 98.6893 121.306L 100.314 120.806C 101.439 120.556 102.564 120.181 103.564 119.681C 110.064 116.306 112.689 108.431 109.439 101.931L 108.814 101.056L 108.814 101.056L 109.314 103.806C 108.939 102.306 108.439 100.806 108.064 99.3058C 105.439 92.6808 97.9393 89.5558 91.3143 92.1808C 84.6893 94.8058 81.4393 102.306 84.1893 108.931L 84.3143 108.556C 84.3143 108.556 84.3143 108.556 85.4393 113.056C 85.4393 113.056 85.4393 113.056 85.4393 112.931C 85.4393 112.931 85.4393 112.931 85.8143 113.931C 85.8143 113.931 85.8143 113.931 94.9393 94.9308C 94.9393 94.9308 94.9393 94.9308 93.3143 95.1808C 93.3143 95.1808 91.4393 95.5558 89.6893 96.3058C 88.1893 97.4308 88.1893 97.4308 86.1893 98.9308C 86.1893 98.9308 86.1893 98.9308 104.564 101.681C 104.564 101.681 104.564 101.681 103.064 100.431L 103.064 100.431C 103.064 100.431 103.064 100.431 102.064 99.3058C 102.064 99.3058 102.064 99.3058 104.564 106.306C 104.564 106.306 104.564 106.306 104.314 101.306C 104.314 101.306 100.564 85.1808 103.314 68.1808C 97.4393 52.4308 97.8143 51.6808 97.4393 50.8058C 96.6893 50.4308 95.9393 50.0558 95.0643 50.4308C 94.6893 51.1808 90.1893 53.9308 90.1893 53.9308z"/>
<path fill="#008837" stroke="none" d="M 119.814 79.4308C 124.189 70.6808 129.939 63.3058 132.064 53.6808C 133.814 48.1808 130.689 42.3058 125.189 40.6808C 119.689 38.9308 113.814 41.9308 112.064 47.4308C 107.689 57.6808 111.439 69.8058 116.314 79.4308C 116.314 80.3058 117.064 81.1808 118.064 81.1808C 119.064 81.1808 119.814 80.3058 119.814 79.4308L 119.814 79.4308z"/>
<path fill="#008837" stroke="none" d="M 127.564 62.3058C 117.939 70.5558 115.689 85.0558 120.814 96.3058C 120.939 101.431 125.064 105.556 130.189 105.431C 135.314 105.306 139.439 101.056 139.314 96.0558L 138.189 96.8058C 144.939 86.9308 134.814 73.0558 130.939 62.9308C 131.064 62.0558 130.564 61.1808 129.564 60.9308C 128.689 60.8058 127.814 61.3058 127.564 62.3058L 127.564 62.3058z"/>
<path fill="#008837" stroke="none" d="M 161.064 52.3058C 149.564 58.8058 140.314 73.4308 145.314 88.8058C 147.064 94.4308 153.189 97.5558 158.814 95.8058C 164.564 94.0558 167.689 88.0558 165.939 82.3058L 163.189 84.1808C 168.939 74.9308 164.439 64.3058 163.814 54.4308C 164.439 53.6808 164.314 52.6808 163.564 52.0558C 162.814 51.4308 161.689 51.5558 161.064 52.3058L 161.064 52.3058z"/>
<path fill="#008837" stroke="none" d="M 168.064 74.1808C 162.439 83.1808 163.814 94.4308 163.314 104.556C 163.314 110.431 168.189 115.306 174.064 115.181C 180.064 115.181 184.814 110.431 184.814 104.431C 187.064 93.3058 179.939 83.9308 176.064 74.1808C 176.064 72.0558 174.189 70.1808 172.064 70.1808C 169.939 70.1808 168.064 72.0558 168.064 74.1808L 168.064 74.1808z"/>
<path fill="#008837" stroke="none" d="M 197.564 68.8058C 193.439 82.8058 179.189 99.9308 193.189 114.556C 195.689 118.556 200.939 119.681 204.814 117.306C 208.814 114.806 210.064 109.681 207.564 105.681C 210.939 93.6808 202.314 81.3058 200.939 69.1808C 201.064 68.3058 200.439 67.4308 199.439 67.3058C 198.564 67.1808 197.689 67.8058 197.564 68.8058L 197.564 68.8058z"/>
<path fill="#008837" stroke="none" d="M 216.189 83.4308C 209.814 93.1808 206.564 111.306 220.814 115.556C 222.814 119.056 227.189 120.181 230.564 118.181C 234.064 116.181 235.189 111.806 233.189 108.431C 235.939 98.3058 225.814 90.5558 219.939 83.4308C 219.939 82.4308 219.064 81.5558 218.064 81.5558C 217.064 81.5558 216.189 82.4308 216.189 83.4308L 216.189 83.4308z"/>
<path fill="#008837" stroke="none" d="M 261.939 65.1808C 253.689 76.3058 245.564 92.4308 253.689 106.681C 254.939 111.806 260.189 114.806 265.189 113.431C 270.314 112.056 273.314 106.806 271.939 101.806C 270.814 89.8058 264.814 78.6808 265.439 66.4308C 265.814 65.5558 265.314 64.4308 264.314 64.0558C 263.439 63.6808 262.314 64.1808 261.939 65.1808L 261.939 65.1808z"/>
<path fill="#008837" stroke="none" d="M 44.8143 90.4308C 43.3143 99.6808 37.4393 112.181 44.4393 120.306C 45.5643 124.431 49.8143 126.931 54.0643 125.806C 58.1893 124.806 60.6893 120.431 59.5643 116.306C 61.3143 106.806 52.3143 98.6808 48.9393 89.9308C 48.8143 88.8058 47.8143 88.0558 46.6893 88.1808C 45.4393 88.3058 44.6893 89.3058 44.8143 90.4308L 44.8143 90.4308z"/>
<path fill="#008837" stroke="none" d="M 574.689 81.8058C 560.689 88.9308 560.189 111.056 569.064 122.431C 571.689 127.681 578.064 129.931 583.189 127.306C 588.439 124.806 590.689 118.431 588.064 113.181C 589.814 101.931 580.564 94.4308 578.189 84.1808C 578.814 83.1808 578.564 81.9308 577.689 81.3058C 576.689 80.6808 575.439 80.9308 574.689 81.8058L 574.689 81.8058z"/>
<path fill="#008837" stroke="none" d="M 594.689 59.4308C 585.439 67.0558 579.064 81.1808 584.064 92.5558C 583.814 95.9308 586.314 98.9308 589.689 99.1808C 593.064 99.5558 596.064 97.0558 596.314 93.6808C 605.814 84.8058 598.314 71.9308 598.189 61.0558C 598.689 60.0558 598.189 58.9308 597.314 58.4308C 596.314 58.0558 595.189 58.4308 594.689 59.4308L 594.689 59.4308z"/>
<path fill="#008837" stroke="none" d="M 440.939 92.3058C 440.689 100.431 434.939 108.056 442.314 116.681C 443.064 119.056 445.564 120.431 447.939 119.681C 450.189 118.931 451.564 116.431 450.814 114.056C 451.939 106.056 446.064 99.6808 445.564 92.0558C 445.564 90.8058 444.439 89.8058 443.189 89.9308C 441.939 89.9308 440.939 91.0558 440.939 92.3058L 440.939 92.3058z"/>
<path fill="#008837" stroke="none" d="M 304.564 75.0558C 294.189 82.0558 280.689 97.4308 291.814 108.931C 293.064 111.681 296.189 112.931 298.939 111.681C 301.564 110.431 302.814 107.306 301.689 104.556C 301.689 95.1808 301.064 85.0558 306.064 76.5558C 306.439 76.1808 306.439 75.4308 306.064 75.0558C 305.564 74.6808 304.939 74.6808 304.564 75.0558L 304.564 75.0558z"/>
<path fill="#FEA033" stroke="none" d="M 170.189 696.681C 235.564 695.931 300.564 688.556 365.939 688.431C 427.189 688.431 488.564 698.431 549.814 695.431C 555.189 695.431 559.439 691.056 559.439 685.806C 559.439 680.556 555.189 676.181 549.814 676.181L 548.439 674.556C 487.314 673.681 426.314 667.931 365.189 668.806C 299.439 669.806 235.064 684.556 169.939 693.306C 169.064 693.431 168.314 694.181 168.439 695.181C 168.439 696.056 169.314 696.681 170.189 696.681L 170.189 696.681z"/>
<path fill="#FEA033" stroke="none" d="M 106.064 733.181C 131.314 748.931 162.064 744.431 190.064 744.056C 232.439 743.431 275.314 741.556 317.064 732.181C 323.314 731.556 327.939 725.931 327.314 719.681C 326.689 713.431 321.064 708.806 314.814 709.431C 284.064 712.056 253.689 717.056 222.689 718.306C 183.814 719.806 145.689 730.181 106.939 729.681C 105.939 729.431 104.939 730.056 104.689 730.931C 104.564 731.931 105.064 732.931 106.064 733.181L 106.064 733.181z"/>
<path fill="#FEA033" stroke="none" d="M 58.6893 641.806C 89.1893 651.056 119.814 658.931 152.314 655.931C 188.564 652.556 223.689 650.931 259.439 640.431C 313.314 624.556 368.189 626.181 423.189 625.181C 424.564 625.306 425.939 624.431 426.064 622.931C 426.314 621.556 425.314 620.306 423.939 620.056C 387.814 614.556 351.564 617.806 315.439 620.931C 272.814 624.556 231.564 635.306 188.939 637.556C 173.189 638.431 157.564 640.556 141.939 641.181C 114.314 642.181 86.6893 638.806 58.9393 639.431C 58.3143 639.431 57.8143 639.806 57.6893 640.431C 57.6893 641.181 58.0643 641.681 58.6893 641.806L 58.6893 641.806z"/>
<path fill="#BFAC6F" stroke="none" d="M 397.564 683.056C 397.564 683.306 397.814 683.556 398.064 683.556C 398.314 683.556 398.564 683.306 398.564 683.056C 398.564 682.681 398.314 682.431 398.064 682.431C 397.814 682.431 397.564 682.681 397.564 683.056L 397.564 683.056z"/>
<path fill="#A0D54A" stroke-width="3" stroke="#80C41B" d="M 413.148 15.8892C 414.007 20.4011 417.341 24.6511 423.445 27.2136C 423.809 27.3666 424.07 27.8386 424.57 27.5886C 424.945 27.4636 425.195 26.9636 424.945 26.4636L 424.945 26.4636C 423.864 22.9166 424.751 19.5679 424.231 15.8892"/>
<path fill="#A0D54A" stroke-width="3" stroke="#80C41B" d="M 607.973 103.259C 607.089 101.803 605.812 100.555 604.189 99.6808C 600.814 95.8058 595.439 97.9308 591.564 95.5558C 591.189 94.1808 589.814 93.4308 588.564 93.8058C 587.314 94.3058 586.564 95.5558 586.939 96.9308L 586.939 96.9308C 584.689 104.181 586.939 114.056 594.689 117.306C 599.564 119.931 603.099 116.356 608.159 114.107"/>
</g>
<g>
<path fill="#FFFF00" stroke="none" d="M 224.564 359.056L 302.564 368.806L 300.314 373.056C 300.314 373.056 271.564 374.306 271.564 375.056C 271.564 375.806 271.314 383.306 271.314 383.306L 223.314 379.556L 224.564 359.056z"/>
<path fill="none" stroke-width="6" stroke="#808080" d="M 180.149 447.715C 236.51 447.715 282.2 493.406 282.2 549.766C 282.2 606.126 236.51 651.817 180.149 651.817C 123.789 651.817 78.0988 606.126 78.0988 549.766C 78.0988 493.406 123.789 447.715 180.149 447.715z"/>
<path fill="none" stroke-width="6" stroke="#808080" d="M 484.212 446.84C 540.572 446.84 586.262 492.531 586.262 548.891C 586.262 605.251 540.572 650.942 484.212 650.942C 427.852 650.942 382.161 605.251 382.161 548.891C 382.161 492.531 427.852 446.84 484.212 446.84z"/>
<path fill="none" stroke-width="6" stroke="#808080" d="M 178.064 555.618L 276.064 417.618L 422.064 409.618L 328.064 588.506L 270.064 375.618L 316.064 369.618L 224.064 359.618L 224.064 379.618L 268.064 381.618"/>
<path fill="none" stroke-width="6" stroke="#808080" d="M 488.064 557.618C 488.064 557.618 476.064 555.618 470.064 547.618C 464.064 539.618 414.064 369.618 414.064 369.618L 482.064 369.618C 482.064 369.618 508.064 377.618 508.064 393.618C 508.064 409.618 490.064 413.618 490.064 413.618"/>
<path fill="none" stroke-width="6" stroke="#808080" d="M 328.064 557.393C 345.247 557.393 359.177 571.323 359.177 588.506C 359.177 605.688 345.247 619.618 328.064 619.618C 310.881 619.618 296.952 605.688 296.952 588.506C 296.952 571.323 310.881 557.393 328.064 557.393z"/>
<path fill="none" stroke-width="6" stroke="#808080" d="M 328.064 588.506L 280.064 649.618L 308.064 653.618"/>
<path fill="none" stroke-width="6" stroke="#808080" d="M 264.064 647.618L 280.064 649.618"/>
</g>
<g>
<path fill="#FEE0B3" stroke="none" d="M 156.064 396.806C 156.064 396.806 166.064 389.806 179.064 387.306C 192.064 384.806 218.564 380.806 228.564 384.306C 238.564 387.806 249.564 397.806 251.064 405.306C 252.564 412.806 249.064 434.306 247.064 446.806C 245.064 459.306 243.564 491.806 233.064 493.306C 222.564 494.806 195.064 492.806 180.064 487.806C 165.064 482.806 141.564 480.806 139.064 471.806C 136.564 462.806 137.064 437.306 140.564 425.306C 144.064 413.306 156.064 396.806 156.064 396.806z"/>
<path fill="#8169B0" stroke="none" d="M 216.752 612.368L 219.252 616.368C 219.252 616.368 201.252 628.368 198.252 629.868C 195.252 631.368 192.752 631.868 192.252 628.868C 191.752 625.868 196.752 621.368 200.252 619.368C 203.752 617.368 216.752 612.368 216.752 612.368z"/>
<path fill="#8169B0" stroke="none" d="M 223.252 605.368L 228.752 610.868L 275.752 575.368L 274.252 568.868L 236.252 594.868L 223.252 605.368z"/>
</g>
<g>
<path fill="none" stroke-width="6" stroke="#436F7A" d="M 225.189 383.993C 205.189 383.993 183.689 386.993 165.689 392.993C 135.689 404.993 135.689 466.993 141.689 474.993C 147.689 482.993 224.689 503.993 233.689 494.993C 242.689 485.993 255.689 415.993 251.689 406.993C 247.689 397.993 241.189 387.493 231.189 387.493"/>
<path fill="none" stroke-width="6" stroke="#436F7A" d="M 154.064 483.806C 152.064 499.806 139.064 503.806 135.064 517.806C 127.064 547.806 88.6893 599.493 88.6893 599.493C 88.6893 599.493 150.689 599.493 180.689 601.493C 178.689 615.493 184.689 627.493 178.689 641.493C 168.689 665.493 164.689 693.493 148.689 715.493C 160.689 715.493 174.689 715.493 186.689 715.493"/>
<path fill="none" stroke-width="6" stroke="#436F7A" d="M 88.6893 599.493C 86.6893 641.493 86.6893 679.493 86.6893 717.493C 70.6893 719.493 56.6893 711.493 42.6893 709.493C 38.9412 708.494 35.1931 707.526 31.4451 706.612"/>
<path fill="none" stroke-width="6" stroke="#436F7A" d="M 124.064 546.806C 136.064 564.806 178.023 610.16 202.023 618.16"/>
<path fill="none" stroke-width="6" stroke="#436F7A" d="M 133.064 520.806C 157.064 542.806 170.689 541.493 198.689 553.493C 220.689 563.493 240.689 569.493 260.689 579.493"/>
<path fill="none" stroke-width="4" stroke="#436F7A" d="M 272.689 569.493L 224.689 603.493L 229.356 610.16L 276.023 576.16C 276.023 576.16 280.023 572.827 277.356 570.16C 274.689 567.493 272.689 569.493 272.689 569.493z"/>
<path fill="none" stroke-width="4" stroke="#436F7A" d="M 218.127 608.868L 196.793 622.202C 196.793 622.202 193.689 625.827 195.356 627.827C 197.023 629.827 201.356 627.16 201.356 627.16L 221.46 614.202L 218.127 608.868z"/>
<path fill="none" stroke-width="4" stroke="#436F7A" d="M 220.023 611.827L 226.689 607.16"/>
<path fill="none" stroke-width="6" stroke="#436F7A" d="M 187.689 428.493L 188.189 442.493"/>
<path fill="none" stroke-width="6" stroke="#436F7A" d="M 232.189 433.493L 232.689 444.493"/>
<path fill="none" stroke-width="6" stroke="#436F7A" d="M 172.189 464.993C 172.189 464.993 186.689 477.993 192.689 479.493C 198.689 480.993 215.689 484.993 215.689 484.993"/>
<path fill="none" stroke-width="6" stroke="#FF0000" d="M 145.627 434.868L 137.627 412.868L 149.627 422.868L 151.627 388.868L 161.627 412.868L 167.627 362.868L 175.627 394.868L 185.627 358.868L 191.627 390.868L 207.627 352.868L 211.627 382.868L 233.627 354.868L 229.627 394.868L 249.627 362.868L 241.627 394.868L 255.627 390.868L 249.627 410.868"/>
</g>
<g >
<path fill="none" stroke-width="1" stroke="#008837" d="M 367.314 312.973L 364.148 307.639L 369.148 309.473"/>
<path fill="none" stroke-width="1" stroke="#008837" d="M 366.564 310.639L 362.898 305.806L 364.481 311.973"/>
<path fill="#BFAC6F" stroke-width="1" stroke="#80620D" d="M 374.064 304.306C 374.475 303.73 380.898 302.139 381.898 302.639C 389.398 304.139 384.731 305.306 391.731 304.306C 396.731 303.806 402.106 302.306 406.106 302.973C 410.106 303.639 412.106 308.639 411.606 314.473C 410.897 322.739 410.773 320.639 405.439 323.639C 403.217 324.889 398.178 321.368 396.064 320.639C 391.231 318.973 388.064 318.806 383.564 319.306C 379.946 319.708 376.564 323.306 372.564 321.306C 371.064 320.306 370.064 318.306 370.564 316.806C 371.064 312.306 371.564 307.806 374.064 304.306z"/>
<path fill="#BFAC6F" stroke-width="1" stroke="#80620D" d="M 359.064 301.306C 362.231 298.639 363.564 296.806 366.064 295.306C 368.064 293.806 370.564 293.306 372.064 294.806C 375.064 296.806 374.898 300.973 374.731 301.639C 374.564 302.306 363.064 310.806 358.064 307.806C 356.564 306.806 355.064 301.806 359.064 301.306z"/>
<path fill="none" stroke-width="1" stroke="#80620D" d="M 366.064 295.306C 365.564 294.806 365.064 294.806 364.564 294.806C 363.564 293.806 363.064 292.306 363.064 290.806"/>
<path fill="none" stroke-width="1" stroke="#80620D" d="M 373.064 297.306C 374.564 296.806 375.564 295.306 375.564 293.806"/>
<path fill="none" stroke-width="1" stroke="#80620D" d="M 364.564 299.806C 364.564 300.306 364.564 300.806 364.564 301.306"/>
<path fill="none" stroke-width="1" stroke="#80620D" d="M 368.564 300.306C 368.564 300.806 368.564 301.306 368.564 301.806"/>
<path fill="none" stroke-width="1" stroke="#80620D" d="M 372.898 321.973L 369.398 332.973L 368.564 340.306"/>
<path fill="none" stroke-width="1" stroke="#80620D" d="M 379.564 320.806L 379.898 339.473"/>
<path fill="none" stroke-width="1" stroke="#80620D" d="M 403.606 323.806L 402.939 340.639"/>
<path fill="none" stroke-width="1" stroke="#80620D" d="M 409.273 321.639L 411.439 339.139"/>
<path fill="#BFAC6F" stroke-width="1" stroke="#80620D" d="M 372.564 302.973L 373.564 305.139"/>
<path fill="none" stroke-width="1" stroke="#80620D" d="M 411.231 310.306C 411.231 310.306 416.231 314.139 416.564 318.473C 416.898 322.806 416.898 327.306 416.898 327.306"/>
<path fill="#9F853A" stroke-width="1" stroke="#80620D" d="M 389.939 314.152C 392.77 314.152 395.066 312.094 395.066 309.556C 395.066 307.017 392.77 304.96 389.939 304.96C 387.108 304.96 384.813 307.017 384.813 309.556C 384.813 312.094 387.108 314.152 389.939 314.152z"/>
<path fill="#9F853A" stroke-width="1" stroke="#80620D" d="M 402.689 320.695C 404.739 320.695 406.402 318.954 406.402 316.806C 406.402 314.658 404.739 312.917 402.689 312.917C 400.639 312.917 398.977 314.658 398.977 316.806C 398.977 318.954 400.639 320.695 402.689 320.695z"/>
<path fill="#9F853A" stroke-width="1" stroke="#80620D" d="M 376.939 313.427C 378.404 313.427 379.591 312.477 379.591 311.306C 379.591 310.134 378.404 309.185 376.939 309.185C 375.475 309.185 374.288 310.134 374.288 311.306C 374.288 312.477 375.475 313.427 376.939 313.427z"/>
<path fill="#9F853A" stroke-width="1" stroke="#80620D" d="M 405.189 309.988C 406.263 309.988 407.134 308.563 407.134 306.806C 407.134 305.049 406.263 303.624 405.189 303.624C 404.115 303.624 403.245 305.049 403.245 306.806C 403.245 308.563 404.115 309.988 405.189 309.988z"/>
<path fill="#9F853A" stroke-width="1" stroke="#80620D" d="M 380.189 320.281C 381.654 320.281 382.841 319.173 382.841 317.806C 382.841 316.439 381.654 315.331 380.189 315.331C 378.725 315.331 377.538 316.439 377.538 317.806C 377.538 319.173 378.725 320.281 380.189 320.281z"/>
<path fill="#9F853A" stroke-width="1" stroke="#80620D" d="M 378.439 306.427C 380.099 306.427 381.444 305.477 381.444 304.306C 381.444 303.134 380.099 302.185 378.439 302.185C 376.78 302.185 375.434 303.134 375.434 304.306C 375.434 305.477 376.78 306.427 378.439 306.427z"/>
</g>
</g>
<g>
<path fill="#80620D" stroke-width="6" stroke="#000000" d="M 319.565 561.809C 325.087 561.809 329.565 553.414 329.565 543.059L 329.565 280.559C 329.565 270.205 325.087 261.809 319.565 261.809L 319.565 261.809C 314.042 261.809 309.565 270.205 309.565 280.559L 309.565 543.059C 309.565 553.414 314.042 561.809 319.565 561.809L 319.565 561.809z"/>
<g>
<path fill="#80620D" stroke-width="6" stroke="#000000" d="M 157.346 375.059C 162.869 375.059 167.346 366.664 167.346 356.309L 167.346 93.8093C 167.346 83.4548 162.869 75.0593 157.346 75.0593L 157.346 75.0593C 151.823 75.0593 147.346 83.4548 147.346 93.8093L 147.346 356.309C 147.346 366.664 151.823 375.059 157.346 375.059L 157.346 375.059z"/>
<path fill="#80620D" stroke-width="6" stroke="#000000" d="M 481.783 375.059C 487.306 375.059 491.783 366.664 491.783 356.309L 491.783 93.8093C 491.783 83.4547 487.306 75.0593 481.783 75.0593L 481.783 75.0593C 476.261 75.0593 471.784 83.4547 471.784 93.8093L 471.784 356.309C 471.784 366.664 476.261 375.059 481.783 375.059L 481.783 375.059z"/>
<path fill="#80620D" stroke-width="6" stroke="#000000" d="M 157.346 748.559C 162.869 748.559 167.346 740.164 167.346 729.809L 167.346 467.309C 167.346 456.955 162.869 448.559 157.346 448.559L 157.346 448.559C 151.823 448.559 147.346 456.955 147.346 467.309L 147.346 729.809C 147.346 740.164 151.823 748.559 157.346 748.559L 157.346 748.559z"/>
<path fill="#80620D" stroke-width="6" stroke="#000000" d="M 481.783 748.559C 487.306 748.559 491.783 740.164 491.783 729.809L 491.783 467.309C 491.783 456.955 487.306 448.559 481.783 448.559L 481.783 448.559C 476.261 448.559 471.784 456.955 471.784 467.309L 471.784 729.809C 471.784 740.164 476.261 748.559 481.783 748.559L 481.783 748.559z"/>
</g>
</g>
</svg>