<svg xmlns="http://www.w3.org/2000/svg"
	xmlns:xlink="http://www.w3.org/1999/xlink"
	viewBox="14.9 17.1 577 792"
	width="577" height="792">
<defs>
    <path id="textPath"
	    d="M141.244,413.068 A162.182,162.183 0.0 1 1 465.609,413.068
	    A162.182,162.183 0.0 1 1 141.244,413.068"/>
</defs>
	
<g>
<path fill="#80D0E3" stroke="none" d="M 591.927 809.071L 591.927 17.0709L 14.9268 17.0709L 14.9268 809.071L 591.927 809.071z"/>
<path fill="#80C41B" stroke="none" d="M 11.9268 225.068L 591.927 365.068L 591.927 809.071L 14.9268 809.071L 11.9268 225.068z"/>
<path fill="#FFFF80" stroke="none" d="M 427.927 149.979C 456.044 149.979 478.838 127.185 478.838 99.0676C 478.838 70.9503 456.044 48.1559 427.927 48.1559C 399.809 48.1559 377.015 70.9503 377.015 99.0676C 377.015 127.185 399.809 149.979 427.927 149.979z"/>
</g>
<g>
<path fill="#DFD5B0" stroke-width="4" stroke="#9F853A" d="M 296.647 637.596L 145.34 797.299L 119.207 772.539L 270.514 612.837L 296.647 637.596z"/>
<path fill="#DFD5B0" stroke-width="4" stroke="#9F853A" d="M 305.207 637.596L 456.514 797.299L 482.647 772.539L 331.34 612.837L 305.207 637.596z"/>
<path fill="#DFD5B0" stroke-width="4" stroke="#9F853A" d="M 513.614 808.776L 513.927 769.068L 85.9268 769.068L 85.6143 808.776"/>
<path fill="#DFD5B0" stroke-width="4" stroke="#9F853A" d="M 343.927 771.068L 343.927 131.068L 259.927 131.068L 259.927 771.068L 343.927 771.068z"/>
<path fill="#FF0000" stroke="none" d="M 196.593 233.734C 237.927 210.401 275.927 206.401 305.927 205.734C 348.196 204.795 431.213 229.008 469.927 289.734C 503.927 343.068 513.927 385.734 511.26 425.068C 511.26 425.068 497.927 507.734 468.593 538.401C 439.26 569.068 399.26 612.401 342.593 617.068C 285.927 621.734 233.26 617.734 189.26 585.734C 145.26 553.734 115.26 515.734 105.927 471.734C 94.2833 416.844 89.9593 355.181 123.26 308.401C 151.26 269.068 201.927 231.068 201.927 231.068L 228.593 283.734C 228.593 283.734 188.593 303.068 173.26 337.068C 157.927 371.068 147.26 419.068 159.26 453.068C 171.26 487.068 195.927 524.401 220.593 539.068C 250.433 556.81 307.754 573.547 347.927 555.068C 390.904 535.298 430.338 513.337 440.593 475.734C 448.593 446.401 463.26 384.401 441.26 351.734C 419.26 319.068 386.593 269.068 333.26 265.734C 271.506 261.875 248.593 267.734 223.927 283.068C 210.291 291.544 196.593 233.734 196.593 233.734z"/>
<path fill="none" stroke-width="4" stroke="#000000" d="M 458.593 551.068"/>
<path fill="#FFFFFF" stroke="none" d="M 306.593 229.734L 305.26 261.734C 305.26 261.734 328.593 263.734 343.927 267.734C 359.26 271.734 379.26 285.068 379.26 285.068L 397.26 255.734C 397.26 255.734 371.26 241.068 355.26 237.068C 339.26 233.068 306.593 229.734 306.593 229.734z"/>
<path fill="#FFFFFF" stroke="none" d="M 433.927 338.401L 461.26 323.068C 461.26 323.068 476.593 351.068 479.927 368.401C 483.26 385.734 484.593 414.401 484.593 414.401L 453.927 413.068C 453.927 413.068 452.593 389.068 449.26 375.734C 445.927 362.401 433.927 338.401 433.927 338.401z"/>
<path fill="#FFFFFF" stroke="none" d="M 435.26 486.401L 461.26 502.401C 461.26 502.401 445.927 531.734 433.927 541.734C 421.927 551.734 394.593 569.734 394.593 569.734L 379.26 542.401C 379.26 542.401 398.593 532.401 408.593 521.734C 418.593 511.068 435.26 486.401 435.26 486.401z"/>
<path fill="#FFFFFF" stroke="none" d="M 305.927 562.401L 304.593 595.734C 304.593 595.734 273.26 595.734 255.26 589.734C 237.26 583.734 213.927 572.401 213.927 572.401L 229.927 543.068C 229.927 543.068 247.26 553.734 263.927 557.734C 280.593 561.734 305.927 562.401 305.927 562.401z"/>
<path fill="#FFFFFF" stroke="none" d="M 147.26 504.401L 175.26 489.734C 175.26 489.734 162.593 461.734 157.927 447.734C 153.26 433.734 152.593 414.401 152.593 414.401L 120.593 414.401C 120.593 414.401 120.593 435.068 125.26 452.401C 129.927 469.734 147.26 504.401 147.26 504.401z"/>
<path fill="#FFFFFF" stroke="none" d="M 146.593 320.401L 173.26 337.068C 173.26 337.068 185.927 316.401 197.26 306.401C 208.593 296.401 228.593 283.734 228.593 283.734L 212.593 253.734C 212.593 253.734 186.593 272.401 174.593 283.734C 162.593 295.068 146.593 320.401 146.593 320.401z"/>
<path fill="#DFD5B0" stroke="none" d="M 301.927 367.934C 325.748 367.934 345.06 387.246 345.06 411.068C 345.06 434.889 325.748 454.201 301.927 454.201C 278.105 454.201 258.793 434.889 258.793 411.068C 258.793 387.246 278.105 367.934 301.927 367.934z"/>
<path fill="#BFAC6F" stroke="none" d="M 303.427 385.405C 317.876 385.405 329.59 397.118 329.59 411.568C 329.59 426.017 317.876 437.731 303.427 437.731C 288.978 437.731 277.264 426.017 277.264 411.568C 277.264 397.118 288.978 385.405 303.427 385.405z"/>
<path fill="#BFAC6F" stroke="none" d="M 268.677 204.818L 275.677 210.068L 328.427 169.068L 307.927 152.318L 268.677 204.818z"/>
<path fill="#DFD5B0" stroke="none" d="M 305.177 165.068L 313.427 164.818L 315.427 171.318L 310.177 176.318L 303.677 173.818L 305.177 165.068z"/>
<path fill="#BFCBE3" stroke="none" d="M 186.593 669.623C 222 669.623 250.704 698.327 250.704 733.734C 250.704 769.141 222 797.845 186.593 797.845C 151.186 797.845 122.482 769.141 122.482 733.734C 122.482 698.327 151.186 669.623 186.593 669.623z"/>
<path fill="#BFCBE3" stroke="none" d="M 331.927 693.927C 305.892 693.927 284.786 715.033 284.786 741.068C 284.786 767.102 305.892 788.208 331.927 788.208C 357.961 788.208 379.067 767.102 379.067 741.068C 379.067 715.033 357.961 693.927 331.927 693.927z"/>
<path fill="#FFFFFF" stroke="none" d="M 138.093 729.276C 144.135 728.318 150.218 728.151 155.927 725.568C 165.177 721.359 172.51 714.984 181.343 709.693C 187.927 705.776 194.427 702.651 199.843 697.276C 200.593 696.526 200.635 695.276 199.968 693.943C 203.177 692.484 204.552 688.734 203.093 685.568C 201.635 682.359 197.885 680.943 194.718 682.443L 192.927 682.109C 191.135 683.276 189.343 681.109 187.552 682.234C 167.968 694.359 148.76 705.109 134.427 722.484C 132.51 723.818 132.052 726.443 133.385 728.359C 134.677 730.234 137.302 730.734 139.218 729.401L 138.093 729.276z"/>
<path fill="#FFFFFF" stroke="none" d="M 157.677 778.151C 168.718 775.193 179.635 772.651 189.51 765.734C 203.843 755.693 216.302 746.151 228.718 735.068C 233.552 731.276 234.385 724.318 230.635 719.484C 226.885 714.651 219.927 713.818 215.093 717.568L 216.885 716.776C 214.581 718.039 212.433 719.518 210.378 721.125C 209.123 722.106 208.128 716.344 206.927 717.401C 201.203 722.438 193.364 731.604 186.927 735.734C 182.396 740.669 173.717 746.575 168.593 751.068C 167.113 752.365 171.404 755.447 169.966 756.778C 164.067 762.235 158.693 768.098 155.26 775.443C 154.51 776.109 154.468 777.276 155.135 778.026C 155.802 778.734 156.927 778.818 157.677 778.151L 157.677 778.151z"/>
<path fill="#41B8D4" stroke="none" d="M 232.677 729.234C 226.216 730.749 220.281 733.529 214.88 737.163C 213.71 737.951 213.38 733.204 212.26 734.068C 207.26 740.401 191.927 751.734 184.927 759.734C 183.124 760.889 190.847 760.645 189.28 762.113C 187.624 763.666 185.922 765.129 183.802 765.943C 181.135 766.943 178.427 768.026 176.052 769.609C 176.635 769.693 177.218 769.776 177.802 769.859C 171.968 772.151 169.093 778.734 171.385 784.568C 173.677 790.359 180.26 793.234 186.093 790.943L 188.843 791.109C 202.052 785.026 211.885 774.651 221.343 763.276C 226.427 757.193 232.385 752.859 237.135 746.234C 239.302 743.234 239.468 739.651 240.552 736.318C 242.468 734.151 242.302 730.776 240.135 728.818C 237.968 726.901 234.635 727.068 232.677 729.234L 232.677 729.234z"/>
<path fill="#41B8D4" stroke="none" d="M 333.802 769.609C 344.135 767.859 354.552 765.401 363.093 758.359C 363.677 757.859 364.635 757.984 365.343 757.609C 367.968 756.151 369.843 754.026 371.593 751.693C 376.177 747.526 376.468 740.443 372.302 735.901C 368.135 731.359 361.093 731.026 356.51 735.193C 346.552 739.734 341.177 749.068 334.51 757.568C 332.343 760.318 331.01 763.484 331.135 766.943C 330.385 767.651 330.385 768.859 331.135 769.609C 331.843 770.318 333.052 770.318 333.802 769.609L 333.802 769.609z"/>
<path fill="#FFFFFF" stroke="none" d="M 328.052 707.818C 323.218 708.776 318.385 709.984 313.843 711.693C 310.218 713.068 307.302 716.109 304.093 718.484C 300.927 721.151 300.51 725.901 303.177 729.109C 305.843 732.276 310.635 732.693 313.802 730.026C 316.718 727.276 320.177 725.026 322.135 721.609C 324.468 717.526 327.343 714.068 329.635 710.068C 330.26 709.609 330.427 708.776 329.968 708.151C 329.552 707.526 328.677 707.359 328.052 707.818L 328.052 707.818z"/>
<path fill="#FFFFFF" stroke="none" d="M 344.885 728.984C 338.593 730.818 333.635 735.401 327.552 737.609C 319.593 740.526 312.135 744.068 304.302 747.193C 297.177 750.234 293.885 758.526 296.927 765.651C 299.968 772.818 308.26 776.109 315.385 773.068C 323.093 770.401 328.135 764.109 333.885 758.568C 341.427 751.193 345.01 741.401 347.76 731.568C 348.468 730.776 348.385 729.568 347.593 728.859C 346.843 728.151 345.593 728.193 344.885 728.984L 344.885 728.984z"/>
<path fill="#DFD5B0" stroke-width="4" stroke="#000000" d="M 186.881 726.865C 182.728 726.865 179.362 730.232 179.362 734.384C 179.362 738.537 182.728 741.904 186.881 741.904C 191.033 741.904 194.4 738.537 194.4 734.384C 194.4 730.232 191.033 726.865 186.881 726.865z"/>
</g>
<g>
<path fill="none" stroke-width="6" stroke="black" d="M 303.427 263.161C 220.637 263.161 153.52 330.278 153.52 413.068C 153.52 495.858 220.637 562.974 303.427 562.974C 386.217 562.974 453.333 495.858 453.333 413.068C 453.333 330.278 386.217 263.161 303.427 263.161z"/>
<path fill="none" stroke-width="6" stroke="black" d="M 303.427 205.885C 417.849 205.885 510.609 298.646 510.609 413.068C 510.609 527.49 417.849 620.25 303.427 620.25C 189.005 620.25 96.2445 527.49 96.2445 413.068C 96.2445 298.646 189.005 205.885 303.427 205.885z"/>
<path fill="none" stroke-width="4" stroke="#000000" d="M 303.427 229.842C 404.038 229.842 485.601 311.876 485.601 413.068C 485.601 514.259 404.038 596.293 303.427 596.293C 202.816 596.293 121.252 514.259 121.252 413.068C 121.252 311.876 202.816 229.842 303.427 229.842z"/>
<path fill="none" stroke-width="6" stroke="#000000" d="M 303.427 369.934C 327.248 369.934 346.56 389.246 346.56 413.068C 346.56 436.889 327.248 456.201 303.427 456.201C 279.605 456.201 260.293 436.889 260.293 413.068C 260.293 389.246 279.605 369.934 303.427 369.934z"/>
<path fill="none" stroke-width="6" stroke="#000000" d="M 303.427 386.905C 317.876 386.905 329.59 398.618 329.59 413.068C 329.59 427.517 317.876 439.231 303.427 439.231C 288.978 439.231 277.264 427.517 277.264 413.068C 277.264 398.618 288.978 386.905 303.427 386.905z"/>
<path fill="none" stroke-width="4" stroke="#000000" d="M 148.574 323.176L 168.308 334.534"/>
<path fill="none" stroke-width="6" stroke="#000000" d="M 198.708 306.952L 273.812 381.85"/>
<path fill="none" stroke-width="6" stroke="#000000" d="M 334.896 442.766L 410.333 517.995"/>
<path fill="none" stroke-width="4" stroke="#000000" d="M 440.293 491.071L 463.026 504.155"/>
<path fill="none" stroke-width="4" stroke="#000000" d="M 124.395 413.91L 146.629 413.88"/>
<path fill="none" stroke-width="6" stroke="#000000" d="M 159.208 374.602L 261.328 401.816"/>
<path fill="none" stroke-width="6" stroke="#000000" d="M 345.459 424.236L 448.14 451.599"/>
<path fill="none" stroke-width="4" stroke="#000000" d="M 460.596 413.457L 487.205 413.421"/>
<path fill="none" stroke-width="4" stroke="#000000" d="M 148.82 504.577L 167.855 493.553"/>
<path fill="none" stroke-width="6" stroke="#000000" d="M 159.097 453.127L 262.017 425.401"/>
<path fill="none" stroke-width="6" stroke="#000000" d="M 345.548 402.899L 448.778 375.089"/>
<path fill="none" stroke-width="4" stroke="#000000" d="M 440.452 335.685L 462.78 322.754"/>
<path fill="none" stroke-width="4" stroke="#000000" d="M 215.305 570.884L 226.343 551.708"/>
<path fill="none" stroke-width="6" stroke="#000000" d="M 198.567 521.042L 274.133 445.275"/>
<path fill="none" stroke-width="6" stroke="#000000" d="M 335.718 383.526L 410.618 308.426"/>
<path fill="none" stroke-width="4" stroke="#000000" d="M 383.633 278.443L 396.294 256.446"/>
<path fill="none" stroke-width="4" stroke="#000000" d="M 306.036 595.067L 306.006 571.97"/>
<path fill="none" stroke-width="6" stroke="#000000" d="M 266.858 559.318L 294.558 455.391"/>
<path fill="none" stroke-width="6" stroke="#000000" d="M 316.755 372.11L 344.201 269.14"/>
<path fill="none" stroke-width="4" stroke="#000000" d="M 305.595 256.647L 305.564 232.264"/>
<path fill="none" stroke-width="4" stroke="#000000" d="M 396.703 570.646L 384.244 549.13"/>
<path fill="none" stroke-width="6" stroke="#000000" d="M 344.46 557.59L 316.807 454.923"/>
<path fill="none" stroke-width="6" stroke="#000000" d="M 294.079 370.54L 266.448 267.955"/>
<path fill="none" stroke-width="4" stroke="#000000" d="M 226.414 276.573L 214.897 256.684"/>
<path fill="none" stroke-width="6" stroke="#000000" d="M 186.881 669.331C 222.808 669.331 251.935 698.457 251.935 734.384C 251.935 770.312 222.808 799.438 186.881 799.438C 150.953 799.438 121.827 770.312 121.827 734.384C 121.827 698.457 150.953 669.331 186.881 669.331z"/>
<path fill="none" stroke-width="6" stroke="#000000" d="M 186.881 707.426C 201.769 707.426 213.839 719.496 213.839 734.384C 213.839 749.273 201.769 761.343 186.881 761.343C 171.992 761.343 159.922 749.273 159.922 734.384C 159.922 719.496 171.992 707.426 186.881 707.426z"/>
<path fill="none" stroke-width="6" stroke="#000000" d="M 332.318 693.239C 358.874 693.239 380.402 714.767 380.402 741.322C 380.402 767.877 358.874 789.405 332.318 789.405C 305.763 789.405 284.235 767.877 284.235 741.322C 284.235 714.767 305.763 693.239 332.318 693.239z"/>

    <text font="bold 16px arial, sans-serif">
	<textPath startOffset="1.5%" xlink:href="#textPath">Holiday</textPath>
	<textPath startOffset="9.83333%" xlink:href="#textPath">$5000</textPath>
	<textPath startOffset="18.1667%" xlink:href="#textPath">Cow</textPath>
	<textPath startOffset="26.5%" xlink:href="#textPath">$500</textPath>
	<textPath startOffset="34.8333%" xlink:href="#textPath">Car</textPath>
	<textPath startOffset="43.1667%" xlink:href="#textPath">$50</textPath>
	<textPath startOffset="51.5%" xlink:href="#textPath">Roll Again</textPath>
	<textPath startOffset="59.8333%" xlink:href="#textPath">$5</textPath>
	<textPath startOffset="68.1667%" xlink:href="#textPath">Pizza</textPath>
	<textPath startOffset="76.5%" xlink:href="#textPath">50&#xA2;</textPath>
	<textPath startOffset="84.8333%" xlink:href="#textPath">Fruit</textPath>
	<textPath startOffset="93.1667%" xlink:href="#textPath">5&#xA2;</textPath>
    </text>


<g fill="none" stroke-width="6" stroke="black" stroke-dasharray="12 4">
    <path d="M 126.256 705.947L 278.256 403.947"/>
    <path d="M 325.927 423.068L 245.927 759.068"/>
    <path d="M 179.927 705.068L 323.927 691.068"/>
    <path d="M 186.881 761.343L 332.318 789.405"/>
</g>
    <path fill="none" stroke-width="6" stroke="#000000" d="M 332.318 741.322C 345.927 725.068 361.927 709.068 377.927 693.068"/>
    <path fill="none" stroke-width="6" stroke="#000000" d="M 382.927 693.067C 385.688 693.067 387.927 690.829 387.927 688.067C 387.927 685.306 385.688 683.068 382.927 683.068C 380.165 683.068 377.927 685.306 377.927 688.067C 377.927 690.829 380.165 693.067 382.927 693.067z"/>
<path fill="#DFD5B0" stroke-width="4" stroke="#000000" d="M 333.26 749.734C 337.599 749.734 341.117 745.897 341.117 741.163C 341.117 736.429 337.599 732.592 333.26 732.592C 328.921 732.592 325.403 736.429 325.403 741.163C 325.403 745.897 328.921 749.734 333.26 749.734z"/>
<path fill="#DFD5B0" stroke-width="4" stroke="#000000" d="M 203.968 248.813C 206.832 248.813 209.154 246.492 209.154 243.628C 209.154 240.764 206.832 238.443 203.968 238.443C 201.105 238.443 198.783 240.764 198.783 243.628C 198.783 246.492 201.105 248.813 203.968 248.813z"/>
<path fill="#DFD5B0" stroke-width="4" stroke="#000000" d="M 133.01 321.565C 135.874 321.565 138.195 319.244 138.195 316.38C 138.195 313.516 135.874 311.195 133.01 311.195C 130.146 311.195 127.825 313.516 127.825 316.38C 127.825 319.244 130.146 321.565 133.01 321.565z"/>
<path fill="#DFD5B0" stroke-width="4" stroke="#000000" d="M 113.593 367.42C 116.457 367.42 118.779 365.098 118.779 362.234C 118.779 359.37 116.457 357.049 113.593 357.049C 110.73 357.049 108.408 359.37 108.408 362.234C 108.408 365.098 110.73 367.42 113.593 367.42z"/>
<path fill="#DFD5B0" stroke-width="4" stroke="#000000" d="M 106.468 416.461C 109.332 416.461 111.654 414.14 111.654 411.276C 111.654 408.412 109.332 406.09 106.468 406.09C 103.605 406.09 101.283 408.412 101.283 411.276C 101.283 414.14 103.605 416.461 106.468 416.461z"/>
<path fill="#DFD5B0" stroke-width="4" stroke="#000000" d="M 114.51 469.836C 117.374 469.836 119.696 467.515 119.696 464.651C 119.696 461.787 117.374 459.465 114.51 459.465C 111.646 459.465 109.325 461.787 109.325 464.651C 109.325 467.515 111.646 469.836 114.51 469.836z"/>
<path fill="#DFD5B0" stroke-width="4" stroke="#000000" d="M 134.656 516.336C 137.52 516.336 139.841 514.015 139.841 511.151C 139.841 508.287 137.52 505.965 134.656 505.965C 131.792 505.965 129.47 508.287 129.47 511.151C 129.47 514.015 131.792 516.336 134.656 516.336z"/>
<path fill="#DFD5B0" stroke-width="4" stroke="#000000" d="M 165.408 556.253C 168.272 556.253 170.593 553.931 170.593 551.068C 170.593 548.204 168.272 545.882 165.408 545.882C 162.544 545.882 160.223 548.204 160.223 551.068C 160.223 553.931 162.544 556.253 165.408 556.253z"/>
<path fill="#DFD5B0" stroke-width="4" stroke="#000000" d="M 207.427 589.628C 210.291 589.628 212.612 587.306 212.612 584.443C 212.612 581.579 210.291 579.257 207.427 579.257C 204.563 579.257 202.241 581.579 202.241 584.443C 202.241 587.306 204.563 589.628 207.427 589.628z"/>
<path fill="#DFD5B0" stroke-width="4" stroke="#000000" d="M 254.593 608.401C 257.457 608.401 259.779 606.079 259.779 603.215C 259.779 600.352 257.457 598.03 254.593 598.03C 251.73 598.03 249.408 600.352 249.408 603.215C 249.408 606.079 251.73 608.401 254.593 608.401z"/>
<path fill="#DFD5B0" stroke-width="4" stroke="#000000" d="M 357.51 607.443C 360.374 607.443 362.696 605.121 362.696 602.257C 362.696 599.393 360.374 597.072 357.51 597.072C 354.646 597.072 352.325 599.393 352.325 602.257C 352.325 605.121 354.646 607.443 357.51 607.443z"/>
<path fill="#DFD5B0" stroke-width="4" stroke="#000000" d="M 311.552 614.69C 314.416 614.69 316.737 612.369 316.737 609.505C 316.737 606.641 314.416 604.32 311.552 604.32C 308.688 604.32 306.366 606.641 306.366 609.505C 306.366 612.369 308.688 614.69 311.552 614.69z"/>
<path fill="#DFD5B0" stroke-width="4" stroke="#000000" d="M 404.927 587.065C 407.791 587.065 410.112 584.744 410.112 581.88C 410.112 579.016 407.791 576.695 404.927 576.695C 402.063 576.695 399.741 579.016 399.741 581.88C 399.741 584.744 402.063 587.065 404.927 587.065z"/>
<path fill="#DFD5B0" stroke-width="4" stroke="#000000" d="M 442.677 556.982C 445.541 556.982 447.862 554.66 447.862 551.797C 447.862 548.933 445.541 546.611 442.677 546.611C 439.813 546.611 437.491 548.933 437.491 551.797C 437.491 554.66 439.813 556.982 442.677 556.982z"/>
<path fill="#DFD5B0" stroke-width="4" stroke="#000000" d="M 492.677 469.315C 495.541 469.315 497.862 466.994 497.862 464.13C 497.862 461.266 495.541 458.945 492.677 458.945C 489.813 458.945 487.491 461.266 487.491 464.13C 487.491 466.994 489.813 469.315 492.677 469.315z"/>
<path fill="#DFD5B0" stroke-width="4" stroke="#000000" d="M 474.739 514.815C 477.603 514.815 479.925 512.494 479.925 509.63C 479.925 506.766 477.603 504.445 474.739 504.445C 471.875 504.445 469.554 506.766 469.554 509.63C 469.554 512.494 471.875 514.815 474.739 514.815z"/>
<path fill="#DFD5B0" stroke-width="4" stroke="#000000" d="M 500.364 419.94C 503.228 419.94 505.55 417.619 505.55 414.755C 505.55 411.891 503.228 409.57 500.364 409.57C 497.5 409.57 495.179 411.891 495.179 414.755C 495.179 417.619 497.5 419.94 500.364 419.94z"/>
<path fill="#DFD5B0" stroke-width="4" stroke="#000000" d="M 493.26 368.105C 496.124 368.105 498.445 365.783 498.445 362.92C 498.445 360.056 496.124 357.734 493.26 357.734C 490.396 357.734 488.075 360.056 488.075 362.92C 488.075 365.783 490.396 368.105 493.26 368.105z"/>
<path fill="#DFD5B0" stroke-width="4" stroke="#000000" d="M 473.927 320.003C 476.791 320.003 479.112 317.681 479.112 314.818C 479.112 311.954 476.791 309.632 473.927 309.632C 471.063 309.632 468.741 311.954 468.741 314.818C 468.741 317.681 471.063 320.003 473.927 320.003z"/>
<path fill="#DFD5B0" stroke-width="4" stroke="#000000" d="M 444.593 281.734C 447.457 281.734 449.779 279.413 449.779 276.549C 449.779 273.685 447.457 271.363 444.593 271.363C 441.73 271.363 439.408 273.685 439.408 276.549C 439.408 279.413 441.73 281.734 444.593 281.734z"/>
<path fill="#DFD5B0" stroke-width="4" stroke="#000000" d="M 400.927 247.503C 403.791 247.503 406.112 245.181 406.112 242.318C 406.112 239.454 403.791 237.132 400.927 237.132C 398.063 237.132 395.741 239.454 395.741 242.318C 395.741 245.181 398.063 247.503 400.927 247.503z"/>
<path fill="#DFD5B0" stroke-width="4" stroke="#000000" d="M 308.989 222.503C 311.853 222.503 314.175 220.181 314.175 217.318C 314.175 214.454 311.853 212.132 308.989 212.132C 306.125 212.132 303.804 214.454 303.804 217.318C 303.804 220.181 306.125 222.503 308.989 222.503z"/>
<path fill="#DFD5B0" stroke-width="4" stroke="#000000" d="M 256.468 228.128C 259.332 228.128 261.654 225.806 261.654 222.943C 261.654 220.079 259.332 217.757 256.468 217.757C 253.605 217.757 251.283 220.079 251.283 222.943C 251.283 225.806 253.605 228.128 256.468 228.128z"/>
<path fill="#DFD5B0" stroke-width="4" stroke="#000000" d="M 164.385 279.982C 167.249 279.982 169.57 277.66 169.57 274.797C 169.57 271.933 167.249 269.611 164.385 269.611C 161.521 269.611 159.2 271.933 159.2 274.797C 159.2 277.66 161.521 279.982 164.385 279.982z"/>
<path fill="#DFD5B0" stroke-width="4" stroke="#000000" d="M 357.489 229.44C 360.353 229.44 362.675 227.119 362.675 224.255C 362.675 221.391 360.353 219.07 357.489 219.07C 354.625 219.07 352.304 221.391 352.304 224.255C 352.304 227.119 354.625 229.44 357.489 229.44z"/>
<path fill="none" stroke-width="6" stroke="#000000" d="M 274.531 209.859L 328.531 169.859L 307.198 153.859L 268.531 204.526L 274.531 209.859z"/>
<path fill="none" stroke-width="4" stroke="#000000" d="M 308.698 176.751C 312.342 176.751 315.297 173.796 315.297 170.151C 315.297 166.506 312.342 163.551 308.698 163.551C 305.053 163.551 302.098 166.506 302.098 170.151C 302.098 173.796 305.053 176.751 308.698 176.751z"/>
</g>
<g>
<path fill="#FEE0B3" stroke="none" d="M 342.427 51.5676C 342.427 51.5676 337.927 51.0676 336.427 62.0676C 334.927 73.0676 335.427 85.5676 341.427 91.0676C 347.427 96.5676 365.927 110.068 380.427 100.568C 394.927 91.0676 394.927 90.5676 398.427 78.5676C 401.927 66.5676 403.927 63.0676 395.927 55.0676C 387.927 47.0676 373.427 40.5676 361.927 41.5676C 350.427 42.5676 342.427 51.5676 342.427 51.5676z"/>
<path fill="#FFFFFF" stroke="none" d="M 346.927 78.5676C 346.927 78.5676 362.927 82.0676 369.427 82.0676C 375.927 82.0676 389.927 81.0676 389.927 81.0676C 389.927 81.0676 386.427 88.0676 380.427 91.5676C 374.427 95.0676 362.427 98.5676 355.427 93.0676C 348.427 87.5676 346.927 78.5676 346.927 78.5676z"/>
<path fill="#F8023F" stroke="none" d="M 310.614 71.5364C 311.489 70.8489 312.145 69.6301 313.364 69.7239C 313.583 69.7239 313.77 70.1614 313.958 70.4426L 313.645 70.5989L 312.052 70.1614L 314.395 71.5676C 316.364 73.5676 317.708 76.1301 320.395 77.1926L 321.052 77.4426C 323.177 77.4739 325.145 76.4114 326.333 74.6926L 323.739 76.6614C 325.552 75.5364 327.645 74.8801 329.083 73.1614C 328.083 73.8176 327.02 74.3176 325.802 74.3489C 326.52 76.6614 329.27 77.5989 331.427 78.2239C 335.114 79.1926 338.895 77.0364 339.895 73.3489C 340.864 69.6614 338.677 65.8801 335.02 64.9114L 334.864 65.4114C 330.583 59.7864 322.114 60.1926 317.583 65.2551C 318.052 65.0364 318.489 64.8176 318.958 64.5989L 315.833 67.4426L 321.083 64.6926L 320.239 64.6614C 320.895 65.2864 321.802 65.9739 321.427 66.8176C 321.302 67.0676 320.583 67.0364 320.114 67.0989L 315.208 64.9739C 314.708 64.6926 314.177 64.5364 313.614 64.5364L 312.895 64.5364C 309.77 64.9739 308.177 68.3489 309.239 71.1926C 309.145 71.5676 309.395 71.9426 309.77 72.0364C 310.145 72.1301 310.52 71.9114 310.614 71.5364L 310.614 71.5364z"/>
<path fill="#F8023F" stroke="none" d="M 310.458 51.8801C 311.302 51.9114 312.052 52.1301 312.583 52.8489L 313.489 53.5051L 312.583 52.7551L 312.677 53.0051C 313.708 55.3801 312.02 58.7864 314.958 60.0051C 320.052 62.1301 325.02 57.8489 328.427 54.3489L 328.489 54.6926L 325.614 54.5989L 325.114 54.0364C 326.864 56.1301 327.208 59.0364 329.677 60.6926C 332.145 62.3801 334.895 61.7239 337.583 61.8489C 339.677 61.8489 341.364 60.1614 341.364 58.0676C 341.364 55.9739 339.677 54.2864 337.583 54.2864C 336.395 54.3489 335.177 54.2864 333.989 54.3489C 334.177 54.7551 334.364 55.1614 334.552 55.5676C 332.864 53.7551 331.77 51.4739 330.114 49.6614L 328.645 48.6301C 328.02 48.3176 327.27 48.1926 326.552 48.3176L 325.27 48.6301C 322.489 50.4114 320.239 52.8801 317.333 54.4739C 317.552 54.8489 317.989 55.3801 317.927 55.4739C 316.583 56.9114 316.302 53.6926 315.145 52.8801L 314.802 52.0051C 314.739 51.8176 314.614 51.6301 314.427 51.4739L 313.458 50.9739C 312.427 51.4739 311.458 49.7864 310.395 50.8489C 310.114 50.8801 309.895 51.1301 309.895 51.4114C 309.927 51.6926 310.177 51.9114 310.458 51.8801L 310.458 51.8801z"/>
<path fill="#F8023F" stroke="none" d="M 328.864 32.0989C 327.364 35.2864 325.927 39.6614 329.083 42.4739L 331.145 43.7551L 331.02 43.7239L 333.52 43.7864C 333.364 43.8176 333.208 43.8176 333.052 43.8489C 334.895 43.5051 336.583 42.4739 338.489 42.3801L 339.895 42.0676L 337.052 41.7239L 337.77 42.0676L 335.77 39.6614L 335.77 39.4114C 336.083 42.1926 335.52 45.0364 336.395 47.7864L 336.739 48.8489C 336.989 49.7239 337.583 50.4739 338.333 50.9739L 338.927 51.3801C 339.52 51.8176 340.239 52.0676 340.989 52.0989L 343.145 52.0051C 344.239 51.8801 345.302 51.0989 346.427 51.8489C 348.677 52.0989 350.708 50.5051 350.989 48.2551C 351.239 46.0051 349.645 43.9739 347.395 43.6926C 345.77 43.2864 344.114 43.5364 342.489 43.6926L 341.427 43.9114L 343.489 44.6301L 342.895 44.2239L 344.489 46.3801L 344.114 44.9739C 344.145 45.0989 344.145 45.2551 344.177 45.3801C 343.77 43.2864 344.145 41.1301 343.895 39.0364L 343.52 37.2551C 343.208 36.2239 342.489 35.3801 341.552 34.8801L 340.864 34.5051C 340.052 34.0676 339.114 33.9426 338.239 34.0989L 337.208 34.2864C 335.802 34.6301 334.333 34.7864 332.989 35.4426L 332.677 36.0364L 335.489 38.3801L 334.177 37.2864C 331.802 36.8489 332.083 33.3176 330.395 31.8489C 330.302 31.4114 329.927 31.1301 329.489 31.2239C 329.083 31.2864 328.802 31.6926 328.864 32.0989L 328.864 32.0989z"/>
<path fill="#F8023F" stroke="none" d="M 359.739 46.1614C 361.083 45.1301 362.864 44.5364 363.77 43.0989C 365.958 39.7239 363.208 36.3176 360.895 33.8801C 362.239 34.1614 363.614 33.7864 364.958 33.9739L 366.208 34.0364C 367.708 34.0364 369.114 33.1614 369.77 31.7864L 369.958 31.4739C 370.52 30.2551 370.458 28.8176 369.77 27.6614L 369.739 27.7239C 368.739 24.4114 365.02 23.7864 363.208 21.1614L 361.895 19.4739L 362.739 23.8489L 363.302 22.5676C 363.489 22.2239 363.677 21.9114 363.864 21.5676C 364.989 19.7551 364.458 17.3489 362.645 16.1926C 360.833 15.0676 358.427 15.5989 357.302 17.4114C 356.958 17.8489 356.645 18.2864 356.302 18.7239L 355.364 20.7551C 354.77 22.1614 355.052 23.7864 356.052 24.9426L 356.927 26.2239L 356.895 26.2239C 358.364 27.6926 359.802 29.1301 361.489 30.3489L 362.927 31.8176L 362.739 28.0051L 362.614 28.3489L 366.177 26.0989L 364.864 26.0989C 360.333 26.0051 355.677 28.0989 353.958 32.7551C 352.927 35.5989 353.989 39.0364 356.645 40.5051C 356.739 40.5676 357.145 40.0989 357.427 39.8176C 357.02 41.9739 356.833 44.1926 358.114 46.1614C 358.114 46.6301 358.458 47.0051 358.927 47.0051C 359.395 47.0051 359.739 46.6301 359.739 46.1614L 359.739 46.1614z"/>
<path fill="#F8023F" stroke="none" d="M 371.677 48.5364C 371.614 48.1614 371.552 47.7551 371.489 47.3801L 371.395 45.4426L 371.427 47.2864L 371.739 46.5364C 372.239 44.1926 374.114 43.0989 376.364 43.1301L 378.208 43.2864C 378.739 43.1301 379.239 42.8801 379.677 42.5364L 379.927 42.3489C 379.708 42.4739 379.52 42.6301 379.302 42.7551C 383.364 40.0989 382.333 34.6926 383.145 30.5364C 382.708 30.9114 382.302 31.2551 381.864 31.6301L 381.927 31.7551C 382.427 31.7551 382.927 31.6614 383.427 31.5051C 385.583 30.6614 386.677 28.2551 385.864 26.0676L 384.677 24.0676C 384.677 24.0989 384.677 24.1301 384.677 24.1614C 383.177 22.9114 381.552 21.0676 379.427 21.0364C 378.864 19.4739 377.145 18.6926 375.614 19.2551C 374.052 19.8176 373.239 21.5364 373.802 23.0989L 372.895 23.8489C 373.52 26.2551 375.364 28.0989 377.552 29.1614L 377.989 29.0676L 381.927 23.3801L 381.208 23.3801C 374.489 23.9739 375.114 31.8176 374.552 36.7551C 375.114 36.3801 375.708 35.9739 376.27 35.5989L 374.927 36.5989L 377.239 35.7551L 376.333 35.7864C 372.083 36.5051 366.927 39.7551 367.52 44.6926L 367.645 45.4739C 367.395 45.9739 367.364 46.5364 367.52 47.0364L 367.614 47.2551C 367.645 46.9114 367.645 46.5676 367.677 46.2239C 367.989 47.7551 369.27 48.5364 370.395 49.3801C 370.614 49.7239 371.083 49.8489 371.458 49.5989C 371.802 49.3801 371.895 48.9114 371.677 48.5364L 371.677 48.5364z"/>
<path fill="#F8023F" stroke="none" d="M 384.458 51.0676C 385.458 50.3489 386.739 50.3176 387.708 49.5989C 387.552 49.9739 387.427 50.3176 387.27 50.6926C 388.083 50.4426 388.927 50.2239 389.77 50.0676L 390.458 50.0676L 390.395 50.0676L 392.864 49.2864C 395.989 46.3176 395.895 41.7864 395.927 37.7864C 396.083 38.5051 396.02 39.2551 395.177 39.9739C 396.114 39.9739 397.083 39.9739 398.02 39.9739L 398.333 40.0051C 399.489 40.0051 400.583 39.5051 401.333 38.5989L 401.958 37.8176C 403.333 36.0364 403.239 32.5989 405.958 32.8801C 408.833 33.1614 412.114 35.4426 414.864 33.0676C 416.77 32.5364 417.864 30.5676 417.333 28.6614C 416.802 26.7551 414.802 25.6614 412.927 26.1926L 412.208 25.7551C 406.083 24.0364 398.083 25.1614 395.958 32.1614L 395.333 33.5364L 398.333 32.1301L 397.27 32.1301C 395.114 32.1614 392.895 32.0051 390.895 33.1926C 387.489 35.1926 388.02 39.2239 387.395 42.4739C 387.958 42.3176 388.489 42.1301 389.052 41.9739L 389.333 42.2551C 388.083 42.4426 386.958 43.2239 386.364 44.3489L 387.677 42.6926C 383.989 43.4739 381.27 46.6614 382.802 50.4739C 382.645 50.9426 382.895 51.4426 383.333 51.5989C 383.802 51.7551 384.302 51.5051 384.458 51.0676L 384.458 51.0676z"/>
<path fill="#F8023F" stroke="none" d="M 391.927 57.5364C 392.427 57.5989 392.583 56.8801 393.52 58.5364C 393.739 58.9426 395.177 58.1926 395.708 58.4114C 399.302 59.8801 404.114 58.6614 406.802 55.8489C 408.177 54.4426 408.677 51.5676 410.77 51.8176C 413.583 52.1301 416.395 53.0676 419.177 53.8489L 420.052 53.9739C 420.864 54.0989 421.708 53.9739 422.458 53.5989L 421.864 53.7239C 422.239 53.6614 422.583 53.5676 422.958 53.5051L 424.458 52.7239C 425.395 52.1614 426.083 51.2239 426.333 50.1301L 426.552 48.7864C 426.552 48.7551 426.583 48.7239 426.583 48.6926C 426.364 48.6614 426.177 48.6301 425.958 48.5989C 426.864 47.0051 426.333 45.0051 424.77 44.0989C 423.208 43.1926 421.208 43.7239 420.302 45.2864L 419.27 45.8176C 418.927 46.4114 418.614 46.9739 418.27 47.5676L 418.239 48.2239L 419.708 45.9114L 418.614 46.5051L 419.333 46.0364L 418.833 46.2864L 421.239 45.9114L 419.645 45.5676C 416.489 44.8176 413.302 43.7551 410.083 43.7239C 405.739 43.6301 402.395 47.1614 400.395 50.8176C 396.77 51.2551 392.114 49.3176 389.739 53.6614C 388.677 54.2551 388.302 55.6301 388.895 56.6926C 389.52 57.7551 390.864 58.1301 391.927 57.5364L 391.927 57.5364z"/>
<path fill="#F8023F" stroke="none" d="M 397.302 66.8801C 399.833 66.9114 403.114 66.3176 404.489 69.2239L 404.489 69.1301C 405.27 70.9114 407.177 71.8801 409.052 71.5051L 411.645 70.4426C 411.552 70.4739 411.489 70.5051 411.395 70.5364C 412.708 69.7864 413.645 68.6614 414.677 67.5989L 417.583 66.8489L 413.114 67.0989L 412.895 66.8489C 413.583 67.5676 414.302 68.3176 414.989 69.0364L 414.677 69.6926C 415.177 70.6926 416.052 71.4739 417.145 71.8176L 418.989 72.2239C 420.177 72.4739 421.177 71.8801 422.239 71.4739C 424.114 71.4739 425.645 69.9426 425.645 68.0676C 425.645 66.1926 424.114 64.6614 422.239 64.6614L 422.677 65.2551C 422.239 64.6614 421.614 64.3176 420.895 64.1926L 419.708 63.8489L 422.583 67.6301L 422.458 66.4426C 421.989 64.3176 420.583 62.4114 418.77 61.1614L 417.239 60.0676C 416.583 59.6926 415.833 59.4739 415.083 59.5051L 414.395 59.5051C 411.958 59.6614 409.708 60.8176 408.114 62.6301L 407.395 63.5676L 410.708 64.3176L 410.177 63.5051C 408.239 61.0989 405.27 59.9114 402.27 60.0051C 399.458 60.0989 396.489 61.7551 395.239 64.4739C 394.552 64.8801 394.364 65.7864 394.802 66.4739C 395.239 67.1301 396.145 67.3176 396.802 66.8801L 397.302 66.8801z"/>
<path fill="#FEE0B3" stroke="none" d="M 62.4268 347.568C 62.4268 347.568 75.4268 351.568 78.4268 359.068C 81.4268 366.568 85.4268 374.568 79.9268 383.568C 74.4268 392.568 64.9268 401.068 50.9268 398.068C 36.9268 395.068 29.4582 391.244 30.4268 376.068C 31.9268 352.568 44.9268 345.068 62.4268 347.568z"/>
<path fill="#FFFFFF" stroke="none" d="M 54.4268 385.068L 69.9268 380.068C 69.9268 380.068 68.9268 387.068 64.9268 389.068C 60.9268 391.068 54.4268 385.068 54.4268 385.068z"/>
<path fill="#482F93" stroke="none" d="M 16.6143 381.193C 15.8643 383.255 15.6455 385.724 17.3955 387.63L 16.8643 387.286C 17.333 387.974 17.9893 388.474 18.7705 388.724L 19.0205 388.786C 19.958 389.443 21.1143 389.443 22.333 389.13L 23.7705 388.63C 24.458 388.318 25.0518 387.818 25.458 387.161L 26.2393 385.661C 27.6768 382.536 26.3955 379.349 27.0205 376.068C 27.4893 373.568 28.833 371.318 30.0518 369.068L 30.333 368.568L 28.3643 370.443L 28.7705 370.286C 29.5205 371.193 30.5205 370.286 31.333 370.661C 33.6143 370.661 35.4268 368.818 35.4268 366.568C 35.4268 364.318 33.6143 362.474 31.333 362.474L 31.9268 362.443C 29.458 362.568 26.8018 362.161 24.6455 363.693L 25.208 363.224C 24.3643 363.599 23.6455 364.286 23.2393 365.099L 22.7393 366.13C 22.7705 366.13 22.7705 366.13 22.8018 366.13C 20.083 371.13 18.7393 376.568 19.083 382.224L 18.9268 383.099L 20.6143 381.63L 20.833 381.724C 21.1768 381.818 21.4893 381.911 21.833 382.005L 20.833 382.036L 22.7393 383.474L 21.3643 381.974C 20.3955 383.13 19.1455 381.193 18.2393 380.755C 18.1143 380.318 17.6455 380.036 17.208 380.161C 16.7705 380.286 16.4893 380.755 16.6143 381.193L 16.6143 381.193z"/>
<path fill="#482F93" stroke="none" d="M 20.1143 350.474C 19.3643 352.911 18.458 355.88 20.083 358.255L 20.3643 359.099C 20.708 359.474 21.1143 359.755 21.5518 359.943L 21.7705 360.036C 21.6143 359.943 21.458 359.818 21.3018 359.724C 21.6768 359.943 22.083 360.161 22.458 360.38L 23.5518 360.63C 24.7705 360.724 25.958 360.193 26.708 359.224L 27.3955 358.286C 28.6768 355.943 29.6143 353.443 31.0518 351.193L 31.1143 351.193L 28.0205 352.599L 32.3643 352.786C 34.2705 354.068 36.6768 352.005 38.4268 354.536C 40.6455 355.661 43.3018 354.755 44.3955 352.536C 45.5205 350.349 44.6143 347.661 42.3955 346.568L 41.1768 345.818C 39.2705 345.724 37.3955 345.193 35.4893 345.349L 28.3643 345.13C 27.1768 345.068 26.0205 345.599 25.2705 346.536L 24.3643 347.943C 23.3643 349.661 22.458 351.411 21.7393 353.255L 20.9893 354.88L 24.1455 353.474L 24.708 353.724C 25.1143 354.068 25.5205 354.38 25.9268 354.724L 24.208 353.724L 26.208 356.161L 25.0518 353.88C 25.083 354.005 25.1143 354.161 25.1455 354.286C 23.6143 353.38 22.8018 351.818 21.7393 350.474C 21.7393 350.036 21.3643 349.661 20.9268 349.661C 20.4893 349.661 20.1143 350.036 20.1143 350.474L 20.1143 350.474z"/>
<path fill="#482F93" stroke="none" d="M 32.2393 332.849C 29.6768 331.505 26.7705 329.474 23.8018 330.724L 24.5518 330.443C 23.8643 330.505 23.208 330.786 22.6455 331.224L 22.333 331.411L 23.0205 330.974L 22.583 331.161C 21.6143 331.63 20.8955 332.505 20.6455 333.536L 20.6768 333.568C 17.8643 337.693 19.4268 343.849 24.3018 345.255C 27.3018 346.13 30.208 346.943 33.2705 347.286C 37.8955 347.818 42.6768 347.193 47.1768 348.693C 49.458 349.63 52.083 348.568 53.0205 346.286C 53.9893 344.005 52.8955 341.38 50.6143 340.443L 50.583 340.536C 45.6143 338.693 40.0205 338.661 34.708 338.974C 32.2393 339.13 29.8643 337.818 27.333 338.255C 27.208 338.286 27.208 338.911 27.1768 339.286C 26.7393 338.88 25.9268 338.786 27.1143 337.161L 27.708 335.349L 25.7393 337.755L 26.1455 337.536C 26.3955 337.411 26.6143 337.255 26.833 337.099L 27.083 336.849L 25.1768 337.599L 27.3018 337.161C 28.1768 335.286 30.583 336.349 31.6768 334.88C 32.3955 334.88 32.9893 334.286 32.9893 333.568C 32.9893 332.849 32.3955 332.255 31.6768 332.255L 32.2393 332.849z"/>
<path fill="#482F93" stroke="none" d="M 54.3018 342.536C 56.1768 341.349 57.333 339.005 56.6455 336.974C 55.458 333.443 52.6143 331.13 50.2705 328.193C 50.1143 328.005 50.4893 327.38 50.6768 326.911C 53.1455 328.068 55.9268 328.161 58.4268 326.943C 62.1143 325.193 62.1455 320.63 59.8018 317.693C 59.8018 317.224 59.3955 316.849 58.9268 316.849C 58.458 316.849 58.0518 317.224 58.0518 317.693C 56.0205 317.661 54.833 318.599 54.2705 320.599C 54.583 320.099 54.8955 319.599 55.208 319.099C 50.7705 319.068 45.4893 319.224 43.1455 323.755C 40.0205 329.818 44.5518 336.443 50.208 339.161C 51.3643 339.724 51.8018 341.161 52.5518 342.224C 52.458 342.693 52.7705 343.161 53.2705 343.255C 53.7705 343.349 54.2393 343.005 54.3018 342.536L 54.3018 342.536z"/>
<path fill="#482F93" stroke="none" d="M 80.708 323.474C 80.2393 324.443 79.8955 325.474 78.8955 326.036L 78.583 327.193L 80.3643 325.13L 80.1455 325.161C 79.6143 325.286 79.1768 325.599 78.833 326.005L 78.2393 326.474L 79.8955 325.536L 79.9893 325.536C 75.708 322.943 70.5205 324.005 67.1143 327.536L 66.333 328.443C 65.6143 329.161 65.3018 330.193 65.5205 331.224L 66.2393 334.974C 66.3018 336.63 66.6768 338.286 66.708 339.943L 66.8018 340.724C 67.083 342.286 68.3018 343.505 69.8643 343.818L 69.9893 343.849C 69.2393 343.411 68.5205 342.974 67.7705 342.536L 66.8955 340.536L 66.8643 340.099L 66.833 340.318L 66.833 340.286L 66.833 340.474C 66.833 341.505 67.208 342.474 67.8955 343.224L 68.1455 343.536L 69.9268 336.818L 70.1455 336.88C 69.4268 336.974 68.7393 337.005 68.0205 336.911L 66.833 336.943C 66.083 336.943 65.333 337.161 64.708 337.536L 63.708 338.161C 61.9268 339.505 60.7705 341.63 60.833 343.88C 60.7705 346.161 62.5518 348.036 64.833 348.099C 67.083 348.161 68.958 346.38 69.0205 344.099L 68.333 343.536C 68.3643 344.068 68.3643 344.63 68.3955 345.161L 68.9893 344.599L 66.833 345.193L 68.1143 345.193L 68.1143 345.224C 69.0205 345.193 69.8955 345.161 70.8018 345.13L 72.4893 344.693C 73.0205 344.536 73.5518 344.224 73.9893 343.818C 75.6768 342.286 75.8018 339.661 74.2705 337.974L 73.958 337.693L 75.0205 340.443L 75.0205 340.255L 75.0205 340.224L 74.9893 340.036C 74.958 338.099 73.583 336.474 71.708 336.099L 71.4893 336.193L 71.4893 336.193L 71.3643 336.193L 71.3643 336.193L 73.833 337.161C 72.333 337.349 73.2705 336.193 73.0205 335.693L 71.6455 330.036L 71.3018 332.13L 71.6455 331.724C 72.458 330.88 73.3955 330.224 74.583 330.036C 74.2705 329.786 73.958 329.536 73.6455 329.286C 75.9268 330.161 78.2705 330.661 80.833 330.349L 80.583 330.505C 80.7393 330.505 80.8955 330.474 81.0518 330.411L 82.5205 329.286C 82.6143 329.099 82.708 328.88 82.8018 328.693L 81.4893 329.755C 82.5518 329.474 83.3018 328.568 83.3018 327.474L 83.1768 327.474C 83.4268 325.974 82.8955 324.724 82.1455 323.474C 82.1455 323.068 81.8018 322.755 81.4268 322.755C 81.0518 322.755 80.708 323.068 80.708 323.474L 80.708 323.474z"/>
<path fill="#482F93" stroke="none" d="M 87.0205 336.724C 83.8643 337.318 81.4268 339.724 80.8955 342.88C 80.2705 346.536 83.6455 348.255 85.1143 351.036L 85.0518 352.443L 85.1455 349.099L 84.8018 349.599L 86.3955 348.286L 87.0518 348.255C 82.6768 348.099 78.8955 350.911 76.458 354.349C 75.583 356.068 76.2393 358.193 77.9893 359.099C 79.708 360.005 81.8643 359.318 82.7393 357.568L 82.5518 358.13C 83.2705 356.255 84.958 354.63 87.0205 354.849L 88.833 354.443C 89.4893 354.161 90.0205 353.693 90.3955 353.099L 90.708 352.599C 91.0518 352.068 91.208 351.474 91.208 350.849L 91.208 350.161C 90.708 347.411 89.1455 344.474 85.833 343.786C 86.1455 341.755 85.9268 339.411 87.6143 337.818C 87.9268 337.661 88.0518 337.286 87.8643 336.974C 87.708 336.661 87.333 336.536 87.0205 336.724L 87.0205 336.724z"/>
<path fill="#482F93" stroke="none" d="M 52.708 348.974C 52.3018 349.661 52.083 350.38 52.3955 351.193C 52.1143 350.88 51.8018 350.536 51.5205 350.224C 51.4893 351.411 51.8643 352.474 53.4268 353.161C 54.8643 353.661 56.4268 352.943 56.958 351.536C 57.4893 350.099 56.7705 348.505 55.333 347.974L 56.0518 348.786C 55.9893 349.161 55.958 349.505 55.8955 349.88C 55.4268 349.443 54.958 348.974 54.4893 348.536C 53.6768 347.943 52.5518 348.13 51.9893 348.911C 51.3955 349.724 51.583 350.849 52.3643 351.443L 52.708 348.974z"/>
<path fill="#FEE0B3" stroke="none" d="M 551.26 355.734C 566.593 355.734 575.26 353.734 582.593 366.401C 589.927 379.068 597.26 397.734 583.927 401.734C 570.593 405.734 549.26 405.068 541.927 390.401C 534.593 375.734 532.593 365.068 539.927 360.401C 547.26 355.734 551.26 355.734 551.26 355.734z"/>
<path fill="#01947F" stroke="none" d="M 513.843 337.276C 509.26 338.318 509.885 343.943 509.885 347.443C 509.885 351.651 511.343 357.693 517.01 357.818L 518.135 357.901L 515.01 355.901L 515.093 355.359C 515.385 358.318 514.468 361.318 515.718 364.193L 515.718 364.401C 515.843 365.234 516.26 366.026 516.885 366.568L 520.26 369.526C 521.26 370.359 522.76 371.026 523.01 372.068C 524.135 377.193 528.427 379.693 532.885 380.693C 535.26 381.359 537.76 379.943 538.385 377.526C 539.052 375.151 537.635 372.693 535.218 372.026L 535.26 373.193C 534.468 371.234 532.01 371.901 531.093 370.443C 529.843 368.443 528.593 366.526 526.635 365.276L 521.593 361.193L 522.76 363.318L 522.177 360.568C 522.052 358.693 522.218 356.818 521.968 354.943L 521.302 352.901C 520.76 351.693 519.51 350.901 518.177 350.901L 517.677 351.901C 517.76 352.109 517.843 352.359 517.927 352.568C 515.052 348.359 514.843 343.193 514.885 338.234C 515.177 337.776 515.052 337.193 514.593 336.901C 514.135 336.609 513.51 336.776 513.26 337.234L 513.843 337.276z"/>
<path fill="#01947F" stroke="none" d="M 521.385 320.401C 521.177 321.359 521.052 322.318 520.968 323.276L 520.76 324.109C 520.76 324.568 521.052 324.984 521.468 325.151L 521.135 324.734C 521.927 326.568 523.135 328.193 523.718 330.026C 523.927 330.651 524.135 332.068 523.802 332.609C 520.385 338.776 521.718 347.901 528.177 350.734L 529.677 351.151L 528.968 350.651L 529.677 351.318L 528.718 349.484L 528.802 350.318L 528.76 349.984L 529.343 351.568C 529.343 351.609 529.343 351.609 529.343 351.651L 529.968 350.734C 529.427 352.859 528.26 354.984 528.885 357.151C 529.718 359.984 529.427 363.984 533.968 364.651C 535.093 365.526 536.677 365.318 537.552 364.193C 538.385 363.068 538.177 361.443 537.052 360.609C 535.343 358.693 535.01 356.401 535.135 353.984L 535.635 351.193C 535.593 350.651 535.427 350.109 535.093 349.609L 534.468 348.068L 535.01 349.401L 534.843 348.568C 534.76 347.901 534.427 347.234 533.885 346.734L 533.177 346.109C 532.677 345.651 531.968 345.359 531.26 345.318L 529.802 344.776C 530.01 344.859 530.177 344.984 530.385 345.068C 527.885 344.901 527.677 341.776 527.51 339.901C 527.218 336.568 529.927 333.734 528.927 330.359C 528.177 327.776 524.968 327.193 524.135 324.651L 522.385 323.068L 523.093 324.109L 523.093 322.443C 521.468 322.193 523.01 320.984 522.468 320.401C 522.468 320.109 522.218 319.859 521.927 319.859C 521.635 319.859 521.385 320.109 521.385 320.401L 521.385 320.401z"/>
<path fill="#01947F" stroke="none" d="M 531.093 310.401C 529.76 312.359 530.427 314.401 530.677 316.526L 530.968 317.984C 531.093 318.276 531.302 318.526 531.593 318.734L 531.885 318.901C 533.718 321.484 536.885 322.984 540.052 323.193L 540.427 323.234L 537.677 321.109L 537.802 321.609C 538.01 322.526 538.677 323.234 539.552 323.568L 539.843 323.734C 540.093 323.818 540.343 323.901 540.635 323.901L 540.885 323.943L 538.26 321.693L 538.302 321.151C 537.927 324.693 537.343 328.151 536.927 331.693L 535.885 334.026C 535.802 334.859 536.052 335.693 536.552 336.359L 537.843 337.734C 537.677 337.693 537.552 337.651 537.385 337.609C 539.343 339.359 540.677 341.651 542.593 343.443L 543.135 344.568L 542.427 341.318L 542.343 341.734C 541.468 346.568 538.26 352.151 542.135 356.568C 543.343 358.151 545.677 358.443 547.26 357.234C 548.885 355.984 549.177 353.651 547.927 352.068L 547.093 352.734C 547.927 350.526 547.552 348.026 548.885 345.943L 549.385 343.151C 549.552 342.484 549.552 341.776 549.302 341.109L 548.427 339.276C 546.468 337.568 545.093 335.359 543.302 333.526L 542.01 332.359L 542.468 335.526L 542.135 335.651C 543.76 332.693 542.968 329.359 543.677 326.234L 543.968 320.443C 543.677 319.193 542.635 318.234 541.343 318.151L 541.052 318.151L 541.885 318.359L 541.593 318.276L 543.302 320.234L 543.177 319.693C 542.843 318.443 541.718 317.568 540.427 317.568L 540.01 318.484C 538.468 317.526 536.843 316.901 535.01 316.693L 533.552 315.818L 534.302 317.151L 533.677 315.443C 533.01 313.901 531.843 312.526 532.218 310.651C 532.302 310.359 532.093 310.026 531.76 309.984C 531.468 309.901 531.177 310.109 531.093 310.401L 531.093 310.401z"/>
<path fill="#01947F" stroke="none" d="M 555.51 302.609C 553.302 306.068 549.635 309.443 551.01 314.026L 551.593 316.401C 551.76 316.693 551.968 316.901 552.177 317.109L 552.218 316.984C 552.718 318.234 553.927 318.776 554.968 319.401L 556.802 319.818L 554.343 317.776L 554.51 318.568L 554.552 316.984L 554.885 316.693C 549.343 320.401 549.802 327.318 553.01 332.318L 552.76 331.859C 552.927 332.734 553.427 333.484 554.218 333.984L 554.718 334.359C 555.093 334.568 555.51 334.734 555.927 334.818L 556.26 334.901L 554.51 333.984L 556.01 335.068C 557.26 335.609 558.552 335.734 559.885 335.443L 561.593 335.109L 558.093 333.651L 558.302 334.068L 557.802 331.484L 557.718 332.026C 552.802 339.068 554.843 347.651 557.385 355.193C 558.26 356.943 560.427 357.693 562.177 356.818C 563.968 355.943 564.677 353.776 563.802 351.984L 564.052 351.568C 561.927 345.943 560.552 339.943 564.052 334.609L 564.427 332.901C 564.635 332.026 564.427 331.068 563.927 330.318L 563.677 329.984C 562.927 328.818 561.51 328.234 560.177 328.526L 556.385 328.776L 559.385 329.651L 559.093 329.401C 558.635 328.943 558.01 328.609 557.343 328.484L 556.968 328.484L 558.177 328.943L 557.593 328.609L 559.052 330.734L 558.052 328.193C 555.677 325.818 555.635 322.776 558.677 320.901L 559.843 318.693C 560.01 318.193 560.052 317.651 559.885 317.151L 559.677 316.359C 559.385 315.234 558.385 314.401 557.218 314.318L 554.635 312.984L 556.177 313.609L 555.593 313.151L 556.51 314.859L 556.093 312.859C 556.135 312.984 556.135 313.068 556.177 313.193C 555.26 309.943 555.885 306.276 556.635 302.984C 556.718 302.693 556.552 302.359 556.26 302.234C 555.927 302.109 555.593 302.276 555.51 302.609L 555.51 302.609z"/>
<path fill="#01947F" stroke="none" d="M 571.843 313.151C 570.635 315.359 570.052 317.776 569.302 320.109L 569.052 321.443C 569.052 322.276 569.552 323.068 570.343 323.443L 570.593 323.568C 570.677 323.776 570.718 323.943 570.802 324.151L 570.26 324.276C 570.343 324.484 570.427 324.693 570.593 324.901L 570.968 325.526L 570.593 323.526L 570.552 323.776C 566.885 327.693 567.343 334.068 571.927 336.984L 572.635 337.526L 572.593 337.443L 573.01 337.901C 573.26 338.151 573.552 338.401 573.927 338.568L 574.26 338.776L 572.427 336.276L 572.468 336.776L 572.427 336.234L 572.427 336.818L 572.968 334.818L 572.802 335.109C 569.427 336.151 566.135 338.693 565.802 342.401L 565.718 343.818C 565.677 344.526 565.885 345.234 566.302 345.859L 567.718 347.526C 569.593 348.859 571.593 350.026 573.26 351.609C 570.677 352.484 571.51 355.984 570.843 358.109C 570.385 359.443 571.927 360.651 573.427 361.609C 575.01 362.901 577.302 362.693 578.593 361.151C 579.927 359.609 579.677 357.276 578.135 355.984C 578.718 357.026 578.76 358.109 578.552 359.234C 580.302 353.859 580.885 346.609 574.968 343.651L 572.26 341.984L 572.802 343.984L 574.302 342.151C 574.218 342.234 574.135 342.276 574.052 342.359C 575.218 341.693 576.385 341.026 577.593 340.401L 578.843 338.651C 579.26 338.068 579.427 337.359 579.427 336.651L 579.385 336.068C 579.385 335.901 579.385 335.693 579.343 335.526L 579.218 335.068C 579.01 333.984 578.343 333.068 577.343 332.609L 576.968 332.443L 577.885 333.068L 577.427 332.651C 576.843 332.068 576.052 331.693 575.177 331.651L 575.885 331.609C 572.51 330.401 574.552 327.151 575.26 324.943L 575.468 324.609C 575.635 323.901 575.468 323.193 575.052 322.609L 574.593 322.026L 575.052 323.359L 572.885 319.943C 573.218 320.151 573.552 320.318 573.885 320.526L 572.177 319.401L 573.468 321.443L 573.468 319.943C 572.01 318.193 572.302 315.568 572.802 313.484C 572.885 313.234 572.76 312.943 572.51 312.859C 572.218 312.776 571.927 312.901 571.843 313.151L 571.843 313.151z"/>
<path fill="#01947F" stroke="none" d="M 584.468 367.943C 585.302 365.401 586.177 363.068 588.343 361.401L 588.927 361.026C 589.843 360.318 590.427 359.276 590.51 358.151L 590.593 357.443C 590.552 357.568 590.51 357.651 590.468 357.776C 591.468 354.984 588.718 352.943 588.76 350.401C 588.802 346.609 590.01 342.276 587.468 338.901L 587.718 337.609L 587.26 340.693L 587.885 339.651C 589.843 336.026 592.093 331.901 590.635 327.693C 590.927 326.443 590.177 325.234 588.927 324.943C 587.718 324.651 586.468 325.401 586.177 326.651C 584.052 329.193 583.052 332.359 581.385 335.109L 580.593 336.526C 580.218 337.151 580.01 337.859 580.01 338.609L 580.135 341.234C 580.302 341.984 580.718 342.609 580.843 343.359C 581.51 347.526 579.677 351.526 581.885 355.609L 582.552 357.443L 583.677 354.984L 582.718 355.984C 580.427 359.818 579.343 364.901 582.885 368.318C 582.968 368.734 583.385 369.026 583.843 368.943C 584.26 368.818 584.552 368.401 584.468 367.943L 584.468 367.943z"/>
</g>
<g>
<path fill="none" stroke-width="4" stroke="#000000" d="M 56.8219 346.589C 50.5985 346.589 43.4861 345.75 39.0408 350.785C 35.4846 354.981 32.8174 360.017 31.9284 365.053C 30.1503 371.767 30.1503 379.32 31.9284 386.034C 32.8174 389.391 34.5955 392.748 37.2627 394.427C 45.2642 401.141 59.489 400.302 68.3796 396.105C 82.6044 390.231 83.4935 373.445 79.9373 360.856C 78.1592 352.464 68.3796 349.107 59.489 347.428"/>
<path fill="none" stroke-width="4" stroke="#000000" d="M 49.7094 400.302C 48.8204 416.248 49.7094 433.033 53.2657 448.979"/>
<path fill="none" stroke-width="4" stroke="#000000" d="M 23.9269 485.067C 34.5955 474.157 40.8189 460.729 53.2657 451.497C 55.243 450.03 59.489 450.658 62.1562 451.497C 69.2686 455.693 76.381 459.889 85.2716 462.407C 87.0497 463.247 89.7169 463.247 89.7169 465.764"/>
<path fill="none" stroke-width="4" stroke="#000000" d="M 50.5985 409.534C 63.0452 405.337 76.381 401.98 87.9387 395.266"/>
<path fill="none" stroke-width="4" stroke="#000000" d="M 26.5941 427.158C 31.9284 422.123 40.8189 422.962 47.0423 419.605"/>
<path fill="none" stroke-width="3" stroke="#000000" d="M 62.1562 365.053C 61.2167 362.392 61.782 358.593 64.0454 357.289C 66.0657 356.126 69.7384 357.301 70.1577 357.499C 71.0467 357.919 70.4911 359.912 70.1577 360.856C 69.8243 361.8 68.0462 362.535 67.3794 361.905C 66.7126 361.276 67.6016 357.185 67.6016 357.185"/>
<path fill="none" stroke-width="4" stroke="#000000" d="M 75.492 376.802C 68.3796 380.999 52.3766 386.034 52.3766 386.034C 52.3766 386.034 58.6 391.909 63.0452 390.231C 66.6015 388.552 67.4905 385.195 69.2686 381.838"/>
<path fill="none" stroke-width="4" stroke="#000000" d="M 39.0408 350.785L 39.0408 350.785C 33.7065 349.946 39.0408 350.785 39.0408 350.785C 36.3736 348.267 31.9284 348.267 29.2612 349.946C 25.705 350.785 27.4831 355.821 26.5941 359.178C 25.705 360.017 24.816 361.696 23.0378 360.856C 21.2597 359.178 21.2597 356.66 21.2597 354.142"/>
<path fill="none" stroke-width="4" stroke="#000000" d="M 46.1532 345.75C 46.1532 344.071 45.2642 343.232 44.3751 342.393C 39.0408 340.714 32.8174 342.393 26.5941 340.714C 26.5941 340.714 26.5941 338.196 26.5941 337.357C 29.2612 336.518 31.9284 337.357 34.5955 337.357"/>
<path fill="none" stroke-width="4" stroke="#000000" d="M 30.2985 368.829C 29.4094 368.829 28.8167 366.731 25.705 369.249C 22.5933 371.767 27.0386 381.838 25.705 383.516C 24.3714 385.195 23.1119 383.936 22.2229 383.936C 22.2229 383.936 20.9634 381.908 20.9634 381.069"/>
<path fill="none" stroke-width="4" stroke="#000000" d="M 53.2657 346.589C 55.0438 343.232 61.2671 339.035 56.8219 337.357C 48.8204 335.678 45.2642 328.964 48.8204 324.768C 51.4876 320.572 63.0452 325.607 60.3781 317.215"/>
<path fill="none" stroke-width="3" stroke="#000000" d="M 46.1532 370.927C 45.2075 367.803 46.4934 362.434 49.7094 361.486C 53.2657 360.437 56.5097 362.24 56.8219 362.535C 57.4887 363.164 56.933 363.899 56.8219 365.053C 56.7107 366.207 54.377 367.466 53.9325 366.521C 53.4879 365.577 54.0436 361.905 54.0436 361.905"/>
<path fill="none" stroke-width="4" stroke="#000000" d="M 67.4905 348.267C 67.9351 346.589 66.6015 344.491 67.9351 344.071C 70.1577 343.232 73.7139 344.071 75.9365 343.232C 76.381 343.232 76.8256 341.134 76.381 340.294C 75.0475 339.035 72.3803 339.035 71.9358 337.357C 71.0467 335.259 70.6022 331.902 71.9358 330.643C 73.2694 329.384 76.381 329.384 78.6037 330.643C 79.9373 331.482 80.8263 331.902 82.1599 331.482C 83.938 330.643 84.3825 328.545 83.938 326.866"/>
<path fill="none" stroke-width="4" stroke="#000000" d="M 78.6037 354.981C 77.7146 351.624 82.1599 351.624 84.3825 352.464C 86.1606 353.303 89.7169 354.142 90.1614 352.044C 91.0504 350.366 91.495 348.267 90.1614 347.008C 89.2723 346.589 87.9387 346.169 87.4942 345.33C 87.0497 344.071 87.4942 342.393 87.4942 341.134C 87.4942 341.134 87.9387 341.134 88.3833 341.134"/>
<path fill="none" stroke-width="4" stroke="#000000" d="M 363.968 103.463C 361.968 127.463 357.968 127.963 353.968 151.963"/>
<path fill="none" stroke-width="4" stroke="#000000" d="M 407.968 189.463C 409.968 191.463 403.968 193.463 405.968 195.463C 385.968 181.463 354.468 149.963 354.468 149.963L 315.968 195.963C 315.968 195.963 313.968 193.463 305.968 191.463"/>
<path fill="none" stroke-width="4" stroke="#000000" d="M 311.968 99.4634C 310.105 111.575 327.027 118.134 327.027 118.134C 327.027 118.134 352.922 117.963 361.468 117.963"/>
<path fill="none" stroke-width="4" stroke="#000000" d="M 363.968 113.463C 377.968 113.463 406.468 111.963 406.468 111.963C 406.468 111.963 419.468 92.4634 419.968 84.4634"/>
<path fill="none" stroke-width="4" stroke="#000000" d="M 345.468 79.9634C 350.468 79.9634 359.468 81.4634 367.968 81.9634C 376.468 82.4634 386.968 80.9634 390.468 80.4634C 390.468 86.4634 377.468 95.4634 366.968 94.9634C 356.468 94.4634 345.468 85.9634 345.468 79.9634z"/>
<path fill="none" stroke-width="4" stroke="#000000" d="M 348.468 67.9634C 348.468 67.9634 349.968 60.9634 354.468 60.9634C 358.968 60.9634 361.468 66.9634 361.468 66.9634"/>
<path fill="none" stroke-width="4" stroke="#000000" d="M 385.473 67.8384C 385.473 67.8384 383.973 60.8384 379.473 60.8384C 374.973 60.8384 372.473 66.8384 372.473 66.8384"/>
<path fill="none" stroke-width="4" stroke="#000000" d="M 309.968 68.4634C 309.468 64.9634 313.468 62.9634 315.968 64.4634C 316.468 64.4634 316.468 66.9634 317.468 67.4634C 318.968 67.9634 320.968 68.4634 322.468 67.9634C 323.968 66.9634 324.468 64.4634 325.968 63.4634C 327.468 62.9634 329.468 62.9634 329.968 63.9634C 331.468 64.9634 329.968 67.4634 331.968 68.4634C 333.968 69.4634 336.968 69.9634 338.968 67.4634"/>
<path fill="none" stroke-width="4" stroke="#000000" d="M 310.968 48.9634C 312.468 48.9634 314.968 47.4634 315.468 48.4634C 316.468 49.9634 315.468 52.4634 315.968 53.9634C 316.968 55.9634 320.468 55.4634 321.468 54.4634C 324.968 52.4634 325.968 46.9634 329.968 49.4634C 331.968 50.4634 329.968 54.9634 331.968 55.9634C 334.468 57.9634 338.468 56.9634 341.968 56.9634"/>
<path fill="none" stroke-width="4" stroke="#000000" d="M 333.968 30.4634C 332.968 32.4634 333.468 34.4634 333.468 36.4634C 336.468 36.4634 340.468 35.4634 341.968 36.9634C 343.968 38.4634 341.468 42.4634 341.468 45.4634C 343.968 45.4634 346.968 44.4634 349.468 45.9634C 349.968 46.4634 349.468 48.4634 349.468 49.9634"/>
<path fill="none" stroke-width="4" stroke="#000000" d="M 360.468 48.9634C 362.968 46.9634 366.468 43.9634 364.468 40.4634C 364.468 39.9634 362.468 39.4634 361.468 38.9634C 359.968 37.4634 360.468 33.9634 361.968 33.4634C 364.468 31.9634 367.968 32.9634 369.468 30.9634C 370.468 30.4634 370.468 27.4634 369.468 26.9634C 368.468 25.9634 365.468 26.9634 363.468 25.9634C 361.968 24.9634 361.468 22.9634 361.968 20.9634"/>
<path fill="none" stroke-width="4" stroke="#000000" d="M 374.968 48.9634C 374.968 46.9634 373.968 44.4634 375.468 43.4634C 377.468 41.9634 380.468 42.4634 381.968 40.4634C 382.968 37.9634 380.968 37.4634 379.468 35.9634C 378.468 34.4634 378.468 32.4634 379.468 30.9634C 380.468 29.9634 383.968 30.9634 384.468 29.4634C 386.468 25.9634 381.468 23.9634 379.968 20.9634"/>
<path fill="none" stroke-width="4" stroke="#000000" d="M 387.968 53.9634C 386.968 50.9634 391.468 49.9634 392.968 48.9634C 395.968 46.9634 394.968 41.9634 394.968 38.4634C 397.468 38.4634 400.968 39.4634 402.468 37.9634C 403.968 36.9634 401.968 32.4634 403.968 31.4634C 406.968 29.4634 415.968 34.4634 416.468 27.9634"/>
<path fill="none" stroke-width="4" stroke="#000000" d="M 391.968 60.4634C 395.468 55.4634 401.968 58.4634 406.968 57.9634C 406.468 53.9634 408.968 50.9634 411.968 49.4634C 413.968 47.9634 416.468 49.4634 418.468 50.9634C 420.468 52.9634 423.468 50.9634 423.468 47.4634"/>
<path fill="none" stroke-width="4" stroke="#000000" d="M 395.468 70.4634C 395.468 69.4634 402.968 67.4634 402.968 67.4634C 407.468 66.9634 406.468 74.4634 409.968 71.9634C 411.968 70.4634 413.468 64.9634 416.468 66.9634C 417.468 67.4634 416.468 69.9634 417.968 70.9634C 419.468 71.4634 421.468 70.9634 422.968 70.9634"/>
<path fill="none" stroke-width="4" stroke="#000000" d="M 334.755 74.2744C 335.038 75.3373 335.884 81.0173 336.302 82.1301C 339.302 90.1301 344.302 95.7967 351.468 98.9634C 359.65 102.578 377.968 103.463 381.968 99.4634C 389.968 95.4634 393.968 87.4634 397.968 79.4634C 398.832 76.0079 399.323 72.1791 399.279 68.4609"/>
<path fill="none" stroke-width="4" stroke="#000000" d="M 398.87 63.4789C 398.553 61.5129 398.047 59.6504 397.323 57.976"/>
<path fill="none" stroke-width="4" stroke="#000000" d="M 394.938 53.817C 393.63 51.8215 392.371 50.2679 391.06 49.0341"/>
<path fill="none" stroke-width="4" stroke="#000000" d="M 385.096 45.4355C 382.755 44.5994 380.03 44.0696 376.63 43.4915"/>
<path fill="none" stroke-width="4" stroke="#000000" d="M 370.915 42.6047C 369.375 42.4271 367.766 42.3097 366.126 42.2664"/>
<path fill="none" stroke-width="4" stroke="#000000" d="M 358.328 42.6624C 354.93 43.1238 351.658 43.9952 348.851 45.3995"/>
<path fill="none" stroke-width="4" stroke="#000000" d="M 342.968 50.1301C 341.67 52.727 338.922 54.8665 337.968 57.4634"/>
<path fill="none" stroke-width="4" stroke="#000000" d="M 335.971 61.2542C 335.014 63.86 334.351 66.4658 334.224 69.0717"/>
<path fill="none" stroke-width="4" stroke="#000000" d="M 581.927 365.068C 571.927 357.068 553.927 351.068 542.427 357.568C 530.927 364.068 535.927 373.068 539.927 385.068C 547.927 401.068 570.427 408.068 582.927 402.068C 595.427 396.068 588.927 378.068 584.927 368.068"/>
<path fill="none" stroke-width="4" stroke="#000000" d="M 559.427 401.068C 555.427 416.068 546.927 448.068 546.927 448.068C 546.927 448.068 569.927 475.568 571.927 501.068C 571.927 501.068 574.927 501.068 575.927 501.068"/>
<path fill="none" stroke-width="4" stroke="#000000" d="M 546.927 448.068C 534.427 438.068 538.927 444.068 526.927 435.068C 526.927 435.068 528.927 456.068 527.427 470.568"/>
<path fill="none" stroke-width="4" stroke="#000000" d="M 555.927 415.568C 555.927 415.568 540.335 403.265 534.927 405.068C 528.927 407.068 522.427 415.568 522.427 415.568"/>
<path fill="none" stroke-width="4" stroke="#000000" d="M 558.927 411.568C 558.927 411.568 565.427 411.068 573.927 412.568C 582.427 414.068 588.927 422.568 588.927 422.568"/>
<path fill="none" stroke-width="4" stroke="#000000" d="M 553.927 367.068C 553.927 368.068 553.927 370.068 553.927 371.068"/>
<path fill="none" stroke-width="4" stroke="#000000" d="M 574.927 369.068C 574.927 371.068 574.927 372.068 574.927 374.068"/>
<path fill="none" stroke-width="4" stroke="#000000" d="M 554.927 385.068C 564.093 374.068 571.427 381.568 575.427 383.568C 578.427 385.568 576.927 391.068 576.927 392.068C 573.927 393.068 568.927 387.568 565.927 389.568C 563.927 391.568 561.927 391.568 558.927 393.568C 557.927 393.568 554.427 393.568 553.427 393.568C 552.427 392.568 554.927 385.068 554.927 385.068z"/>
<path fill="none" stroke-width="4" stroke="#000000" d="M 539.927 359.068C 537.927 359.068 535.427 359.568 534.927 358.068C 533.927 356.068 533.927 353.568 535.427 351.568C 535.927 350.068 535.927 347.068 534.927 346.568C 533.427 345.068 529.927 346.068 528.927 344.068C 526.927 342.068 526.427 338.568 528.927 336.068C 530.427 334.068 529.927 330.568 528.927 329.068C 527.927 327.568 523.927 326.068 524.427 323.068"/>
<path fill="none" stroke-width="4" stroke="#000000" d="M 552.927 355.068C 549.427 354.068 546.427 350.568 548.427 348.068C 550.427 345.068 552.927 341.068 550.427 338.568C 548.927 337.068 545.927 336.568 544.427 334.568C 542.927 332.068 543.427 328.568 544.427 326.068C 544.927 324.068 546.427 321.068 544.927 320.068C 542.427 316.568 537.927 315.068 535.427 311.568C 534.427 309.568 536.927 310.068 537.927 309.068"/>
<path fill="none" stroke-width="4" stroke="#000000" d="M 564.927 355.568C 570.427 350.568 560.927 349.068 560.427 343.568C 559.927 338.068 566.927 334.568 564.927 329.568C 562.927 324.568 559.427 330.568 557.927 328.568C 556.427 326.568 555.927 323.068 557.427 322.068C 559.927 319.068 563.427 316.068 561.427 312.568C 561.427 312.568 558.927 312.568 557.927 312.068C 556.427 311.068 554.927 308.568 556.427 306.568C 556.427 306.568 556.927 306.568 557.427 306.568"/>
<path fill="none" stroke-width="4" stroke="#000000" d="M 576.427 360.568C 576.427 358.068 574.927 356.568 576.927 355.068C 577.427 354.068 582.927 353.568 581.927 348.568C 581.307 345.467 572.634 348.724 571.927 343.068C 571.427 339.068 578.427 339.068 580.427 337.068C 580.927 336.068 580.927 334.068 580.427 334.068C 576.927 332.068 573.927 329.568 575.927 326.068C 576.427 325.068 577.927 324.068 578.927 323.068C 579.427 322.068 579.427 320.568 578.927 319.568C 577.927 319.068 575.927 320.068 575.427 318.568C 574.927 316.568 574.427 314.568 575.927 313.068"/>
<path fill="none" stroke-width="4" stroke="#000000" d="M 590.927 354.568C 590.927 353.568 587.927 352.568 587.927 351.568C 588.427 351.568 590.927 347.068 590.927 346.568C 591.427 343.568 586.427 344.568 585.427 342.068C 583.927 337.568 588.927 336.568 588.427 331.568"/>
<path fill="none" stroke-width="4" stroke="#000000" d="M 535.427 374.068C 533.927 372.068 531.427 372.568 529.927 371.068C 529.427 370.068 530.427 367.568 529.927 367.068C 527.427 365.568 523.427 367.568 522.427 365.568C 520.927 361.568 523.427 356.068 521.927 352.568C 521.427 351.068 516.927 353.068 515.927 352.068C 513.427 349.068 514.427 344.068 514.427 340.068"/>
<path fill="none" stroke-width="3" stroke="#000000" d="M 150.927 612.068"/>
</g>
<g>
<path fill="#DDB7A5" stroke="none" d="M 403.927 583.068L 392.927 608.568L 391.927 634.068L 396.427 669.568L 418.927 690.068L 466.927 704.568C 466.927 704.568 503.927 702.568 509.927 700.068C 515.927 697.568 533.927 683.068 536.427 674.568C 538.927 666.068 544.927 638.068 544.927 638.068L 539.927 591.068L 465.927 566.068L 403.927 583.068z"/>
<path fill="#FFFF00" stroke="none" d="M 459.427 573.568C 459.427 573.568 457.927 592.568 461.927 595.068C 465.927 597.568 481.927 589.568 483.927 591.568C 485.927 593.568 479.427 607.068 482.427 609.068C 485.427 611.068 503.927 611.568 503.927 611.568C 503.927 611.568 500.927 625.068 502.927 628.068C 504.927 631.068 519.427 633.568 520.427 636.068C 521.427 638.568 525.427 640.068 525.427 640.068L 532.927 641.068L 543.427 645.568L 538.927 668.568L 528.927 685.068L 529.927 701.068L 536.427 708.568L 529.927 709.568L 534.427 717.568L 547.927 714.568L 561.427 716.068L 575.427 722.568L 566.427 705.068L 583.927 705.068L 590.427 697.068L 592.427 681.568L 583.427 679.068L 582.927 671.068L 586.927 664.568L 582.927 658.068L 568.427 655.068L 565.927 648.568L 576.427 635.068L 557.927 623.068L 548.427 610.568L 544.427 607.568L 526.927 622.568L 517.427 617.068L 518.927 602.568L 543.927 596.068L 533.427 576.568L 516.427 567.068L 509.927 557.568L 484.427 562.068L 466.927 564.568L 459.427 573.568z"/>
<path fill="#FFFF00" stroke="none" d="M 409.427 574.568L 427.427 584.568L 425.927 600.068L 411.427 602.068L 402.427 605.068L 405.427 621.568L 398.927 627.568L 388.427 626.568L 377.427 628.568L 378.927 648.068L 371.927 650.568L 357.427 645.568L 351.427 653.068L 353.927 663.568L 347.427 651.068C 347.427 651.068 348.427 643.068 354.927 641.068C 361.427 639.068 366.927 641.068 369.427 639.068C 371.927 637.068 367.927 623.068 370.927 621.068C 373.927 619.068 389.427 612.568 389.427 612.568L 396.427 594.568L 409.427 574.568z"/>
<path fill="#FF0000" stroke="none" d="M 410.427 605.068L 437.427 633.068L 464.927 625.068L 496.427 613.568L 494.927 627.568L 499.427 633.568L 508.427 637.568L 503.427 640.568L 471.927 658.568L 444.927 670.068L 434.427 667.068L 411.427 649.068L 397.427 627.568L 404.927 623.068L 401.427 606.568L 406.427 603.068L 410.427 605.068z"/>
<path fill="#FFFF00" stroke="none" d="M 492.427 610.068L 497.427 615.068C 497.427 615.068 494.927 620.568 495.927 625.568C 496.927 630.568 496.927 633.068 500.927 634.068C 504.927 635.068 511.927 636.068 513.427 636.068C 514.927 636.068 520.427 636.068 520.427 636.068L 505.927 612.068L 492.427 610.068z"/>
<path fill="#FF0000" stroke="none" d="M 503.927 611.568L 509.927 609.068C 509.927 609.068 508.927 613.568 510.927 619.068C 512.927 624.568 516.427 627.068 519.427 628.568C 522.427 630.068 518.927 632.068 518.927 632.068L 508.927 631.568L 502.927 626.568L 503.927 611.568z"/>
<path fill="#FF0000" stroke="none" d="M 517.927 627.568L 523.427 628.568L 518.927 632.068L 517.927 627.568z"/>
<path fill="#FF0000" stroke="none" d="M 518.427 604.568C 520.427 604.568 540.927 596.068 540.927 596.068L 543.427 610.568L 526.927 622.568L 519.427 619.568L 517.427 610.568L 518.427 604.568z"/>
<path fill="#FF0000" stroke="none" d="M 543.927 596.068L 557.927 587.568L 570.927 584.568L 574.927 588.068L 568.427 599.068L 564.427 602.068L 554.927 603.068L 567.927 611.068L 575.927 619.568L 564.927 621.568L 556.927 620.568L 548.427 610.568L 544.427 607.568L 543.927 596.068z"/>
<path fill="#FD4027" stroke="none" d="M 480.427 681.068C 480.427 681.068 481.427 690.068 486.927 692.068C 492.427 694.068 497.927 696.568 500.427 694.068C 502.927 691.568 505.927 692.068 505.427 686.568C 504.927 681.068 503.427 671.068 503.427 671.068L 492.427 676.068L 480.427 681.068z"/>
</g>
<g>
<path fill="none" stroke-width="6" stroke="#000000" d="M 390.593 626.401C 390.032 639.261 393.55 651.84 395.864 664.568C 395.864 674.568 403.864 682.568 413.864 688.568C 443.864 706.568 475.864 706.568 507.864 700.568C 519.864 696.568 527.864 684.568 535.864 672.568C 547.864 648.568 545.864 622.568 541.864 596.568C 541.864 584.568 533.864 574.568 523.864 568.568C 515.864 564.568 507.864 566.568 499.864 566.568C 477.504 566.568 452.471 549.968 435.26 555.068C 417.26 560.401 394.3 585.761 390.593 612.401"/>
<path fill="none" stroke-width="6" stroke="#000000" d="M 397.927 627.734C 402.593 644.401 431.128 668.673 443.864 668.568C 456.057 668.466 480.022 655.438 504.13 639.248"/>
<path fill="none" stroke-width="6" stroke="#000000" d="M 512.775 633.313C 515.184 631.624 517.581 629.915 519.953 628.195"/>
<path fill="none" stroke-width="6" stroke="#000000" d="M 525.801 623.9C 533.707 618.015 541.216 612.108 547.864 606.568"/>
<path fill="none" stroke-width="6" stroke="#000000" d="M 509.927 699.068C 513.927 735.068 530.927 771.068 536.927 807.068"/>
<path fill="none" stroke-width="6" stroke="#000000" d="M 382.927 688.067C 385.927 695.067 395.864 704.568 399.864 710.568C 409.864 722.568 483.864 772.568 483.864 772.568L 520.927 752.068"/>
<path fill="none" stroke-width="6" stroke="#000000" d="M 386.927 697.795C 383.946 688.313 415.927 766.068 415.927 766.068C 415.927 766.068 434.927 763.068 448.927 760.068"/>
<path fill="none" stroke-width="6" stroke="#000000" d="M 460.927 757.068C 480.927 751.068 495.864 742.568 515.864 734.568"/>
<path fill="none" stroke-width="6" stroke-linecap="round" stroke="#000000" d="M 408.593 603.068C 408.593 603.068 429.927 629.068 438.927 632.068C 443.121 633.466 465.761 625.851 488.744 617.32"/>
<path fill="none" stroke-width="6" stroke="#000000" d="M 504.452 611.381C 506.51 610.59 508.535 609.808 510.513 609.04"/>
<path fill="none" stroke-width="6" stroke="#000000" d="M 518.254 606.015C 531.95 600.631 541.864 596.568 541.864 596.568"/>
<path fill="none" stroke-width="6" stroke="#000000" d="M 430.593 684.401C 443.593 684.401 465.638 683.222 478.593 679.734C 495.927 675.068 507.26 669.068 511.26 658.401"/>
<path fill="none" stroke-width="6" stroke="#000000" d="M 480.281 681.047C 483.614 693.047 492.773 695.994 499.614 693.713C 505.614 691.713 506.948 684.38 503.614 674.38"/>
<path fill="none" stroke-width="6" stroke="#000000" d="M 490.948 677.047C 490.948 678.047 494.281 684.047 494.281 685.047"/>
<path fill="none" stroke-width="4" stroke="#000000" d="M 474.593 640.401L 492.427 630.568"/>
<path fill="none" stroke-width="4" stroke="#000000" d="M 501.899 625.267L 511.499 619.947"/>
<path fill="none" stroke-width="4" stroke="#000000" d="M 517.764 616.475L 529.927 609.734"/>
<path fill="none" stroke-width="4" stroke="#000000" d="M 543.26 599.068C 547.26 591.068 570.593 581.734 573.26 585.734C 575.416 588.969 570.593 595.734 568.593 599.068C 565.26 604.401 557.26 601.068 551.26 603.068C 550.593 603.734 551.927 605.068 552.593 605.068C 562.593 605.734 571.26 615.068 577.927 621.068C 578.593 621.734 574.593 621.068 573.927 621.068C 568.593 621.734 562.593 623.068 557.26 621.068C 551.26 619.068 550.593 611.068 545.26 607.068"/>
<path fill="none" stroke-width="4" stroke="#000000" d="M 547.26 601.734C 551.26 597.734 557.26 597.734 561.26 593.734"/>
<path fill="none" stroke-width="6" stroke="#000000" d="M 545.927 632.401L 549.26 635.068C 553.26 635.734 556.593 635.734 559.26 637.734C 565.26 643.068 549.26 648.401 549.927 656.401C 549.927 657.068 552.705 663.365 553.26 663.734C 559.26 667.734 560.593 658.401 567.26 663.068C 571.198 665.824 575.26 671.734 573.26 675.068C 571.26 679.068 566.593 675.734 563.26 678.401C 560.593 681.068 559.26 683.068 559.927 686.401C 563.26 695.068 571.927 691.068 578.593 693.734C 578.593 699.068 586.593 703.068 581.26 706.401C 576.593 708.401 569.26 704.401 564.593 706.401C 562.593 707.068 565.26 712.401 565.927 714.401C 568.593 719.068 574.593 723.068 579.26 722.401"/>
<path fill="none" stroke-width="6" stroke="#000000" d="M 459.927 569.068C 459.927 579.068 455.927 591.068 461.927 595.068C 467.927 601.068 475.26 587.068 485.26 593.068C 487.26 595.068 479.26 607.068 483.26 609.068C 485.26 613.068 498.264 604.644 503.26 611.068C 507.927 617.068 499.465 623.341 503.26 628.401C 507.26 633.734 519.927 631.068 521.927 637.068"/>
<path fill="none" stroke-width="6" stroke="#000000" d="M 481.927 580.401C 501.927 577.068 493.26 591.734 495.927 597.068C 498.593 602.401 503.927 597.068 509.927 595.068C 521.927 591.068 515.927 613.068 518.593 617.734C 521.26 622.401 531.927 625.734 533.927 626.401C 539.927 633.734 530.593 635.734 533.927 644.401"/>
<path fill="none" stroke-width="6" stroke="#000000" d="M 556.593 623.068C 558.656 631.568 569.633 627.886 573.26 633.068C 577.927 639.734 564.843 647.357 566.593 651.734C 569.26 658.401 582.593 653.734 585.927 662.401C 588.887 670.097 577.927 672.401 583.927 679.734C 587.927 686.401 588.61 677.992 591.26 683.734C 595.26 692.401 587.927 697.068 587.927 701.068"/>
<path fill="none" stroke-width="6" stroke="#000000" d="M 445.927 567.068C 441.927 567.068 439.927 571.068 439.927 575.068C 435.927 575.068 427.927 573.068 425.927 577.068C 423.927 585.068 429.927 597.068 423.927 601.068C 415.927 605.068 405.26 600.401 401.927 605.068C 398.593 609.734 409.927 621.068 401.927 625.068C 395.927 629.068 385.927 624.401 377.927 628.401C 373.927 632.401 382.593 645.068 377.26 649.068C 371.927 653.068 361.927 641.734 354.593 647.734C 347.26 653.734 355.927 662.401 353.26 666.401C 350.593 670.401 339.927 667.068 335.927 667.068"/>
<path fill="none" stroke-width="6" stroke-linecap="round" stroke="#000000" d="M 539.927 667.068C 539.927 669.068 538.927 672.068 539.927 674.068C 541.927 675.068 544.927 673.068 546.927 674.068C 547.927 676.068 548.927 680.068 547.927 682.068C 542.927 686.068 540.927 693.068 543.927 696.068C 544.927 698.068 549.927 697.068 553.927 697.068C 553.927 700.068 555.927 705.068 552.927 706.068C 547.927 708.068 548.927 713.068 548.927 716.068"/>
<path fill="none" stroke-width="6" stroke-linecap="round" stroke="#000000" d="M 532.927 685.068C 528.927 690.068 529.927 696.068 529.927 702.068C 532.927 701.068 534.927 703.068 535.927 705.068C 536.927 707.068 536.927 710.068 535.927 711.068C 533.927 712.068 530.927 710.068 528.927 711.068C 528.927 711.068 528.927 713.068 528.927 714.068"/>
</g>
<g>
<path fill="#13017C" stroke="none" d="M 400.927 482.568C 400.927 482.568 415.927 500.568 416.927 511.568C 417.927 522.568 415.927 544.568 414.927 551.568C 413.927 558.568 410.927 569.568 410.927 569.568L 427.927 585.568L 442.927 585.568L 469.927 562.568L 487.927 550.568L 499.927 550.568L 495.927 517.568L 512.927 486.568L 480.927 476.568L 439.927 475.568L 400.927 482.568z"/>
<path fill="#13017C" stroke="none" d="M 401.427 557.568L 413.427 558.068L 411.927 572.568L 397.427 562.068L 401.427 557.568z"/>
<path fill="#01A0C6" stroke="none" d="M 498.927 483.568C 498.927 483.568 491.927 490.068 489.427 505.068C 486.927 520.068 486.427 524.568 487.927 532.568C 489.427 540.568 490.927 550.068 490.927 550.068L 479.427 551.568C 479.427 551.568 475.427 536.068 475.927 521.068C 476.427 506.068 480.927 496.568 482.427 491.068C 483.927 485.568 486.927 478.568 486.927 478.568L 498.927 483.568z"/>
<path fill="#0E015D" stroke="none" d="M 467.927 565.568L 481.427 552.568L 493.927 549.568L 510.927 556.568L 499.927 557.568L 483.427 561.568L 467.927 565.568z"/>
<path fill="#0E015D" stroke="none" d="M 465.927 553.234"/>
<path fill="#FFFFFF" stroke="none" d="M 458.927 554.068L 449.427 525.568L 460.427 522.068L 463.927 516.068L 475.427 519.568L 484.927 522.568L 490.927 525.568L 489.427 533.568L 483.427 549.568L 458.927 554.068z"/>
<path fill="#482F93" stroke="none" d="M 414.927 551.568L 414.427 566.068L 430.427 574.568L 454.927 576.568L 465.427 565.068L 480.927 550.568L 452.927 555.568L 430.927 556.568L 414.927 551.568z"/>
<path fill="none" stroke-width="6" stroke="#81027E" d="M 415.427 481.068C 415.427 481.068 423.927 489.068 426.927 499.068C 429.927 509.068 430.874 523.018 430.427 531.068C 429.927 540.068 428.427 554.568 428.427 554.568"/>
<path fill="none" stroke-width="6" stroke="#9E3999" d="M 425.927 556.568L 423.927 571.568"/>
<path fill="none" stroke-width="6" stroke="#482F93" d="M 404.427 484.568C 404.427 484.568 425.9 478.79 434.927 478.068C 447.427 477.068 458.927 478.068 469.427 479.068C 477.529 479.839 486.463 481.697 493.427 482.568C 501.427 483.568 508.927 486.068 508.927 486.068"/>
<path fill="#13017C" stroke="none" d="M 401.427 557.568L 413.427 558.068L 414.427 568.068L 426.427 574.068L 454.927 576.568L 447.427 584.068L 435.927 587.568L 420.427 582.068L 407.427 571.568L 398.927 562.068L 401.427 557.568z"/>
<path fill="#FF0000" stroke="none" d="M 467.302 535.443L 461.968 545.443L 471.635 554.776L 476.635 543.776L 467.302 535.443z"/>
<path fill="#FF0000" stroke="none" d="M 460.927 527.693L 459.677 531.693L 463.177 534.318L 464.177 530.693L 460.927 527.693z"/>
<path fill="none" stroke-width="1" stroke="#FF0000" d="M 456.593 535.734L 456.26 529.068L 459.593 535.068L 458.302 532.568L 456.552 533.193"/>
</g>
<g>
<path fill="none" stroke-width="6" stroke="#000000" stroke-linejoin="bevel" d="M 499.927 550.568C 499.927 550.568 495.927 532.568 496.927 519.568C 497.927 506.568 513.927 484.568 513.927 484.568C 513.927 484.568 480.927 476.568 458.927 474.568C 436.927 472.568 398.927 483.568 398.927 483.568C 398.927 483.568 414.927 499.568 416.927 515.568C 418.927 531.568 412.927 566.568 412.927 566.568C 412.927 566.568 419.427 573.068 430.427 574.568C 441.427 576.068 454.427 576.568 454.427 576.568"/>
<path fill="none" stroke-width="6" stroke="#000000" d="M 416.927 552.568C 416.927 552.568 421.927 556.568 437.927 556.568C 453.927 556.568 480.927 551.568 480.927 551.568"/>
<path fill="none" stroke-width="6" stroke="#000000" d="M 411.989 558.068C 411.989 558.068 403.989 555.068 399.989 557.068C 395.989 559.068 399.989 564.068 399.989 564.068C 399.989 564.068 422.989 587.068 437.989 587.068C 452.989 587.068 470.989 552.068 488.989 551.068C 506.989 550.068 528.989 570.068 528.989 570.068"/>
<path fill="none" stroke-width="6" stroke="#000000" d="M 463.927 568.568C 463.927 568.568 477.927 563.568 486.927 560.568C 495.927 557.568 509.927 557.568 509.927 557.568"/>
<path fill="none" stroke-width="4" stroke="#000000" d="M 459.593 553.568L 449.593 529.234C 449.593 529.234 448.927 527.234 449.593 525.568C 450.26 523.901 451.593 524.568 451.593 524.568L 471.593 520.234C 471.593 520.234 472.927 519.568 474.26 520.234C 475.593 520.901 476.26 522.568 476.26 522.568L 484.593 550.234"/>
<path fill="none" stroke-width="4" stroke="#000000" d="M 460.26 523.401C 460.26 523.401 461.593 518.068 463.427 517.234C 464.974 516.531 465.739 517.359 465.739 517.359L 482.573 521.526C 482.573 521.526 483.55 521.607 484.593 523.068C 485.427 524.234 484.927 525.734 484.927 525.734L 482.093 539.568"/>
<path fill="none" stroke-width="4" stroke="#000000" d="M 486.26 523.901L 490.093 525.234C 490.093 525.234 491.26 526.401 491.427 527.234C 491.593 528.068 491.26 529.234 491.26 529.234L 485.26 549.234"/>
</g>
<g>
<path fill="none" stroke-width="8" stroke="#13017C" d="M 140.368 56.0776L 69.5668 126.803"/>
<path fill="none" stroke-width="8" stroke="#13017C" d="M 69.5668 56.0776L 140.368 126.803"/>
</g>



	


</svg>