<svg xmlns="http://www.w3.org/2000/svg"
	xmlns:xlink="http://www.w3.org/1999/xlink"
	viewBox="22.0 5.9 577 792"
	width="630.45" height="829.372">
<g>
<path fill="#bfffff" stroke="none" d="M 598.963 797.927L 598.963 5.92657L 21.9634 5.92657L 21.9634 797.927L 598.963 797.927z"/>
</g>
<g>
<path fill="#7fbf7f" stroke="none" d="M 21.6926 367.677C 43.6926 373.677 64.8176 369.927 86.8176 373.927C 126.818 371.927 166.818 359.927 204.818 345.927C 250.818 329.927 294.818 319.927 342.818 309.927C 354.818 307.927 364.818 301.927 376.818 299.927C 450.818 283.927 520.818 275.927 592.818 277.927L 598.818 285.927L 598.984 797.927L 21.9009 797.927L 21.6926 367.677z"/>
<path fill="#7fffbf" stroke="none" d="M 199.318 797.927C 199.318 797.927 197.318 742.927 241.318 722.927C 269.583 710.079 349.318 672.927 367.318 624.927C 385.318 576.927 451.318 536.927 491.318 524.927C 531.318 512.927 598.818 518.677 598.818 518.677L 598.984 797.927L 199.318 797.927z"/>
<path fill="#3f9f3f" stroke-width="4" stroke="#007f00" d="M 77.3384 342.177C 76.4634 359.177 78.5884 376.677 72.7134 393.302C 71.3384 397.552 75.5884 401.802 72.5884 405.927C 72.5884 413.177 78.5884 419.177 85.8384 419.177C 93.0884 419.177 99.0884 413.177 99.0884 405.927L 96.2134 404.677C 100.088 400.677 98.3384 395.552 94.8384 389.802C 85.8384 375.302 85.7134 358.177 83.2134 341.677C 83.0884 340.052 81.5884 338.802 79.9634 338.927C 78.3384 339.052 77.2134 340.552 77.3384 342.177L 77.3384 342.177z"/>
<path fill="#3f9f3f" stroke-width="4" stroke="#007f00" d="M 119.963 300.677C 113.588 333.177 113.713 367.052 119.088 399.802C 119.213 406.802 124.963 412.427 131.963 412.427C 138.963 412.302 144.588 406.552 144.588 399.552L 141.963 398.302C 142.713 396.677 144.213 394.927 143.838 393.552C 137.338 361.177 132.088 331.302 123.713 300.677C 123.713 299.677 122.838 298.802 121.838 298.802C 120.838 298.802 119.963 299.677 119.963 300.677L 119.963 300.677z"/>
<path fill="none" stroke-width="6" stroke="#00ff7f" d="M 599.005 518.093C 599.005 518.093 531.005 511.76 491.005 523.76C 451.005 535.76 385.005 575.76 367.005 623.76C 349.005 671.76 269.27 708.912 241.005 721.76C 197.005 741.76 199.005 797.76 199.005 797.76"/>
<path fill="#bfbf7f" stroke-width="4" stroke="#7f7f00" d="M 579.901 342.739C 574.838 355.052 577.713 367.864 578.213 380.552C 578.213 382.052 579.463 383.302 580.963 383.302C 582.463 383.302 583.713 382.052 583.713 380.552L 583.276 380.302C 583.901 377.739 584.026 375.114 583.401 372.552C 581.026 362.552 582.651 353.052 582.151 343.177C 582.276 342.489 581.838 341.864 581.213 341.739C 580.526 341.614 579.901 342.052 579.776 342.677L 579.901 342.739z"/>
<path fill="#bfbf7f" stroke-width="4" stroke="#7f7f00" d="M 532.838 363.302C 532.026 378.489 533.901 393.739 532.963 408.927C 532.963 410.552 534.338 411.927 535.963 411.927C 537.588 411.927 538.963 410.552 538.963 408.927C 539.838 393.552 537.151 378.489 535.088 363.302C 535.088 362.739 534.588 362.239 533.963 362.239C 533.338 362.239 532.838 362.739 532.838 363.302L 532.838 363.302z"/>
<path fill="#bfbf7f" stroke-width="4" stroke="#7f7f00" d="M 479.338 359.927C 477.338 366.864 476.463 374.302 477.963 381.489C 475.588 386.177 473.276 390.989 472.713 396.302C 472.651 398.052 473.963 399.614 475.776 399.739C 477.526 399.802 479.088 398.489 479.213 396.677C 479.338 392.177 482.088 388.489 482.838 384.114C 484.213 376.052 481.776 368.302 481.776 360.364C 481.901 359.677 481.463 359.052 480.776 358.927C 480.088 358.802 479.463 359.239 479.338 359.927L 479.338 359.927z"/>
<path fill="#bfbf7f" stroke-width="4" stroke="#7f7f00" d="M 433.776 373.552C 432.713 386.239 431.838 399.552 434.213 411.989C 434.838 413.552 436.588 414.239 438.088 413.614C 439.651 412.989 440.338 411.239 439.713 409.677C 438.588 397.614 437.526 385.552 436.151 373.552C 436.151 372.864 435.651 372.364 434.963 372.364C 434.276 372.364 433.776 372.864 433.776 373.552L 433.776 373.552z"/>
<path fill="#bfbf7f" stroke-width="4" stroke="#7f7f00" d="M 389.776 377.927C 389.151 389.427 393.026 400.677 391.651 412.239C 391.213 413.489 391.963 414.864 393.276 415.239C 394.526 415.677 395.901 414.927 396.276 413.614C 400.651 401.927 393.276 389.739 392.151 377.927C 392.151 377.302 391.588 376.739 390.963 376.739C 390.338 376.739 389.776 377.302 389.776 377.927L 389.776 377.927z"/>
<path fill="#bfbf7f" stroke-width="4" stroke="#7f7f00" d="M 340.776 385.739C 340.088 390.364 338.838 394.864 338.276 399.489L 339.213 402.489L 339.088 400.802L 338.901 401.552C 337.651 404.177 338.651 406.864 338.963 409.489C 339.026 410.302 337.838 411.114 337.838 411.927C 337.901 417.614 337.901 423.302 339.026 428.927C 339.026 430.552 340.401 431.802 342.026 431.802C 343.651 431.739 344.963 430.364 344.901 428.739C 343.901 423.489 342.776 417.989 344.026 412.927C 344.901 409.427 343.276 406.489 344.088 403.177L 344.401 401.989C 344.526 401.427 344.526 400.864 344.276 400.364L 343.776 397.614C 343.713 397.677 343.713 397.677 343.651 397.739C 344.963 393.739 343.963 389.677 343.151 385.739C 343.151 385.052 342.588 384.552 341.963 384.552C 341.338 384.552 340.776 385.052 340.776 385.739L 340.776 385.739z"/>
<path fill="#bfbf7f" stroke-width="4" stroke="#7f7f00" d="M 288.213 387.552C 290.463 400.114 292.088 412.864 291.838 425.677C 291.838 427.427 293.276 428.802 294.963 428.802C 296.651 428.802 298.088 427.427 298.088 425.677L 297.338 425.927C 298.463 412.739 297.526 398.427 290.526 387.114C 290.401 386.427 289.776 386.052 289.151 386.177C 288.463 386.302 288.088 386.927 288.213 387.552L 288.213 387.552z"/>
<path fill="#bfbf7f" stroke-width="4" stroke="#7f7f00" d="M 253.651 401.302C 253.463 408.802 252.713 416.239 252.901 423.739L 252.838 423.927C 252.838 425.677 254.213 427.052 255.963 427.052C 257.713 427.052 259.088 425.677 259.088 423.927L 259.088 422.614C 259.151 411.802 259.276 401.052 258.026 390.302C 258.026 388.614 256.651 387.302 254.963 387.302C 253.276 387.302 251.901 388.677 251.901 390.364L 252.338 390.364C 252.651 400.614 253.088 410.864 252.838 421.114L 252.838 423.927C 252.838 425.677 254.213 427.052 255.963 427.052C 257.713 427.052 259.088 425.677 259.088 423.927L 259.088 422.302C 256.026 415.677 256.713 408.489 256.276 401.302C 256.276 400.614 255.713 399.989 254.963 399.989C 254.213 399.989 253.651 400.614 253.651 401.302L 253.651 401.302z"/>
<path fill="#bfbf7f" stroke-width="4" stroke="#7f7f00" d="M 219.838 399.927C 219.651 412.364 220.713 424.677 221.401 437.052C 221.526 438.489 222.713 439.552 224.088 439.489C 225.526 439.364 226.588 438.177 226.526 436.802C 226.651 424.302 224.151 412.177 222.088 399.927C 222.088 399.302 221.588 398.802 220.963 398.802C 220.338 398.802 219.838 399.302 219.838 399.927L 219.838 399.927z"/>
<path fill="#bfbf7f" stroke-width="4" stroke="#7f7f00" d="M 182.651 396.739C 179.151 407.489 178.401 418.989 178.526 430.302C 178.526 432.177 180.088 433.739 181.963 433.739C 183.838 433.739 185.401 432.177 185.401 430.302L 184.526 430.927C 186.776 424.677 184.963 418.114 185.651 411.614C 186.151 406.739 186.588 401.677 185.276 396.739C 185.276 395.989 184.651 395.427 183.963 395.427C 183.276 395.427 182.651 395.989 182.651 396.739L 182.651 396.739z"/>
<path fill="#bfbf7f" stroke-width="4" stroke="#7f7f00" d="M 130.901 397.927C 130.463 400.552 129.526 403.177 129.963 405.802C 132.088 418.677 133.901 430.927 137.963 442.989C 138.026 444.614 139.401 445.927 141.026 445.927C 142.651 445.864 143.963 444.489 143.963 442.864C 142.901 427.239 135.838 413.177 133.026 397.927C 133.026 397.364 132.526 396.864 131.963 396.864C 131.401 396.864 130.901 397.364 130.901 397.927L 130.901 397.927z"/>
<path fill="#bfbf7f" stroke-width="4" stroke="#7f7f00" d="M 83.7759 406.927C 82.2134 420.552 83.2134 434.177 82.6509 447.802C 82.6509 449.614 84.1509 451.114 85.9634 451.114C 87.7759 451.114 89.2759 449.614 89.2759 447.802L 88.7759 447.927C 89.0884 434.302 90.6509 420.052 86.2759 406.927C 86.2759 406.177 85.7134 405.614 84.9634 405.614C 84.2134 405.614 83.6509 406.177 83.6509 406.927L 83.7759 406.927z"/>
<path fill="#3f9f3f" stroke-width="4" stroke="#007f00" d="M 532.588 189.927C 529.588 203.677 527.713 217.927 529.088 232.177C 529.463 235.802 527.338 238.927 526.213 242.427C 525.213 245.427 527.213 248.552 526.963 251.552C 524.213 286.052 516.838 319.552 522.713 354.677C 524.088 362.677 527.088 370.427 530.588 377.927C 530.588 379.677 532.088 381.177 533.838 381.177C 535.588 381.177 537.088 379.677 537.088 377.927C 542.588 367.052 539.713 354.677 546.963 344.677C 546.838 329.552 545.213 314.302 546.463 299.427C 547.463 285.177 545.338 269.677 544.213 255.552C 542.463 233.677 537.713 211.802 535.088 189.927C 535.088 189.177 534.588 188.677 533.838 188.677C 533.088 188.677 532.588 189.177 532.588 189.927L 532.588 189.927z"/>
<path fill="#3f9f3f" stroke-width="4" stroke="#007f00" d="M 580.463 204.677C 578.838 207.927 576.088 210.552 574.963 213.552C 570.213 226.927 578.338 240.677 573.088 254.302C 571.838 257.677 573.838 261.552 573.963 265.177C 573.963 266.302 571.713 267.427 571.463 268.802C 567.588 293.427 568.213 317.052 568.713 341.177C 568.713 347.302 573.713 352.302 579.838 352.302C 585.963 352.302 590.963 347.302 590.963 341.177L 588.463 341.927C 596.588 317.177 586.338 289.802 590.338 264.052C 585.463 245.552 587.963 225.177 584.463 205.802C 584.463 204.302 583.213 203.177 581.838 203.177C 580.463 203.177 579.213 204.302 579.213 205.802L 580.463 204.677z"/>
<path fill="#3f9f3f" stroke-width="4" stroke="#007f00" d="M 480.713 228.052C 479.338 228.927 477.338 229.802 477.088 230.802C 471.463 268.427 467.963 304.552 466.463 341.552C 466.213 346.552 466.463 355.177 473.088 358.052C 473.213 362.802 477.213 366.677 481.963 366.677C 486.713 366.552 490.588 362.552 490.588 357.802L 494.338 355.677C 484.963 319.677 489.088 282.177 488.838 245.427C 488.713 239.677 485.963 234.677 483.838 229.427C 484.213 228.552 483.838 227.552 482.963 227.177C 482.088 226.802 481.088 227.177 480.713 228.052L 480.713 228.052z"/>
<path fill="#3f9f3f" stroke-width="4" stroke="#007f00" d="M 428.088 228.177C 422.088 238.802 420.088 251.052 421.963 262.802C 428.088 300.427 425.963 336.552 426.838 373.427C 426.838 379.552 431.838 384.427 437.838 384.427C 443.838 384.427 448.838 379.552 448.838 373.427L 445.713 375.927C 446.713 374.427 448.213 373.052 448.463 371.427C 450.838 358.302 446.588 346.302 447.588 334.052C 449.338 309.927 442.838 287.177 438.713 262.802C 437.588 255.927 437.338 249.177 439.588 242.052C 440.963 237.802 437.838 233.677 436.713 229.427C 436.838 226.802 434.963 224.552 432.338 224.427C 429.713 224.302 427.588 226.302 427.463 228.927L 428.088 228.177z"/>
<path fill="#3f9f3f" stroke-width="4" stroke="#007f00" d="M 382.588 293.302C 381.588 313.677 382.963 334.927 375.713 354.427C 378.838 362.177 374.088 372.677 381.463 378.552C 381.713 384.302 386.713 388.677 392.463 388.302C 398.213 388.052 402.588 383.052 402.213 377.302L 403.963 371.552C 402.213 361.802 399.838 352.552 396.588 343.052C 391.088 326.802 390.463 309.802 388.338 293.052C 388.213 291.427 386.838 290.177 385.338 290.302C 383.713 290.302 382.463 291.677 382.588 293.302L 382.588 293.302z"/>
<path fill="#3f9f3f" stroke-width="4" stroke="#007f00" d="M 333.088 254.677C 326.463 278.177 328.213 302.677 331.213 326.927C 333.713 347.177 329.088 367.302 330.088 387.552C 329.838 394.052 334.963 399.427 341.463 399.677C 347.963 399.927 353.338 394.802 353.588 388.302C 355.463 366.802 356.713 345.177 354.713 323.677C 352.463 299.677 343.713 277.552 336.963 254.677C 336.963 253.677 336.088 252.802 335.088 252.802C 333.963 252.802 333.088 253.677 333.088 254.677L 333.088 254.677z"/>
<path fill="#3f9f3f" stroke-width="4" stroke="#007f00" d="M 286.338 297.552C 284.463 303.177 282.213 309.052 282.088 314.802C 281.463 335.677 280.463 356.427 279.588 377.177C 279.463 380.677 281.963 384.177 283.463 387.677C 285.713 393.177 291.963 395.802 297.463 393.552C 302.963 391.302 305.588 385.052 303.338 379.552L 300.463 380.802C 300.713 358.552 294.588 337.052 293.588 314.802C 293.338 309.052 291.213 303.177 289.338 297.552C 289.338 296.677 288.588 296.052 287.838 296.052C 287.088 296.052 286.338 296.677 286.338 297.552L 286.338 297.552z"/>
<path fill="#3f9f3f" stroke-width="4" stroke="#007f00" d="M 245.463 283.302C 234.338 316.177 245.963 351.427 241.713 385.427C 241.713 392.177 247.088 397.677 253.838 397.677C 260.588 397.677 265.963 392.177 265.963 385.427L 264.338 385.802C 272.588 350.177 255.338 317.677 248.588 283.802C 248.713 282.927 248.213 282.052 247.338 281.927C 246.463 281.802 245.588 282.427 245.463 283.302L 245.463 283.302z"/>
<path fill="#3f9f3f" stroke-width="4" stroke="#007f00" d="M 210.213 311.177C 200.088 339.552 197.338 370.677 210.713 398.677C 209.338 402.802 211.463 407.177 215.588 408.552C 219.588 409.802 223.963 407.677 225.338 403.677L 230.213 401.927C 231.338 376.927 220.463 354.177 218.213 329.302C 217.713 323.177 215.213 317.177 213.463 311.177C 213.463 310.177 212.713 309.552 211.838 309.552C 210.963 309.552 210.213 310.177 210.213 311.177L 210.213 311.177z"/>
<path fill="#3f9f3f" stroke-width="4" stroke="#007f00" d="M 176.213 279.177C 172.713 297.927 169.713 316.927 170.463 335.677C 171.463 355.427 172.963 375.052 172.463 394.927C 171.963 400.052 175.713 404.677 180.838 405.302C 185.963 405.802 190.588 402.052 191.213 396.927L 191.838 400.052C 192.213 396.802 194.338 393.927 194.463 391.177C 196.213 353.427 190.338 315.302 179.463 279.177C 179.463 278.177 178.713 277.427 177.838 277.427C 176.963 277.427 176.213 278.177 176.213 279.177L 176.213 279.177z"/>
<path fill="none" stroke-width="6" stroke="#00ff7f" d="M 305.963 696.927C 305.963 712.927 302.963 727.927 304.963 741.927C 306.963 757.927 304.963 781.427 304.963 797.427"/>
<path fill="none" stroke-width="6" stroke="#00ff7f" d="M 226.963 747.927C 230.963 747.927 270.963 761.927 288.963 775.927L 292.963 797.927"/>
<path fill="#3fff9f" stroke-width="4" stroke="#00ff7f" d="M 521.63 520.927C 523.63 530.927 524.963 559.927 530.963 569.927C 533.297 564.26 546.63 530.26 536.63 520.26"/>
<path fill="#3fff9f" stroke-width="4" stroke="#00ff7f" d="M 567.963 518.927C 567.963 524.927 572.963 533.927 572.963 539.927C 574.963 539.927 574.963 539.927 576.963 539.927C 574.963 533.927 583.963 523.26 585.963 519.26"/>
<path fill="#7fffbf" stroke-width="6" stroke="#bfffdf" d="M 391.338 648.802C 394.838 647.552 398.088 645.927 401.088 643.427C 420.213 626.677 435.463 608.802 455.213 592.802C 487.588 566.302 527.713 557.552 569.463 565.677C 575.838 566.927 582.338 568.052 588.588 564.802C 589.713 564.552 590.463 563.427 590.213 562.177C 589.963 561.052 588.838 560.302 587.713 560.552C 582.838 561.677 577.963 561.927 572.963 560.927C 530.088 552.052 488.588 559.677 455.713 587.302C 435.713 603.927 420.088 622.677 401.338 640.677C 398.213 643.677 394.588 645.552 390.588 647.052C 390.088 647.302 389.838 647.802 390.088 648.302C 390.338 648.802 390.838 649.052 391.338 648.802L 391.338 648.802z"/>
<path fill="#7fffbf" stroke-width="6" stroke="#bfffdf" d="M 500.213 610.177C 529.463 605.302 557.213 614.427 585.338 620.927C 586.338 621.177 587.213 620.552 587.463 619.552C 587.588 618.677 587.088 617.677 586.088 617.552C 558.213 608.302 529.338 602.302 500.088 608.052C 499.463 608.052 498.963 608.552 499.088 609.177C 499.088 609.802 499.588 610.302 500.213 610.177L 500.213 610.177z"/>
</g>
<g>
<path fill="#ffffff" stroke="none" d="M 47.9634 406.927L 108.963 404.927L 183.463 409.427L 101.463 449.427L 21.4634 487.927L 21.4634 408.927L 47.9634 406.927z"/>
<path fill="#dfdfbf" stroke="none" d="M 20.9634 257.927L 88.9634 209.927L 191.963 235.927L 191.963 250.927L 20.9634 291.927L 20.9634 257.927z"/>
<path fill="#7f0000" stroke="none" d="M 21.9634 208.593L 88.9634 209.927L 20.9634 257.927L 21.9634 208.593z"/>
<path fill="#dfdfbf" stroke="none" d="M 21.4634 293.427L 177.463 254.927L 176.463 280.927L 21.9634 325.427L 21.4634 293.427z"/>
<path fill="#dfdfbf" stroke="none" d="M 155.463 289.427C 155.463 289.427 156.963 341.427 156.963 351.927C 156.963 362.427 155.463 414.427 155.463 414.427C 155.463 414.427 148.463 416.927 144.463 417.427C 140.463 417.927 133.963 414.427 133.963 414.427L 134.963 343.927L 138.463 292.927L 155.463 289.427z"/>
<path fill="#dfdfbf" stroke="none" d="M 104.463 304.927C 104.463 304.927 99.9634 352.927 98.9634 367.427C 97.9634 381.927 97.4634 429.427 97.4634 429.427C 97.4634 429.427 104.463 432.927 110.963 432.427C 117.463 431.927 124.463 428.427 124.463 428.427C 124.463 428.427 126.963 372.427 126.963 360.927C 126.963 349.427 126.463 296.427 126.463 296.427L 104.463 304.927z"/>
<path fill="#dfdfbf" stroke="none" d="M 63.4634 315.427C 63.4634 315.427 56.4634 376.427 57.4634 389.427C 58.4634 402.427 57.9634 448.427 57.9634 448.427C 57.9634 448.427 66.4634 450.927 72.9634 449.927C 79.4634 448.927 84.9634 446.927 84.9634 446.927C 84.9634 446.927 86.4634 387.427 86.9634 373.927C 87.4634 360.427 85.4634 307.427 85.4634 307.427L 63.4634 315.427z"/>
<path fill="#dfdfbf" stroke="none" d="M 43.4634 320.427C 43.4634 320.427 49.4634 381.927 48.4634 395.427C 47.4634 408.927 44.4634 464.427 44.4634 464.427L 28.4634 467.927L 21.9634 465.927L 21.9634 325.427L 43.4634 320.427z"/>
<path fill="#bfbf7f" stroke="none" d="M 185.463 409.927L 185.463 417.927L 200.463 418.427L 201.463 434.427L 218.963 432.927L 217.463 451.927L 170.463 490.927L 76.4634 541.427L 20.9634 572.427L 21.4634 487.927L 134.463 432.927L 185.463 409.927z"/>
<path fill="#dfdfbf" stroke="none" d="M 185.463 417.927L 21.4634 503.427L 20.9634 517.927L 200.463 418.427L 185.463 417.927z"/>
<path fill="#dfdfbf" stroke="none" d="M 201.463 434.427L 219.463 434.427L 20.9634 557.427L 21.4634 537.427L 201.463 434.427z"/>
<path fill="#bfbf7f" stroke="none" d="M 21.4634 293.427L 176.963 257.427L 176.963 262.927L 21.4634 301.427L 21.4634 293.427z"/>
<path fill="#bfbf7f" stroke="none" d="M 93.9634 219.427L 184.963 242.927L 184.463 245.427L 93.9634 221.927L 93.9634 219.427z"/>
<path fill="#bfbf7f" stroke="none" d="M 21.9634 266.427L 91.9634 218.927L 92.4634 222.427L 21.4634 269.927L 21.9634 266.427z"/>
<path fill="#ffffff" stroke="none" d="M 21.4634 280.427L 184.463 245.427L 183.963 247.927L 21.4634 283.927L 21.4634 280.427z"/>
<path fill="#000000" stroke="none" d="M 80.5128 246.688C 80.5128 252.136 83.2196 256.552 86.5585 256.552C 89.8974 256.552 92.6042 252.136 92.6042 246.688L 92.6038 246.74C 92.6038 241.292 95.3106 236.876 98.6495 236.876C 101.988 236.876 104.695 241.292 104.695 246.74L 104.695 246.856C 104.695 257.751 99.2818 266.584 92.604 266.584C 85.9262 266.584 80.5126 257.751 80.5126 246.856L 80.5128 246.688z"/>
<path fill="#ffffff" stroke="none" d="M 80.2313 246.331C 80.2313 235.435 85.6449 226.603 92.3228 226.603C 99.0006 226.603 104.414 235.435 104.414 246.331L 104.47 246.496C 104.47 241.048 101.763 236.632 98.4245 236.632C 95.0856 236.632 92.3788 241.048 92.3788 246.496L 92.3792 246.444C 92.3792 251.892 89.6724 256.308 86.3335 256.308C 82.9946 256.308 80.2878 251.892 80.2878 246.444L 80.2313 246.331z"/>
<path fill="#000000" stroke="none" d="M 86.5384 250.193C 87.4775 250.193 88.2388 248.951 88.2388 247.418C 88.2388 245.886 87.4775 244.644 86.5384 244.644C 85.5994 244.644 84.8381 245.886 84.8381 247.418C 84.8381 248.951 85.5994 250.193 86.5384 250.193z"/>
<path fill="#ffffff" stroke="none" d="M 98.6883 249.443C 99.6274 249.443 100.389 248.201 100.389 246.668C 100.389 245.136 99.6274 243.894 98.6883 243.894C 97.7493 243.894 96.988 245.136 96.988 246.668C 96.988 248.201 97.7493 249.443 98.6883 249.443z"/>
<path fill="none" stroke-width="1" stroke="#ffffff" d="M 21.9634 443.427C 21.9634 443.427 22.9634 444.927 30.9634 442.927C 38.9634 440.927 44.9634 436.427 44.9634 436.427"/>
<path fill="none" stroke-width="1" stroke="#ffffff" d="M 58.9634 429.427C 58.9634 429.427 66.4634 434.927 74.4634 432.427C 81.7637 430.145 85.4634 422.927 85.4634 422.927"/>
<path fill="none" stroke-width="1" stroke="#ffffff" d="M 97.4634 414.427C 97.4634 414.427 107.463 417.927 113.463 415.927C 118.872 414.124 123.463 407.927 123.463 407.927"/>
<path fill="none" stroke-width="1" stroke="#ffffff" d="M 135.463 400.427C 135.463 400.427 139.963 403.427 145.963 401.427C 149.576 400.222 154.963 395.927 154.963 395.927"/>
<path fill="none" stroke-width="1" stroke="#bfbf7f" d="M 21.6509 441.802C 21.6509 441.802 22.6509 443.302 30.6509 441.302C 38.6509 439.302 44.6509 434.802 44.6509 434.802"/>
<path fill="none" stroke-width="1" stroke="#bfbf7f" d="M 58.6509 427.802C 58.6509 427.802 66.1509 433.302 74.1509 430.802C 81.4512 428.52 85.1509 421.302 85.1509 421.302"/>
<path fill="none" stroke-width="1" stroke="#bfbf7f" d="M 97.1509 412.802C 97.1509 412.802 107.151 416.302 113.151 414.302C 118.559 412.499 123.151 406.302 123.151 406.302"/>
<path fill="none" stroke-width="1" stroke="#bfbf7f" d="M 135.151 398.802C 135.151 398.802 139.651 401.802 145.651 399.802C 149.263 398.597 154.651 394.302 154.651 394.302"/>
</g>
<g>
<path fill="none" stroke-width="4" stroke="#7f7f00" d="M 22.0889 292.467L 115.088 270.739L 192.482 252.069L 192.383 237.084L 90.9634 209.927L 21.3869 258.818"/>
<path fill="none" stroke-width="4" stroke="#7f7f00" d="M 154.963 289.927C 157.463 335.927 156.963 365.427 154.963 414.177C 154.963 414.177 149.463 417.427 144.463 417.427C 139.463 417.427 133.963 415.427 133.963 415.427C 133.963 366.427 134.463 341.427 137.963 295.427"/>
<path fill="none" stroke-width="4" stroke="#7f7f00" d="M 102.762 303.928C 98.2731 352.452 97.6318 378.824 97.6318 430.513C 97.6318 430.513 104.686 432.623 111.099 432.623C 117.512 432.623 124.567 429.194 124.567 429.194C 127.132 377.769 127.773 346.651 124.567 298.127"/>
<path fill="none" stroke-width="4" stroke="#7f7f00" d="M 63.2544 316C 58.682 366.717 58.0287 394.28 58.0287 448.305C 58.0287 448.305 65.214 450.51 71.7461 450.51C 78.2781 450.51 85.4634 446.927 85.4634 446.927C 88.0762 393.178 88.7294 360.653 85.4634 309.936"/>
<path fill="none" stroke-width="4" stroke="#7f7f00" d="M 21.6659 467.426C 24.3246 467.983 27.8558 468.55 31.216 468.55C 37.8219 468.55 45.0884 464.989 45.0884 464.989C 47.7308 411.571 48.3913 379.247 45.0884 328.842"/>
<path fill="none" stroke-width="4" stroke="#7f7f00" d="M 177.088 256.739L 177.088 280.739L 22.0687 325.793"/>
<path fill="none" stroke-width="4" stroke="#7f7f00" d="M 185.963 407.927L 21.9634 487.927"/>
<path fill="none" stroke-width="4" stroke="#7f7f00" d="M 132.963 404.927L 124.963 404.927"/>
<path fill="none" stroke-width="4" stroke="#7f7f00" d="M 90.9634 209.927L 20.9634 208.927"/>
<path fill="none" stroke-width="4" stroke="#7f7f00" d="M 47.9634 407.927L 57.954 407.427"/>
<path fill="none" stroke-width="4" stroke="#7f7f00" d="M 87.9634 405.927L 97.9645 405.656"/>
<path fill="none" stroke-width="4" stroke="#7f7f00" d="M 124.963 404.927L 134.965 405.568"/>
<path fill="none" stroke-width="4" stroke="#7f7f00" d="M 155.922 406.913L 171.713 407.927L 185.963 407.927L 185.713 417.927L 201.963 417.927L 201.713 433.927L 219.713 433.927L 219.713 449.927L 171.713 489.927L 75.7134 541.927"/>
<path fill="none" stroke-width="4" stroke="#7f7f00" d="M 92.4634 268.347C 99.8832 268.347 105.898 258.533 105.898 246.427C 105.898 234.32 99.8832 224.506 92.4634 224.506C 85.0436 224.506 79.0284 234.32 79.0284 246.427C 79.0284 258.533 85.0436 268.347 92.4634 268.347z"/>
</g>
<g>
<path fill="#ffffff" stroke="none" d="M 468.297 335.927L 472.297 324.593L 464.963 321.927L 451.63 312.593L 470.963 305.26L 480.963 293.26L 486.297 277.927L 476.297 275.26L 452.297 279.26C 452.297 279.26 444.297 279.927 449.63 275.927C 454.963 271.927 468.963 262.593 475.63 253.927C 482.297 245.26 480.297 245.26 472.297 241.26C 464.297 237.26 431.63 245.927 414.963 249.26C 398.297 252.593 378.297 270.593 363.63 279.927C 348.963 289.26 334.297 300.593 321.63 310.593C 308.963 320.593 298.963 335.927 298.963 335.927L 298.297 365.26L 331.63 359.26L 371.63 346.593L 402.963 337.927L 426.297 339.26L 468.297 335.927z"/>
<path fill="#ffbfff" stroke="none" d="M 470.255 247.552C 469.172 248.135 468.047 248.76 467.505 249.802C 461.963 259.927 451.463 264.718 443.588 272.302C 434.088 277.427 421.63 280.468 416.255 290.677C 415.297 291.135 440.63 286.635 446.297 282.052C 457.547 272.885 471.213 265.052 475.713 250.927C 476.755 249.427 476.38 247.343 474.88 246.302C 473.38 245.218 471.297 245.593 470.213 247.093L 470.255 247.552z"/>
<path fill="#ffbfff" stroke="none" d="M 424.005 318.177C 442.963 315.26 458.672 310.052 476.297 302.593C 479.963 301.01 481.88 296.093 484.297 292.593C 486.588 289.302 488.213 288.677 485.838 285.927C 484.755 284.677 485.838 282.843 485.255 281.302C 485.255 280.385 484.505 279.677 483.63 279.677C 482.755 279.677 482.005 280.385 482.005 281.302C 482.422 284.052 480.963 286.218 478.505 287.01C 478.005 287.177 477.13 286.635 476.172 288.302C 476.005 287.885 475.88 287.427 475.713 287.01C 471.922 291.552 467.463 295.343 462.213 298.427C 457.838 301.01 453.797 303.468 449.338 305.635C 444.005 308.218 437.963 308.26 432.338 310.135C 428.922 311.26 426.88 314.51 423.547 315.843C 422.88 315.927 422.463 316.552 422.588 317.218C 422.713 317.885 423.338 318.302 424.005 318.177L 424.005 318.177z"/>
<path fill="#ffbfff" stroke="none" d="M 392.38 338.552C 402.547 340.26 412.755 337.26 422.88 337.26C 432.63 337.26 442.172 340.218 451.922 340.927C 457.797 341.385 462.797 337.76 468.255 336.177C 472.338 334.843 474.505 330.468 473.172 326.385C 471.838 322.343 467.463 320.135 463.38 321.468L 463.547 321.635C 457.672 322.302 452.713 325.885 446.713 325.677C 439.297 329.635 430.797 327.968 422.713 329.677C 412.172 331.968 402.13 332.552 392.463 336.51C 391.88 336.468 391.422 336.927 391.38 337.51C 391.38 338.052 391.838 338.552 392.38 338.552L 392.38 338.552z"/>
<path fill="#ffbfff" stroke="none" d="M 381.713 303.427C 386.797 302.843 391.505 301.135 396.463 299.76C 405.005 297.427 410.13 290.01 413.547 282.427C 415.005 279.177 415.338 274.968 412.047 272.26C 411.672 270.635 410.005 269.552 408.338 269.927C 406.713 270.302 405.63 271.968 406.005 273.593C 405.172 275.302 406.338 277.177 406.005 278.677C 404.797 283.718 402.838 288.552 398.422 291.76C 392.838 295.885 386.963 298.302 381.005 301.218C 380.422 301.385 380.047 302.052 380.255 302.677C 380.422 303.26 381.088 303.635 381.713 303.427L 381.713 303.427z"/>
<path fill="#ffbfff" stroke="none" d="M 385.755 320.343C 385.755 320.927 386.213 321.427 386.838 321.427C 387.422 321.427 387.922 320.927 387.922 320.343C 387.922 319.718 387.422 319.26 386.838 319.26C 386.213 319.26 385.755 319.718 385.755 320.343L 385.755 320.343z"/>
<path fill="#ffbfff" stroke="none" d="M 391.63 320.635C 399.713 318.927 409.088 319.177 414.713 312.052C 415.963 310.468 417.547 307.76 415.922 305.51C 415.797 304.718 415.047 304.218 414.255 304.385C 413.505 304.51 413.005 305.26 413.13 306.052C 413.38 307.385 413.713 308.885 412.838 309.843C 407.172 315.927 398.63 316.468 391.13 318.677C 390.588 318.802 390.255 319.385 390.38 319.927C 390.505 320.468 391.088 320.76 391.63 320.635L 391.63 320.635z"/>
<path fill="#ffbfff" stroke="none" d="M 379.172 303.968C 381.88 314.385 373.755 322.968 366.38 329.385C 361.88 333.302 355.922 332.76 350.463 331.76C 349.755 331.552 349.005 332.01 348.797 332.718C 348.588 333.468 349.047 334.218 349.755 334.427C 355.838 337.427 362.63 337.718 368.588 333.927C 378.838 327.385 384.213 315.26 381.172 303.593C 381.047 303.052 380.505 302.677 379.963 302.802C 379.422 302.885 379.047 303.427 379.172 303.968L 379.172 303.968z"/>
<path fill="#ffbfff" stroke="none" d="M 329.422 352.135C 335.463 346.593 341.38 340.927 347.963 336.01C 347.88 336.01 347.838 335.968 347.755 335.968C 349.255 335.843 350.38 334.552 350.255 333.052C 350.13 331.552 348.838 330.427 347.338 330.552C 343.88 329.135 341.297 332.635 339.838 335.177C 336.505 341.093 331.088 344.927 327.463 350.385C 326.963 350.927 327.005 351.76 327.547 352.26C 328.088 352.718 328.922 352.677 329.422 352.135L 329.422 352.135z"/>
<path fill="#ffffff" stroke="none" d="M 295.963 338.927L 269.534 277.282C 269.534 277.282 254.281 220.289 253.437 213.268C 252.593 206.248 243.49 183.839 231.626 170.452C 219.761 157.064 212.931 154.751 207.462 161.391C 201.993 168.031 206.402 199.977 209.763 212.535C 213.124 225.092 217.831 231.079 217.831 231.079C 217.831 231.079 208.021 209.895 197 203.528C 185.98 197.161 179.599 192.658 175.803 197.814C 172.007 202.971 173.191 230.604 180.675 243.094C 188.158 255.583 201.574 274.767 201.574 274.767C 201.574 274.767 188.88 269.883 174.322 269.638C 159.764 269.394 153.451 269.013 151.914 278.741C 150.376 288.469 150.064 298.905 165.466 306.17C 180.867 313.435 246.841 327.868 246.841 327.868C 246.841 327.868 219.93 343.352 222.515 353.012C 225.101 362.672 230.706 364.277 240.366 361.692C 250.026 359.107 257.427 351.95 257.427 351.95C 257.427 351.95 249.972 370.508 256.802 372.821C 263.632 375.134 271.292 368.943 271.673 362.63C 272.053 356.317 277.088 367.392 281.918 366.099C 286.748 364.806 295.564 355.201 295.564 355.201L 295.963 338.927z"/>
<path fill="#ffbfff" stroke="none" d="M 162.026 302.239C 162.776 310.552 170.401 315.864 178.338 317.489C 185.838 318.989 192.838 317.489 200.088 318.489C 209.651 319.864 219.088 320.427 227.963 323.489C 232.588 325.114 237.338 326.802 242.338 327.114C 247.401 327.114 251.526 322.989 251.526 317.927C 251.526 312.864 243.963 318.989 238.963 318.927L 224.213 313.614C 198.743 308.145 197.385 302.043 180.338 300.614C 175.526 300.239 170.713 298.677 165.838 297.489C 165.026 296.427 163.526 296.239 162.526 297.052C 161.463 297.864 161.276 299.364 162.088 300.364L 162.026 302.239z"/>
<path fill="#ffbfff" stroke="none" d="M 228.776 349.302C 228.026 350.677 227.401 352.052 226.713 353.427L 226.088 355.677C 226.088 356.489 226.401 357.364 226.901 358.052L 227.588 358.864C 230.901 364.364 237.838 364.614 243.338 363.802C 249.338 362.927 255.463 360.677 258.901 354.677C 260.651 353.239 260.901 350.677 259.463 348.989C 258.026 347.239 255.463 346.989 253.776 348.427L 254.276 348.552C 253.588 348.552 252.776 348.302 252.338 348.614C 247.026 352.614 241.651 354.302 235.338 354.302L 233.026 353.302L 233.838 355.677L 233.838 353.614C 231.838 352.864 233.026 350.114 231.151 349.302C 231.151 348.677 230.651 348.114 229.963 348.114C 229.276 348.114 228.776 348.677 228.776 349.302L 228.776 349.302z"/>
<path fill="#ffbfff" stroke="none" d="M 258.526 367.614C 259.463 369.864 261.588 371.364 263.901 371.989L 265.401 372.364C 266.776 372.364 268.026 371.614 268.588 370.364L 268.776 369.989C 268.901 370.427 268.963 370.927 269.088 371.364C 272.526 367.177 277.401 363.114 277.713 357.427C 278.588 355.677 277.838 353.552 276.088 352.677C 274.338 351.802 272.213 352.489 271.338 354.239C 267.776 356.364 267.651 360.614 265.713 363.802L 262.401 367.489L 265.526 365.489L 263.151 365.427C 263.338 365.677 263.526 365.989 263.713 366.239C 262.526 366.364 261.338 366.427 260.213 365.864C 259.713 365.364 258.963 365.427 258.463 365.864C 258.026 366.364 258.026 367.177 258.526 367.614L 258.526 367.614z"/>
<path fill="#ffbfff" stroke="none" d="M 242.151 232.864C 227.713 239.489 223.651 258.177 230.213 271.864L 230.838 274.489C 231.088 276.489 232.651 278.052 234.713 278.364L 234.963 278.239L 234.963 278.239L 235.026 277.427L 235.526 270.364L 235.338 270.364C 234.963 270.364 234.588 270.364 234.213 270.364L 233.651 270.177C 233.026 269.927 232.401 269.864 231.713 270.052L 230.526 270.364C 222.213 271.114 216.401 279.052 216.838 287.114C 217.463 300.427 230.213 306.302 241.338 310.177L 240.463 299.739L 240.526 299.739L 237.713 301.177C 237.401 301.427 237.088 301.739 236.776 301.989L 234.838 303.739C 233.963 304.489 233.401 305.489 233.088 306.552L 232.588 308.927C 231.651 316.239 235.088 323.239 241.213 327.302C 250.151 333.177 261.151 333.364 270.776 329.677C 274.463 328.239 273.401 326.614 271.963 322.927C 270.526 319.302 264.588 325.489 260.963 326.927C 254.088 328.489 247.838 320.802 243.526 312.989L 244.151 309.364L 242.463 312.177L 245.151 309.989L 243.713 310.927L 245.401 310.114C 247.276 309.239 248.526 307.489 248.713 305.427C 248.963 302.239 246.651 299.489 243.463 299.177L 242.526 298.864C 242.463 298.989 242.463 299.114 242.401 299.239C 238.776 297.739 235.026 296.427 231.588 294.552C 228.338 292.677 225.651 289.177 225.088 285.114C 224.651 281.927 223.526 278.489 230.151 276.864L 233.338 276.239L 231.401 276.114L 234.651 277.114C 235.776 276.177 236.838 275.239 237.963 274.302L 235.588 277.489L 235.588 277.489L 235.588 278.302C 237.776 278.302 239.651 276.677 239.963 274.552C 240.338 272.114 238.651 269.864 236.276 269.489L 236.026 269.302L 236.026 269.302L 239.463 270.739C 236.651 263.177 236.651 255.302 236.713 247.489C 236.776 242.489 238.776 237.364 243.401 234.614C 243.838 234.302 243.963 233.614 243.651 233.114C 243.338 232.614 242.651 232.489 242.151 232.864L 242.151 232.864z"/>
<path fill="#ffbfff" stroke="none" d="M 209.838 194.614C 207.776 215.427 207.463 239.427 222.526 255.739C 225.651 259.052 230.838 259.239 234.088 256.114C 237.401 252.989 237.588 247.864 234.463 244.552C 222.213 230.677 218.401 211.552 212.838 194.427C 212.776 193.614 212.088 192.989 211.276 193.052C 210.401 193.114 209.776 193.802 209.838 194.614L 209.838 194.614z"/>
<path fill="#ffbfff" stroke="none" d="M 190.838 254.114C 197.401 265.927 202.463 279.052 212.151 288.677C 215.338 291.864 220.526 291.802 223.713 288.614C 226.901 285.427 226.838 280.239 223.651 277.052C 217.151 270.739 210.026 266.052 202.338 260.614C 198.838 258.114 196.338 255.052 193.463 252.114C 192.901 251.364 191.901 251.239 191.151 251.802C 190.401 252.364 190.276 253.427 190.838 254.114L 190.838 254.114z"/>
<path fill="#ffbfff" stroke="none" d="M 245.588 217.364C 246.776 222.552 244.338 227.989 246.963 233.052C 247.213 234.677 248.713 235.802 250.401 235.552C 252.026 235.302 253.151 233.802 252.901 232.114C 253.838 226.802 248.901 222.177 247.963 216.864C 247.838 216.239 247.151 215.802 246.526 215.927C 245.838 216.052 245.401 216.739 245.588 217.364L 245.588 217.364z"/>
</g>
<g>
<path fill="none" stroke-width="6" stroke="#000000" d="M 305.984 335.927C 305.984 334.593 305.318 332.593 305.984 331.26C 315.318 316.593 327.984 306.593 341.318 296.593C 347.984 291.26 371.318 275.26 378.651 271.26C 384.651 267.26 408.906 253.363 415.984 250.593C 431.318 244.593 441.984 241.26 466.651 239.26C 470.651 239.26 476.338 238.593 479.318 241.927C 482.297 245.26 479.984 248.593 479.318 251.26C 476.651 259.26 469.984 264.593 463.318 268.593C 447.318 278.593 432.651 288.593 414.651 291.927"/>
<path fill="none" stroke-width="6" stroke="#000000" d="M 447.984 281.26C 460.651 275.927 483.318 272.593 487.318 275.26C 491.318 277.927 488.651 283.927 487.318 287.927C 487.318 290.593 484.651 293.26 482.651 295.26C 479.318 298.593 477.318 301.927 473.318 303.927C 459.318 309.26 444.651 315.26 429.318 314.593"/>
<path fill="none" stroke-width="6" stroke="#000000" d="M 437.984 315.26C 445.318 315.26 452.651 314.593 459.984 317.26C 464.651 318.593 469.318 319.927 473.984 322.593C 476.651 323.927 475.984 328.593 474.651 331.26C 473.984 332.593 471.984 334.593 469.984 335.26C 457.984 339.26 445.318 338.593 432.651 338.593C 431.984 338.593 431.984 339.26 431.984 339.927"/>
<path fill="none" stroke-width="6" stroke="#000000" d="M 287.686 333.5C 273.997 297.826 265.495 260.518 256.471 220.737C 250.715 195.363 224.265 150.683 212.292 160.098C 189.772 177.808 219.812 223.007 228.934 257.092"/>
<path fill="none" stroke-width="6" stroke="#000000" d="M 215.932 231.717C 210.38 218.71 198.516 205.322 186.271 198.248C 181.89 197.35 174.162 199.418 174.679 201.35C 169.163 217.64 173.688 231.659 187.932 254.738C 195.36 266.773 205.021 276.044 213.92 286.085"/>
<path fill="none" stroke-width="6" stroke="#000000" d="M 200.867 275.991C 180.376 269.053 156.604 264.349 152.88 278.483C 150.567 285.313 149.737 293.816 159.084 301.667C 168.432 309.517 176.486 312.537 200.841 318.441C 212.174 321.188 231.766 325.692 231.766 325.692"/>
<path fill="none" stroke-width="6" stroke="#000000" d="M 250.399 326.465C 250.399 326.465 216.056 349.99 225.896 359.381C 235.735 368.771 250.581 360.988 258.63 349.361"/>
<path fill="none" stroke-width="6" stroke="#000000" d="M 256.763 353.766C 256.853 359.848 254.975 366.287 257.838 370.849C 260.342 373.442 266.245 372.368 268.839 369.864C 272.416 367.18 271.521 362.261 271.61 357.163"/>
<path fill="none" stroke-width="6" stroke="#000000" d="M 378.963 340.927C 377.963 343.927 380.963 343.927 381.963 345.927C 384.963 350.927 386.963 357.927 383.963 359.927C 377.963 364.927 369.963 357.927 365.963 350.927C 365.963 351.927 365.963 353.927 365.963 354.927C 360.963 355.927 355.963 355.927 350.963 353.927C 346.963 352.927 343.963 349.927 339.963 348.927"/>
</g>
<g>
<path fill="#ffdfbf" stroke="none" d="M 267.963 197.427C 267.963 197.427 243.463 211.927 240.463 231.927C 237.463 251.927 243.463 276.427 249.963 285.427C 256.463 294.427 271.963 304.427 285.963 305.427C 299.963 306.427 324.963 304.427 331.463 295.427C 337.963 286.427 349.963 265.427 350.963 254.927C 351.963 244.427 347.963 224.427 341.963 216.927C 335.963 209.427 327.963 199.427 327.963 199.427C 327.963 199.427 308.463 189.927 296.963 189.927C 285.463 189.927 267.963 197.427 267.963 197.427z"/>
<path fill="#ff3f7f" stroke="none" d="M 288.463 194.927C 288.463 194.927 286.963 203.927 282.963 208.927C 278.963 213.927 267.963 208.427 264.463 214.427C 260.963 220.427 258.963 231.927 251.963 236.927C 244.963 241.927 237.963 241.927 237.963 241.927C 237.963 241.927 241.963 220.927 249.463 211.427C 256.963 201.927 274.963 192.927 281.463 190.427C 287.963 187.927 288.463 194.927 288.463 194.927z"/>
<path fill="#ff3f7f" stroke="none" d="M 237.963 243.927L 238.463 263.427C 238.463 263.427 227.463 262.927 225.463 266.927C 223.463 270.927 227.463 280.927 225.463 283.427C 223.463 285.927 198.963 289.427 194.963 292.927C 190.963 296.427 197.463 301.927 193.963 306.927C 190.463 311.927 172.963 316.427 167.463 317.427C 161.963 318.427 169.463 335.927 166.463 338.927C 163.463 341.927 142.963 347.427 138.963 351.427C 134.963 355.427 145.963 345.927 145.963 345.927C 145.963 345.927 155.463 343.927 149.963 336.927C 144.463 329.927 143.963 327.427 147.463 318.427C 150.963 309.427 141.963 309.427 141.963 309.427C 141.963 309.427 137.963 314.427 137.963 318.427C 137.963 322.427 132.463 314.927 132.463 314.927C 132.463 314.927 123.463 291.427 126.963 290.427C 130.463 289.427 147.963 302.927 150.463 299.427C 152.963 295.927 151.963 268.427 157.963 265.427C 163.963 262.427 192.963 273.427 199.463 272.427C 205.963 271.427 198.963 235.927 203.963 232.427C 208.963 228.927 237.963 243.927 237.963 243.927z"/>
<path fill="#ff3f7f" stroke="none" d="M 290.963 191.427C 290.963 191.427 290.963 206.427 299.463 211.927C 307.963 217.427 307.463 208.427 313.463 216.427C 319.463 224.427 312.963 227.927 320.463 232.927C 327.963 237.927 339.463 234.427 349.463 234.927C 359.463 235.427 348.963 230.427 348.963 230.427C 348.963 230.427 339.963 203.927 329.463 201.927C 318.963 199.927 318.463 193.927 308.963 192.427C 299.463 190.927 290.963 191.427 290.963 191.427z"/>
<path fill="#ff3f7f" stroke="none" d="M 349.463 234.927C 349.463 234.927 351.963 249.427 350.963 254.927C 349.963 260.427 346.463 270.927 346.463 270.927C 346.463 270.927 348.963 284.427 355.963 287.927C 362.963 291.427 381.463 282.927 383.963 285.927C 386.463 288.927 382.463 303.927 389.463 309.427C 396.463 314.927 415.963 319.427 417.463 324.927C 418.963 330.427 410.463 338.427 412.963 339.927C 415.463 341.427 437.963 340.927 440.963 344.427C 443.963 347.927 469.963 345.927 469.963 345.927C 469.963 345.927 458.963 343.427 459.463 332.927C 459.963 322.427 463.463 301.927 457.963 302.427C 452.463 302.927 411.463 308.927 407.463 304.427C 403.463 299.927 410.963 279.927 405.963 277.927C 400.963 275.927 367.463 286.427 366.963 279.427C 366.463 272.427 372.463 266.927 372.463 266.927C 372.463 266.927 380.963 242.427 371.463 238.927C 361.963 235.427 349.463 234.927 349.463 234.927z"/>
<path fill="#bfff7f" stroke-width="3" stroke="#00ff00" d="M 272.484 247.26C 275.984 246.76 277.484 252.26 277.984 257.76C 278.484 263.26 279.484 269.26 275.984 267.76C 272.484 266.26 268.818 262.76 268.818 259.26C 268.818 255.76 268.984 247.76 272.484 247.26z"/>
<path fill="#bfff7f" stroke-width="3" stroke="#00ff00" d="M 308.297 260.093C 308.297 260.093 309.297 251.593 312.297 250.593C 315.297 249.593 317.797 252.593 316.797 256.593C 315.797 260.593 317.797 270.593 313.797 269.593C 309.797 268.593 308.297 260.093 308.297 260.093z"/>
</g>
<g>
<path fill="none" stroke-width="6" stroke="#000000" d="M 316.963 197.427C 298.963 187.427 288.463 186.927 271.963 194.427C 256.487 201.461 246.963 211.927 242.963 227.927C 236.963 241.927 236.963 257.927 242.963 271.927C 246.963 281.927 252.963 295.927 266.963 299.927C 284.963 307.927 304.386 309.22 320.963 301.927C 333.463 296.427 336.963 287.427 342.963 275.927C 349.634 263.14 354.963 249.927 350.963 237.927C 346.963 223.927 338.963 214.427 328.963 200.427C 326.963 200.427 318.963 197.427 316.963 197.427"/>
<path fill="none" stroke-width="6" stroke="#000000" d="M 295.963 306.927C 299.963 354.927 294.963 405.927 298.963 453.927"/>
<path fill="none" stroke-width="6" stroke="#000000" d="M 208.963 639.927C 220.963 613.927 281.963 577.927 281.963 577.927C 281.963 577.927 296.963 489.927 298.963 459.927C 296.565 495.902 297.963 570.927 297.963 570.927C 297.963 570.927 302.963 627.927 306.963 655.927"/>
<path fill="none" stroke-width="6" stroke="#000000" d="M 298.963 328.927C 334.963 322.927 389.963 328.927 425.963 332.927C 406.633 336.441 383.963 339.593 383.963 339.593"/>
<path fill="none" stroke-width="6" stroke="#000000" d="M 295.963 361.26C 259.963 363.26 188.963 395.927 188.963 395.927L 226.297 431.26"/>
<path fill="none" stroke-width="6" stroke="#000000" d="M 268.592 212.255C 258.55 216.68 258.55 227.006 253.528 234.381C 246.834 247.657 225.075 243.232 213.359 232.906C 210.011 231.431 204.99 231.431 204.99 231.431C 201.643 244.707 204.99 257.983 201.643 271.259C 201.643 271.259 194.948 271.259 191.6 271.259C 179.884 268.308 164.82 257.983 156.452 266.833C 149.757 274.209 159.799 290.435 151.431 297.81C 144.736 305.186 136.367 290.435 126.325 288.96C 124.651 299.285 126.325 308.136 133.019 315.511"/>
<path fill="none" stroke-width="6" stroke="#000000" d="M 312.963 206.927C 328.963 208.927 314.963 230.927 322.963 234.927C 336.963 238.927 352.963 230.927 366.963 236.927C 378.963 238.927 370.963 256.927 372.963 266.927C 370.963 266.927 368.963 266.927 368.963 268.927C 368.963 272.927 366.963 280.927 368.963 280.927C 380.963 286.927 392.963 272.927 404.963 278.927C 412.963 284.927 400.963 300.927 406.963 304.927C 420.963 312.927 440.963 300.927 458.963 302.927C 458.963 314.927 456.963 328.927 460.963 340.927C 460.963 346.927 470.963 342.927 476.963 346.927"/>
<path fill="none" stroke-width="6" stroke="#000000" d="M 277.297 250.927C 278.297 256.927 280.13 266.093 276.63 266.593C 271.934 267.264 270.297 260.927 270.297 254.927C 270.297 254.927 269.963 246.927 272.297 246.927C 274.63 246.927 277.297 250.927 277.297 250.927z"/>
<path fill="none" stroke-width="6" stroke="#000000" d="M 316.797 257.427C 316.797 263.427 315.463 270.093 311.963 269.593C 308.463 269.093 307.797 260.927 309.297 254.927C 309.297 254.927 311.963 248.593 314.297 249.927C 316.63 251.26 316.797 257.427 316.797 257.427z"/>
<path fill="none" stroke-width="6" stroke="#000000" d="M 266.963 282.927C 275.963 291.427 287.463 295.427 300.963 295.427C 301.963 295.427 318.963 290.927 323.963 280.927"/>
<path fill="none" stroke-width="6" stroke="#000000" d="M 345.463 271.802C 346.963 271.802 348.463 271.802 349.963 271.802C 354.463 276.302 352.963 283.802 357.463 288.302C 361.963 291.302 370.963 291.302 375.463 288.302C 378.463 286.802 384.463 285.302 385.963 288.302C 391.963 292.802 385.963 304.802 390.463 309.302C 397.963 318.302 421.963 316.802 417.463 333.302C 415.963 331.802 414.463 334.802 412.963 334.802C 411.463 336.302 412.963 340.802 412.963 340.802C 423.463 343.802 433.963 339.302 441.463 343.802C 444.463 345.302 442.963 352.802 442.963 358.802"/>
<path fill="none" stroke-width="6" stroke="#000000" d="M 238.629 263.414C 232.731 264.516 226.283 262.668 223.36 268.809C 222.588 275.566 227.189 283.862 224.515 285.887C 216.495 291.963 202.123 288.543 192.628 294.895C 191.153 295.17 196.03 304.941 193.356 306.966C 191.233 311.94 184.136 314.791 178.422 316.876C 174.09 318.194 166.167 316.622 165.244 319.846C 160.172 325.371 171.497 336.989 166.15 341.039C 156.655 347.391 144.584 348.119 135.088 354.47C 135.088 354.47 135.914 358.894 136.465 361.843"/>
</g>
<g>
<path fill="#7fbfff" stroke-width="3" stroke="#ffffff" d="M 316.255 369.781C 314.984 367.614 312.276 367.072 310.109 366.26C 308.005 365.447 305.859 367.489 303.609 368.927C 301.13 370.51 299.234 372.322 297.193 374.343C 297.047 374.51 296.713 374.489 296.463 374.552C 296.693 374.364 296.943 374.177 297.172 373.989C 293.901 373.531 290.401 373.447 287.297 374.822C 282.068 377.114 282.422 383.552 285.193 387.572C 285.151 387.218 285.13 386.843 285.088 386.489L 284.63 387.156L 285.88 386.281L 285.005 386.677C 280.38 388.114 275.255 389.885 273.422 394.885C 271.526 400.114 275.63 404.843 279.276 408.114C 278.13 409.239 277.818 410.822 277.047 412.156C 277.255 411.781 277.443 411.406 277.651 411.031C 275.859 412.322 275.463 414.843 276.776 416.614C 278.088 418.406 280.588 418.781 282.38 417.489L 283.609 416.427C 285.609 413.031 287.963 408.822 286.213 404.906C 284.922 402.01 282.088 400.281 280.13 397.864C 281.547 395.052 284.838 394.906 287.463 393.781L 288.901 393.135C 289.776 392.739 290.484 392.031 290.838 391.135L 290.901 391.197C 293.547 388.197 291.755 384.343 290.38 381.239C 290.234 381.489 290.109 381.718 289.963 381.968C 290.88 380.468 293.088 380.843 294.568 381.01C 297.463 381.302 300.693 381.281 302.463 378.635C 304.276 375.947 306.797 374.593 308.797 372.177C 308.963 371.968 309.318 371.906 309.609 371.885C 311.526 371.885 313.422 372.635 315.338 372.135C 316.088 372.364 316.88 371.947 317.109 371.197C 317.318 370.447 316.901 369.677 316.151 369.447L 316.255 369.781z"/>
<path fill="#7fbfff" stroke-width="3" stroke="#bfdfff" d="M 313.005 358.114C 312.422 358.072 311.984 357.76 311.38 357.385C 310.651 356.885 309.859 357.156 308.922 356.635C 305.359 354.718 301.213 356.927 299.422 360.302C 298.463 362.114 299.213 364.177 298.526 366.01C 298.359 366.406 297.963 366.489 297.213 366.447C 296.672 366.406 296.109 367.01 295.609 366.947C 289.838 366.114 283.713 367.718 279.963 372.218C 277.568 375.093 277.609 378.677 277.588 382.135L 277.588 382.51L 278.547 380.135L 277.088 381.635C 276.193 382.677 275.234 383.843 274.047 384.302C 269.797 385.989 265.88 390.114 266.547 394.885C 267.047 398.385 268.776 401.406 269.505 404.781C 269.443 404.489 269.38 404.218 269.318 403.927C 268.984 405.031 269.193 406.218 268.401 407.239C 268.463 406.989 268.526 406.76 268.588 406.51C 267.255 408.01 267.38 410.322 268.901 411.656C 270.401 412.989 272.693 412.843 274.026 411.343C 279.172 405.885 274.713 399.072 273.38 393.114C 273.234 393.343 273.109 393.593 272.963 393.822C 274.255 391.489 276.672 390.697 278.88 389.302C 279.693 388.802 280.276 388.093 280.901 387.406L 283.38 384.864C 284.005 384.239 284.338 383.385 284.338 382.51L 284.338 381.76C 284.297 379.697 283.588 377.281 285.297 375.635C 286.922 374.031 289.088 373.26 291.213 373.218C 295.13 373.114 299.526 373.322 302.422 370.281C 304.234 368.364 304.401 365.593 304.526 363.01C 304.568 362.218 304.88 361.072 306.401 361.239C 308.422 361.447 310.318 362.447 312.338 361.718C 313.318 361.885 314.255 361.218 314.422 360.218C 314.588 359.239 313.922 358.302 312.943 358.135L 313.005 358.114z"/>
<path fill="#ff7f00" stroke="none" d="M 322.63 350.927L 298.63 384.593C 298.63 384.593 318.963 375.927 329.963 382.26C 340.963 388.593 357.963 412.593 364.963 415.593C 371.963 418.593 392.63 421.593 398.63 414.26C 404.63 406.927 410.963 389.927 403.63 379.927C 396.297 369.927 371.963 364.593 359.963 365.593C 347.963 366.593 332.297 362.26 327.297 359.26C 322.297 356.26 322.63 350.927 322.63 350.927z"/>
<path fill="#ffdfbf" stroke="none" d="M 365.63 333.593L 393.297 342.593L 384.297 359.927L 364.63 352.26L 365.63 333.593z"/>
<path fill="#bfbfbf" stroke="none" d="M 263.463 405.927L 303.463 406.427C 303.463 406.427 283.463 423.927 281.463 432.927C 279.463 441.927 286.963 465.427 286.463 475.427C 285.963 485.427 272.463 506.927 264.963 507.927C 257.463 508.927 240.463 503.427 237.463 489.927C 234.463 476.427 239.463 457.427 249.963 446.927C 260.463 436.427 267.463 422.927 265.963 416.927C 264.463 410.927 263.463 405.927 263.463 405.927z"/>
<path fill="#ffffff" stroke="none" d="M 260.182 444.27C 258.557 446.552 258.338 449.364 256.682 451.645C 253.87 455.52 251.713 459.677 247.901 462.333L 248.245 461.958C 247.588 462.302 247.057 462.864 246.776 463.52L 246.401 464.614C 246.245 465.427 245.651 465.958 245.12 466.52L 244.276 468.083C 243.87 468.77 243.713 469.552 243.838 470.302L 244.026 471.333C 244.026 474.27 243.713 477.802 246.838 479.552L 246.495 479.677L 246.37 475.864L 245.807 476.864C 244.995 478.333 244.245 479.927 244.588 481.583C 245.276 485.083 245.026 488.27 246.495 491.489C 246.901 492.395 247.307 493.52 249.026 493.364C 250.088 494.458 251.838 494.458 252.901 493.364C 253.995 492.302 253.995 490.552 252.901 489.489C 252.901 488.989 252.901 488.458 252.901 487.958C 252.995 488.302 253.057 488.645 253.151 488.989C 252.651 486.208 251.338 483.52 251.932 480.583L 252.463 479.458C 252.901 478.708 253.057 477.802 252.87 476.927L 252.213 475.177C 251.995 474.958 251.776 474.708 251.557 474.489C 251.338 474.739 251.151 475.02 250.932 475.27C 250.932 473.77 250.838 472.302 250.745 470.802L 250.432 469.333L 250.213 471.083L 250.87 469.864C 251.182 468.802 251.901 468.02 252.401 467.083L 252.682 466.02L 251.245 467.614L 252.932 466.27C 252.807 466.427 252.651 466.552 252.526 466.708C 257.995 460.77 263.776 453.333 262.37 444.77C 262.495 444.177 262.12 443.583 261.526 443.427C 260.932 443.302 260.307 443.677 260.182 444.27L 260.182 444.27z"/>
<path fill="#ffffff" stroke="none" d="M 278.807 417.802C 277.12 423.927 272.932 428.927 271.838 435.302C 271.276 438.427 271.182 441.427 270.932 444.52C 270.463 450.239 273.995 455.364 274.463 460.989C 274.995 466.864 275.62 473.333 271.62 478.52C 270.651 480.145 271.182 482.27 272.807 483.27C 274.463 484.239 276.588 483.708 277.557 482.083L 278.026 481.708C 282.182 475.114 281.963 467.114 280.682 459.583C 279.807 454.489 276.62 450.083 276.682 444.989C 276.682 443.552 277.213 442.02 277.276 440.52C 277.557 433.052 278.182 425.52 280.745 418.458C 280.901 417.927 280.62 417.333 280.088 417.145C 279.557 416.989 278.963 417.27 278.807 417.802L 278.807 417.802z"/>
<path fill="#0000ff" stroke="none" d="M 272.651 466.364C 270.057 470.864 270.088 476.177 269.745 481.145C 266.682 485.427 264.151 490.052 261.338 494.489C 259.588 492.802 256.651 494.802 255.495 491.364C 254.526 489.677 252.37 489.114 250.713 490.083C 249.057 491.052 248.495 493.208 249.463 494.864L 249.776 494.802C 251.932 500.958 260.495 502.114 265.745 499.583C 270.213 494.114 272.932 487.364 276.182 481.145C 275.62 476.364 276.87 471.427 274.901 466.864C 275.026 466.27 274.651 465.645 274.026 465.489C 273.401 465.364 272.776 465.739 272.651 466.364L 272.651 466.364z"/>
<path fill="#ffdfbf" stroke="none" d="M 235.963 423.927L 247.463 439.427L 231.463 457.927L 216.463 447.927L 235.963 423.927z"/>
<path fill="#ffbf7f" stroke="none" d="M 319.213 364.677C 319.213 367.177 320.651 369.302 322.213 371.114L 322.776 371.895C 322.932 371.989 323.12 372.083 323.307 372.145L 324.432 372.489C 328.776 376.083 334.401 376.927 339.807 378.177C 344.307 379.177 348.713 379.989 353.151 378.833C 358.057 377.552 362.463 375.958 367.495 375.114C 371.526 374.458 375.057 376.083 378.776 377.177C 379.807 377.739 381.12 377.364 381.682 376.333C 382.245 375.27 381.87 373.989 380.807 373.427C 372.776 365.552 360.463 369.52 351.182 372.614C 342.682 372.677 333.995 370.895 326.62 366.583L 325.526 366.27L 327.495 368.552L 325.995 366.177C 326.151 366.302 326.276 366.427 326.432 366.552C 324.995 365.708 324.245 364.208 322.995 363.177C 322.495 362.177 321.276 361.739 320.276 362.239C 319.276 362.739 318.838 363.958 319.338 364.958L 319.213 364.677z"/>
<path fill="#7f0000" stroke="none" d="M 348.745 386.239C 351.713 393.864 356.745 400.145 362.682 405.77C 367.807 410.645 375.588 410.302 382.276 410.114C 387.713 409.958 393.463 408.833 397.245 404.302C 402.182 398.395 399.338 389.208 393.338 385.145C 392.838 384.708 392.088 384.77 391.682 385.302C 391.245 385.802 391.338 386.552 391.838 386.958C 391.87 391.333 393.526 395.645 392.37 399.895C 386.62 404.02 379.338 404.239 372.463 402.677C 371.557 402.458 370.588 402.833 369.776 402.583C 368.463 402.177 367.12 401.677 366.088 400.583C 363.213 397.364 360.307 394.677 357.151 391.77C 354.807 389.614 352.87 387.177 350.588 384.989C 350.245 384.489 349.557 384.364 349.026 384.708C 348.526 385.052 348.401 385.739 348.745 386.239L 348.745 386.239z"/>
<path fill="#7f0000" stroke="none" d="M 314.745 372.739C 316.87 373.989 319.182 375.052 321.62 375.27C 321.463 375.27 321.276 375.239 321.12 375.239C 322.12 375.677 323.307 375.239 323.776 374.239C 324.245 373.239 323.807 372.083 322.807 371.614C 320.963 369.739 317.682 370.77 315.182 370.52C 314.588 370.395 313.995 370.802 313.87 371.395C 313.745 371.989 314.12 372.583 314.745 372.739L 314.745 372.739z"/>
</g>
<g>
<path fill="none" stroke-width="6" stroke="#000000" d="M 322.151 350.489C 321.151 360.489 334.151 362.489 341.151 364.489C 354.151 367.489 368.151 362.489 381.151 365.489C 391.151 367.489 399.151 374.489 404.151 383.489C 408.151 390.489 408.151 400.489 405.151 406.489C 398.151 418.489 381.151 418.489 368.151 415.489C 362.151 413.489 356.151 407.489 352.151 402.489C 347.151 395.489 342.151 387.489 334.151 383.489C 329.151 381.489 324.151 380.489 319.151 379.489C 310.151 378.489 303.151 382.489 295.151 386.489C 304.151 374.489 312.151 362.489 322.151 350.489z"/>
<g>
<path fill="none" stroke-width="6" stroke="#000000" d="M 261.425 407.466C 270.009 412.693 263.773 424.273 261.152 431.065C 255.715 443.248 243.29 451.41 237.853 463.593C 233.424 472.78 234.192 483.382 238.363 492.795C 241.54 500.204 249.521 506.229 256.118 507.449C 269.912 509.091 280.154 495.523 285.591 483.34C 287.61 477.346 286.436 468.943 284.855 462.738C 282.28 454.53 278.907 445.72 280.534 436.925C 281.95 431.729 284.164 427.136 286.378 422.543C 291.002 414.757 298.412 411.58 306.424 407.605C 291.424 407.558 277.027 406.714 261.425 407.466z"/>
<path fill="none" stroke-width="6" stroke="#000000" d="M 257.01 432.715C 257.01 432.715 248.833 425.29 240.218 430.063"/>
<path fill="none" stroke-width="6" stroke="#000000" d="M 224.415 452.366C 223.915 454.476 223.608 456.637 223.53 458.812C 223.092 471.01 235.471 477.848 235.471 477.848"/>
</g>
<path fill="none" stroke-width="6" stroke="#000000" d="M 365.963 333.927L 364.963 351.927L 384.963 358.927L 394.963 342.927L 365.963 333.927z"/>
<path fill="none" stroke-width="6" stroke="#000000" d="M 344.963 362.177C 344.963 362.177 343.963 351.177 352.963 347.177C 356.338 345.677 360.416 344.88 364.723 344.839"/>
<path fill="none" stroke-width="6" stroke="#000000" d="M 388.015 352.859C 395.675 360.196 393.963 372.177 393.963 372.177"/>
<path fill="none" stroke-width="6" stroke="#000000" d="M 233.63 422.927L 246.963 438.593L 231.297 457.927L 215.963 447.927L 233.63 422.927z"/>
</g>
<g>
<path fill="#ff9f3f" stroke="none" d="M 229.802 149.317C 229.802 149.317 237.396 178.845 239.182 190.563C 240.969 202.28 244.542 222.903 244.542 222.903C 244.542 222.903 274.917 221.966 287.424 222.435C 299.931 222.903 345.938 225.715 345.938 225.715C 345.938 225.715 350.852 198.531 354.872 191.031C 358.892 183.532 373.632 148.848 373.632 148.848C 373.632 148.848 355.765 169.002 350.852 177.439C 345.938 185.876 338.792 210.717 338.792 210.717L 324.051 209.78L 327.178 193.375L 323.158 190.563L 315.118 208.842L 310.651 208.373C 310.651 208.373 311.991 180.251 309.311 170.408C 306.631 160.566 295.017 135.256 295.017 135.256C 295.017 135.256 282.063 160.097 280.723 169.94C 279.383 179.782 277.597 206.967 277.597 206.967L 266.43 190.094L 261.963 191.969L 265.983 206.499L 253.029 206.499C 253.029 206.499 248.116 177.908 244.096 169.94C 240.076 161.972 229.802 149.317 229.802 149.317z"/>
<g>
<path fill="none" stroke-width="3" stroke="#ffbf7f" d="M 296.245 183.376L 295.501 198.374"/>
<path fill="none" stroke-width="3" stroke="#ffbf7f" d="M 292.672 198.062L 298.479 198.062"/>
<path fill="none" stroke-width="3" stroke="#ffbf7f" d="M 288.354 186.657L 288.652 183.063L 304.286 183.532L 303.839 187.282"/>
</g>
<g>
<path fill="none" stroke-width="3" stroke="#ff7f00" d="M 294.905 181.97L 294.161 196.968"/>
<path fill="none" stroke-width="3" stroke="#ff7f00" d="M 291.332 196.656L 297.139 196.656"/>
<path fill="none" stroke-width="3" stroke="#ff7f00" d="M 287.014 185.251L 287.312 181.657L 302.946 182.126L 302.499 185.876"/>
</g>
<g>
<path fill="none" stroke-width="3" stroke="#ffbf7f" d="M 295.966 167.167C 294.775 167.479 294.775 169.666 295.371 169.979C 296.264 170.604 298.051 170.604 298.944 169.979C 301.029 169.041 301.029 165.604 300.135 163.729C 298.646 160.917 294.775 161.23 291.797 161.23C 289.713 164.354 288.819 168.416 289.117 172.166C 292.393 175.291 296.86 176.541 301.029 175.291C 301.922 174.978 302.518 173.728 303.113 172.478"/>
<path fill="none" stroke-width="3" stroke="#ff7f00" d="M 294.608 166.385C 293.416 166.698 293.416 168.885 294.012 169.198C 294.905 169.822 296.692 169.822 297.585 169.198C 299.67 168.26 299.67 164.823 298.777 162.948C 297.288 160.136 293.416 160.448 290.439 160.448C 288.354 163.573 287.461 167.635 287.759 171.385C 291.034 174.51 295.501 175.759 299.67 174.51C 300.563 174.197 301.159 172.947 301.754 171.697"/>
</g>
<g>
<path fill="none" stroke-width="3" stroke="#ffbf7f" d="M 286.195 208.373C 285.302 206.87 285.451 204.389 286.493 203.374C 287.535 202.358 291.537 203.667 291.853 205.561C 292.17 207.456 291.313 211.225 290.066 212.123C 288.819 213.021 287.014 213.373 285.6 213.373"/>
<path fill="none" stroke-width="3" stroke="#ffbf7f" d="M 304.226 208.666C 305.119 207.163 304.97 204.682 303.928 203.667C 302.885 202.651 298.884 203.96 298.568 205.854C 298.251 207.748 299.107 211.518 300.354 212.416C 301.601 213.314 303.407 213.666 304.821 213.666"/>
</g>
<g>
<path fill="none" stroke-width="3" stroke="#ff7f00" d="M 284.743 207.124C 283.85 205.62 283.999 203.14 285.041 202.124C 286.084 201.109 290.085 202.417 290.401 204.311C 290.718 206.206 289.862 209.975 288.615 210.873C 287.368 211.772 285.562 212.123 284.148 212.123"/>
<path fill="none" stroke-width="3" stroke="#ff7f00" d="M 302.774 207.417C 303.667 205.913 303.518 203.433 302.476 202.417C 301.434 201.401 297.432 202.71 297.116 204.604C 296.799 206.499 297.656 210.268 298.903 211.166C 300.15 212.064 301.955 212.416 303.369 212.416"/>
</g>
<path fill="#dfffbf" stroke-width="3" stroke="#00ff00" d="M 294.645 147.129L 291.741 151.348L 294.719 155.41L 297.548 151.348L 294.645 147.129z"/>
<path fill="#dfffbf" stroke-width="3" stroke="#00ff00" d="M 295.017 209.78L 290.997 214.467L 295.017 219.154L 298.144 214.467L 295.017 209.78z"/>
<path fill="#dfffbf" stroke-width="3" stroke="#00ff00" d="M 351.745 211.654L 347.278 216.341L 349.512 221.029L 355.319 217.747L 351.745 211.654z"/>
<path fill="#dfffbf" stroke-width="3" stroke="#00ff00" d="M 244.989 213.529L 240.076 209.311L 236.949 214.935L 241.416 219.154L 244.989 213.529z"/>
<path fill="#dfffbf" stroke-width="3" stroke="#00ff00" d="M 265.536 211.654L 266.876 215.521L 265.09 218.685L 260.679 215.521L 265.536 211.654z"/>
<path fill="#dfffbf" stroke-width="3" stroke="#00ff00" d="M 324.945 213.412L 323.604 217.279L 325.391 220.443L 329.802 217.279L 324.945 213.412z"/>
<path fill="#ffbfdf" stroke-width="2" stroke="#ff007f" d="M 287.535 179.665L 285.413 181.657L 287.089 183.532L 289.21 181.892L 287.535 179.665z"/>
<path fill="#ffbfdf" stroke-width="2" stroke="#ff007f" d="M 303.336 179.9L 301.215 181.892L 302.89 183.766L 305.012 182.126L 303.336 179.9z"/>
<path fill="#ffbfdf" stroke-width="2" stroke="#ff007f" d="M 294.459 194.488L 292.337 196.48L 294.012 198.355L 296.134 196.714L 294.459 194.488z"/>
</g>
<g>
<path fill="none" stroke-width="6" stroke="#000000" d="M 244.989 223.841C 244.989 223.841 283.85 221.497 294.124 221.966C 304.397 222.435 346.385 225.247 346.385 225.247C 346.385 225.247 355.021 184.938 360.381 173.064C 365.632 161.433 374.526 146.504 374.526 146.504C 374.526 146.504 352.639 170.877 347.725 184.001C 342.812 197.125 338.94 211.186 338.94 211.186C 338.94 211.186 330.305 210.248 321.371 210.248C 312.438 210.248 310.651 209.311 310.651 209.311C 310.651 209.311 313.331 187.75 308.864 169.471C 304.397 151.191 295.017 132.912 295.017 132.912C 295.017 132.912 283.403 154.941 281.17 169.94C 278.937 184.938 277.597 209.311 277.597 209.311C 277.597 209.311 263.303 208.373 257.496 208.842C 251.689 209.311 253.029 208.842 253.029 208.842C 253.029 208.842 249.605 186.344 244.245 171.814C 238.885 157.285 224.963 141.427 224.963 141.427C 224.963 141.427 237.396 170.877 239.629 184.001C 241.862 197.125 244.989 223.841 244.989 223.841z"/>
<path fill="none" stroke-width="6" stroke="#000000" d="M 266.876 208.061L 262.112 192.438L 266.876 190.563L 274.619 206.811"/>
<path fill="none" stroke-width="6" stroke="#000000" d="M 316.011 209.311L 322.711 191.5L 326.731 193.844L 324.498 208.842"/>
</g>
<g>
<path fill="none" stroke-width="8" stroke="#0000ff" d="M 147.594 44.9335L 76.7934 115.659"/>
<path fill="none" stroke-width="8" stroke="#0000ff" d="M 76.7934 44.9335L 147.594 115.659"/>
<path fill="none" stroke-width="8" stroke="#0000ff" d="M 178.153 41.9268L 178.153 117.926"/>
<path fill="none" stroke-width="8" stroke="#0000ff" d="M 217.963 41.9268L 217.963 117.926"/>
<path fill="none" stroke-width="8" stroke="#0000ff" d="M 257.963 41.9268L 257.963 117.926"/>
<path fill="none" stroke-width="8" stroke="#0000ff" d="M 297.963 41.9268L 297.963 117.926"/>
</g>
<g>
<path fill="none" stroke-width="1" stroke="#3f9f3f" d="M 578.875 444.635L 578.797 445.26"/>
<path fill="none" stroke-width="3" stroke="#3f9f3f" d="M 433.088 448.677L 584.963 466.802"/>
<path fill="none" stroke-width="3" stroke="#3f9f3f" d="M 492.463 478.052L 499.963 456.802L 509.963 478.677"/>
<path fill="none" stroke-width="3" stroke="#3f9f3f" d="M 448.088 420.552C 443.088 422.427 441.213 428.052 443.713 431.177C 444.963 433.677 449.963 433.052 451.838 431.802C 454.338 430.552 453.87 424.927 453.088 423.052C 452.307 421.177 449.807 420.552 448.557 420.552"/>
<path fill="none" stroke-width="3" stroke="#3f9f3f" d="M 444.963 433.677C 444.963 438.677 444.963 444.302 444.963 449.302"/>
<path fill="none" stroke-width="3" stroke="#3f9f3f" d="M 454.963 451.802C 454.338 456.177 452.463 460.552 450.588 464.927C 451.838 464.927 453.557 465.552 454.807 465.552"/>
<path fill="none" stroke-width="3" stroke="#3f9f3f" d="M 458.557 452.583C 458.557 455.076 459.651 463.833 459.651 463.833C 459.651 463.833 462.307 463.989 464.338 463.677"/>
<path fill="none" stroke-width="3" stroke="#3f9f3f" d="M 444.963 437.427C 444.963 437.427 450.432 446.645 454.963 449.927"/>
<path fill="none" stroke-width="3" stroke="#3f9f3f" d="M 574.963 436.177C 570.432 436.177 567.463 443.052 570.588 448.052C 571.838 450.552 576.838 451.177 579.963 449.302C 583.088 447.427 581.995 440.552 581.057 438.989C 580.12 437.427 576.361 436.177 574.963 436.177z"/>
<path fill="none" stroke-width="3" stroke="#3f9f3f" d="M 575.588 449.927C 575.588 455.552 575.588 466.177 575.588 466.177L 564.963 474.302C 564.963 474.302 573.088 474.927 577.463 474.927C 577.463 475.552 577.463 477.114 577.463 477.739"/>
<path fill="none" stroke-width="3" stroke="#3f9f3f" d="M 561.838 461.177C 566.838 461.802 571.526 458.052 575.12 455.395"/>
<path fill="none" stroke-width="3" stroke="#3f9f3f" d="M 574.963 454.145C 571.838 454.145 564.338 452.427 564.338 452.427L 560.588 448.677"/>
<path fill="none" stroke-width="3" stroke="#3f9f3f" d="M 566.838 481.177C 568.713 481.177 571.213 479.77 571.213 479.77C 571.213 479.77 566.37 471.489 565.901 466.333L 575.276 465.395"/>
<path fill="none" stroke-width="3" stroke="#3f9f3f" d="M 443.088 426.385C 443.088 426.385 441.838 430.135 438.922 431.802C 436.005 433.468 433.088 432.635 433.088 432.635"/>
<path fill="none" stroke-width="3" stroke="#3f9f3f" d="M 450.588 432.218C 450.588 432.218 450.172 435.552 452.255 436.802"/>
<path fill="none" stroke-width="1" stroke="#3f9f3f" d="M 434.495 435.708L 436.916 429.536L 434.807 429.458L 437.229 435.786L 434.495 435.708z"/>
<path fill="none" stroke-width="1" stroke="#3f9f3f" d="M 448.479 435.239L 449.104 436.88L 454.338 431.958L 454.807 434.458L 448.479 435.239z"/>
<path fill="none" stroke-width="1.5" stroke="#3f9f3f" d="M 447.932 425.083L 447.932 426.958"/>
<path fill="none" stroke-width="1.5" stroke="#3f9f3f" d="M 451.057 424.77L 450.979 426.958"/>
<path fill="none" stroke-width="1.5" stroke="#3f9f3f" d="M 446.057 429.458C 446.057 429.458 446.682 430.473 448.245 430.395C 449.807 430.317 450.901 429.223 450.901 429.223"/>
<path fill="none" stroke-width="3" stroke="#00ff7f" d="M 476.35 529.708L 589.276 516.231"/>
<path fill="none" stroke-width="3" stroke="#00ff7f" d="M 452.401 562.481C 447.401 560.606 445.526 554.981 448.026 551.856C 449.276 549.356 454.276 549.981 456.151 551.231C 458.651 552.481 458.182 558.106 457.401 559.981C 456.62 561.856 454.12 562.481 452.87 562.481"/>
<path fill="none" stroke-width="3" stroke="#00ff7f" d="M 449.213 549.802C 449.213 544.802 449.213 545.802 449.213 540.802"/>
<path fill="none" stroke-width="3" stroke="#00ff7f" d="M 447.401 556.648C 447.401 556.648 446.151 552.898 443.234 551.231C 440.317 549.564 437.401 550.398 437.401 550.398"/>
<path fill="none" stroke-width="3" stroke="#00ff7f" d="M 454.901 550.814C 454.901 550.814 454.484 547.481 456.567 546.231"/>
<path fill="none" stroke-width="1" stroke="#00ff7f" d="M 438.807 547.325L 441.229 553.497L 439.12 553.575L 441.541 547.247L 438.807 547.325z"/>
<path fill="none" stroke-width="1" stroke="#00ff7f" d="M 452.791 547.794L 453.416 546.153L 458.651 551.075L 459.12 548.575L 452.791 547.794z"/>
<path fill="none" stroke-width="1.5" stroke="#00ff7f" d="M 452.245 557.95L 452.245 556.075"/>
<path fill="none" stroke-width="1.5" stroke="#00ff7f" d="M 455.37 558.262L 455.291 556.075"/>
<path fill="none" stroke-width="1.5" stroke="#00ff7f" d="M 450.37 553.575C 450.37 553.575 450.995 552.559 452.557 552.637C 454.12 552.715 455.213 553.809 455.213 553.809"/>
<path fill="none" stroke-width="1.5" stroke="#3f9f3f" d="M 573.245 440.63L 572.776 443.598"/>
<path fill="none" stroke-width="1.5" stroke="#3f9f3f" d="M 575.823 441.255L 575.51 444.302"/>
<path fill="none" stroke-width="1.5" stroke="#3f9f3f" d="M 570.276 445.395C 570.276 445.395 573.479 448.208 574.885 447.895C 576.292 447.583 577.542 446.802 577.542 446.802"/>
<path fill="none" stroke-width="1" stroke="#3f9f3f" d="M 577.052 445.052L 577.052 445.833"/>
<path fill="none" stroke-width="1" stroke="#3f9f3f" d="M 578.474 442.906L 578.63 443.843"/>
</g>
</svg>