<svg xmlns="http://www.w3.org/2000/svg"
	xmlns:xlink="http://www.w3.org/1999/xlink"
	viewBox="10.0 5.9 577 792"
	width="612.408" height="797.927">
<g>
<path fill="#00ff7f" stroke="none" d="M 586.963 797.927L 586.963 5.92657L 9.96337 5.92657L 9.96337 797.927L 586.963 797.927z"/>
</g>
<g>
<path fill="#bfffff" stroke="none" d="M 58.3384 337.677C 69.5884 323.677 70.9634 305.302 73.3384 288.052L 76.2134 281.802C 76.9634 280.302 77.2134 278.427 76.9634 276.677L 76.4634 273.927C 76.0884 270.927 73.4634 268.052 74.0884 265.802C 78.4634 250.927 75.3384 236.177 75.8384 221.677C 76.2134 209.552 77.7134 196.802 75.2134 183.927C 73.7134 176.052 80.4634 168.927 79.7134 160.677C 78.4634 146.427 78.5884 132.427 78.4634 118.302C 78.3384 110.927 74.9634 104.302 73.4634 96.9266C 72.3384 91.4266 73.7134 85.9266 72.3384 80.3016C 71.2134 76.1766 69.7134 72.3016 67.5884 68.6766L 67.5884 63.6766L 65.7134 77.4266L 68.5884 73.1766C 72.2134 67.8016 73.3384 61.3016 73.2134 55.0516C 73.0884 48.8016 69.9634 42.4266 70.9634 37.0516C 73.5884 20.8016 70.9009 5.86407 70.9009 5.86407L 41.7134 5.86407C 42.9634 13.3641 42.5884 10.9891 43.2134 15.3016C 44.6079 24.9238 41.4634 34.8016 41.9634 44.6766C 42.0884 47.8016 43.5884 50.9266 44.2134 54.1766L 42.0884 60.3016C 40.5884 62.4266 39.5884 64.9266 39.3384 67.6766L 39.9634 77.5516C 41.0884 80.4266 42.9634 83.0516 43.4634 85.9266C 45.3384 97.1766 47.8384 107.177 50.3384 118.427C 53.3384 131.802 51.7134 145.052 52.9634 158.552C 53.7134 167.802 47.7134 176.302 48.8384 185.927C 49.3384 190.427 51.7134 194.552 52.0884 198.677C 53.5884 215.177 53.4634 230.427 57.9634 246.927C 59.4634 252.427 56.7134 258.927 56.3384 265.052C 56.0884 268.552 57.2134 271.927 58.7134 275.177L 59.7134 279.677L 60.3384 274.802L 57.2134 281.677C 56.7134 285.177 54.2134 288.177 54.7134 291.802C 56.0884 300.927 53.3384 308.802 51.9634 317.552C 50.8384 324.052 54.3384 330.177 55.5884 336.552C 55.2134 337.302 55.5884 338.177 56.3384 338.552C 57.0884 338.802 57.9634 338.427 58.3384 337.677L 58.3384 337.677z"/>
<path fill="#bfffff" stroke="none" d="M 9.90157 247.676C 10.8582 251.395 12.4977 254.977 14.9634 258.302C 14.9634 259.427 15.8384 260.427 16.9634 260.427C 18.0884 260.427 18.9634 259.427 18.9634 258.302L 18.9634 258.302C 25.9634 250.427 23.0884 237.927 31.5884 230.677C 33.0884 217.427 39.0884 204.802 37.3384 191.427C 35.5884 176.677 35.4634 162.302 32.7134 147.927C 39.3384 128.802 35.2134 108.552 34.7134 89.0516C 34.2134 74.8016 34.8384 60.5516 35.3384 46.3016C 35.7134 36.6766 28.2134 28.9266 29.5884 19.3016C 30.5884 12.0516 33.5051 12.9266 35.6301 5.92657L 9.90087 5.92657L 9.96337 46.4266C 11.0884 69.0516 8.46337 90.6766 12.7134 113.802C 14.9634 125.927 9.83837 136.802 10.0884 148.427C 10.3384 165.677 16.0884 182.677 15.3384 199.927C 15.2134 203.802 12.7134 208.052 12.3384 212.427C 11.9634 215.427 13.4634 218.677 12.5884 220.802C 11.4903 223.589 10.5888 226.459 9.94527 229.36L 9.90087 247.427L 9.90157 247.676z"/>
<path fill="#bfffff" stroke="none" d="M 49.9634 5.80157C 47.9634 25.5516 36.9634 42.4266 33.0884 61.5516L 33.0884 61.5516C 32.9634 62.5516 31.9634 63.3016 30.9634 63.1766C 29.9634 62.9266 29.2134 62.0516 29.4634 60.9266C 29.9634 42.4266 31.7759 24.3641 31.0259 5.86407L 49.9634 5.80157z"/>
<path fill="#bfffff" stroke="none" d="M 212.401 5.86407C 212.401 28.2391 208.713 49.9266 206.463 72.4266C 205.588 82.1766 208.213 92.3016 209.213 102.302C 213.338 140.927 219.463 180.177 204.088 217.177L 204.088 217.177C 204.088 217.802 203.588 218.302 202.963 218.302C 202.338 218.302 201.838 217.802 201.838 217.177C 197.213 207.052 194.213 195.927 195.338 185.177C 198.213 157.552 193.213 131.302 187.088 104.302C 184.838 94.0516 180.088 83.6766 180.713 73.4266C 182.169 50.7392 183.036 28.0519 186.629 5.59308L 212.401 5.86407z"/>
<path fill="#bfffff" stroke="none" d="M 213.724 5.9635C 211.468 8.85327 210.572 12.7487 211.713 16.5516L 211.838 13.5516C 214.338 28.1766 209.713 43.6766 216.713 57.4266C 219.088 91.4266 221.588 125.302 225.838 159.177C 225.838 159.677 226.338 160.177 226.963 160.177C 227.588 160.177 228.088 159.677 228.088 159.177L 228.088 159.177C 232.338 124.802 237.213 90.3016 236.213 55.6766C 235.838 43.9266 234.963 32.0516 235.713 19.9266C 235.963 16.5516 234.588 13.1766 234.213 9.80157C 233.755 8.30396 232.904 7.08148 231.963 5.92657L 213.724 5.9635z"/>
<path fill="#bfffff" stroke="none" d="M 262.51 5.87299C 263.713 7.98859 264.348 10.456 264.213 13.0516C 261.713 29.5516 262.088 46.1766 261.463 62.8016C 269.213 81.5516 267.838 101.427 267.463 121.177C 266.713 157.177 266.088 193.177 259.338 228.802L 259.338 228.802C 259.463 229.427 259.088 230.052 258.463 230.302C 257.838 230.427 257.213 230.052 256.963 229.427C 254.463 226.677 253.463 222.927 253.088 219.802C 249.213 174.302 256.088 129.177 241.963 85.0516C 234.338 61.1766 234.588 35.1766 239.838 11.3016L 237.713 11.6766C 237.857 9.56268 238.472 7.60278 239.449 5.89105L 262.51 5.87299z"/>
<path fill="#bfffff" stroke="none" d="M 268.521 5.9007C 266.324 8.07574 264.963 11.0929 264.963 14.4266L 266.588 17.1766C 262.338 61.6766 273.088 105.427 268.963 150.427C 268.338 157.427 272.338 163.677 273.838 170.302C 273.838 170.927 274.338 171.427 274.963 171.427C 275.588 171.427 276.088 170.927 276.088 170.302L 276.088 170.302C 279.338 161.677 281.838 152.677 282.588 143.677C 286.088 100.427 288.338 57.5516 288.963 14.4266C 288.963 11.1141 287.62 8.11407 285.448 5.9422"/>
<path fill="#bfffff" stroke="none" d="M 285.448 5.9422C 283.276 3.77039 280.276 2.42657 276.963 2.42657C 273.672 2.42657 270.689 3.75317 268.521 5.9007"/>
<path fill="#bfffff" stroke="none" d="M 289.064 5.89148C 288.324 7.41827 287.926 9.13336 287.963 10.9266C 290.963 31.8016 286.338 52.4266 290.713 73.5516C 294.713 92.4266 297.838 109.552 295.213 127.927C 292.963 143.052 293.463 159.177 299.838 173.177C 299.838 173.802 300.338 174.302 300.963 174.302C 301.588 174.302 302.088 173.802 302.088 173.177L 302.088 173.177C 311.588 153.677 306.338 130.927 313.088 110.552C 310.588 77.1766 315.338 43.5516 309.963 10.4266C 309.93 8.80737 309.541 7.27008 308.871 5.89087"/>
<path fill="#bfffff" stroke="none" d="M 316.833 5.85736C 315.589 9.03259 315.565 12.6872 317.088 16.0516L 319.963 13.4266C 315.588 33.6766 316.213 54.3016 319.963 74.9266C 320.463 77.8016 323.838 80.0516 324.088 82.8016C 326.588 104.552 327.213 125.927 325.338 147.552C 324.588 156.927 327.588 166.052 329.713 175.177C 329.713 175.802 330.213 176.427 330.963 176.427C 331.713 176.427 332.213 175.802 332.213 175.177L 332.213 175.177C 349.838 145.802 340.588 109.552 345.963 77.1766C 341.213 56.3016 346.088 34.6766 343.838 12.9266C 343.607 10.4943 342.194 8.16919 341.193 5.85205"/>
<path fill="#bfffff" stroke="none" d="M 349.383 5.9314C 347.399 7.12347 345.773 8.96436 344.838 11.3016L 342.838 11.8016C 344.213 23.1766 340.338 34.0516 340.088 45.3016C 339.838 52.9266 344.088 60.4266 341.838 68.9266C 340.338 74.4266 346.588 79.5516 345.963 85.9266C 345.963 86.4266 346.463 86.9266 346.963 86.9266C 347.463 86.9266 347.963 86.4266 347.963 85.9266L 347.963 85.9266C 354.463 63.8016 359.213 41.4266 365.088 19.1766C 367.014 14.1937 364.937 8.49255 360.44 5.8844"/>
<path fill="#bfffff" stroke="none" d="M 360.44 5.8844C 359.973 5.61377 359.48 5.3764 358.963 5.17657C 355.676 3.86145 352.174 4.25446 349.383 5.9314"/>
<path fill="#bfffff" stroke="none" d="M 369.035 5.86877C 368.542 7.23907 368.33 8.73938 368.463 10.3016L 364.963 12.0516C 379.213 55.1766 376.088 98.8016 384.963 144.677C 385.588 147.427 387.588 149.677 389.838 151.677C 390.088 152.302 390.838 152.552 391.463 152.302C 392.088 152.052 392.463 151.302 392.088 150.677L 392.088 150.677C 399.713 103.302 407.463 53.4266 391.713 6.92657C 390.963 7.55157 390.213 8.05157 389.463 8.67657C 389.398 7.67688 389.189 6.71875 388.859 5.81995"/>
<path fill="#bfffff" stroke="none" d="M 397.709 5.74109C 397.424 6.94995 397.37 8.23907 397.588 9.55157L 395.588 14.4266C 397.713 25.6766 396.588 37.3016 400.463 48.3016L 402.463 53.8016L 401.963 47.4266L 402.713 45.9266C 397.838 67.5516 398.463 90.8016 407.713 111.177C 407.713 111.802 408.338 112.302 408.963 112.302C 409.588 112.302 410.213 111.802 410.213 111.177L 410.213 111.177C 418.838 93.1766 417.713 72.9266 421.338 53.8016L 423.338 49.8016C 423.338 48.4266 423.088 47.0516 422.588 45.8016L 421.963 44.1766C 417.713 31.6766 426.088 18.4266 416.338 6.30157C 416.311 6.13885 416.279 5.97778 416.243 5.81836"/>
<path fill="#bfffff" stroke="none" d="M 421.007 5.84735C 420.978 6.16138 420.963 6.47955 420.963 6.80157L 417.213 8.42657C 419.963 33.9266 425.213 58.5516 429.088 84.4266C 432.713 109.677 431.838 134.552 431.088 159.802C 430.338 184.052 434.713 208.427 433.088 233.052C 431.713 251.802 438.588 270.552 435.713 289.802C 435.713 290.427 436.088 291.052 436.838 291.177C 437.463 291.177 438.088 290.802 438.213 290.052L 438.213 290.052C 447.338 250.677 457.213 210.927 451.338 169.427C 450.463 163.177 452.713 156.677 452.838 150.677C 453.588 116.927 454.963 83.5516 448.963 49.4266C 447.963 42.9266 449.088 36.3016 446.838 29.6766C 445.463 25.5516 447.338 19.9266 446.338 14.9266C 445.838 11.6766 446.463 6.92657 440.963 6.67657C 440.963 6.39465 440.952 6.11536 440.928 5.83905"/>
<path fill="#bfffff" stroke="none" d="M 451.273 5.9071C 449.622 7.43677 448.588 9.6236 448.588 12.0516L 444.088 10.4266C 444.088 11.8016 444.213 13.3016 444.213 14.6766L 444.338 19.1766C 444.463 21.8016 445.338 24.4266 447.088 26.5516L 447.088 25.6766C 447.838 27.0516 448.713 28.3016 449.463 29.6766L 454.463 36.8016L 452.338 29.5516L 450.963 35.3016C 448.213 45.5516 447.963 56.4266 452.088 67.9266C 460.338 90.6766 453.338 115.677 462.213 138.552C 463.713 183.427 459.963 228.177 461.963 273.177C 461.963 273.677 462.463 274.177 462.963 274.177C 463.463 274.177 463.963 273.677 463.963 273.177L 463.963 273.177C 470.088 228.802 480.588 184.802 478.963 139.802C 478.213 118.302 478.963 97.3016 478.088 75.8016C 477.713 69.1766 475.338 62.6766 473.338 56.0516C 471.088 48.5516 475.088 42.1766 477.088 34.9266L 477.463 30.3016C 477.588 27.6766 476.838 25.1766 475.463 23.0516L 474.838 22.5516C 474.088 19.3016 472.088 16.9266 469.463 14.9266L 468.963 14.1766L 469.838 18.1766L 469.713 16.4266C 468.213 14.9266 466.838 13.4266 465.338 11.9266C 465.338 9.52435 464.27 7.33588 462.57 5.8175"/>
<path fill="#bfffff" stroke="none" d="M 513.175 5.90845C 513.759 7.34808 514.09 8.87329 514.129 10.4571L 512.124 9.966C 525.041 30.9193 517.247 51.2178 510.12 73.1533C 509.229 75.6087 512.347 78.5553 512.793 81.3382C 515.465 101.964 509.675 122.263 512.793 142.725C 515.91 161.714 501.88 178.411 494.308 195.926C 494.308 197.072 493.195 197.891 491.636 197.891C 490.077 197.891 488.963 197.072 488.963 195.926L 488.963 195.926C 482.95 183.813 474.265 170.553 481.169 157.457C 474.042 151.073 476.492 142.561 475.156 135.522C 468.92 102.619 463.353 70.6978 474.488 37.1398C 477.383 28.955 469.143 19.9516 469.143 10.6208C 469.143 8.9632 469.47 7.3645 470.081 5.85748"/>
<path fill="#bfffff" stroke="none" d="M 509.356 5.91608C 508.183 8.69849 508.227 11.9705 509.713 14.8016C 511.213 27.1766 516.088 37.9266 515.838 50.4266L 518.588 57.5516L 519.088 49.8016L 514.838 60.8016L 514.838 60.6766C 514.838 62.1766 514.963 63.5516 514.963 65.0516L 512.213 80.9266C 512.588 83.6766 513.838 86.1766 515.838 88.0516L 515.338 76.9266L 515.338 77.0516L 512.338 84.6766C 510.588 88.8016 511.213 93.5516 513.963 97.0516L 515.713 99.0516L 513.213 93.3016L 514.838 99.4266C 515.088 98.9266 515.338 98.5516 515.588 98.0516C 514.838 101.052 513.838 104.052 513.713 107.052C 512.963 152.302 517.963 197.302 514.963 242.552C 514.588 248.427 517.588 253.677 519.588 259.177C 519.588 259.927 520.213 260.427 520.963 260.427C 521.713 260.427 522.338 259.927 522.338 259.177L 522.338 259.177C 525.838 252.177 527.213 244.677 528.838 237.052C 539.213 189.802 532.838 145.052 538.463 98.4266C 538.838 95.3016 537.463 92.1766 536.463 89.1766L 536.963 89.6766C 536.588 87.6766 535.838 85.6766 534.463 84.0516L 532.838 81.9266L 534.463 94.3016L 535.713 91.4266C 535.838 91.3016 535.838 91.1766 535.838 91.1766L 535.713 83.8016C 536.463 81.9266 536.713 79.8016 536.463 77.8016L 535.463 81.3016C 537.838 75.6766 539.088 69.9266 539.088 63.8016L 542.463 54.4266C 542.463 53.3016 542.338 52.3016 541.963 51.1766L 539.713 45.0516C 538.376 32.1675 539.521 15.3831 529.127 5.84637"/>
<path fill="#bfffff" stroke="none" d="M 541.053 5.87335C 539.391 10.8527 533.203 30.674 532.338 52.1766C 537.463 77.0516 538.463 81.8016 536.713 87.0516C 538.213 91.6766 543.588 109.677 540.213 127.052C 544.088 145.552 545.338 151.302 543.088 157.927C 543.713 163.677 545.588 183.427 549.713 201.927C 550.088 221.677 557.713 234.302 552.213 250.677C 553.838 265.177 554.088 268.177 556.588 270.927C 556.088 274.052 554.088 288.677 553.713 302.552C 554.338 317.052 554.838 326.677 558.713 335.302C 557.838 344.927 557.838 345.552 558.338 346.052C 558.963 346.052 559.588 346.052 560.088 345.552C 560.088 344.927 558.963 305.552 562.838 266.302C 563.463 227.177 564.588 165.677 569.838 103.802C 559.588 42.8016 562.963 32.5516 562.338 21.3016C 559.213 10.9266 559.213 10.9266 556.213 9.05157L 556.213 9.05157C 556.213 9.05157 556.213 9.05157 556.588 8.55157C 556.588 8.55157 556.713 7.67657 556.963 6.67657C 556.989 6.49457 557.037 6.17749 557.071 5.75439"/>
<path fill="#bfffff" stroke="none" d="M 586.963 387.677C 586.338 387.677 585.838 387.177 585.838 386.552C 585.338 376.677 584.713 367.177 582.963 357.177C 580.838 344.802 584.838 332.802 583.088 320.177C 582.713 317.052 581.463 314.302 580.963 311.052C 579.963 303.552 584.588 296.302 582.088 289.552C 579.588 282.677 578.463 275.802 578.463 269.052C 578.338 242.052 575.713 215.677 572.588 188.677C 572.088 184.677 569.463 180.802 569.963 176.552C 571.088 164.802 565.838 155.052 564.838 143.677C 564.838 142.552 566.838 141.052 566.463 140.302C 563.213 131.677 562.838 122.802 562.588 114.302C 561.383 78.0352 556.695 41.7689 562.514 5.83826L 587.047 5.92657L 586.963 387.677z"/>
<path fill="#bfffff" stroke="none" d="M 587.309 51.6794C 586.821 46.3848 586.148 41.0554 585.213 35.6766C 584.338 30.8016 581.088 26.6766 578.838 22.3016C 584.005 18.3702 585.438 11.4108 582.501 5.86768"/>
<path fill="#bfffff" stroke="none" d="M 185.463 35.0516C 189.713 28.6766 191.838 21.5516 190.338 13.9266C 191.463 10.4266 189.588 6.92657 186.213 5.80157C 182.838 4.67657 179.213 6.55157 178.088 9.92657L 174.463 11.9266C 173.338 14.9266 173.338 18.4266 175.713 20.1766C 180.713 23.5516 180.713 29.5516 182.088 34.4266C 181.963 35.4266 182.588 36.3016 183.463 36.4266C 184.463 36.5516 185.338 35.9266 185.463 35.0516L 185.463 35.0516z"/>
<path fill="#bfffff" stroke="none" d="M 259.463 18.8016C 253.963 31.8016 251.338 47.8016 257.588 60.8016C 258.088 64.1766 261.213 66.5516 264.713 66.0516C 268.088 65.5516 270.463 62.4266 269.963 59.0516C 275.213 46.9266 270.588 32.1766 267.338 19.5516C 267.588 17.3016 265.963 15.4266 263.713 15.1766C 261.588 15.0516 259.588 16.6766 259.463 18.8016L 259.463 18.8016z"/>
<path fill="#bfffff" stroke="none" d="M 102.276 35.2391C 100.776 42.9266 102.182 50.8016 104.807 58.1141C 105.745 64.3016 111.557 68.5204 117.651 67.4891C 123.838 66.5516 128.057 60.8329 127.12 54.6454C 127.588 46.4891 120.088 41.0516 118.12 33.4579C 117.182 28.9579 112.776 26.0516 108.276 26.9891C 103.776 27.9266 100.87 32.3329 101.807 36.8329L 102.276 35.2391z"/>
<path fill="#bfffff" stroke="none" d="M 260.901 59.7079C 257.526 65.0516 256.87 71.2391 255.276 77.1454C 255.276 83.0516 260.057 87.8329 265.963 87.8329C 271.87 87.8329 276.651 83.0516 276.651 77.1454L 276.651 77.3329C 275.245 71.3329 274.401 65.1454 271.026 59.7079C 271.026 56.8954 268.776 54.6454 265.963 54.6454C 263.151 54.6454 260.901 56.8954 260.901 59.7079L 260.901 59.7079z"/>
<path fill="#bfffff" stroke="none" d="M 144.557 77.8954C 140.901 81.0829 144.557 85.4891 142.401 89.3329C 143.151 94.5829 148.12 98.2391 153.37 97.3954C 158.713 96.6454 162.37 91.6766 161.526 86.4266L 160.495 84.4579C 159.557 82.1141 158.057 80.0516 156.463 78.0829C 156.557 74.8016 153.932 72.0829 150.651 71.9891C 147.37 71.8954 144.651 74.5204 144.557 77.8954L 144.557 77.8954z"/>
<path fill="#bfffff" stroke="none" d="M 508.963 65.1454C 505.307 68.4266 503.338 72.8329 502.401 77.7079C 499.12 95.1454 501.557 111.458 499.401 128.614C 499.307 129.458 500.245 130.395 500.807 131.333C 500.713 137.52 505.776 142.583 511.963 142.583C 518.151 142.583 523.12 137.614 523.12 131.427L 524.807 130.114C 523.401 108.083 526.963 84.8329 516.838 64.0204C 516.838 62.0516 515.338 60.5516 513.463 60.5516C 511.588 60.5516 510.088 62.0516 510.088 64.0204L 508.963 65.1454z"/>
<path fill="#bfffff" stroke="none" d="M 446.807 32.8954C 445.026 37.8641 444.37 43.6766 447.37 48.4579C 450.463 52.6766 456.37 53.5204 460.588 50.4266C 464.713 47.3329 465.651 41.4266 462.463 37.2079C 458.62 35.3329 455.807 31.4891 451.12 31.3016C 450.651 30.1766 449.338 29.5204 448.213 29.9891C 446.995 30.4579 446.432 31.7704 446.807 32.8954L 446.807 32.8954z"/>
<path fill="#bfffff" stroke="none" d="M 116.253 5.83936C 117.929 8.1889 118.889 11.0796 118.838 14.1766C 119.963 25.6766 114.588 36.5516 106.838 44.5516L 106.963 44.9266L 107.963 32.1766L 108.088 39.0516C 109.838 44.4266 113.338 48.8016 115.463 53.9266L 122.588 64.8016C 125.088 68.8016 125.088 73.9266 122.463 77.8016L 119.838 83.0516C 118.088 85.4266 114.588 88.3016 115.088 89.8016C 116.963 95.5516 121.713 100.427 122.588 107.052C 123.213 111.802 121.463 116.802 123.213 121.177C 132.088 144.427 127.213 168.552 127.963 192.302C 128.463 207.927 123.338 222.802 118.463 237.177L 118.463 237.177C 118.463 237.927 117.838 238.677 116.963 238.677C 116.088 238.677 115.463 237.927 115.463 237.177C 113.713 232.427 111.213 227.802 110.963 222.802C 110.588 215.927 111.463 209.052 109.463 202.427C 105.213 188.177 106.588 173.802 106.713 159.677C 106.713 141.927 101.338 125.177 97.2134 107.427C 96.2134 103.552 92.9634 99.6766 92.0884 94.8016C 90.4634 85.4266 95.2134 77.5516 99.9634 70.1766C 99.8384 70.4266 99.7134 70.5516 99.5884 70.8016L 101.213 67.8016L 102.588 77.6766L 90.7134 60.5516C 86.2134 55.1766 82.7134 49.3016 81.0884 42.4266L 80.9634 37.8016C 80.8384 35.0516 81.5884 32.4266 82.9634 30.1766L 88.0884 23.3016C 90.4634 20.6766 91.0884 17.6766 90.8384 14.3016L 91.0884 13.6766C 91.1362 10.7155 92.0963 8.00977 93.69 5.80359L 116.253 5.83936z"/>
<path fill="#bfffff" stroke="none" d="M 141.698 5.90295C 142.194 7.31488 142.463 8.8371 142.463 10.4266C 142.588 18.8016 141.338 27.0516 143.213 35.4266C 148.213 57.9266 148.838 78.6766 152.713 101.177C 153.463 105.427 150.338 109.927 149.963 114.427C 147.713 151.927 153.338 189.302 150.088 226.802L 150.088 226.802C 150.338 227.427 149.963 228.052 149.338 228.302C 148.713 228.427 147.963 228.052 147.838 227.427C 139.463 217.927 140.963 203.302 141.713 191.802C 143.713 163.552 133.088 137.552 126.963 109.677C 126.463 106.927 128.338 103.677 128.963 100.552C 128.213 101.802 127.338 103.052 126.588 104.302C 122.213 73.0516 114.963 42.0516 115.463 10.4266C 115.463 8.78119 115.752 7.20795 116.282 5.75446L 141.698 5.90295z"/>
<path fill="#bfffff" stroke="none" d="M 93.8062 5.93658C 91.8828 40.2027 76.1589 72.1047 74.7134 106.677L 74.7134 106.677C 74.7134 107.677 73.8384 108.427 72.9634 108.427C 72.0884 108.427 71.2134 107.677 71.2134 106.677C 67.2134 96.1766 65.0884 85.5516 62.3384 74.5516C 56.4579 50.5395 66.907 28.9288 68.267 5.60077L 93.8062 5.93658z"/>
<path fill="#bfffff" stroke="none" d="M 179.156 5.75397C 179.697 8.06158 180.088 10.3691 180.088 12.6766C 179.713 53.5516 174.088 94.4266 185.838 135.177C 188.338 144.177 181.713 153.052 181.588 161.302C 181.213 179.052 185.088 197.302 189.713 214.927C 185.963 253.302 195.463 293.302 183.963 330.677L 183.963 330.677C 184.213 331.677 183.588 332.677 182.588 332.927C 181.588 333.177 180.588 332.552 180.338 331.552C 179.088 330.302 177.338 329.177 176.963 327.677C 169.463 300.302 173.463 273.427 169.463 245.552C 165.338 216.802 155.088 190.302 153.963 161.552C 153.713 154.177 159.963 147.052 158.463 140.427C 147.772 94.4192 153.704 50.4897 152.298 5.75378L 179.156 5.75397z"/>
<path fill="#bfffff" stroke="none" d="M 141.205 5.82397C 140.436 6.69659 139.963 7.82428 139.963 9.05157L 140.588 8.55157C 136.088 13.8016 135.463 20.5516 136.088 26.8016C 137.588 40.6766 133.213 54.4266 137.713 67.9266C 138.463 73.5516 143.463 77.4266 149.088 76.6766C 154.588 76.0516 158.463 70.9266 157.838 65.4266L 155.713 64.5516C 161.338 46.9266 155.463 26.8016 150.213 9.30157C 150.213 7.95245 149.718 6.74097 148.895 5.82208L 141.205 5.82397z"/>
<path fill="#bfffff" stroke="none" d="M 9.90087 5.92657L 587.047 5.92657L 586.963 49.7599L 382.963 35.0933L 368.463 13.4683L 354.963 39.0933L 320.963 37.0933L 314.963 15.0933L 302.963 41.0933L 9.96337 37.4266L 9.90087 5.92657z"/>
</g>
<g>
<path fill="#007f00" stroke="none" d="M 289.463 227.427L 281.463 215.427L 297.963 166.927C 297.963 166.927 305.963 156.927 315.963 145.927C 325.963 134.927 340.963 107.927 340.963 107.927L 381.963 91.9266L 443.963 89.4266L 407.963 110.927L 410.963 122.927L 449.463 245.427L 444.963 252.927L 386.963 289.427L 421.963 308.427C 421.963 308.427 431.963 364.927 441.963 380.427C 451.963 395.927 485.963 425.927 499.963 433.927C 513.963 441.927 535.963 470.427 544.963 481.427C 553.963 492.427 580.463 533.927 580.463 533.927L 549.963 531.427L 513.963 500.427L 550.963 602.427L 507.463 561.927L 483.963 571.427L 485.463 510.427L 436.963 489.427C 436.963 489.427 442.963 442.927 435.963 432.427C 428.963 421.927 412.963 407.427 411.463 402.927C 409.963 398.427 402.463 385.927 400.463 380.927C 398.463 375.927 369.463 347.427 369.463 347.427L 360.463 277.427L 289.463 227.427z"/>
<path fill="#ffffff" stroke="none" d="M 310.297 165.26C 310.297 165.26 354.297 155.927 367.63 157.927C 380.963 159.927 409.63 162.593 412.963 170.593C 416.297 178.593 423.63 211.26 420.963 226.593C 418.297 241.927 409.63 272.593 379.63 276.593C 349.63 280.593 321.63 272.593 309.63 261.927C 297.63 251.26 285.63 233.927 292.297 206.593C 298.963 179.26 310.297 165.26 310.297 165.26z"/>
<path fill="#3f3f9f" stroke="none" d="M 312.297 197.927C 312.297 197.927 327.63 197.927 332.963 203.26C 338.297 208.593 344.963 219.927 338.963 227.927C 332.963 235.927 326.755 241.76 317.63 237.26C 308.505 232.76 300.963 223.927 303.63 215.26C 306.297 206.593 312.297 197.927 312.297 197.927z"/>
<path fill="#7f007f" stroke="none" d="M 323.118 217.376C 321.847 218.431 320.916 220.178 321.932 222.107L 321.904 222.348C 321.932 222.559 322.045 222.77 322.186 222.95L 322.779 223.432L 322.751 223.463C 323.259 223.945 323.88 224.216 324.558 224.276L 325.15 224.306C 325.433 224.306 325.715 224.216 325.941 224.035L 326.195 223.854C 326.223 223.824 326.251 223.794 326.28 223.764L 326.505 223.583C 326.675 223.402 326.816 223.191 326.901 222.92L 326.647 223.252C 328.736 220.751 329.809 216.291 326.731 214.001C 324.783 212.585 322.412 212.404 320.125 212.796L 319.956 212.735C 319.617 212.766 319.307 212.886 319.052 213.127L 318.516 213.639C 315.1 217.918 315.524 224.939 319.617 228.465L 319.307 228.224C 319.476 228.645 319.815 228.947 320.21 229.097L 320.746 229.308C 325.348 231.176 330.684 228.374 332.491 223.553C 334.862 217.225 331.531 211.229 326.195 208.186C 323.344 206.589 319.702 206.558 316.963 208.427C 315.298 209.572 312.757 210.144 312.926 213.218C 312.672 213.85 312.926 214.543 313.491 214.845C 314.084 215.116 314.733 214.845 315.015 214.242C 316.173 212.404 317.923 210.958 320.012 210.566C 325.15 209.572 330.712 214.393 330.006 220.178C 329.526 224.065 326.562 226.898 322.864 226.626L 321.254 225.964L 322.158 226.837L 320.972 225.301C 321.085 225.391 321.198 225.512 321.311 225.602C 318.714 223.191 318.657 219.365 319.984 216.201L 320.887 215.297L 319.984 215.688L 321 215.236C 322.497 215.719 324.445 215.417 325.292 216.683C 325.8 217.406 326.336 218.732 325.348 220.028L 324.303 222.107L 324.699 221.414L 324.529 221.625L 324.614 221.534L 324.36 221.745L 325.15 221.474L 323.174 221.082L 323.993 221.444L 323.824 221.263L 324.134 222.077L 323.682 220.66C 322.666 219.756 323.993 218.882 323.908 217.858C 324.049 217.617 323.965 217.255 323.711 217.105C 323.485 216.954 323.146 217.044 323.005 217.316L 323.118 217.376z"/>
<path fill="#3f3f9f" stroke="none" d="M 364.963 205.26C 364.963 205.26 384.297 201.927 386.297 211.26C 388.297 220.593 390.297 237.26 381.63 240.593C 372.963 243.927 355.63 247.26 353.63 236.593C 351.63 225.927 353.63 212.593 356.963 209.927C 360.297 207.26 364.963 205.26 364.963 205.26z"/>
<path fill="#7f007f" stroke="none" d="M 379.815 230.261C 376.445 233.29 371.094 232.245 366.982 231.609C 361.222 230.686 358.41 223.707 362.113 219.419L 363.444 217.422L 362.509 218.154L 364.327 217.17C 364.236 217.234 364.145 217.299 364.054 217.364C 366.214 215.566 369.7 215.425 372.081 216.925L 374.167 218.397L 373.448 217.323L 373.554 218.093C 374.476 220.598 377.49 223.625 374.353 226.047C 371.907 227.9 369.502 226.486 367.105 225.825L 365.762 224.672L 366.236 225.546L 366.044 224.227C 366.057 224.365 366.1 224.472 366.113 224.61C 366.504 223.29 364.715 221.873 367.415 220.637L 368.25 220.556L 367.41 219.912L 369.114 221.114C 369.146 221.111 369.146 221.111 369.178 221.108L 371.168 222.255L 370.561 221.337L 370.232 222.624C 370.317 222.504 370.438 222.409 370.523 222.289L 370.245 223.097L 371.393 222.233L 370.962 222.47C 370.547 222.538 370.146 222.744 369.951 223.069L 369.787 223.392L 370.799 222.792L 369.777 222.947L 369.777 222.947L 369.584 222.965L 370.48 223.186L 370.226 223.238L 370.226 223.238L 370.124 223.192L 370.124 223.192L 368.683 222.355C 368.83 222.536 369.006 222.686 369.153 222.867C 369.057 222.877 368.961 222.886 368.864 222.895C 368.658 222.776 368.402 222.8 368.222 222.957C 368.078 223.138 368.099 223.359 368.275 223.51L 368.275 223.51C 368.567 223.844 368.861 224.206 369.153 224.54L 368.856 224.485L 368.856 224.485L 368.896 224.565L 368.896 224.565L 368.885 224.789C 369.128 224.961 369.46 225.041 369.781 225.01L 369.974 224.991C 370.006 224.988 370.07 224.982 370.102 224.979L 371.006 224.947C 371.424 224.907 371.791 224.677 371.986 224.351L 372.184 224.053L 372.184 224.053L 372.685 223.865C 372.711 223.807 372.768 223.718 372.792 223.632L 372.894 223.343C 373.573 222.999 373.453 222.425 373.502 221.918L 373.451 221.059C 373.417 220.7 373.189 220.359 372.844 220.141L 372.09 219.712C 371.472 219.353 370.886 218.992 370.266 218.605L 369.717 218.296C 369.61 218.194 369.474 218.124 369.308 218.084L 368.548 217.934C 364.198 217.517 362.013 221.743 362.961 224.858L 363.094 225.905C 363.126 226.236 363.313 226.497 363.562 226.724L 364.228 227.246C 367.553 229.463 372.181 231.08 376.238 228.458C 380.636 225.665 379.463 220.898 377.068 217.56L 377.028 216.81C 376.926 216.43 376.699 216.089 376.322 215.875L 375.806 215.562C 372.367 212.157 366.119 211.894 361.995 214.829L 360.758 215.45C 360.579 215.607 360.4 215.764 360.258 215.973L 360.126 216.292C 355.257 221.251 355.93 229.244 362.128 233.025C 363.572 233.89 364.925 234.819 366.683 234.9C 371.111 235.115 374.502 233.98 378.797 232.478L 379.815 230.261z"/>
<path fill="#ffffff" stroke="none" d="M 172.713 293.677L 155.463 296.677L 171.463 328.177L 197.963 312.927L 194.213 283.427L 170.463 287.177L 172.713 293.677z"/>
<path fill="#ffffff" stroke="none" d="M 186.713 511.177L 182.713 500.677L 209.963 499.677L 228.463 532.427L 193.713 551.677L 176.463 515.427L 186.713 511.177z"/>
<path fill="#bfdfff" stroke="none" d="M 389.963 607.927L 428.963 613.927C 428.963 613.927 413.201 643.584 385.963 659.927C 355.963 677.927 318.895 694.582 287.963 700.927C 248.963 708.927 149.963 691.927 149.963 691.927C 149.963 691.927 270.728 686.608 302.963 670.927C 339.963 652.927 389.963 607.927 389.963 607.927z"/>
<path fill="#ffffff" stroke-width="1" stroke="#7fbfff" d="M 361.463 635.677C 353.338 648.177 352.588 663.739 348.151 677.614C 347.963 678.614 348.651 679.552 349.651 679.739C 350.651 679.927 351.588 679.239 351.776 678.239C 356.901 664.802 357.963 650.302 362.651 636.739C 362.901 636.177 362.588 635.489 362.026 635.239C 361.401 634.989 360.713 635.302 360.463 635.864L 361.463 635.677z"/>
<path fill="#ffffff" stroke-width="1" stroke="#7fbfff" d="M 329.901 656.364C 323.338 664.614 320.588 674.552 316.776 684.177C 316.026 685.927 316.463 687.927 316.213 689.864C 315.588 691.364 316.401 693.114 317.901 693.677C 319.463 694.302 321.213 693.489 321.776 691.989C 322.401 691.302 323.463 690.677 323.526 689.927C 324.526 678.427 331.651 668.927 332.026 657.489C 332.338 656.927 332.088 656.177 331.526 655.864C 330.963 655.552 330.213 655.802 329.901 656.364L 329.901 656.364z"/>
<path fill="#ffffff" stroke-width="1" stroke="#7fbfff" d="M 276.526 681.364C 273.838 688.052 271.213 694.802 268.338 701.427C 268.088 702.864 269.088 704.177 270.526 704.427C 271.963 704.677 273.338 703.739 273.588 702.302C 275.026 695.489 277.963 689.052 278.651 682.052C 278.776 681.489 278.463 680.864 277.901 680.677C 277.338 680.489 276.713 680.802 276.526 681.364L 276.526 681.364z"/>
<path fill="#ffffff" stroke-width="1" stroke="#7fbfff" d="M 265.401 684.864C 260.963 689.364 261.276 696.052 257.713 700.989C 256.713 702.802 257.401 705.114 259.213 706.114C 261.088 707.177 263.401 706.489 264.401 704.614C 267.651 698.989 268.088 692.177 267.713 685.802C 267.963 685.177 267.713 684.427 267.026 684.177C 266.401 683.927 265.713 684.177 265.401 684.864L 265.401 684.864z"/>
<path fill="#ffffff" stroke-width="1" stroke="#7fbfff" d="M 384.776 613.364C 379.526 622.239 376.463 631.864 373.276 641.677C 370.588 649.864 366.776 657.989 366.088 666.427C 365.401 667.989 366.088 669.864 367.713 670.552C 369.276 671.302 371.151 670.552 371.838 668.989C 372.463 668.489 373.401 668.114 373.651 667.427C 379.838 652.614 381.901 637.114 386.651 621.677C 387.401 619.302 386.963 616.677 387.151 614.114C 387.338 613.489 387.026 612.739 386.338 612.552C 385.713 612.302 385.026 612.677 384.776 613.364L 384.776 613.364z"/>
</g>
<g>
<path fill="none" stroke-width="6" stroke="#000000" d="M 348.963 157.427C 332.428 158.46 317.463 160.427 306.963 170.927C 288.963 190.427 291.463 229.927 293.463 241.427C 295.463 252.927 317.463 269.927 335.463 272.927C 353.463 277.427 372.963 280.427 389.463 272.927C 407.463 265.427 417.963 247.427 419.463 227.927C 422.463 206.927 418.463 175.427 410.463 169.427C 402.463 163.427 372.963 155.927 348.963 157.427z"/>
<path fill="none" stroke-width="6" stroke="#000000" d="M 360.963 281.927C 357.963 313.427 368.463 341.927 375.963 373.427C 389.463 424.427 406.963 473.427 406.963 473.427C 406.963 473.427 486.963 619.427 526.963 661.427"/>
<path fill="none" stroke-width="6" stroke="#000000" d="M 213.963 514.427L 310.963 437.927L 366.963 356.927"/>
<path fill="none" stroke-width="6" stroke="#000000" d="M 305.526 204.989C 307.998 196.335 325.026 197.489 331.026 201.989C 341.526 207.989 338.526 222.989 335.526 231.989C 332.526 240.989 314.526 239.489 308.526 233.489C 301.026 227.489 302.526 215.489 305.526 204.989z"/>
<path fill="none" stroke-width="6" stroke="#000000" d="M 385.709 211.739C 383.237 203.085 366.209 204.239 360.209 208.739C 349.709 214.739 352.709 229.739 355.709 238.739C 358.709 247.739 376.709 246.239 382.709 240.239C 390.209 234.239 388.709 222.239 385.709 211.739z"/>
<path fill="none" stroke-width="6" stroke="#000000" d="M 292.963 234.427C 293.963 234.427 299.463 238.427 301.963 240.427C 303.463 241.427 313.963 248.427 317.963 249.927C 334.963 255.427 352.463 258.427 370.463 255.927C 376.463 254.927 382.463 254.427 388.463 251.927C 395.463 248.927 402.463 245.427 409.463 242.927C 411.963 241.427 413.963 238.927 416.463 237.427"/>
<path fill="none" stroke-width="4" stroke="#000000" d="M 305.963 243.927C 305.463 249.927 308.463 255.427 308.963 260.927"/>
<path fill="none" stroke-width="4" stroke="#000000" d="M 327.463 254.427C 326.963 260.427 329.963 265.927 330.463 271.427"/>
<path fill="none" stroke-width="4" stroke="#000000" d="M 350.963 257.427C 351.963 262.927 354.463 268.427 354.463 274.427"/>
<path fill="none" stroke-width="4" stroke="#000000" d="M 373.463 256.427C 373.463 257.427 372.963 258.427 373.463 259.427C 375.963 264.427 376.463 269.927 377.963 275.427"/>
<path fill="none" stroke-width="4" stroke="#000000" d="M 392.463 251.427C 392.463 252.427 392.463 252.927 392.463 253.927C 393.963 258.427 396.963 262.927 396.963 267.927"/>
<path fill="none" stroke-width="4" stroke="#000000" d="M 406.463 246.427C 407.963 249.427 407.463 252.927 409.463 255.427"/>
<path fill="none" stroke-width="6" stroke="#000000" d="M 200.963 257.427C 201.716 265.704 205.963 283.927 204.963 291.927"/>
<path fill="none" stroke-width="6" stroke="#000000" d="M 204.297 301.927C 204.505 312.76 202.903 312.593 198.963 323.427C 190.963 341.427 186.963 363.427 182.963 383.427C 178.963 411.427 178.963 437.427 182.963 463.427C 184.422 472.907 186.412 482.387 189.031 491.77"/>
<path fill="none" stroke-width="6" stroke="#000000" d="M 214.581 547.798C 228.526 565.927 248.213 574.677 270.963 583.427C 274.963 585.427 282.963 589.427 286.963 589.427C 334.963 603.427 382.963 599.427 430.963 613.427C 439.045 616.365 447.126 619.304 455.208 622.441"/>
<path fill="none" stroke-width="6" stroke="#000000" d="M 388.838 607.239C 368.838 629.239 367.248 627.803 328.838 655.239C 300.838 675.239 276.838 683.239 236.838 687.239C 220.428 688.88 146.838 691.239 146.838 691.239C 146.838 691.239 216.838 707.239 252.838 705.239C 288.838 703.239 330.838 691.239 368.838 671.239C 406.838 651.239 418.838 637.239 428.838 613.239"/>
<path fill="none" stroke-width="6" stroke="#000000" d="M 400.963 471.427C 398.448 475.2 346.1 534.342 303.115 585.182"/>
<path fill="none" stroke-width="6" stroke="#000000" d="M 297.329 592.043C 274.442 619.257 255.13 643.149 248.963 653.427"/>
<path fill="none" stroke-width="6" stroke="#000000" d="M 362.463 325.427L 268.963 337.927"/>
<path fill="none" stroke-width="6" stroke="#000000" d="M 268.963 337.927L 196.963 297.927L 192.63 283.593L 170.63 287.593L 176.297 307.26"/>
<path fill="none" stroke-width="6" stroke="#000000" d="M 167.297 295.927L 156.297 298.26L 171.63 329.593L 197.63 312.26L 196.63 300.927"/>
<path fill="none" stroke-width="6" stroke="#000000" d="M 174.963 267.927L 180.963 283.927"/>
<path fill="none" stroke-width="6" stroke="#000000" d="M 191.297 316.927L 197.63 321.927"/>
<path fill="none" stroke-width="6" stroke="#000000" d="M 176.963 515.927L 208.963 500.427L 228.963 531.927L 193.963 552.427L 176.963 515.927z"/>
<path fill="none" stroke-width="6" stroke="#000000" d="M 207.463 499.927L 181.463 501.427L 186.463 510.427"/>
<path fill="none" stroke-width="6" stroke="#000000" d="M 388.974 113.552C 411.014 115.043 428.639 98.6311 446.403 88.2177C 418.457 90.8645 388.373 87.5593 360.658 100.203C 354.706 102.342 342.755 104.619 340.848 108.664C 331.498 136.887 302.963 150.593 296.963 167.927"/>
<path fill="none" stroke-width="6" stroke="#000000" d="M 407.108 119.134L 410.963 121.927C 410.963 121.927 442.297 199.26 448.963 244.593C 451.082 258.998 384.963 289.927 384.963 289.927L 420.963 307.927C 420.963 307.927 426.858 388.631 480.963 421.927C 532.963 453.927 580.963 533.927 580.963 533.927L 548.963 531.927L 510.963 495.927L 550.963 605.927C 550.963 605.927 514.963 563.927 506.963 561.927C 498.963 559.927 482.963 573.927 482.963 573.927L 484.963 509.927L 436.963 489.927C 436.963 469.927 438.963 441.927 434.963 431.927C 430.963 421.927 410.963 411.927 410.963 399.927C 410.963 387.927 398.297 383.927 398.963 375.927C 399.63 367.927 370.963 345.927 370.963 345.927"/>
<path fill="#ffffff" stroke-width="3" stroke="#000000" d="M 264.353 339.9C 266.623 339.9 268.463 338.08 268.463 335.836C 268.463 333.591 266.623 331.772 264.353 331.772C 262.084 331.772 260.244 333.591 260.244 335.836C 260.244 338.08 262.084 339.9 264.353 339.9z"/>
<path fill="#ffffff" stroke-width="3" stroke="#000000" d="M 273.386 341.706C 275.656 341.706 277.496 339.887 277.496 337.642C 277.496 335.398 275.656 333.578 273.386 333.578C 271.116 333.578 269.276 335.398 269.276 337.642C 269.276 339.887 271.116 341.706 273.386 341.706z"/>
<path fill="#ffffff" stroke-width="3" stroke="#000000" d="M 309.501 444.161C 310.973 442.434 310.782 439.853 309.074 438.397C 307.365 436.941 304.787 437.161 303.315 438.889C 301.842 440.616 302.034 443.197 303.742 444.653C 305.45 446.109 308.029 445.889 309.501 444.161z"/>
<path fill="#ffffff" stroke-width="3" stroke="#000000" d="M 316.734 438.459C 318.207 436.731 318.015 434.15 316.307 432.695C 314.599 431.239 312.021 431.459 310.548 433.186C 309.076 434.914 309.267 437.494 310.976 438.95C 312.684 440.406 315.262 440.186 316.734 438.459z"/>
<path fill="#ffffff" stroke-width="3" stroke="#000000" d="M 332.866 556.765C 334.093 554.856 333.558 552.324 331.67 551.11C 329.782 549.897 327.256 550.46 326.029 552.37C 324.801 554.279 325.337 556.811 327.225 558.025C 329.113 559.238 331.639 558.674 332.866 556.765z"/>
<path fill="#ffffff" stroke-width="3" stroke="#000000" d="M 339.27 550.144C 340.497 548.235 339.961 545.703 338.073 544.489C 336.185 543.276 333.66 543.839 332.432 545.749C 331.205 547.658 331.741 550.19 333.629 551.403C 335.517 552.617 338.042 552.053 339.27 550.144z"/>
<path fill="#ffffff" stroke-width="3" stroke="#000000" d="M 467.374 571.024C 465.908 569.292 463.33 569.063 461.617 570.514C 459.904 571.964 459.704 574.544 461.17 576.276C 462.637 578.009 465.215 578.237 466.928 576.787C 468.641 575.337 468.841 572.757 467.374 571.024z"/>
<path fill="#ffffff" stroke-width="3" stroke="#000000" d="M 462.917 562.964C 461.45 561.231 458.873 561.002 457.16 562.453C 455.447 563.903 455.247 566.483 456.713 568.215C 458.18 569.948 460.757 570.176 462.471 568.726C 464.184 567.276 464.383 564.696 462.917 562.964z"/>
</g>
<g>
<path fill="none" stroke-width="4" stroke="#bfffff" d="M 104.963 591.927C 95.9634 591.927 91.4634 592.427 85.4634 598.927C 79.4634 605.427 83.4634 621.927 88.9634 625.927C 94.4634 629.927 112.963 631.927 118.963 625.927C 124.963 621.927 127.963 601.927 122.963 597.927C 117.963 593.927 113.963 591.927 104.963 591.927z"/>
<path fill="none" stroke-width="4" stroke="#bfffff" d="M 108.463 631.427C 106.463 643.427 116.963 653.927 122.963 659.927C 128.963 665.927 144.963 667.927 156.963 667.927"/>
<path fill="none" stroke-width="4" stroke="#bfffff" d="M 122.963 663.427C 109.463 668.927 107.463 674.927 104.963 691.927"/>
<path fill="none" stroke-width="4" stroke="#bfffff" d="M 111.963 644.427C 98.2339 644.427 85.7569 647.927 74.9634 647.927"/>
<path fill="none" stroke-width="4" stroke="#bfffff" d="M 114.963 647.927C 122.963 643.927 128.963 635.927 136.963 631.927"/>
<path fill="none" stroke-width="4" stroke="#bfffff" d="M 226.713 603.927C 221.266 601.412 208.963 602.427 204.963 607.927C 198.965 616.174 198.963 629.927 206.963 635.927C 210.963 639.927 224.416 641.523 228.963 635.927C 237.342 625.614 235.335 607.906 226.713 603.927z"/>
<path fill="none" stroke-width="4" stroke="#bfffff" d="M 178.963 685.927C 178.963 679.927 180.963 667.927 180.963 667.927L 202.963 665.927L 212.463 644.427C 212.463 644.427 196.963 643.927 186.963 639.927"/>
<path fill="none" stroke-width="4" stroke="#bfffff" d="M 202.963 665.927C 200.963 679.927 206.963 687.927 212.963 695.927"/>
<path fill="none" stroke-width="4" stroke="#bfffff" d="M 211.213 651.427C 221.213 655.427 231.463 661.427 230.963 675.927"/>
<path fill="none" stroke-width="4" stroke="#bfffff" d="M 46.4634 681.427C 44.4634 681.427 37.1756 682.537 33.9634 688.427C 30.9634 693.927 34.2095 703.144 38.9634 708.427C 43.4634 713.427 57.9634 712.427 64.9634 705.927C 71.9634 699.427 68.9634 690.927 64.4634 685.427C 59.9634 679.927 50.9634 681.927 50.9634 681.927L 46.9634 641.927C 46.9634 641.927 64.9634 627.927 66.9634 613.927"/>
<path fill="none" stroke-width="4" stroke="#bfffff" d="M 46.9634 641.927C 46.9634 641.927 24.4634 630.427 20.9634 617.927"/>
<path fill="none" stroke-width="4" stroke="#bfffff" d="M 46.9634 657.927C 46.9634 657.927 28.9634 657.927 20.9634 657.927"/>
<path fill="none" stroke-width="4" stroke="#bfffff" d="M 50.9634 669.927C 56.9634 669.927 64.9634 669.927 70.9634 667.927"/>
<path fill="none" stroke-width="4" stroke="#bfffff" d="M 92.4634 604.927C 88.9634 604.927 89.4634 609.427 90.4634 610.927C 91.9634 613.427 95.9634 612.427 98.4634 611.427C 99.9634 610.927 99.4634 607.927 98.4634 605.927C 97.9634 603.927 94.4634 604.927 92.4634 604.927z"/>
<path fill="none" stroke-width="4" stroke="#bfffff" d="M 112.963 602.427C 111.119 601.505 108.963 600.427 107.463 602.427C 105.963 604.427 106.463 607.927 108.463 608.927C 110.463 610.427 114.463 611.427 115.963 609.427C 117.463 607.427 116.963 605.427 115.463 603.927C 114.463 603.427 113.963 602.927 112.963 602.427z"/>
<path fill="none" stroke-width="4" stroke="#bfffff" d="M 94.9634 621.427C 100.963 618.927 109.963 614.927 114.963 620.427"/>
<path fill="none" stroke-width="2" stroke="#bfffff" d="M 87.9009 600.802C 88.9009 600.802 89.9009 601.302 90.4009 600.802C 96.9009 595.802 104.401 597.802 111.901 597.302"/>
<path fill="none" stroke-width="4" stroke="#bfffff" d="M 211.713 615.677C 211.713 617.177 211.463 620.927 211.463 622.427"/>
<path fill="none" stroke-width="4" stroke="#bfffff" d="M 222.463 615.927C 222.463 617.927 222.463 620.427 222.463 622.427"/>
<path fill="none" stroke-width="4" stroke="#bfffff" d="M 210.463 632.677C 212.618 632.677 215.322 631.677 218.213 631.677C 220.689 631.677 223.368 632.677 225.213 632.677"/>
<path fill="none" stroke-width="4" stroke="#bfffff" d="M 204.963 607.927C 205.463 601.927 201.963 598.427 198.463 594.927"/>
<path fill="none" stroke-width="4" stroke="#bfffff" d="M 211.463 603.427C 211.463 597.927 208.963 592.427 208.463 586.927"/>
<path fill="none" stroke-width="4" stroke="#bfffff" d="M 219.463 602.927C 219.463 597.927 219.463 592.427 219.963 587.427"/>
<path fill="none" stroke-width="4" stroke="#bfffff" d="M 228.963 589.927C 227.713 594.177 227.463 598.677 227.213 603.177"/>
<path fill="none" stroke-width="4" stroke="#bfffff" d="M 240.963 597.427C 236.713 599.177 233.213 602.427 231.713 606.677"/>
<path fill="none" stroke-width="4" stroke="#bfffff" d="M 242.213 608.677C 239.213 608.427 236.213 609.677 234.463 612.427"/>
<path fill="none" stroke-width="4" stroke="#bfffff" d="M 243.713 619.927C 240.463 619.927 237.213 619.927 234.213 620.677"/>
<path fill="none" stroke-width="4" stroke="#bfffff" d="M 239.463 630.177C 237.213 630.427 235.713 628.427 233.463 628.677"/>
<path fill="none" stroke-width="4" stroke="#bfffff" d="M 41.4634 688.927C 41.4634 688.927 41.4634 693.427 48.4634 693.427C 55.4634 693.427 60.4634 688.927 60.4634 688.927"/>
<path fill="none" stroke-width="4" stroke="#bfffff" d="M 43.9634 698.427L 44.9634 706.427"/>
<path fill="none" stroke-width="4" stroke="#bfffff" d="M 55.4634 698.427L 57.4634 705.427"/>
</g>
<g>
<path fill="none" stroke-width="8" stroke="#0000ff" d="M 135.594 44.9335L 64.7934 115.659"/>
<path fill="none" stroke-width="8" stroke="#0000ff" d="M 64.7934 44.9335L 135.594 115.659"/>
<path fill="none" stroke-width="8" stroke="#0000ff" d="M 166.153 41.9268L 166.153 117.926"/>
<path fill="none" stroke-width="8" stroke="#0000ff" d="M 205.963 41.9268L 205.963 117.926"/>
<path fill="none" stroke-width="8" stroke="#0000ff" d="M 245.963 41.9268L 245.963 117.926"/>
</g>
</svg>