<svg xmlns="http://www.w3.org/2000/svg"
	xmlns:xlink="http://www.w3.org/1999/xlink"
	viewBox="1.0 21.4 577 792"
	width="599.101" height="813.402">
<g>
<path fill="#9E3999" stroke="none" d="M 578 813.402L 578 21.402L 1 21.402L 1 813.402L 578 813.402z"/>
<path fill="#00441B" stroke="none" d="M 5.5 700.902C 11.5 700.902 17.5 697.902 22 694.902C 25 694.902 29.5 691.902 32.5 693.402C 34 684.402 29.5 676.902 25 669.402C 28 672.402 29.5 676.902 35.5 676.902C 35.5 666.402 35.5 655.902 37 645.402C 40 658.902 38.5 673.902 40 687.402C 47.5 679.902 40 667.902 47.5 658.902C 47.5 669.402 44.5 681.402 49 688.902C 53.5 694.902 58 679.902 58 672.402C 56.5 678.402 59.5 684.402 62.5 688.902L 65.5 688.902C 67 684.402 68.5 681.402 68.5 676.902C 73 681.402 70 687.402 71.5 691.902L 74.5 691.902C 76 688.902 76 685.902 79 682.902C 77.5 684.402 80.5 687.402 80.5 687.402C 209.5 688.902 340 688.902 469 687.402C 472 687.402 481 682.902 481 676.902C 482.5 667.902 491.5 661.902 496 654.402C 497.5 660.402 493 666.402 493 672.402C 502 666.402 508 655.902 518.5 652.902C 515.5 666.402 500.5 672.402 500.5 685.902C 508 685.902 509.5 678.402 514 675.402C 517 684.402 508 691.902 511 700.902C 515.5 708.402 520 720.402 529 721.902C 539.5 724.902 542.5 709.902 550 703.902C 551.5 702.402 556 700.902 556 702.402C 559 712.902 547 717.402 545.5 726.402C 550 726.402 554.5 726.402 557.5 729.402C 560.5 730.902 565 729.402 568 729.402C 569.5 729.402 569.5 727.902 569.5 726.402C 572.5 726.402 574 726.402 577 726.402L 579.75 729.402L 578 813.402L 1 813.402L 3 696.652L 5.5 700.902z"/>
</g>
<g>
<path fill="#FEC06F" stroke="none" d="M 468.955 20.8941C 467.618 28.8643 466.922 37.0519 466.922 45.402C 466.922 114.029 513.927 171.68 577.497 187.915L 578 21.402L 470 21.402L 468.955 20.8941z"/>
<path fill="#FEC06F" stroke-width="6" stroke="#F882BF" d="M 289 53.4709C 160.91 53.4709 57.069 157.312 57.069 285.402C 57.069 413.492 160.91 517.333 289 517.333C 417.09 517.333 520.931 413.492 520.931 285.402C 520.931 157.312 417.09 53.4709 289 53.4709z"/>
<path fill="#FFFFC0" stroke-width="6" stroke="#FFFF40" d="M 309 398.752C 386.323 398.752 449.007 338.6 449.007 264.402C 449.007 190.203 386.323 130.052 309 130.052C 231.677 130.052 168.993 190.203 168.993 264.402C 168.993 338.6 231.677 398.752 309 398.752z"/>
<path fill="#FFFFC0" stroke="none" d="M 0.5 236.902L 324 263.402L 0.5 298.402L 0.5 236.902z"/>
<path fill="#FFFFC0" stroke="none" d="M 324 263.402L 578 254.902L 578 308.902L 324 263.402z"/>
<path fill="none" stroke-width="4" stroke="#FFFF00" d="M 577.947 260.22C 474.824 243.04 396.211 153.4 396.211 45.402C 396.211 37.1403 396.671 28.986 397.567 20.9634"/>
<path fill="#FFFFC0" stroke="none" d="M 578.197 125.464C 547.621 111.769 526.319 81.073 526.319 45.402C 526.319 36.9261 527.521 28.7313 529.765 20.9786L 578 21.402L 578.197 125.464z"/>
<path fill="#FFFFC0" stroke="none" d="M 326.25 265.214L 578 335.402L 578 355.402L 326.25 265.214z"/>
<path fill="#FFFFFF" stroke-width="4" stroke="#FFFF80" d="M 324 229.461C 342.745 229.461 357.941 244.657 357.941 263.402C 357.941 282.147 342.745 297.343 324 297.343C 305.255 297.343 290.059 282.147 290.059 263.402C 290.059 244.657 305.255 229.461 324 229.461z"/>
<path fill="none" stroke-width="4" stroke="#FFFF00" d="M 577.437 189.1C 513.867 172.865 466.862 115.214 466.862 46.5871C 466.862 38.237 467.558 30.0494 468.895 22.0792"/>
<path fill="none" stroke-width="4" stroke="#FFFF00" d="M 578.138 126.649C 547.561 112.955 526.259 82.2581 526.259 46.5871C 526.259 38.1113 527.462 29.9164 529.706 22.1637"/>
<path fill="#FFFFFF" stroke-width="4" stroke="#FFFF00" d="M 570.25 49.0895C 561.5 44.5895 552.125 50.5895 544.375 54.5895C 521.375 66.3395 499.875 79.4645 479.25 94.7145L 477.375 96.5895C 476.875 97.2145 476.5 98.0895 476.5 98.9645L 476.5 100.089C 476.5 100.339 476.5 100.714 476.625 100.964C 477 102.964 479 104.214 481 103.839L 482 103.464C 492.875 104.464 503.5 106.339 514.25 107.839L 519.25 107.964L 515.75 103.214L 515.25 104.839L 517 102.589L 474.25 128.464C 453.25 140.714 432.375 152.964 411.375 165.089L 408.25 166.839C 406.625 167.839 406 169.839 406.625 171.589C 407.375 173.589 409.625 174.589 411.625 173.839L 413.125 173.214C 425.875 171.589 439.875 171.964 450.625 179.714L 453.25 180.964L 451.5 179.339L 452.625 181.464L 452.375 180.964L 452.5 181.339L 454.75 176.589L 453.375 177.214C 427 185.464 401.125 193.089 376.625 208.214C 354.75 221.589 339.75 239.464 323.5 258.589C 323.25 258.839 324.125 259.964 324.625 260.839C 323.875 262.464 324.625 264.464 326.25 265.214C 327.875 265.839 329.75 265.214 330.5 263.589C 358.5 221.089 405.125 198.089 452.875 185.214L 457.625 183.839C 459.625 183.089 460.625 180.964 459.875 178.964L 459.75 178.464C 459.625 178.214 459.625 178.089 459.5 177.839L 458.375 175.714C 458 174.964 457.375 174.464 456.625 174.089L 451.375 170.964C 440.875 164.964 428.125 164.589 416.25 164.839L 408.875 166.589L 412.25 173.589L 417.375 170.589L 417.25 170.464C 428.75 163.964 440.125 156.964 451.625 150.339L 520.875 108.964C 521.75 108.464 522.375 107.714 522.625 106.714L 523 105.089C 523.125 104.839 523.125 104.589 523.125 104.214C 523.125 102.214 521.5 100.464 519.375 100.464L 514.875 100.339L 515 100.339C 505.75 98.9645 496.375 97.8395 487.125 96.3395L 479.5 96.4645L 484 100.214L 484 99.0895L 483.125 101.464L 485.625 99.7145C 511.75 80.3395 539.5 62.2145 570.25 51.3395C 570.875 51.3395 571.375 50.8395 571.375 50.2145C 571.375 49.5895 570.875 49.0895 570.25 49.0895L 570.25 49.0895z"/>
<path fill="#FEE0B3" stroke="none" d="M 80 265.402L 1 261.402L 1 298.402L 79.5 289.902L 80 265.402z"/>
<path fill="#FFFFFF" stroke="none" d="M 0 287.402L 0 277.402L 324 263.402L 0 287.402z"/>
</g>
<g>
<path fill="#436F7A" stroke="none" d="M 275 195.402L 287 201.402C 287 201.402 296 228.402 294 237.402C 292 246.402 286 255.402 280 256.402C 274 257.402 246 236.402 246 236.402L 275 195.402z"/>
<path fill="#809A9C" stroke="none" d="M 125 156.402C 125 156.402 157 202.402 166 220.402C 175 238.402 194 272.402 202 273.402C 210 274.402 220 273.402 220 273.402C 220 273.402 223 250.402 235 241.402C 247 232.402 275 228.402 276 215.402C 277 202.402 272 186.402 274 183.402C 276 180.402 285 176.402 285 163.402C 285 150.402 285 134.402 278 133.402C 271 132.402 265 130.402 265 130.402L 262 122.402L 242 114.402L 234 119.402L 233 130.402L 223 134.402L 201 117.402L 175 129.402L 183 148.402L 166 165.402L 143 145.402L 125 156.402z"/>
<path fill="#809A9C" stroke="none" d="M 317 109.402L 331 107.402L 338 128.402L 354 127.402L 359 113.402L 390 115.402C 390 115.402 392 167.402 388 183.402C 384 199.402 378 207.402 369 209.402C 360 211.402 328 230.402 328 230.402L 319 228.402L 313 221.402L 312 190.402L 304 187.402L 306 149.402L 314 138.402L 317 109.402z"/>
<path fill="#436F7A" stroke="none" d="M 199 287.402L 238 277.402L 247 257.402L 274 251.402L 279 322.402L 234 327.402L 199 287.402z"/>
<path fill="#436F7A" stroke="none" d="M 300 308.402L 300 292.402C 300 292.402 302 274.402 308 270.402C 314 266.402 329 272.402 329 272.402L 336 296.402L 322 301.402L 319 313.402L 300 308.402z"/>
<path fill="#436F7A" stroke="none" d="M 332 226.402C 332 226.402 339 214.402 347 213.402C 355 212.402 369 209.402 369 209.402L 369 226.402L 332 226.402z"/>
<path fill="#809A9C" stroke="none" d="M 176 298.402C 180 290.402 191 289.402 195 288.402C 199 287.402 204 293.402 204 293.402L 208 303.402L 227 298.402L 231 314.402L 255 313.402C 255 313.402 256 300.402 264 292.402C 272 284.402 291 278.402 291 278.402L 292 289.402L 319 307.402L 320 320.402C 320 320.402 332 325.402 339 316.402C 346 307.402 343 294.402 343 294.402L 352 293.402L 351 281.402L 369 273.402C 369 273.402 378 321.402 376 347.402C 374 373.402 368 483.402 373 513.402C 378 543.402 383 578.402 390 583.402C 397 588.402 410 592.402 410 592.402L 421 637.402C 421 637.402 451 649.402 460 672.402C 469 695.402 465 704.402 470 708.402C 475 712.402 479 712.402 479 712.402C 479 712.402 472 731.402 444 742.402C 416 753.402 360 766.402 319 769.402C 278 772.402 204 779.402 165 771.402C 126 763.402 99 749.402 91 735.402C 83 721.402 87 692.402 94 684.402C 101 676.402 128 666.402 131 653.402C 134 640.402 127 610.402 133 604.402C 139 598.402 153 592.402 156 578.402C 159 564.402 168 490.402 164 451.402C 160 412.402 170 359.402 170 359.402L 182 356.402L 184 341.402L 189 341.402C 189 341.402 192 329.402 185 319.402C 178 309.402 176 298.402 176 298.402z"/>
<path fill="#809A9C" stroke="none" d="M 159 312.402L 167 317.402L 171 337.402L 156 339.402L 156 323.402L 159 312.402z"/>
<path fill="#809A9C" stroke="none" d="M 131 266.402C 135 262.402 148 263.402 148 263.402L 145 290.402L 138 289.402L 131 266.402z"/>
<path fill="#FFFF80" stroke="none" d="M 296 703.402L 348 690.402L 342 628.402C 342 628.402 345 614.402 332 614.402C 319 614.402 304 614.402 300 622.402C 296 630.402 293 649.402 293 649.402L 296 703.402z"/>
<path fill="#BFCAC8" stroke="none" d="M 315.021 712.423L 365 694.402L 365.771 703.131L 316.042 722.131L 315.021 712.423z"/>
<path fill="#BFCAC8" stroke="none" d="M 334.708 726.423L 383.146 707.235L 384.438 720.485L 335.333 740.006L 334.708 726.423z"/>
<path fill="#BFCAC8" stroke="none" d="M 356.438 741.423L 405.292 723.089L 407.312 735.235L 357.458 753.569L 356.438 741.423z"/>
<path fill="#BFCAC8" stroke="none" d="M 423 736.069L 373.438 755.089L 374.438 765.423L 425 750.069L 423 736.069z"/>
<path fill="#BFCAC8" stroke="none" d="M 189 540.402L 209 540.402L 207 478.402L 188 475.402L 189 540.402z"/>
<path fill="#436F7A" stroke="none" d="M 335 397.402L 348 404.402L 343 464.402L 331 464.402L 335 397.402z"/>
<path fill="#FFFF80" stroke="none" d="M 220 273.402C 220 273.402 210 261.402 219 247.402C 228 233.402 234 225.402 247 222.402C 260 219.402 268 216.402 268 210.402C 268 204.402 265 182.402 265 182.402C 265 182.402 274 168.402 278 167.402C 282 166.402 285 166.402 285 166.402L 274 183.402L 278 209.402L 269 224.402L 243 238.402L 228 258.402L 220 273.402z"/>
<path fill="#FFFF80" stroke="none" d="M 304 181.402L 323 182.402L 323 219.402L 326 227.402L 319 228.402L 313 221.402L 312 190.402L 304 181.402z"/>
<path fill="#FFFF80" stroke="none" d="M 290 219.402L 276 215.402L 256 230.402L 266 242.402L 275 248.402L 289 247.402L 293 228.402L 290 219.402z"/>
<path fill="#FFFF80" stroke="none" d="M 344 215.402L 348 221.402L 357 226.402L 337 228.402L 335 221.402L 341 216.402L 344 215.402z"/>
<path fill="#FFFF80" stroke="none" d="M 271 264.402L 252 270.402L 241 289.402L 224 289.402L 223 296.402L 228 312.402L 255 313.402L 264 292.402L 275 282.402L 271 264.402z"/>
<path fill="#FFFF80" stroke="none" d="M 289 285.402L 285 293.402L 300 308.402L 316 305.402L 302 296.402L 289 285.402z"/>
<path fill="#FFFF80" stroke="none" d="M 204 293.402L 193 296.402L 202 303.402L 211 301.402L 204 293.402z"/>
<path fill="#FFFF80" stroke="none" d="M 341 313.402L 352 302.402L 362 298.402L 359 273.402L 351 277.402L 352 293.402L 343 294.402L 345 303.402L 341 313.402z"/>
<path fill="#FFFF80" stroke="none" d="M 329 281.402L 317 282.402L 312 292.402L 309 301.402L 319 304.402L 325 300.402L 331 299.402L 334 290.402L 329 281.402z"/>
<path fill="#FFFF80" stroke="none" d="M 204 328.402L 210 332.402L 215 339.402L 217 326.402L 204 328.402z"/>
<path fill="#FFFF80" stroke="none" d="M 148 266.402L 140 267.402L 145 281.402L 148 266.402z"/>
<path fill="#FFFF80" stroke="none" d="M 228 304.402L 218 308.402L 221 316.402L 228 312.402L 228 304.402z"/>
<path fill="#FFFFC0" stroke="none" d="M 1 470.402L 323 268.402L 1 572.402L 1 470.402z"/>
<path fill="#FFFFC0" stroke="none" d="M 323 268.402L 0.5 595.902L 0.5 619.902L 321 274.402L 323 268.402z"/>
<path fill="#FEC06F" stroke="none" d="M 1 522.402L 1 550.402L 313 270.402L 1 522.402z"/>
<path fill="#809A9C" stroke="none" d="M 287.75 279.152L 261.25 292.152L 259 330.902L 271.75 331.902L 274.75 343.402L 319.5 340.652L 319.75 305.902L 297.75 293.902L 287.75 279.152z"/>
<path fill="#FFFFC0" stroke="none" d="M 311 270.402L 317.75 267.402L 331.75 280.902L 331.75 295.402L 303.25 278.152L 310.5 271.152L 311 270.402z"/>
<path fill="#FEC06F" stroke="none" d="M 1.2083 498.444L 73.2083 448.444L 71.875 454.444L 1.2083 507.777L 1.2083 498.444z"/>
<path fill="#FEC06F" stroke="none" d="M 1.3333 557.402L 100 468.069L 100.667 470.069L 1.3333 562.069L 1.3333 557.402z"/>
</g>
<g>
<path fill="none" stroke-width="6" stroke="#000000" d="M 204 273.402C 210 273.402 220 275.402 222 271.402C 226 257.402 230 245.402 240 239.402C 252 229.402 270 227.402 276 215.402C 282 205.402 270 185.402 278 177.402C 292 165.402 286 143.402 278 131.402C 278 129.402 270 133.402 266 131.402C 262 129.402 264 123.402 264 119.402C 254 121.402 242 107.402 234 119.402C 232 121.402 236 127.402 234 129.402C 230 133.402 220 137.402 218 131.402C 214 127.402 210 121.402 204 119.402C 194 115.402 186 125.402 176 127.402C 176 129.402 174 135.402 176 137.402C 182 143.402 188 149.402 182 153.402C 178 159.402 170 169.402 162 161.402C 156 155.402 152 149.402 146 145.402C 138 143.402 132 151.402 126 155.402C 134 169.402 146 181.402 152 195.402C 160 211.402 168 223.402 176 239.402C 180 249.402 186 259.402 196 267.402L 204 273.402z"/>
<path fill="none" stroke-width="6" stroke="#000000" d="M 314 131.402C 312.76 125.2 314 117.402 316 111.402C 320 109.402 328 107.402 330 109.402C 334 113.402 334 121.402 336 125.402C 338 131.402 348 129.402 354 129.402C 354 123.402 358 119.402 358 113.402C 368 113.402 380 113.402 390 113.402C 390 143.402 398 177.402 380 203.402C 372 213.402 350 209.402 340 219.402C 336 221.402 334 221.402 330 225.402L 330 229.402C 326 229.402 322 231.402 320 229.402C 308 217.402 318 201.402 312 187.402C 312 187.402 306 187.402 304 185.402C 302 173.402 302 159.402 306 147.402C 308 139.402 316 141.402 314 131.402z"/>
<path fill="none" stroke-width="6" stroke="#000000" d="M 336 227.402C 346 227.402 358 229.402 368 225.402C 370 225.402 368 217.402 368 211.402"/>
<path fill="none" stroke-width="6" stroke="#000000" d="M 258 331.402C 258 319.402 254 305.402 262 293.402C 268 283.402 280 279.402 292 279.402C 292 281.402 292 285.402 292 287.402C 300 295.402 308 305.402 320 305.402C 320 317.402 320 329.402 320 341.402C 304 341.402 288 341.402 272 343.402C 272 339.402 274 335.402 272 331.402C 272 331.402 268 331.402 266 331.402"/>
<path fill="none" stroke-width="6" stroke="#000000" d="M 198 333.402C 202 327.402 208 325.402 216 325.402C 216 331.402 218 339.402 214 343.402C 212 345.402 204 351.402 198 345.402C 198 345.402 198 343.402 198 341.402"/>
<path fill="none" stroke-width="6" stroke="#000000" d="M 324 321.402C 332 321.402 340 317.402 342 313.402C 346 307.402 342 299.402 344 293.402C 346 291.402 350 295.402 352 291.402C 352 287.402 350 281.402 352 279.402C 358 275.402 368 271.402 370 273.402C 382 333.402 374 389.402 370 449.402C 368 481.402 370 511.402 378 543.402C 384 563.402 384 589.402 410 591.402C 408 607.402 420 621.402 420 637.402C 436 639.402 446 651.402 456 663.402C 464 675.402 468 687.402 468 701.402C 470 705.402 470 711.402 478 711.402C 478 727.402 460 733.402 448 739.402C 404 763.402 354 765.402 306 771.402C 268 777.402 230 779.402 192 773.402C 170 769.402 148 767.402 128 759.402C 114 753.402 100 747.402 92 733.402C 86 721.402 90 707.402 90 695.402C 92 689.402 94 683.402 98 679.402C 108 673.402 120 667.402 126 659.402C 140 645.402 126 621.402 134 603.402C 138 599.402 148 595.402 150 591.402C 156 583.402 158 571.402 160 561.402C 164.562 522.623 162.62 484.494 162.705 445.903"/>
<path fill="none" stroke-width="6" stroke="#FC815F" d="M 162.705 445.903C 162.764 419.251 163.789 392.378 168.592 364.918"/>
<path fill="none" stroke-width="6" stroke="#000000" d="M 168.592 364.918C 169.029 362.418 169.498 359.912 170 357.402C 170 357.402 180 359.402 182 357.402C 184 353.402 180 345.402 182 341.402C 182 341.402 186 341.402 188 341.402C 188 329.402 188 321.402 180 311.402C 176 307.402 174 293.402 180 291.402C 186 287.402 198 285.402 204 291.402C 206 293.402 204 299.402 208 301.402C 213.657 304.23 222 293.402 228 299.402C 230 303.402 226 311.402 228 311.402C 232 315.402 240 313.402 246 313.402"/>
<path fill="none" stroke-width="6" stroke="#000000" d="M 168 321.402C 166 315.402 160 313.402 156 313.402C 156 325.402 152 347.402 170 337.402C 172 335.402 170 327.402 168 321.402z"/>
<path fill="none" stroke-width="6" stroke="#000000" d="M 194 287.402C 208 281.402 228 285.402 238 275.402C 242 271.402 244 259.402 248 257.402C 258 253.402 272 247.402 284 253.402C 268 249.402 276 269.402 274 279.402"/>
<path fill="none" stroke-width="6" stroke="#000000" d="M 300 295.402C 302 279.402 308 259.402 324 271.402C 332 275.402 336 289.402 332 299.402C 330 301.402 324 295.402 320 305.402"/>
<path fill="none" stroke-width="6" stroke="#000000" d="M 138 291.402C 140 281.402 128 275.402 132 265.402C 136 259.402 142 265.402 148 263.402C 148 273.402 148 283.402 144 291.402"/>
<path fill="none" stroke-width="6" stroke="#000000" d="M 270 195.402C 278 193.402 286 197.402 288 201.402C 292 217.402 298 235.402 290 247.402C 280 261.402 260 253.402 250 239.402"/>
<path fill="none" stroke-width="6" stroke="#000000" d="M 296 703.402C 296 703.402 291 637.902 298 625.402C 305 612.902 329.5 609.402 338 617.402C 346.5 625.402 348 691.402 348 691.402L 296 703.402z"/>
<path fill="none" stroke-width="6" stroke="#000000" d="M 303 713.735L 314.667 712.735L 315.333 725.402L 333.667 725.402L 335.333 742.735L 355.333 741.069L 357.667 757.069L 372.667 754.402L 374 762.402"/>
<path fill="none" stroke-width="6" stroke="#000000" d="M 352.854 694.756L 364.521 693.756L 365.188 706.423L 383.521 706.423L 385.188 723.756L 405.188 722.089L 407.521 738.089L 422.521 735.423L 423.854 743.423"/>
<path fill="none" stroke-width="6" stroke="#000000" d="M 188 477.402C 190 497.402 191 538.402 191 538.402L 206 542.402C 206 542.402 210 500.402 206 478.402C 205 474.402 197 473.402 193 476.402C 192 478.402 190 480.402 191 483.402"/>
<path fill="none" stroke-width="6" stroke="#000000" d="M 345 421.402C 344.065 414.393 349 405.402 345 400.402C 344 398.402 335 398.402 335 398.402L 332 465.402C 332 465.402 342 466.402 343 465.402C 347 451.402 347 436.402 345 421.402z"/>
</g>
<g>
<path fill="#FF8000" stroke="none" d="M 35 345.902L 61.5 360.402L 57.5 365.902L 32 352.402L 35 345.902z"/>
<path fill="#FEE0B3" stroke="none" d="M 63.5 327.402C 63.5 327.402 73 335.402 72 343.402C 71 351.402 71 354.902 65 356.402C 59 357.902 49.5 358.402 45.5 354.902C 41.5 351.402 37 342.402 41.5 336.402C 46 330.402 52.5 327.402 56 326.902C 59.5 326.402 63.5 327.402 63.5 327.402z"/>
<path fill="#F8023F" stroke="none" d="M 34.5 352.402L 57.5 365.902C 57.5 365.902 60.5 372.402 57 375.402C 53.5 378.402 49 379.902 45 378.402C 41 376.902 40 372.902 40 372.902L 33 368.402C 33 368.402 27.5 370.902 25 366.402C 22.5 361.902 21 356.402 25 354.902C 29 353.402 34.5 352.402 34.5 352.402z"/>
<path fill="#FF8000" stroke="none" d="M 42 356.402L 29 376.402L 36.5 378.902L 48.5 359.902L 42 356.402z"/>
<path fill="#FF8000" stroke="none" d="M 46.5 422.402L 31.5 416.402L 42.5 412.402L 40.5 400.402L 50 399.902L 51.5 388.402L 60.5 404.402L 46.5 422.402z"/>
<path fill="#BFAC6F" stroke="none" d="M 50 409.902C 50 409.902 57.5 403.902 64 404.902C 70.5 405.902 75.5 408.902 75.5 412.402C 75.5 415.902 78 425.402 73 428.902C 68 432.402 59.5 434.402 54.5 432.402C 49.5 430.402 46.5 423.902 47 419.402C 47.5 414.902 50 409.902 50 409.902z"/>
</g>
<g>
<path fill="none" stroke-width="4" stroke="#000000" d="M 60.6667 404.735C 41.1907 407.981 47.6429 427.045 50 429.402C 53.6667 433.069 66 435.402 72 429.402C 76 425.402 76.3333 411.402 74 409.402C 71.6667 407.402 64.6667 404.735 60.6667 404.735"/>
<path fill="none" stroke-width="4" stroke="#000000" d="M 72 429.402C 86 431.402 102 439.735 102 439.735C 102 439.735 124 441.402 132 441.402"/>
<path fill="none" stroke-width="4" stroke="#000000" d="M 100 439.402C 100 449.402 100 459.402 100 469.402"/>
<path fill="none" stroke-width="4" stroke="#000000" d="M 82 429.402C 86 423.402 92.3333 420.069 98 415.402"/>
<path fill="none" stroke-width="4" stroke="#000000" d="M 72 455.069C 74 449.069 74.6667 440.402 76.6667 433.735"/>
<path fill="none" stroke-width="4" stroke="#000000" d="M 63 327.402C 57.8885 325.311 47.3333 329.735 43.6667 334.735C 40.4048 339.183 40 349.402 44 353.402C 48 359.402 66.0503 358.982 69 352.402C 73.3333 342.735 70.3333 330.402 63 327.402z"/>
<path fill="none" stroke-width="4" stroke="#000000" d="M 64 327.402C 64 315.402 71.6667 302.069 79.6667 294.069"/>
<path fill="none" stroke-width="4" stroke="#000000" d="M 80 265.402C 80 267.831 79.9539 270.768 79.8897 273.904"/>
<path fill="none" stroke-width="4" stroke="#01947F" d="M 79.8897 273.904C 79.8399 276.332 79.7794 278.879 79.7209 281.403"/>
<path fill="none" stroke-width="4" stroke="#000000" d="M 79.7209 281.403C 79.6063 286.353 79.5 291.213 79.5 294.902C 79.5 294.902 96 291.402 104 291.402"/>
<path fill="none" stroke-width="4" stroke="#000000" d="M 91.5 321.902C 84.5 321.402 66 317.902 66 317.902L 57 309.902L 48 301.402"/>
<path fill="none" stroke-width="4" stroke="#000000" d="M 52.125 334.277C 52 336.402 53.125 338.652 55 339.777C 57.375 341.027 60 341.277 62.625 340.777C 63 340.652 63.5 340.652 63.875 340.277"/>
<path fill="none" stroke-width="4" stroke="#000000" d="M 46.625 346.777C 47.375 345.402 48 343.902 48.625 342.527"/>
<path fill="none" stroke-width="4" stroke="#000000" d="M 57.625 353.277C 57.5 351.527 57.75 349.777 57.875 348.027"/>
<path fill="none" stroke-width="4" stroke="#000000" d="M 42.3333 350.069C 39.6667 348.735 35 347.069 35 347.069L 32.6667 352.069C 32.6667 352.069 37.6667 354.735 38.3333 354.735C 43 356.402 46 358.069 51 361.069C 53.9841 362.859 58 366.069 58 366.069L 61.6667 360.735"/>
<path fill="none" stroke-width="4" stroke="#000000" d="M 35.3333 354.735C 33 355.402 30.6667 354.069 29 354.069C 26.6667 354.069 24 357.735 23.3333 359.735C 22.6667 361.402 24 364.735 25.6667 366.402C 26 366.735 26.6667 367.402 27.3333 367.735C 30.6667 369.069 34.6667 368.735 38 370.069C 34.4712 368.657 41.6667 360.735 43.3333 357.402"/>
<path fill="none" stroke-width="4" stroke="#000000" d="M 47.6667 361.735C 45 365.069 42.6667 369.069 40.6667 373.069C 40 374.402 42.3333 377.402 44.6667 378.735C 47.3333 379.735 50 379.402 52.6667 378.735C 57.3333 377.402 58.3333 370.735 56 366.402"/>
<path fill="none" stroke-width="4" stroke="#000000" d="M 32.3333 370.402C 32.3333 371.402 32.6667 373.069 32 373.402C 31.6667 374.069 30 373.402 29 373.735C 28.6667 374.069 29 374.735 29.3333 375.069C 31.3333 375.735 31 378.402 32.6667 379.402C 33.3333 379.735 35.3333 379.402 36 379.402C 36 378.402 35.6667 377.069 36.3333 376.735C 37 376.069 38.3333 376.069 39.3333 375.735"/>
<path fill="none" stroke-width="4" stroke="#000000" d="M 35 369.735C 34.3333 372.735 38 371.069 39.6667 372.069"/>
<path fill="none" stroke-width="4" stroke="#000000" d="M 52 422.735C 53 420.402 57 418.402 58.6667 417.069"/>
<path fill="none" stroke-width="4" stroke="#000000" d="M 57.3333 412.735C 59 411.735 62.3333 410.069 64.3333 409.735"/>
<path fill="none" stroke-width="4" stroke="#000000" d="M 62.6667 414.069C 63.6667 414.735 64.3333 416.069 65.6667 416.735"/>
<path fill="none" stroke-width="4" stroke="#000000" d="M 56.3333 421.735C 57 422.735 58.3333 422.735 59 423.402"/>
<path fill="none" stroke-width="4" stroke="#000000" d="M 62 429.735C 65 423.735 64.3333 424.069 69.6667 422.735"/>
<path fill="none" stroke-width="4" stroke="#000000" d="M 47.6667 417.735"/>
<path fill="none" stroke-width="4" stroke="#000000" d="M 46.3333 423.402"/>
<path fill="none" stroke-width="4" stroke="#000000" d="M 29 418.735"/>
<path fill="none" stroke-width="4" stroke="#000000" d="M 41.3333 416.402"/>
<path fill="none" stroke-width="4" stroke="#000000" d="M 46.6667 421.735L 32.3333 417.735L 42.6667 412.069L 40.6667 401.069L 49.6667 401.069L 51.3333 389.069L 59.6667 403.402"/>
</g>
<g>
<path fill="none" stroke-width="8" stroke="#FFFFFF" d="M 126.631 60.4089L 55.83 131.135"/>
<path fill="none" stroke-width="8" stroke="#FFFFFF" d="M 55.83 60.4089L 126.631 131.135"/>
<path fill="none" stroke-width="8" stroke="#FFFFFF" d="M 237.923 59.3733L 197.903 132.331L 156.477 59.3733"/>
<path fill="none" stroke-width="8" stroke="#FFFFFF" d="M 277 57.402L 277 133.403"/>
</g>
</svg>