<svg xmlns="http://www.w3.org/2000/svg"
	xmlns:xlink="http://www.w3.org/1999/xlink"
	viewBox="21.0 5.9 577 792"
	width="618.927" height="829.372">
<g>
<path fill="#0000bf" stroke="none" d="M 597.963 797.927L 597.963 5.92725L 20.9634 5.92725L 20.9634 797.927L 597.963 797.927z"/>
</g>
<g>
<path fill="#007f7f" stroke="none" d="M 278.463 39.9272C 267.857 39.9272 255.963 38.4272 245.463 44.4272C 237.963 48.9272 230.463 53.4272 222.963 54.9272C 200.463 59.4272 177.963 59.4272 164.463 77.4272C 156.963 84.9272 149.463 89.4272 144.963 98.4272C 141.963 105.927 141.963 114.927 137.463 120.927C 131.463 126.927 122.463 129.927 119.463 135.927C 114.963 147.927 113.463 159.927 111.963 171.927C 107.463 209.427 108.963 246.927 114.963 285.927C 114.963 293.427 123.963 297.927 125.463 303.927C 131.463 332.427 138.963 362.427 159.963 381.927C 164.463 384.927 170.463 384.927 176.463 386.427C 185.463 389.427 186.963 398.427 191.463 405.927C 200.463 417.927 213.963 425.427 227.463 431.427C 269.463 452.427 311.463 473.427 359.463 480.927C 363.963 482.427 366.963 476.427 371.463 473.427C 390.963 465.927 407.463 452.427 425.463 447.927C 446.463 440.427 464.463 429.927 468.963 405.927C 470.463 396.927 476.463 389.427 477.963 380.427C 477.963 372.927 476.463 363.927 479.463 356.427C 485.463 345.927 482.463 335.427 485.463 324.927C 489.963 312.927 482.463 297.927 486.963 288.927C 494.463 275.427 500.463 263.427 509.463 249.927C 513.963 245.427 504.963 239.427 503.463 233.427C 497.463 215.427 494.463 195.927 500.463 179.427C 504.963 167.427 507.963 156.927 506.463 144.927C 504.963 143.427 501.963 141.927 500.463 140.427C 492.963 137.427 485.463 135.927 476.463 134.427C 473.463 134.427 467.463 131.427 465.963 126.927C 465.963 123.927 464.463 120.927 464.463 117.927C 462.963 113.427 459.963 108.927 458.463 104.427C 452.463 90.9272 432.963 95.4272 423.963 90.9272C 411.963 83.4272 404.463 65.4272 390.963 62.4272C 365.463 56.4272 339.963 60.9272 314.463 63.9272C 314.463 65.4272 309.963 63.9272 309.963 60.9272C 308.463 54.9272 306.963 50.4272 302.463 45.9272C 296.463 39.9272 290.463 44.4272 284.463 42.9272C 282.963 41.4272 282.963 38.4272 282.963 36.9272C 281.463 35.4272 281.463 39.9272 278.463 39.9272z"/>
<path fill="#3f9f9f" stroke="none" d="M 281.463 108.927C 282.186 102.785 281.463 96.9272 278.463 93.9272C 266.463 84.9272 251.463 86.4272 237.963 89.4272C 201.963 95.4272 185.463 128.427 170.463 158.427C 158.463 182.427 161.463 210.927 158.463 237.927C 156.963 245.427 155.463 251.427 158.463 258.927C 162.963 270.927 167.463 281.427 171.963 293.427C 174.963 305.427 174.963 318.927 183.963 330.927C 191.463 342.927 203.463 350.427 213.963 360.927C 224.463 369.927 227.463 387.927 242.463 390.927C 257.463 393.927 270.963 393.927 284.463 398.427C 294.963 401.427 305.463 407.427 314.463 411.927C 333.963 420.927 354.963 411.927 375.963 408.927C 386.463 407.427 393.963 399.927 402.963 398.427C 416.463 395.427 426.963 386.427 435.963 375.927C 435.963 374.427 435.963 371.427 435.963 369.927C 446.463 360.927 449.463 345.927 443.463 336.927C 440.463 332.427 431.463 330.927 423.963 329.427C 414.963 327.927 405.963 327.927 398.463 326.427C 392.463 323.427 386.463 317.427 378.963 314.427C 375.963 312.927 374.463 308.427 371.463 308.427C 360.963 305.427 347.463 311.427 339.963 302.427C 329.463 291.927 317.463 290.427 306.963 282.927C 305.463 279.927 303.963 276.927 302.463 273.927C 302.463 267.927 303.963 261.927 300.963 255.927C 290.463 233.427 282.963 209.427 278.463 185.427C 275.463 159.927 278.463 134.427 281.463 108.927z"/>
</g>
<g>
<path fill="#dfdfbf" stroke="none" d="M 332.571 85.916C 412.158 85.916 476.679 152.648 476.679 234.964C 476.679 317.279 412.158 384.011 332.571 384.011C 252.984 384.011 188.463 317.279 188.463 234.964C 188.463 152.648 252.984 85.916 332.571 85.916z"/>
<path fill="#7f7f7f" stroke="none" d="M 254.463 114.927C 254.463 114.927 240.963 153.927 243.963 180.927C 246.963 207.927 257.463 251.427 276.963 275.427C 296.463 299.427 309.963 320.427 341.463 333.927C 372.963 347.427 416.463 359.427 422.463 356.427C 428.463 353.427 450.963 336.927 462.963 314.427C 474.963 291.927 489.963 273.927 483.963 227.427C 478.314 183.648 471.963 162.927 444.963 134.427C 420.792 108.913 371.463 83.4272 341.463 86.4272C 311.463 89.4272 275.463 99.9272 266.463 104.427C 257.463 108.927 254.463 114.927 254.463 114.927z"/>
<path fill="#bfbfbf" stroke="none" d="M 435.963 338.427C 432.963 335.427 428.463 333.927 428.463 327.927C 416.463 327.927 404.463 327.927 392.463 327.927C 392.463 320.427 393.963 311.427 387.963 308.427C 363.963 297.927 333.963 293.427 315.963 275.427C 314.463 272.427 315.963 267.927 315.963 263.427C 314.463 260.427 309.963 257.427 309.963 257.427C 290.463 243.927 282.963 224.427 284.463 203.427C 281.463 203.427 279.963 198.927 279.963 198.927C 267.963 177.927 281.463 156.927 278.463 135.927C 276.963 131.427 276.963 125.427 276.963 120.927C 279.963 113.427 276.963 107.427 278.463 99.9272C 278.463 99.9272 273.963 99.9272 266.463 104.427C 258.963 108.927 254.463 114.927 254.463 114.927C 254.463 114.927 240.963 146.427 242.463 174.927C 243.963 203.427 252.963 233.427 261.963 254.427C 270.963 275.427 279.963 290.427 300.963 306.927C 321.963 323.427 333.963 335.427 357.963 342.927C 381.963 350.427 422.463 356.427 422.463 356.427L 431.463 345.927L 435.963 338.427z"/>
</g>
<g>
<path fill="none" stroke-width="6" stroke="#000000" d="M 336.463 384.107C 418.472 384.107 484.956 317.624 484.956 235.615C 484.956 153.606 418.472 87.1224 336.463 87.1224C 254.454 87.1224 187.971 153.606 187.971 235.615C 187.971 317.624 254.454 384.107 336.463 384.107z"/>
<path fill="none" stroke-width="6" stroke="#000000" d="M 423.957 355.732C 324.272 353.601 244.116 272.123 244.116 171.927C 244.116 151.006 247.61 130.901 254.048 112.163"/>
<path fill="none" stroke-width="6" stroke="#000000" d="M 309.963 233.927C 309.963 245.927 305.963 283.927 323.963 267.927C 331.963 261.927 329.963 243.927 325.963 231.927C 325.963 227.927 319.963 227.927 313.963 227.927C 313.963 231.927 309.963 231.927 309.963 233.927z"/>
<path fill="none" stroke-width="6" stroke="#000000" d="M 336.963 329.594C 368.63 314.927 409.63 286.927 401.963 255.927"/>
<path fill="none" stroke-width="6" stroke="#000000" d="M 257.963 231.927C 257.963 227.927 255.963 219.927 257.963 219.927C 265.963 215.927 281.963 221.927 285.963 215.927C 291.963 209.927 283.963 191.927 289.963 183.927C 291.963 179.927 303.963 181.927 311.963 181.927C 309.963 167.927 319.963 157.927 317.963 143.927C 327.963 143.927 339.963 145.927 341.963 137.927C 347.963 123.927 339.963 107.927 345.963 93.9272C 342.44 102.148 350.63 111.261 358.63 115.261C 364.63 119.261 356.63 129.261 361.963 137.261C 357.963 153.261 382.63 134.594 388.63 146.594C 392.63 154.594 391.963 169.927 383.963 173.927C 381.963 173.927 381.963 185.927 383.963 185.927C 393.963 189.927 407.963 189.927 415.963 179.927C 417.963 179.927 421.963 179.927 423.963 179.927C 425.963 187.927 421.963 199.927 425.963 201.927C 439.963 213.927 443.963 193.927 449.963 179.927L 455.963 179.927C 457.963 189.927 459.963 207.927 473.963 197.927"/>
<path fill="none" stroke-width="6" stroke="#000000" d="M 249.963 207.927C 255.963 207.927 261.963 201.927 269.963 203.927C 269.963 193.927 265.963 179.927 273.963 173.927C 277.963 169.927 291.963 173.927 295.963 169.927C 303.963 159.927 291.963 143.927 299.963 129.927C 301.963 127.927 311.963 129.927 311.963 127.927C 319.963 119.927 319.963 107.927 319.963 95.9272"/>
<path fill="none" stroke-width="6" stroke="#000000" d="M 245.963 183.927C 247.963 169.927 265.963 163.927 271.963 153.927C 277.963 147.927 271.963 133.927 275.963 123.927C 277.963 115.927 289.963 121.927 293.963 115.927C 297.963 111.927 295.963 103.927 295.963 97.9272"/>
<path fill="none" stroke-width="6" stroke="#000000" d="M 363.297 91.9272C 361.297 99.2606 367.297 102.594 373.963 103.261C 375.963 111.261 373.297 119.927 375.963 127.927C 383.297 129.261 389.963 128.594 397.297 130.594C 401.963 131.261 404.63 135.927 405.297 139.927C 407.297 145.927 405.297 151.927 405.297 157.927C 410.63 158.594 417.297 160.594 419.963 156.594C 423.297 150.594 430.63 153.261 435.297 152.594C 435.963 157.261 435.297 161.927 436.63 165.927C 437.297 167.927 440.63 167.927 442.63 167.261C 445.297 165.927 447.963 163.261 448.63 160.594C 449.963 157.927 451.297 155.927 453.297 154.594C 455.297 153.927 457.297 154.594 459.297 154.594"/>
</g>
<g>
<path fill="#007f7f" stroke-width="4" stroke="#3f9f9f" d="M 597.963 547.927C 575.963 565.927 551.963 585.927 523.963 589.927C 497.963 593.927 471.963 595.927 445.963 597.927C 407.963 599.927 365.963 611.927 331.963 587.927C 309.963 573.927 289.963 565.927 265.963 563.927C 255.963 563.927 253.963 547.927 241.963 545.927C 223.963 543.927 207.963 533.927 189.963 529.927C 161.963 525.927 133.963 537.927 111.963 525.927C 99.9634 519.927 91.9634 501.927 77.9634 499.927C 59.9634 495.927 36.9634 496.594 20.9634 506.594L 20.9634 797.927L 597.838 797.927L 597.963 547.927z"/>
<path fill="#808040" stroke-width="6" stroke="#000000" d="M 351.963 601.927C 347.963 607.927 349.963 615.927 351.963 621.927C 353.963 627.927 361.963 627.927 365.963 629.927C 374.908 634.399 365.297 653.261 359.297 657.261C 345.297 665.261 327.963 667.927 311.963 675.927C 303.963 679.927 305.963 691.927 299.963 701.927C 299.963 701.927 291.963 701.927 289.963 703.927C 287.963 705.927 289.963 709.927 289.963 713.927L 300.63 758.594L 348.63 753.927L 351.963 722.594C 351.963 719.261 350.63 714.594 353.297 711.927C 353.963 711.261 357.297 709.927 357.297 709.261C 360.63 697.261 357.963 685.261 358.63 673.261C 365.963 667.927 371.297 661.927 379.297 657.261C 380.448 656.589 382.63 655.927 383.297 653.927C 385.297 645.927 389.297 637.261 383.963 630.594C 379.963 625.261 371.297 624.594 365.963 622.594C 357.963 619.261 358.63 610.594 358.63 602.594"/>
<path fill="#808040" stroke-width="6" stroke="#000000" d="M 319.297 629.927"/>
</g>
<g>
<path fill="#3f3fff" stroke-width="6" stroke="#000000" d="M 97.9634 797.927C 103.963 781.927 117.963 773.927 125.963 759.927C 131.963 747.927 149.963 743.927 163.963 739.927C 175.963 737.927 187.963 741.927 197.963 737.927C 243.963 721.927 293.963 705.927 345.963 717.927C 347.963 717.927 351.963 727.927 355.963 729.927C 367.963 733.927 377.963 743.927 387.963 747.927C 411.963 757.927 433.963 767.927 449.963 785.927C 449.963 787.927 452.276 793.865 452.276 797.865"/>
<path fill="#bfffff" stroke-width="1" stroke="#7f7f7f" d="M 285.963 735.927C 294.13 739.511 303.505 738.136 312.213 737.677C 313.13 737.677 313.838 736.886 313.797 735.969C 313.797 735.052 313.005 734.344 312.088 734.386C 304.338 733.886 296.588 734.219 288.797 733.636C 287.755 733.552 286.797 733.927 285.963 734.594C 285.588 734.594 285.255 734.886 285.255 735.261C 285.255 735.636 285.588 735.927 285.963 735.927L 285.963 735.927z"/>
<path fill="#bfffff" stroke-width="1" stroke="#7f7f7f" d="M 258.318 747.594C 270.109 749.261 281.984 750.802 293.943 750.011C 295.943 750.011 297.526 748.386 297.526 746.386C 297.526 744.386 295.943 742.761 293.943 742.761C 281.943 742.302 269.818 742.761 258.193 745.969C 257.734 746.011 257.401 746.427 257.443 746.844C 257.484 747.302 257.901 747.636 258.318 747.594L 258.318 747.594z"/>
<path fill="#bfffff" stroke-width="1" stroke="#7f7f7f" d="M 245.922 760.094C 255.755 764.094 266.463 764.344 276.88 764.011C 277.713 763.969 278.63 763.761 279.297 763.094C 280.797 763.094 282.047 761.844 282.047 760.344C 282.047 758.844 280.797 757.594 279.297 757.594C 268.797 754.344 257.213 758.719 246.297 758.427C 245.838 758.344 245.38 758.636 245.255 759.094C 245.172 759.552 245.463 760.011 245.922 760.094L 245.922 760.094z"/>
<path fill="#bfffff" stroke-width="1" stroke="#7f7f7f" d="M 232.63 772.594C 237.13 773.052 241.338 774.511 245.922 775.261C 252.088 776.261 258.088 775.719 264.255 776.261C 266.005 776.427 267.672 775.761 269.422 775.636C 271.338 775.552 272.838 773.886 272.713 771.969C 272.588 770.011 270.963 768.511 269.005 768.636C 267.422 768.594 265.838 769.136 264.297 769.052C 253.63 768.469 243.172 770.177 232.63 771.594C 232.338 771.594 232.13 771.802 232.13 772.094C 232.13 772.386 232.338 772.594 232.63 772.594L 232.63 772.594z"/>
<path fill="#bfffff" stroke-width="1" stroke="#7f7f7f" d="M 224.984 783.865C 238.401 788.323 252.318 788.781 266.526 787.156C 268.109 786.99 269.901 787.365 271.568 787.906C 273.776 788.49 276.068 787.156 276.693 784.948C 277.276 782.698 275.984 780.406 273.734 779.823C 265.568 777.573 257.359 780.281 249.109 781.073C 241.026 781.865 233.026 780.615 225.109 782.24C 224.651 782.198 224.276 782.531 224.234 782.99C 224.193 783.406 224.526 783.823 224.984 783.865L 224.984 783.865z"/>
<path fill="#bfffff" stroke-width="1" stroke="#7f7f7f" d="M 288.172 724.552C 293.255 725.927 298.797 728.469 304.005 727.594C 305.172 727.677 306.172 726.844 306.255 725.719C 306.38 724.552 305.547 723.552 304.38 723.469C 299.588 720.344 293.838 723.344 288.63 723.052C 288.213 722.969 287.755 723.177 287.63 723.594C 287.547 724.011 287.755 724.469 288.172 724.552L 288.172 724.552z"/>
<path fill="#bfffff" stroke-width="1" stroke="#7f7f7f" d="M 310.463 720.386C 311.838 720.802 313.213 721.052 314.63 721.052C 315.588 721.011 316.38 720.219 316.338 719.261C 316.338 718.261 315.505 717.511 314.547 717.511C 312.963 717.302 311.672 718.052 310.297 718.677C 309.797 718.719 309.463 719.136 309.505 719.594C 309.547 720.094 309.963 720.427 310.463 720.386L 310.463 720.386z"/>
</g>
<g>
<!-- 7f664c -->
<path fill="#80664d" stroke="none" d="M 65.9634 245.927L 137.963 247.927L 139.963 339.927L 141.463 493.427C 141.463 493.427 155.963 530.927 163.963 548.927C 171.963 566.927 180.963 593.927 180.963 593.927C 180.963 593.927 161.463 601.427 146.463 604.427C 131.463 607.427 115.463 604.927 115.463 604.927L 80.4634 600.427C 80.4634 600.427 57.9634 596.927 48.9634 592.927C 39.9634 588.927 37.9634 580.927 38.9634 569.927C 39.9634 558.927 48.9634 534.927 52.9634 520.927C 56.9634 506.927 56.9634 469.927 58.9634 453.927C 60.9634 437.927 61.9634 384.927 62.9634 364.927C 63.9634 344.927 65.9634 245.927 65.9634 245.927z"/>
<path fill="#ffff00" stroke="none" d="M 119.963 259.927L 125.963 259.927L 126.963 273.927L 118.963 274.927L 119.963 259.927z"/>
<path fill="#ffff00" stroke="none" d="M 75.4634 302.927L 83.9634 302.427L 83.4634 334.927L 74.9634 334.427L 75.4634 302.927z"/>
<path fill="#ffff00" stroke="none" d="M 116.963 366.927L 126.463 367.427L 125.963 402.927L 115.963 403.927L 116.963 366.927z"/>
<path fill="#ffff00" stroke="none" d="M 74.4634 432.927L 82.4634 432.927L 82.9634 469.427L 73.4634 469.427L 74.4634 432.927z"/>
<path fill="#7f0000" stroke="none" d="M 88.9634 600.927C 88.9634 600.927 88.9634 551.427 93.4634 544.427C 97.9634 537.427 100.463 536.427 105.463 536.927C 110.463 537.427 118.963 544.427 118.463 550.427C 117.963 556.427 115.463 604.927 115.463 604.927L 88.9634 600.927z"/>
<path fill="#bfbfbf" stroke="none" d="M 179.463 588.427C 179.463 588.427 153.963 543.927 146.963 535.427C 139.963 526.927 130.963 501.927 129.463 488.927C 127.963 475.927 131.963 383.927 131.963 367.427C 131.963 350.927 129.963 254.927 129.963 254.927L 70.9634 248.427L 139.463 246.927L 140.963 335.927L 141.963 473.427L 143.463 501.427L 179.463 588.427z"/>
<path fill="#804d66" stroke="none" d="M 110.63 216.594L 117.963 215.261L 118.63 212.594L 135.963 210.261L 137.297 206.594L 146.63 205.927L 145.963 219.594L 136.963 220.927L 136.297 217.927L 119.963 220.927L 117.963 218.594L 111.63 219.927L 110.63 216.594z"/>
<path fill="#bfbfbf" stroke="none" d="M 143.297 207.261L 143.63 217.261L 137.963 220.261L 145.963 219.594L 145.63 206.594L 143.297 207.261z"/>
<path fill="#80664d" stroke="none" d="M 101.297 215.261C 101.297 215.261 104.63 212.261 106.63 212.927C 108.63 213.594 110.963 215.594 110.963 215.594C 110.963 215.594 111.297 220.261 110.63 221.927C 109.963 223.594 106.963 224.927 104.63 224.594C 102.297 224.261 101.297 221.261 100.63 219.927C 99.9634 218.594 101.297 215.261 101.297 215.261z"/>
<path fill="#804d80" stroke="none" d="M 100.13 214.761C 100.13 214.761 98.7967 214.427 98.6301 213.261C 98.4634 212.094 98.6301 210.927 99.7967 210.594C 100.963 210.261 104.297 209.427 105.797 209.761C 107.297 210.094 111.63 210.094 111.63 210.094L 111.963 213.094L 110.63 214.427L 100.13 214.761z"/>
<path fill="#bfbfbf" stroke="none" d="M 120.463 214.761L 134.297 212.594L 134.13 213.927L 120.297 215.427L 120.463 214.761z"/>
<path fill="#bfbfbf" stroke="none" d="M 108.963 210.094L 111.63 210.094L 110.797 213.927C 110.797 213.927 111.13 211.761 110.297 211.594C 109.463 211.427 106.963 210.261 106.963 210.261L 108.963 210.094z"/>
<path fill="#bfbfbf" stroke="none" d="M 138.297 209.261L 143.963 208.261L 143.63 210.094L 138.13 210.094L 138.297 209.261z"/>
</g>
<g>
<path fill="none" stroke-width="4" stroke="#000000" d="M 179.963 595.927C 181.963 587.927 177.963 581.927 173.963 573.927C 163.963 543.927 143.963 515.927 141.963 483.927C 135.963 405.927 143.963 325.927 137.963 247.927C 113.963 247.927 89.9634 247.927 65.9634 247.927C 61.9634 333.927 63.9634 419.927 55.9634 505.927C 53.9634 531.927 35.9634 555.927 39.9634 583.927C 39.9634 583.927 45.9634 595.927 71.9634 598.927C 97.9634 601.927 121.963 606.927 134.963 605.927C 147.963 604.927 179.963 595.927 179.963 595.927z"/>
<path fill="none" stroke-width="4" stroke="#000000" d="M 88.9634 599.927L 91.9634 547.927C 91.9634 547.927 93.0766 534.945 105.963 536.927C 118.963 538.927 117.963 551.927 117.963 551.927L 114.963 601.927"/>
<path fill="none" stroke-width="4" stroke="#000000" d="M 82.9634 469.927L 82.9634 432.927L 73.9634 432.927L 73.9634 469.927L 82.9634 469.927z"/>
<path fill="none" stroke-width="4" stroke="#000000" d="M 125.963 403.927L 125.963 367.927L 115.963 367.927L 115.963 403.927L 125.963 403.927z"/>
<path fill="none" stroke-width="4" stroke="#000000" d="M 83.9634 334.927L 83.9634 302.927L 74.9634 302.927L 74.9634 334.927L 83.9634 334.927z"/>
<path fill="none" stroke-width="4" stroke="#000000" d="M 126.963 275.927L 126.963 260.927L 118.963 260.927L 118.963 275.927L 126.963 275.927z"/>
<path fill="none" stroke-width="4" stroke="#000000" d="M 69.9634 246.927L 69.9634 228.927L 130.963 230.927L 132.963 246.927"/>
<path fill="none" stroke-width="3" stroke="#000000" d="M 114.963 245.927C 116.963 237.927 118.963 229.927 118.963 220.927C 118.963 227.927 123.963 236.927 126.963 244.927"/>
<path fill="none" stroke-width="2" stroke="#000000" d="M 109.963 217.261L 117.63 215.261L 118.297 212.927L 135.963 210.594L 136.63 207.261L 145.963 206.261L 145.963 219.594L 136.63 221.261L 136.297 218.261L 119.963 219.927L 117.63 218.594L 110.963 220.261L 109.963 217.261z"/>
<path fill="none" stroke-width="2" stroke="#000000" d="M 106.963 213.177C 105.297 213.177 103.297 212.927 101.63 213.927C 99.6301 215.927 99.6301 218.927 100.63 221.261C 101.63 224.261 105.963 224.261 108.963 223.261C 109.963 222.927 110.297 221.261 110.963 220.261C 111.297 218.927 110.963 217.635 110.963 216.261C 110.963 215.011 109.463 213.261 108.13 213.594"/>
<path fill="none" stroke-width="2" stroke="#000000" d="M 100.963 223.261C 93.6301 223.594 92.9634 232.927 91.6301 238.594C 91.0005 241.27 89.6301 243.927 88.6301 246.594"/>
<path fill="none" stroke-width="2" stroke="#000000" d="M 92.9634 236.261C 93.2967 237.261 93.9634 238.594 94.6301 239.594C 95.9634 241.594 97.2967 243.594 98.6301 245.927"/>
<path fill="none" stroke-width="2" stroke="#000000" d="M 104.463 233.844C 102.797 232.511 98.5467 226.261 97.5467 224.594C 97.5467 224.261 99.6301 224.261 99.6301 224.261L 103.297 226.594L 108.13 228.011C 108.13 228.011 110.63 223.594 111.63 221.594"/>
<path fill="none" stroke-width="1" stroke="#000000" d="M 105.63 217.261L 107.713 217.927L 106.297 219.261"/>
<path fill="none" stroke-width="1" stroke="#000000" d="M 104.047 220.511C 103.963 220.927 104.38 221.261 104.713 221.427C 105.63 221.761 106.63 221.844 107.547 222.011"/>
<path fill="none" stroke-width="1" stroke="#000000" d="M 100.38 214.927C 99.6301 214.927 99.0467 213.927 98.7134 213.344C 98.2967 212.511 98.6301 211.344 99.5467 210.761C 100.38 210.344 101.38 210.177 102.297 210.094C 105.13 209.761 107.963 210.261 110.797 210.011C 111.129 209.981 111.713 210.261 111.797 210.511C 111.963 211.594 112.213 212.844 111.547 213.761C 111.38 214.011 110.963 214.011 110.63 214.094"/>
</g>
<g>
<path fill="#4d8080" stroke="none" d="M 470.463 273.427L 484.463 273.427L 484.963 287.927L 505.963 287.927L 505.963 273.927L 529.963 271.427L 531.463 285.427L 558.963 284.427L 558.463 272.927L 575.963 272.927C 575.963 272.927 580.963 305.927 579.463 319.927C 577.963 333.927 570.963 357.927 570.963 357.927L 562.463 364.427L 558.463 432.927L 562.463 500.427L 563.963 519.927L 571.963 529.927C 571.963 529.927 578.463 566.927 578.463 584.427C 578.463 601.927 575.463 628.927 575.463 628.927C 575.463 628.927 567.963 641.427 556.463 642.427C 544.963 643.427 524.463 640.927 524.463 640.927L 520.463 638.927L 516.963 630.927L 496.463 627.427L 482.463 624.927L 482.463 585.927L 479.463 512.427L 484.463 440.427L 486.963 391.427L 484.963 362.427L 471.963 354.427L 469.463 312.927L 470.463 273.427z"/>
<path fill="#bfbfbf" stroke="none" d="M 484.463 273.427L 476.963 279.427L 475.463 333.927L 477.963 350.927L 493.463 375.427L 492.963 434.427C 492.963 434.427 487.963 461.427 486.963 472.427C 485.963 483.427 482.963 507.927 483.463 517.427C 483.963 526.927 486.463 589.927 486.463 589.927L 483.963 623.427L 480.963 563.927L 478.463 497.427L 484.463 440.427L 486.963 392.927L 484.963 362.427L 471.963 354.427L 469.963 316.427L 470.463 273.427L 484.463 273.427z"/>
<path fill="#bfbfbf" stroke="none" d="M 488.963 287.927L 511.963 293.927L 511.463 277.427L 529.963 271.427L 505.963 273.927L 505.963 287.927L 488.963 287.927z"/>
<path fill="#bfbfbf" stroke="none" d="M 529.963 286.427L 561.963 291.427L 562.463 277.927L 573.463 272.927L 558.463 272.927L 556.963 284.427L 529.963 286.427z"/>
<path fill="#bfbfbf" stroke="none" d="M 509.463 626.261C 509.463 626.261 512.463 557.761 511.963 565.261C 511.463 572.761 514.463 522.261 513.963 527.261C 513.463 532.261 515.63 518.594 518.63 518.594C 521.63 518.594 526.963 526.261 527.963 531.261C 528.963 536.261 530.63 568.594 530.63 574.594C 530.63 580.594 531.963 615.927 531.963 615.927L 534.963 641.761L 525.463 639.261L 520.463 631.261L 509.463 626.261z"/>
<path fill="#3f3f3f" stroke="none" d="M 509.463 626.261C 509.463 626.261 511.297 605.927 511.297 595.927C 511.297 585.927 509.297 573.927 513.297 571.261C 517.297 568.594 520.63 569.261 521.963 575.927C 523.297 582.594 524.63 594.594 524.63 603.927C 524.63 613.261 523.297 637.927 523.297 637.927L 509.463 626.261z"/>
<path fill="#ffbfbf" stroke="none" d="M 509.463 626.261L 523.297 625.261L 523.297 637.927L 516.963 630.927L 509.463 626.261z"/>
<path fill="#3f3f3f" stroke="none" d="M 501.297 454.594L 508.63 453.927L 507.963 491.261L 500.63 491.261L 501.297 454.594z"/>
<path fill="#3f3f3f" stroke="none" d="M 527.297 447.927L 536.63 446.594L 536.63 491.261L 526.63 491.261L 527.297 447.927z"/>
</g>
<g>
<path fill="none" stroke-width="4" stroke="#000000" d="M 483.838 625.927C 493.838 627.927 505.838 625.927 515.838 629.927C 517.838 629.927 519.838 639.927 523.838 639.927C 535.838 643.927 547.838 643.927 559.838 639.927C 565.838 637.927 573.838 629.927 575.838 627.927C 579.838 595.927 577.838 565.927 573.838 533.927C 573.838 527.927 563.838 521.927 563.838 515.927C 557.838 463.927 555.838 413.927 561.838 363.927C 561.838 361.927 571.838 357.927 571.838 355.927C 579.838 327.927 583.838 299.927 575.838 273.927C 573.838 271.927 556.963 272.427 556.963 272.427L 557.463 284.927L 529.838 285.927L 530.463 272.427C 530.463 272.427 513.463 269.427 505.463 273.427C 503.463 273.427 505.838 287.927 505.838 287.927L 483.838 287.927C 483.838 287.927 485.838 277.927 483.838 273.927C 481.838 271.927 473.838 273.927 469.838 273.927C 471.838 299.927 465.838 325.927 471.838 351.927C 473.838 357.927 483.838 359.927 483.838 363.927C 487.838 393.927 487.838 423.927 481.838 455.927C 473.838 511.927 483.838 565.927 481.838 619.927L 483.838 625.927z"/>
<path fill="none" stroke-width="4" stroke="#000000" d="M 523.838 639.927C 523.963 615.927 525.963 595.927 521.963 573.927C 521.963 569.927 513.963 567.927 513.963 569.927C 509.963 587.927 511.963 605.927 509.963 623.927"/>
<path fill="none" stroke-width="4" stroke="#000000" d="M 507.963 491.927L 507.963 453.927L 499.963 453.927L 499.963 491.927L 507.963 491.927z"/>
<path fill="none" stroke-width="4" stroke="#000000" d="M 535.963 491.927L 535.963 447.927L 525.963 447.927L 525.963 491.927L 535.963 491.927z"/>
</g>
<g>
<path fill="#ff7f00" stroke="none" d="M 207.891 547.083L 215.209 551.569L 216.046 576.564L 228.8 568.446L 232.982 578.059C 232.982 578.059 213.536 597.286 204.545 598.14C 195.554 598.995 192.209 602.84 185.309 591.09C 178.409 579.341 174.854 579.341 174.854 579.341L 160.008 566.309L 179.663 566.523L 179.454 551.355L 191.163 555.841L 204.754 554.132L 207.891 547.083z"/>
<path fill="#ff7f00" stroke="none" d="M 186.563 601.558L 204.545 606.258L 199.945 675.902L 219.182 679.32L 218.764 684.447L 182.381 681.456L 181.127 673.338C 181.127 673.338 160.218 678.038 156.872 672.056C 153.527 666.075 154.363 650.266 156.872 643.43C 159.381 636.594 186.563 601.558 186.563 601.558z"/>
<path fill="#ff7f00" stroke="none" d="M 128.017 619.076L 135.544 616.94C 135.544 616.94 133.035 638.303 135.126 645.993C 137.217 653.684 140.144 656.248 144.745 656.675C 149.345 657.102 153.527 656.675 153.527 656.675L 152.69 663.084C 152.69 663.084 141.817 666.075 136.799 662.229C 131.781 658.384 127.599 645.994 127.599 640.012C 127.599 634.03 128.017 619.076 128.017 619.076z"/>
<path fill="#ff7f00" stroke="none" d="M 203.709 615.231L 229.218 668.211L 224.618 671.629L 196.182 615.658L 203.709 615.231z"/>
</g>
<g>
<path fill="none" stroke-width="4" stroke="#000000" d="M 192.472 672.807C 195.596 672.621 198.562 672.484 201.2 672.484C 201.2 660.534 202.21 644.113 203.009 630.614"/>
<path fill="none" stroke-width="4" stroke="#000000" d="M 203.846 614.894C 204.023 610.357 204.023 607.273 203.709 606.472C 202.454 603.267 183.636 599.422 182.381 603.908C 181.127 608.395 142.863 648.771 155.408 669.279C 158.636 674.226 170.427 674.135 182.436 673.44"/>
<path fill="none" stroke-width="4" stroke="#000000" d="M 128.435 618.649C 128.435 636.594 123.417 667.357 151.017 662.229"/>
<path fill="none" stroke-width="4" stroke="#000000" d="M 182.381 587.245C 187.4 596.858 191.163 600.063 201.827 598.14C 212.491 596.218 225.037 585.322 232.564 577.632C 232.564 575.068 229.428 567.377 229.428 567.377L 213.327 576.991L 215.627 551.355L 206.845 546.869L 204.336 554.56C 196.809 557.123 186.772 552.637 181.754 563.532C 176.736 574.427 177.363 577.632 182.381 587.245z"/>
<path fill="none" stroke-width="4" stroke="#000000" d="M 179.872 583.4L 159.799 566.737L 179.872 567.377L 179.245 551.996L 189.909 555.841"/>
<path fill="none" stroke-width="4" stroke="#000000" d="M 194.927 613.522L 225.037 673.125"/>
<path fill="none" stroke-width="4" stroke="#000000" d="M 164.19 660.307C 164.19 660.307 173.599 646.848 181.754 646.848C 189.909 646.848 191.791 676.329 191.791 676.329L 220.646 679.534"/>
<path fill="none" stroke-width="4" stroke="#000000" d="M 196.809 563.318L 193.463 574.427"/>
</g>
<g>
<path fill="#7f7f7f" stroke="none" d="M 412.365 553.309L 417.707 550.937L 425.126 563.687L 434.029 562.204L 443.229 569.024L 447.087 575.251L 457.77 577.919L 443.525 588.594L 441.448 599.564L 417.41 606.088L 406.133 593.931L 399.901 590.076L 391.591 574.657L 397.526 568.134L 417.41 582.367L 412.365 553.309z"/>
<path fill="#7f7f7f" stroke="none" d="M 432.545 603.419L 451.538 604.605L 474.092 630.698L 491.305 647.303L 496.053 666.279L 486.557 684.07L 478.247 685.256L 488.337 703.047L 475.28 710.756L 439.667 715.5L 439.667 708.384L 474.686 697.71L 471.718 693.558L 453.912 692.965L 452.132 675.175L 455.099 670.431L 437.293 655.012L 425.423 628.919L 428.39 608.163L 432.545 603.419z"/>
<path fill="#7f7f7f" stroke="none" d="M 540.568 605.791C 540.568 605.791 539.975 633.663 535.227 644.338C 530.478 655.012 520.982 667.465 513.859 667.465C 506.737 667.465 498.427 666.279 498.427 666.279L 495.46 673.396L 519.201 677.547L 526.917 681.698L 533.446 680.512L 534.633 669.838L 547.097 669.245L 544.723 656.791L 552.439 650.861L 550.659 627.14L 543.536 601.047L 540.568 605.791z"/>
<path fill="#7f7f7f" stroke="none" d="M 409.397 698.896L 422.455 671.024L 433.139 637.814L 440.261 642.559L 432.545 673.396L 416.52 700.675L 409.397 698.896z"/>
<path fill="#7f7f7f" stroke="none" d="M 412.365 662.721L 427.203 631.291L 430.764 641.965L 414.739 671.617L 412.365 662.721z"/>
</g>
<g>
<path fill="none" stroke-width="4" stroke="#000000" d="M 466.97 679.919C 472.312 685.256 490.118 687.035 493.679 676.361C 499.021 662.128 493.086 644.338 478.841 635.442C 468.164 628.775 465.189 614.093 452.725 605.198C 445.481 600.028 431.358 601.64 429.577 605.198C 422.157 618.378 424.662 631.558 431.79 643.678"/>
<path fill="none" stroke-width="4" stroke="#000000" d="M 440.537 655.727C 445.001 660.927 450.063 665.825 455.2 670.315"/>
<path fill="none" stroke-width="4" stroke="#000000" d="M 432.545 637.814C 426.251 675.545 412.207 691.177 407.617 701.268"/>
<path fill="none" stroke-width="4" stroke="#000000" d="M 477.654 663.907C 468.751 663.907 456.286 666.872 452.725 673.989C 450.945 679.326 452.725 690.593 456.286 692.372C 460.791 694.623 469.344 691.779 474.686 695.338L 475.873 701.268C 465.189 708.384 449.164 704.826 438.48 708.384"/>
<path fill="none" stroke-width="4" stroke="#000000" d="M 495.46 663.907C 509.705 672.803 525.73 663.907 532.852 651.454C 534.633 646.117 535.82 638.407 537.601 633.07C 539.381 622.396 536.414 612.314 541.756 601.64C 547.097 619.431 551.846 631.884 553.033 652.64L 544.13 656.791L 547.097 670.431L 532.852 671.024L 532.852 681.698L 523.949 681.698"/>
<path fill="none" stroke-width="4" stroke="#000000" stroke-linejoin="bevel" d="M 415.629 605.791C 419.033 607.492 423.048 604.605 423.048 604.605L 427.797 608.46L 431.951 600.75L 442.338 601.047L 441.151 593.931L 442.635 588C 442.635 588 452.725 583.256 456.88 579.698C 456.88 579.105 455.693 576.437 455.693 575.844C 450.945 575.844 445.306 574.657 445.306 574.657C 445.306 574.657 444.416 572.285 442.635 569.024C 440.854 565.762 436.106 561.611 433.139 561.314C 430.171 561.018 425.719 561.611 425.719 561.611C 425.719 561.611 420.971 550.344 418.894 549.454C 416.816 548.565 410.584 553.605 410.584 553.605C 410.584 553.605 414.739 570.803 416.816 582.663C 415.036 582.07 395.523 567.022 395.523 567.022L 391.888 572.285C 391.888 572.285 391.029 576.652 393.075 579.105C 397.526 584.442 406.172 589.717 409.397 593.931C 413.255 598.971 410.287 603.123 415.629 605.791z"/>
<path fill="none" stroke-width="4" stroke="#000000" d="M 408.804 665.093C 418.894 657.977 419.487 644.338 425.423 634.256"/>
<path fill="none" stroke-width="3" stroke="#000000" stroke-linejoin="bevel" d="M 427.203 571.396L 435.216 577.623"/>
</g>
<g>
<path fill="#ff0000" stroke="none" d="M 255.463 676.427L 249.963 690.927C 249.963 690.927 249.963 705.927 255.963 712.927C 261.963 719.927 275.463 732.927 285.463 733.427C 295.463 733.927 300.963 736.427 307.463 728.927C 313.963 721.427 320.463 716.927 320.963 702.427C 321.463 687.927 326.463 677.927 317.463 674.927C 308.463 671.927 293.463 672.427 293.463 672.427L 281.963 674.927L 265.963 671.927L 255.463 676.427z"/>
<path fill="#ff0000" stroke="none" d="M 263.463 602.927C 263.463 602.927 250.963 598.927 247.963 604.927C 244.963 610.927 244.963 628.927 244.963 628.927C 244.963 628.927 249.463 635.927 253.463 632.927C 257.463 629.927 275.463 615.427 275.463 615.427L 262.463 615.427L 263.463 602.927z"/>
<path fill="#ff0000" stroke="none" d="M 309.963 600.927C 309.963 600.927 324.463 598.927 328.463 605.427C 332.463 611.927 327.963 629.927 327.963 629.927L 314.463 629.427C 314.463 629.427 307.463 628.927 302.963 623.927C 298.463 618.927 300.963 611.927 300.963 611.927L 314.963 618.927L 309.963 600.927z"/>
<path fill="#ff0000" stroke="none" d="M 268.463 641.927L 277.463 640.927L 277.963 649.427L 267.963 648.427L 268.463 641.927z"/>
<path fill="#ff0000" stroke="none" d="M 294.463 641.427C 294.463 641.427 301.463 636.427 302.963 640.927C 304.463 645.427 304.963 649.927 300.463 650.427C 295.963 650.927 290.963 649.427 291.463 646.427C 291.963 643.427 294.463 641.427 294.463 641.427z"/>
<path fill="none" stroke-width="6" stroke="#ff0000" d="M 246.963 694.427L 219.463 684.927L 201.963 705.427"/>
<path fill="none" stroke-width="6" stroke="#ff0000" d="M 251.463 710.927L 219.963 704.927L 209.963 721.427"/>
<path fill="none" stroke-width="6" stroke="#ff0000" d="M 258.963 719.427L 230.463 716.927L 228.963 728.927"/>
<path fill="none" stroke-width="6" stroke="#ff0000" d="M 242.463 628.427C 242.463 628.427 233.463 637.427 232.963 642.927C 232.463 648.427 236.463 667.427 236.463 667.427L 250.463 679.427"/>
<path fill="none" stroke-width="6" stroke="#ff0000" d="M 335.463 636.427L 337.963 650.427L 331.963 666.427L 323.463 679.427"/>
<path fill="none" stroke-width="6" stroke="#ff0000" d="M 324.463 690.927L 354.463 683.427L 365.463 703.427"/>
<path fill="none" stroke-width="6" stroke="#ff0000" d="M 323.963 704.427L 346.963 698.427L 353.963 712.927"/>
<path fill="none" stroke-width="6" stroke="#ff0000" d="M 362.463 699.927L 357.963 732.927"/>
<path fill="none" stroke-width="6" stroke="#ff0000" d="M 352.463 713.427L 351.463 740.427"/>
<path fill="none" stroke-width="6" stroke="#ff0000" d="M 321.463 714.427L 340.463 710.927L 345.963 729.427L 340.463 738.427"/>
</g>
<g>
<path fill="none" stroke-width="6" stroke="#000000" d="M 279.588 674.302C 272.234 672.201 264.588 670.302 258.588 673.802C 248.588 679.802 250.088 693.802 251.088 704.302C 256.588 711.302 258.588 720.802 266.588 724.802C 272.588 728.302 278.588 730.802 285.088 732.802C 290.588 734.802 295.588 732.802 300.588 731.302C 313.088 727.302 319.088 713.802 320.588 701.802C 321.588 693.802 322.588 685.302 319.088 677.302C 314.588 669.302 300.088 672.802 290.088 672.802C 285.088 674.802 283.088 675.302 279.588 674.302z"/>
<path fill="none" stroke-width="6" stroke="#000000" d="M 276.088 673.802C 272.588 666.302 272.088 658.302 272.588 650.302C 272.651 649.304 276.588 650.302 277.588 649.302C 279.588 647.802 279.088 644.302 278.088 642.302C 276.088 639.302 271.088 641.302 267.588 640.802C 267.588 643.302 266.588 646.802 268.588 648.302C 269.088 649.302 272.588 649.302 272.588 650.302"/>
<path fill="none" stroke-width="6" stroke="#000000" d="M 296.588 672.302C 298.588 665.802 300.088 658.302 298.088 651.302C 298.088 651.302 301.588 650.302 302.588 648.802C 304.588 646.302 304.088 643.302 303.088 642.302C 301.088 640.302 297.088 640.802 294.088 641.802C 291.588 642.802 290.588 647.802 293.088 649.802C 294.088 650.802 297.588 649.802 298.088 651.302"/>
<path fill="none" stroke-width="6" stroke="#000000" d="M 251.088 682.302C 247.088 681.302 244.588 678.302 241.588 675.802C 240.088 673.802 238.088 671.802 237.088 669.802C 233.588 661.302 235.588 652.802 235.088 644.302C 239.088 639.802 240.088 633.302 245.088 629.802"/>
<path fill="none" stroke-width="6" stroke="#000000" d="M 247.588 631.302C 246.528 630.949 245.588 630.302 245.088 629.802C 243.088 623.802 243.088 617.302 244.588 611.302C 245.588 608.302 247.588 604.802 251.088 603.302C 255.588 601.802 261.463 601.427 265.963 601.927C 263.838 606.302 262.311 610.069 262.213 614.677C 262.088 620.552 260.588 626.802 255.588 630.802C 253.588 632.802 250.588 632.302 247.588 631.302z"/>
<path fill="none" stroke-width="6" stroke="#000000" d="M 263.713 616.177C 267.713 615.677 271.588 614.802 275.088 612.802C 275.713 617.802 263.213 628.802 257.713 629.677"/>
<path fill="none" stroke-width="6" stroke="#000000" d="M 322.088 683.302C 324.588 683.302 326.088 681.302 327.088 679.802C 332.588 671.802 336.588 663.302 340.088 654.302C 341.588 649.802 340.588 644.802 340.588 639.802C 340.088 638.802 339.588 637.302 338.588 636.802C 335.088 634.802 333.588 630.802 329.088 630.302"/>
<path fill="none" stroke-width="6" stroke="#000000" d="M 327.088 630.802C 330.588 623.302 331.588 615.802 329.588 607.802C 327.588 599.802 308.963 600.302 308.963 600.302L 309.088 605.177L 311.963 606.302L 311.713 609.677L 314.588 610.927L 313.755 614.136L 315.588 615.636C 315.588 615.636 315.088 624.136 316.588 627.636C 317.588 630.136 324.088 629.802 327.088 630.802z"/>
<path fill="none" stroke-width="6" stroke="#000000" d="M 316.588 619.802C 314.588 619.802 310.338 619.052 308.838 618.052C 304.838 616.052 303.963 615.302 301.088 612.052C 299.963 615.177 298.838 619.177 300.088 621.302C 304.176 628.251 315.463 629.927 322.963 629.927"/>
<path fill="none" stroke-width="6" stroke="#000000" d="M 250.588 698.302L 220.588 688.302L 201.588 705.802L 194.588 731.802"/>
<path fill="none" stroke-width="6" stroke="#000000" d="M 256.088 713.802L 221.088 707.802L 210.088 721.802L 209.088 744.802"/>
<path fill="none" stroke-width="6" stroke="#000000" d="M 261.588 722.302L 232.088 719.802L 229.588 730.802L 230.088 745.802"/>
<path fill="none" stroke-width="6" stroke="#000000" d="M 321.588 695.802L 355.588 686.802L 365.588 703.802L 360.588 732.302"/>
<path fill="none" stroke-width="6" stroke="#000000" d="M 319.088 708.802L 347.088 702.302L 357.088 714.302L 354.088 741.302"/>
<path fill="none" stroke-width="6" stroke="#000000" d="M 316.588 719.302L 339.588 713.802L 349.088 728.302L 342.588 739.802"/>
</g>
<g>
<path fill="none" stroke-width="8" stroke="#ffffff" d="M 146.592 44.934L 75.7909 115.66"/>
<path fill="none" stroke-width="8" stroke="#ffffff" d="M 75.7909 44.934L 146.592 115.66"/>
<path fill="none" stroke-width="8" stroke="#ffffff" d="M 257.884 43.8984L 217.864 116.856L 176.438 43.8984"/>
<path fill="none" stroke-width="8" stroke="#ffffff" d="M 296.961 41.9271L 296.961 117.928"/>
<path fill="none" stroke-width="8" stroke="#ffffff" d="M 336.966 41.9268L 336.966 117.927"/>
<path fill="none" stroke-width="8" stroke="#ffffff" d="M 376.963 41.9269L 376.963 117.928"/>
</g>
</svg>