<svg xmlns="http://www.w3.org/2000/svg"
	xmlns:xlink="http://www.w3.org/1999/xlink"
	viewBox="47.5 5.9 577 792"
	width="640.778" height="803.64">
<g>
<path fill="#0A50A1" stroke="none" d="M 624.487 797.927L 624.487 5.92706L 47.4867 5.92706L 47.4867 797.927L 624.487 797.927z"/>
</g>
<g>
<path fill="#008837" stroke="none" d="M 47.4817 310.094C 47.4817 310.094 250.482 277.927 332.482 273.927C 414.482 269.927 624.482 279.677 624.482 279.677L 624.487 797.927L 47.4867 797.927L 47.4817 310.094z"/>
<path fill="#9F853A" stroke="none" d="M 78.4817 388.927L 79.4817 450.927L 57.4817 464.927L 47.4817 458.927L 46.4817 379.927L 78.4817 388.927z"/>
<path fill="#BFCBE3" stroke-width="6" stroke="#819CC9" d="M 47.4817 501.927C 107.482 501.927 170.482 497.927 230.482 503.927L 230.482 517.927C 290.482 531.927 348.482 513.927 406.482 515.927C 430.482 531.927 472.482 545.927 460.482 579.927C 456.482 585.927 444.482 589.927 434.482 593.927C 400.482 601.927 368.482 613.927 334.482 619.927C 302.482 625.927 270.482 623.927 238.482 627.927C 196.482 631.927 156.482 649.927 114.482 647.927C 114.482 647.927 114.482 639.927 120.482 639.927L 120.482 635.927C 94.4817 629.927 70.9817 647.927 46.9817 647.927"/>
<path fill="#8169B0" stroke-width="6" stroke="#F0047F" d="M 88.4817 207.927C 144.482 205.927 200.482 207.927 258.482 199.927L 258.482 191.927C 234.482 185.927 208.482 187.927 186.482 175.927C 168.482 165.927 148.482 173.927 130.482 171.927C 136.482 171.927 142.482 173.927 146.482 169.927C 146.482 167.927 148.482 161.927 144.482 159.927C 120.482 157.927 98.4817 159.927 74.4817 159.927C 78.4817 167.927 86.4817 163.927 90.4817 165.927C 92.4817 167.927 88.4817 175.927 92.4817 177.927C 106.482 179.927 118.482 183.927 132.482 185.927L 132.482 191.927C 112.482 197.927 92.4817 193.927 72.4817 195.927C 72.4817 195.927 68.4817 199.927 70.4817 201.927C 76.4817 203.927 82.4817 199.927 88.4817 201.927C 88.4817 201.927 88.4817 205.927 88.4817 207.927z"/>
<path fill="#8169B0" stroke-width="6" stroke="#F0047F" d="M 284.482 81.9271C 264.086 81.9271 242.482 75.9271 222.482 81.9271C 220.482 81.9271 226.482 91.9271 220.482 95.9271C 208.482 99.9271 196.482 97.9271 184.482 101.927C 184.482 103.927 180.482 107.927 182.482 107.927C 224.482 111.927 268.482 109.927 310.482 109.927C 308.482 93.9271 284.482 107.927 272.482 99.9271C 280.482 89.9271 306.482 101.927 296.482 85.9271C 296.482 85.9271 288.482 81.9271 284.482 81.9271z"/>
<path fill="#8169B0" stroke-width="6" stroke="#F0047F" d="M 348.482 188.865C 380.482 184.865 410.482 184.865 442.482 188.865C 446.482 190.865 442.482 196.865 444.482 198.865C 452.482 200.865 460.482 194.865 468.482 200.865C 468.482 202.865 468.482 206.865 468.482 206.865C 444.482 212.865 422.482 208.865 398.482 208.865C 394.482 206.865 398.482 200.865 396.482 200.865C 372.482 194.865 344.482 206.865 326.482 186.865C 326.482 184.865 326.482 180.865 326.482 180.865C 340.482 174.865 356.482 178.865 372.482 178.865C 372.482 180.865 372.482 182.865 372.482 182.865C 366.482 182.865 362.482 182.865 356.482 182.865C 368.482 182.865 378.482 186.865 390.482 184.865"/>
<path fill="none" stroke-width="2" stroke="#FFFFFF" d="M 74.4817 517.927C 102.482 515.927 132.482 519.927 160.482 519.927"/>
<path fill="none" stroke-width="2" stroke="#FFFFFF" d="M 280.482 543.927C 318.482 543.927 358.482 533.927 396.482 539.927C 396.482 553.927 412.482 567.927 400.482 577.927C 394.482 583.927 390.482 593.927 384.482 595.927C 360.482 605.927 336.482 603.927 310.482 605.927C 310.482 605.927 310.482 609.927 310.482 611.927"/>
<path fill="none" stroke-width="2" stroke="#FFFFFF" d="M 154.482 633.927C 172.482 635.927 188.482 627.927 206.482 627.927"/>
<path fill="none" stroke-width="2" stroke="#FFFFFF" d="M 80.4817 627.927"/>
<path fill="none" stroke-width="2" stroke="#FFFFFF" d="M 118.482 545.927C 138.482 545.927 156.482 545.927 176.482 545.927"/>
<path fill="none" stroke-width="2" stroke="#FFFFFF" d="M 10.4817 353.927"/>
<path fill="#BFAC6F" stroke-width="4" stroke="#9F853A" d="M 71.3567 361.927C 66.4817 378.927 70.4817 396.552 74.3567 414.177C 77.4817 428.802 69.1067 446.802 82.2317 457.552L 80.8567 457.052C 80.8567 457.302 80.9817 457.677 81.1067 457.927C 81.6067 459.802 83.6067 460.927 85.4817 460.302L 87.3567 459.677C 92.8567 458.802 98.3567 459.302 103.732 459.552C 104.357 459.677 104.857 461.802 105.482 463.177L 106.232 463.802C 106.732 464.302 107.357 464.552 107.982 464.677L 108.857 464.677C 114.857 465.177 120.357 462.927 126.107 461.927L 128.482 459.802L 126.607 460.802L 127.857 460.802C 129.607 461.302 131.482 461.802 133.232 462.302C 134.732 462.802 136.232 462.177 136.732 460.677C 137.357 459.302 136.607 457.677 135.107 457.177L 135.232 457.802C 133.857 456.927 132.482 456.052 131.107 455.177L 126.107 455.302C 125.357 455.427 124.732 455.802 124.232 456.302L 120.607 457.427C 117.732 458.052 114.857 458.552 111.982 459.177L 108.607 458.802L 110.357 459.677L 107.232 456.552C 102.857 451.177 94.7317 453.177 88.4817 452.427L 83.4817 453.552L 87.9817 456.802L 86.2317 451.052C 84.9817 449.927 82.6067 450.052 82.3567 449.052C 79.8567 436.927 83.8567 425.552 80.7317 414.052C 76.1067 396.427 73.6067 379.552 74.1067 361.927C 74.1067 361.052 73.3567 360.302 72.4817 360.302C 71.6067 360.302 70.8567 361.052 70.8567 361.927L 71.3567 361.927z"/>
<path fill="#BFAC6F" stroke-width="4" stroke="#9F853A" d="M 51.3567 378.677C 50.6067 387.802 50.8567 397.052 52.6067 406.552C 55.9817 424.177 46.2317 441.802 52.7317 458.927L 52.7317 464.802C 52.8567 465.552 52.9817 466.302 53.4817 466.927L 54.9817 469.052C 55.1067 469.177 55.1067 469.177 55.1067 469.302L 56.7317 471.302C 57.2317 471.927 57.8567 472.302 58.4817 472.552L 60.7317 473.302C 61.3567 473.427 61.9817 473.552 62.7317 473.427L 65.7317 472.677C 67.2317 472.427 68.6067 472.177 70.1067 471.927L 72.3567 471.802L 69.4817 470.552L 71.4817 472.927L 70.7317 469.052L 69.6067 472.427C 69.4817 472.552 69.4817 472.802 69.4817 472.927L 70.4817 479.552C 70.2317 481.302 70.9817 482.927 72.6067 483.677L 74.6067 484.677C 82.9817 489.552 92.9817 487.177 102.232 487.552C 103.982 487.677 105.607 486.302 105.732 484.552C 105.857 482.802 104.482 481.302 102.732 481.177C 95.6067 478.677 88.1067 481.177 80.8567 479.802L 75.9817 476.927L 77.8567 478.927L 76.7317 472.302L 76.7317 474.927L 77.8567 471.552C 78.3567 470.177 77.9817 468.802 77.1067 467.677L 74.9817 465.427C 74.2317 464.677 73.1067 464.177 71.9817 464.302L 66.4817 464.677C 66.4817 464.677 66.4817 464.677 61.1067 466.052C 61.1067 466.052 61.1067 466.052 63.1067 466.177C 63.1067 466.177 63.1067 466.177 60.8567 465.427C 60.8567 465.427 60.8567 465.427 62.6067 466.677C 62.6067 466.677 62.6067 466.677 60.9817 464.677C 60.9817 464.677 60.9817 464.677 61.1067 464.802C 61.1067 464.802 61.1067 464.802 59.4817 462.552C 59.4817 462.552 59.4817 462.552 60.1067 464.677C 60.1067 464.677 60.1067 464.677 60.1067 460.177C 60.1067 460.177 53.9817 443.052 61.9817 425.802C 58.7317 407.802 56.8567 397.677 53.7317 388.927C 53.6067 378.677 53.6067 378.052 53.1067 377.552C 52.4817 377.552 51.8567 377.552 51.3567 378.052C 51.3567 378.677 51.3567 378.677 51.3567 378.677z"/>
<path fill="#BFAC6F" stroke-width="4" stroke="#9F853A" d="M 77.1067 418.677C 92.8567 410.552 108.482 397.927 108.857 378.552C 108.857 377.177 107.857 376.177 106.482 376.177C 105.232 376.052 104.107 377.177 104.107 378.427C 103.857 396.802 88.6067 407.177 75.8567 417.177C 75.3567 417.552 75.3567 418.177 75.7317 418.552C 76.1067 419.052 76.7317 419.052 77.1067 418.677L 77.1067 418.677z"/>
<path fill="#BFAC6F" stroke-width="4" stroke="#9F853A" d="M 63.3567 398.677C 61.6067 409.927 57.4817 421.427 61.3567 432.802C 62.1067 434.427 63.9817 435.177 65.6067 434.552C 67.3567 433.802 68.1067 431.927 67.3567 430.302C 61.8567 420.052 67.4817 409.177 65.6067 398.677C 65.6067 398.052 65.1067 397.552 64.4817 397.552C 63.8567 397.552 63.3567 398.052 63.3567 398.677L 63.3567 398.677z"/>
<path fill="#BFAC6F" stroke-width="4" stroke="#9F853A" d="M 63.2317 431.427C 62.4817 432.552 61.8567 433.802 61.1067 434.927L 60.7317 435.677L 60.7317 435.677L 60.3567 436.302L 60.3567 436.302L 59.6067 438.677C 59.3567 439.677 59.6067 440.677 60.2317 441.302L 60.9817 442.302L 60.9817 442.302L 61.3567 442.927C 61.7317 443.427 62.2317 443.802 62.8567 443.927L 63.8567 444.302C 64.6067 444.927 65.2317 445.552 65.9817 446.177L 66.6067 446.552L 64.9817 444.177L 65.2317 445.552C 65.1067 448.052 65.7317 450.552 64.1067 452.802C 63.4817 454.052 63.9817 455.677 65.3567 456.302C 66.7317 456.927 68.2317 456.427 68.8567 455.052C 71.4817 453.427 72.8567 450.802 71.6067 446.052L 71.3567 443.302C 71.2317 442.302 70.6067 441.427 69.7317 440.927L 66.3567 438.677C 66.2317 438.677 65.9817 438.552 65.8567 438.427L 64.7317 438.177L 66.1067 439.177L 65.6067 438.552L 65.6067 438.552L 64.8567 437.552L 65.4817 439.552L 65.2317 437.052L 65.1067 437.677L 65.1067 436.927L 65.1067 436.927L 64.4817 431.927C 64.8567 432.052 65.3567 432.302 65.7317 432.427C 65.9817 431.677 65.6067 430.927 64.9817 430.677C 64.2317 430.427 63.4817 430.802 63.2317 431.427L 63.2317 431.427z"/>
<path fill="#40AA54" stroke="none" d="M 47.7317 397.177L 55.815 395.26L 72.4817 405.26L 91.1484 389.26L 105.148 395.927L 123.815 369.26L 142.482 384.594L 157.815 374.594L 151.815 345.26L 151.148 317.26L 149.857 282.552L 135.815 279.26L 132.482 260.594L 104.482 256.594L 104.482 240.594L 69.815 254.594L 66.4817 242.594L 47.565 249.177L 47.7317 397.177z"/>
<path fill="#80C41B" stroke-width="4" stroke="#A0D54A" d="M 51.315 398.094C 51.315 398.094 49.4636 401.13 50.1484 400.927L 60.4817 396.427C 61.7317 396.052 62.6067 395.177 62.9817 394.052L 63.3567 389.927C 63.6067 389.052 63.4817 388.177 63.2317 387.302L 61.9817 384.677L 55.3567 387.927L 57.1067 392.802C 57.3567 398.552 59.4817 403.552 65.2317 407.427L 71.3567 409.677C 72.6067 410.052 74.1067 409.677 74.9817 408.677L 79.1067 404.052C 79.1067 404.177 78.9817 404.302 78.9817 404.427C 79.3567 398.302 85.1067 395.927 89.2317 392.552L 95.1067 386.677C 95.9817 385.802 96.2317 384.427 95.8567 383.177L 95.1067 380.802C 94.9817 380.302 94.7317 379.927 94.4817 379.552L 92.4817 376.927C 91.3567 375.552 89.4817 375.177 87.9817 375.927L 87.9817 386.177C 88.6067 388.302 89.9817 390.052 90.9817 392.052L 98.4817 397.802C 99.3567 398.427 100.357 398.677 101.232 398.552L 106.107 397.802C 106.982 397.677 107.732 397.302 108.357 396.677L 112.482 392.302C 117.107 385.552 120.857 377.552 120.357 369.052L 120.607 364.052L 118.107 367.427L 119.232 367.052L 114.982 366.052L 118.857 371.052C 123.982 380.052 132.732 386.427 143.107 387.427L 153.357 383.302C 154.357 382.552 154.982 381.302 154.982 380.052L 154.732 377.052C 154.732 376.177 154.357 375.302 153.857 374.677L 152.607 373.177L 150.232 379.552L 154.857 378.927C 154.982 378.927 154.982 378.802 155.107 378.802L 160.357 377.302C 161.357 376.927 162.232 376.177 162.607 375.177L 163.732 372.427L 163.732 372.552L 165.357 368.802C 165.732 367.927 165.732 366.927 165.482 366.052L 163.232 359.802C 161.732 353.677 156.607 349.427 150.982 346.927L 144.857 346.052L 145.607 353.677L 150.857 352.302C 151.482 352.177 152.107 351.927 152.607 351.427L 155.357 349.052C 155.982 348.552 156.482 347.802 156.607 347.052L 158.107 338.802C 158.107 327.427 149.107 317.927 137.982 316.927L 130.857 314.552L 128.982 321.677L 133.732 321.802C 135.357 321.802 137.107 321.927 138.732 321.927L 145.607 323.052C 146.732 323.302 147.732 323.177 148.607 322.677L 152.732 319.802C 157.232 313.802 159.232 306.802 155.357 297.552L 150.482 292.302L 151.357 295.802L 153.232 292.052C 153.357 291.927 153.357 291.927 153.482 291.802L 157.357 285.552C 157.857 284.677 157.982 283.677 157.607 282.802L 156.857 280.427C 156.607 279.302 155.732 278.427 154.607 278.052L 149.232 276.302C 143.482 275.927 138.107 277.802 132.482 278.177L 121.732 278.177L 121.732 285.552L 126.357 285.427C 128.232 285.052 130.232 284.677 132.107 284.302L 139.107 278.427C 139.732 277.677 140.107 276.802 140.107 275.802L 139.982 270.177C 139.107 268.052 139.107 265.677 138.607 263.427L 134.482 256.677C 133.982 255.927 133.357 255.427 132.482 255.177L 125.982 254.052L 126.107 254.052C 117.232 252.802 107.857 251.177 99.1067 254.552L 92.3567 258.927L 97.1067 264.427L 99.1067 262.677L 98.9817 262.802L 101.482 260.677L 99.8567 261.427L 106.607 255.677C 109.482 252.052 111.482 247.052 110.107 242.302L 107.607 237.802C 107.232 237.052 106.482 236.552 105.607 236.177L 99.7317 234.427C 88.4817 234.052 79.6067 242.177 71.8567 249.302L 67.2317 251.552C 66.4817 251.802 65.7317 252.302 65.3567 253.052L 65.1067 253.427L 65.1067 253.427L 64.6067 254.302L 67.3567 252.802L 66.6067 252.802L 69.4817 256.552L 70.6067 252.052C 71.2317 249.052 71.4817 246.177 69.9817 243.302L 68.7317 241.802C 68.3567 241.302 67.7317 241.052 67.1067 240.927L 65.1067 240.302L 65.8567 240.552L 64.6067 239.927C 63.9817 239.552 63.4817 239.427 62.8567 239.552L 56.9817 241.677C 57.2317 241.552 57.6067 241.427 57.8567 241.302C 53.708 242.389 51.1205 246.051 49.4834 247.39L 49.4404 250.387C 52.8425 250.012 57.5226 246.833 62.4817 244.677L 63.7317 244.677L 61.9817 244.427L 63.2317 245.177L 63.2317 245.177L 65.2317 245.927L 64.4817 245.177L 65.2317 246.177C 65.1067 249.177 64.6067 252.052 63.6067 254.802L 63.4817 255.052C 63.4817 255.302 63.3567 255.552 63.3567 255.677C 63.3567 257.427 64.6067 258.927 66.3567 258.927L 67.2317 259.052C 68.3567 259.052 69.3567 258.427 69.9817 257.552L 70.4817 256.677L 70.4817 256.677L 70.7317 256.302L 68.9817 257.677L 70.8567 256.927C 81.1067 252.552 86.7317 241.177 99.9817 241.427L 103.482 242.802L 101.482 241.177L 102.732 243.677C 102.982 246.677 104.482 249.802 99.1067 252.552L 96.2317 255.927L 96.8567 255.052L 94.3567 257.177L 94.2317 257.302L 92.2317 259.052C 90.7317 260.302 90.6067 262.552 91.8567 264.052C 93.1067 265.677 95.3567 265.802 96.9817 264.552L 98.7317 263.052C 106.857 258.052 116.482 259.927 125.107 261.302L 131.232 262.302L 128.482 260.677L 130.232 263.302C 131.857 266.552 133.482 269.802 132.732 273.677L 132.732 275.927L 133.857 273.302L 131.732 275.427C 129.607 276.302 127.482 277.177 125.357 278.052L 121.607 278.177C 119.607 278.177 117.982 279.927 117.982 281.927C 117.982 283.927 119.607 285.552 121.607 285.552L 126.607 285.677C 133.732 286.802 140.357 284.052 147.357 283.677L 153.357 285.177L 149.857 282.552L 150.482 284.927L 150.732 282.052L 149.357 284.927C 147.982 286.677 146.732 288.427 145.357 290.177L 144.107 293.927C 143.732 295.177 144.107 296.427 144.982 297.427L 147.232 299.927C 152.232 302.677 150.357 309.552 148.232 313.677L 143.607 317.177L 147.732 315.802L 143.482 314.677C 139.482 314.302 135.482 314.052 131.482 314.177L 128.982 314.177C 127.607 314.177 126.357 314.927 125.607 316.177C 124.732 318.052 125.357 320.302 127.232 321.302L 130.732 322.927C 139.732 324.427 151.357 327.677 150.607 339.677L 149.107 345.427L 150.357 343.302L 147.607 345.677L 148.982 344.927L 143.732 346.177C 142.107 346.677 140.982 348.052 140.982 349.802C 140.982 351.927 142.607 353.677 144.732 353.677L 146.732 353.552C 150.857 354.552 154.482 356.677 155.982 362.302L 158.357 368.677L 158.357 365.677L 156.607 369.427C 156.607 369.552 156.607 369.552 156.607 369.552L 155.482 372.177L 157.857 370.052L 155.232 370.927L 155.607 370.802L 148.857 372.052C 148.232 372.177 147.607 372.427 147.107 372.802C 145.607 374.302 145.357 376.677 146.732 378.302L 148.107 379.677L 147.107 377.427L 147.232 380.427L 148.732 377.177L 147.357 378.427C 138.232 380.802 129.482 375.927 125.107 366.552L 120.982 361.302C 119.982 359.802 118.107 359.177 116.482 359.802L 115.357 360.302C 113.982 360.802 113.107 362.177 112.982 363.552L 112.732 366.677C 113.607 374.177 110.857 381.677 106.357 387.802L 102.732 391.427L 105.107 390.302L 100.232 390.927L 102.982 391.677L 99.6067 389.177C 96.4817 387.927 94.6067 385.052 93.8567 380.802L 92.9817 377.802L 86.6067 381.552L 88.6067 384.177L 87.9817 382.927L 88.7317 385.302L 89.4817 381.802L 87.6067 384.052C 82.1067 389.677 74.2317 392.927 72.1067 401.302L 69.7317 403.427L 73.3567 402.427L 70.8567 401.802C 63.4817 399.552 65.6067 391.677 62.8567 386.302L 61.8567 384.302C 60.8567 382.677 58.8567 381.927 57.1067 382.677C 55.2317 383.552 54.3567 385.677 55.1067 387.552L 56.1067 389.302C 56.2317 390.177 56.3567 391.052 56.4817 391.927L 55.8567 391.802L 58.3567 389.302L 52.8567 391.177C 50.9437 391.547 49.6484 391.094 49.6484 391.094L 51.315 398.094z"/>
<path fill="#A0D54A" stroke-width="4" stroke="#80C41B" d="M 73.0442 349.99C 77.6692 354.115 81.6067 359.74 88.1067 360.99C 91.4817 361.552 94.6692 359.365 95.2942 356.052C 95.9192 352.677 93.6692 349.49 90.3567 348.865C 85.3567 347.115 80.3567 343.552 74.7942 345.49C 73.7942 344.99 72.5442 345.427 72.0442 346.427C 71.5442 347.427 71.9817 348.615 72.9817 349.115L 73.0442 349.99z"/>
<path fill="#A0D54A" stroke-width="4" stroke="#80C41B" d="M 106.294 344.74C 109.169 348.927 114.669 349.115 118.919 351.115C 121.794 351.927 124.794 350.24 125.607 347.365C 126.419 344.49 124.732 341.49 121.857 340.677C 117.794 340.177 113.919 338.427 109.732 338.802C 107.669 338.177 105.482 339.365 104.919 341.49C 104.294 343.552 105.482 345.74 107.544 346.302L 106.294 344.74z"/>
<path fill="#A0D54A" stroke-width="4" stroke="#80C41B" d="M 119.107 309.99C 123.107 313.865 129.044 313.74 134.169 314.615C 137.357 314.615 139.857 312.052 139.857 308.927C 139.919 305.802 137.357 303.24 134.232 303.24C 129.544 304.052 124.857 304.24 120.169 304.677C 118.669 304.365 117.294 305.302 116.982 306.802C 116.669 308.302 117.669 309.74 119.107 309.99L 119.107 309.99z"/>
<path fill="#A0D54A" stroke-width="4" stroke="#80C41B" d="M 64.2942 370.052C 70.5442 373.24 76.2942 378.552 83.5442 378.927C 86.9192 378.99 89.6692 376.365 89.7317 373.052C 89.7942 369.74 87.1692 366.99 83.8567 366.927L 84.4192 368.24C 78.1067 366.052 70.2942 364.115 64.2942 367.802C 63.6692 367.802 63.1067 368.302 63.1067 368.927C 63.1067 369.552 63.6692 370.052 64.2942 370.052L 64.2942 370.052z"/>
<path fill="#A0D54A" stroke-width="4" stroke="#80C41B" d="M 71.3567 265.802C 72.1692 267.427 73.1692 269.115 74.9817 269.552C 80.7317 270.927 89.5442 271.677 91.9192 263.865C 93.4817 262.49 93.6692 260.115 92.3567 258.49C 90.9817 256.927 88.6067 256.74 86.9817 258.052L 84.4817 257.99C 82.4192 262.365 76.6067 262.927 72.3567 264.052C 71.9192 263.802 71.2942 263.99 71.0442 264.427C 70.7317 264.927 70.9192 265.49 71.3567 265.802L 71.3567 265.802z"/>
<path fill="#A0D54A" stroke-width="4" stroke="#80C41B" d="M 109.419 279.24C 112.232 279.615 114.794 277.552 117.669 278.427C 120.482 278.865 123.107 276.927 123.544 274.115C 123.982 271.302 122.044 268.677 119.232 268.24C 113.794 266.177 109.169 271.615 105.607 275.115C 104.669 275.615 104.232 276.802 104.669 277.802C 105.169 278.74 106.357 279.177 107.357 278.74L 109.419 279.24z"/>
<path fill="#A0D54A" stroke-width="4" stroke="#80C41B" d="M 131.107 362.802C 134.357 364.365 135.669 368.427 140.357 368.177C 142.732 369.365 145.607 368.365 146.732 366.052C 147.919 363.677 146.919 360.802 144.607 359.677L 143.794 357.427C 139.419 356.49 133.669 356.24 130.607 360.302C 129.919 360.427 129.482 361.115 129.607 361.802C 129.794 362.49 130.419 362.927 131.107 362.802L 131.107 362.802z"/>
<path fill="#A0D54A" stroke-width="4" stroke="#80C41B" d="M 100.919 320.49C 104.044 321.365 105.419 325.24 109.107 325.115C 111.982 325.802 114.857 323.99 115.544 321.115C 116.169 318.24 114.419 315.365 111.544 314.74L 111.169 315.99C 108.669 313.49 104.482 313.365 100.919 315.365C 99.4817 315.365 98.3567 316.552 98.3567 317.927C 98.3567 319.302 99.4817 320.49 100.919 320.49L 100.919 320.49z"/>
<path fill="#A0D54A" stroke-width="4" stroke="#80C41B" d="M 113.357 291.177C 115.169 291.49 117.544 291.302 118.357 292.427C 119.857 294.49 122.232 294.865 124.357 295.365C 127.357 295.552 129.919 293.302 130.107 290.302C 130.294 287.302 128.044 284.677 125.044 284.49L 125.544 286.365C 121.669 283.177 115.357 282.74 111.732 286.74C 110.544 287.177 109.919 288.49 110.294 289.74C 110.732 290.927 112.107 291.552 113.294 291.115L 113.357 291.177z"/>
<path fill="none" stroke-width="4" stroke="#819CC9" d="M 366.482 523.927C 368.482 545.927 396.482 553.927 400.482 571.927C 400.482 581.927 410.482 579.927 414.482 587.927"/>
<path fill="none" stroke-width="4" stroke="#819CC9" d="M 430.482 541.927C 428.482 557.927 418.482 573.927 422.482 589.927"/>
<path fill="none" stroke-width="4" stroke="#819CC9" d="M 230.482 583.927C 232.482 597.927 228.482 609.927 228.482 623.927"/>
<path fill="none" stroke-width="4" stroke="#819CC9" d="M 336.482 597.927C 334.482 603.927 346.482 595.927 338.482 609.927C 339.885 607.471 320.482 601.927 320.482 597.927C 296.482 595.927 292.482 613.927 268.482 615.927"/>
<path fill="#008837" stroke-width="4" stroke="#416A40" d="M 166.482 591.927C 172.482 613.927 192.482 627.927 202.482 645.927"/>
<path fill="#008837" stroke-width="4" stroke="#416A40" d="M 185.357 578.677C 194.357 600.052 192.357 625.177 204.732 645.052C 205.732 647.552 208.607 648.677 211.107 647.677C 213.607 646.677 214.857 643.802 213.857 641.302C 214.232 635.052 210.482 630.052 208.232 624.802C 203.357 613.802 199.607 602.677 194.982 591.677C 192.857 586.677 190.607 581.802 186.732 577.927C 186.607 577.552 186.107 577.427 185.732 577.677C 185.357 577.802 185.232 578.302 185.357 578.677L 185.357 578.677z"/>
<path fill="#008837" stroke-width="4" stroke="#416A40" d="M 215.732 593.552C 215.357 614.802 208.107 637.052 215.232 657.677C 215.482 659.427 217.107 660.677 218.857 660.427C 220.607 660.302 221.857 658.677 221.732 656.802C 220.982 635.677 218.982 614.677 217.232 593.552C 217.232 593.052 216.982 592.677 216.482 592.677C 215.982 592.677 215.732 593.052 215.732 593.552L 215.732 593.552z"/>
<path fill="#008837" stroke-width="4" stroke="#416A40" d="M 231.982 592.677C 230.607 607.052 222.732 620.177 223.982 635.052C 223.982 636.552 225.107 637.677 226.482 637.677C 227.857 637.677 228.982 636.552 228.982 635.177C 231.357 621.177 231.357 606.927 232.982 592.802C 232.982 592.552 232.857 592.302 232.607 592.177C 232.232 592.177 231.982 592.427 231.982 592.677L 231.982 592.677z"/>
<path fill="#008837" stroke-width="4" stroke="#416A40" d="M 90.6067 620.552C 93.7317 629.927 95.6067 640.427 102.107 648.177C 102.732 649.177 103.982 649.552 104.982 648.927C 105.982 648.302 106.357 647.052 105.732 646.052C 102.857 636.427 96.4817 628.802 91.9817 620.052C 91.8567 619.677 91.4817 619.427 90.9817 619.552C 90.6067 619.802 90.4817 620.177 90.6067 620.552L 90.6067 620.552z"/>
<path fill="#008837" stroke-width="4" stroke="#416A40" d="M 105.732 598.802C 109.357 613.177 101.232 629.052 109.357 642.427C 109.857 643.677 111.232 644.177 112.357 643.677C 113.607 643.177 114.107 641.802 113.732 640.677C 109.732 626.927 111.232 612.302 107.232 598.552C 107.107 598.177 106.732 597.927 106.357 597.927C 105.982 598.052 105.732 598.427 105.732 598.802L 105.732 598.802z"/>
<path fill="#008837" stroke-width="4" stroke="#416A40" d="M 386.482 588.927C 387.607 598.052 389.607 607.177 391.607 616.177C 391.857 617.177 392.732 617.802 393.732 617.552C 394.607 617.427 395.232 616.552 395.107 615.552C 394.982 605.927 390.482 597.552 388.107 588.552C 387.982 588.052 387.482 587.802 387.107 587.927C 386.607 588.052 386.357 588.427 386.482 588.927L 386.482 588.927z"/>
<path fill="#008837" stroke-width="4" stroke="#416A40" d="M 341.982 708.427C 349.482 719.802 349.357 734.302 357.357 745.552C 357.857 746.552 359.232 747.052 360.357 746.427C 361.482 745.927 361.982 744.552 361.357 743.427C 356.107 731.052 350.982 718.802 343.732 707.427C 343.482 706.927 342.857 706.802 342.357 707.052C 341.982 707.302 341.732 707.927 341.982 708.427L 341.982 708.427z"/>
<path fill="#008837" stroke-width="4" stroke="#416A40" d="M 355.232 668.802C 358.732 693.552 353.357 721.302 365.482 743.677C 366.107 745.052 367.732 745.802 369.232 745.302C 370.732 744.677 371.357 743.052 370.857 741.552C 365.482 717.427 360.107 693.302 356.982 668.677C 356.857 668.177 356.482 667.802 355.982 667.927C 355.482 667.927 355.232 668.302 355.232 668.802L 355.232 668.802z"/>
<path fill="#008837" stroke-width="4" stroke="#416A40" d="M 372.357 701.802C 376.732 715.552 371.232 733.802 383.357 744.052C 384.107 745.177 385.857 745.552 386.982 744.677C 388.232 743.927 388.607 742.177 387.732 741.052C 382.107 728.177 379.857 714.177 374.107 701.302C 373.982 700.802 373.482 700.552 372.982 700.677C 372.482 700.802 372.232 701.302 372.357 701.802L 372.357 701.802z"/>
<path fill="#008837" stroke-width="4" stroke="#416A40" d="M 397.482 725.302C 397.732 729.552 398.232 733.802 398.732 738.052C 398.982 739.302 400.232 739.927 401.357 739.677C 402.607 739.427 403.232 738.177 402.982 737.052C 401.607 733.052 400.482 729.052 399.482 724.927C 399.357 724.427 398.857 724.052 398.357 724.052C 397.732 724.177 397.357 724.677 397.482 725.302L 397.482 725.302z"/>
<path fill="#008837" stroke-width="4" stroke="#416A40" d="M 282.857 684.552C 278.232 708.677 262.482 731.677 271.482 756.802C 271.482 758.427 272.857 759.552 274.482 759.552C 276.107 759.427 277.357 758.052 277.232 756.427C 272.857 731.927 281.732 709.052 284.482 684.927C 284.607 684.427 284.232 684.052 283.857 683.927C 283.357 683.802 282.982 684.177 282.857 684.552L 282.857 684.552z"/>
<path fill="#008837" stroke-width="4" stroke="#416A40" d="M 255.732 717.927C 255.982 735.052 250.357 753.052 258.107 769.427C 258.357 770.552 259.607 771.177 260.732 770.927C 261.857 770.677 262.607 769.427 262.232 768.302C 259.857 751.552 257.357 734.927 257.232 717.927C 257.232 717.552 256.857 717.177 256.482 717.177C 256.107 717.177 255.732 717.552 255.732 717.927L 255.732 717.927z"/>
<path fill="#008837" stroke-width="4" stroke="#416A40" d="M 228.482 698.427C 229.357 723.302 232.357 749.552 244.482 771.552C 245.232 773.302 247.232 774.052 248.857 773.177C 250.482 772.427 251.232 770.552 250.482 768.802C 240.107 746.552 231.607 723.052 229.982 698.302C 229.982 697.927 229.607 697.552 229.232 697.552C 228.857 697.552 228.482 697.927 228.482 698.427L 228.482 698.427z"/>
<path fill="#008837" stroke-width="4" stroke="#416A40" d="M 208.482 742.177C 213.607 756.052 216.357 772.177 228.857 781.927C 229.857 782.927 231.482 782.927 232.482 781.927C 233.607 780.927 233.607 779.302 232.607 778.302C 222.732 767.802 215.607 755.052 210.107 741.677C 209.857 741.177 209.482 741.052 208.982 741.177C 208.607 741.302 208.357 741.802 208.482 742.177L 208.482 742.177z"/>
<path fill="#008837" stroke-width="4" stroke="#416A40" d="M 369.357 591.427C 376.982 609.177 378.607 629.052 388.857 645.802C 390.357 647.802 393.107 648.302 395.107 646.802C 397.232 645.302 397.607 642.427 396.107 640.427C 386.982 624.177 379.357 607.302 370.732 590.802C 370.607 590.427 370.107 590.302 369.732 590.427C 369.357 590.552 369.232 591.052 369.357 591.427L 369.357 591.427z"/>
<path fill="#008837" stroke-width="4" stroke="#416A40" d="M 398.107 609.677C 398.107 625.302 392.857 640.427 394.732 656.177C 394.732 659.427 397.232 662.052 400.482 662.052C 403.732 662.052 406.232 659.427 406.232 656.177C 407.482 640.302 404.607 624.552 400.357 609.427C 400.357 608.802 399.732 608.302 399.107 608.427C 398.482 608.427 398.107 609.052 398.107 609.677L 398.107 609.677z"/>
<path fill="#008837" stroke-width="4" stroke="#416A40" d="M 407.732 594.302C 406.607 602.177 405.607 610.052 405.232 617.927C 405.232 619.677 406.732 621.052 408.482 621.052C 410.232 621.052 411.732 619.677 411.732 617.927C 411.232 610.052 410.607 602.177 409.232 594.302C 409.232 593.927 408.982 593.552 408.482 593.552C 407.982 593.552 407.732 593.927 407.732 594.302L 407.732 594.302z"/>
<path fill="#008837" stroke-width="4" stroke="#416A40" d="M 484.982 473.427C 488.357 479.802 487.732 487.552 492.482 493.427C 492.732 493.927 493.482 494.052 493.982 493.802C 494.607 493.427 494.732 492.802 494.482 492.177C 490.482 486.302 489.357 479.177 486.357 472.927C 486.232 472.552 485.857 472.302 485.482 472.427C 485.107 472.552 484.857 473.052 484.982 473.427L 484.982 473.427z"/>
<path fill="#008837" stroke-width="4" stroke="#416A40" d="M 508.607 474.802C 508.857 478.552 509.107 482.302 509.232 486.052C 509.232 486.552 509.607 486.927 510.107 486.927C 510.482 486.802 510.857 486.427 510.857 486.052C 510.607 482.302 510.357 478.427 509.982 474.677C 509.982 474.302 509.607 473.927 509.232 474.052C 508.857 474.052 508.482 474.427 508.607 474.802L 508.607 474.802z"/>
<path fill="#BFAC6F" stroke-width="2" stroke="#9F853A" d="M 612.076 245.794L 611.525 283.35L 580.115 295.242L 576.808 249.55L 612.076 245.794z"/>
<path fill="#BE735F" stroke-width="2" stroke="#9F352A" d="M 618.689 243.29L 573.502 251.427L 559.174 222.009L 597.198 212.62L 618.689 243.29z"/>
<path fill="#80620D" stroke-width="2" stroke="#9F853A" d="M 576.257 253.305L 575.706 278.342L 499.659 281.472L 498.557 249.55L 576.257 253.305z"/>
<path fill="#DFD5B0" stroke-width="2" stroke="#9F853A" d="M 579.564 260.19L 580.115 278.968L 574.604 280.846L 572.951 254.557L 564.134 256.435L 564.685 281.472L 558.072 281.472L 555.317 257.687L 547.602 258.313L 548.669 284.191L 542.608 282.313L 539.887 257.687L 534.376 258.313L 534.376 283.976L 528.314 283.976L 526.661 257.687L 519.497 257.687L 520.599 282.098L 515.64 281.472L 513.436 256.435L 507.925 255.183L 507.925 277.716L 502.414 275.838L 501.312 252.053L 502.414 245.794L 577.359 244.542L 579.564 260.19z"/>
<path fill="#DFD5B0" stroke-width="2" stroke="#9F853A" d="M 580.115 235.779L 582.319 258.938C 582.319 258.938 557.521 265.824 542.642 265.824C 527.763 265.824 510.129 265.824 504.619 262.068C 499.108 258.313 495.802 255.809 495.802 255.809L 495.251 237.031L 580.115 235.779z"/>
<path fill="#DFD5B0" stroke-width="2" stroke="#9F853A" d="M 572.951 230.146C 572.951 230.146 579.564 232.024 580.115 235.779C 580.666 239.535 571.105 248.675 558.982 249.927C 546.858 251.179 532.982 252.427 519.497 249.55C 511.321 247.805 505.721 247.672 501.312 243.916C 496.904 240.161 494.699 236.405 496.353 235.153C 498.006 233.902 521.702 225.764 521.702 225.764L 572.951 230.146z"/>
<path fill="#DFD5B0" stroke-width="2" stroke="#9F853A" d="M 564.323 237.657C 562.118 230.772 557.159 220.131 553.852 217.002C 550.546 213.872 536.769 209.49 526.299 209.49C 520.237 209.49 514.176 212.62 509.767 218.253C 505.91 223.887 500.399 230.146 500.95 237.657C 501.087 239.528 506.482 242.427 513.482 242.927C 528.901 244.028 537.127 248.808 558.982 244.427C 563.39 243.801 569.282 241.413 572.589 237.657C 578.872 230.52 569.282 214.498 558.812 210.742L 557.159 209.49C 547.24 208.238 537.32 208.864 526.299 209.49"/>
<path fill="#DFD5B0" stroke-width="2" stroke="#9F853A" d="M 562.118 220.757C 565.425 219.505 577.548 210.742 568.991 216.176L 573.641 227.893C 578.891 224.337 572.279 228.718 565.666 232.474"/>
<path fill="#054A5E" stroke-width="2" stroke="#9F853A" d="M 570.15 215.49C 567.34 215.49 567.395 221.75 568.497 223.627C 569.599 226.131 575.11 227.383 576.212 224.253C 577.314 221.75 577.314 218.62 576.212 216.742C 575.11 214.864 571.803 215.49 570.15 215.49z"/>
<path fill="#DFD5B0" stroke-width="2" stroke="#9F853A" d="M 601.606 296.494"/>
<path fill="#BFAC6F" stroke-width="2" stroke="#9F853A" d="M 583.972 275.838C 583.972 275.838 563.583 280.22 545.949 282.098C 528.314 283.976 511.783 280.846 505.721 278.968C 499.659 277.09 494.699 272.083 494.699 272.083L 491.393 277.716L 484.229 278.968L 478.719 300.25C 478.719 300.25 501.863 310.89 525.559 311.516C 549.255 312.142 579.564 307.135 587.83 305.257C 596.096 303.379 604.362 297.12 604.362 297.12L 595.545 277.716L 588.932 277.09L 586.177 270.205L 583.421 268.327L 583.972 275.838z"/>
<path fill="#FFFF80" stroke-width="2" stroke="#9F853A" d="M 607.117 254.557L 607.117 265.824L 599.953 267.701L 598.851 255.809L 607.117 254.557z"/>
<path fill="#80620D" stroke-width="2" stroke="#9F853A" d="M 546.137 211.368C 546.137 211.368 552.199 210.742 556.608 213.872C 561.016 217.002 564.323 218.879 564.323 218.879L 558.261 222.635L 551.097 215.75L 546.137 211.368z"/>
<path fill="#80620D" stroke-width="2" stroke="#9F853A" d="M 563.635 232.276L 569.146 229.772L 571.901 236.657L 565.288 240.413L 563.635 232.276z"/>
<g>
<path fill="#008837" stroke-width="4" stroke="#40AA54" d="M 225.398 232.115C 222.564 247.365 223.139 265.24 222.933 281.99C 222.933 285.99 224.001 289.365 225.357 289.365C 226.713 289.365 227.781 285.99 227.781 281.99L 227.493 279.365C 228.233 263.615 227.165 247.99 226.096 232.615C 226.138 231.99 226.014 231.49 225.809 231.365C 225.645 231.24 225.439 231.49 225.398 232.115L 225.398 232.115z"/>
<path fill="#BFAC6F" stroke-width="4" stroke="#9F853A" d="M 249.623 288.406C 248.26 292.865 247.557 298.073 247.387 303.198C 247.344 304.698 247.344 306.365 248.473 307.365C 248.473 309.031 249.175 310.365 250.027 310.365C 250.879 310.365 251.582 309.031 251.582 307.365L 252.029 306.99C 252.519 300.656 250.815 294.948 250.432 288.823C 250.496 288.365 250.368 287.906 250.134 287.823C 249.899 287.698 249.686 287.948 249.623 288.406L 249.623 288.406z"/>
<path fill="#BFAC6F" stroke-width="4" stroke="#9F853A" d="M 281.975 300.638C 280.864 302.476 279.335 304.007 279.231 306.559C 279.127 309.214 279.196 311.664 279.44 314.267C 279.961 320.086 278.328 325.395 278.502 331.163C 277.946 333.256 278.641 335.706 280.1 336.574C 281.524 337.39 283.191 336.37 283.782 334.226L 283.434 334.073C 286.665 326.007 286.248 314.829 284.129 306.049C 283.99 305.539 284.337 304.875 284.233 304.262C 284.06 303.088 283.643 302.068 283.191 301.047C 283.295 300.587 283.087 300.077 282.74 299.924C 282.392 299.822 282.045 300.128 281.975 300.638L 281.975 300.638z"/>
<path fill="#BFAC6F" stroke-width="4" stroke="#9F853A" d="M 301.548 331.563C 300.411 333.457 299.855 336.169 299.538 338.728C 298.242 349.221 298.083 359.509 299.273 369.847C 299.273 372.304 300.305 374.3 301.575 374.3C 302.844 374.3 303.876 372.304 303.876 369.847L 303.453 370.001C 303.665 369.387 304.008 368.824 304.061 368.21C 304.379 360.686 304.934 353.162 303.903 345.894C 303.215 341.032 303.612 336.169 302.712 331.563C 302.712 330.795 302.395 330.181 301.998 330.181C 301.601 330.181 301.284 330.795 301.284 331.563L 301.548 331.563z"/>
<path fill="#008837" stroke-width="4" stroke="#40AA54" d="M 280.502 180.948C 279.377 181.823 277.502 182.448 277.377 183.573C 269.252 220.198 274.336 252.406 275.211 288.031C 275.336 293.406 278.127 302.448 275.627 307.948C 274.002 311.823 275.752 316.323 279.627 318.073C 283.502 319.698 288.003 317.948 289.628 314.073L 287.378 313.198C 294.503 307.698 293.878 298.573 293.253 291.323C 290.128 254.448 290.378 217.698 283.377 181.448C 283.502 180.323 282.752 179.323 281.627 179.198C 280.502 178.948 279.502 179.823 279.252 180.948L 280.502 180.948z"/>
<path fill="#008837" stroke-width="4" stroke="#40AA54" d="M 307.419 216.365C 293.669 255.615 298.794 298.24 295.044 338.99C 295.044 342.99 298.294 346.24 302.294 346.24C 306.294 346.24 309.544 342.99 309.544 338.99L 307.294 339.865C 313.544 299.24 309.294 257.99 309.169 217.115C 309.419 216.615 309.169 215.99 308.669 215.865C 308.169 215.615 307.544 215.865 307.419 216.365L 307.419 216.365z"/>
<path fill="#008837" stroke-width="4" stroke="#40AA54" d="M 251.294 223.865C 246.544 247.615 246.544 271.74 244.419 295.99C 244.169 299.115 251.544 298.365 256.919 297.24C 258.419 295.115 257.919 292.24 255.794 290.74C 253.669 289.365 250.794 289.865 249.294 291.99C 252.169 293.365 257.544 280.99 257.294 298.74C 253.294 273.99 253.294 248.99 253.294 223.99C 253.294 223.49 252.919 222.99 252.294 222.99C 251.794 222.865 251.294 223.365 251.294 223.865L 251.294 223.865z"/>
</g>
</g>
<g>
<path fill="#FEA033" stroke="none" d="M 159.982 203.927L 182.482 214.927L 165.982 215.927L 171.982 227.427L 153.482 217.927L 159.982 203.927z"/>
<path fill="#BFAC6F" stroke="none" d="M 60.4817 209.927L 75.9817 213.427L 82.4817 204.427L 84.4817 221.427L 100.982 227.427L 118.482 226.927L 123.982 220.427L 127.482 203.427C 127.482 203.427 130.482 195.927 136.982 194.927C 143.482 193.927 154.482 198.927 157.482 201.427C 160.482 203.927 158.482 211.927 158.482 211.927L 153.482 217.927L 146.982 218.927L 143.482 229.927C 143.482 229.927 149.482 236.427 148.982 245.427C 148.482 254.427 146.982 260.927 138.482 263.927C 129.982 266.927 121.482 266.427 110.482 264.927C 99.4817 263.427 85.4817 264.427 79.9817 256.427C 74.4817 248.427 75.9817 235.927 74.9817 232.427C 73.9817 228.927 65.4817 224.427 65.4817 224.427L 48.4817 224.427L 61.9817 216.427L 60.4817 209.927z"/>
<path fill="#F84163" stroke="none" d="M 87.9817 236.427L 94.4817 242.927L 94.9817 234.927L 104.482 240.427L 110.482 238.927L 119.482 243.927L 109.482 245.927L 109.482 252.927L 101.482 248.927L 100.982 254.927L 87.9817 247.927L 83.9817 235.427L 87.9817 236.427z"/>
<path fill="#F84163" stroke="none" d="M 72.9817 228.427L 49.9817 224.427L 63.4817 215.427L 60.9817 207.427L 75.9817 213.427L 83.9817 204.927L 84.9817 219.927L 73.9817 218.927L 71.9817 221.927L 72.9817 228.427z"/>
</g>
<g>
<path fill="none" stroke-width="4" stroke="#000000" d="M 76.2212 228.524C 76.2212 228.524 74.1675 230.153 74.5783 240.336C 74.989 250.519 77.864 253.777 86.0785 259.073C 94.2929 264.368 126.689 267.643 134.133 265.182C 140.294 263.146 147.432 257.961 148.919 249.704C 150.972 238.299 138.651 230.968 147.276 218.748C 147.276 217.526 152.204 218.341 154.669 217.119C 159.597 212.231 162.062 206.121 158.365 202.455C 153.437 195.124 142.347 190.236 133.722 195.124C 122.633 201.233 128.383 212.638 122.222 223.636C 119.758 227.302 115.65 228.931 109.489 227.709C 102.097 226.487 90.5964 226.894 85.6677 222.007C 81.9712 218.341 86.8999 208.565 83.2034 204.899C 80.7391 201.233 79.5069 211.009 77.0426 213.453C 73.3461 214.675 73.3461 208.565 69.6496 208.565C 65.9531 208.565 62.2566 207.343 59.7923 208.565C 57.328 211.009 61.0245 213.453 63.4888 215.897C 58.5602 218.341 52.3993 217.119 49.935 224.451C 56.0958 224.451 62.2566 224.451 68.4175 224.451"/>
<path fill="none" stroke-width="4" stroke="#000000" d="M 160.008 204.085C 167.401 205.714 165.758 205.714 172.33 208.972C 178.901 212.231 184.241 215.082 183.419 215.49C 178.901 217.119 163.294 215.082 163.294 215.082C 163.294 215.082 167.812 222.007 171.508 226.08C 165.758 225.672 163.705 224.043 158.776 222.414C 157.544 221.599 154.258 220.377 154.669 218.341"/>
<path fill="#FF0000" stroke-width="4" stroke="#000000" d="M 148.713 209.676C 151.119 209.676 153.07 207.355 153.07 204.492C 153.07 201.629 151.119 199.308 148.713 199.308C 146.307 199.308 144.357 201.629 144.357 204.492C 144.357 207.355 146.307 209.676 148.713 209.676z"/>
<path fill="none" stroke-width="4" stroke="#000000" d="M 140.704 241.965C 141.115 246.853 140.294 251.741 136.186 254.999C 134.133 256.629 131.668 257.036 129.204 257.443C 121.811 258.665 114.829 259.887 107.436 257.851C 105.382 257.443 103.329 257.443 101.275 256.629C 98.8108 254.999 95.9358 253.777 93.4714 252.148C 92.2393 250.926 91.0071 250.112 89.7749 248.89C 88.5428 247.668 88.1321 246.446 87.7213 245.224C 86.0785 241.965 85.257 238.707 84.4356 235.041C 85.6677 236.263 86.8999 237.077 88.5428 237.892C 91.0071 239.521 92.65 241.558 94.2929 243.594C 94.2929 241.965 94.7036 239.929 94.2929 238.299C 93.8821 236.67 93.0607 234.633 92.2393 233.004C 96.3465 236.263 100.454 239.521 104.561 242.373C 104.972 239.929 102.507 238.299 102.097 235.855C 102.918 235.855 103.329 236.263 104.15 236.67C 104.972 237.077 105.382 238.299 106.204 238.707C 107.025 238.707 108.257 238.707 109.079 239.114C 111.954 241.558 116.061 242.373 119.758 242.78C 119.758 241.965 119.758 241.151 119.758 240.336"/>
<path fill="none" stroke-width="4" stroke="#000000" d="M 108.257 267.219C 107.847 274.958 108.668 283.104 108.668 290.843C 113.597 291.251 115.65 287.992 120.579 287.585"/>
<path fill="none" stroke-width="4" stroke="#000000" d="M 120.99 295.324C 116.882 293.695 113.186 291.658 108.668 290.843C 108.668 290.843 109.079 290.436 108.668 290.843C 109.079 290.029 108.668 290.029 108.668 290.843C 108.668 295.324 113.186 297.768 115.24 301.434"/>
<path fill="none" stroke-width="4" stroke="#000000" d="M 127.561 266.812C 127.972 268.848 128.793 270.477 129.615 272.514"/>
<path fill="none" stroke-width="4" stroke="#000000" d="M 134.543 287.177L 143.169 287.177"/>
<path fill="none" stroke-width="4" stroke="#000000" d="M 134.543 287.177C 134.543 287.177 139.061 292.065 141.936 294.102"/>
</g>
<g>
<path fill="#4473B4" stroke="none" d="M 438.982 281.927L 445.482 289.427C 445.482 289.427 449.982 284.927 452.982 278.927C 455.982 272.927 457.982 266.427 457.982 266.427C 457.982 266.427 462.482 267.427 462.982 273.427C 463.482 279.427 464.482 281.927 462.982 284.927C 461.482 287.927 467.482 287.927 468.982 281.427C 470.482 274.927 474.982 270.927 474.482 268.427C 473.982 265.927 477.982 267.427 478.482 272.927C 478.982 278.427 479.982 283.427 477.982 286.927C 475.982 290.427 483.482 281.927 484.482 276.927C 485.482 271.927 489.982 265.427 489.982 269.927C 489.982 274.427 493.482 276.427 492.482 280.927C 491.482 285.427 492.982 289.927 490.482 291.427C 487.982 292.927 496.482 287.427 497.482 282.927C 498.482 278.427 503.482 275.927 501.982 272.927C 500.482 269.927 503.982 270.927 506.482 275.427C 508.982 279.927 509.982 272.927 509.982 272.927L 496.482 249.927L 501.482 213.927L 488.982 192.927L 459.482 227.427L 437.482 246.427L 438.982 281.927z"/>
<path fill="#FEE0B3" stroke="none" d="M 390.482 174.427C 390.482 174.427 405.482 150.927 414.482 147.927C 423.482 144.927 449.982 140.927 462.982 146.427C 475.982 151.927 488.982 157.427 490.482 164.927C 491.982 172.427 489.982 201.927 487.482 213.427C 484.982 224.927 485.482 240.927 475.982 247.427C 466.482 253.927 449.982 255.927 436.482 254.927C 422.982 253.927 393.982 246.927 390.482 236.927C 386.982 226.927 385.482 203.927 387.482 193.427C 389.482 182.927 390.482 174.427 390.482 174.427z"/>
<path fill="#4473B4" stroke="none" d="M 449.982 146.427C 449.982 146.427 446.482 155.927 446.982 162.927C 447.482 169.927 448.982 170.927 450.982 174.427C 452.982 177.927 453.982 176.927 457.982 179.927C 461.982 182.927 464.982 181.927 464.982 181.927L 465.982 148.927L 463.482 144.927L 452.982 142.927L 449.982 146.427z"/>
<path fill="#819CC9" stroke="none" d="M 420.482 161.927C 420.482 161.927 423.982 171.427 412.982 177.427C 401.982 183.427 390.482 189.427 384.982 194.927C 379.482 200.427 378.482 209.927 378.482 215.427C 378.482 220.927 380.482 223.927 376.482 227.427C 372.482 230.927 360.982 235.927 360.482 237.927C 359.982 239.927 371.982 228.427 372.482 223.927C 372.982 219.427 373.982 196.927 377.482 191.427C 380.982 185.927 388.482 179.927 388.482 179.927L 398.482 161.427C 398.482 161.427 413.982 145.927 421.482 144.427C 428.982 142.927 452.982 142.927 452.982 142.927C 452.982 142.927 449.482 150.427 445.982 155.927C 442.482 161.427 438.982 167.427 432.482 172.427C 425.982 177.427 418.982 177.927 418.982 177.927L 422.982 167.927L 420.482 161.927z"/>
<path fill="#4473B4" stroke="none" d="M 348.482 273.427C 348.482 273.427 348.982 268.927 356.482 262.927C 363.982 256.927 370.482 257.427 370.482 257.427L 376.482 264.427C 376.482 264.427 371.482 264.927 372.982 272.927C 374.482 280.927 379.982 287.427 379.982 287.427C 379.982 287.427 380.982 283.427 381.482 275.927C 381.982 268.427 384.982 264.427 389.482 263.427C 393.982 262.427 396.982 271.927 396.982 271.927C 396.982 271.927 395.982 270.927 395.982 276.927C 395.982 282.927 399.482 287.927 399.482 287.927C 399.482 287.927 398.982 280.427 403.982 274.927C 408.982 269.427 413.982 268.427 413.982 268.427C 413.982 268.427 410.982 271.927 411.482 275.927C 411.982 279.927 414.982 286.927 414.982 286.927C 414.982 286.927 418.482 280.427 420.482 276.427C 422.482 272.427 429.982 269.427 429.982 269.427L 435.982 281.927L 439.982 254.927C 439.982 254.927 414.982 254.927 406.982 247.427C 398.982 239.927 386.482 229.427 386.482 214.427C 386.482 199.427 388.482 191.427 388.482 191.427C 388.482 191.427 376.982 201.427 376.982 210.427C 376.982 219.427 379.982 225.427 376.482 227.427C 372.982 229.427 365.982 230.427 360.482 237.927C 354.982 245.427 345.982 254.927 346.482 261.927C 346.982 268.927 348.482 273.427 348.482 273.427z"/>
<path fill="#819CC9" stroke="none" d="M 452.982 144.427C 452.982 144.427 453.482 156.927 454.482 160.427C 455.482 163.927 456.982 169.927 460.482 175.427C 463.982 180.927 470.482 183.427 478.982 187.427C 487.482 191.427 490.982 192.427 493.482 200.427C 495.982 208.427 497.482 213.427 497.482 220.927C 497.482 228.427 495.982 233.427 495.482 240.427C 494.982 247.427 491.982 251.927 495.982 256.427C 499.982 260.927 501.982 261.927 505.482 270.427C 508.982 278.927 508.482 284.927 507.482 286.427C 506.482 287.927 500.482 293.427 500.482 293.427C 500.482 293.427 510.982 294.927 513.482 287.427C 515.982 279.927 519.482 269.427 512.982 262.927C 506.482 256.427 501.982 252.927 501.982 244.427C 501.982 235.927 510.482 219.427 510.482 212.427C 510.482 205.427 502.482 188.427 494.482 184.427C 486.482 180.427 491.482 179.927 491.482 179.927C 491.482 179.927 492.982 163.927 485.482 158.427C 477.982 152.927 452.982 144.427 452.982 144.427z"/>
<path fill="#FFFFFF" stroke="none" d="M 405.482 154.927C 405.482 154.927 434.982 161.427 444.482 162.427C 453.982 163.427 487.982 164.927 487.982 164.927L 489.982 172.927C 489.982 172.927 464.482 173.427 456.482 173.427C 448.482 173.427 427.482 167.927 418.982 166.927C 410.482 165.927 399.982 161.427 399.982 161.427L 405.482 154.927z"/>
<path fill="#81027E" stroke="none" d="M 417.982 189.927C 417.982 189.927 422.982 185.427 424.482 188.927C 425.982 192.427 424.982 205.927 424.982 205.927C 424.982 205.927 419.482 208.427 417.982 206.427C 416.482 204.427 417.982 189.927 417.982 189.927z"/>
<path fill="#81027E" stroke="none" d="M 455.482 191.927C 455.482 191.927 453.482 198.427 454.982 203.927C 456.482 209.427 458.482 210.927 458.482 210.927C 458.482 210.927 462.482 210.927 462.482 204.427C 462.482 197.927 464.482 191.427 461.982 190.427C 459.482 189.427 455.482 191.927 455.482 191.927z"/>
<path fill="#FFFFFF" stroke="none" d="M 420.732 190.177L 420.982 196.427L 417.107 196.552L 417.982 189.927L 420.732 190.177z"/>
<path fill="#FFFFFF" stroke="none" d="M 458.482 189.927L 458.482 198.927L 454.357 199.052L 455.482 191.927L 458.482 189.927z"/>
<path fill="#FEE0B3" stroke="none" d="M 313.982 315.927L 326.482 307.927C 326.482 307.927 341.482 326.427 340.982 327.927C 340.482 329.427 321.982 334.927 321.982 334.927L 313.982 315.927z"/>
<path fill="#FEA033" stroke="none" d="M 219.482 325.927L 254.982 298.427L 277.482 331.927C 277.482 331.927 297.982 332.927 305.982 335.427C 313.982 337.927 332.982 351.427 335.482 359.427C 337.982 367.427 346.982 392.927 346.982 392.927L 340.482 397.427L 348.982 404.927L 328.482 422.927L 320.482 411.427L 314.482 416.927C 314.482 416.927 271.982 396.927 265.482 385.927C 258.982 374.927 265.982 357.927 261.982 350.927C 257.982 343.927 248.982 329.427 238.982 327.927C 228.982 326.427 219.482 325.927 219.482 325.927z"/>
<path fill="#FEA033" stroke="none" d="M 565.815 343.594L 588.482 376.594C 588.482 376.594 579.482 374.26 574.148 376.26C 568.815 378.26 548.148 385.927 546.148 390.927C 544.148 395.927 541.482 420.594 534.482 423.26C 527.482 425.927 476.148 441.26 476.148 441.26L 469.148 435.594L 458.815 443.594L 443.482 423.26L 453.815 416.26L 450.482 408.927C 450.482 408.927 476.148 372.26 484.482 368.26C 492.815 364.26 514.815 366.927 521.815 368.26C 528.815 369.594 535.815 369.594 539.815 366.26C 543.815 362.927 564.815 343.26 564.815 343.26L 565.815 343.594z"/>
<path fill="#FEE0B3" stroke="none" d="M 477.815 341.927L 495.482 357.26L 509.482 340.26L 502.815 334.594L 496.815 326.594L 486.148 330.26L 477.815 341.927z"/>
<path fill="#008837" stroke="none" d="M 569.023 367.26C 564.648 366.177 560.482 368.01 557.003 370.594C 556.273 371.052 556.044 372.01 556.503 372.74C 556.94 373.469 557.898 373.698 558.648 373.26L 558.586 373.177C 561.711 370.99 565.044 368.99 569.023 369.26C 569.565 369.26 570.023 368.823 570.023 368.26C 570.023 367.698 569.565 367.26 569.023 367.26L 569.023 367.26z"/>
<path fill="#008837" stroke="none" d="M 551.544 374.094C 546.461 374.135 543.086 378.51 539.211 381.51C 537.794 382.615 536.503 383.948 536.273 386.01C 535.836 386.885 536.19 387.948 537.065 388.385C 537.94 388.823 539.003 388.469 539.44 387.594C 540.336 386.635 540.794 385.365 541.815 384.49C 544.044 382.531 546.19 380.823 548.273 378.719C 549.482 377.469 551.253 377.219 552.482 376.031C 553.023 375.781 553.253 375.135 552.982 374.594C 552.732 374.052 552.086 373.823 551.544 374.094L 551.544 374.094z"/>
<path fill="#008837" stroke="none" d="M 534.044 393.26C 531.336 397.281 530.878 402.281 527.753 406.135C 525.711 408.635 523.315 410.698 520.461 412.115C 507.794 418.365 492.669 416.948 481.044 425.219C 479.773 426.219 479.565 428.052 480.544 429.323C 481.544 430.573 483.378 430.802 484.628 429.802L 484.732 429.76C 497.128 424.594 510.753 423.74 523.065 418.073C 528.315 415.656 531.544 410.469 533.482 405.156C 534.773 401.615 535.357 397.906 535.982 394.198C 536.232 393.677 536.023 393.031 535.482 392.76C 534.961 392.51 534.315 392.719 534.044 393.26L 534.044 393.26z"/>
<path fill="#008837" stroke="none" d="M 461.461 432.969C 463.898 431.802 466.898 431.365 468.648 429.135C 469.669 428.135 469.669 426.49 468.669 425.469C 467.669 424.448 466.023 424.427 464.982 425.427C 463.086 427.219 460.648 428.635 459.773 431.281C 459.315 431.76 459.315 432.51 459.773 432.969C 460.232 433.427 460.982 433.427 461.461 432.969L 461.461 432.969z"/>
<path fill="#F8023F" stroke="none" d="M 459.211 409.99C 459.919 409.781 460.586 409.448 461.148 408.99C 462.211 408.115 463.19 407.365 464.232 406.49C 470.544 401.24 474.44 394.552 479.919 388.531C 482.753 385.427 485.94 383.094 489.148 380.344C 493.44 376.656 498.711 375.26 504.086 374.406C 504.711 374.406 505.232 373.906 505.232 373.26C 505.232 372.615 504.711 372.115 504.065 372.115C 494.628 370.302 486.169 375.948 479.378 382.094C 473.169 387.698 469.857 395.01 464.211 401.177C 462.628 402.906 460.857 404.135 459.211 405.76C 458.482 406.49 458.023 407.448 457.648 408.427C 457.169 408.885 457.169 409.635 457.648 410.094C 458.107 410.573 458.857 410.573 459.315 410.094L 459.211 409.99z"/>
<path fill="#F8023F" stroke="none" d="M 547.107 368.531C 552.669 365.302 558.232 361.927 562.565 357.094C 563.211 356.677 563.398 355.823 562.982 355.177C 562.565 354.531 561.69 354.344 561.065 354.76C 559.878 354.948 559.148 355.844 558.357 356.615C 554.482 360.427 550.003 363.281 546.003 366.802C 545.523 367.094 545.378 367.74 545.69 368.219C 545.982 368.698 546.628 368.823 547.107 368.531L 547.107 368.531z"/>
<path fill="#FFFFFF" stroke="none" d="M 517.378 377.906C 510.003 373.469 499.253 374.427 494.732 382.323L 494.253 383.615C 494.003 385.094 494.961 386.51 496.419 386.823L 501.607 387.99C 504.753 388.698 507.919 389.781 511.232 389.135C 513.836 388.656 515.482 386.573 517.794 385.448C 518.857 384.927 519.315 383.781 519.773 382.76C 520.607 381.135 519.94 379.135 518.315 378.302C 516.69 377.469 514.69 378.135 513.857 379.76C 513.648 380.01 513.461 380.281 513.253 380.531C 513.44 380.281 513.628 380.052 513.815 379.802C 512.503 381.094 510.648 381.635 509.357 382.969C 509.753 382.969 510.148 382.969 510.544 382.969C 508.919 383.115 507.315 382.885 505.711 382.823L 497.648 381.323L 499.628 385.177L 499.586 384.469C 503.253 378.656 510.794 378.781 516.794 379.948C 517.357 380.115 517.94 379.781 518.107 379.219C 518.273 378.656 517.94 378.073 517.378 377.906L 517.378 377.906z"/>
<path fill="#819CC9" stroke="none" d="M 385.482 59.0215C 402.274 59.0215 415.887 72.6348 415.887 89.4271C 415.887 106.219 402.274 119.833 385.482 119.833C 368.689 119.833 355.076 106.219 355.076 89.4271C 355.076 72.6348 368.689 59.0215 385.482 59.0215z"/>
<path fill="#819CC9" stroke="none" d="M 406.982 43.5215C 423.774 43.5215 437.387 57.1348 437.387 73.9271C 437.387 90.7194 423.774 104.333 406.982 104.333C 390.189 104.333 376.576 90.7194 376.576 73.9271C 376.576 57.1348 390.189 43.5215 406.982 43.5215z"/>
<path fill="#819CC9" stroke="none" d="M 436.482 55.5215C 453.274 55.5215 466.887 69.1348 466.887 85.9271C 466.887 102.719 453.274 116.333 436.482 116.333C 419.689 116.333 406.076 102.719 406.076 85.9271C 406.076 69.1348 419.689 55.5215 436.482 55.5215z"/>
<path fill="#819CC9" stroke="none" d="M 457.482 28.5215C 474.274 28.5215 487.887 42.1348 487.887 58.9271C 487.887 75.7194 474.274 89.3326 457.482 89.3326C 440.689 89.3326 427.076 75.7194 427.076 58.9271C 427.076 42.1348 440.689 28.5215 457.482 28.5215z"/>
<path fill="#819CC9" stroke="none" d="M 499.982 47.0215C 516.774 47.0215 530.387 60.6348 530.387 77.4271C 530.387 94.2194 516.774 107.833 499.982 107.833C 483.189 107.833 469.576 94.2194 469.576 77.4271C 469.576 60.6348 483.189 47.0215 499.982 47.0215z"/>
<path fill="#819CC9" stroke="none" d="M 497.982 73.5215C 514.774 73.5215 528.387 87.1348 528.387 103.927C 528.387 120.719 514.774 134.333 497.982 134.333C 481.189 134.333 467.576 120.719 467.576 103.927C 467.576 87.1348 481.189 73.5215 497.982 73.5215z"/>
<path fill="#819CC9" stroke="none" d="M 526.482 65.5215C 543.274 65.5215 556.887 79.1348 556.887 95.9271C 556.887 112.719 543.274 126.333 526.482 126.333C 509.689 126.333 496.076 112.719 496.076 95.9271C 496.076 79.1348 509.689 65.5215 526.482 65.5215z"/>
<path fill="none" stroke-width="3" stroke="#BFCBE3" d="M 385.753 59.5632C 402.545 59.5632 416.158 73.1765 416.158 89.9688C 416.158 106.761 402.545 120.374 385.753 120.374C 368.96 120.374 355.347 106.761 355.347 89.9688C 355.347 73.1765 368.96 59.5632 385.753 59.5632z"/>
<path fill="none" stroke-width="3" stroke="#BFCBE3" d="M 407.253 44.0632C 424.045 44.0632 437.658 57.6765 437.658 74.4688C 437.658 91.261 424.045 104.874 407.253 104.874C 390.46 104.874 376.847 91.261 376.847 74.4688C 376.847 57.6765 390.46 44.0632 407.253 44.0632z"/>
<path fill="none" stroke-width="3" stroke="#BFCBE3" d="M 436.753 56.0632C 453.545 56.0632 467.158 69.6765 467.158 86.4688C 467.158 103.261 453.545 116.874 436.753 116.874C 419.96 116.874 406.347 103.261 406.347 86.4688C 406.347 69.6765 419.96 56.0632 436.753 56.0632z"/>
<path fill="none" stroke-width="3" stroke="#BFCBE3" d="M 457.753 29.0632C 474.545 29.0632 488.158 42.6765 488.158 59.4688C 488.158 76.261 474.545 89.8744 457.753 89.8744C 440.96 89.8744 427.347 76.261 427.347 59.4688C 427.347 42.6765 440.96 29.0632 457.753 29.0632z"/>
<path fill="none" stroke-width="3" stroke="#BFCBE3" d="M 500.253 47.5632C 517.045 47.5632 530.658 61.1765 530.658 77.9688C 530.658 94.761 517.045 108.374 500.253 108.374C 483.46 108.374 469.847 94.761 469.847 77.9688C 469.847 61.1765 483.46 47.5632 500.253 47.5632z"/>
<path fill="none" stroke-width="3" stroke="#BFCBE3" d="M 498.253 74.0632C 515.045 74.0632 528.658 87.6765 528.658 104.469C 528.658 121.261 515.045 134.874 498.253 134.874C 481.46 134.874 467.847 121.261 467.847 104.469C 467.847 87.6765 481.46 74.0632 498.253 74.0632z"/>
<path fill="none" stroke-width="3" stroke="#BFCBE3" d="M 526.753 66.0632C 543.545 66.0632 557.158 79.6765 557.158 96.4688C 557.158 113.261 543.545 126.874 526.753 126.874C 509.96 126.874 496.347 113.261 496.347 96.4688C 496.347 79.6765 509.96 66.0632 526.753 66.0632z"/>
<path fill="#F8023F" stroke="none" d="M 244.669 323.115C 247.169 324.927 248.607 327.677 250.357 330.115L 250.169 329.927C 250.294 330.365 250.669 330.74 251.107 330.865L 251.544 330.99C 257.732 334.927 265.294 339.115 266.857 346.865C 267.169 347.677 268.169 348.115 269.044 347.802C 269.919 347.427 270.294 346.427 269.982 345.615C 268.169 337.49 260.419 333.177 253.794 329.177L 251.732 328.427L 252.669 329.365L 251.107 326.74L 251.044 326.802C 249.107 325.177 248.294 322.615 245.919 321.49C 245.482 321.177 244.794 321.24 244.482 321.74C 244.107 322.177 244.232 322.802 244.669 323.115L 244.669 323.115z"/>
<path fill="#F8023F" stroke="none" d="M 268.794 364.427C 268.357 370.802 266.857 377.802 272.732 382.177C 280.919 388.427 288.919 392.49 297.544 398.302C 302.169 401.427 304.982 406.302 309.982 408.865C 311.607 409.677 313.607 408.99 314.419 407.365C 315.232 405.74 314.544 403.802 312.919 402.99L 312.857 403.052C 308.482 400.052 305.544 395.74 301.044 392.74C 291.294 386.302 280.044 384.052 272.857 374.927C 270.544 371.99 271.732 367.802 270.982 364.177C 270.919 363.615 270.357 363.177 269.732 363.24C 269.169 363.302 268.732 363.865 268.794 364.427L 268.794 364.427z"/>
<path fill="#F8023F" stroke="none" d="M 324.794 407.615C 325.169 410.74 327.607 412.99 328.169 415.99C 328.857 417.24 330.482 417.74 331.732 416.99C 332.982 416.302 333.482 414.74 332.794 413.427L 332.482 413.302C 331.357 410.49 328.044 409.49 326.982 406.677C 326.732 406.052 326.044 405.802 325.419 406.052C 324.794 406.302 324.544 406.99 324.794 407.615L 324.794 407.615z"/>
<path fill="#FFFF00" stroke="none" d="M 284.794 345.677C 290.544 349.115 297.482 352.24 304.482 349.802L 304.857 349.865L 302.732 349.302L 304.732 350.427C 311.294 352.052 313.607 358.115 316.982 363.115C 317.607 364.177 318.919 364.552 319.982 363.99C 321.044 363.365 321.419 361.99 320.857 360.927C 319.669 353.552 314.482 347.927 307.732 345.115L 306.232 344.677C 305.607 344.24 304.857 344.052 304.107 344.115L 299.607 346.115C 300.294 345.677 300.982 345.177 301.669 344.74C 296.419 346.115 290.857 345.552 285.732 343.74C 285.169 343.49 284.544 343.74 284.294 344.24C 284.044 344.802 284.294 345.427 284.794 345.677L 284.794 345.677z"/>
<path fill="#FFFFFF" stroke-width="4" stroke="#BFCBE3" d="M 585.232 370.615C 587.919 371.177 591.107 371.615 592.732 374.24L 594.732 375.052L 593.044 373.427L 593.107 373.865C 594.294 375.802 595.794 377.802 595.544 379.99C 594.607 390.427 593.232 400.552 592.044 411.052C 588.169 444.615 589.169 477.49 586.294 510.927C 585.169 524.115 582.232 536.927 580.044 549.927C 579.107 551.865 579.982 554.115 581.919 555.052C 583.794 555.927 586.107 555.052 586.982 553.177L 586.482 552.865C 590.669 539.74 592.732 525.24 593.982 511.24C 596.857 477.99 595.607 445.115 598.044 411.802C 598.857 400.115 602.482 388.615 600.419 376.74C 600.107 374.677 598.669 372.99 596.857 371.74L 597.357 372.302C 597.169 371.49 596.482 370.865 595.669 370.677L 594.794 370.115C 591.732 368.927 588.732 367.615 585.357 368.427C 584.732 368.427 584.232 368.865 584.169 369.49C 584.169 370.052 584.607 370.615 585.232 370.615L 585.232 370.615z"/>
<path fill="#FFFFFF" stroke-width="4" stroke="#BFCBE3" d="M 600.357 385.74C 598.669 391.24 600.232 396.927 599.607 402.49L 599.544 405.052L 600.107 403.365L 599.232 404.552C 596.482 409.302 591.669 412.552 589.294 417.49C 586.857 422.552 586.794 428.24 586.044 433.74C 585.794 435.552 586.982 437.177 588.794 437.49C 590.544 437.74 592.232 436.552 592.482 434.74C 592.732 425.552 595.294 416.677 602.419 410.49L 604.857 406.802C 605.232 406.302 605.419 405.677 605.419 405.052L 605.419 402.49C 605.857 396.677 603.169 391.427 602.607 385.74C 602.607 385.115 602.107 384.615 601.482 384.615C 600.857 384.615 600.357 385.115 600.357 385.74L 600.357 385.74z"/>
<path fill="#FFFFFF" stroke-width="4" stroke="#BFCBE3" d="M 592.357 452.24C 588.544 463.177 583.482 473.677 579.794 484.677C 579.669 486.677 581.232 488.427 583.232 488.615C 585.294 488.74 587.044 487.177 587.169 485.177C 586.357 473.677 592.919 463.99 595.044 453.177C 595.294 452.427 594.919 451.615 594.169 451.365C 593.419 451.115 592.607 451.49 592.357 452.24L 592.357 452.24z"/>
<path fill="#FFFFFF" stroke-width="4" stroke="#BFCBE3" d="M 595.294 495.74C 593.544 500.865 595.544 506.427 593.669 511.177C 589.919 521.052 575.107 525.74 576.607 537.677C 576.482 539.24 577.732 540.615 579.357 540.677C 580.982 540.802 582.294 539.552 582.419 537.927C 585.169 529.49 592.607 524.865 598.044 517.74C 603.232 510.99 600.669 502.615 597.669 495.74C 597.669 495.052 597.107 494.552 596.482 494.552C 595.857 494.552 595.294 495.052 595.294 495.74L 595.294 495.74z"/>
<path fill="#FFFFFF" stroke-width="4" stroke="#BFCBE3" d="M 555.232 527.927C 553.044 530.677 554.732 534.177 556.357 536.802C 561.419 544.99 568.857 550.115 577.732 552.615C 578.732 553.49 580.232 553.365 581.107 552.365C 581.919 551.365 581.794 549.865 580.794 549.052C 578.669 545.552 574.732 544.365 571.482 542.052C 565.794 538.052 561.419 533.427 557.732 527.927C 557.732 527.24 557.169 526.677 556.482 526.677C 555.794 526.677 555.232 527.24 555.232 527.927L 555.232 527.927z"/>
<path fill="#FFFFFF" stroke-width="4" stroke="#BFCBE3" d="M 580.107 553.802C 568.169 553.49 557.669 547.24 545.794 545.677C 544.294 545.24 542.732 546.177 542.357 547.677C 541.982 549.177 542.857 550.74 544.357 551.177C 555.857 554.615 568.232 561.99 580.107 556.052C 580.732 556.052 581.232 555.552 581.232 554.927C 581.232 554.302 580.732 553.802 580.107 553.802L 580.107 553.802z"/>
<path fill="#FFFFFF" stroke-width="4" stroke="#BFCBE3" d="M 582.294 552.427C 588.607 550.302 594.857 548.115 600.982 545.49L 602.794 545.24L 598.794 539.49L 598.482 539.802C 594.232 543.74 589.482 546.927 584.732 550.177L 582.794 552.302C 582.357 552.865 582.044 553.615 581.982 554.365L 581.857 555.615C 581.794 557.052 582.544 558.427 583.794 559.115L 585.357 559.927C 585.982 560.302 586.669 560.427 587.419 560.365L 590.357 560.115C 598.294 556.365 606.482 559.74 614.857 559.677L 614.732 559.865L 612.232 556.677L 612.232 557.24L 614.982 553.24L 613.794 553.615C 612.357 553.74 610.982 554.615 609.669 554.615C 601.607 554.865 593.732 554.615 586.357 558.552L 584.794 559.24L 587.232 559.052L 584.669 558.427C 582.294 557.677 579.919 557.302 577.419 557.24L 574.794 557.552C 572.982 557.49 571.357 558.677 570.919 560.427L 570.544 561.99C 570.294 563.052 570.544 564.177 571.107 565.052L 573.357 567.802C 575.169 568.74 576.732 570.052 578.732 570.615L 580.169 573.24L 579.107 570.302L 579.044 571.177L 580.857 568.177L 579.857 568.865C 569.294 572.615 558.107 573.74 547.044 574.927L 546.482 574.927L 550.544 578.677L 550.357 578.677C 550.544 577.99 550.669 577.302 550.857 576.615L 551.294 574.49C 551.669 573.115 551.294 571.615 550.232 570.615L 548.732 569.177C 545.732 566.552 541.544 565.74 537.669 566.802C 535.544 567.302 534.169 569.427 534.669 571.615C 535.107 573.74 537.232 575.115 539.419 574.677L 538.857 573.927C 539.607 573.99 540.294 573.99 541.044 574.052L 544.607 576.302L 543.482 572.927L 542.982 575.115C 542.982 575.302 542.919 575.49 542.919 575.677L 542.544 579.177C 542.732 581.302 544.482 582.99 546.607 582.927L 550.107 582.802C 560.607 580.927 571.232 580.052 581.357 576.615L 584.919 574.74C 585.982 574.115 586.669 572.99 586.732 571.74L 586.794 570.927C 586.857 570.177 586.669 569.427 586.294 568.74L 584.857 566.302C 583.294 564.99 581.982 563.24 579.794 562.802L 577.419 560.74L 577.982 563.802L 578.357 562.24L 575.607 565.052L 577.857 564.865L 577.794 564.865C 578.857 564.99 579.982 565.177 581.044 565.302L 585.482 566.49C 586.294 566.677 587.107 566.615 587.919 566.24L 590.232 565.177C 593.044 564.24 595.607 562.615 598.482 562.365C 603.419 561.865 608.357 563.677 613.107 561.427L 617.107 560.552C 618.857 560.052 619.982 558.302 619.794 556.49L 619.732 555.927C 619.607 554.49 618.669 553.24 617.232 552.74L 613.794 552.115L 613.857 552.115C 606.169 552.24 598.107 548.802 590.857 552.552L 586.732 553.052L 588.857 553.49L 587.294 552.615L 589.169 556.115L 589.294 554.927L 588.419 556.99L 590.607 554.99C 590.419 555.177 590.232 555.302 590.044 555.49C 594.232 551.177 602.294 552.24 600.232 539.365L 604.044 544.365C 604.794 543.552 605.107 542.49 604.919 541.365C 604.607 539.427 602.794 538.115 600.857 538.427L 598.482 538.865C 592.794 543.052 584.732 544.365 580.669 550.615C 580.169 551.115 580.107 551.865 580.607 552.365C 581.044 552.865 581.857 552.865 582.294 552.427L 582.294 552.427z"/>
<path fill="#FFFFFF" stroke-width="4" stroke="#BFCBE3" d="M 541.669 503.615C 546.294 506.99 544.294 514.302 551.544 516.115C 550.607 515.99 549.669 515.865 548.732 515.74C 549.232 516.302 549.794 516.865 550.294 517.427L 552.419 517.802C 554.419 517.802 556.107 516.177 556.232 514.177L 556.357 512.615C 556.357 512.302 556.357 511.99 556.357 511.677L 556.357 509.365C 556.357 508.552 556.107 507.802 555.669 507.177L 552.732 504.49C 552.794 504.615 552.919 504.74 552.982 504.865C 552.357 504.302 551.794 503.74 551.169 503.177C 549.607 501.74 547.169 501.802 545.669 503.365C 544.232 504.927 544.357 507.427 545.919 508.865L 546.294 508.24C 546.732 508.927 547.169 509.615 547.607 510.302L 549.294 511.552L 548.607 509.365L 548.607 511.552C 548.607 511.49 548.607 511.49 548.607 511.427L 548.544 513.677L 552.419 510.052L 552.419 509.99C 551.419 510.24 550.419 510.427 549.419 510.677C 549.544 506.865 544.982 505.115 543.294 502.24C 542.919 501.802 542.294 501.74 541.794 502.115C 541.357 502.49 541.294 503.115 541.669 503.615L 541.669 503.615z"/>
<path fill="#FFFFFF" stroke-width="4" stroke="#BFCBE3" d="M 532.794 540.927C 532.794 541.865 533.544 542.615 534.482 542.615C 535.419 542.615 536.169 541.865 536.169 540.927C 536.169 539.99 535.419 539.24 534.482 539.24C 533.544 539.24 532.794 539.99 532.794 540.927L 532.794 540.927z"/>
<path fill="#FFFFFF" stroke-width="4" stroke="#BFCBE3" d="M 221.357 317.427C 220.732 317.115 220.044 316.802 219.419 316.49L 219.357 316.24C 219.232 316.177 219.107 316.177 218.982 316.177L 218.794 316.052L 218.794 316.052L 218.732 315.99C 218.232 315.99 217.732 316.177 217.357 316.49L 217.544 316.49C 209.857 319.427 205.982 328.677 206.857 336.302C 207.232 339.865 206.607 343.677 208.857 346.99C 211.419 350.927 214.982 353.552 216.919 357.615C 217.919 359.802 218.982 361.99 219.669 364.365C 219.669 365.927 220.982 367.177 222.544 367.115C 224.169 367.115 225.357 365.74 225.294 364.177C 227.044 355.927 218.482 349.99 214.857 343.427C 210.857 336.24 211.669 326.552 218.044 320.552L 219.919 319.365L 218.544 319.865L 218.669 319.802L 218.669 319.802L 218.857 319.74L 218.857 319.74L 219.607 319.552C 219.982 319.552 220.419 319.177 220.794 319.615C 221.419 319.74 221.982 319.427 222.169 318.802C 222.294 318.24 221.982 317.615 221.357 317.427L 221.357 317.427z"/>
<path fill="#FFFFFF" stroke-width="4" stroke="#BFCBE3" d="M 211.857 333.802C 212.732 344.302 211.607 354.302 208.794 364.865C 206.544 373.177 208.544 383.927 215.232 390.302L 217.044 391.302L 215.357 389.615L 215.669 389.177C 216.044 392.24 217.107 395.49 216.294 398.302C 212.732 411.302 211.107 423.802 210.732 436.927C 210.607 439.052 212.169 440.865 214.294 440.99C 216.357 441.115 218.169 439.49 218.294 437.427L 217.794 437.49C 219.232 424.615 219.919 412.115 224.107 399.49C 225.169 396.115 222.857 392.802 223.169 389.302L 222.232 386.177C 221.857 385.427 221.294 384.865 220.607 384.49L 218.357 382.49C 218.482 382.74 218.544 382.927 218.669 383.177C 216.732 377.552 214.357 371.865 215.357 365.865C 216.169 361.115 217.857 356.802 218.482 352.052C 219.357 345.427 216.794 339.552 214.294 333.615C 214.232 332.99 213.669 332.49 212.982 332.49C 212.357 332.552 211.794 333.115 211.857 333.802L 211.857 333.802z"/>
<path fill="#FFFFFF" stroke-width="4" stroke="#BFCBE3" d="M 210.544 397.115C 207.294 401.99 204.794 407.74 205.607 413.552C 206.294 419.24 208.919 424.49 210.794 429.865L 211.044 430.677C 211.357 431.615 212.107 432.365 213.044 432.74L 213.482 432.927C 218.232 433.365 221.919 438.552 221.857 443.24L 221.857 444.302L 222.669 441.99L 222.169 442.927C 213.544 447.552 213.794 457.552 210.107 465.49C 209.732 466.24 208.732 466.615 207.982 467.115L 206.482 467.927C 205.794 468.302 205.294 468.927 204.919 469.677L 204.044 472.052C 203.732 474.615 203.607 477.24 204.794 479.427C 208.107 485.24 213.044 489.927 212.232 496.677C 211.794 500.74 207.357 503.115 206.982 507.552C 206.482 512.927 210.044 517.177 211.107 522.177C 211.857 523.99 213.919 524.927 215.732 524.177C 217.607 523.49 218.544 521.427 217.794 519.552C 217.419 515.615 214.107 512.177 215.044 508.552C 216.044 504.427 220.044 501.115 220.107 496.615C 220.294 488.302 215.419 481.99 211.294 475.302L 211.794 472.74L 210.232 474.49L 213.857 472.365C 218.169 468.802 219.169 462.927 220.232 457.427C 220.732 454.927 222.232 452.49 224.107 450.49L 228.294 446.552C 228.857 445.927 229.107 445.115 229.107 444.24L 229.107 441.74C 228.294 435.302 223.794 428.365 217.294 426.365L 215.607 426.177L 217.607 428.24L 216.482 425.177C 216.419 425.177 216.357 425.24 216.357 425.24C 211.982 416.552 209.794 407.302 212.857 397.927C 213.044 397.302 212.732 396.615 212.107 396.365C 211.482 396.177 210.732 396.49 210.544 397.115L 210.544 397.115z"/>
<path fill="#FFFFFF" stroke-width="4" stroke="#BFCBE3" d="M 207.357 443.802C 206.794 444.115 206.169 444.427 205.607 444.74L 205.232 446.052C 205.232 446.115 205.232 446.24 205.232 446.302L 205.294 447.99C 206.294 457.74 208.294 467.24 209.482 476.99C 210.669 486.865 208.982 496.677 208.857 506.615C 208.107 508.052 208.732 509.802 210.169 510.552C 211.607 511.24 213.357 510.677 214.107 509.24C 214.794 508.177 215.982 507.115 216.044 506.052C 216.607 495.552 218.357 485.302 216.419 474.615C 214.919 465.865 212.919 457.74 210.732 449.427L 209.857 446.365L 209.857 446.427L 208.482 444.302C 208.857 444.49 209.232 444.677 209.607 444.865C 209.857 444.24 209.607 443.49 208.982 443.24C 208.419 442.927 207.669 443.177 207.357 443.802L 207.357 443.802z"/>
<path fill="#FFFFFF" stroke-width="4" stroke="#BFCBE3" d="M 214.107 444.427C 206.107 453.177 210.857 466.177 213.482 476.302C 209.232 489.365 205.107 502.302 200.419 515.365C 197.794 522.552 202.044 528.677 207.169 533.427C 208.419 535.052 210.732 535.302 212.357 534.052C 213.982 532.802 214.232 530.49 212.982 528.865L 212.794 530.427C 212.732 526.802 209.232 525.74 207.794 522.865C 207.044 521.302 206.607 519.49 207.107 517.865C 211.294 503.74 216.169 490.365 219.357 476.177C 216.294 466.052 213.107 455.74 216.294 445.302C 216.482 444.302 215.857 443.302 214.857 443.115C 213.857 442.927 212.857 443.552 212.669 444.552L 214.107 444.427z"/>
<path fill="#FFFFFF" stroke-width="4" stroke="#BFCBE3" d="M 186.419 520.927C 189.607 529.24 198.732 533.615 198.669 543.177L 201.419 545.99C 201.419 546.052 201.419 546.052 201.419 546.052C 202.732 547.74 205.107 547.99 206.794 546.677L 208.794 545.052C 209.857 543.74 211.544 542.927 211.982 541.115C 213.169 540.24 213.482 538.615 212.669 537.427C 211.794 536.24 210.169 535.927 208.982 536.74C 207.982 536.865 206.982 536.927 205.982 537.052L 202.107 540.74L 206.232 540.365L 205.232 539.49C 205.169 529.49 194.857 525.427 188.544 519.74C 188.232 519.177 187.482 518.927 186.919 519.302C 186.294 519.615 186.107 520.302 186.419 520.927L 186.419 520.927z"/>
<path fill="#FFFFFF" stroke-width="4" stroke="#BFCBE3" d="M 220.607 539.49C 221.044 537.927 221.607 536.427 222.357 534.99L 223.357 533.177L 222.232 535.052L 222.607 534.74C 223.732 535.427 224.982 535.677 226.294 535.49C 227.669 536.115 229.357 535.49 229.982 534.115C 230.669 532.677 230.044 531.052 228.607 530.365C 226.357 527.24 221.982 528.052 219.169 529.99L 218.669 530.365C 217.982 530.927 217.544 531.74 217.544 532.615L 217.232 534.802C 220.919 535.427 218.044 537.677 218.357 539.177C 218.232 539.802 218.669 540.365 219.294 540.49C 219.919 540.552 220.544 540.115 220.607 539.49L 220.607 539.49z"/>
<path fill="#FFFFFF" stroke-width="4" stroke="#BFCBE3" d="M 231.482 511.615C 233.982 509.052 234.169 504.74 239.044 504.052L 238.857 504.177L 236.294 503.74L 236.857 504.115C 237.107 504.302 237.419 504.427 237.732 504.552L 239.732 505.24L 237.857 503.927L 238.169 504.302C 239.044 506.052 239.919 507.802 241.732 508.802C 243.294 510.115 245.669 509.927 246.982 508.302C 248.357 506.677 248.107 504.302 246.482 502.99L 246.232 503.365C 245.669 501.677 244.544 500.552 243.107 499.615L 243.607 499.865C 242.982 498.99 241.982 498.427 240.919 498.365L 238.857 498.052L 240.482 498.615L 239.919 498.302C 239.169 497.802 238.232 497.677 237.357 497.865L 235.169 498.49C 231.607 501.552 229.919 506.177 229.044 510.615C 228.794 511.302 229.107 512.052 229.794 512.365C 230.482 512.615 231.232 512.302 231.482 511.615L 231.482 511.615z"/>
</g>
<g>
<path fill="none" stroke-width="6" stroke="#000000" d="M 456.357 143.24C 440.357 143.24 424.357 139.24 410.357 149.24C 400.357 159.24 390.357 169.24 388.357 183.24"/>
<path fill="none" stroke-width="6" stroke="#000000" d="M 388.143 189.593C 387.166 205.45 383.534 221.123 392.357 235.24C 398.357 245.24 410.357 249.24 424.357 253.24C 442.357 255.24 461.232 256.052 474.357 247.24C 482.148 242.008 487.693 215.787 489.684 193.915"/>
<path fill="none" stroke-width="6" stroke="#000000" d="M 490.384 183.269C 490.768 173.149 490.152 165.321 488.357 163.24C 482.482 156.427 482.732 155.552 478.357 153.24C 473.982 150.927 462.357 145.24 462.357 145.24"/>
<path fill="none" stroke-width="6" stroke="#000000" d="M 440.357 251.24C 440.357 257.24 440.357 265.24 440.357 271.24C 432.357 307.24 424.357 377.24 424.357 377.24C 424.357 377.24 370.357 457.24 362.357 505.24"/>
<path fill="none" stroke-width="6" stroke="#000000" d="M 424.357 377.24C 424.357 407.24 420.357 439.24 426.357 469.24C 428.357 485.24 444.357 497.24 450.357 513.24"/>
<path fill="none" stroke-width="6" stroke="#000000" d="M 335.815 319.594C 365.815 327.594 402.148 313.76 436.815 315.094"/>
<path fill="none" stroke-width="4" stroke="#000000" d="M 419.482 189.427C 421.482 189.427 423.982 189.427 424.482 190.927C 425.982 195.927 425.982 201.927 424.482 205.927C 423.982 206.927 419.482 206.927 418.982 205.927C 416.982 201.427 417.482 195.427 417.482 189.927L 419.482 189.427z"/>
<path fill="none" stroke-width="4" stroke="#000000" d="M 457.482 190.927C 456.982 190.927 456.065 191.01 455.482 192.01C 454.898 193.01 454.815 207.594 456.565 210.177C 457.11 210.982 460.063 212.682 460.982 209.927C 462.982 203.927 462.036 198.075 461.482 191.427C 461.398 190.427 458.982 190.927 457.482 190.927z"/>
<path fill="none" stroke-width="6" stroke="#000000" d="M 413.482 229.427C 415.982 230.427 417.482 233.427 419.982 233.927C 430.982 235.927 440.982 237.927 451.982 235.927C 454.982 235.427 458.482 234.427 460.482 231.427"/>
<path fill="none" stroke-width="6" stroke="#000000" d="M 449.982 146.927C 448.221 153.09 445.082 158.564 440.868 163.349"/>
<path fill="none" stroke-width="6" stroke="#000000" d="M 432.413 171.052C 431.781 171.52 431.137 171.978 430.482 172.427C 426.982 175.427 422.982 177.927 417.982 178.427"/>
<path fill="none" stroke-width="6" stroke="#000000" d="M 457.482 151.427C 457.482 155.633 456.76 160.019 456.726 164.261"/>
<path fill="none" stroke-width="6" stroke="#000000" d="M 457.982 172.427C 461.982 182.427 474.482 183.427 483.482 188.927C 488.482 191.927 493.482 196.927 495.482 202.427C 496.482 204.927 495.982 207.927 495.982 210.927"/>
<path fill="none" stroke-width="6" stroke="#000000" d="M 481.482 174.427C 481.982 176.927 483.482 179.427 485.982 181.427C 488.482 183.427 490.482 183.927 492.982 185.927C 497.482 188.927 499.982 192.427 502.482 196.427C 506.482 202.927 510.982 209.427 507.982 216.927C 502.982 227.427 498.982 238.427 500.982 250.427C 501.482 252.927 503.482 255.927 505.982 256.927C 510.482 259.427 512.482 263.427 513.982 267.927C 515.482 272.927 514.982 277.927 513.982 282.927C 513.482 285.927 511.482 288.927 509.482 291.927C 505.982 295.427 500.982 294.927 496.482 294.927"/>
<path fill="none" stroke-width="6" stroke="#000000" d="M 264.482 312.927C 270.938 298.579 298.982 295.427 309.482 302.427C 312.646 304.536 315.724 307.395 318.62 310.762"/>
<path fill="none" stroke-width="6" stroke="#000000" d="M 332.419 333.619C 337.337 345.281 339.724 357.304 337.815 365.26"/>
<path fill="none" stroke-width="6" stroke="#000000" d="M 252.482 298.594C 252.482 298.594 267.815 321.26 274.482 330.594C 281.148 339.927 309.815 328.594 324.482 344.594C 337.096 358.355 347.148 393.26 347.148 393.26L 341.148 398.594L 349.148 405.927L 355.815 401.26L 355.815 401.26L 323.148 429.26L 323.148 429.26L 329.148 422.594L 320.482 411.927L 314.482 416.594C 314.482 416.594 277.148 397.26 265.148 385.927C 253.148 374.594 265.148 355.26 259.148 347.927C 254.741 342.541 243.581 329.849 233.815 326.594C 227.815 324.594 215.148 327.927 215.148 327.927L 252.482 298.594z"/>
<path fill="none" stroke-width="6" stroke="#000000" d="M 550.835 353.82C 548.347 338.284 522.099 327.922 510.136 331.938"/>
<path fill="none" stroke-width="6" stroke="#000000" d="M 486.315 348.26C 474.508 360.039 466.691 374.45 466.384 385.198"/>
<path fill="none" stroke-width="6" stroke="#000000" d="M 566.16 343.116C 566.16 343.116 545.442 360.995 536.57 368.264C 527.699 375.534 502.984 357.111 484.65 368.728C 468.88 378.72 450.066 409.791 450.066 409.791L 454.466 416.506L 444.829 421.497L 439.612 415.252L 439.612 415.252L 463.837 450.807L 463.837 450.807L 459.785 442.806L 470.936 434.771L 475.51 440.842C 475.51 440.842 516.595 431.924 531.137 424.115C 545.68 416.307 539.142 394.512 546.848 388.999C 552.508 384.95 566.594 375.611 576.871 375.018C 583.185 374.653 594.543 381.177 594.543 381.177L 566.16 343.116z"/>
<path fill="none" stroke-width="6" stroke="#000000" d="M 436.482 293.927C 464.482 307.927 474.232 317.427 486.232 331.427L 495.982 327.427L 502.982 333.177L 494.482 341.677"/>
<path fill="none" stroke-width="6" stroke="#000000" d="M 504.482 337.677L 509.982 340.677L 494.461 356.219L 476.461 342.385L 486.232 331.427"/>
<path fill="none" stroke-width="6" stroke="#000000" d="M 314.815 316.927L 328.482 308.26L 340.815 328.26L 322.482 334.594L 314.815 316.927z"/>
<path fill="none" stroke-width="6" stroke="#000000" d="M 329.815 308.26L 324.482 317.594L 327.482 323.927"/>
<path fill="none" stroke-width="6" stroke="#000000" d="M 420.482 168.927C 411.482 176.427 404.482 182.927 393.482 187.427C 389.482 189.427 386.482 192.927 383.482 195.927C 380.482 198.927 379.482 203.427 378.482 207.927C 377.482 213.427 378.482 218.427 377.482 223.927C 376.982 227.927 373.482 229.927 370.482 231.927C 365.982 235.427 360.982 236.927 358.482 241.427C 350.982 254.427 341.982 268.427 348.982 282.927C 349.982 284.927 353.482 284.927 354.982 287.427"/>
<path fill="none" stroke-width="6" stroke="#000000" d="M 437.815 141.26L 440.482 105.26L 436.482 85.2604"/>
<path fill="none" stroke-width="6" stroke="#000000" d="M 478.357 153.24C 478.357 153.24 477.815 131.26 483.815 120.594C 489.815 109.927 497.815 103.927 497.815 103.927"/>
<path fill="none" stroke-width="6" stroke="#000000" d="M 398.482 162.427C 398.482 162.427 424.815 172.427 442.982 173.427C 454.982 174.088 490.482 173.927 490.482 173.927"/>
<path fill="#FFFFFF" stroke-width="4" stroke="#000000" d="M 435.143 66.7828L 438.397 78.7756L 449.802 73.8419L 442.455 83.8636L 453.423 89.7059L 441.007 90.2092L 443.278 102.426L 435.143 93.0328L 427.008 102.426L 429.279 90.2092L 416.863 89.7059L 427.831 83.8636L 420.484 73.8419L 431.889 78.7756L 435.143 66.7828z"/>
<path fill="#FFFFFF" stroke-width="4" stroke="#000000" d="M 496.476 85.4495L 499.73 97.4423L 511.135 92.5085L 503.788 102.53L 514.756 108.373L 502.34 108.876L 504.611 121.093L 496.476 111.699L 488.341 121.093L 490.613 108.876L 478.197 108.373L 489.164 102.53L 481.817 92.5085L 493.222 97.4423L 496.476 85.4495z"/>
<path fill="none" stroke-width="6" stroke="#000000" d="M 463.815 164.594C 463.815 164.594 465.815 129.26 473.148 113.26C 480.482 97.2604 499.148 76.5938 499.148 76.5938"/>
<path fill="none" stroke-width="6" stroke="#000000" d="M 384.482 88.5938C 384.482 88.5938 395.815 102.594 400.482 117.927C 405.148 133.26 403.148 154.927 403.148 154.927C 403.148 154.927 422.482 161.927 441.148 163.26C 459.815 164.594 486.482 166.594 490.482 166.594C 494.482 166.594 492.482 133.26 501.148 121.927C 509.815 110.594 525.815 95.2604 525.815 95.2604"/>
<path fill="none" stroke-width="6" stroke="#000000" d="M 443.211 161.594L 457.211 58.2604"/>
<path fill="none" stroke-width="6" stroke="#000000" d="M 406.482 73.2604C 406.482 73.2604 422.482 95.2604 423.815 113.26L 419.815 161.26"/>
<path fill="#FFFFFF" stroke-width="4" stroke="#000000" d="M 383.143 64.2701L 387.482 80.2604L 402.688 73.6823L 392.892 87.0446L 407.516 94.8342L 390.961 95.5052L 393.99 111.794L 383.143 99.2701L 372.296 111.794L 375.325 95.5052L 358.77 94.8342L 373.394 87.0446L 363.598 73.6823L 378.804 80.2604L 383.143 64.2701z"/>
<path fill="#FFFFFF" stroke-width="4" stroke="#000000" d="M 526.476 70.9368L 530.815 86.9271L 546.021 80.3489L 536.225 93.7112L 550.849 101.501L 534.294 102.172L 537.323 118.461L 526.476 105.937L 515.629 118.461L 518.658 102.172L 502.103 101.501L 516.727 93.7112L 506.931 80.3489L 522.137 86.9271L 526.476 70.9368z"/>
<path fill="#FFFFFF" stroke-width="4" stroke="#000000" d="M 499.81 52.2701L 504.148 68.2604L 519.355 61.6823L 509.559 75.0446L 524.183 82.8342L 507.628 83.5052L 510.656 99.7944L 499.81 87.2701L 488.963 99.7944L 491.991 83.5052L 475.437 82.8342L 490.06 75.0446L 480.264 61.6823L 495.471 68.2604L 499.81 52.2701z"/>
<path fill="#FFFFFF" stroke-width="4" stroke="#000000" d="M 409.143 46.9368L 413.482 62.9271L 428.688 56.3489L 418.892 69.7112L 433.516 77.5008L 416.961 78.1719L 419.99 94.4611L 409.143 81.9368L 398.296 94.4611L 401.325 78.1719L 384.77 77.5008L 399.394 69.7112L 389.598 56.3489L 404.804 62.9271L 409.143 46.9368z"/>
<path fill="#FFFFFF" stroke-width="4" stroke="#000000" d="M 457.872 33.9368L 462.211 49.9271L 477.417 43.3489L 467.621 56.7112L 482.245 64.5008L 465.69 65.1719L 468.719 81.4611L 457.872 68.9368L 447.025 81.4611L 450.054 65.1719L 433.499 64.5008L 448.123 56.7112L 438.327 43.3489L 453.533 49.9271L 457.872 33.9368z"/>
</g>
<g>
<path fill="none" stroke-width="8" stroke="#FFFFFF" d="M 173.118 44.934L 102.317 115.66"/>
<path fill="none" stroke-width="8" stroke="#FFFFFF" d="M 102.317 44.934L 173.118 115.66"/>
<path fill="none" stroke-width="8" stroke="#FFFFFF" d="M 284.41 43.8984L 244.389 116.856L 202.964 43.8984"/>
<path fill="none" stroke-width="8" stroke="#FFFFFF" d="M 323.487 41.9271L 323.487 117.928"/>
<path fill="none" stroke-width="8" stroke="#FFFFFF" d="M 363.482 41.9268L 363.482 117.927"/>
</g>
</svg>