<svg xmlns="http://www.w3.org/2000/svg"
	xmlns:xlink="http://www.w3.org/1999/xlink"
	viewBox="283.4 420.4 577 792"
	width="577" height="792">
<g>
<path fill="#448ce2" stroke="none" d="M 860.382 1212.38L 860.382 420.382L 283.382 420.382L 283.382 1212.38L 860.382 1212.38z"/>
</g>
<g>
<path fill="#99b2f2" stroke-width="1" stroke="#ffffff" d="M 724.882 915.945L 364.382 420.382L 308.382 420.382L 724.882 915.945z"/>
<path fill="#99b2f2" stroke-width="1" stroke="#ffffff" d="M 724.882 915.945L 860.382 689.049L 860.382 716.382L 724.882 915.945z"/>
<path fill="#99b2f2" stroke-width="1" stroke="#ffffff" d="M 724.882 915.945L 398.382 420.382L 377.382 420.382L 724.882 915.945z"/>
<path fill="#99b2f2" stroke-width="1" stroke="#ffffff" d="M 284.382 570.382L 724.882 915.945L 282.382 602.382L 284.382 570.382z"/>
<path fill="#99b2f2" stroke-width="1" stroke="#ffffff" d="M 724.882 915.945L 860.382 502.382L 860.382 614.382L 724.882 915.945z"/>
<path fill="#ffff7f" stroke-width="3" stroke="#ffffbf" d="M 724.882 862.912C 754.171 862.912 777.915 886.656 777.915 915.945C 777.915 945.234 754.171 968.978 724.882 968.978C 695.593 968.978 671.849 945.234 671.849 915.945C 671.849 886.656 695.593 862.912 724.882 862.912z"/>
</g>
<g>
<path fill="#0f6e0f" stroke="none" d="M 281.382 932.882L 353.382 928.382L 623.382 923.882L 813.882 959.882L 860.382 959.882L 858.882 1210.38L 284.382 1213.38L 281.382 932.882z"/>
<path fill="#bf7f00" stroke="none" d="M 718.382 885.716C 718.382 885.716 756.382 883.716 774.382 877.716C 792.382 871.716 805.049 865.049 812.382 861.049C 819.715 857.049 828.382 849.716 833.715 851.049C 839.049 852.382 851.715 857.049 851.715 857.049L 860.382 864.382L 859.715 979.049L 725.715 949.716L 689.715 898.382L 718.382 885.716z"/>
<path fill="#9f3f3f" stroke="none" d="M 372.382 899.382L 367.382 868.382L 463.382 861.382L 490.382 894.382L 372.382 899.382z"/>
<path fill="#7fbfbf" stroke="none" d="M 371.382 902.382L 489.382 898.382L 492.382 955.382L 380.382 953.382L 314.382 963.382L 301.382 838.382L 324.382 799.382L 358.382 826.382L 371.382 902.382z"/>
<path fill="#ffff7f" stroke="none" d="M 727.215 896.841C 729.465 899.632 732.715 900.966 736.299 901.424C 735.674 901.466 735.049 901.549 734.424 901.591C 736.549 902.299 738.799 902.424 741.007 902.549C 739.424 902.716 737.965 901.674 736.549 900.507C 744.299 909.799 757.965 904.799 767.299 900.507C 772.424 898.174 777.882 896.841 783.007 894.091C 783.757 893.716 785.049 894.049 785.757 893.382C 790.84 888.632 796.215 884.841 802.257 881.674C 807.632 881.549 812.882 880.132 817.34 877.091L 819.09 876.091C 820.049 875.674 820.799 874.924 821.174 873.966L 821.299 873.674C 820.757 873.841 820.257 874.007 819.715 874.174C 820.382 870.507 822.924 868.091 825.34 865.341C 825.59 865.091 825.465 864.507 825.507 864.049L 825.507 863.091L 823.715 864.841L 824.007 864.841C 825.424 863.966 826.84 863.132 828.049 861.966L 829.132 861.091L 828.507 861.257L 829.007 861.216C 829.882 861.257 830.757 862.007 831.632 861.216C 832.465 861.216 833.132 860.549 833.132 859.716C 833.132 858.882 832.465 858.216 831.632 858.216C 831.174 858.174 830.715 858.174 830.257 858.132L 828.257 858.257C 827.507 858.299 826.882 858.924 826.882 859.716L 826.132 859.716C 826.174 859.757 826.174 859.757 826.215 859.799C 825.34 860.674 824.382 861.424 823.299 862.007L 823.715 861.257C 822.715 861.257 821.924 862.049 821.924 863.049L 821.049 864.007C 820.882 863.882 820.674 863.632 820.632 863.632C 818.299 865.591 816.507 867.841 814.924 870.341C 815.174 869.841 815.424 869.341 815.674 868.841L 813.674 870.841L 817.09 868.382L 815.299 868.591C 808.09 869.924 800.215 872.007 795.715 878.799C 794.84 880.132 792.882 881.091 791.299 880.591C 789.549 880.049 787.715 879.549 786.049 880.216C 781.965 881.882 776.799 881.882 774.549 886.674C 771.299 888.341 767.59 888.424 764.09 888.341C 758.882 888.257 753.84 890.757 748.465 890.507C 748.965 890.882 749.507 891.299 750.007 891.674C 747.757 889.132 745.174 886.382 741.674 886.299C 738.924 886.257 736.174 885.591 733.424 886.507C 732.507 886.841 731.382 887.049 731.007 887.841C 730.882 888.174 731.34 888.799 731.59 889.299C 730.757 889.257 729.924 889.216 729.09 889.174C 726.674 889.049 724.549 890.966 724.424 893.382C 724.299 895.841 726.174 897.924 728.632 898.049L 727.215 896.841z"/>
<path fill="#ffff7f" stroke="none" d="M 789.007 908.382C 790.59 907.674 792.382 907.299 793.715 906.216C 801.965 899.674 810.049 894.966 818.882 889.632C 820.09 888.882 822.049 889.174 823.59 888.132C 824.257 887.674 824.799 887.091 825.382 886.549C 825.59 886.299 825.59 885.966 825.34 885.716C 825.132 885.507 824.757 885.507 824.549 885.716C 822.632 886.466 820.507 887.799 818.34 886.924C 807.174 891.882 796.549 898.132 788.299 907.299C 788.007 907.507 787.924 907.924 788.132 908.216C 788.34 908.507 788.715 908.591 789.007 908.382L 789.007 908.382z"/>
<path fill="#ffff7f" stroke="none" d="M 831.09 871.257C 833.257 871.049 835.007 869.674 836.549 868.299C 837.215 867.966 837.507 867.132 837.174 866.424C 836.799 865.757 836.007 865.466 835.299 865.841C 832.757 865.674 831.549 868.591 830.215 870.341C 829.965 870.549 829.965 870.966 830.174 871.216C 830.424 871.466 830.84 871.466 831.09 871.257L 831.09 871.257z"/>
<path fill="#3f5f00" stroke="none" d="M 409.382 862.382C 409.382 862.382 418.382 834.382 422.382 830.382C 426.382 826.382 444.382 802.382 457.382 795.382C 470.382 788.382 482.382 777.382 488.382 772.382C 494.382 767.382 500.382 759.382 505.382 760.382C 510.382 761.382 516.382 766.382 525.382 770.382C 534.382 774.382 542.382 778.882 542.382 778.882L 577.882 814.382L 608.382 840.382L 633.882 852.882L 685.382 862.882L 716.882 885.382L 741.382 909.382L 785.882 945.882L 837.882 960.382L 859.882 971.882L 859.882 989.382L 818.382 984.382L 734.382 984.382L 694.882 979.382L 640.882 965.882L 580.882 956.382L 495.882 948.882L 492.382 896.382L 463.382 861.382L 407.882 864.382L 409.382 862.382z"/>
<path fill="#ffff7f" stroke="none" d="M 564.257 803.299C 566.84 808.799 570.465 813.424 574.34 818.299C 575.549 819.841 577.674 820.632 577.299 823.299C 581.007 827.466 586.132 830.591 587.465 836.507C 597.174 845.424 606.924 857.882 621.132 858.216L 621.549 858.091L 617.34 854.841L 617.382 855.132C 621.049 859.549 627.632 860.716 632.09 856.882L 630.34 857.924L 628.465 857.507L 629.257 857.924C 632.34 860.091 636.215 858.799 639.715 859.466C 641.465 857.507 644.424 856.882 647.632 857.716C 649.465 858.216 651.132 856.882 653.007 856.882C 653.632 856.841 654.132 856.257 654.09 855.632C 654.007 854.966 653.465 854.507 652.799 854.549L 652.882 854.591C 650.299 854.716 647.924 855.466 645.049 854.549C 644.215 854.299 643.049 855.091 642.174 854.757C 639.257 853.674 636.674 852.007 633.465 852.132L 631.757 851.299C 631.174 850.966 630.507 850.841 629.84 850.882L 627.507 851.591C 627.257 851.882 626.965 852.174 626.715 852.466C 627.257 852.466 627.84 852.466 628.382 852.466C 626.882 851.966 625.215 852.466 623.924 850.924L 625.757 852.591C 625.215 850.674 623.507 849.382 621.549 849.341L 621.757 849.716C 619.132 847.466 615.882 846.632 612.965 844.799C 607.257 841.216 602.09 837.507 597.674 832.591C 594.799 829.424 593.299 825.507 590.09 822.632C 587.132 819.966 584.007 817.966 580.674 815.591C 576.382 812.507 572.965 809.341 569.507 805.341C 568.382 804.007 566.549 803.507 565.049 802.549C 564.84 802.299 564.507 802.299 564.257 802.507C 564.049 802.716 564.049 803.091 564.257 803.299L 564.257 803.299z"/>
<path fill="#ffff7f" stroke="none" d="M 514.84 768.507C 515.007 769.007 515.174 769.507 515.34 770.007L 515.299 770.424C 515.382 770.674 515.59 770.841 515.799 770.924L 516.132 771.091C 518.049 773.507 520.799 774.841 523.007 777.049C 523.257 777.257 523.924 777.007 524.424 776.966C 525.465 777.549 526.799 777.132 527.34 776.049C 527.924 774.966 527.507 773.674 526.424 773.132L 526.382 773.299C 524.465 770.549 521.09 770.216 518.174 769.632L 516.632 769.091L 517.132 769.591L 515.299 768.257C 515.465 768.174 515.632 768.091 515.799 768.007C 515.674 767.716 515.34 767.632 515.049 767.757C 514.799 767.882 514.674 768.216 514.84 768.507L 514.84 768.507z"/>
<path fill="#ffff7f" stroke="none" d="M 704.09 879.466C 705.007 880.466 706.007 881.424 706.299 882.841L 706.465 883.757C 706.715 884.216 707.132 884.549 707.59 884.716L 707.924 884.799C 717.174 892.424 725.84 900.632 734.132 909.716C 738.174 914.174 742.007 918.382 746.882 922.216C 747.924 923.049 749.174 923.341 750.215 924.091C 752.215 925.507 752.757 928.132 755.132 929.049L 756.34 929.549L 754.84 928.216L 755.299 929.132C 757.257 933.091 761.299 935.049 764.549 937.757L 766.799 939.257C 766.924 939.299 767.007 939.299 767.09 939.341L 768.174 939.507C 769.965 939.549 771.632 940.341 773.424 940.507C 774.465 940.716 775.465 940.007 775.632 938.966C 775.84 937.966 775.174 936.966 774.132 936.757C 772.882 936.507 771.632 936.257 770.34 936.091L 767.799 935.591L 768.799 936.091L 766.882 934.549C 767.007 934.591 767.174 934.591 767.299 934.632C 765.424 931.799 762.757 929.716 760.674 927.049L 759.799 925.591C 759.465 924.966 758.924 924.507 758.257 924.257L 757.007 924.007C 747.174 912.924 735.632 904.049 725.632 892.591C 724.924 891.757 723.799 891.507 722.965 890.799C 718.757 887.341 716.007 882.424 710.59 880.924L 708.84 880.882L 709.965 881.757L 709.215 880.882C 707.465 880.591 706.34 879.091 704.674 878.632C 704.465 878.466 704.132 878.549 703.965 878.757C 703.799 878.966 703.882 879.299 704.09 879.466L 704.09 879.466z"/>
<path fill="#ff7fbf" stroke="none" d="M 775.799 941.007C 776.757 941.299 777.674 941.632 778.299 942.507C 778.59 942.716 778.965 942.632 779.174 942.341C 779.382 942.049 779.299 941.674 779.007 941.466C 778.132 940.799 777.257 940.257 776.174 940.007C 775.882 939.882 775.59 940.049 775.465 940.299C 775.382 940.591 775.507 940.924 775.799 941.007L 775.799 941.007z"/>
<path fill="#ff7fbf" stroke="none" d="M 703.465 893.299C 703.465 893.591 703.674 893.841 703.965 893.841C 704.257 893.841 704.507 893.591 704.507 893.299C 704.507 893.007 704.257 892.799 703.965 892.799C 703.674 892.799 703.465 893.007 703.465 893.299L 703.465 893.299z"/>
<path fill="#ff7fbf" stroke="none" d="M 705.465 895.757C 706.299 896.716 707.049 897.799 707.715 898.882C 707.882 899.091 708.174 899.174 708.424 899.007C 708.632 898.841 708.715 898.549 708.549 898.299C 707.84 897.216 707.09 896.132 706.257 895.132C 706.049 894.924 705.757 894.882 705.549 895.049C 705.34 895.216 705.299 895.549 705.465 895.757L 705.465 895.757z"/>
<path fill="#ff7fbf" stroke="none" d="M 559.465 812.924C 561.049 814.007 561.507 815.799 562.465 817.299C 562.632 817.632 563.007 817.716 563.299 817.591C 563.59 817.424 563.715 817.049 563.549 816.757C 562.674 815.132 562.007 813.091 560.215 812.132C 560.007 811.924 559.674 811.924 559.465 812.132C 559.257 812.382 559.257 812.716 559.465 812.924L 559.465 812.924z"/>
<path fill="#ff7fbf" stroke="none" d="M 553.007 801.549C 554.09 803.257 554.549 805.299 555.757 806.924C 555.924 807.257 556.299 807.382 556.632 807.174C 556.965 807.007 557.09 806.632 556.924 806.299C 556.049 804.507 554.757 802.924 553.924 801.091C 553.757 800.841 553.465 800.716 553.215 800.841C 552.965 801.007 552.882 801.299 553.007 801.549L 553.007 801.549z"/>
<path fill="#7fbf7f" stroke="none" d="M 513.038 952.007C 528.882 957.726 544.913 957.257 561.882 960.82C 575.663 963.632 589.07 963.539 600.976 970.757C 613.257 969.82 624.695 966.632 637.163 969.726C 647.57 972.351 656.945 976.289 667.351 977.601C 693.231 994.221 708.234 989.515 734.945 991.57C 764.007 993.632 780.747 989.914 809.715 990.382C 810.559 990.382 823.445 991.195 824.57 991.476C 830.57 993.257 835.445 994.757 841.163 997.382C 845.476 999.351 850.445 998.32 855.226 998.507C 858.32 998.507 860.851 995.976 860.851 992.882C 860.851 989.789 858.32 987.257 855.226 987.257L 855.882 988.289C 851.945 986.789 847.445 988.476 843.976 987.07C 836.57 983.882 824.736 982.945 817.049 982.382C 789.205 980.132 764.32 985.507 736.382 984.382C 722.788 983.914 702.736 977.716 689.049 977.716C 665.611 968.528 654.549 966.903 629.049 963.716C 621.736 962.778 610.82 960.445 603.695 960.726C 601.351 960.82 599.382 959.32 597.132 958.851C 579.788 955.851 563.195 958.945 545.945 954.351C 535.351 951.539 524.195 953.882 513.507 950.976C 513.226 950.882 512.945 950.976 512.757 951.257C 512.663 951.539 512.757 951.82 513.038 952.007L 513.038 952.007z"/>
<path fill="#7fbf7f" stroke="none" d="M 281.945 939.632C 288.132 940.476 291.413 946.382 297.601 947.695C 300.882 948.351 303.601 945.257 306.882 946.945C 310.538 946.945 313.445 944.039 313.445 940.382C 313.445 936.726 310.445 933.82 306.882 933.82L 306.882 934.757C 303.601 933.914 301.163 933.914 296.663 936.164C 292.538 938.132 286.82 935.601 281.945 938.132C 281.57 938.132 281.288 938.507 281.288 938.882C 281.288 939.257 281.57 939.632 281.945 939.632L 281.945 939.632z"/>
</g>
<g>
<path fill="none" stroke-width="4" stroke="#000000" d="M 411.721 857.472C 414.96 845.185 417.553 833.445 426.382 826.382C 446.382 800.382 474.382 786.382 498.382 764.382C 506.382 756.382 518.382 764.382 528.382 772.382C 532.382 774.382 536.382 776.382 540.382 778.382C 572.382 800.382 590.382 834.382 624.382 848.382C 648.382 858.382 676.382 854.382 700.382 870.382C 732.382 894.382 752.382 924.382 784.382 944.382C 792.382 950.382 802.382 948.382 812.382 952.382C 826.382 956.382 842.382 958.382 854.382 968.382"/>
<path fill="none" stroke-width="4" stroke="#000000" d="M 714.382 884.382C 752.382 886.382 786.382 876.382 820.382 856.382C 828.382 852.382 844.382 848.382 854.382 860.382"/>
<path fill="none" stroke-width="4" stroke="#000000" d="M 284.382 932.382C 293.236 933.744 302.786 933.251 312.4 932.719"/>
<path fill="none" stroke-width="4" stroke="#000000" d="M 493.349 949.069C 522.607 950.48 550.734 951.15 580.382 956.382C 610.382 964.382 642.382 962.382 672.382 972.382C 678.382 972.382 686.382 976.382 692.382 978.382C 746.382 992.382 802.382 974.382 856.382 988.382"/>
<path fill="none" stroke-width="4" stroke="#000000" d="M 302.382 838.382L 326.049 798.716L 360.382 826.382L 382.382 952.382L 316.382 962.382L 302.382 838.382z"/>
<path fill="none" stroke-width="4" stroke="#000000" d="M 333.132 860.962C 342.635 860.962 350.338 852.942 350.338 843.049C 350.338 833.156 342.635 825.135 333.132 825.135C 323.63 825.135 315.926 833.156 315.926 843.049C 315.926 852.942 323.63 860.962 333.132 860.962z"/>
<path fill="none" stroke-width="4" stroke="#000000" d="M 367.382 868.382L 463.382 862.382L 492.382 896.382L 495.382 955.382L 382.382 952.382"/>
<path fill="none" stroke-width="4" stroke="#000000" d="M 492.382 896.382L 372.382 899.382"/>
<path fill="none" stroke-width="4" stroke="#000000" d="M 459.382 860.382L 458.382 846.382"/>
</g>
<g>
<path fill="#007f00" stroke="none" d="M 375.882 1061.88L 442.382 1052.88L 509.382 1043.38L 540.882 1044.38L 553.882 1075.88L 477.382 1085.38L 445.882 1092.38L 418.382 1103.88L 400.882 1101.38L 385.882 1080.38L 375.882 1061.88z"/>
<path fill="#ff0000" stroke="none" d="M 625.715 1132.38L 707.715 1107.72L 785.049 1074.38L 827.715 1110.38L 767.715 1151.05L 707.049 1195.05L 657.715 1165.72L 625.715 1132.38z"/>
<path fill="#990000" stroke="none" d="M 644.465 1154.69L 784.382 1101.05L 810.382 1119.72L 755.049 1157.72L 703.799 1195.36L 644.465 1154.69z"/>
<path fill="#ff0000" stroke="none" d="M 631.715 1127.05L 639.715 1058.38L 785.049 1046.38L 779.715 1075.05L 716.382 1106.38L 631.715 1127.05z"/>
<path fill="#ffffff" stroke="none" d="M 710.715 1040.38C 710.715 1040.38 699.715 1047.72 702.382 1061.05C 705.049 1074.38 709.049 1077.05 716.382 1079.05C 723.715 1081.05 728.382 1082.38 732.382 1074.38C 736.382 1066.38 742.382 1055.72 735.715 1048.38C 729.049 1041.05 714.715 1035.72 710.715 1040.38z"/>
<path fill="none" stroke-width="7" stroke="#ffffff" d="M 667.715 1053.05L 671.715 1055.72L 690.382 1088.38L 722.382 1092.38"/>
<path fill="#7fbfff" stroke="none" d="M 711.882 1052.51L 716.382 1054.26L 714.632 1061.76L 708.632 1060.38L 711.882 1052.51z"/>
<path fill="#7fbfff" stroke="none" d="M 725.632 1056.88L 730.507 1058.26L 728.007 1065.76L 722.757 1064.26L 725.632 1056.88z"/>
<path fill="#ffffff" stroke="none" d="M 483.382 995.882L 500.882 1000.88L 503.632 1017.26C 503.632 1017.26 501.507 1027.88 498.757 1029.13C 496.007 1030.38 489.382 1033.01 485.007 1030.13C 480.632 1027.26 474.132 1022.13 474.132 1022.13C 474.132 1022.13 474.382 1011.63 476.132 1006.01C 477.882 1000.38 483.382 995.882 483.382 995.882z"/>
<path fill="#3fff3f" stroke="none" d="M 486.132 1004.01C 486.132 1004.01 489.882 1003.51 489.882 1005.38C 489.882 1007.26 490.132 1010.76 488.632 1011.51C 487.132 1012.26 485.382 1013.38 484.882 1010.88C 484.382 1008.38 483.757 1005.88 484.382 1005.26C 485.007 1004.63 486.132 1004.01 486.132 1004.01z"/>
<path fill="#3fff3f" stroke="none" d="M 500.882 1006.26C 500.882 1006.26 498.007 1006.01 497.882 1007.51C 497.757 1009.01 497.007 1010.88 498.757 1012.13C 500.507 1013.38 502.132 1013.13 502.132 1013.13L 500.882 1006.26z"/>
<path fill="#bfbf7f" stroke="none" d="M 524.882 1051.38L 558.382 1061.88L 478.882 1126.88L 426.882 1110.38L 524.882 1051.38z"/>
<path fill="none" stroke-width="2" stroke="#7f0000" d="M 651.311 1154.67C 651.311 1154.67 656.9 1149.26 660.416 1148.32C 663.931 1147.37 670.906 1148.99 670.906 1148.99C 670.906 1148.99 677.535 1141.1 680.551 1140.14C 683.567 1139.19 689.558 1139.79 689.558 1139.79C 689.558 1139.79 693.155 1133.85 699.687 1131.95C 706.218 1130.06 708.669 1133.1 708.669 1133.1C 708.669 1133.1 715.258 1127.71 721.298 1125.31C 727.337 1122.9 731.304 1124.97 731.304 1124.97C 731.304 1124.97 736.926 1117.56 742.457 1115.65C 747.989 1113.74 749.94 1116.77 749.94 1116.77C 749.94 1116.77 755.537 1110.86 761.577 1108.46C 767.617 1106.06 770.567 1109.1 770.567 1109.1C 770.567 1109.1 771.641 1104.62 777.18 1102.21C 782.72 1099.8 785.163 1103.34 785.163 1103.34C 787.882 1102.88 790.882 1103.88 792.382 1106.38"/>
<path fill="none" stroke-width="2" stroke="#7f0000" d="M 678.895 1182.65C 678.895 1182.65 683.805 1176.62 687.185 1175.26C 690.564 1173.91 697.681 1174.69 697.681 1174.69C 697.681 1174.69 703.331 1166.07 706.213 1164.77C 709.095 1163.47 715.115 1163.35 715.115 1163.35C 715.115 1163.35 717.984 1157.03 724.246 1154.37C 730.508 1151.72 733.301 1154.45 733.301 1154.45C 733.301 1154.45 739.206 1148.32 744.92 1145.22C 750.633 1142.12 754.816 1143.7 754.816 1143.7C 754.816 1143.7 759.522 1135.68 764.79 1133.13C 770.057 1130.58 772.352 1133.36 772.352 1133.36C 772.352 1133.36 777.211 1126.83 782.925 1123.73C 788.639 1120.63 791.929 1123.31 791.929 1123.31C 791.929 1123.31 792.465 1118.73 797.681 1115.68C 802.897 1112.63 805.741 1115.86 805.741 1115.86"/>
<path fill="none" stroke-width="2" stroke="#7f0000" d="M 769.382 1109.38C 772.882 1109.88 775.882 1110.88 778.382 1113.38"/>
<path fill="none" stroke-width="2" stroke="#ff7f7f" d="M 750.382 1117.88C 753.382 1117.38 754.882 1120.38 757.382 1121.88"/>
<path fill="none" stroke-width="2" stroke="#7f0000" d="M 731.304 1124.97C 733.882 1126.88 737.382 1128.88 740.382 1130.88"/>
<path fill="none" stroke-width="2" stroke="#7f0000" d="M 710.382 1131.38C 713.882 1133.88 716.882 1136.88 719.882 1139.88"/>
<path fill="none" stroke-width="2" stroke="#7f0000" d="M 689.558 1139.79C 690.882 1141.88 692.882 1142.88 695.382 1143.88C 697.882 1144.88 697.882 1147.88 700.382 1148.38"/>
<path fill="none" stroke-width="2" stroke="#7f0000" d="M 669.882 1149.38C 676.382 1149.38 679.882 1155.38 685.882 1157.38C 686.882 1157.88 686.382 1159.38 687.382 1159.88"/>
<path fill="none" stroke-width="2" stroke="#7f0000" d="M 698.57 1173.57C 703.07 1175.57 707.57 1177.57 711.57 1181.07"/>
<path fill="none" stroke-width="2" stroke="#7f0000" d="M 715.115 1163.35C 720.07 1163.57 725.07 1166.57 727.57 1170.57"/>
<path fill="none" stroke-width="2" stroke="#7f0000" d="M 735.07 1154.57C 738.07 1154.57 740.57 1156.57 742.57 1159.07"/>
<path fill="none" stroke-width="2" stroke="#7f0000" d="M 753.57 1144.57C 754.07 1144.57 754.57 1144.57 754.816 1143.7C 754.57 1144.57 754.57 1144.07 754.816 1143.7C 757.07 1145.57 760.07 1147.07 761.57 1150.07"/>
<path fill="none" stroke-width="2" stroke="#7f0000" d="M 772.57 1134.57C 775.57 1135.07 777.57 1137.57 780.07 1139.57"/>
<path fill="none" stroke-width="2" stroke="#7f0000" d="M 791.929 1123.31C 794.07 1123.57 796.07 1125.57 796.57 1128.07"/>
<path fill="none" stroke-width="2" stroke="#ff7f7f" d="M 800.382 1112.88C 802.882 1113.38 804.882 1115.38 806.882 1116.38"/>
<path fill="none" stroke-width="2" stroke="#7f0000" d="M 785.382 1079.88C 782.382 1082.38 783.882 1085.88 784.382 1088.88C 784.382 1089.38 785.382 1090.38 784.882 1090.88C 780.882 1092.88 781.882 1096.88 781.882 1100.38C 781.882 1100.88 782.882 1100.88 782.882 1101.88C 783.382 1101.38 783.882 1101.38 784.382 1101.05"/>
<path fill="none" stroke-width="2" stroke="#7f0000" d="M 804.07 1113.57C 804.07 1111.07 803.07 1108.57 803.57 1106.57C 804.07 1106.57 805.57 1106.57 805.57 1106.57C 806.57 1104.07 806.07 1101.07 806.07 1098.07C 807.07 1098.57 807.57 1097.07 808.57 1097.57"/>
<path fill="none" stroke-width="2" stroke="#7f0000" d="M 784.882 1090.88C 786.882 1094.38 790.382 1095.38 792.382 1097.38"/>
<path fill="none" stroke-width="2" stroke="#7f0000" d="M 805.57 1106.57C 805.57 1107.07 805.57 1107.07 805.57 1106.57C 806.07 1107.07 805.57 1106.57 805.57 1106.57C 808.07 1108.07 809.07 1111.07 811.57 1112.07C 813.57 1112.57 815.57 1113.07 817.07 1114.57"/>
<path fill="none" stroke-width="2" stroke="#7f0000" d="M 794.882 1099.38C 795.382 1098.88 795.382 1100.38 795.882 1099.88"/>
<path fill="none" stroke-width="2" stroke="#7f0000" d="M 703.382 1150.38C 704.882 1150.38 704.882 1152.38 706.382 1152.38"/>
<path fill="none" stroke-width="2" stroke="#7f0000" d="M 742.382 1132.38C 742.882 1133.38 743.882 1133.88 744.382 1134.38"/>
<path fill="none" stroke-width="7" stroke="#ffffff" d="M 725.049 1137.05C 725.049 1137.05 727.049 1151.72 729.049 1156.38C 731.049 1161.05 734.382 1169.72 734.382 1169.72"/>
<path fill="#990000" stroke="none" d="M 765.882 1126.38C 768.382 1127.38 769.382 1129.88 770.882 1131.88"/>
<path fill="#990000" stroke="none" d="M 786.382 1117.88C 786.382 1119.38 787.882 1119.88 788.382 1121.38"/>
<path fill="#990000" stroke="none" d="M 710.882 1157.38C 712.382 1158.38 712.382 1159.88 713.382 1161.38"/>
<path fill="#990000" stroke="none" d="M 691.382 1167.38C 691.382 1169.88 693.882 1170.88 693.882 1173.38"/>
<path fill="#990000" stroke="none" d="M 763.882 1126.88C 765.382 1128.38 766.882 1128.88 767.382 1130.38"/>
<path fill="none" stroke-width="2" stroke="#7f0000" d="M 779.882 1048.38C 775.882 1048.38 772.882 1051.88 770.382 1054.38C 764.382 1061.88 763.882 1071.88 763.882 1080.88C 763.882 1081.88 765.382 1080.88 764.882 1081.88"/>
<path fill="none" stroke-width="2" stroke="#7f0000" d="M 765.382 1092.88C 765.382 1093.38 765.382 1094.38 765.382 1094.38C 770.882 1095.38 775.382 1090.88 780.882 1091.38"/>
<path fill="none" stroke-width="2" stroke="#7f0000" d="M 742.882 1107.88C 745.382 1107.88 748.382 1108.38 750.882 1107.38C 754.882 1105.88 758.382 1102.88 761.882 1099.38C 763.882 1096.88 763.882 1093.88 762.882 1091.88C 762.382 1091.38 763.882 1089.88 762.382 1089.38"/>
<path fill="none" stroke-width="2" stroke="#7f0000" d="M 718.882 1114.88C 723.882 1115.38 728.882 1114.38 732.882 1110.88C 734.382 1109.88 737.382 1109.38 737.382 1106.38"/>
<path fill="none" stroke-width="2" stroke="#7f0000" d="M 702.882 1120.88C 705.382 1122.88 709.382 1121.88 712.382 1121.88C 714.382 1121.38 716.882 1119.88 716.882 1117.38"/>
<path fill="none" stroke-width="2" stroke="#7f0000" d="M 680.382 1131.38C 686.882 1132.38 693.382 1128.38 696.382 1122.88"/>
<path fill="none" stroke-width="2" stroke="#7f0000" d="M 660.882 1135.88C 666.382 1136.38 672.382 1135.88 674.882 1130.38"/>
<path fill="none" stroke-width="2" stroke="#7f0000" d="M 642.382 1144.88C 647.882 1145.38 652.882 1141.88 654.882 1136.88"/>
<path fill="none" stroke-width="2" stroke="#7f0000" d="M 655.382 1128.38C 655.382 1130.38 655.882 1131.88 656.382 1133.88"/>
<path fill="none" stroke-width="2" stroke="#7f0000" d="M 659.382 1142.38C 659.382 1143.88 659.382 1145.88 659.382 1147.38"/>
<path fill="none" stroke-width="2" stroke="#7f0000" d="M 678.882 1134.38C 678.882 1135.88 679.882 1137.38 679.382 1138.88"/>
<path fill="none" stroke-width="2" stroke="#7f0000" d="M 701.382 1123.88C 701.382 1125.88 701.382 1127.88 701.382 1129.88"/>
<path fill="none" stroke-width="2" stroke="#7f0000" d="M 697.382 1113.88C 696.882 1114.88 698.382 1115.38 697.882 1116.38"/>
<path fill="none" stroke-width="2" stroke="#7f0000" d="M 719.382 1119.38C 720.382 1120.38 719.882 1121.88 719.882 1123.38"/>
<path fill="none" stroke-width="2" stroke="#7f0000" d="M 738.382 1100.38C 738.882 1101.88 737.882 1103.38 738.882 1104.88"/>
<path fill="none" stroke-width="2" stroke="#7f0000" d="M 765.882 1099.88C 765.882 1101.88 765.882 1104.38 765.882 1106.38"/>
<path fill="none" stroke-width="7" stroke="#ffffff" d="M 721.715 1083.05C 721.715 1083.05 721.715 1102.38 722.382 1112.38C 723.049 1122.38 725.049 1132.38 725.049 1132.38L 676.382 1124.38L 659.049 1169.72L 646.382 1167.05"/>
<path fill="none" stroke-width="7" stroke="#ffffff" d="M 728.382 1099.72L 755.715 1113.72L 759.715 1137.72L 751.049 1143.05L 751.715 1148.38"/>
<path fill="#7f7f7f" stroke="none" d="M 794.382 1068.38C 794.382 1068.38 795.382 1037.88 799.882 1033.38C 804.382 1028.88 808.882 1026.88 815.382 1026.88C 821.882 1026.88 834.382 1032.38 837.882 1043.38C 841.382 1054.38 844.382 1056.38 843.382 1065.88C 842.382 1075.38 841.882 1094.38 841.882 1094.38L 833.882 1100.88L 818.882 1086.88L 825.882 1077.88L 818.882 1076.38L 821.882 1065.38L 814.382 1073.38L 810.882 1064.88L 808.882 1081.88L 794.382 1068.38z"/>
<path fill="#bfbfbf" stroke="none" d="M 833.382 1047.38L 836.382 1053.88L 841.882 1055.38L 836.882 1061.88L 831.882 1059.88L 832.382 1052.88L 833.382 1047.38z"/>
<path fill="none" stroke-width="1" stroke="#bfbfbf" d="M 828.382 1040.38C 826.882 1040.38 824.382 1040.88 824.382 1040.88L 823.382 1046.38L 811.382 1050.38"/>
<path fill="none" stroke-width="1" stroke="#3f3f3f" d="M 827.382 1039.57C 825.882 1039.57 823.382 1040.07 823.382 1040.07L 822.382 1045.57L 810.382 1049.57"/>
<path fill="#7f0000" stroke="none" d="M 782.382 1048.38L 764.715 1066.05C 764.715 1066.05 768.715 1053.38 772.382 1051.72C 776.049 1050.05 782.382 1048.38 782.382 1048.38z"/>
<path fill="#7f7f7f" stroke="none" d="M 550.632 1051.88L 567.382 1023.88L 555.882 1013.63L 560.632 1004.63L 573.632 1012.88L 580.382 1003.38L 593.132 1013.13L 589.632 1021.38L 599.382 1026.88L 591.632 1037.13L 582.632 1030.88L 566.132 1059.88L 560.882 1060.38L 555.632 1056.38L 550.632 1051.88z"/>
<path fill="none" stroke-width="1" stroke="#bfbfbf" d="M 556.57 1044.32L 560.82 1042.57L 560.82 1045.57L 564.07 1043.32"/>
<path fill="none" stroke-width="1" stroke="#3f3f3f" d="M 556.546 1043.16L 560.796 1041.41L 560.796 1044.41L 564.046 1042.16"/>
<path fill="none" stroke-width="4" stroke="#ffffff" d="M 476.382 1027.38L 441.882 1093.88L 470.82 1040.4L 454.549 1034.72L 440.382 1049.38L 433.882 1047.38"/>
<path fill="none" stroke-width="4" stroke="#ffffff" d="M 475.215 1038.38L 498.882 1066.38L 506.715 1067.22"/>
<path fill="none" stroke-width="4" stroke="#ffffff" d="M 460.882 1070.38L 486.382 1071.88"/>
</g>
<g>
<path fill="none" stroke-width="4" stroke="#000000" d="M 734.437 1098.52C 743.475 1094.9 752.181 1090.89 760.382 1086.38C 770.382 1080.38 785.715 1075.05 785.715 1075.05L 828.382 1110.38C 828.382 1110.38 746.382 1164.38 706.382 1194.38C 690.358 1188.37 675.839 1179.36 662.322 1168.84"/>
<path fill="none" stroke-width="4" stroke="#000000" d="M 655.736 1163.53C 644.743 1154.4 634.389 1144.39 624.382 1134.38L 624.382 1130.38C 655.017 1122.03 689.529 1114.64 721.169 1103.5"/>
<path fill="#3f3f3f" stroke-width="5" stroke="#000000" d="M 626.382 1128.38"/>
<path fill="none" stroke-width="4" stroke="#000000" d="M 631.049 1127.05L 639.049 1058.38L 668.619 1056.2"/>
<path fill="none" stroke-width="4" stroke="#000000" d="M 675.14 1055.72L 698.64 1053.99"/>
<path fill="none" stroke-width="4" stroke="#000000" d="M 736.885 1051.17L 783.715 1047.72L 779.049 1076.38"/>
<path fill="none" stroke-width="4" stroke="#000000" d="M 721.632 1039.13C 704.376 1036.09 701.049 1055.05 703.715 1067.05C 705.715 1073.72 711.049 1077.72 717.049 1079.72C 723.049 1081.05 728.382 1079.72 732.382 1074.38C 737.049 1067.72 738.382 1059.72 736.382 1052.38C 735.049 1046.38 730.132 1040.63 721.632 1039.13z"/>
<path fill="none" stroke-width="4" stroke="#000000" d="M 725.715 1080.38C 726.382 1093.72 725.049 1107.05 726.382 1120.38C 726.382 1125.72 729.049 1135.72 729.049 1135.72C 729.049 1135.72 689.049 1129.05 677.715 1126.38C 677.049 1129.72 660.382 1171.72 660.382 1171.72L 655.049 1171.05C 655.049 1171.05 649.132 1170.13 646.132 1169.63"/>
<path fill="none" stroke-width="4" stroke="#000000" d="M 728.382 1138.38C 729.049 1148.38 733.049 1157.05 736.382 1166.38"/>
<path fill="none" stroke-width="4" stroke="#000000" d="M 703.215 1063.72C 709.215 1069.38 722.382 1074.38 734.049 1070.72"/>
<path fill="none" stroke-width="4" stroke="#000000" d="M 711.049 1053.05C 709.791 1053.99 708.882 1060.22 709.715 1061.05C 710.549 1061.88 714.549 1062.05 715.715 1061.05C 716.882 1060.05 716.882 1054.55 715.715 1053.72C 714.549 1052.88 712.382 1052.05 711.049 1053.05z"/>
<path fill="none" stroke-width="4" stroke="#000000" d="M 724.382 1057.72C 722.715 1059.22 721.382 1063.72 722.382 1065.05C 723.382 1066.38 727.049 1066.88 728.382 1065.72C 729.715 1064.55 731.382 1057.88 729.715 1057.05C 728.049 1056.22 726.049 1056.22 724.382 1057.72z"/>
<path fill="none" stroke-width="4" stroke="#000000" d="M 725.715 1090.38L 692.382 1087.05L 674.382 1053.72L 668.382 1049.72L 658.382 1055.05"/>
<path fill="none" stroke-width="4" stroke="#000000" d="M 726.382 1095.05C 726.382 1095.05 759.679 1113.14 757.715 1111.72C 759.049 1112.38 761.715 1136.38 762.382 1138.38L 753.049 1144.38L 754.382 1147.72"/>
<path fill="none" stroke-width="4" stroke="#000000" d="M 723.049 1072.22L 721.882 1078.38"/>
<path fill="none" stroke-width="4" stroke="#000000" d="M 714.382 1070.38L 713.382 1078.38"/>
<path fill="none" stroke-width="4" stroke="#000000" d="M 539.842 1077.88C 548.833 1077.16 554.382 1076.88 554.382 1076.88C 554.382 1076.88 552.626 1073.37 550.346 1068.4"/>
<path fill="none" stroke-width="4" stroke="#000000" d="M 545.532 1057.32C 543.604 1052.58 541.851 1047.76 540.882 1043.88C 525.882 1043.88 510.882 1042.38 495.882 1045.38C 492.734 1045.88 489.622 1046.36 486.539 1046.82"/>
<path fill="none" stroke-width="4" stroke="#000000" d="M 479.569 1047.86C 475.823 1048.4 472.111 1048.94 468.417 1049.46"/>
<path fill="none" stroke-width="4" stroke="#000000" d="M 459.546 1050.7C 444.396 1052.81 429.361 1054.86 413.382 1057.38C 399.882 1060.38 374.382 1061.88 374.382 1061.88C 374.382 1061.88 374.382 1066.38 375.882 1067.88C 389.382 1078.38 387.882 1090.38 401.382 1100.88C 402.882 1100.88 417.882 1103.88 420.882 1102.38C 430.993 1097.33 443.988 1093.23 457.89 1089.92"/>
<path fill="none" stroke-width="4" stroke="#000000" d="M 502.053 1064.55L 524.382 1051.38L 558.882 1061.88L 479.32 1126.32L 425.32 1109.82L 497.474 1067.26"/>
<path fill="none" stroke-width="4" stroke="#000000" d="M 494.882 998.882C 490.31 997.053 485.882 993.882 481.882 996.382C 473.882 1001.88 473.882 1012.88 473.382 1021.88C 476.882 1025.38 480.382 1027.88 484.382 1029.88C 488.382 1032.38 493.882 1031.88 496.882 1030.38C 506.882 1025.38 502.382 1011.88 501.882 1002.38C 501.882 999.882 497.382 999.882 494.882 998.882z"/>
<path fill="none" stroke-width="4" stroke="#000000" d="M 478.882 1028.38C 475.382 1039.38 467.882 1048.88 463.882 1059.88C 462.882 1063.88 459.382 1066.88 458.382 1070.38C 456.382 1076.38 449.382 1086.38 446.882 1092.38"/>
<path fill="none" stroke-width="4" stroke="#000000" d="M 457.382 1072.38C 464.882 1072.38 477.882 1073.88 484.882 1074.38"/>
<path fill="none" stroke-width="4" stroke="#000000" d="M 474.382 1039.88C 479.882 1050.88 488.882 1059.38 497.882 1068.38C 499.382 1070.38 503.382 1069.88 506.382 1070.38"/>
<path fill="none" stroke-width="4" stroke="#000000" d="M 469.882 1043.88C 465.882 1040.88 460.882 1038.38 455.382 1037.88C 450.882 1042.38 441.382 1051.38 441.382 1051.38C 441.382 1051.38 435.882 1050.88 432.882 1049.38"/>
<path fill="none" stroke-width="3" stroke="#000000" d="M 502.382 1016.88C 502.382 1016.88 498.882 1020.38 493.882 1020.88C 488.882 1021.38 483.382 1018.88 483.382 1018.88L 478.382 1023.88"/>
<path fill="none" stroke-width="3" stroke="#000000" d="M 483.757 1005.76C 484.382 1003.01 488.757 1003.01 489.757 1004.26C 490.757 1005.51 490.757 1012.76 487.257 1012.76C 483.757 1012.76 483.132 1008.51 483.757 1005.76z"/>
<path fill="none" stroke-width="3" stroke="#000000" d="M 501.57 1004.82C 501.57 1004.82 497.07 1005.82 497.57 1008.82C 498.07 1011.82 499.57 1013.82 501.57 1012.82"/>
<path fill="none" stroke-width="3" stroke="#000000" d="M 486.57 1020.76L 483.07 1027.76"/>
<path fill="none" stroke-width="3" stroke="#000000" d="M 493.007 1020.57L 489.007 1030.07"/>
<path fill="none" stroke-width="3" stroke="#000000" d="M 497.445 1019.82L 494.945 1030.32"/>
<path fill="none" stroke-width="4" stroke="#000000" d="M 814.882 1026.38C 816.882 1025.88 818.382 1026.88 820.382 1026.88C 819.882 1027.38 819.882 1027.88 819.382 1028.38C 822.382 1028.38 825.382 1027.88 827.382 1029.38C 833.382 1033.38 834.882 1039.88 838.382 1045.88C 843.882 1054.38 843.382 1064.88 842.882 1074.88C 842.382 1078.88 841.882 1082.38 840.882 1086.38C 840.382 1088.88 840.882 1090.88 840.882 1093.38L 833.382 1101.38C 833.882 1094.38 834.882 1087.88 836.882 1080.88C 838.382 1074.88 837.882 1068.88 836.882 1062.88C 836.882 1061.88 833.882 1062.38 833.382 1061.38C 830.882 1055.88 834.382 1048.88 830.882 1043.88C 827.382 1037.88 825.382 1030.88 819.382 1028.38C 814.382 1026.38 806.882 1026.38 802.382 1030.88C 798.382 1034.38 798.382 1040.38 797.382 1045.38C 795.382 1053.38 794.882 1060.88 795.382 1068.88L 809.882 1081.88L 810.382 1064.88L 815.382 1073.88L 824.382 1062.88L 819.882 1075.88L 827.382 1077.38L 817.882 1086.88L 833.382 1101.38"/>
<path fill="none" stroke-width="4" stroke="#000000" d="M 549.82 1052.13L 566.57 1022.88L 555.82 1013.63L 561.07 1003.38L 573.82 1012.38L 579.57 1001.63L 590.07 1009.88L 584.57 1017.88L 596.32 1023.88L 589.57 1034.63L 578.32 1027.13L 559.57 1060.63L 565.57 1059.63L 582.07 1030.38"/>
<path fill="none" stroke-width="4" stroke="#000000" d="M 590.82 1009.88L 592.57 1013.13L 589.07 1018.88"/>
<path fill="none" stroke-width="4" stroke="#000000" d="M 597.07 1024.38L 598.82 1026.38L 591.82 1036.13L 588.07 1033.63"/>
</g>
<g>
<path fill="none" stroke-width="4" stroke="#bfffdf" d="M 596.382 514.358C 641.682 514.358 678.407 551.082 678.407 596.382C 678.407 641.682 641.682 678.407 596.382 678.407C 551.082 678.407 514.358 641.682 514.358 596.382C 514.358 551.082 551.082 514.358 596.382 514.358z"/>
<path fill="none" stroke-width="4" stroke="#bfffdf" d="M 596.382 437.99C 683.858 437.99 754.774 508.906 754.774 596.382C 754.774 683.858 683.858 754.774 596.382 754.774C 508.906 754.774 437.99 683.858 437.99 596.382C 437.99 508.906 508.906 437.99 596.382 437.99z"/>
<path fill="none" stroke-width="3" stroke="#bfffdf" d="M 596.382 290.912C 765.086 290.912 901.852 427.678 901.852 596.382C 901.852 765.086 765.086 901.852 596.382 901.852C 427.678 901.852 290.912 765.086 290.912 596.382C 290.912 427.678 427.678 290.912 596.382 290.912z"/>
<path fill="none" stroke-width="2" stroke="#bfffdf" d="M 596.382 245.657C 790.079 245.657 947.107 402.685 947.107 596.382C 947.107 790.079 790.079 947.107 596.382 947.107C 402.685 947.107 245.657 790.079 245.657 596.382C 245.657 402.685 402.685 245.657 596.382 245.657z"/>
<path fill="none" stroke-width="1" stroke="#bfffdf" d="M 596.382 5.24084C 922.856 5.24084 1187.52 269.909 1187.52 596.382C 1187.52 922.856 922.856 1187.52 596.382 1187.52C 269.909 1187.52 5.24084 922.856 5.24084 596.382C 5.24084 269.909 269.909 5.24084 596.382 5.24084z"/>
<path fill="#ff9f3f" stroke="none" d="M 528.382 604.382C 528.382 604.382 571.382 596.382 582.382 590.382C 593.382 584.382 600.382 576.382 600.382 576.382C 600.382 576.382 609.382 581.382 609.382 592.382C 609.382 603.382 606.382 616.382 606.382 616.382C 606.382 616.382 597.382 607.382 581.382 606.382C 565.382 605.382 528.382 604.382 528.382 604.382z"/>
<path fill="#ffff7f" stroke="none" d="M 427.382 576.382C 427.382 576.382 411.382 568.382 403.382 570.382C 395.382 572.382 398.382 577.382 392.382 579.382C 386.382 581.382 381.382 578.382 378.382 582.382C 375.382 586.382 381.382 589.382 377.382 593.382C 373.382 597.382 366.382 598.382 365.382 602.382C 364.382 606.382 364.382 611.382 360.382 616.382C 356.382 621.382 366.382 637.382 366.382 637.382L 387.382 640.382L 402.382 639.382L 402.382 630.382C 402.382 630.382 385.382 628.382 384.382 623.382C 383.382 618.382 384.382 609.382 384.382 609.382C 384.382 609.382 391.382 603.382 392.382 599.382C 393.382 595.382 397.382 590.382 397.382 590.382L 410.382 588.382L 417.382 584.382L 429.382 582.382C 429.382 582.382 433.382 586.382 433.382 592.382C 433.382 598.382 431.382 606.382 431.382 606.382L 445.382 610.382L 455.382 601.382L 445.382 600.382C 445.382 600.382 446.382 585.382 444.382 579.382C 442.382 573.382 437.382 573.382 437.382 573.382L 427.382 576.382z"/>
<path fill="#ffe5cc" stroke="none" d="M 397.382 590.382C 397.382 590.382 403.382 592.382 410.382 588.382C 417.382 584.382 423.382 582.382 423.382 582.382L 431.382 585.382C 431.382 585.382 437.382 594.382 431.382 606.382C 425.382 618.382 426.382 621.382 421.382 628.382C 416.382 635.382 419.382 635.382 409.382 633.382C 399.382 631.382 384.382 623.382 384.382 623.382L 384.382 609.382L 392.382 599.382L 397.382 590.382z"/>
<path fill="#ffffff" stroke="none" d="M 389.382 651.382C 389.382 651.382 380.382 648.382 377.382 642.382C 374.382 636.382 371.382 623.382 371.382 623.382L 368.382 632.382L 368.382 642.382L 357.382 622.382L 362.382 610.382L 356.382 596.382L 351.382 578.382L 343.382 577.382L 340.382 594.382L 329.382 591.382L 325.382 596.382L 329.382 606.382L 323.382 612.382L 324.382 625.382L 311.382 625.382L 294.382 616.382L 289.382 626.382L 298.382 634.382L 291.382 647.382L 302.382 651.382L 299.382 665.382L 310.382 666.382L 314.382 677.382L 324.382 677.382L 332.382 683.382L 359.382 665.382L 365.382 670.382L 374.382 665.382L 380.382 672.382L 389.382 660.382L 389.382 651.382z"/>
<path fill="#ffffff" stroke="none" d="M 311.382 727.382C 311.382 727.382 331.382 733.382 342.382 724.382C 353.382 715.382 366.382 710.382 373.382 691.382C 380.382 672.382 390.382 644.382 390.382 644.382L 394.382 650.382C 394.382 650.382 393.382 717.382 390.382 735.382C 387.382 753.382 392.382 765.382 381.382 776.382C 370.382 787.382 362.382 790.382 345.382 790.382C 328.382 790.382 318.382 789.382 318.382 789.382L 309.382 756.382C 309.382 756.382 303.382 744.382 304.382 738.382C 305.382 732.382 311.382 727.382 311.382 727.382z"/>
</g>
<g>
<path fill="none" stroke-width="4" stroke="#ffffff" d="M 427.02 575.523C 429.63 572.968 431.118 570.02 431.118 566.882C 431.118 557.119 416.713 549.205 398.945 549.205C 381.176 549.205 366.771 557.119 366.771 566.882C 366.771 573.75 373.9 579.704 384.314 582.63"/>
<path fill="none" stroke-width="6" stroke="#ff7f00" d="M 384.87 609.074C 384.779 613.536 384.882 618.062 384.882 622.382C 396.882 625.382 410.382 640.382 419.382 631.382C 432.882 620.882 435.882 584.882 432.882 583.382C 429.882 581.882 429.882 581.882 429.882 581.882"/>
<path fill="none" stroke-width="6" stroke="#00ffff" d="M 390.882 626.882C 390.882 632.882 390.882 637.382 390.882 643.382"/>
<path fill="none" stroke-width="6" stroke="#00ffff" d="M 389.382 644.882C 390.882 670.382 368.882 698.382 353.882 716.382C 343.382 728.382 334.882 726.882 317.382 727.382C 317.382 727.382 313.882 726.382 308.382 725.882C 303.882 740.882 307.882 750.382 311.382 760.882C 314.991 771.709 312.882 782.382 317.882 788.382C 332.882 788.882 354.882 795.382 370.382 784.382C 386.839 772.703 386.382 765.882 388.882 746.882C 393.01 715.51 394.382 675.882 394.382 645.882C 394.382 644.382 390.882 646.382 389.382 644.882z"/>
<path fill="none" stroke-width="6" stroke="#00ffff" d="M 393.882 674.882C 405.882 685.382 423.882 689.882 437.382 683.882C 459.882 673.382 455.382 643.382 455.382 620.882"/>
<path fill="none" stroke-width="6" stroke="#ff7f00" d="M 413.049 617.716C 413.049 617.716 459.232 613.015 503.715 606.382C 542.826 600.55 580.639 592.878 584.382 590.382C 592.382 585.049 594.049 587.049 600.882 574.382C 610.049 581.382 615.049 605.382 606.382 615.716C 598.382 610.382 592.797 608.882 588.882 608.882C 554.382 601.382 482.215 611.549 505.049 608.382C 527.882 605.216 413.049 617.716 413.049 617.716z"/>
<path fill="none" stroke-width="6" stroke="#ff7fff" d="M 381.715 657.049C 381.715 655.716 380.382 655.716 380.382 655.049C 367.049 649.716 353.715 645.716 340.382 639.049C 328.382 633.049 316.382 627.716 305.049 619.716C 301.049 617.049 296.382 613.716 293.049 617.716C 290.382 620.382 289.715 625.716 291.715 627.716C 299.049 634.382 307.049 640.382 315.715 645.716C 317.049 646.382 319.049 646.382 320.382 647.049"/>
<path fill="none" stroke-width="6" stroke="#ff7fff" d="M 300.382 637.716C 299.049 637.716 297.049 637.049 295.715 637.716C 292.382 640.382 291.049 644.382 291.715 648.382C 301.715 651.049 311.715 656.382 322.382 655.716"/>
<path fill="none" stroke-width="6" stroke="#ff7fff" d="M 300.382 653.716C 299.049 657.716 296.382 663.049 299.049 665.049C 306.382 670.382 316.382 663.716 325.049 663.716"/>
<path fill="none" stroke-width="6" stroke="#ff7fff" d="M 311.049 669.049C 311.049 671.716 310.382 675.049 312.382 676.382C 323.715 680.382 333.049 671.716 341.049 664.382"/>
<path fill="none" stroke-width="6" stroke="#ff7fff" d="M 326.382 677.049C 327.049 682.382 332.382 684.382 337.049 682.382C 346.382 679.049 352.382 669.716 361.715 665.716C 361.715 667.716 361.049 669.716 363.049 671.049C 367.049 672.382 368.382 667.716 371.715 666.382C 372.382 666.382 373.715 666.382 374.382 666.382C 376.382 668.382 377.049 671.716 380.382 672.382"/>
<path fill="none" stroke-width="6" stroke="#ff7fff" d="M 387.049 649.049C 383.049 645.049 379.715 641.049 377.049 636.382C 374.382 632.382 373.049 627.716 371.049 623.049C 367.049 613.716 360.382 605.716 356.382 596.382C 354.382 591.716 353.715 586.382 352.382 581.049C 351.049 577.049 344.382 575.716 343.049 579.049C 339.715 587.049 339.715 597.049 343.049 606.382C 344.382 609.716 347.715 611.049 348.382 614.382"/>
<path fill="none" stroke-width="6" stroke="#ff7fff" d="M 339.715 593.716C 337.715 593.716 335.049 593.716 333.049 592.382C 331.715 591.716 329.049 591.716 328.382 592.382C 325.715 595.716 325.715 599.716 327.715 603.049C 331.049 609.049 334.382 616.382 340.382 621.049"/>
<path fill="none" stroke-width="6" stroke="#ff7fff" d="M 326.382 610.382C 321.715 612.382 323.049 617.716 324.382 621.049C 325.049 625.049 330.382 626.382 333.049 629.716C 335.715 633.049 339.715 633.716 342.382 636.382"/>
<path fill="none" stroke-width="6" stroke="#ff7fff" d="M 323.715 623.716C 323.049 625.716 321.715 627.049 320.382 628.382"/>
<path fill="none" stroke-width="6" stroke="#ff9f3f" d="M 357.715 621.716C 363.715 617.716 362.382 609.716 364.382 603.049C 365.715 599.049 375.715 599.716 377.049 596.382C 379.049 593.716 373.715 587.049 375.049 584.382C 378.382 579.716 387.049 583.716 391.715 579.716C 393.049 579.049 396.382 569.716 397.715 570.382C 408.382 570.382 415.715 571.049 426.382 575.716C 432.67 578.467 438.382 569.049 443.049 572.382C 445.049 573.716 442.382 578.382 444.382 581.716L 445.715 581.716C 445.715 588.382 445.715 594.382 445.715 601.049C 449.715 601.049 454.382 601.049 458.382 601.049"/>
<path fill="none" stroke-width="6" stroke="#00ffff" d="M 419.049 595.049C 419.049 597.716 419.049 601.049 419.049 603.716"/>
<path fill="none" stroke-width="6" stroke="#00ffff" d="M 409.715 594.382C 409.715 597.716 409.715 601.049 409.715 604.382"/>
<path fill="none" stroke-width="6" stroke="#ff9f3f" d="M 417.715 582.382C 413.715 589.049 404.382 589.049 397.715 589.049C 395.049 595.049 391.715 600.382 387.715 605.716C 386.382 607.049 383.049 606.382 381.715 608.382C 380.382 609.049 381.715 612.382 380.382 614.382C 376.382 619.716 369.715 621.716 367.049 628.382C 365.715 632.382 369.049 636.382 368.382 641.049C 369.049 641.049 369.049 641.049 369.715 641.049"/>
<path fill="none" stroke-width="6" stroke="#00ffff" d="M 385.049 692.382L 387.049 699.716C 387.049 699.716 405.049 717.716 419.049 727.049C 427.715 732.382 451.049 735.049 451.049 735.049"/>
</g>
<g>
<path fill="none" stroke-width="8" stroke="#ff0000" d="M 409.011 459.389L 338.21 530.115"/>
<path fill="none" stroke-width="8" stroke="#ff0000" d="M 338.21 459.389L 409.011 530.115"/>
<path fill="none" stroke-width="8" stroke="#ff0000" d="M 509.013 459.216L 438.212 529.942"/>
<path fill="none" stroke-width="8" stroke="#ff0000" d="M 438.212 459.216L 509.013 529.942"/>
</g>
</svg>